<?xml version="1.0" encoding="UTF-8" standalone="no"?>
<!-- Created with Inkscape (http://www.inkscape.org/) -->

<svg
   width="22"
   height="22"
   viewBox="0 0 22 22.000002"
   version="1.1"
   id="svg1"
   inkscape:version="1.4.2 (ebf0e940d0, 2025-05-08)"
   sodipodi:docname="accessories-calculator.svg"
   xmlns:inkscape="http://www.inkscape.org/namespaces/inkscape"
   xmlns:sodipodi="http://sodipodi.sourceforge.net/DTD/sodipodi-0.dtd"
   xmlns:xlink="http://www.w3.org/1999/xlink"
   xmlns="http://www.w3.org/2000/svg"
   xmlns:svg="http://www.w3.org/2000/svg">
  <sodipodi:namedview
     id="namedview1"
     pagecolor="#ffffff"
     bordercolor="#000000"
     borderopacity="0.25"
     inkscape:showpageshadow="2"
     inkscape:pageopacity="0.0"
     inkscape:pagecheckerboard="0"
     inkscape:deskcolor="#d1d1d1"
     inkscape:document-units="px"
     inkscape:zoom="36.181818"
     inkscape:cx="10.986181"
     inkscape:cy="11"
     inkscape:window-width="1920"
     inkscape:window-height="1011"
     inkscape:window-x="0"
     inkscape:window-y="0"
     inkscape:window-maximized="1"
     inkscape:current-layer="svg1" />
  <defs
     id="defs1">
    <linearGradient
       inkscape:collect="always"
       xlink:href="#4852"
       id="linearGradient4"
       x1="16"
       y1="30"
       x2="16"
       y2="2"
       gradientUnits="userSpaceOnUse"
       gradientTransform="matrix(0.71428571,0,0,0.71428571,-0.42857143,-0.42857143)" />
    <linearGradient
       inkscape:collect="always"
       id="4852">
      <stop
         style="stop-color:#272727;stop-opacity:1;"
         offset="0"
         id="stop14555" />
      <stop
         style="stop-color:#5d5d5d;stop-opacity:1;"
         offset="1"
         id="stop14557" />
    </linearGradient>
    <linearGradient
       inkscape:collect="always"
       xlink:href="#linearGradient3147"
       id="linearGradient1525"
       x1="38.553501"
       y1="37.459599"
       x2="38.553501"
       y2="47.459599"
       gradientUnits="userSpaceOnUse"
       gradientTransform="translate(-27.5535,-26.459597)" />
    <linearGradient
       inkscape:collect="always"
       id="linearGradient3147">
      <stop
         style="stop-color:#41bbff;stop-opacity:1;"
         offset="0"
         id="stop3143" />
      <stop
         style="stop-color:#0091f9;stop-opacity:1;"
         offset="1"
         id="stop3145" />
    </linearGradient>
  </defs>
  <rect
     style="opacity:0.2;fill:#000000;stroke-width:1.75"
     id="rect1"
     width="20"
     height="20"
     x="1"
     y="1.5"
     ry="4" />
  <rect
     style="fill:url(#linearGradient4);stroke-width:0.714286"
     id="rect2"
     width="20"
     height="20"
     x="1"
     y="1"
     ry="4" />
  <path
     id="rect686"
     style="fill:url(#linearGradient1525);fill-opacity:1;stroke-width:1.57143;stroke-linecap:round;stroke-linejoin:round"
     d="m 12,11 c -0.553999,0 -1,0.446001 -1,1 v 7 c 0,0.553999 0.446001,1 1,1 h 5 a 3,3 0 0 0 3,-3 3,3 0 0 1 0,-0.002 V 12 c 0,-0.553999 -0.446001,-1 -1,-1 z" />
  <path
     id="path364"
     style="fill:#f9f9f9;stroke-width:5.7966;stroke-linejoin:round"
     d="m 6.0005156,4 v 2 h -2 v 1.0000001 h 2 V 9 h 1 V 7.0000001 H 9.000516 V 6 H 7.0005156 V 4 Z M 12.999985,6 V 7.0000001 H 17.99953 V 6 Z M 4.3540312,13.646484 3.647,14.353516 5.2934844,16 3.647,17.646484 4.3540312,18.353516 6.0005156,16.707031 7.647,18.353516 8.354031,17.646484 6.7075468,16 8.354031,14.353516 7.647,13.646484 6.0005156,15.292969 Z"
     sodipodi:nodetypes="ccccccccccccccccccccccccccccccc" />
  <path
     d="m 12.999758,14 v 0.999999 h 5 V 14 Z m 0,2.000001 V 17 h 5 v -0.999999 z"
     style="fill:#ffffff;stroke-width:5.79657;stroke-linejoin:round"
     id="path697"
     sodipodi:nodetypes="cccccccccc" />
</svg>
