<?xml version="1.0" encoding="UTF-8" standalone="no"?>
<!-- Created with Inkscape (http://www.inkscape.org/) -->

<svg
   width="22"
   height="22"
   viewBox="0 0 22 22.000002"
   version="1.1"
   id="svg1"
   inkscape:version="1.4.2 (ebf0e940d0, 2025-05-08)"
   sodipodi:docname="com.github.maoschanz.drawing.svg"
   xmlns:inkscape="http://www.inkscape.org/namespaces/inkscape"
   xmlns:sodipodi="http://sodipodi.sourceforge.net/DTD/sodipodi-0.dtd"
   xmlns:xlink="http://www.w3.org/1999/xlink"
   xmlns="http://www.w3.org/2000/svg"
   xmlns:svg="http://www.w3.org/2000/svg">
  <sodipodi:namedview
     id="namedview1"
     pagecolor="#ffffff"
     bordercolor="#000000"
     borderopacity="0.25"
     inkscape:showpageshadow="2"
     inkscape:pageopacity="0.0"
     inkscape:pagecheckerboard="0"
     inkscape:deskcolor="#d1d1d1"
     inkscape:document-units="px"
     inkscape:zoom="35.727273"
     inkscape:cx="10.986005"
     inkscape:cy="11"
     inkscape:window-width="1920"
     inkscape:window-height="1011"
     inkscape:window-x="0"
     inkscape:window-y="0"
     inkscape:window-maximized="1"
     inkscape:current-layer="svg1" />
  <defs
     id="defs1">
    <linearGradient
       inkscape:collect="always"
       xlink:href="#4852"
       id="linearGradient4"
       x1="16"
       y1="30"
       x2="16"
       y2="2"
       gradientUnits="userSpaceOnUse"
       gradientTransform="matrix(0.71428571,0,0,0.71428571,-0.42857143,-0.42857143)" />
    <linearGradient
       inkscape:collect="always"
       id="4852">
      <stop
         style="stop-color:#5d5d5d;stop-opacity:1;"
         offset="0"
         id="stop14555" />
      <stop
         style="stop-color:#272727;stop-opacity:1;"
         offset="1"
         id="stop14557" />
    </linearGradient>
    <linearGradient
       inkscape:collect="always"
       id="linearGradient3028">
      <stop
         style="stop-color:#ef8d7a;stop-opacity:1;"
         offset="0"
         id="stop3024" />
      <stop
         style="stop-color:#e5443f;stop-opacity:1;"
         offset="1"
         id="stop3026" />
    </linearGradient>
    <linearGradient
       inkscape:collect="always"
       xlink:href="#linearGradient3028"
       id="linearGradient2"
       x1="11"
       y1="21"
       x2="11"
       y2="1"
       gradientUnits="userSpaceOnUse" />
  </defs>
  <rect
     style="opacity:0.2;fill:#000000;stroke-width:1.75"
     id="rect1"
     width="20"
     height="20"
     x="1"
     y="1.5"
     ry="4" />
  <rect
     style="fill:url(#linearGradient4);stroke-width:0.714286"
     id="rect2"
     width="20"
     height="20"
     x="1"
     y="1"
     ry="4" />
  <path
     d="m 2.6608454,9.0268748 c -0.2615915,-0.089166 -0.5459059,0.0508 -0.6347657,0.3125 -0.087714,0.261567 0.053004,0.54475 0.3144532,0.632813 0.5137053,0.1743442 0.5665161,0.3135752 0.609375,0.5332032 0.042859,0.219627 -0.024286,0.592602 -0.091797,1.019531 -0.067511,0.42693 -0.1348869,0.973412 0.2128906,1.451172 0.3477775,0.47776 0.9819889,0.70519 1.9570312,0.767578 0.8284247,0.05301 1.2867629,0.666668 1.59375,1.378906 0.3069872,0.712239 0.3808594,1.425781 0.3808594,1.425781 0.026737,0.275186 0.2717355,0.476435 0.546875,0.449219 0.2751864,-0.02674 0.4764351,-0.271736 0.4492188,-0.546875 0,0 -0.079414,-0.843972 -0.4589844,-1.724609 C 7.1601815,13.845457 6.3991994,12.829359 5.0905328,12.745626 4.2473676,12.691675 3.9626535,12.500351 3.8795954,12.386251 3.7965374,12.272148 3.7871544,12.055783 3.8463924,11.681172 3.9056304,11.30656 4.0349261,10.839733 3.9323294,10.313985 3.8297335,9.7882368 3.3945863,9.2758958 2.6608454,9.0268748 Z"
     style="color:#000000;opacity:0.5;fill:#ffffff;stroke-linecap:round;-inkscape-stroke:none"
     id="path6379" />
  <path
     id="path1166"
     style="fill:url(#linearGradient2);stroke-width:0.375"
     d="m 8.5799278,13.798757 -1.0606609,3.18198 3.1819811,-1.060661 8.485518,-8.4855193 c 0.391736,-0.391737 0.391737,-1.0224749 1e-6,-1.4142125 L 18.479659,5.3132378 c -0.391736,-0.391738 -1.022476,-0.3917376 -1.414213,-5e-7 z"
     sodipodi:nodetypes="ccccsssc" />
</svg>
