<?xml version="1.0" encoding="UTF-8" standalone="no"?>
<!-- Created with Inkscape (http://www.inkscape.org/) -->

<svg
   width="22"
   height="22"
   viewBox="0 0 22 22.000002"
   version="1.1"
   id="svg1"
   inkscape:version="1.4.2 (ebf0e940d0, 2025-05-08)"
   sodipodi:docname="cpu-x.svg"
   xmlns:inkscape="http://www.inkscape.org/namespaces/inkscape"
   xmlns:sodipodi="http://sodipodi.sourceforge.net/DTD/sodipodi-0.dtd"
   xmlns:xlink="http://www.w3.org/1999/xlink"
   xmlns="http://www.w3.org/2000/svg"
   xmlns:svg="http://www.w3.org/2000/svg">
  <sodipodi:namedview
     id="namedview1"
     pagecolor="#ffffff"
     bordercolor="#000000"
     borderopacity="0.25"
     inkscape:showpageshadow="2"
     inkscape:pageopacity="0.0"
     inkscape:pagecheckerboard="0"
     inkscape:deskcolor="#d1d1d1"
     inkscape:document-units="px"
     inkscape:zoom="36.181818"
     inkscape:cx="10.986181"
     inkscape:cy="11"
     inkscape:window-width="1920"
     inkscape:window-height="1011"
     inkscape:window-x="0"
     inkscape:window-y="0"
     inkscape:window-maximized="1"
     inkscape:current-layer="svg1" />
  <defs
     id="defs1">
    <linearGradient
       inkscape:collect="always"
       xlink:href="#4852"
       id="linearGradient4"
       x1="16"
       y1="30"
       x2="16"
       y2="2"
       gradientUnits="userSpaceOnUse"
       gradientTransform="matrix(0.71428571,0,0,0.71428571,-0.42857143,-0.42857143)" />
    <linearGradient
       inkscape:collect="always"
       id="4852">
      <stop
         style="stop-color:#272727;stop-opacity:1;"
         offset="0"
         id="stop14555" />
      <stop
         style="stop-color:#5d5d5d;stop-opacity:1;"
         offset="1"
         id="stop14557" />
    </linearGradient>
    <linearGradient
       inkscape:collect="always"
       xlink:href="#linearGradient1993"
       id="linearGradient6"
       x1="11"
       y1="4"
       x2="11"
       y2="18"
       gradientUnits="userSpaceOnUse" />
    <linearGradient
       inkscape:collect="always"
       id="linearGradient1993">
      <stop
         style="stop-color:#e9e9e9;stop-opacity:1;"
         offset="0"
         id="stop1989" />
      <stop
         style="stop-color:#d0d0d0;stop-opacity:1;"
         offset="1"
         id="stop1991" />
    </linearGradient>
  </defs>
  <rect
     style="opacity:0.2;fill:#000000;stroke-width:1.75"
     id="rect1"
     width="20"
     height="20"
     x="1"
     y="1.5"
     ry="4" />
  <rect
     style="fill:url(#linearGradient4);stroke-width:0.714286"
     id="rect2"
     width="20"
     height="20"
     x="1"
     y="1"
     ry="4" />
  <rect
     style="opacity:0.2;fill:#000000;stroke-width:2"
     id="rect3"
     width="14"
     height="14"
     x="4"
     y="4.5"
     ry="2" />
  <rect
     style="fill:url(#linearGradient6);stroke-width:2"
     id="rect4"
     width="14"
     height="14"
     x="4"
     y="4"
     ry="2" />
  <path
     d="m 11.543,13.196036 c -0.8,0.373 -1.544,0.369 -2.044,0.333 -0.596,-0.043 -1.0759999,-0.207 -1.286,-0.349 -0.13,-0.088 -0.307,-0.054 -0.395,0.076 -0.088,0.13 -0.054,0.306 0.076,0.394 0.339,0.229 0.938,0.4 1.564,0.445 0.106,0.008 0.223,0.013 0.348,0.013 0.545,0 1.237,-0.052 1.977,-0.397 0.142,-0.066 0.204,-0.235 0.138,-0.377 -0.066,-0.142 -0.235,-0.204 -0.378,-0.138 z m 3.158,-0.421 c 0.027,-2.467 0.281,-7.1296003 -4.443,-6.7536003 -4.6645,0.376 -3.428,5.3026003 -3.497,6.9526003 -0.062,0.873 -0.352,1.94 -0.761,3.026 h 1.261 c 0.129,-0.46 0.225,-0.915 0.266,-1.349 0.076,0.053 0.157,0.104 0.244,0.153 0.141,0.083 0.262,0.194 0.391,0.311 0.3,0.274 0.6400001,0.584 1.3060001,0.623 0.044,0.002 0.089,0.004 0.133,0.004 0.6729999,0 1.1329999,-0.295 1.5029999,-0.531 0.177,-0.114 0.33,-0.212 0.474,-0.259 0.409,-0.128 0.767,-0.335 1.034,-0.598 0.042,-0.041 0.081,-0.083 0.117,-0.126 0.149,0.545 0.353,1.159 0.579,1.772 H 16 c -0.646,-0.998 -1.313,-1.976 -1.299,-3.224 z m -7.489,-1.342 v 0 c -0.046,-0.806 0.339,-1.483 0.861,-1.513 0.5210001,-0.031 0.9820001,0.598 1.0280001,1.403 v 0 c 0.002,0.044 0.004,0.087 0.004,0.129 -0.1659999,0.042 -0.3149999,0.102 -0.4479999,0.172 -0.001,-0.006 -0.001,-0.012 -0.002,-0.017 v -0.001 c -0.044,-0.457 -0.2880001,-0.802 -0.5450001,-0.771 -0.257,0.031 -0.429,0.427 -0.384,0.884 v 0.001 c 0.019,0.199 0.077,0.377 0.157,0.512 -0.02,0.016 -0.076,0.057 -0.141,0.104 -0.049,0.035 -0.108,0.079 -0.179,0.131 -0.194,-0.255 -0.327,-0.621 -0.3510001,-1.034 z m 5.285,1.99 c -0.019,0.426 -0.576,0.827 -1.09,0.987 l -0.003,10e-4 c -0.214,0.069 -0.404,0.192 -0.606,0.321 -0.34,0.217 -0.69,0.441 -1.1969999,0.441 -0.033,0 -0.067,-10e-4 -0.101,-0.003 -0.464,-0.027 -0.681,-0.225 -0.955,-0.475 -0.1450001,-0.132 -0.295,-0.269 -0.4890001,-0.382 l -0.004,-0.002 c -0.417,-0.236 -0.676,-0.529 -0.692,-0.784 -0.008,-0.126 0.048,-0.236 0.168,-0.326 0.2600001,-0.195 0.434,-0.322 0.5490001,-0.407 0.128,-0.093 0.1669999,-0.121 0.1959999,-0.149 0.02,-0.019 0.042,-0.041 0.066,-0.064 0.239,-0.232 0.638,-0.62 1.252,-0.62 0.375,0 0.79,0.144 1.232,0.428 0.208,0.136 0.389,0.198 0.619,0.278 0.157,0.054 0.336,0.116 0.576,0.218 l 0.004,0.002 c 0.223,0.092 0.487,0.259 0.475,0.536 z m -0.123,-0.999 c -0.043,-0.022 -0.088,-0.042 -0.135,-0.062 -0.216,-0.092 -0.389,-0.155 -0.532,-0.205 0.079,-0.155 0.128,-0.349 0.133,-0.559 v 0 c 0.011,-0.512 -0.247,-0.927 -0.576,-0.928 -0.33,0 -0.605,0.414 -0.616,0.925 v 0 c -10e-4,0.017 -10e-4,0.034 -10e-4,0.05 -0.202,-0.093 -0.402,-0.161 -0.597,-0.202 -0.001,-0.02 -0.002,-0.039 -0.002,-0.058 v -10e-4 c -0.019,-0.931 0.553,-1.703 1.277,-1.722 0.724,-0.02 1.326,0.719 1.345,1.651 v 10e-4 c 0.009,0.421 -0.104,0.809 -0.297,1.11 z"
     style="opacity:0.4;fill:#000000"
     id="path1322" />
</svg>
