<?xml version="1.0" encoding="UTF-8" standalone="no"?>
<!-- Created with Inkscape (http://www.inkscape.org/) -->

<svg
   width="22"
   height="22"
   viewBox="0 0 22 22.000002"
   version="1.1"
   id="svg1"
   inkscape:version="1.4.2 (ebf0e940d0, 2025-05-08)"
   sodipodi:docname="github-desktop.svg"
   xmlns:inkscape="http://www.inkscape.org/namespaces/inkscape"
   xmlns:sodipodi="http://sodipodi.sourceforge.net/DTD/sodipodi-0.dtd"
   xmlns:xlink="http://www.w3.org/1999/xlink"
   xmlns="http://www.w3.org/2000/svg"
   xmlns:svg="http://www.w3.org/2000/svg">
  <sodipodi:namedview
     id="namedview1"
     pagecolor="#ffffff"
     bordercolor="#000000"
     borderopacity="0.25"
     inkscape:showpageshadow="2"
     inkscape:pageopacity="0.0"
     inkscape:pagecheckerboard="0"
     inkscape:deskcolor="#d1d1d1"
     inkscape:document-units="px"
     inkscape:zoom="36.136364"
     inkscape:cx="11"
     inkscape:cy="11"
     inkscape:window-width="1920"
     inkscape:window-height="1010"
     inkscape:window-x="0"
     inkscape:window-y="0"
     inkscape:window-maximized="1"
     inkscape:current-layer="svg1" />
  <defs
     id="defs1">
    <linearGradient
       inkscape:collect="always"
       xlink:href="#linearGradient5-9"
       id="linearGradient4"
       x1="16"
       y1="30"
       x2="16"
       y2="2"
       gradientUnits="userSpaceOnUse"
       gradientTransform="matrix(0.71428571,0,0,0.71428571,-0.42857143,-0.42857143)" />
    <linearGradient
       id="linearGradient1"
       inkscape:collect="always">
      <stop
         style="stop-color:#dcc0df;stop-opacity:1;"
         offset="0"
         id="stop1" />
      <stop
         style="stop-color:#f4e4f4;stop-opacity:1;"
         offset="1"
         id="stop2" />
    </linearGradient>
    <linearGradient
       inkscape:collect="always"
       xlink:href="#linearGradient1"
       id="linearGradient5"
       x1="11"
       y1="21"
       x2="11"
       y2="1"
       gradientUnits="userSpaceOnUse" />
    <linearGradient
       inkscape:collect="always"
       id="linearGradient5-9">
      <stop
         style="stop-color:#330640;stop-opacity:1;"
         offset="0"
         id="stop4" />
      <stop
         style="stop-color:#5f2f64;stop-opacity:1;"
         offset="1"
         id="stop5" />
    </linearGradient>
  </defs>
  <rect
     style="opacity:0.2;fill:#000000;stroke-width:1.75"
     id="rect1"
     width="20"
     height="20"
     x="1"
     y="1.5"
     ry="4" />
  <rect
     style="fill:url(#linearGradient4);stroke-width:0.714286"
     id="rect2"
     width="20"
     height="20"
     x="1"
     y="1"
     ry="4" />
  <path
     id="path9743"
     style="fill:url(#linearGradient5)"
     d="M 15.572266 5.0195312 C 15.253981 5.0357863 14.432929 5.5095753 13.169922 6.3789062 C 12.430203 6.1581046 11.708914 6.0370687 11 6.0429688 C 10.371292 6.0480987 9.464664 6.1528276 8.6777344 6.3789062 C 7.3743607 5.4815323 6.7082341 5.0076144 6.4121094 5.0214844 C 6.3133645 5.0259944 6.265625 5.0410156 6.265625 5.0410156 C 5.7701255 6.3136383 6.0838649 7.666516 6.1777344 7.9003906 C 5.59561 8.5462671 5 9.8716094 5 10.880859 C 5 14.424106 6.4793771 15.817406 8.5 16.050781 C 8.2402254 16.281818 8.0983149 17.189948 8.015625 17.787109 C 7.4971875 18.023809 6.1183918 18.430477 5.3066406 17.017578 C 5.3066406 17.017578 4.8255085 16.129693 3.9121094 16.064453 C 3.9121094 16.064453 3.0252767 16.053743 3.8515625 16.626953 C 3.8515625 16.626953 4.449294 16.711023 4.8632812 17.779297 C 4.8632812 17.779297 5.4686885 19.558599 8 19 L 8 21 L 13 21 L 13 18 C 13 17.137739 13.02352 16.328468 12.697266 16.042969 C 14.723941 15.814206 17 14.433131 17 10.880859 C 17 9.8716074 16.422992 8.5463911 15.839844 7.9003906 C 15.933134 7.666517 16.246645 6.3116361 15.75 5.0390625 C 15.749999 5.0390625 15.70215 5.0241312 15.603516 5.0195312 L 15.601562 5.0195312 C 15.592344 5.0191016 15.582533 5.0190069 15.572266 5.0195312 z " />
</svg>
