<?xml version="1.0" encoding="UTF-8" standalone="no"?>
<!-- Created with Inkscape (http://www.inkscape.org/) -->

<svg
   width="22"
   height="22"
   viewBox="0 0 22 22.000002"
   version="1.1"
   id="svg1"
   inkscape:version="1.4.2 (ebf0e940d0, 2025-05-08)"
   sodipodi:docname="kmines.svg"
   xmlns:inkscape="http://www.inkscape.org/namespaces/inkscape"
   xmlns:sodipodi="http://sodipodi.sourceforge.net/DTD/sodipodi-0.dtd"
   xmlns:xlink="http://www.w3.org/1999/xlink"
   xmlns="http://www.w3.org/2000/svg"
   xmlns:svg="http://www.w3.org/2000/svg">
  <sodipodi:namedview
     id="namedview1"
     pagecolor="#ffffff"
     bordercolor="#000000"
     borderopacity="0.25"
     inkscape:showpageshadow="2"
     inkscape:pageopacity="0.0"
     inkscape:pagecheckerboard="0"
     inkscape:deskcolor="#d1d1d1"
     inkscape:document-units="px"
     inkscape:zoom="36.136364"
     inkscape:cx="11"
     inkscape:cy="11"
     inkscape:window-width="1920"
     inkscape:window-height="1010"
     inkscape:window-x="0"
     inkscape:window-y="0"
     inkscape:window-maximized="1"
     inkscape:current-layer="svg1" />
  <defs
     id="defs1">
    <linearGradient
       inkscape:collect="always"
       xlink:href="#4852"
       id="linearGradient4"
       x1="16"
       y1="30"
       x2="16"
       y2="2"
       gradientUnits="userSpaceOnUse"
       gradientTransform="matrix(0.71428571,0,0,0.71428571,-0.42857143,-0.42857143)" />
    <linearGradient
       inkscape:collect="always"
       id="4852">
      <stop
         style="stop-color:#272727;stop-opacity:1;"
         offset="0"
         id="stop14555" />
      <stop
         style="stop-color:#5d5d5d;stop-opacity:1;"
         offset="1"
         id="stop14557" />
    </linearGradient>
    <linearGradient
       id="linearGradient5"
       inkscape:collect="always">
      <stop
         style="stop-color:#cfcfcf;stop-opacity:1;"
         offset="0"
         id="stop4" />
      <stop
         style="stop-color:#f8f8f8;stop-opacity:1;"
         offset="1"
         id="stop5" />
    </linearGradient>
    <linearGradient
       inkscape:collect="always"
       xlink:href="#linearGradient5"
       id="linearGradient9629"
       x1="24"
       y1="40"
       x2="24"
       y2="8"
       gradientUnits="userSpaceOnUse"
       gradientTransform="matrix(0.50000001,0,0,0.50000001,-1.0002172,-1)" />
  </defs>
  <rect
     style="opacity:0.2;fill:#000000;stroke-width:1.75"
     id="rect1"
     width="20"
     height="20"
     x="1"
     y="1.5"
     ry="4" />
  <rect
     style="fill:url(#linearGradient4);stroke-width:0.714286"
     id="rect2"
     width="20"
     height="20"
     x="1"
     y="1"
     ry="4" />
  <path
     id="path9265"
     style="fill:url(#linearGradient9629);stroke-width:2.6;stroke-linecap:round;stroke-linejoin:round"
     d="m 10.999783,3.0000003 c -0.553999,0 -1.0000001,0.446001 -1.0000001,1 v 1.0000001 c 0,0.5539989 0.4460011,1 1.0000001,1 0.553999,0 1,-0.4460011 1,-1 V 4.0000003 c 0,-0.553999 -0.446001,-1 -1,-1 z m 2,1.817383 v 0.1826171 c 0,1.107995 -0.892005,2 -2,2 -1.107995,0 -2,-0.892005 -2,-2 V 4.8261723 A 6.5000001,6.5000001 0 0 0 6.6511499,6.1796879 l 0.152344,0.08789 c 0.959551,0.5539975 1.2864195,1.7728705 0.732422,2.732422 -0.5539975,0.9595508 -1.772871,1.2864191 -2.7324221,0.732422 L 4.6589628,9.6494139 A 6.5000001,6.5000001 0 0 0 4.4997828,11 a 6.5000001,6.5000001 0 0 0 0.15918,1.350586 l 0.144531,-0.08301 c 0.2998591,-0.173123 0.6250131,-0.25985 0.9472656,-0.268555 0.7089575,-0.01915 1.404282,0.341285 1.7851565,1.000977 0.5539975,0.959551 0.2271295,2.178424 -0.732422,2.732422 l -0.152344,0.08789 a 6.5000001,6.5000001 0 0 0 2.3486331,1.353515 v -0.173828 c 0,-1.107994 0.892005,-1.999999 2,-1.999999 1.107995,0 2,0.892005 2,1.999999 v 0.173828 a 6.5000001,6.5000001 0 0 0 2.348633,-1.353515 l -0.152344,-0.08789 c -0.959551,-0.553998 -1.28642,-1.772871 -0.732422,-2.732422 0.380874,-0.659692 1.076199,-1.020126 1.785156,-1.000977 0.322253,0.0087 0.647407,0.09543 0.947266,0.268555 l 0.144531,0.08301 A 6.5000001,6.5000001 0 0 0 17.499783,11 6.5000001,6.5000001 0 0 0 17.354275,9.6406249 l -0.158203,0.091797 C 16.23652,10.28642 15.017647,9.9595517 14.46365,9.0000004 13.909652,8.0404489 14.23652,6.8215759 15.196072,6.2675784 l 0.15918,-0.091797 A 6.5000001,6.5000001 0 0 0 12.999783,4.8173833 Z M 4.9636498,6.4990239 c -0.354479,-0.00957 -0.701164,0.17113 -0.891601,0.5009765 -0.277,0.479777 -0.114543,1.089211 0.365234,1.366211 l 0.8662111,0.5 c 0.479777,0.276999 1.089211,0.113566 1.366211,-0.366211 0.276999,-0.479777 0.113566,-1.089211 -0.366211,-1.366211 l -0.866211,-0.5 C 5.2873524,6.5472274 5.1247769,6.5033759 4.9636498,6.4990239 Z m 12.0722662,0 c -0.161127,0.00435 -0.323703,0.048205 -0.473633,0.1347655 l -0.866211,0.5 c -0.479777,0.277 -0.64321,0.886434 -0.366211,1.366211 0.277,0.479777 0.886434,0.64321 1.366211,0.366211 l 0.866211,-0.5 C 18.042059,8.0892119 18.204517,7.4797779 17.927517,7.0000004 17.73708,6.6701539 17.390395,6.4894489 17.035916,6.4990239 Z m -6.036133,2.5009765 a 2,2 0 0 1 2,1.9999996 2,2 0 0 1 -2,2.000001 2,2 0 0 1 -2,-2.000001 2,2 0 0 1 2,-1.9999996 z m 0,0.9999996 a 1,1 0 0 0 -1.0000001,1 1,1 0 0 0 1.0000001,1.000001 1,1 0 0 0 1,-1.000001 1,1 0 0 0 -1,-1 z m -5.2226561,2.999024 c -0.161127,0.0043 -0.3237025,0.0482 -0.473633,0.134766 l -0.8662111,0.5 c -0.479777,0.277 -0.642234,0.886434 -0.365234,1.366211 0.276999,0.479777 0.885457,0.64321 1.3652341,0.366211 l 0.866211,-0.5 c 0.479777,-0.277 0.64321,-0.886434 0.366211,-1.366211 -0.1904375,-0.329847 -0.538099,-0.510552 -0.892578,-0.500977 z m 10.4453121,0 c -0.354479,-0.0096 -0.702141,0.17113 -0.892578,0.500977 -0.277,0.479777 -0.113566,1.089211 0.366211,1.366211 l 0.866211,0.5 c 0.479777,0.276999 1.088235,0.113566 1.365234,-0.366211 0.276999,-0.479777 0.114543,-1.089211 -0.365234,-1.366211 l -0.866211,-0.5 c -0.149931,-0.08656 -0.312506,-0.130414 -0.473633,-0.134766 z m -5.222656,3.000977 c -0.553999,0 -1.0000001,0.446001 -1.0000001,0.999999 v 1 c 0,0.553999 0.4460011,1 1.0000001,1 0.553999,0 1,-0.446001 1,-1 v -1 c 0,-0.553998 -0.446001,-0.999999 -1,-0.999999 z" />
</svg>
