<?xml version="1.0" encoding="UTF-8" standalone="no"?>
<!-- Created with Inkscape (http://www.inkscape.org/) -->

<svg
   width="22"
   height="22"
   viewBox="0 0 22 22.000002"
   version="1.1"
   id="svg1"
   inkscape:version="1.4.2 (ebf0e940d0, 2025-05-08)"
   sodipodi:docname="kmix.svg"
   xmlns:inkscape="http://www.inkscape.org/namespaces/inkscape"
   xmlns:sodipodi="http://sodipodi.sourceforge.net/DTD/sodipodi-0.dtd"
   xmlns:xlink="http://www.w3.org/1999/xlink"
   xmlns="http://www.w3.org/2000/svg"
   xmlns:svg="http://www.w3.org/2000/svg">
  <sodipodi:namedview
     id="namedview1"
     pagecolor="#ffffff"
     bordercolor="#000000"
     borderopacity="0.25"
     inkscape:showpageshadow="2"
     inkscape:pageopacity="0.0"
     inkscape:pagecheckerboard="0"
     inkscape:deskcolor="#d1d1d1"
     inkscape:document-units="px"
     inkscape:zoom="36.727273"
     inkscape:cx="10.986386"
     inkscape:cy="11"
     inkscape:window-width="1920"
     inkscape:window-height="1011"
     inkscape:window-x="0"
     inkscape:window-y="0"
     inkscape:window-maximized="1"
     inkscape:current-layer="svg1" />
  <defs
     id="defs1">
    <linearGradient
       inkscape:collect="always"
       xlink:href="#4852"
       id="linearGradient4"
       x1="16"
       y1="30"
       x2="16"
       y2="2"
       gradientUnits="userSpaceOnUse"
       gradientTransform="matrix(0.71428571,0,0,0.71428571,-0.42857143,-0.42857143)" />
    <linearGradient
       inkscape:collect="always"
       id="4852">
      <stop
         style="stop-color:#272727;stop-opacity:1;"
         offset="0"
         id="stop14555" />
      <stop
         style="stop-color:#5d5d5d;stop-opacity:1;"
         offset="1"
         id="stop14557" />
    </linearGradient>
  </defs>
  <rect
     style="opacity:0.2;fill:#000000;stroke-width:1.75"
     id="rect1"
     width="20"
     height="20"
     x="1"
     y="1.5"
     ry="4" />
  <rect
     style="fill:url(#linearGradient4);stroke-width:0.714286"
     id="rect2"
     width="20"
     height="20"
     x="1"
     y="1"
     ry="4" />
  <path
     d="m 10,6.0003663 -3.0000001,3 h -2 C 4.4460018,9.0003663 4,9.4463679 4,10.000366 v 2 c 0,0.553998 0.4460018,1 0.9999999,1 h 2 l 3.0000001,3 z"
     style="fill:#ffffff"
     id="path1" />
  <path
     d="m 14.583984,5.5023194 c -0.168154,0.014091 -0.325453,0.1133971 -0.40625,0.2753907 -0.122745,0.2470331 -0.02224,0.5468045 0.22461,0.6699218 C 16.223452,7.3581865 16.99969,9.1669821 17,11.000366 c -3.1e-4,1.833384 -0.776548,3.64218 -2.597656,4.552734 -0.246848,0.123117 -0.347355,0.422888 -0.22461,0.669922 0.123117,0.246848 0.422888,0.347355 0.669922,0.22461 C 17.026536,15.358192 17.999634,13.16697 18,11.000366 17.999634,8.8337623 17.026536,6.6425401 14.847656,5.5531007 c -0.06176,-0.030686 -0.12664,-0.0468 -0.191406,-0.050781 -0.02429,-0.00149 -0.04824,-0.00201 -0.07227,0 z m -1.509765,2.5039063 c -0.21429,-0.032057 -0.424842,0.077556 -0.521485,0.2714844 -0.122745,0.2470337 -0.02224,0.5468043 0.22461,0.6699218 C 13.598455,9.3581877 14,10.167035 14,11.000366 c 0,0.833331 -0.401545,1.642179 -1.222656,2.052734 -0.246848,0.123117 -0.347355,0.422888 -0.22461,0.669922 0.123117,0.246848 0.422888,0.347355 0.669922,0.22461 C 14.401539,13.358189 15,12.167029 15,11.000366 15,9.833704 14.401539,8.6425416 13.222656,8.0531007 c -0.04673,-0.023278 -0.09681,-0.039095 -0.148437,-0.046875 z"
     style="opacity:0.5;fill:#ffffff"
     id="path2" />
</svg>
