<?xml version="1.0" encoding="UTF-8" standalone="no"?>
<!-- Created with Inkscape (http://www.inkscape.org/) -->

<svg
   width="22"
   height="22"
   viewBox="0 0 22 22.000002"
   version="1.1"
   id="svg1"
   inkscape:version="1.4.2 (ebf0e940d0, 2025-05-08)"
   sodipodi:docname="org.gnome.Decibels.svg"
   xmlns:inkscape="http://www.inkscape.org/namespaces/inkscape"
   xmlns:sodipodi="http://sodipodi.sourceforge.net/DTD/sodipodi-0.dtd"
   xmlns:xlink="http://www.w3.org/1999/xlink"
   xmlns="http://www.w3.org/2000/svg"
   xmlns:svg="http://www.w3.org/2000/svg">
  <sodipodi:namedview
     id="namedview1"
     pagecolor="#ffffff"
     bordercolor="#000000"
     borderopacity="0.25"
     inkscape:showpageshadow="2"
     inkscape:pageopacity="0.0"
     inkscape:pagecheckerboard="0"
     inkscape:deskcolor="#d1d1d1"
     inkscape:document-units="px"
     inkscape:zoom="35.727273"
     inkscape:cx="10.986005"
     inkscape:cy="11"
     inkscape:window-width="1920"
     inkscape:window-height="1011"
     inkscape:window-x="0"
     inkscape:window-y="0"
     inkscape:window-maximized="1"
     inkscape:current-layer="svg1" />
  <defs
     id="defs1">
    <linearGradient
       inkscape:collect="always"
       xlink:href="#4852"
       id="linearGradient4"
       x1="16"
       y1="30"
       x2="16"
       y2="2"
       gradientUnits="userSpaceOnUse"
       gradientTransform="matrix(0.71428571,0,0,0.71428571,-0.42857143,-0.42857143)" />
    <linearGradient
       inkscape:collect="always"
       id="4852">
      <stop
         style="stop-color:#272727;stop-opacity:1;"
         offset="0"
         id="stop14555" />
      <stop
         style="stop-color:#5d5d5d;stop-opacity:1;"
         offset="1"
         id="stop14557" />
    </linearGradient>
    <linearGradient
       inkscape:collect="always"
       id="linearGradient4-0">
      <stop
         style="stop-color:#6e50c1;stop-opacity:1;"
         offset="0"
         id="stop1" />
      <stop
         style="stop-color:#a94e99;stop-opacity:1;"
         offset="0.5"
         id="stop4" />
      <stop
         style="stop-color:#ff4e4e;stop-opacity:1;"
         offset="1"
         id="stop2" />
    </linearGradient>
    <linearGradient
       inkscape:collect="always"
       xlink:href="#linearGradient4-0"
       id="linearGradient5"
       x1="11"
       y1="21"
       x2="11"
       y2="1"
       gradientUnits="userSpaceOnUse" />
  </defs>
  <rect
     style="opacity:0.2;fill:#000000;stroke-width:1.75"
     id="rect1"
     width="20"
     height="20"
     x="1"
     y="1.5"
     ry="4" />
  <rect
     style="fill:url(#linearGradient4);stroke-width:0.714286"
     id="rect2"
     width="20"
     height="20"
     x="1"
     y="1"
     ry="4" />
  <path
     id="rect286"
     style="fill:url(#linearGradient5);stroke-width:4;stroke-linecap:round;stroke-linejoin:round"
     d="M 9.5 6 C 9.223 6 9 6.223 9 6.5 L 9 16.5 C 9 16.777 9.223 17 9.5 17 C 9.777 17 10 16.777 10 16.5 L 10 6.5 C 10 6.223 9.777 6 9.5 6 z M 12.5 8 C 12.223 8 12 8.223 12 8.5 L 12 14.5 C 12 14.777 12.223 15 12.5 15 C 12.777 15 13 14.777 13 14.5 L 13 8.5 C 13 8.223 12.777 8 12.5 8 z M 6.5 10 C 6.223 10 6 10.223 6 10.5 L 6 12.5 C 6 12.777 6.223 13 6.5 13 C 6.777 13 7 12.777 7 12.5 L 7 10.5 C 7 10.223 6.777 10 6.5 10 z M 3.5 11 C 3.223 11 3 11.223 3 11.5 C 3 11.777 3.223 12 3.5 12 C 3.777 12 4 11.777 4 11.5 C 4 11.223 3.777 11 3.5 11 z M 15.5 11 C 15.223 11 15 11.223 15 11.5 C 15 11.777 15.223 12 15.5 12 C 15.777 12 16 11.777 16 11.5 C 16 11.223 15.777 11 15.5 11 z M 18.5 11 C 18.223 11 18 11.223 18 11.5 C 18 11.777 18.223 12 18.5 12 C 18.777 12 19 11.777 19 11.5 C 19 11.223 18.777 11 18.5 11 z " />
</svg>
