<?xml version="1.0" encoding="UTF-8" standalone="no"?>
<!-- Created with Inkscape (http://www.inkscape.org/) -->

<svg
   width="22"
   height="22"
   viewBox="0 0 22 22.000002"
   version="1.1"
   id="svg1"
   inkscape:version="1.4.2 (ebf0e940d0, 2025-05-08)"
   sodipodi:docname="preferences-activities.svg"
   xmlns:inkscape="http://www.inkscape.org/namespaces/inkscape"
   xmlns:sodipodi="http://sodipodi.sourceforge.net/DTD/sodipodi-0.dtd"
   xmlns:xlink="http://www.w3.org/1999/xlink"
   xmlns="http://www.w3.org/2000/svg"
   xmlns:svg="http://www.w3.org/2000/svg">
  <sodipodi:namedview
     id="namedview1"
     pagecolor="#ffffff"
     bordercolor="#000000"
     borderopacity="0.25"
     inkscape:showpageshadow="2"
     inkscape:pageopacity="0.0"
     inkscape:pagecheckerboard="0"
     inkscape:deskcolor="#d1d1d1"
     inkscape:document-units="px"
     inkscape:zoom="36.136364"
     inkscape:cx="11"
     inkscape:cy="11"
     inkscape:window-width="1920"
     inkscape:window-height="1010"
     inkscape:window-x="0"
     inkscape:window-y="0"
     inkscape:window-maximized="1"
     inkscape:current-layer="svg1" />
  <defs
     id="defs1">
    <linearGradient
       inkscape:collect="always"
       id="linearGradient2539">
      <stop
         style="stop-color:#3a4c5f;stop-opacity:1;"
         offset="0"
         id="stop2535" />
      <stop
         style="stop-color:#5b7790;stop-opacity:1;"
         offset="1"
         id="stop2537" />
    </linearGradient>
    <linearGradient
       inkscape:collect="always"
       xlink:href="#linearGradient2539"
       id="linearGradient2"
       x1="11"
       y1="21"
       x2="11"
       y2="1"
       gradientUnits="userSpaceOnUse" />
    <linearGradient
       inkscape:collect="always"
       xlink:href="#4852"
       id="linearGradient4"
       x1="16"
       y1="30"
       x2="16"
       y2="2"
       gradientUnits="userSpaceOnUse"
       gradientTransform="matrix(0.71428571,0,0,0.71428571,-0.42857143,-0.42857143)" />
    <linearGradient
       inkscape:collect="always"
       id="4852">
      <stop
         style="stop-color:#272727;stop-opacity:1;"
         offset="0"
         id="stop14555" />
      <stop
         style="stop-color:#5d5d5d;stop-opacity:1;"
         offset="1"
         id="stop14557" />
    </linearGradient>
  </defs>
  <rect
     style="opacity:0.2;fill:#000000;stroke-width:1.75"
     id="rect1"
     width="20"
     height="20"
     x="1"
     y="1.5"
     ry="4" />
  <rect
     style="fill:url(#linearGradient4);stroke-width:0.714286"
     id="rect2"
     width="20"
     height="20"
     x="1"
     y="1"
     ry="4" />
  <path
     id="rect465"
     style="opacity:1;fill:url(#linearGradient2);stroke-linecap:round;stroke-linejoin:round"
     d="M 9.2460938 4.1503906 L 7.3984375 4.9160156 L 7.9433594 7.0429688 A 5 5 0 0 0 7.0429688 7.9433594 L 4.9160156 7.3964844 L 4.1503906 9.2441406 L 6.0410156 10.363281 L 6.0410156 10.365234 A 5 5 0 0 0 6 11 A 5 5 0 0 0 6.0410156 11.634766 L 4.1503906 12.753906 L 4.9160156 14.601562 L 7.0429688 14.056641 A 5 5 0 0 0 7.9433594 14.957031 L 7.3964844 17.083984 L 9.2441406 17.849609 L 10.363281 15.958984 L 10.365234 15.958984 A 5 5 0 0 0 11 16 A 5 5 0 0 0 11.634766 15.958984 L 12.753906 17.849609 L 14.601562 17.083984 L 14.056641 14.957031 A 5 5 0 0 0 14.957031 14.056641 L 17.083984 14.603516 L 17.849609 12.755859 L 15.958984 11.636719 A 5 5 0 0 0 16 11 A 5 5 0 0 0 15.958984 10.365234 L 17.849609 9.2460938 L 17.083984 7.3984375 L 14.955078 7.9414062 A 5 5 0 0 0 14.056641 7.0429688 L 14.603516 4.9160156 L 12.755859 4.1503906 L 11.636719 6.0410156 A 5 5 0 0 0 11.634766 6.0410156 A 5 5 0 0 0 11 6 A 5 5 0 0 0 10.365234 6.0410156 L 9.2460938 4.1503906 z M 11 9 A 2 2 0 0 1 13 11 A 2 2 0 0 1 11 13 A 2 2 0 0 1 9 11 A 2 2 0 0 1 11 9 z " />
  <path
     id="path632"
     style="fill:#ffffff;stroke-linecap:round;stroke-linejoin:round;opacity:0.3"
     d="m 11,6 a 5,5 0 0 0 -5,5 5,5 0 0 0 5,5 5,5 0 0 0 5,-5 5,5 0 0 0 -5,-5 z m 0,3 a 2,2 0 0 1 2,2 2,2 0 0 1 -2,2 2,2 0 0 1 -2,-2 2,2 0 0 1 2,-2 z" />
</svg>
