<?xml version="1.0" encoding="UTF-8" standalone="no"?>
<!-- Created with Inkscape (http://www.inkscape.org/) -->

<svg
   width="22"
   height="22"
   viewBox="0 0 22 22.000002"
   version="1.1"
   id="svg1"
   inkscape:version="1.4.2 (ebf0e940d0, 2025-05-08)"
   sodipodi:docname="preferences-desktop-theme.svg"
   xmlns:inkscape="http://www.inkscape.org/namespaces/inkscape"
   xmlns:sodipodi="http://sodipodi.sourceforge.net/DTD/sodipodi-0.dtd"
   xmlns:xlink="http://www.w3.org/1999/xlink"
   xmlns="http://www.w3.org/2000/svg"
   xmlns:svg="http://www.w3.org/2000/svg">
  <sodipodi:namedview
     id="namedview1"
     pagecolor="#ffffff"
     bordercolor="#000000"
     borderopacity="0.25"
     inkscape:showpageshadow="2"
     inkscape:pageopacity="0.0"
     inkscape:pagecheckerboard="0"
     inkscape:deskcolor="#d1d1d1"
     inkscape:document-units="px"
     inkscape:zoom="35.727273"
     inkscape:cx="10.958015"
     inkscape:cy="11.013995"
     inkscape:window-width="1920"
     inkscape:window-height="1010"
     inkscape:window-x="0"
     inkscape:window-y="0"
     inkscape:window-maximized="1"
     inkscape:current-layer="svg1" />
  <defs
     id="defs1">
    <linearGradient
       inkscape:collect="always"
       id="linearGradient1690">
      <stop
         style="stop-color:#eb7b51;stop-opacity:1;"
         offset="0"
         id="stop1686" />
      <stop
         style="stop-color:#ee5b85;stop-opacity:1;"
         offset="0.30000001"
         id="stop1692" />
      <stop
         style="stop-color:#c05fe9;stop-opacity:1;"
         offset="0.68692034"
         id="stop1694" />
      <stop
         style="stop-color:#2f95f5;stop-opacity:1;"
         offset="1"
         id="stop1696" />
    </linearGradient>
    <linearGradient
       inkscape:collect="always"
       xlink:href="#linearGradient1690"
       id="linearGradient2"
       x1="1"
       y1="21"
       x2="21"
       y2="1"
       gradientUnits="userSpaceOnUse" />
    <linearGradient
       inkscape:collect="always"
       xlink:href="#4852"
       id="linearGradient4"
       x1="30"
       y1="2"
       x2="2"
       y2="30"
       gradientUnits="userSpaceOnUse"
       gradientTransform="matrix(0.71428571,0,0,0.71428571,-0.4285714,-0.42857143)" />
    <linearGradient
       inkscape:collect="always"
       id="4852">
      <stop
         style="stop-color:#272727;stop-opacity:1;"
         offset="0"
         id="stop14555" />
      <stop
         style="stop-color:#5d5d5d;stop-opacity:1;"
         offset="1"
         id="stop14557" />
    </linearGradient>
  </defs>
  <rect
     style="opacity:0.2;fill:#000000;stroke-width:1.75"
     id="rect1"
     width="20"
     height="20"
     x="1"
     y="1.5"
     ry="4" />
  <rect
     style="fill:url(#linearGradient4);stroke-width:0.714286"
     id="rect2"
     width="20"
     height="20"
     x="1"
     y="1"
     ry="4"
     rx="4" />
  <path
     id="rect820"
     style="opacity:1;fill:url(#linearGradient2);stroke-width:2;stroke-linecap:round;stroke-linejoin:round"
     d="M 7 4 C 6.446 4 6 4.446 6 5 L 6 12 C 6 12.553999 6.4460005 13 7 13 L 9 13 C 9.5251626 13.01816 9.98184 13.474837 10 14 L 10 17 C 10 17.553999 10.446001 18 11 18 C 11.553999 18 12 17.553999 12 17 L 12 14 C 12 13.447715 12.447715 13 13 13 L 15 13 C 15.553999 13 16 12.553999 16 12 L 16 5 C 16 4.446 15.554 4 15 4 L 7 4 z " />
  <path
     id="rect236"
     style="fill:#ffffff;stroke-width:2;stroke-linecap:round;stroke-linejoin:round;opacity:0.5"
     d="m 6,10 v 2 c 0,0.553999 0.4460005,1 1,1 h 2 c 0.5251626,0.01816 0.982262,0.474837 1.000422,1 v 3 c 0,0.553999 0.446001,1 1,1 0.553999,0 1,-0.446001 1,-1 v -3 c 0,-0.552285 0.447715,-1 1,-1 H 15 c 0.553999,0 1,-0.446001 1,-1 v -2 z"
     sodipodi:nodetypes="cssccssssssscc" />
</svg>
