<?xml version="1.0" encoding="UTF-8" standalone="no"?>
<!-- Created with Inkscape (http://www.inkscape.org/) -->

<svg
   width="22"
   height="22"
   viewBox="0 0 22 22.000002"
   version="1.1"
   id="svg1"
   inkscape:version="1.4.2 (ebf0e940d0, 2025-05-08)"
   sodipodi:docname="preferences-system-search.svg"
   xmlns:inkscape="http://www.inkscape.org/namespaces/inkscape"
   xmlns:sodipodi="http://sodipodi.sourceforge.net/DTD/sodipodi-0.dtd"
   xmlns:xlink="http://www.w3.org/1999/xlink"
   xmlns="http://www.w3.org/2000/svg"
   xmlns:svg="http://www.w3.org/2000/svg">
  <sodipodi:namedview
     id="namedview1"
     pagecolor="#ffffff"
     bordercolor="#000000"
     borderopacity="0.25"
     inkscape:showpageshadow="2"
     inkscape:pageopacity="0.0"
     inkscape:pagecheckerboard="0"
     inkscape:deskcolor="#d1d1d1"
     inkscape:document-units="px"
     inkscape:zoom="36.727273"
     inkscape:cx="10.986386"
     inkscape:cy="11"
     inkscape:window-width="1920"
     inkscape:window-height="1011"
     inkscape:window-x="0"
     inkscape:window-y="0"
     inkscape:window-maximized="1"
     inkscape:current-layer="svg1" />
  <defs
     id="defs1">
    <linearGradient
       inkscape:collect="always"
       xlink:href="#4852"
       id="linearGradient4"
       x1="16"
       y1="30"
       x2="16"
       y2="2"
       gradientUnits="userSpaceOnUse"
       gradientTransform="matrix(0.71428571,0,0,0.71428571,-0.42857143,-0.42857143)" />
    <linearGradient
       inkscape:collect="always"
       id="4852">
      <stop
         style="stop-color:#272727;stop-opacity:1;"
         offset="0"
         id="stop14555" />
      <stop
         style="stop-color:#5d5d5d;stop-opacity:1;"
         offset="1"
         id="stop14557" />
    </linearGradient>
  </defs>
  <rect
     style="opacity:0.2;fill:#000000;stroke-width:1.75"
     id="rect1"
     width="20"
     height="20"
     x="1"
     y="1.5"
     ry="4" />
  <rect
     style="fill:url(#linearGradient4);stroke-width:0.714286"
     id="rect2"
     width="20"
     height="20"
     x="1"
     y="1"
     ry="4" />
  <path
     id="path1562"
     style="fill:#ffffff;fill-opacity:1;stroke-width:3.3;stroke-linecap:round;stroke-linejoin:round"
     d="M 9.4995813,4 C 8.0920094,4 6.6848491,4.5373885 5.6109094,5.6113281 c -2.1478792,2.1478793 -2.1478793,5.6294639 0,7.7773439 2.0288612,2.028861 5.2473806,2.141905 7.4082026,0.33789 l 4.404297,4.404297 0.707031,-0.707031 -4.404297,-4.404297 C 15.530158,10.858709 15.417114,7.6401893 13.388253,5.6113281 12.314313,4.5373884 10.907153,4 9.4995813,4 Z m 0,1 c 1.1516497,1e-7 2.3029627,0.4396815 3.1816407,1.3183594 1.757356,1.7573559 1.757357,4.6059246 0,6.3632816 -1.757357,1.757357 -4.6059255,1.757356 -6.3632813,0 -1.7573558,-1.757356 -1.7573559,-4.6059257 0,-6.3632816 C 7.1966189,5.4396811 8.3479316,4.9999999 9.4995813,5 Z" />
</svg>
