<?xml version="1.0" encoding="UTF-8" standalone="no"?>
<!-- Created with Inkscape (http://www.inkscape.org/) -->

<svg
   width="22"
   height="22"
   viewBox="0 0 22 22.000002"
   version="1.1"
   id="svg1"
   inkscape:version="1.4.2 (ebf0e940d0, 2025-05-08)"
   sodipodi:docname="seahorse.svg"
   xmlns:inkscape="http://www.inkscape.org/namespaces/inkscape"
   xmlns:sodipodi="http://sodipodi.sourceforge.net/DTD/sodipodi-0.dtd"
   xmlns:xlink="http://www.w3.org/1999/xlink"
   xmlns="http://www.w3.org/2000/svg"
   xmlns:svg="http://www.w3.org/2000/svg">
  <sodipodi:namedview
     id="namedview1"
     pagecolor="#ffffff"
     bordercolor="#000000"
     borderopacity="0.25"
     inkscape:showpageshadow="2"
     inkscape:pageopacity="0.0"
     inkscape:pagecheckerboard="0"
     inkscape:deskcolor="#d1d1d1"
     inkscape:document-units="px"
     inkscape:zoom="35.727273"
     inkscape:cx="10.986005"
     inkscape:cy="11"
     inkscape:window-width="1920"
     inkscape:window-height="1011"
     inkscape:window-x="0"
     inkscape:window-y="0"
     inkscape:window-maximized="1"
     inkscape:current-layer="svg1" />
  <defs
     id="defs1">
    <linearGradient
       inkscape:collect="always"
       xlink:href="#4852"
       id="linearGradient4"
       x1="16"
       y1="30"
       x2="16"
       y2="2"
       gradientUnits="userSpaceOnUse"
       gradientTransform="matrix(0.71428571,0,0,0.71428571,-0.42857143,-0.42857143)" />
    <linearGradient
       inkscape:collect="always"
       id="4852">
      <stop
         style="stop-color:#272727;stop-opacity:1;"
         offset="0"
         id="stop14555" />
      <stop
         style="stop-color:#5d5d5d;stop-opacity:1;"
         offset="1"
         id="stop14557" />
    </linearGradient>
    <linearGradient
       inkscape:collect="always"
       id="linearGradient6154">
      <stop
         style="stop-color:#4cb35a;stop-opacity:1;"
         offset="0"
         id="stop6150" />
      <stop
         style="stop-color:#73d091;stop-opacity:1;"
         offset="1"
         id="stop6152" />
    </linearGradient>
    <linearGradient
       inkscape:collect="always"
       xlink:href="#linearGradient6154"
       id="linearGradient2"
       x1="11"
       y1="21"
       x2="11"
       y2="1"
       gradientUnits="userSpaceOnUse" />
  </defs>
  <rect
     style="opacity:0.2;fill:#000000;stroke-width:1.75"
     id="rect1"
     width="20"
     height="20"
     x="1"
     y="1.5"
     ry="4" />
  <rect
     style="fill:url(#linearGradient4);stroke-width:0.714286"
     id="rect2"
     width="20"
     height="20"
     x="1"
     y="1"
     ry="4" />
  <rect
     style="opacity:1;fill:url(#linearGradient2);stroke-linecap:round;stroke-linejoin:round;paint-order:stroke fill markers"
     id="rect1059"
     width="14"
     height="10"
     x="4"
     y="7"
     ry="1" />
  <rect
     style="opacity:1;fill:#1a1a1a;stroke-linecap:round;stroke-linejoin:round;paint-order:stroke fill markers"
     id="rect5731"
     width="14"
     height="2"
     x="4"
     y="9" />
  <path
     id="path1057"
     style="fill:#ffffff;stroke-width:1.16667;stroke-linecap:round;stroke-linejoin:round;paint-order:stroke fill markers"
     d="M 9.5,4 C 7.5670053,4 6,5.567005 6,7.5 6.00313,8.411734 6.3619098,9.286263 7,9.9375 v 7.634766 L 7.4453125,18 H 8.6660156 L 10.013672,16.714844 9.6796875,16.427734 10.013672,16.142578 9.3457031,15.572266 10.013672,15 9.6796875,14.714844 10.013672,14.427734 9.5136719,14 10.013672,13.572266 V 13.142578 L 9.6796875,12.857422 10.013672,12.572266 V 12.011719 L 11,11.988279 V 11 H 10 V 10.96484 C 11.722281,10.716258 13.000369,9.240128 13,7.4999999 13,5.5670049 11.432995,3.9999999 9.5,4 Z m 0,1 a 1,1 0 0 1 1,1 1,1 0 0 1 -1,1 1,1 0 0 1 -1,-1 1,1 0 0 1 1,-1 z" />
</svg>
