<?xml version="1.0" encoding="UTF-8" standalone="no"?>
<!-- Created with Inkscape (http://www.inkscape.org/) -->

<svg
   width="22"
   height="22"
   viewBox="0 0 22 22.000002"
   version="1.1"
   id="svg1"
   inkscape:version="1.4.2 (ebf0e940d0, 2025-05-08)"
   sodipodi:docname="sound-recorder.svg"
   xmlns:inkscape="http://www.inkscape.org/namespaces/inkscape"
   xmlns:sodipodi="http://sodipodi.sourceforge.net/DTD/sodipodi-0.dtd"
   xmlns:xlink="http://www.w3.org/1999/xlink"
   xmlns="http://www.w3.org/2000/svg"
   xmlns:svg="http://www.w3.org/2000/svg">
  <sodipodi:namedview
     id="namedview1"
     pagecolor="#ffffff"
     bordercolor="#000000"
     borderopacity="0.25"
     inkscape:showpageshadow="2"
     inkscape:pageopacity="0.0"
     inkscape:pagecheckerboard="0"
     inkscape:deskcolor="#d1d1d1"
     inkscape:document-units="px"
     inkscape:zoom="36.727273"
     inkscape:cx="10.986386"
     inkscape:cy="11"
     inkscape:window-width="1920"
     inkscape:window-height="1011"
     inkscape:window-x="0"
     inkscape:window-y="0"
     inkscape:window-maximized="1"
     inkscape:current-layer="svg1" />
  <defs
     id="defs1">
    <linearGradient
       inkscape:collect="always"
       xlink:href="#4852"
       id="linearGradient4"
       x1="16"
       y1="30"
       x2="16"
       y2="2"
       gradientUnits="userSpaceOnUse"
       gradientTransform="matrix(0.71428571,0,0,0.71428571,-0.42857143,-0.42857143)" />
    <linearGradient
       inkscape:collect="always"
       id="4852">
      <stop
         style="stop-color:#272727;stop-opacity:1;"
         offset="0"
         id="stop14555" />
      <stop
         style="stop-color:#5d5d5d;stop-opacity:1;"
         offset="1"
         id="stop14557" />
    </linearGradient>
    <linearGradient
       inkscape:collect="always"
       id="linearGradient1344">
      <stop
         style="stop-color:#da2d2d;stop-opacity:1;"
         offset="0"
         id="stop1340" />
      <stop
         style="stop-color:#ff7676;stop-opacity:1;"
         offset="1"
         id="stop1342" />
    </linearGradient>
    <linearGradient
       inkscape:collect="always"
       xlink:href="#linearGradient1344"
       id="linearGradient2"
       x1="11"
       y1="21"
       x2="11"
       y2="1"
       gradientUnits="userSpaceOnUse" />
  </defs>
  <rect
     style="opacity:0.2;fill:#000000;stroke-width:1.75"
     id="rect1"
     width="20"
     height="20"
     x="1"
     y="1.5"
     ry="4" />
  <rect
     style="fill:url(#linearGradient4);stroke-width:0.714286"
     id="rect2"
     width="20"
     height="20"
     x="1"
     y="1"
     ry="4" />
  <path
     id="rect286"
     style="fill:url(#linearGradient2);stroke-width:4;stroke-linecap:round;stroke-linejoin:round"
     d="M 9.5 5 C 9.223 5 9 5.223 9 5.5 L 9 17.5 C 9 17.777 9.223 18 9.5 18 C 9.777 18 10 17.777 10 17.5 L 10 5.5 C 10 5.223 9.777 5 9.5 5 z M 15.5 7 C 15.223 7 15 7.223 15 7.5 L 15 15.5 C 15 15.777 15.223 16 15.5 16 C 15.777 16 16 15.777 16 15.5 L 16 7.5 C 16 7.223 15.777 7 15.5 7 z M 6.5 8 C 6.223 8 6 8.223 6 8.5 L 6 14.5 C 6 14.777 6.223 15 6.5 15 C 6.777 15 7 14.777 7 14.5 L 7 8.5 C 7 8.223 6.777 8 6.5 8 z M 12.5 9 C 12.223 9 12 9.223 12 9.5 L 12 13.5 C 12 13.777 12.223 14 12.5 14 C 12.777 14 13 13.777 13 13.5 L 13 9.5 C 13 9.223 12.777 9 12.5 9 z M 3.5 10 C 3.223 10 3 10.223 3 10.5 L 3 12.5 C 3 12.777 3.223 13 3.5 13 C 3.777 13 4 12.777 4 12.5 L 4 10.5 C 4 10.223 3.777 10 3.5 10 z M 18.5 10 C 18.223 10 18 10.223 18 10.5 L 18 12.5 C 18 12.777 18.223 13 18.5 13 C 18.777 13 19 12.777 19 12.5 L 19 10.5 C 19 10.223 18.777 10 18.5 10 z " />
  <rect
     style="opacity:0.5;fill:#ffffff;stroke-width:4;stroke-linecap:round;stroke-linejoin:round"
     id="rect288"
     width="1"
     height="3"
     x="18"
     y="10"
     ry="0.5" />
  <rect
     style="opacity:0.5;fill:#ffffff;stroke-width:4;stroke-linecap:round;stroke-linejoin:round"
     id="rect290"
     width="1"
     height="7"
     x="6"
     y="8"
     ry="0.5" />
  <rect
     style="opacity:0.5;fill:#ffffff;stroke-width:4;stroke-linecap:round;stroke-linejoin:round"
     id="rect404"
     width="1"
     height="5"
     x="12"
     y="9"
     ry="0.5" />
</svg>
