<?xml version="1.0" encoding="UTF-8" standalone="no"?>
<!-- Created with Inkscape (http://www.inkscape.org/) -->

<svg
   width="22"
   height="22"
   viewBox="0 0 22 22.000002"
   version="1.1"
   id="svg1"
   inkscape:version="1.4.2 (ebf0e940d0, 2025-05-08)"
   sodipodi:docname="warpinator.svg"
   xmlns:inkscape="http://www.inkscape.org/namespaces/inkscape"
   xmlns:sodipodi="http://sodipodi.sourceforge.net/DTD/sodipodi-0.dtd"
   xmlns:xlink="http://www.w3.org/1999/xlink"
   xmlns="http://www.w3.org/2000/svg"
   xmlns:svg="http://www.w3.org/2000/svg">
  <sodipodi:namedview
     id="namedview1"
     pagecolor="#ffffff"
     bordercolor="#000000"
     borderopacity="0.25"
     inkscape:showpageshadow="2"
     inkscape:pageopacity="0.0"
     inkscape:pagecheckerboard="0"
     inkscape:deskcolor="#d1d1d1"
     inkscape:document-units="px"
     inkscape:zoom="36.181818"
     inkscape:cx="10.986181"
     inkscape:cy="11"
     inkscape:window-width="1920"
     inkscape:window-height="1011"
     inkscape:window-x="0"
     inkscape:window-y="0"
     inkscape:window-maximized="1"
     inkscape:current-layer="svg1" />
  <defs
     id="defs1">
    <linearGradient
       inkscape:collect="always"
       xlink:href="#4852"
       id="linearGradient4"
       x1="16"
       y1="30"
       x2="16"
       y2="2"
       gradientUnits="userSpaceOnUse"
       gradientTransform="matrix(0.71428571,0,0,0.71428571,-0.42857143,-0.4285714)" />
    <linearGradient
       inkscape:collect="always"
       id="4852">
      <stop
         style="stop-color:#272727;stop-opacity:1;"
         offset="0"
         id="stop14555" />
      <stop
         style="stop-color:#5d5d5d;stop-opacity:1;"
         offset="1"
         id="stop14557" />
    </linearGradient>
    <linearGradient
       inkscape:collect="always"
       id="linearGradient1141">
      <stop
         style="stop-color:#795bca;stop-opacity:1;"
         offset="0"
         id="stop1137" />
      <stop
         style="stop-color:#a088ee;stop-opacity:1;"
         offset="1"
         id="stop1139" />
    </linearGradient>
    <linearGradient
       inkscape:collect="always"
       xlink:href="#linearGradient1141"
       id="linearGradient3"
       x1="11"
       y1="21"
       x2="11"
       y2="1"
       gradientUnits="userSpaceOnUse" />
  </defs>
  <rect
     style="opacity:0.2;fill:#000000;stroke-width:1.75"
     id="rect1"
     width="20"
     height="20"
     x="1"
     y="1.5"
     ry="4" />
  <rect
     style="fill:url(#linearGradient4);stroke-width:0.714286"
     id="rect2"
     width="20"
     height="20"
     x="1"
     y="1"
     ry="4" />
  <path
     d="M 16.5,4 C 15.671573,4 15,4.6715729 15,5.5 c 0.0011,0.2181525 0.04974,0.433443 0.142578,0.6308594 L 12.429688,9.179688 C 12.134062,9.061113 11.818513,9.000126 11.5,9 10.178253,9.0018 9.086292,10.032148 9.007812,11.351562 l -3.7207026,0.53125 C 5.0974804,11.641065 4.8072468,11.49991 4.5,11.5 c -0.5522847,0 -1,0.447715 -1,1 0,0.552285 0.4477153,1 1,1 0.4082254,-3.2e-5 0.7754471,-0.248196 0.9277344,-0.626953 L 9.148438,12.341797 C 9.503762,13.335438 10.444738,13.998965 11.5,14 12.880712,14 14,12.880712 14,11.5 13.999431,11.01343 13.856886,10.537601 13.589844,10.130859 l 2.787109,-3.1367184 c 0.04092,0.00364 0.08197,0.00559 0.123047,0.00586 0.828427,0 1.5,-0.6715729 1.5,-1.5 C 18,4.6715735 17.328427,4.0000006 16.5,4 Z M 8,5 C 7.4477153,5 7,5.4477153 7,6 7,6.5522847 7.4477153,7 8,7 8.5522848,7 8.9999998,6.5522847 8.9999998,6 8.9999998,5.4477153 8.5522848,5 8,5 Z m 8.5,0 C 16.776142,5 17,5.2238576 17,5.5 17,5.7761424 16.776142,6 16.5,6 16.223858,6 16,5.7761424 16,5.5 16,5.2238576 16.223858,5 16.5,5 Z M 9.048828,7.0429688 8.4453128,7.4882812 8.8496098,8.0664062 9.453125,7.6191406 Z M 9.751953,8.1074219 9.148438,8.5527344 9.681641,9.314453 10.285156,8.8671875 Z M 11.5,10 C 12.328427,10 13,10.671573 13,11.5 13,12.328427 12.328427,13 11.5,13 10.671573,13 10,12.328427 10,11.5 10,10.671573 10.671573,10 11.5,10 Z m -7,2 C 4.7761424,12 5,12.223858 5,12.5 5,12.776142 4.7761424,13 4.5,13 4.2238576,13 4,12.776142 4,12.5 4,12.223858 4.2238576,12 4.5,12 Z m 9.236328,1.205078 -0.53125,0.53125 0.685547,0.685547 0.53125,-0.53125 z m -4.076172,0.896484 -0.49414,1.236329 0.708984,0.248047 0.494141,-1.234376 z m 5.007813,0.03711 -0.529297,0.53125 0.791016,0.791016 0.53125,-0.53125 z M 16.25,15 C 15.559644,15 15,15.559644 15,16.25 c 0,0.690356 0.559644,1.25 1.25,1.25 0.690356,0 1.25,-0.559644 1.25,-1.25 C 17.5,15.559644 16.940356,15 16.25,15 Z M 8.9999998,16 C 8.4477158,16 8,16.447715 8,17 8,17.552285 8.4477158,18 8.9999998,18 9.552285,18 10,17.552285 10,17 10,16.447715 9.552285,16 8.9999998,16 Z"
     style="fill:url(#linearGradient3)"
     id="path304" />
</svg>
