<?xml version="1.0" encoding="UTF-8" standalone="no"?>
<!-- Created with Inkscape (http://www.inkscape.org/) -->

<svg
   width="22"
   height="22"
   viewBox="0 0 22 22.000002"
   version="1.1"
   id="svg1"
   inkscape:version="1.4.2 (ebf0e940d0, 2025-05-08)"
   sodipodi:docname="youtube.svg"
   xmlns:inkscape="http://www.inkscape.org/namespaces/inkscape"
   xmlns:sodipodi="http://sodipodi.sourceforge.net/DTD/sodipodi-0.dtd"
   xmlns:xlink="http://www.w3.org/1999/xlink"
   xmlns="http://www.w3.org/2000/svg"
   xmlns:svg="http://www.w3.org/2000/svg">
  <sodipodi:namedview
     id="namedview1"
     pagecolor="#ffffff"
     bordercolor="#000000"
     borderopacity="0.25"
     inkscape:showpageshadow="2"
     inkscape:pageopacity="0.0"
     inkscape:pagecheckerboard="0"
     inkscape:deskcolor="#d1d1d1"
     inkscape:document-units="px"
     inkscape:zoom="35.727273"
     inkscape:cx="10.986005"
     inkscape:cy="11.013995"
     inkscape:window-width="1920"
     inkscape:window-height="1010"
     inkscape:window-x="0"
     inkscape:window-y="0"
     inkscape:window-maximized="1"
     inkscape:current-layer="svg1" />
  <defs
     id="defs1">
    <linearGradient
       inkscape:collect="always"
       xlink:href="#4852"
       id="linearGradient4"
       x1="16"
       y1="30"
       x2="16"
       y2="2"
       gradientUnits="userSpaceOnUse"
       gradientTransform="matrix(0.71428571,0,0,0.71428571,-0.42857143,-0.42857143)" />
    <linearGradient
       inkscape:collect="always"
       id="4852">
      <stop
         style="stop-color:#272727;stop-opacity:1;"
         offset="0"
         id="stop14555" />
      <stop
         style="stop-color:#5d5d5d;stop-opacity:1;"
         offset="1"
         id="stop14557" />
    </linearGradient>
  </defs>
  <rect
     style="opacity:0.2;fill:#000000;stroke-width:1.75"
     id="rect1"
     width="20"
     height="20"
     x="1"
     y="1.5"
     ry="4" />
  <rect
     style="fill:url(#linearGradient4);stroke-width:0.714286"
     id="rect2"
     width="20"
     height="20"
     x="1"
     y="1"
     ry="4" />
  <path
     id="path1633"
     style="fill:#ff0000;fill-opacity:1;stroke-width:0.109398"
     d="M 11.25 6 C 11.25 6 6.5640044 6.0009014 5.4902344 6.265625 C 4.9137884 6.41386 4.43949 6.8576191 4.28125 7.4082031 C 3.998679 8.4140781 4 11 4 11 C 4 11 3.998679 13.596508 4.28125 14.591797 C 4.439491 15.14238 4.9024864 15.576376 5.4902344 15.724609 C 6.5753064 15.999903 11.25 16 11.25 16 C 11.25 16 15.434041 15.9991 16.507812 15.734375 C 17.095561 15.58614 17.558556 15.152147 17.716797 14.601562 C 17.999368 13.595686 18 10.509766 18 10.509766 C 18 10.509766 18.010557 8.4140781 17.716797 7.4082031 C 17.558556 6.8576191 17.095561 6.4236246 16.507812 6.2753906 C 15.434041 6.000099 11.25 6 11.25 6 z M 9 8 L 14 11 L 9 14 L 9 8 z " />
</svg>
