<?xml version="1.0" encoding="UTF-8" standalone="no"?>
<!-- Created with Inkscape (http://www.inkscape.org/) -->

<svg
   width="32"
   height="32"
   viewBox="0 0 32 32.000002"
   version="1.1"
   id="svg1"
   inkscape:version="1.4.2 (ebf0e940d0, 2025-05-08)"
   sodipodi:docname="accessories-camera.svg"
   xmlns:inkscape="http://www.inkscape.org/namespaces/inkscape"
   xmlns:sodipodi="http://sodipodi.sourceforge.net/DTD/sodipodi-0.dtd"
   xmlns:xlink="http://www.w3.org/1999/xlink"
   xmlns="http://www.w3.org/2000/svg"
   xmlns:svg="http://www.w3.org/2000/svg">
  <sodipodi:namedview
     id="namedview1"
     pagecolor="#ffffff"
     bordercolor="#000000"
     borderopacity="0.25"
     inkscape:showpageshadow="2"
     inkscape:pageopacity="0.0"
     inkscape:pagecheckerboard="0"
     inkscape:deskcolor="#d1d1d1"
     inkscape:document-units="px"
     inkscape:zoom="25.25"
     inkscape:cx="15.980198"
     inkscape:cy="16"
     inkscape:window-width="1920"
     inkscape:window-height="1011"
     inkscape:window-x="0"
     inkscape:window-y="0"
     inkscape:window-maximized="1"
     inkscape:current-layer="svg1" />
  <defs
     id="defs1">
    <linearGradient
       inkscape:collect="always"
       xlink:href="#linearGradient1217"
       id="linearGradient4"
       x1="16"
       y1="30"
       x2="16"
       y2="2"
       gradientUnits="userSpaceOnUse" />
    <linearGradient
       inkscape:collect="always"
       id="linearGradient1217">
      <stop
         style="stop-color:#96a3ad;stop-opacity:1;"
         offset="0"
         id="stop1213" />
      <stop
         style="stop-color:#c4c8cd;stop-opacity:1;"
         offset="1"
         id="stop1215" />
    </linearGradient>
    <linearGradient
       id="linearGradient4-8"
       inkscape:collect="always">
      <stop
         style="stop-color:#3a3a3a;stop-opacity:1;"
         offset="0"
         id="stop4" />
      <stop
         style="stop-color:#4d4d4d;stop-opacity:1;"
         offset="1"
         id="stop5" />
    </linearGradient>
    <linearGradient
       inkscape:collect="always"
       xlink:href="#linearGradient4-8"
       id="linearGradient6"
       x1="16"
       y1="30"
       x2="16"
       y2="2"
       gradientUnits="userSpaceOnUse" />
  </defs>
  <rect
     style="fill:#000000;stroke-width:1.75;opacity:0.2"
     id="rect1"
     width="28"
     height="28"
     x="2"
     y="3"
     ry="6" />
  <rect
     style="fill:url(#linearGradient4)"
     id="rect2"
     width="28"
     height="28"
     x="2"
     y="2"
     ry="6" />
  <rect
     style="opacity:1;fill:#eeaf4f;stroke-width:2"
     id="rect3"
     width="4"
     height="4"
     x="21"
     y="11"
     ry="1" />
  <path
     id="path669"
     style="opacity:1;fill:url(#linearGradient6);stroke-width:4.95239;stroke-linecap:round;stroke-linejoin:round"
     d="M 14 7 C 12.892003 7 12.669861 7.4952071 12 8.5 L 11 10 L 8.5 10 C 7.1192881 10 6 11.119288 6 12.5 L 6 21.5 C 6 22.880712 7.1192881 24 8.5 24 L 23.5 24 C 24.880712 24 26 22.880712 26 21.5 L 26 12.5 C 26 11.119288 24.880712 10 23.5 10 L 21 10 L 20 8.5 C 19.385395 7.5780906 19.107997 7 18 7 L 14 7 z M 16 12 C 18.761424 12 21 14.238576 21 17 C 21 19.761424 18.761424 22 16 22 C 13.238576 22 11 19.761424 11 17 C 11 14.238576 13.238576 12 16 12 z M 23 12 C 23.552285 12 24 12.447715 24 13 C 24 13.552285 23.552285 14 23 14 C 22.447715 14 22 13.552285 22 13 C 22 12.447715 22.447715 12 23 12 z M 16 13 C 13.790867 13 12 14.790868 12 17 C 12 19.209135 13.790867 21 16 21 C 18.209135 21 20 19.209135 20 17 C 20 14.790868 18.209135 13 16 13 z " />
</svg>
