<?xml version="1.0" encoding="UTF-8" standalone="no"?>
<!-- Created with Inkscape (http://www.inkscape.org/) -->

<svg
   width="32"
   height="32"
   viewBox="0 0 32 32.000002"
   version="1.1"
   id="svg1"
   inkscape:version="1.4.2 (ebf0e940d0, 2025-05-08)"
   sodipodi:docname="applications-graphics.svg"
   xmlns:inkscape="http://www.inkscape.org/namespaces/inkscape"
   xmlns:sodipodi="http://sodipodi.sourceforge.net/DTD/sodipodi-0.dtd"
   xmlns:xlink="http://www.w3.org/1999/xlink"
   xmlns="http://www.w3.org/2000/svg"
   xmlns:svg="http://www.w3.org/2000/svg">
  <sodipodi:namedview
     id="namedview1"
     pagecolor="#ffffff"
     bordercolor="#000000"
     borderopacity="0.25"
     inkscape:showpageshadow="2"
     inkscape:pageopacity="0.0"
     inkscape:pagecheckerboard="0"
     inkscape:deskcolor="#d1d1d1"
     inkscape:document-units="px"
     inkscape:zoom="24.875"
     inkscape:cx="15.979899"
     inkscape:cy="16"
     inkscape:window-width="1920"
     inkscape:window-height="1011"
     inkscape:window-x="0"
     inkscape:window-y="0"
     inkscape:window-maximized="1"
     inkscape:current-layer="svg1" />
  <defs
     id="defs1">
    <linearGradient
       inkscape:collect="always"
       xlink:href="#linearGradient1690"
       id="linearGradient4"
       x1="2"
       y1="30"
       x2="30"
       y2="2"
       gradientUnits="userSpaceOnUse" />
    <linearGradient
       inkscape:collect="always"
       id="linearGradient1690">
      <stop
         style="stop-color:#eb7b51;stop-opacity:1;"
         offset="0"
         id="stop1686" />
      <stop
         style="stop-color:#ee5b85;stop-opacity:1;"
         offset="0.30000001"
         id="stop1692" />
      <stop
         style="stop-color:#c05fe9;stop-opacity:1;"
         offset="0.68692034"
         id="stop1694" />
      <stop
         style="stop-color:#2f95f5;stop-opacity:1;"
         offset="1"
         id="stop1696" />
    </linearGradient>
  </defs>
  <rect
     style="fill:#000000;stroke-width:1.75;opacity:0.2"
     id="rect1"
     width="28"
     height="28"
     x="2"
     y="3"
     ry="6" />
  <rect
     style="fill:url(#linearGradient4)"
     id="rect2"
     width="28"
     height="28"
     x="2"
     y="2"
     ry="6" />
  <path
     d="m 24.452301,7.008492 c -1.355218,-0.17082 -4.890449,2.2523967 -8.374595,5.737914 -1.553721,1.554663 -2.902155,3.091004 -3.934928,4.540112 1.210428,0.385641 2.185949,1.360522 2.57139,2.571387 1.448552,-1.033067 2.98838,-2.375628 4.54262,-3.929906 3.952899,-3.95454 6.445264,-7.872105 5.567159,-8.751261 -0.09025,-0.0909 -0.21339,-0.1479375 -0.371646,-0.168255 z M 11.499933,18.996591 v 0.0024 C 7.000243,20.205357 10.374761,23.054755 7,25.000654 c 4.49969,0 6.749897,-2.252311 6.749897,-3.75413 0,-0.748631 0.0763,-2.125377 -2.249964,-2.249964 z"
     style="color:#444444;fill:#ffffff;fill-opacity:1;stroke-width:1.28569"
     id="path347"
     sodipodi:nodetypes="ccccccccccscc" />
</svg>
