<?xml version="1.0" encoding="UTF-8" standalone="no"?>
<!-- Created with Inkscape (http://www.inkscape.org/) -->

<svg
   width="32"
   height="32"
   viewBox="0 0 32 32.000002"
   version="1.1"
   id="svg1"
   inkscape:version="1.4 (e7c3feb100, 2024-10-09)"
   sodipodi:docname="applications-all.svg"
   xmlns:inkscape="http://www.inkscape.org/namespaces/inkscape"
   xmlns:sodipodi="http://sodipodi.sourceforge.net/DTD/sodipodi-0.dtd"
   xmlns:xlink="http://www.w3.org/1999/xlink"
   xmlns="http://www.w3.org/2000/svg"
   xmlns:svg="http://www.w3.org/2000/svg">
  <sodipodi:namedview
     id="namedview1"
     pagecolor="#ffffff"
     bordercolor="#000000"
     borderopacity="0.25"
     inkscape:showpageshadow="2"
     inkscape:pageopacity="0.0"
     inkscape:pagecheckerboard="0"
     inkscape:deskcolor="#d1d1d1"
     inkscape:document-units="px"
     inkscape:zoom="24.5625"
     inkscape:cx="16.020356"
     inkscape:cy="16"
     inkscape:window-width="1920"
     inkscape:window-height="1011"
     inkscape:window-x="0"
     inkscape:window-y="0"
     inkscape:window-maximized="1"
     inkscape:current-layer="svg1" />
  <defs
     id="defs1">
    <linearGradient
       inkscape:collect="always"
       xlink:href="#linearGradient3147"
       id="linearGradient4"
       x1="16"
       y1="30"
       x2="16"
       y2="2"
       gradientUnits="userSpaceOnUse" />
    <linearGradient
       inkscape:collect="always"
       id="linearGradient3147">
      <stop
         style="stop-color:#0091f9;stop-opacity:1;"
         offset="0"
         id="stop3143" />
      <stop
         style="stop-color:#41bbff;stop-opacity:1;"
         offset="1"
         id="stop3145" />
    </linearGradient>
  </defs>
  <rect
     style="fill:#000000;stroke-width:1.75;opacity:0.2"
     id="rect1"
     width="28"
     height="28"
     x="2"
     y="3"
     ry="6" />
  <rect
     style="fill:url(#linearGradient4)"
     id="rect2"
     width="28"
     height="28"
     x="2"
     y="2"
     ry="6" />
  <path
     id="path433"
     style="fill:#ffffff;fill-opacity:1;stroke-width:18;stroke-linecap:round;stroke-linejoin:round"
     d="M 8.9999999,7 C 7.8954311,7 7,7.8954312 7,8.9999999 7,10.104569 7.8954311,11 8.9999999,11 10.104566,11 11,10.104569 11,8.9999999 11,7.8954312 10.104566,7 8.9999999,7 Z M 16,7 C 14.89543,7 14,7.8954312 14,8.9999999 14,10.104569 14.89543,11 16,11 17.104568,11 18,10.104569 18,8.9999999 18,7.8954312 17.104568,7 16,7 Z m 7,0 C 21.895432,7 21,7.8954312 21,8.9999999 21,10.104569 21.895432,11 23,11 24.104568,11 25,10.104569 25,8.9999999 25,7.8954312 24.104568,7 23,7 Z M 8.9999999,14 C 7.8954312,14 7,14.895432 7,16 7,17.104568 7.8954312,18 8.9999999,18 10.104566,18 11,17.104568 11,16 11,14.895432 10.104566,14 8.9999999,14 Z M 16,14 c -1.10457,0 -2,0.895432 -2,2 0,1.104568 0.89543,2 2,2 1.104568,0 2,-0.895432 2,-2 0,-1.104568 -0.895432,-2 -2,-2 z m 7,0 c -1.104568,0 -2,0.895432 -2,2 0,1.104568 0.895432,2 2,2 1.104568,0 2,-0.895432 2,-2 0,-1.104568 -0.895432,-2 -2,-2 z M 8.9999999,21 C 7.8954312,21 7,21.895432 7,23 7,24.104568 7.8954312,25 8.9999999,25 10.104566,25 11,24.104568 11,23 11,21.895432 10.104566,21 8.9999999,21 Z M 16,21 c -1.10457,0 -2,0.895432 -2,2 0,1.104568 0.89543,2 2,2 1.10457,0 2,-0.895432 2,-2 0,-1.104568 -0.89543,-2 -2,-2 z m 7,0 c -1.104568,0 -2,0.895432 -2,2 0,1.104568 0.895432,2 2,2 1.104568,0 2,-0.895432 2,-2 0,-1.104568 -0.895432,-2 -2,-2 z"
     sodipodi:nodetypes="sssssssssssssssssssssssssssssssssssssssssssss" />
</svg>
