<?xml version="1.0" encoding="UTF-8" standalone="no"?>
<!-- Created with Inkscape (http://www.inkscape.org/) -->

<svg
   width="32"
   height="32"
   viewBox="0 0 32 32.000002"
   version="1.1"
   id="svg1"
   inkscape:version="1.4.2 (ebf0e940d0, 2025-05-08)"
   sodipodi:docname="applications-games.svg"
   xmlns:inkscape="http://www.inkscape.org/namespaces/inkscape"
   xmlns:sodipodi="http://sodipodi.sourceforge.net/DTD/sodipodi-0.dtd"
   xmlns:xlink="http://www.w3.org/1999/xlink"
   xmlns="http://www.w3.org/2000/svg"
   xmlns:svg="http://www.w3.org/2000/svg">
  <sodipodi:namedview
     id="namedview1"
     pagecolor="#ffffff"
     bordercolor="#000000"
     borderopacity="0.25"
     inkscape:showpageshadow="2"
     inkscape:pageopacity="0.0"
     inkscape:pagecheckerboard="0"
     inkscape:deskcolor="#d1d1d1"
     inkscape:document-units="px"
     inkscape:zoom="25.25"
     inkscape:cx="15.980198"
     inkscape:cy="16"
     inkscape:window-width="1920"
     inkscape:window-height="1011"
     inkscape:window-x="0"
     inkscape:window-y="0"
     inkscape:window-maximized="1"
     inkscape:current-layer="svg1" />
  <defs
     id="defs1">
    <linearGradient
       inkscape:collect="always"
       xlink:href="#linearGradient1144"
       id="linearGradient4"
       x1="16"
       y1="30"
       x2="16"
       y2="2"
       gradientUnits="userSpaceOnUse" />
    <linearGradient
       inkscape:collect="always"
       id="linearGradient1144">
      <stop
         style="stop-color:#adb2b9;stop-opacity:1;"
         offset="0"
         id="stop1140" />
      <stop
         style="stop-color:#e0e2e4;stop-opacity:1;"
         offset="1"
         id="stop1142" />
    </linearGradient>
    <linearGradient
       inkscape:collect="always"
       id="linearGradient1401">
      <stop
         style="stop-color:#9f9f9f;stop-opacity:1;"
         offset="0"
         id="stop1397" />
      <stop
         style="stop-color:#d0d0d0;stop-opacity:1;"
         offset="1"
         id="stop1399" />
    </linearGradient>
    <linearGradient
       inkscape:collect="always"
       xlink:href="#linearGradient1331"
       id="linearGradient13"
       x1="31.5"
       y1="20"
       x2="31.5"
       y2="17"
       gradientUnits="userSpaceOnUse"
       gradientTransform="matrix(0.66666667,0,0,0.66666667,0,0.6666666)" />
    <linearGradient
       inkscape:collect="always"
       id="linearGradient1331">
      <stop
         style="stop-color:#e4940d;stop-opacity:1;"
         offset="0"
         id="stop1327" />
      <stop
         style="stop-color:#e4ad0d;stop-opacity:1;"
         offset="1"
         id="stop1329" />
    </linearGradient>
    <linearGradient
       inkscape:collect="always"
       xlink:href="#linearGradient1199"
       id="linearGradient9"
       x1="28.5"
       y1="23"
       x2="28.5"
       y2="20"
       gradientUnits="userSpaceOnUse"
       gradientTransform="matrix(0.66666667,0,0,0.66666667,0,0.6666666)" />
    <linearGradient
       inkscape:collect="always"
       id="linearGradient1199">
      <stop
         style="stop-color:#2d7be6;stop-opacity:1;"
         offset="0"
         id="stop1195" />
      <stop
         style="stop-color:#5897ed;stop-opacity:1;"
         offset="1"
         id="stop1197" />
    </linearGradient>
    <linearGradient
       inkscape:collect="always"
       xlink:href="#linearGradient1139"
       id="linearGradient17"
       x1="34.5"
       y1="23"
       x2="34.5"
       y2="20"
       gradientUnits="userSpaceOnUse"
       gradientTransform="matrix(0.66666667,0,0,0.66666667,0,0.6666666)" />
    <linearGradient
       inkscape:collect="always"
       id="linearGradient1139">
      <stop
         style="stop-color:#d43b3b;stop-opacity:1;"
         offset="0"
         id="stop1135" />
      <stop
         style="stop-color:#cb6060;stop-opacity:1;"
         offset="1"
         id="stop1137" />
    </linearGradient>
    <linearGradient
       inkscape:collect="always"
       xlink:href="#linearGradient1339"
       id="linearGradient19"
       x1="31.5"
       y1="26"
       x2="31.5"
       y2="23"
       gradientUnits="userSpaceOnUse"
       gradientTransform="matrix(0.66666667,0,0,0.66666667,0,0.6666666)" />
    <linearGradient
       inkscape:collect="always"
       id="linearGradient1339">
      <stop
         style="stop-color:#6ac326;stop-opacity:1;"
         offset="0"
         id="stop1335" />
      <stop
         style="stop-color:#b0d839;stop-opacity:1;"
         offset="1"
         id="stop1337" />
    </linearGradient>
    <linearGradient
       inkscape:collect="always"
       xlink:href="#linearGradient1401"
       id="linearGradient2"
       x1="11"
       y1="18"
       x2="11"
       y2="12"
       gradientUnits="userSpaceOnUse" />
  </defs>
  <rect
     style="fill:#000000;stroke-width:1.75;opacity:0.2"
     id="rect1"
     width="28"
     height="28"
     x="2"
     y="3"
     ry="6" />
  <rect
     style="fill:url(#linearGradient4)"
     id="rect2"
     width="28"
     height="28"
     x="2"
     y="2"
     ry="6" />
  <path
     id="path375"
     style="fill:#4d4d4d;fill-opacity:1;stroke-width:1.85404"
     d="M 10.5 9 C 9.21383 9 8.2105068 9.7268465 7.4570312 11.679688 C 5.8658773 15.800658 5 18.990679 5 20.923828 C 5 22.410643 5.513479 23.349036 6.6035156 23.900391 C 6.7312621 23.965191 6.8730266 24.00024 7.015625 24 C 7.2426245 24.000467 7.463156 23.91595 7.6328125 23.761719 L 10.482422 21.1875 C 10.993039 20.724362 11.43696 20 12.683594 20 L 19.316406 20 C 20.56304 20 21.005935 20.724099 21.517578 21.1875 L 24.367188 23.761719 C 24.650109 24.01814 25.057632 24.071785 25.396484 23.900391 C 26.486263 23.349288 27 22.407787 27 20.919922 C 27 18.987035 26.133353 15.79987 24.542969 11.679688 C 23.789496 9.7268465 22.785912 9 21.5 9 C 20.898503 9 19.966007 9.1596724 19.458984 9.4277344 C 17.282762 10.574287 14.76684 10.598704 12.544922 9.4277344 C 12.036102 9.1596754 11.101239 9 10.5 9 z " />
  <path
     d="m 10.5,12 h 1 c 0.277,0 0.5,0.223 0.5,0.5 V 14 h 1.5 c 0.277,0 0.5,0.223 0.5,0.5 v 1 C 14,15.777 13.777,16 13.5,16 H 12 v 1.5 c 0,0.277 -0.223,0.5 -0.5,0.5 h -1 C 10.223,18 10,17.777 10,17.5 V 16 H 8.5 C 8.2230009,16 8,15.777 8,15.5 v -1 C 8,14.223 8.2230009,14 8.5,14 H 10 V 12.5 C 10,12.223 10.223,12 10.5,12 Z"
     style="fill:url(#linearGradient2);fill-opacity:1;stroke-width:1.85404"
     id="path1" />
  <circle
     style="fill:url(#linearGradient13);stroke-width:1.33333"
     id="path2"
     cx="21"
     cy="13"
     r="1" />
  <circle
     style="fill:url(#linearGradient9);stroke-width:1.33333"
     id="path3"
     cx="19"
     cy="15"
     r="1" />
  <circle
     style="fill:url(#linearGradient17);stroke-width:1.33333"
     id="path4"
     cx="23"
     cy="15"
     r="1" />
  <circle
     style="fill:url(#linearGradient19);stroke-width:1.33333"
     id="path5"
     cx="21"
     cy="17"
     r="1" />
</svg>
