<?xml version="1.0" encoding="UTF-8" standalone="no"?>
<!-- Created with Inkscape (http://www.inkscape.org/) -->

<svg
   width="32"
   height="32"
   viewBox="0 0 32 32.000002"
   version="1.1"
   id="svg1"
   inkscape:version="1.4.2 (ebf0e940d0, 2025-05-08)"
   sodipodi:docname="devhelp.svg"
   xmlns:inkscape="http://www.inkscape.org/namespaces/inkscape"
   xmlns:sodipodi="http://sodipodi.sourceforge.net/DTD/sodipodi-0.dtd"
   xmlns:xlink="http://www.w3.org/1999/xlink"
   xmlns="http://www.w3.org/2000/svg"
   xmlns:svg="http://www.w3.org/2000/svg">
  <sodipodi:namedview
     id="namedview1"
     pagecolor="#ffffff"
     bordercolor="#000000"
     borderopacity="0.25"
     inkscape:showpageshadow="2"
     inkscape:pageopacity="0.0"
     inkscape:pagecheckerboard="0"
     inkscape:deskcolor="#d1d1d1"
     inkscape:document-units="px"
     inkscape:zoom="25.25"
     inkscape:cx="15.980198"
     inkscape:cy="16"
     inkscape:window-width="1920"
     inkscape:window-height="1011"
     inkscape:window-x="0"
     inkscape:window-y="0"
     inkscape:window-maximized="1"
     inkscape:current-layer="svg1" />
  <defs
     id="defs1">
    <linearGradient
       inkscape:collect="always"
       xlink:href="#linearGradient5312"
       id="linearGradient4"
       x1="16"
       y1="30"
       x2="16"
       y2="2"
       gradientUnits="userSpaceOnUse" />
    <linearGradient
       inkscape:collect="always"
       id="linearGradient5312">
      <stop
         style="stop-color:#c72222;stop-opacity:1;"
         offset="0"
         id="stop5308" />
      <stop
         style="stop-color:#cf5b5b;stop-opacity:1;"
         offset="1"
         id="stop5310" />
    </linearGradient>
  </defs>
  <rect
     style="fill:#000000;stroke-width:1.75;opacity:0.2"
     id="rect1"
     width="28"
     height="28"
     x="2"
     y="3"
     ry="6" />
  <rect
     style="fill:url(#linearGradient4)"
     id="rect2"
     width="28"
     height="28"
     x="2"
     y="2"
     ry="6" />
  <path
     id="path1650"
     style="color:#000000;font-style:normal;font-variant:normal;font-weight:600;font-stretch:normal;font-size:19px;line-height:125%;font-family:'Open Sans';-inkscape-font-specification:'Open Sans Semi-Bold';text-align:start;letter-spacing:0px;word-spacing:0px;writing-mode:lr-tb;text-anchor:start;clip-rule:nonzero;display:inline;overflow:visible;visibility:visible;isolation:auto;mix-blend-mode:normal;color-interpolation:sRGB;color-interpolation-filters:linearRGB;solid-color:#000000;solid-opacity:1;fill:#ffffff;fill-opacity:1;fill-rule:nonzero;stroke:none;stroke-width:1;stroke-linecap:butt;stroke-linejoin:miter;stroke-miterlimit:4;stroke-dasharray:none;stroke-dashoffset:0;stroke-opacity:1;marker:none;color-rendering:auto;image-rendering:auto;shape-rendering:auto;text-rendering:auto;enable-background:accumulate"
     d="m 17,9 c -0.898719,9e-6 -1.892324,0.1600043 -2.34375,0.4375 C 14.20896,9.7112607 14,10.13375 14,10.71875 V 14.5 c 0.0039,0.689662 -1.648469,1.031 -2,1.03125 v 1 c 1.10165,2e-6 2,0.364994 2,1.0625 v 3.59375 c 0,0.641255 0.2067,1.121244 0.625,1.40625 0.422435,0.288751 1.4183,0.429997 2.375,0.4375 V 22 C 16.523718,21.9925 15.523715,21.9075 15.3125,21.75 15.101277,21.592499 15,21.370003 15,21.0625 V 17.375 c 0,-0.306801 -0.114088,-1.208745 -1.0625,-1.34375 v -0.0625 C 14.885912,15.822502 15,15.09523 15,14.65625 v -3.6875 c 0,-0.307498 0.101283,-0.502491 0.3125,-0.65625 0.215357,-0.157495 1.21536,-0.262493 1.6875,-0.28125 z m 3,0 v 1.03125 c 0.47214,0.01876 1.472143,0.123755 1.6875,0.28125 C 21.898717,10.466259 22,10.661252 22,10.96875 v 3.6875 c 0,0.43898 0.114088,1.166252 1.0625,1.3125 v 0.0625 C 22.114088,16.166255 22,17.068199 22,17.375 v 3.6875 C 22,21.370003 21.898723,21.592499 21.6875,21.75 21.476285,21.9075 20.476282,21.9925 20,22 v 1.03125 c 0.956701,-0.0075 1.952565,-0.148749 2.375,-0.4375 C 22.7933,22.308744 23,21.828755 23,21.1875 v -3.59375 c 0,-0.697506 0.89835,-1.062498 2,-1.0625 v -1 C 24.648469,15.531 22.9961,15.189662 23,14.5 V 10.71875 C 23,10.13375 22.79104,9.7112607 22.34375,9.4375 21.892324,9.1600043 20.898719,9.000009 20,9 Z" />
  <path
     id="rect3"
     style="opacity:0.5;fill:#000000"
     d="M 8 2 C 4.676 2 2 4.676 2 8 L 2 24 C 2 27.324 4.676 30 8 30 L 8 2 z " />
</svg>
