<?xml version="1.0" encoding="UTF-8" standalone="no"?>
<!-- Created with Inkscape (http://www.inkscape.org/) -->

<svg
   width="32"
   height="32"
   viewBox="0 0 32 32.000002"
   version="1.1"
   id="svg1"
   inkscape:version="1.4.2 (ebf0e940d0, 2025-05-08)"
   sodipodi:docname="disk-utility.svg"
   xmlns:inkscape="http://www.inkscape.org/namespaces/inkscape"
   xmlns:sodipodi="http://sodipodi.sourceforge.net/DTD/sodipodi-0.dtd"
   xmlns:xlink="http://www.w3.org/1999/xlink"
   xmlns="http://www.w3.org/2000/svg"
   xmlns:svg="http://www.w3.org/2000/svg">
  <sodipodi:namedview
     id="namedview1"
     pagecolor="#ffffff"
     bordercolor="#000000"
     borderopacity="0.25"
     inkscape:showpageshadow="2"
     inkscape:pageopacity="0.0"
     inkscape:pagecheckerboard="0"
     inkscape:deskcolor="#d1d1d1"
     inkscape:document-units="px"
     inkscape:zoom="24.5625"
     inkscape:cx="16.020356"
     inkscape:cy="16"
     inkscape:window-width="1920"
     inkscape:window-height="1011"
     inkscape:window-x="0"
     inkscape:window-y="0"
     inkscape:window-maximized="1"
     inkscape:current-layer="svg1" />
  <defs
     id="defs1">
    <linearGradient
       inkscape:collect="always"
       xlink:href="#linearGradient1273"
       id="linearGradient4"
       x1="16"
       y1="30"
       x2="16"
       y2="2"
       gradientUnits="userSpaceOnUse" />
    <linearGradient
       inkscape:collect="always"
       id="linearGradient1273">
      <stop
         style="stop-color:#a1a1a1;stop-opacity:1;"
         offset="0"
         id="stop1269" />
      <stop
         style="stop-color:#dedede;stop-opacity:1;"
         offset="1"
         id="stop1271" />
    </linearGradient>
  </defs>
  <rect
     style="fill:#000000;stroke-width:1.75;opacity:0.2"
     id="rect1"
     width="28"
     height="28"
     x="2"
     y="3"
     ry="6" />
  <rect
     style="fill:url(#linearGradient4)"
     id="rect2"
     width="28"
     height="28"
     x="2"
     y="2"
     ry="6" />
  <path
     id="path346"
     style="opacity:0.6;fill:#ffffff;stroke-width:2;stroke-linecap:round;stroke-linejoin:round;paint-order:stroke fill markers"
     d="M 16,6 C 10.477158,6 5.9999999,10.477158 6,16 6,21.522841 10.477159,26 16,26 21.522841,26 26,21.522841 26,16 26,10.477158 21.522842,6 16,6 Z m 0,7 c 1.656852,0 3,1.343148 3,3 0,1.656852 -1.343148,3 -3,3 -1.656852,0 -3,-1.343148 -3,-3 0,-1.656852 1.343148,-3 3,-3 z" />
  <path
     id="path400"
     style="fill:#ffffff;stroke-width:4;stroke-linecap:round;stroke-linejoin:round;paint-order:stroke fill markers"
     d="m 22.999665,26.732054 c 0.95659,0.552282 2.179766,0.224532 2.73205,-0.732052 0.552288,-0.956586 0.224538,-2.179766 -0.732048,-2.732052 L 15.339411,20 Z"
     sodipodi:nodetypes="csccc" />
</svg>
