<?xml version="1.0" encoding="UTF-8" standalone="no"?>
<!-- Created with Inkscape (http://www.inkscape.org/) -->

<svg
   width="32"
   height="32"
   viewBox="0 0 32 32.000002"
   version="1.1"
   id="svg1"
   inkscape:version="1.4.2 (ebf0e940d0, 2025-05-08)"
   sodipodi:docname="gimp.svg"
   xmlns:inkscape="http://www.inkscape.org/namespaces/inkscape"
   xmlns:sodipodi="http://sodipodi.sourceforge.net/DTD/sodipodi-0.dtd"
   xmlns:xlink="http://www.w3.org/1999/xlink"
   xmlns="http://www.w3.org/2000/svg"
   xmlns:svg="http://www.w3.org/2000/svg">
  <sodipodi:namedview
     id="namedview1"
     pagecolor="#ffffff"
     bordercolor="#000000"
     borderopacity="0.25"
     inkscape:showpageshadow="2"
     inkscape:pageopacity="0.0"
     inkscape:pagecheckerboard="0"
     inkscape:deskcolor="#d1d1d1"
     inkscape:document-units="px"
     inkscape:zoom="24.5625"
     inkscape:cx="15.979644"
     inkscape:cy="16"
     inkscape:window-width="1920"
     inkscape:window-height="1011"
     inkscape:window-x="0"
     inkscape:window-y="0"
     inkscape:window-maximized="1"
     inkscape:current-layer="svg1" />
  <defs
     id="defs1">
    <linearGradient
       inkscape:collect="always"
       xlink:href="#linearGradient3"
       id="linearGradient4"
       x1="16"
       y1="30"
       x2="16"
       y2="2"
       gradientUnits="userSpaceOnUse" />
    <linearGradient
       inkscape:collect="always"
       id="linearGradient3">
      <stop
         style="stop-color:#cfc6be;stop-opacity:1;"
         offset="0"
         id="stop1" />
      <stop
         style="stop-color:#f0ecec;stop-opacity:1;"
         offset="1"
         id="stop2" />
    </linearGradient>
  </defs>
  <rect
     style="fill:#000000;stroke-width:1.75;opacity:0.2"
     id="rect1"
     width="28"
     height="28"
     x="2"
     y="3"
     ry="6" />
  <rect
     style="fill:url(#linearGradient4)"
     id="rect2"
     width="28"
     height="28"
     x="2"
     y="2"
     ry="6" />
  <path
     style="fill:#8c8073;fill-rule:evenodd;fill-opacity:1"
     d="m 25.302795,6.0067152 c -0.17383,-0.02763 -0.33001,0.07046 -0.4239,0.182148 -0.0939,0.111742 -0.15903,0.250176 -0.21576,0.424642 -0.0981,0.301902 -0.45842,1.422529 -1.7577,2.530113 -1.29927,1.1076398 -3.53982,2.7566328 -7.42308,2.8565488 -2.36129,0.02763 -3.98977,-1.18696 -4.93134,-3.0501568 -0.23499,-0.464984 -0.57732,-1.331511 -0.57732,-0.78015 v 0.85249 l -0.012,4.4120448 0.024,0.05808 c 0,0 0.21154,0.469903 -0.012,1.102998 -0.22353,0.633149 -1.10506,1.557086 -3.07497,2.148347 l -0.24083,0.07157 0.0458,0.253602 c 0.10927,0.614361 0.54481,1.244029 1.18778,1.888674 0.64298,0.64459 1.50387,1.29675 2.50633,1.886353 2.00492,1.179205 4.57286,2.111052 7.06784,2.1546 2.49499,0.04366 4.93611,-0.828837 6.55132,-3.245329 1.61522,-2.416437 2.40295,-7.028229 1.7577,-13.0347268 h -10e-4 c -0.0205,-0.164908 -0.0569,-0.305719 -0.12203,-0.429121 -0.0652,-0.123348 -0.17487,-0.250729 -0.34871,-0.27825 z"
     id="path8956" />
  <path
     id="path8960"
     style="opacity:1;fill-rule:evenodd;fill:#333333;fill-opacity:1"
     d="M 17.130859 17.603516 C 17.130859 17.603516 17.203884 17.993915 17.464844 18.349609 C 16.847894 18.852338 15.626541 19.012706 14.238281 19.103516 C 13.402581 19.157196 12.481313 19.103516 11.470703 19.103516 L 11.470703 19.105469 C 13.045633 19.692311 14.397274 20.129496 15.458984 20.103516 C 16.456434 20.078926 17.198366 19.628124 17.628906 19 C 17.688776 19.247341 17.837319 19.481089 18.074219 20.103516 C 18.180629 19.394827 18.730819 19.053906 18.324219 18.5 C 17.916439 17.944544 17.130859 17.603516 17.130859 17.603516 z " />
  <path
     style="fill:#ffffff;fill-rule:evenodd"
     d="m 11.999445,11.000168 c -0.74216,0 -1.48806,0.24534 -2.05593,0.75012 -0.56787,0.504779 -0.94351,1.27404 -0.94351,2.25042 0,0.976379 0.37564,1.744559 0.94351,2.249339 0.56787,0.50478 1.31377,0.75012 2.05593,0.75012 0.74217,0 1.48807,-0.24534 2.05594,-0.75012 0.56787,-0.50478 0.94462,-1.27296 0.94462,-2.249339 0,-0.97638 -0.37675,-1.745641 -0.94462,-2.25042 -0.56787,-0.50478 -1.31377,-0.75012 -2.05594,-0.75012 z"
     id="path8966" />
  <path
     style="fill:#3f3f3f;fill-rule:evenodd"
     d="m 12.500005,13.000168 c -0.36756,0 -0.73913,0.1215 -1.02539,0.37596 -0.28626,0.254462 -0.47461,0.64638 -0.47461,1.124042 0,0.47766 0.18835,0.869579 0.47461,1.124039 0.28626,0.254459 0.65783,0.375959 1.02539,0.375959 0.36755,0 0.73913,-0.1215 1.02539,-0.375958 0.28626,-0.254461 0.47461,-0.64638 0.47461,-1.12404 0,-0.477662 -0.18835,-0.86958 -0.47461,-1.124042 -0.28626,-0.25446 -0.65784,-0.37596 -1.02539,-0.37596 z"
     id="path8968" />
  <path
     style="fill:#3f3f3f;fill-rule:evenodd"
     d="m 7.236985,13.000168 c -0.13311,0 -0.26365,0.0087 -0.39055,0.03033 -0.33838,0.05716 -0.65167,0.194134 -0.92178,0.401918 -1.08042,0.831193 -1.36496,2.714952 -0.0305,4.687552 1.33452,1.97266 3.10015,2.278794 4.18057,1.447602 1.08043,-0.831194 1.36602,-2.714952 0.0315,-4.687553 -0.87578,-1.294534 -1.93747,-1.871042 -2.86929,-1.879734 z"
     id="path8972" />
  <path
     style="fill:#ffffff;fill-rule:evenodd"
     d="m 16.999445,11.000168 c -0.74216,0 -1.48806,0.24534 -2.05593,0.75012 -0.56787,0.504779 -0.94351,1.27404 -0.94351,2.25042 0,0.976379 0.37564,1.744559 0.94351,2.249339 0.56787,0.50478 1.31377,0.75012 2.05593,0.75012 0.74217,0 1.48807,-0.24534 2.05594,-0.75012 0.56787,-0.50478 0.94462,-1.27296 0.94462,-2.249339 0,-0.97638 -0.37675,-1.745641 -0.94462,-2.25042 -0.56787,-0.50478 -1.31377,-0.75012 -2.05594,-0.75012 z"
     id="path8974" />
  <path
     style="fill:#3f3f3f;fill-rule:evenodd"
     d="m 17.500005,13.000168 c -0.36755,0 -0.73913,0.1215 -1.02539,0.37596 -0.28626,0.254462 -0.47461,0.64638 -0.47461,1.124042 0,0.47766 0.18835,0.86958 0.47461,1.12404 0.28626,0.254458 0.65784,0.375958 1.02539,0.375958 0.36755,0 0.73913,-0.1215 1.02539,-0.375958 0.28626,-0.25446 0.47461,-0.64638 0.47461,-1.12404 0,-0.477662 -0.18835,-0.86958 -0.47461,-1.124042 -0.28626,-0.25446 -0.65784,-0.37596 -1.02539,-0.37596 z"
     id="path8976" />
  <path
     style="fill:#ff9a0c"
     d="m 21.983895,22.700389 0.4632,-0.922437 c -1.72317,-1.260668 -4.9401,-2.539922 -4.9401,-2.539922 l -0.50687,0.278643 c 0,0 2.92075,2.590518 4.98377,3.183716 z"
     id="path8982" />
  <path
     style="fill:#8a8a8a"
     d="m 22.000005,21.000188 -0.24153,0.158843 c -0.22372,0.122455 -0.40522,0.330586 -0.55244,0.571296 -0.16846,0.395707 -0.23498,0.643159 -0.20603,1.029775 l 0.35,-0.05993 c 0,0 1.82746,0.524269 2.69256,0.8 l 0.1012,-0.194944 0.35624,-0.689526 -2.5,-1.280719 z"
     id="path8984" />
  <path
     style="fill:#3f3f3f"
     d="m 27.000005,26.000171 c -0.71256,-2.315192 -0.9653,-4.153448 -2.82746,-3.98987 -1.50064,0.13182 -1.6057,2.189906 -0.055,2.757827 1.4938,0.54709 2.88246,1.232043 2.88246,1.232043 z"
     id="path8986" />
</svg>
