<?xml version="1.0" encoding="UTF-8" standalone="no"?>
<!-- Created with Inkscape (http://www.inkscape.org/) -->

<svg
   width="32"
   height="32"
   viewBox="0 0 32 32.000002"
   version="1.1"
   id="svg1"
   inkscape:version="1.4.2 (ebf0e940d0, 2025-05-08)"
   sodipodi:docname="htop.svg"
   xmlns:inkscape="http://www.inkscape.org/namespaces/inkscape"
   xmlns:sodipodi="http://sodipodi.sourceforge.net/DTD/sodipodi-0.dtd"
   xmlns:xlink="http://www.w3.org/1999/xlink"
   xmlns="http://www.w3.org/2000/svg"
   xmlns:svg="http://www.w3.org/2000/svg">
  <sodipodi:namedview
     id="namedview1"
     pagecolor="#ffffff"
     bordercolor="#000000"
     borderopacity="0.25"
     inkscape:showpageshadow="2"
     inkscape:pageopacity="0.0"
     inkscape:pagecheckerboard="0"
     inkscape:deskcolor="#d1d1d1"
     inkscape:document-units="px"
     inkscape:zoom="25.25"
     inkscape:cx="15.980198"
     inkscape:cy="15.980198"
     inkscape:window-width="1920"
     inkscape:window-height="1010"
     inkscape:window-x="0"
     inkscape:window-y="0"
     inkscape:window-maximized="1"
     inkscape:current-layer="svg1"
     showguides="true" />
  <defs
     id="defs1">
    <linearGradient
       inkscape:collect="always"
       xlink:href="#4852"
       id="linearGradient4"
       x1="16"
       y1="30"
       x2="16"
       y2="2"
       gradientUnits="userSpaceOnUse" />
    <linearGradient
       inkscape:collect="always"
       id="4852">
      <stop
         style="stop-color:#272727;stop-opacity:1;"
         offset="0"
         id="stop14555" />
      <stop
         style="stop-color:#5d5d5d;stop-opacity:1;"
         offset="1"
         id="stop14557" />
    </linearGradient>
  </defs>
  <rect
     style="fill:#000000;stroke-width:1.75;opacity:0.2"
     id="rect1"
     width="28"
     height="28"
     x="2"
     y="3"
     ry="6" />
  <rect
     style="fill:url(#linearGradient4)"
     id="rect2"
     width="28"
     height="28"
     x="2"
     y="2"
     ry="6" />
  <path
     id="path1240"
     style="fill:#8bc34a;stroke-width:2"
     d="m 9,6 v 6 h 1.000001 V 6 Z m 2,0 v 6 h 1 V 6 Z m -2,7 v 6 h 1.000001 v -6 z m 2,0 v 6 h 1 v -6 z m -2,7 v 6 h 1.000001 v -6 z m 2,0 v 6 h 1 v -6 z"
     sodipodi:nodetypes="cccccccccccccccccccccccccccccc" />
  <path
     d="m 13.000001,13 v 6 H 14 V 13 Z M 18,13 v 6 h 1 v -6 z"
     style="fill:#ff9800"
     id="path1212"
     sodipodi:nodetypes="cccccccccc" />
  <path
     id="path1128"
     style="fill:#ff5722"
     d="m 20.000001,6 v 6 h 1 V 6 Z m 2,0 v 6 h 1 V 6 Z m -2,7 v 6 h 1 v -6 z m 2,0 v 6 h 1 v -6 z m -2,7 v 6 h 1 v -6 z m 2,0 v 6 h 1 v -6 z"
     sodipodi:nodetypes="cccccccccccccccccccccccccccccc" />
  <path
     id="path1156"
     style="fill:#f9f9f9"
     d="m 6,6 v 6 H 8 V 11 H 7 V 7 H 8 V 6 Z m 18,0 v 1 h 1 v 4 h -1 v 1 h 2 V 6 Z M 6,13 v 6 H 8 V 18 H 7 v -4 h 1 v -1 z m 18,0 v 1 h 1 v 4 h -1 v 1 h 2 V 13 Z M 6,20 v 6 H 8 V 25 H 7 v -4 h 1 v -1 z m 18,0 v 1 h 1 v 4 h -1 v 1 h 2 v -6 z"
     sodipodi:nodetypes="cccccccccccccccccccccccccccccccccccccccccccccccccccccc" />
</svg>
