<?xml version="1.0" encoding="UTF-8" standalone="no"?>
<!-- Created with Inkscape (http://www.inkscape.org/) -->

<svg
   width="32"
   height="32"
   viewBox="0 0 32 32.000002"
   version="1.1"
   id="svg1"
   inkscape:version="1.4.2 (ebf0e940d0, 2025-05-08)"
   sodipodi:docname="io.github.seadve.Mousai.svg"
   xmlns:inkscape="http://www.inkscape.org/namespaces/inkscape"
   xmlns:sodipodi="http://sodipodi.sourceforge.net/DTD/sodipodi-0.dtd"
   xmlns:xlink="http://www.w3.org/1999/xlink"
   xmlns="http://www.w3.org/2000/svg"
   xmlns:svg="http://www.w3.org/2000/svg">
  <sodipodi:namedview
     id="namedview1"
     pagecolor="#ffffff"
     bordercolor="#000000"
     borderopacity="0.25"
     inkscape:showpageshadow="2"
     inkscape:pageopacity="0.0"
     inkscape:pagecheckerboard="0"
     inkscape:deskcolor="#d1d1d1"
     inkscape:document-units="px"
     inkscape:zoom="24.875"
     inkscape:cx="15.979899"
     inkscape:cy="16"
     inkscape:window-width="1920"
     inkscape:window-height="1011"
     inkscape:window-x="0"
     inkscape:window-y="0"
     inkscape:window-maximized="1"
     inkscape:current-layer="svg1" />
  <defs
     id="defs1">
    <linearGradient
       inkscape:collect="always"
       xlink:href="#linearGradient1612"
       id="linearGradient4"
       x1="9.6488552"
       y1="15.099236"
       x2="30"
       y2="6.3155217"
       gradientUnits="userSpaceOnUse" />
    <linearGradient
       inkscape:collect="always"
       id="linearGradient1612">
      <stop
         style="stop-color:#6b97df;stop-opacity:1;"
         offset="0"
         id="stop1608" />
      <stop
         style="stop-color:#c25298;stop-opacity:1;"
         offset="1"
         id="stop1610" />
    </linearGradient>
    <linearGradient
       inkscape:collect="always"
       id="linearGradient7676">
      <stop
         style="stop-color:#6b97df;stop-opacity:0;"
         offset="0"
         id="stop7672" />
      <stop
         style="stop-color:#e5565c;stop-opacity:1;"
         offset="1"
         id="stop7674" />
    </linearGradient>
    <linearGradient
       inkscape:collect="always"
       xlink:href="#linearGradient7676"
       id="linearGradient5"
       x1="9.653944"
       y1="16"
       x2="30"
       y2="26.015266"
       gradientUnits="userSpaceOnUse" />
  </defs>
  <rect
     style="fill:#000000;stroke-width:1.75;opacity:0.2"
     id="rect1"
     width="28"
     height="28"
     x="2"
     y="3"
     ry="6" />
  <rect
     style="fill:url(#linearGradient4)"
     id="rect2"
     width="28"
     height="28"
     x="2"
     y="2"
     ry="6" />
  <rect
     style="fill:url(#linearGradient5);stroke-linecap:round"
     id="rect3"
     width="28"
     height="28"
     x="2"
     y="2"
     ry="6" />
  <path
     d="m 12,8 v 8.539063 C 11.39223,16.186883 10.702434,16.000962 10,16 c -2.209138,0 -4,1.790861 -4,4 0,2.209138 1.790862,4 4,4 2.20914,0 4,-1.790862 4,-4 V 9.9999998 h 8 V 16.539063 C 21.39223,16.186883 20.702434,16.000962 20,16 c -2.209138,0 -4,1.790861 -4,4 0,2.209138 1.790862,4 4,4 2.209138,0 4,-1.790862 4,-4 V 8 M 10,18 c 1.10457,0 2,0.895431 2,2 0,1.10457 -0.89543,2 -2,2 -1.10457,0 -2,-0.89543 -2,-2 0,-1.104569 0.89543,-2 2,-2 z m 10,0 c 1.10457,0 2,0.895431 2,2 0,1.10457 -0.89543,2 -2,2 -1.10457,0 -2,-0.89543 -2,-2 0,-1.104569 0.89543,-2 2,-2 z"
     style="fill:#ffffff;stroke-width:2"
     id="path463" />
</svg>
