<?xml version="1.0" encoding="UTF-8" standalone="no"?>
<!-- Created with Inkscape (http://www.inkscape.org/) -->

<svg
   width="32"
   height="32"
   viewBox="0 0 32 32.000002"
   version="1.1"
   id="svg1"
   inkscape:version="1.4 (e7c3feb100, 2024-10-09)"
   sodipodi:docname="kate.svg"
   xmlns:inkscape="http://www.inkscape.org/namespaces/inkscape"
   xmlns:sodipodi="http://sodipodi.sourceforge.net/DTD/sodipodi-0.dtd"
   xmlns:xlink="http://www.w3.org/1999/xlink"
   xmlns="http://www.w3.org/2000/svg"
   xmlns:svg="http://www.w3.org/2000/svg">
  <sodipodi:namedview
     id="namedview1"
     pagecolor="#ffffff"
     bordercolor="#000000"
     borderopacity="0.25"
     inkscape:showpageshadow="2"
     inkscape:pageopacity="0.0"
     inkscape:pagecheckerboard="0"
     inkscape:deskcolor="#d1d1d1"
     inkscape:document-units="px"
     inkscape:zoom="24.5625"
     inkscape:cx="16.020356"
     inkscape:cy="16"
     inkscape:window-width="1920"
     inkscape:window-height="1011"
     inkscape:window-x="0"
     inkscape:window-y="0"
     inkscape:window-maximized="1"
     inkscape:current-layer="svg1" />
  <defs
     id="defs1">
    <linearGradient
       inkscape:collect="always"
       xlink:href="#linearGradient25654"
       id="linearGradient4"
       x1="16"
       y1="30"
       x2="16"
       y2="2"
       gradientUnits="userSpaceOnUse" />
    <linearGradient
       inkscape:collect="always"
       id="linearGradient25654">
      <stop
         style="stop-color:#2a7fff;stop-opacity:1;"
         offset="0"
         id="stop25650" />
      <stop
         style="stop-color:#00ccff;stop-opacity:1;"
         offset="1"
         id="stop25652" />
    </linearGradient>
    <linearGradient
       inkscape:collect="always"
       xlink:href="#linearGradient25583"
       id="linearGradient25585"
       x1="15.023741"
       y1="11.6178"
       x2="43.465527"
       y2="39.510559"
       gradientUnits="userSpaceOnUse"
       gradientTransform="scale(0.66666665)" />
    <linearGradient
       inkscape:collect="always"
       id="linearGradient25583">
      <stop
         style="stop-color:#0055d4;stop-opacity:1;"
         offset="0"
         id="stop25579" />
      <stop
         style="stop-color:#0066ff;stop-opacity:0;"
         offset="1"
         id="stop25581" />
    </linearGradient>
    <linearGradient
       inkscape:collect="always"
       xlink:href="#linearGradient13862"
       id="linearGradient13864"
       x1="15.023741"
       y1="11.6178"
       x2="20.870384"
       y2="17.389194"
       gradientUnits="userSpaceOnUse"
       gradientTransform="matrix(0.67857161,0,0,0.67857161,0.214284,-0.10714473)" />
    <linearGradient
       inkscape:collect="always"
       id="linearGradient13862">
      <stop
         style="stop-color:#e6e6e6;stop-opacity:1;"
         offset="0"
         id="stop13858" />
      <stop
         style="stop-color:#b3b3b3;stop-opacity:1;"
         offset="1"
         id="stop13860" />
    </linearGradient>
    <linearGradient
       inkscape:collect="always"
       xlink:href="#linearGradient5110"
       id="linearGradient5112"
       x1="37.078941"
       y1="12.288808"
       x2="20.276628"
       y2="31.786217"
       gradientUnits="userSpaceOnUse"
       gradientTransform="matrix(0.67857161,0,0,0.67857161,0.214284,-0.10714473)" />
    <linearGradient
       inkscape:collect="always"
       id="linearGradient5110">
      <stop
         style="stop-color:#ffffff;stop-opacity:1;"
         offset="0"
         id="stop5106" />
      <stop
         style="stop-color:#b3b3b3;stop-opacity:1;"
         offset="1"
         id="stop5108" />
    </linearGradient>
    <linearGradient
       inkscape:collect="always"
       xlink:href="#linearGradient5110"
       id="linearGradient6572"
       x1="26.609182"
       y1="31.458633"
       x2="25.756056"
       y2="21.949287"
       gradientUnits="userSpaceOnUse"
       gradientTransform="matrix(0.67857161,0,0,0.67857161,0.214284,-0.10714473)" />
    <linearGradient
       inkscape:collect="always"
       xlink:href="#linearGradient5110"
       id="linearGradient12404"
       x1="17.576595"
       y1="12.781805"
       x2="28.050064"
       y2="10.215283"
       gradientUnits="userSpaceOnUse"
       gradientTransform="matrix(0.67857161,0,0,0.67857161,0.214284,-0.10714473)" />
    <linearGradient
       inkscape:collect="always"
       xlink:href="#linearGradient10942"
       id="linearGradient10944"
       x1="26.245859"
       y1="9.2360821"
       x2="23.220625"
       y2="16.559277"
       gradientUnits="userSpaceOnUse"
       gradientTransform="matrix(0.67857161,0,0,0.67857161,0.214284,-0.10714473)" />
    <linearGradient
       inkscape:collect="always"
       id="linearGradient10942">
      <stop
         style="stop-color:#cccccc;stop-opacity:1;"
         offset="0"
         id="stop10938" />
      <stop
         style="stop-color:#b3b3b3;stop-opacity:1;"
         offset="1"
         id="stop10940" />
    </linearGradient>
    <linearGradient
       inkscape:collect="always"
       xlink:href="#linearGradient9482"
       id="linearGradient9484"
       x1="13.481789"
       y1="26.418924"
       x2="37.078941"
       y2="14.640833"
       gradientUnits="userSpaceOnUse"
       gradientTransform="matrix(0.67857161,0,0,0.67857161,0.214284,-0.10714473)" />
    <linearGradient
       inkscape:collect="always"
       id="linearGradient9482">
      <stop
         style="stop-color:#e6e6e6;stop-opacity:1;"
         offset="0"
         id="stop9478" />
      <stop
         style="stop-color:#ffffff;stop-opacity:1;"
         offset="1"
         id="stop9480" />
    </linearGradient>
  </defs>
  <rect
     style="fill:#000000;stroke-width:1.75;opacity:0.2"
     id="rect1"
     width="28"
     height="28"
     x="2"
     y="3"
     ry="6" />
  <rect
     style="fill:url(#linearGradient4)"
     id="rect2"
     width="28"
     height="28"
     x="2"
     y="2"
     ry="6" />
  <path
     id="rect21218"
     style="fill:url(#linearGradient25585);fill-opacity:1;stroke-width:0.666665;stroke-linecap:round;stroke-linejoin:round"
     d="M 19.248047 6.8242188 L 14.5 6.9335938 L 14.304688 11.824219 L 9.2363281 16.230469 L 10.253906 19.203125 L 21.603516 30 L 24 30 C 27.324 30 30 27.324 30 24 L 30 17.15625 L 19.248047 6.8242188 z " />
  <path
     style="fill:url(#linearGradient13864);fill-opacity:1;stroke-width:0.761995"
     d="M 13.159245,11.935995 C 12.348366,9.244002 7.7659651,9.89723 7,9.838786 7.8597086,9.412029 8.631751,9.569862 10.404084,8.2859684 13.81836,5.8126444 16.213777,5.7797701 18.023979,6.7619888 13.07515,6.9501144 15.242223,9.708904 15.97114,11.129509 c -0.926969,0.269256 -2.390258,0.675716 -2.811895,0.806486 z"
     id="path10" />
  <path
     style="fill:url(#linearGradient5112);fill-opacity:1;stroke-width:0.761995"
     d="m 25.375,8.2316913 c -1.782078,2.3539047 -4.744966,5.5341927 -7.987675,5.9531187 -3.242712,0.418921 -6.638859,-0.04516 -7.354954,2.369851 -0.659456,2.224013 1.96467,4.300464 4.370256,3.800013 2.569918,-0.53464 2.014904,-3.447459 0.609261,-5.431014 1.067719,-0.06122 0.439483,0.311481 2.250101,0.220209 l 1.176062,3.667066 c 0.675105,1.694577 2.321324,5.540589 2.633886,8.524771 C 19.568871,25.175896 18.795788,24.382168 16.46639,22.824014 13.482585,20.82812 10.761297,20.760551 9.362644,17.819988 7.9670084,14.885776 10.119067,12.772151 13.424691,11.856804 18.148671,10.548703 22.219007,9.308505 25.375,8.2316913 Z"
     id="path12" />
  <path
     style="fill:url(#linearGradient6572);fill-opacity:1;stroke-width:0.761995"
     d="m 15.011889,14.92366 c 1.067719,-0.06122 0.869106,-0.04537 2.679722,-0.136642 C 20.390437,17.087476 21.284988,17.883442 26,21.23979 21.260781,20.900766 17.67496,19.362953 15.011889,14.92366 Z"
     id="path14" />
  <path
     style="fill:url(#linearGradient12404);fill-opacity:1;stroke-width:0.761995"
     d="M 7,9.838786 C 7.8597086,9.412029 8.636635,9.060258 10.408969,7.7763645 13.823245,5.303041 17.438061,5.8424392 19.248262,6.8246564 14.299435,7.0127829 14.937077,7.9988289 14.918813,8.7718291 11.630799,8.078759 10.67077,9.021747 7,9.838786 Z"
     id="path16" />
  <path
     style="fill:url(#linearGradient10944);fill-opacity:1;stroke-width:0.761995"
     d="M 19.248262,6.8246564 C 14.299435,7.0127829 15.242224,9.708905 15.97114,11.129509 15.393639,11.297255 15.148334,11.488354 14.376336,11.692668 11.261399,6.1423811 16.705923,5.4203224 19.248262,6.8246564 Z"
     id="path18" />
  <path
     style="fill:url(#linearGradient9484);fill-opacity:1;stroke-width:0.761995"
     d="M 10.253771,19.202689 C 7.8320854,16.084472 8.58397,13.226352 13.325979,11.741369 18.005558,10.275931 22.219007,9.308503 25.375,8.2316913 16.858145,11.476797 5.8886337,13.645163 10.253771,19.202689 Z"
     id="path20" />
</svg>
