<?xml version="1.0" encoding="UTF-8" standalone="no"?>
<!-- Created with Inkscape (http://www.inkscape.org/) -->

<svg
   width="32"
   height="32"
   viewBox="0 0 32 32.000002"
   version="1.1"
   id="svg1"
   inkscape:version="1.4.2 (ebf0e940d0, 2025-05-08)"
   sodipodi:docname="kmines.svg"
   xmlns:inkscape="http://www.inkscape.org/namespaces/inkscape"
   xmlns:sodipodi="http://sodipodi.sourceforge.net/DTD/sodipodi-0.dtd"
   xmlns:xlink="http://www.w3.org/1999/xlink"
   xmlns="http://www.w3.org/2000/svg"
   xmlns:svg="http://www.w3.org/2000/svg">
  <sodipodi:namedview
     id="namedview1"
     pagecolor="#ffffff"
     bordercolor="#000000"
     borderopacity="0.25"
     inkscape:showpageshadow="2"
     inkscape:pageopacity="0.0"
     inkscape:pagecheckerboard="0"
     inkscape:deskcolor="#d1d1d1"
     inkscape:document-units="px"
     inkscape:zoom="24.84375"
     inkscape:cx="16"
     inkscape:cy="16"
     inkscape:window-width="1920"
     inkscape:window-height="1010"
     inkscape:window-x="0"
     inkscape:window-y="0"
     inkscape:window-maximized="1"
     inkscape:current-layer="svg1" />
  <defs
     id="defs1">
    <linearGradient
       inkscape:collect="always"
       xlink:href="#linearGradient1144"
       id="linearGradient4"
       x1="16"
       y1="30"
       x2="16"
       y2="2"
       gradientUnits="userSpaceOnUse" />
    <linearGradient
       inkscape:collect="always"
       id="linearGradient1144">
      <stop
         style="stop-color:#adb2b9;stop-opacity:1;"
         offset="0"
         id="stop1140" />
      <stop
         style="stop-color:#e0e2e4;stop-opacity:1;"
         offset="1"
         id="stop1142" />
    </linearGradient>
    <linearGradient
       inkscape:collect="always"
       xlink:href="#linearGradient1283"
       id="linearGradient15762"
       x1="32"
       y1="52"
       x2="32"
       y2="12"
       gradientUnits="userSpaceOnUse"
       gradientTransform="matrix(0.5,0,0,0.5,2.045e-4,0)" />
    <linearGradient
       inkscape:collect="always"
       id="linearGradient1283">
      <stop
         style="stop-color:#3f3f3f;stop-opacity:1;"
         offset="0"
         id="stop1279" />
      <stop
         style="stop-color:#666666;stop-opacity:1;"
         offset="1"
         id="stop1281" />
    </linearGradient>
  </defs>
  <rect
     style="fill:#000000;stroke-width:1.75;opacity:0.2"
     id="rect1"
     width="28"
     height="28"
     x="2"
     y="3"
     ry="6" />
  <rect
     style="fill:url(#linearGradient4)"
     id="rect2"
     width="28"
     height="28"
     x="2"
     y="2"
     ry="6" />
  <path
     id="path2634"
     style="fill:url(#linearGradient15762);fill-opacity:1;stroke-width:2;stroke-linecap:round;stroke-linejoin:round"
     d="m 16.000204,6 c -0.553997,0 -1,0.4460026 -1,1 v 2 c 0,0.5539974 0.446003,1 1,1 0.553997,0 1,-0.4460026 1,-1 V 7 c 0,-0.5539974 -0.446003,-1 -1,-1 z m 2,2.2558594 V 9 c 0,1.107993 -0.892007,2 -2,2 -1.107993,0 -1.999999,-0.892007 -1.999999,-2 V 8.2695312 C 12.599396,8.6347515 11.322959,9.3732296 10.308799,10.40625 l 0.628906,0.361328 c 0.959549,0.553997 1.286418,1.772873 0.732422,2.732422 -0.553997,0.959549 -1.772873,1.286417 -2.732422,0.732422 L 8.299033,13.863281 C 8.103398,14.55876 8.002875,15.277535 8.000204,16 c 0.0027,0.722465 0.103194,1.44124 0.298829,2.136719 L 8.937705,17.767578 C 9.237563,17.594455 9.562718,17.508704 9.88497,17.5 c 0.708957,-0.01915 1.404284,0.34031 1.785157,1 0.553996,0.959549 0.227127,2.178424 -0.732422,2.732422 l -0.628906,0.361328 c 1.01416,1.03302 2.290597,1.771498 3.691406,2.136719 V 23 c 0,-1.107993 0.892006,-2 1.999999,-2 1.107993,0 2,0.892007 2,2 v 0.730469 C 19.401013,23.365248 20.67745,22.62677 21.69161,21.59375 L 21.062704,21.232422 C 20.103156,20.678424 19.776287,19.459549 20.330282,18.5 c 0.380874,-0.65969 1.076199,-1.01915 1.785157,-1 0.322251,0.0087 0.647407,0.09445 0.947265,0.267578 l 0.638672,0.369141 C 23.897011,17.44124 23.997535,16.722465 24.000204,16 c -9.03e-4,-0.722896 -0.09881,-1.442337 -0.292969,-2.138672 l -0.644531,0.371094 C 22.103156,14.786417 20.88428,14.459549 20.330282,13.5 19.776287,12.540451 20.103156,11.321575 21.062704,10.767578 l 0.644531,-0.371094 C 20.68883,9.3598123 19.40728,8.6191418 18.000204,8.2558594 Z M 8.136923,10.501953 C 7.8169546,10.524323 7.5131711,10.70014 7.3400483,11 7.0630485,11.479777 7.2255071,12.090189 7.7052826,12.367188 l 1.7324224,1 C 9.91748,13.644186 10.527893,13.479776 10.804893,13 11.08189,12.520224 10.917481,11.909812 10.437705,11.632812 l -1.732422,-1 C 8.525368,10.528939 8.328905,10.488533 8.136923,10.501953 Z m 15.583984,0 c -0.14523,0.01085 -0.292797,0.05295 -0.427734,0.130859 l -1.730469,1 c -0.479776,0.277 -0.644186,0.887412 -0.367187,1.367188 0.277,0.479776 0.887412,0.644186 1.367187,0.367188 l 1.730469,-1 C 24.772949,12.090189 24.937361,11.479777 24.66036,11 c -0.173123,-0.29986 -0.476904,-0.475679 -0.796875,-0.498047 -0.048,-0.0033 -0.09417,-0.0036 -0.142578,0 z M 16.000204,13 c 1.65685,0 3,1.34315 3,3 0,1.65685 -1.34315,3 -3,3 -1.65685,0 -2.999999,-1.34315 -2.999999,-3 0,-1.65685 1.343149,-3 2.999999,-3 z m 0,1 c -1.104567,0 -1.999999,0.895433 -1.999999,2 0,1.104567 0.895432,2 1.999999,2 1.104567,0 2,-0.895433 2,-2 0,-1.104567 -0.895433,-2 -2,-2 z m -6.136718,4.501953 c -0.14523,0.01085 -0.290845,0.05295 -0.425781,0.130859 l -1.7324224,1 C 7.2255071,19.909812 7.0630485,20.520224 7.3400483,21 7.617046,21.479776 8.225507,21.644186 8.705283,21.367188 l 1.732422,-1 c 0.479776,-0.277 0.644186,-0.887412 0.367188,-1.367188 -0.173125,-0.29986 -0.476907,-0.47568 -0.796876,-0.498047 -0.04799,-0.0033 -0.09612,-0.0036 -0.144531,0 z m 12.128906,0 C 21.672424,18.524323 21.368641,18.70014 21.195517,19 c -0.276998,0.479776 -0.112588,1.090188 0.367187,1.367188 l 1.730469,1 c 0.479776,0.276998 1.09019,0.112588 1.367187,-0.367188 0.277001,-0.479776 0.112589,-1.090188 -0.367187,-1.367188 l -1.730469,-1 C 22.382789,18.528939 22.184373,18.488533 21.992392,18.501953 Z M 16.000204,22 c -0.553997,0 -1,0.446004 -1,1 v 2 c 0,0.553997 0.446003,1 1,1 0.553997,0 1,-0.446003 1,-1 v -2 c 0,-0.553996 -0.446003,-1 -1,-1 z" />
</svg>
