<?xml version="1.0" encoding="UTF-8" standalone="no"?>
<!-- Created with Inkscape (http://www.inkscape.org/) -->

<svg
   width="32"
   height="32"
   viewBox="0 0 32 32.000002"
   version="1.1"
   id="svg1"
   inkscape:version="1.4.2 (ebf0e940d0, 2025-05-08)"
   sodipodi:docname="konqueror.svg"
   xmlns:inkscape="http://www.inkscape.org/namespaces/inkscape"
   xmlns:sodipodi="http://sodipodi.sourceforge.net/DTD/sodipodi-0.dtd"
   xmlns:xlink="http://www.w3.org/1999/xlink"
   xmlns="http://www.w3.org/2000/svg"
   xmlns:svg="http://www.w3.org/2000/svg">
  <sodipodi:namedview
     id="namedview1"
     pagecolor="#ffffff"
     bordercolor="#000000"
     borderopacity="0.25"
     inkscape:showpageshadow="2"
     inkscape:pageopacity="0.0"
     inkscape:pagecheckerboard="0"
     inkscape:deskcolor="#d1d1d1"
     inkscape:document-units="px"
     inkscape:zoom="24.875"
     inkscape:cx="15.979899"
     inkscape:cy="16"
     inkscape:window-width="1920"
     inkscape:window-height="1011"
     inkscape:window-x="0"
     inkscape:window-y="0"
     inkscape:window-maximized="1"
     inkscape:current-layer="svg1" />
  <defs
     id="defs1">
    <linearGradient
       inkscape:collect="always"
       xlink:href="#linearGradient1871"
       id="linearGradient4"
       x1="16"
       y1="30"
       x2="16"
       y2="2"
       gradientUnits="userSpaceOnUse" />
    <linearGradient
       inkscape:collect="always"
       id="linearGradient1871">
      <stop
         style="stop-color:#3daee9;stop-opacity:1;"
         offset="0"
         id="stop1867" />
      <stop
         style="stop-color:#76c6ee;stop-opacity:1;"
         offset="1"
         id="stop1869" />
    </linearGradient>
  </defs>
  <rect
     style="fill:#000000;stroke-width:1.75;opacity:0.2"
     id="rect1"
     width="28"
     height="28"
     x="2"
     y="3"
     ry="6" />
  <rect
     style="fill:url(#linearGradient4)"
     id="rect2"
     width="28"
     height="28"
     x="2"
     y="2"
     ry="6" />
  <circle
     style="fill:#3daee9;fill-opacity:1;stroke-width:0.727272;stroke-linecap:round"
     id="path1"
     cx="16"
     cy="16"
     r="8" />
  <path
     id="path3699"
     style="opacity:0.6;fill:#ffffff;stroke-linecap:round;stroke-linejoin:round"
     d="m 19.285996,5.455 c -0.379681,0.5541876 -1.406001,1.720691 -2.07193,2.3889552 L 16.918832,8.556714 c 0.655565,0.0813 1.311707,0.249474 1.951652,0.514548 0.639945,0.265074 1.222828,0.610115 1.743866,1.016185 l 0.295235,-0.712758 c 0.0017,-0.943417 0.100775,-2.4939773 0.22417,-3.1543221 z M 12.715071,5.45613 10.867509,6.2214151 C 10.990904,6.8817599 11.090004,8.431984 11.091656,9.3754 l 0.29491,0.711975 C 12.456029,9.254677 13.73666,8.724223 15.081688,8.556801 L 14.786779,7.8448262 C 14.120852,7.1765621 13.094752,6.0103142 12.715071,5.4561264 Z m 13.064233,5.411383 c -0.660344,0.123395 -2.210568,0.222495 -3.153984,0.224147 l -0.711975,0.29491 c 0.832694,1.069463 1.36315,2.350094 1.530571,3.695123 l 0.711974,-0.29491 c 0.668264,-0.665927 1.834511,-1.692028 2.3887,-2.071708 z M 9.3746889,11.091131 C 8.4312724,11.089431 6.880712,10.990356 6.2203669,10.866961 L 5.455,12.71472 c 0.554188,0.379681 1.7206912,1.406001 2.3889552,2.07193 l 0.7127586,0.295234 c 0.081295,-0.655565 0.2494739,-1.311706 0.514548,-1.951652 0.2650737,-0.639944 0.6101155,-1.222828 1.0161852,-1.743866 z m 14.0693141,5.827701 c -0.0813,0.655565 -0.249475,1.311707 -0.514549,1.951652 -0.265074,0.639945 -0.610115,1.222828 -1.016185,1.743866 l 0.712758,0.295235 c 0.943417,0.0017 2.493978,0.100775 3.154322,0.22417 l 0.765367,-1.847759 c -0.554186,-0.37968 -1.720691,-1.406001 -2.388955,-2.07193 z m -14.887202,1.96e-4 -0.7119748,0.294909 c -0.668264,0.665927 -1.8345119,1.692028 -2.3886996,2.071708 l 0.7652849,1.847562 c 0.6603453,-0.123396 2.210569,-0.222494 3.1539849,-0.224148 L 10.087371,20.614151 C 9.2546767,19.544687 8.7242217,18.264056 8.556801,16.919028 Z m 12.05735,4.994317 c -1.069464,0.832695 -2.350095,1.36315 -3.695124,1.530571 l 0.29491,0.711974 c 0.665927,0.668264 1.692028,1.834511 2.071708,2.3887 l 1.847562,-0.765286 C 21.009811,25.11896 20.910713,23.568736 20.909059,22.62532 Z m -9.227785,-7.6e-5 -0.295235,0.712758 c -0.0017,0.943417 -0.100775,2.493978 -0.22417,3.154322 l 1.847759,0.765367 c 0.379681,-0.554187 1.406001,-1.720691 2.07193,-2.388955 l 0.295234,-0.712758 c -0.655565,-0.0813 -1.311706,-0.249474 -1.951652,-0.514549 -0.639944,-0.265073 -1.222828,-0.610115 -1.743866,-1.016185 z" />
  <path
     id="path285"
     style="fill:#ffffff;stroke-width:1.8;stroke-linecap:round;stroke-linejoin:round"
     d="m 16.000358,7.0003583 c -4.970548,-1e-7 -8.9999997,4.0294517 -8.9999997,8.9999997 -1e-7,4.970548 4.0294517,9 8.9999997,9 4.970548,0 9,-4.029452 9,-9 0,-4.970548 -4.029452,-8.9999998 -9,-8.9999997 z m 0,1.9999997 a 7,7 0 0 1 7,7 7,7 0 0 1 -7,7 7,7 0 0 1 -6.9999997,-7 7,7 0 0 1 6.9999997,-7 z" />
  <path
     d="m 15.996903,9.000358 c -0.508308,0 -1.002616,0.056 -1.479154,0.157762 L 13.896903,10.400303 12.958901,9.6971 c -1.682153,0.808738 -2.9852307,2.26522 -3.5888467,4.054459 l 1.3768467,-0.550826 1.05,0.799625 0.35,-1.149611 4.55,-2.449906 -0.277308,-1.386484 c -0.14,-0.0081 -0.280537,-0.01344 -0.422692,-0.01344 m 5.183772,2.298602 -0.28377,0.851276 0.35,0.349986 -1.4,2.099921 0.700455,2.399656 2.320852,0.341005 c 0.08347,-0.433981 0.128688,-0.881426 0.128688,-1.340717 0,-1.198568 -0.299922,-2.323909 -0.826537,-3.308718 l -0.573458,-0.191146 0.208385,-0.41783 C 21.617904,11.805096 21.404674,11.547182 21.180674,11.2995 M 9.1358263,14.60068 c -0.077,0.38337 -0.121156,0.779663 -0.133546,1.183493 l 2.4446157,0.916427 -0.35,-1.049961 -0.7,-0.650281 z m 2.3110767,2.09992 1.75,4.199838 v 1.518403 c 0.857231,0.372602 1.80277,0.581517 2.8,0.581517 0.06947,0 0.137844,-0.0027 0.207307,-0.0049 l 2.242693,-3.9951 -5.6,-2.999733 z"
     style="fill:#97e286;fill-opacity:1;stroke-width:1.4"
     id="path677"
     sodipodi:nodetypes="cccccccccccccccccscccccccccccccscccc" />
</svg>
