<?xml version="1.0" encoding="UTF-8" standalone="no"?>
<!-- Created with Inkscape (http://www.inkscape.org/) -->

<svg
   width="32"
   height="32"
   viewBox="0 0 32 32.000002"
   version="1.1"
   id="svg1"
   inkscape:version="1.4.2 (ebf0e940d0, 2025-05-08)"
   sodipodi:docname="ktnef.svg"
   xmlns:inkscape="http://www.inkscape.org/namespaces/inkscape"
   xmlns:sodipodi="http://sodipodi.sourceforge.net/DTD/sodipodi-0.dtd"
   xmlns:xlink="http://www.w3.org/1999/xlink"
   xmlns="http://www.w3.org/2000/svg"
   xmlns:svg="http://www.w3.org/2000/svg">
  <sodipodi:namedview
     id="namedview1"
     pagecolor="#ffffff"
     bordercolor="#000000"
     borderopacity="0.25"
     inkscape:showpageshadow="2"
     inkscape:pageopacity="0.0"
     inkscape:pagecheckerboard="0"
     inkscape:deskcolor="#d1d1d1"
     inkscape:document-units="px"
     inkscape:zoom="24.5625"
     inkscape:cx="16.020356"
     inkscape:cy="15.979644"
     inkscape:window-width="1920"
     inkscape:window-height="1010"
     inkscape:window-x="0"
     inkscape:window-y="0"
     inkscape:window-maximized="1"
     inkscape:current-layer="svg1" />
  <defs
     id="defs1">
    <linearGradient
       inkscape:collect="always"
       xlink:href="#linearGradient3788"
       id="linearGradient4"
       x1="16"
       y1="30"
       x2="16"
       y2="2"
       gradientUnits="userSpaceOnUse" />
    <linearGradient
       inkscape:collect="always"
       id="linearGradient3788">
      <stop
         style="stop-color:#f98d00;stop-opacity:1;"
         offset="0"
         id="stop3784" />
      <stop
         style="stop-color:#ffcf41;stop-opacity:1;"
         offset="1"
         id="stop3786" />
    </linearGradient>
  </defs>
  <rect
     style="fill:#000000;stroke-width:1.75;opacity:0.2"
     id="rect1"
     width="28"
     height="28"
     x="2"
     y="3"
     ry="6" />
  <rect
     style="fill:url(#linearGradient4)"
     id="rect2"
     width="28"
     height="28"
     x="2"
     y="2"
     ry="6" />
  <path
     id="rect950"
     style="fill:#ffffff;stroke-width:1.06904;stroke-linecap:round"
     d="m 24.571068,8.136039 c -1.366835,-1.366835 -3.582913,-1.366835 -4.949748,0 l -9.424621,9.424621 c -0.97631,0.97631 -0.97631,2.559224 0,3.535534 0.97631,0.97631 2.559224,0.97631 3.535534,0 l 9.071068,-9.071068 -0.707107,-0.707106 -9.071068,9.071067 c -0.585786,0.585786 -1.535534,0.585786 -2.12132,0 -0.585786,-0.585786 -0.585786,-1.535534 0,-2.12132 l 9.424621,-9.424621 c 0.976311,-0.976311 2.559223,-0.976311 3.535534,0 0.976311,0.97631 0.976311,2.559223 0,3.535534 L 13.378679,22.863961 c -1.366835,1.366835 -3.582912,1.366835 -4.949747,0 -1.366835,-1.366835 -1.3668351,-3.582912 0,-4.949747 L 17.853553,8.489592 17.146446,7.782486 7.7218252,17.207107 c -1.757359,1.757359 -1.7573593,4.606602 0,6.363961 1.7573588,1.757359 4.6066018,1.757359 6.3639608,0 L 24.571068,13.085786 c 1.366835,-1.366835 1.366835,-3.582912 0,-4.949747 z"
     sodipodi:nodetypes="sssssccsssssssssccsssss" />
</svg>
