<?xml version="1.0" encoding="UTF-8" standalone="no"?>
<!-- Created with Inkscape (http://www.inkscape.org/) -->

<svg
   width="32"
   height="32"
   viewBox="0 0 32 32.000002"
   version="1.1"
   id="svg1"
   inkscape:version="1.4.2 (ebf0e940d0, 2025-05-08)"
   sodipodi:docname="libreoffice-base.svg"
   xmlns:inkscape="http://www.inkscape.org/namespaces/inkscape"
   xmlns:sodipodi="http://sodipodi.sourceforge.net/DTD/sodipodi-0.dtd"
   xmlns:xlink="http://www.w3.org/1999/xlink"
   xmlns="http://www.w3.org/2000/svg"
   xmlns:svg="http://www.w3.org/2000/svg">
  <sodipodi:namedview
     id="namedview1"
     pagecolor="#ffffff"
     bordercolor="#000000"
     borderopacity="0.25"
     inkscape:showpageshadow="2"
     inkscape:pageopacity="0.0"
     inkscape:pagecheckerboard="0"
     inkscape:deskcolor="#d1d1d1"
     inkscape:document-units="px"
     inkscape:zoom="24.84375"
     inkscape:cx="16"
     inkscape:cy="16"
     inkscape:window-width="1920"
     inkscape:window-height="1010"
     inkscape:window-x="0"
     inkscape:window-y="0"
     inkscape:window-maximized="1"
     inkscape:current-layer="svg1" />
  <defs
     id="defs1">
    <linearGradient
       inkscape:collect="always"
       xlink:href="#linearGradient1370"
       id="linearGradient4"
       x1="16"
       y1="30"
       x2="16"
       y2="2"
       gradientUnits="userSpaceOnUse" />
    <linearGradient
       inkscape:collect="always"
       id="linearGradient1370">
      <stop
         style="stop-color:#8a0ac2;stop-opacity:1;"
         offset="0"
         id="stop1366" />
      <stop
         style="stop-color:#d378e5;stop-opacity:1;"
         offset="1"
         id="stop1368" />
    </linearGradient>
  </defs>
  <rect
     style="fill:#000000;stroke-width:1.75;opacity:0.2"
     id="rect1"
     width="28"
     height="28"
     x="2"
     y="3"
     ry="6" />
  <rect
     style="fill:url(#linearGradient4)"
     id="rect2"
     width="28"
     height="28"
     x="2"
     y="2"
     ry="6" />
  <path
     id="path525"
     style="fill:#e88ff7;fill-opacity:1;stroke-width:0.968246;stroke-linecap:round;stroke-linejoin:round"
     d="m 12,10 c -2.0710617,0 -4,0.403914 -4,1 v 2 c 0,0.596086 1.9289383,1 4,1 2.071064,0 4,-0.403914 4,-1 v -2 c 0,-0.596086 -1.928936,-1 -4,-1 z m -4,4 v 2 c 0,0.596085 1.92894,1 4,1 2.071062,0 4,-0.403915 4,-1 v -2 c 0,0.596085 -1.928938,1 -4,1 -2.07106,0 -4,-0.403915 -4,-1 z m 0,3 v 2 c 0,0.596085 1.92894,1 4,1 2.071062,0 4,-0.403915 4,-1 v -2 c 0,0.596085 -1.928938,1 -4,1 -2.07106,0 -4,-0.403915 -4,-1 z m 0,3 v 2 c 0,0.596085 1.92894,1 4,1 2.071062,0 4,-0.403915 4,-1 v -2 c 0,0.596085 -1.928938,1 -4,1 -2.07106,0 -4,-0.403915 -4,-1 z"
     sodipodi:nodetypes="ssssssscssscsccssscsccssscsc" />
  <path
     id="rect523"
     style="fill:#ffffff;stroke-width:0.5"
     d="m 18,12 c -0.554,0 -1,0.446 -1,1 v 8 c 0,0.554 0.446,1 1,1 h 5 c 0.554,0 1,-0.446 1,-1 v -8 c 0,-0.554 -0.446,-1 -1,-1 z m 0,1 h 2 v 2 h -2 z m 3,0 h 2 v 2 h -2 z m -3,3 h 2 v 2 h -2 z m 3,0 h 2 v 2 h -2 z m -3,3 h 2 v 2 h -2 z m 3,0 h 2 v 2 h -2 z"
     sodipodi:nodetypes="ssssssssscccccccccccccccccccccccccccccc" />
</svg>
