<?xml version="1.0" encoding="UTF-8" standalone="no"?>
<!-- Created with Inkscape (http://www.inkscape.org/) -->

<svg
   width="32"
   height="32"
   viewBox="0 0 32 32.000002"
   version="1.1"
   id="svg1"
   inkscape:version="1.4 (e7c3feb100, 2024-10-09)"
   sodipodi:docname="libreoffice-writer.svg"
   xmlns:inkscape="http://www.inkscape.org/namespaces/inkscape"
   xmlns:sodipodi="http://sodipodi.sourceforge.net/DTD/sodipodi-0.dtd"
   xmlns:xlink="http://www.w3.org/1999/xlink"
   xmlns="http://www.w3.org/2000/svg"
   xmlns:svg="http://www.w3.org/2000/svg">
  <sodipodi:namedview
     id="namedview1"
     pagecolor="#ffffff"
     bordercolor="#000000"
     borderopacity="0.25"
     inkscape:showpageshadow="2"
     inkscape:pageopacity="0.0"
     inkscape:pagecheckerboard="0"
     inkscape:deskcolor="#d1d1d1"
     inkscape:document-units="px"
     inkscape:zoom="24.5625"
     inkscape:cx="16.020356"
     inkscape:cy="16"
     inkscape:window-width="1920"
     inkscape:window-height="1011"
     inkscape:window-x="0"
     inkscape:window-y="0"
     inkscape:window-maximized="1"
     inkscape:current-layer="svg1" />
  <defs
     id="defs1">
    <linearGradient
       inkscape:collect="always"
       xlink:href="#linearGradient976"
       id="linearGradient4"
       x1="16"
       y1="30"
       x2="16"
       y2="2"
       gradientUnits="userSpaceOnUse" />
    <linearGradient
       inkscape:collect="always"
       id="linearGradient976">
      <stop
         style="stop-color:#086bc8;stop-opacity:1;"
         offset="0"
         id="stop972" />
      <stop
         style="stop-color:#1ca3fa;stop-opacity:1;"
         offset="1"
         id="stop974" />
    </linearGradient>
  </defs>
  <rect
     style="fill:#000000;stroke-width:1.75;opacity:0.2"
     id="rect1"
     width="28"
     height="28"
     x="2"
     y="3"
     ry="6" />
  <rect
     style="fill:url(#linearGradient4)"
     id="rect2"
     width="28"
     height="28"
     x="2"
     y="2"
     ry="6" />
  <path
     id="rect4373"
     style="fill:#ffffff"
     d="M 8.5,10 C 8.2230006,10 8,10.223 8,10.5 8,10.777 8.2230006,11 8.5,11 h 6 C 14.777,11 15,10.777 15,10.5 15,10.223 14.777,10 14.5,10 Z m 0,2 C 8.2230006,12 8,12.223 8,12.5 8,12.777 8.2230006,13 8.5,13 h 6 C 14.777,13 15,12.777 15,12.5 15,12.223 14.777,12 14.5,12 Z m 0,2 C 8.2230006,14 8,14.223 8,14.5 8,14.777 8.2230006,15 8.5,15 h 6 C 14.777,15 15,14.777 15,14.5 15,14.223 14.777,14 14.5,14 Z m 0,3 C 8.2230006,17 8,17.223 8,17.5 8,17.777 8.2230006,18 8.5,18 h 15 C 23.777,18 24,17.777 24,17.5 24,17.223 23.777,17 23.5,17 Z m 0,2 C 8.2230006,19 8,19.223 8,19.5 8,19.777 8.2230006,20 8.5,20 h 15 C 23.777,20 24,19.777 24,19.5 24,19.223 23.777,19 23.5,19 Z m 0,2 C 8.2230006,21 8,21.223 8,21.5 8,21.777 8.2230006,22 8.5,22 h 6 C 14.777,22 15,21.777 15,21.5 15,21.223 14.777,21 14.5,21 Z" />
  <path
     id="rect4649"
     style="fill:#7ad2f9;fill-opacity:1"
     d="m 18,10 c -0.553999,0 -1,0.446001 -1,1 v 3 c 0,0.553999 0.446001,1 1,1 h 5 c 0.553999,0 1,-0.446001 1,-1 v -3 c 0,-0.553999 -0.446001,-1 -1,-1 z m 1,1 3,3 h -4 z m 3.5,0 C 22.776142,11 23,11.223858 23,11.5 23,11.776142 22.776142,12 22.5,12 22.223858,12 22,11.776142 22,11.5 22,11.223858 22.223858,11 22.5,11 Z" />
</svg>
