<?xml version="1.0" encoding="UTF-8" standalone="no"?>
<!-- Created with Inkscape (http://www.inkscape.org/) -->

<svg
   width="32"
   height="32"
   viewBox="0 0 32 32.000002"
   version="1.1"
   id="svg1"
   inkscape:version="1.4 (e7c3feb100, 2024-10-09)"
   sodipodi:docname="minecraft.svg"
   xmlns:inkscape="http://www.inkscape.org/namespaces/inkscape"
   xmlns:sodipodi="http://sodipodi.sourceforge.net/DTD/sodipodi-0.dtd"
   xmlns:xlink="http://www.w3.org/1999/xlink"
   xmlns="http://www.w3.org/2000/svg"
   xmlns:svg="http://www.w3.org/2000/svg">
  <sodipodi:namedview
     id="namedview1"
     pagecolor="#ffffff"
     bordercolor="#000000"
     borderopacity="0.25"
     inkscape:showpageshadow="2"
     inkscape:pageopacity="0.0"
     inkscape:pagecheckerboard="0"
     inkscape:deskcolor="#d1d1d1"
     inkscape:document-units="px"
     inkscape:zoom="24.5625"
     inkscape:cx="16.020356"
     inkscape:cy="16"
     inkscape:window-width="1920"
     inkscape:window-height="1011"
     inkscape:window-x="0"
     inkscape:window-y="0"
     inkscape:window-maximized="1"
     inkscape:current-layer="svg1" />
  <defs
     id="defs1">
    <linearGradient
       inkscape:collect="always"
       xlink:href="#linearGradient1149"
       id="linearGradient4"
       x1="16"
       y1="30"
       x2="16"
       y2="2"
       gradientUnits="userSpaceOnUse" />
    <linearGradient
       inkscape:collect="always"
       id="linearGradient1149">
      <stop
         style="stop-color:#6ab12d;stop-opacity:1;"
         offset="0"
         id="stop1145" />
      <stop
         style="stop-color:#8dd27a;stop-opacity:1;"
         offset="1"
         id="stop1147" />
    </linearGradient>
  </defs>
  <rect
     style="fill:#000000;stroke-width:1.75;opacity:0.2"
     id="rect1"
     width="28"
     height="28"
     x="2"
     y="3"
     ry="6" />
  <rect
     style="fill:url(#linearGradient4)"
     id="rect2"
     width="28"
     height="28"
     x="2"
     y="2"
     ry="6" />
  <path
     d="m 7,8 v 6 h 6 V 8 Z m 6,6 v 4 h -3 v 8 h 3 v -3 h 6 v 3 h 3 v -8 h -3 v -4 z m 6,0 h 6 V 8 h -6 z"
     style="opacity:0.2;fill:#ffffff"
     id="path536"
     sodipodi:nodetypes="ccccccccccccccccccccccc" />
  <path
     id="rect311"
     style="fill:#000000"
     d="m 7,7 v 6 h 6 V 7 Z m 6,7 v 3 h -3 v 8 h 3 v -3 h 6 v 3 h 3 v -8 h -3 v -3 z m 6,-1 h 6 V 7 h -6 z"
     sodipodi:nodetypes="ccccccccccccccccccccccc" />
  <path
     id="path564"
     style="opacity:0.3;fill:#000000"
     d="m 7,6 v 1 h 6 V 6 Z m 12,0 v 1 h 6 V 6 Z m -6,7 v 1 h 6 v -1 z m -3,3 v 1 h 3 v -1 z m 9,0 v 1 h 3 v -1 z"
     sodipodi:nodetypes="ccccccccccccccccccccccccc" />
</svg>
