<?xml version="1.0" encoding="UTF-8" standalone="no"?>
<!-- Created with Inkscape (http://www.inkscape.org/) -->

<svg
   width="32"
   height="32"
   viewBox="0 0 32 32.000002"
   version="1.1"
   id="svg1"
   inkscape:version="1.4.2 (ebf0e940d0, 2025-05-08)"
   sodipodi:docname="mintinstall.svg"
   xmlns:inkscape="http://www.inkscape.org/namespaces/inkscape"
   xmlns:sodipodi="http://sodipodi.sourceforge.net/DTD/sodipodi-0.dtd"
   xmlns:xlink="http://www.w3.org/1999/xlink"
   xmlns="http://www.w3.org/2000/svg"
   xmlns:svg="http://www.w3.org/2000/svg">
  <sodipodi:namedview
     id="namedview1"
     pagecolor="#ffffff"
     bordercolor="#000000"
     borderopacity="0.25"
     inkscape:showpageshadow="2"
     inkscape:pageopacity="0.0"
     inkscape:pagecheckerboard="0"
     inkscape:deskcolor="#d1d1d1"
     inkscape:document-units="px"
     inkscape:zoom="24.5625"
     inkscape:cx="16.020356"
     inkscape:cy="16"
     inkscape:window-width="1920"
     inkscape:window-height="1011"
     inkscape:window-x="0"
     inkscape:window-y="0"
     inkscape:window-maximized="1"
     inkscape:current-layer="svg1" />
  <defs
     id="defs1">
    <linearGradient
       inkscape:collect="always"
       xlink:href="#linearGradient2030"
       id="linearGradient4"
       x1="16"
       y1="30"
       x2="16"
       y2="2"
       gradientUnits="userSpaceOnUse" />
    <linearGradient
       inkscape:collect="always"
       id="linearGradient2030">
      <stop
         style="stop-color:#4c7523;stop-opacity:1;"
         offset="0"
         id="stop2026" />
      <stop
         style="stop-color:#87cf3e;stop-opacity:1;"
         offset="1"
         id="stop2028" />
    </linearGradient>
  </defs>
  <rect
     style="fill:#000000;stroke-width:1.75;opacity:0.2"
     id="rect1"
     width="28"
     height="28"
     x="2"
     y="3"
     ry="6" />
  <rect
     style="fill:url(#linearGradient4)"
     id="rect2"
     width="28"
     height="28"
     x="2"
     y="2"
     ry="6" />
  <path
     id="rect4212"
     style="fill:#ffffff;stroke-width:2.39046;stroke-linecap:round;stroke-linejoin:round"
     d="m 9,12 v 10 c 0,2.215994 1.784006,4 4,4 h 6 c 2.215994,0 4,-1.784006 4,-4 v -4 c 0,-1.656852 -1.343148,-3 -3,-3 -0.768198,0 -1.469283,0.288804 -2,0.763672 C 17.469283,15.288804 16.768198,15 16,15 c -1.656852,0 -3,1.343148 -3,3 v 4 h 2 v -4 c 0,-0.552283 0.447717,-1 1,-1 0.552283,0 1,0.447717 1,1 v 4 h 2 v -4 c 0,-0.552283 0.447717,-1 1,-1 0.552283,0 1,0.447717 1,1 v 4 c 0,1.107997 -0.892003,2 -2,2 h -6 c -1.107997,0 -2,-0.892003 -2,-2 V 12 Z" />
  <path
     style="color:#000000;fill:#ececec;stroke:none;stroke-linecap:round;stroke-linejoin:round;-inkscape-stroke:none"
     d="M 16,10 C 13.244501,10 11,7.7554987 11,5 A 0.5,0.5 0 0 1 11.5,4.5 0.5,0.5 0 0 1 12,5 c 0,2.2150591 1.784941,4 4,4 2.215059,0 4,-1.7849409 4,-4 A 0.5,0.5 0 0 1 20.5,4.5 0.5,0.5 0 0 1 21,5 c 0,2.7554987 -2.244501,5 -5,5 z"
     id="path6892" />
</svg>
