<?xml version="1.0" encoding="UTF-8" standalone="no"?>
<!-- Created with Inkscape (http://www.inkscape.org/) -->

<svg
   width="32"
   height="32"
   viewBox="0 0 32 32.000002"
   version="1.1"
   id="svg1"
   inkscape:version="1.4.2 (ebf0e940d0, 2025-05-08)"
   sodipodi:docname="office-address-book.svg"
   xmlns:inkscape="http://www.inkscape.org/namespaces/inkscape"
   xmlns:sodipodi="http://sodipodi.sourceforge.net/DTD/sodipodi-0.dtd"
   xmlns:xlink="http://www.w3.org/1999/xlink"
   xmlns="http://www.w3.org/2000/svg"
   xmlns:svg="http://www.w3.org/2000/svg">
  <sodipodi:namedview
     id="namedview1"
     pagecolor="#ffffff"
     bordercolor="#000000"
     borderopacity="0.25"
     inkscape:showpageshadow="2"
     inkscape:pageopacity="0.0"
     inkscape:pagecheckerboard="0"
     inkscape:deskcolor="#d1d1d1"
     inkscape:document-units="px"
     inkscape:zoom="24.84375"
     inkscape:cx="16"
     inkscape:cy="16"
     inkscape:window-width="1920"
     inkscape:window-height="1010"
     inkscape:window-x="0"
     inkscape:window-y="0"
     inkscape:window-maximized="1"
     inkscape:current-layer="svg1" />
  <defs
     id="defs1">
    <linearGradient
       inkscape:collect="always"
       xlink:href="#linearGradient3"
       id="linearGradient4"
       x1="16"
       y1="30"
       x2="16"
       y2="2"
       gradientUnits="userSpaceOnUse" />
    <linearGradient
       inkscape:collect="always"
       id="linearGradient3">
      <stop
         style="stop-color:#cc883b;stop-opacity:1;"
         offset="0"
         id="stop1" />
      <stop
         style="stop-color:#e8c69e;stop-opacity:1;"
         offset="1"
         id="stop2" />
    </linearGradient>
  </defs>
  <rect
     style="fill:#000000;stroke-width:1.75;opacity:0.2"
     id="rect1"
     width="28"
     height="28"
     x="2"
     y="3"
     ry="6" />
  <rect
     style="fill:url(#linearGradient4)"
     id="rect2"
     width="28"
     height="28"
     x="2"
     y="2"
     ry="6" />
  <path
     id="rect396"
     style="opacity:0.6;fill:#ffffff;stroke-width:1.82574"
     d="M 18.5 15 C 12.27126 18.880238 11 19.822826 11 22 L 11 23 C 11 24.107992 11.892008 25 13 25 L 24 25 C 25.107992 25 26 24.107992 26 23 L 26 22 C 26 19.822826 24.72874 18.880238 18.5 15 z " />
  <path
     id="path234"
     style="fill:#ffffff;stroke-width:1.24373"
     d="M 18.5,7 C 16.014719,7 14,8.4624337 14,11.5 14,14.537567 16.014719,18 18.5,18 20.985281,18 23,14.537567 23,11.5 23,8.4624337 20.985281,7 18.5,7 Z" />
  <path
     id="rect3"
     style="opacity:0.3;fill:#000000"
     d="M 8 2 C 4.676 2 2 4.676 2 8 L 2 24 C 2 27.324 4.676 30 8 30 L 8 2 z " />
</svg>
