<?xml version="1.0" encoding="UTF-8" standalone="no"?>
<!-- Created with Inkscape (http://www.inkscape.org/) -->

<svg
   width="32"
   height="32"
   viewBox="0 0 32 32.000002"
   version="1.1"
   id="svg1"
   inkscape:version="1.4.2 (ebf0e940d0, 2025-05-08)"
   sodipodi:docname="plasma.svg"
   xmlns:inkscape="http://www.inkscape.org/namespaces/inkscape"
   xmlns:sodipodi="http://sodipodi.sourceforge.net/DTD/sodipodi-0.dtd"
   xmlns:xlink="http://www.w3.org/1999/xlink"
   xmlns="http://www.w3.org/2000/svg"
   xmlns:svg="http://www.w3.org/2000/svg">
  <sodipodi:namedview
     id="namedview1"
     pagecolor="#ffffff"
     bordercolor="#000000"
     borderopacity="0.25"
     inkscape:showpageshadow="2"
     inkscape:pageopacity="0.0"
     inkscape:pagecheckerboard="0"
     inkscape:deskcolor="#d1d1d1"
     inkscape:document-units="px"
     inkscape:zoom="24.5625"
     inkscape:cx="16.020356"
     inkscape:cy="15.979644"
     inkscape:window-width="1920"
     inkscape:window-height="1010"
     inkscape:window-x="0"
     inkscape:window-y="0"
     inkscape:window-maximized="1"
     inkscape:current-layer="svg1" />
  <defs
     id="defs1">
    <linearGradient
       inkscape:collect="always"
       xlink:href="#linearGradient3201"
       id="linearGradient4"
       x1="16"
       y1="30"
       x2="16"
       y2="2"
       gradientUnits="userSpaceOnUse" />
    <linearGradient
       inkscape:collect="always"
       id="linearGradient3201">
      <stop
         style="stop-color:#3daee9;stop-opacity:1;"
         offset="0"
         id="stop3197" />
      <stop
         style="stop-color:#5fd3ff;stop-opacity:1;"
         offset="1"
         id="stop3199" />
    </linearGradient>
  </defs>
  <rect
     style="fill:#000000;stroke-width:1.75;opacity:0.2"
     id="rect1"
     width="28"
     height="28"
     x="2"
     y="3"
     ry="6" />
  <rect
     style="fill:url(#linearGradient4)"
     id="rect2"
     width="28"
     height="28"
     x="2"
     y="2"
     ry="6" />
  <path
     id="path360"
     style="fill:#ffffff;stroke-width:1"
     d="M 11,6 C 10.169001,6 9.5,6.669001 9.5,7.5 9.5,8.330999 10.169001,9 11,9 11.830999,9 12.5,8.330999 12.5,7.5 12.5,6.669001 11.830999,6 11,6 Z M 18.857422,6 16,8.799805 20.286133,13 16,17.200195 18.857422,20 26,13 Z M 7.75,14 C 6.780508,14 6,14.780494 6,15.75 6,16.719492 6.780508,17.5 7.75,17.5 8.719506,17.5 9.5,16.719492 9.5,15.75 9.5,14.780494 8.719506,14 7.75,14 Z m 5.75,7 C 12.115002,21 11,22.115001 11,23.5 11,24.884999 12.115002,26 13.5,26 14.884999,26 16,24.884999 16,23.5 16,22.115001 14.884999,21 13.5,21 Z" />
</svg>
