<?xml version="1.0" encoding="UTF-8" standalone="no"?>
<!-- Created with Inkscape (http://www.inkscape.org/) -->

<svg
   width="32"
   height="32"
   viewBox="0 0 32 32.000002"
   version="1.1"
   id="svg1"
   inkscape:version="1.4.2 (ebf0e940d0, 2025-05-08)"
   sodipodi:docname="preferences-system-login.svg"
   xmlns:inkscape="http://www.inkscape.org/namespaces/inkscape"
   xmlns:sodipodi="http://sodipodi.sourceforge.net/DTD/sodipodi-0.dtd"
   xmlns:xlink="http://www.w3.org/1999/xlink"
   xmlns="http://www.w3.org/2000/svg"
   xmlns:svg="http://www.w3.org/2000/svg">
  <sodipodi:namedview
     id="namedview1"
     pagecolor="#ffffff"
     bordercolor="#000000"
     borderopacity="0.25"
     inkscape:showpageshadow="2"
     inkscape:pageopacity="0.0"
     inkscape:pagecheckerboard="0"
     inkscape:deskcolor="#d1d1d1"
     inkscape:document-units="px"
     inkscape:zoom="24.5625"
     inkscape:cx="16.020356"
     inkscape:cy="16"
     inkscape:window-width="1920"
     inkscape:window-height="1011"
     inkscape:window-x="0"
     inkscape:window-y="0"
     inkscape:window-maximized="1"
     inkscape:current-layer="svg1" />
  <defs
     id="defs1">
    <linearGradient
       inkscape:collect="always"
       xlink:href="#linearGradient3147"
       id="linearGradient4"
       x1="16"
       y1="30"
       x2="16"
       y2="2"
       gradientUnits="userSpaceOnUse" />
    <linearGradient
       inkscape:collect="always"
       id="linearGradient3147">
      <stop
         style="stop-color:#0091f9;stop-opacity:1;"
         offset="0"
         id="stop3143" />
      <stop
         style="stop-color:#41bbff;stop-opacity:1;"
         offset="1"
         id="stop3145" />
    </linearGradient>
  </defs>
  <rect
     style="fill:#000000;stroke-width:1.75;opacity:0.2"
     id="rect1"
     width="28"
     height="28"
     x="2"
     y="3"
     ry="6" />
  <rect
     style="fill:url(#linearGradient4)"
     id="rect2"
     width="28"
     height="28"
     x="2"
     y="2"
     ry="6" />
  <rect
     style="opacity:0.6;fill:#ffffff;fill-opacity:1;stroke-width:4;stroke-linecap:round;stroke-linejoin:round"
     id="rect4572"
     width="22"
     height="16"
     x="5"
     y="8"
     ry="2" />
  <rect
     style="fill:#ffffff;stroke-width:3.87298;stroke-linecap:round;stroke-linejoin:round"
     id="rect2768"
     width="18"
     height="5"
     x="7"
     y="15"
     ry="1" />
  <rect
     style="fill:#ffffff;stroke-width:3.16228;stroke-linecap:round;stroke-linejoin:round"
     id="rect2770"
     width="10"
     height="1"
     x="7"
     y="11" />
  <path
     id="path3639"
     style="fill:#4d4d4d;fill-opacity:1;stroke-width:1.5;stroke-linecap:round;stroke-linejoin:round"
     d="M 9.5,16 A 1.5,1.5 0 0 0 8,17.5 1.5,1.5 0 0 0 9.5,19 1.5,1.5 0 0 0 11,17.5 1.5,1.5 0 0 0 9.5,16 Z m 5,0 A 1.5,1.5 0 0 0 13,17.5 1.5,1.5 0 0 0 14.5,19 1.5,1.5 0 0 0 16,17.5 1.5,1.5 0 0 0 14.5,16 Z m 5,0 A 1.5,1.5 0 0 0 18,17.5 1.5,1.5 0 0 0 19.5,19 1.5,1.5 0 0 0 21,17.5 1.5,1.5 0 0 0 19.5,16 Z" />
</svg>
