<?xml version="1.0" encoding="UTF-8" standalone="no"?>
<!-- Created with Inkscape (http://www.inkscape.org/) -->

<svg
   width="32"
   height="32"
   viewBox="0 0 32 32.000002"
   version="1.1"
   id="svg1"
   inkscape:version="1.4.2 (ebf0e940d0, 2025-05-08)"
   sodipodi:docname="preferences-desktop-emoticons.svg"
   xmlns:inkscape="http://www.inkscape.org/namespaces/inkscape"
   xmlns:sodipodi="http://sodipodi.sourceforge.net/DTD/sodipodi-0.dtd"
   xmlns:xlink="http://www.w3.org/1999/xlink"
   xmlns="http://www.w3.org/2000/svg"
   xmlns:svg="http://www.w3.org/2000/svg">
  <sodipodi:namedview
     id="namedview1"
     pagecolor="#ffffff"
     bordercolor="#000000"
     borderopacity="0.25"
     inkscape:showpageshadow="2"
     inkscape:pageopacity="0.0"
     inkscape:pagecheckerboard="0"
     inkscape:deskcolor="#d1d1d1"
     inkscape:document-units="px"
     inkscape:zoom="24.5625"
     inkscape:cx="15.979644"
     inkscape:cy="16"
     inkscape:window-width="1920"
     inkscape:window-height="1011"
     inkscape:window-x="0"
     inkscape:window-y="0"
     inkscape:window-maximized="1"
     inkscape:current-layer="svg1" />
  <defs
     id="defs1">
    <linearGradient
       inkscape:collect="always"
       id="linearGradient2083">
      <stop
         style="stop-color:#ffde75;stop-opacity:1;"
         offset="0"
         id="stop2079" />
      <stop
         style="stop-color:#ffecab;stop-opacity:1;"
         offset="1"
         id="stop2081" />
    </linearGradient>
    <linearGradient
       inkscape:collect="always"
       xlink:href="#linearGradient2083"
       id="linearGradient3"
       x1="32"
       y1="60"
       x2="32"
       y2="5"
       gradientUnits="userSpaceOnUse"
       gradientTransform="scale(0.5)" />
    <linearGradient
       inkscape:collect="always"
       xlink:href="#linearGradient1606"
       id="linearGradient4"
       x1="16"
       y1="30"
       x2="16"
       y2="2"
       gradientUnits="userSpaceOnUse" />
    <linearGradient
       inkscape:collect="always"
       id="linearGradient1606">
      <stop
         style="stop-color:#eaebed;stop-opacity:1;"
         offset="0"
         id="stop1602" />
      <stop
         style="stop-color:#f9fafa;stop-opacity:1;"
         offset="1"
         id="stop1604" />
    </linearGradient>
  </defs>
  <rect
     style="opacity:0.2;fill:#000000;stroke-width:1.75"
     id="rect1"
     width="28"
     height="28"
     x="2"
     y="3"
     ry="6" />
  <rect
     style="fill:url(#linearGradient4);stroke-width:0.999997"
     id="rect2"
     width="28"
     height="28"
     x="2"
     y="2"
     ry="6" />
  <circle
     style="opacity:1;fill:url(#linearGradient3);stroke-width:0.5"
     id="path2"
     cx="16"
     cy="16"
     r="10" />
  <path
     d="m 11.5,11 c -0.828411,-5.5e-5 -1.5,0.671534 -1.5,1.5 0,0.828466 0.671589,1.500055 1.5,1.5 0.828411,5.5e-5 1.5,-0.671534 1.5,-1.5 0,-0.828466 -0.671589,-1.500055 -1.5,-1.5 z m 9,0 c -0.828411,-5.5e-5 -1.5,0.671534 -1.5,1.5 0,0.828466 0.671589,1.500055 1.5,1.5 0.828411,5.5e-5 1.5,-0.671534 1.5,-1.5 0,-0.828466 -0.671589,-1.500055 -1.5,-1.5 z M 12,19 c 0.82558,1.854986 2.35084,2.99836 4.002,3 1.64973,-0.0035 3.173136,-1.146617 3.998,-3 h -0.56055 c -0.875132,1.269264 -2.124801,1.996344 -3.4375,2 -1.312699,-0.0037 -2.562368,-0.730736 -3.4375,-2 z"
     style="fill:#8c6d31;fill-opacity:1"
     id="path302"
     sodipodi:nodetypes="cscsccscscccccccc" />
</svg>
