<?xml version="1.0" encoding="UTF-8" standalone="no"?>
<!-- Created with Inkscape (http://www.inkscape.org/) -->

<svg
   width="32"
   height="32"
   viewBox="0 0 32 32.000002"
   version="1.1"
   id="svg1"
   inkscape:version="1.4.2 (ebf0e940d0, 2025-05-08)"
   sodipodi:docname="preferences-desktop-notification-bell.svg"
   xmlns:inkscape="http://www.inkscape.org/namespaces/inkscape"
   xmlns:sodipodi="http://sodipodi.sourceforge.net/DTD/sodipodi-0.dtd"
   xmlns:xlink="http://www.w3.org/1999/xlink"
   xmlns="http://www.w3.org/2000/svg"
   xmlns:svg="http://www.w3.org/2000/svg">
  <sodipodi:namedview
     id="namedview1"
     pagecolor="#ffffff"
     bordercolor="#000000"
     borderopacity="0.25"
     inkscape:showpageshadow="2"
     inkscape:pageopacity="0.0"
     inkscape:pagecheckerboard="0"
     inkscape:deskcolor="#d1d1d1"
     inkscape:document-units="px"
     inkscape:zoom="24.5625"
     inkscape:cx="15.979644"
     inkscape:cy="16"
     inkscape:window-width="1920"
     inkscape:window-height="1011"
     inkscape:window-x="0"
     inkscape:window-y="0"
     inkscape:window-maximized="1"
     inkscape:current-layer="svg1" />
  <defs
     id="defs1">
    <linearGradient
       inkscape:collect="always"
       xlink:href="#linearGradient868"
       id="linearGradient4"
       x1="16"
       y1="30"
       x2="16"
       y2="2"
       gradientUnits="userSpaceOnUse" />
    <linearGradient
       inkscape:collect="always"
       id="linearGradient868">
      <stop
         style="stop-color:#ff9e1d;stop-opacity:1;"
         offset="0"
         id="stop864" />
      <stop
         style="stop-color:#ffe32b;stop-opacity:1;"
         offset="1"
         id="stop866" />
    </linearGradient>
  </defs>
  <rect
     style="fill:#000000;stroke-width:1.75;opacity:0.2"
     id="rect1"
     width="28"
     height="28"
     x="2"
     y="3"
     ry="6" />
  <rect
     style="fill:url(#linearGradient4)"
     id="rect2"
     width="28"
     height="28"
     x="2"
     y="2"
     ry="6" />
  <path
     d="m 16.00008,7 c -0.69252,0 -1.24999,0.557525 -1.25,1.249998 -2.9e-4,0.01381 -2.4e-4,0.02563 -6e-5,0.039 -2.15999,0.560153 -3.75,2.461004 -3.75,4.960998 0,2.506551 8.7e-4,7.500008 -2.22657,7.500009 -0.14839,2e-6 -0.27341,0.139421 -0.27345,0.312493 v 0.937503 l 15,-5e-6 v -0.937499 c 0,-0.173112 -0.12568,-0.31226 -0.27344,-0.312502 C 20.99043,20.750001 21,15.756107 21,13.250008 21,10.750002 19.41021,8.849075 17.25,8.289064 c 4.3e-4,-0.01346 2.1e-4,-0.02575 7e-5,-0.039 0,-0.692501 -0.55755,-1.24998 -1.25001,-1.249994 z m -2.14843,16.250004 c 0.43254,0.746117 1.22393,1.249998 2.14843,1.249998 0.92451,2e-6 1.71589,-0.503879 2.14844,-1.250005 z"
     style="color:#000000;display:inline;overflow:visible;visibility:visible;fill:#ffffff;fill-opacity:1;fill-rule:nonzero;stroke:none;stroke-width:4;marker:none;enable-background:accumulate"
     id="path6057"
     sodipodi:nodetypes="cccsscccscscccccscc" />
</svg>
