<?xml version="1.0" encoding="UTF-8" standalone="no"?>
<!-- Created with Inkscape (http://www.inkscape.org/) -->

<svg
   width="32"
   height="32"
   viewBox="0 0 32 32.000002"
   version="1.1"
   id="svg1"
   inkscape:version="1.4.2 (ebf0e940d0, 2025-05-08)"
   sodipodi:docname="stardew-valley.svg"
   xmlns:inkscape="http://www.inkscape.org/namespaces/inkscape"
   xmlns:sodipodi="http://sodipodi.sourceforge.net/DTD/sodipodi-0.dtd"
   xmlns:xlink="http://www.w3.org/1999/xlink"
   xmlns="http://www.w3.org/2000/svg"
   xmlns:svg="http://www.w3.org/2000/svg">
  <sodipodi:namedview
     id="namedview1"
     pagecolor="#ffffff"
     bordercolor="#000000"
     borderopacity="0.25"
     inkscape:showpageshadow="2"
     inkscape:pageopacity="0.0"
     inkscape:pagecheckerboard="0"
     inkscape:deskcolor="#d1d1d1"
     inkscape:document-units="px"
     inkscape:zoom="24.84375"
     inkscape:cx="16"
     inkscape:cy="16"
     inkscape:window-width="1920"
     inkscape:window-height="1010"
     inkscape:window-x="0"
     inkscape:window-y="0"
     inkscape:window-maximized="1"
     inkscape:current-layer="svg1" />
  <defs
     id="defs1">
    <linearGradient
       inkscape:collect="always"
       xlink:href="#linearGradient7115"
       id="linearGradient4"
       x1="16"
       y1="2"
       x2="16"
       y2="30"
       gradientUnits="userSpaceOnUse" />
    <radialGradient
       inkscape:collect="always"
       xlink:href="#linearGradient113843"
       id="radialGradient113845"
       cx="-11.406412"
       cy="1.633051"
       fx="-11.406412"
       fy="1.633051"
       r="0.46302083"
       gradientUnits="userSpaceOnUse"
       gradientTransform="matrix(4.3180634,-3.1369302e-7,-1.6211347e-6,4.3194581,56.411075,-1.0972029)" />
    <linearGradient
       inkscape:collect="always"
       id="linearGradient113843">
      <stop
         style="stop-color:#f9fafb;stop-opacity:1;"
         offset="0"
         id="stop113839" />
      <stop
         style="stop-color:#f9fafb;stop-opacity:0;"
         offset="1"
         id="stop113841" />
    </linearGradient>
    <radialGradient
       inkscape:collect="always"
       xlink:href="#linearGradient113843"
       id="radialGradient113845-2"
       cx="-11.406412"
       cy="1.633051"
       fx="-11.406412"
       fy="1.633051"
       r="0.46302083"
       gradientUnits="userSpaceOnUse"
       gradientTransform="matrix(4.3180634,-3.1369302e-7,-1.6211347e-6,4.3194581,76.630723,4.602798)" />
    <linearGradient
       inkscape:collect="always"
       id="linearGradient7115">
      <stop
         style="stop-color:#160c4c;stop-opacity:1;"
         offset="0"
         id="stop7111" />
      <stop
         style="stop-color:#02519e;stop-opacity:1;"
         offset="0.40000001"
         id="stop8765" />
      <stop
         style="stop-color:#0578e3;stop-opacity:1;"
         offset="0.75"
         id="stop8767" />
      <stop
         style="stop-color:#55d0ee;stop-opacity:1;"
         offset="1"
         id="stop7113" />
    </linearGradient>
  </defs>
  <rect
     style="fill:#000000;stroke-width:1.75;opacity:0.2"
     id="rect1"
     width="28"
     height="28"
     x="2"
     y="3"
     ry="6" />
  <rect
     style="fill:url(#linearGradient4)"
     id="rect2"
     width="28"
     height="28"
     x="2"
     y="2"
     ry="6" />
  <path
     id="rect103835"
     style="fill:#f9fafb;fill-opacity:1;stroke-width:3.40168;stroke-linecap:round;stroke-linejoin:round"
     d="m 23,5 v 0.5 h 0.499998 V 5 Z M 9,10.800782 v 0.5 h 0.499997 v -0.5 z"
     sodipodi:nodetypes="cccccccccc" />
  <g
     id="g113500"
     transform="matrix(3.7795276,0,0,3.7795276,51.138827,0.1997074)">
    <rect
       style="opacity:0.3;fill:#f9fafb;fill-opacity:1;stroke-width:2.38125;stroke-linecap:round;stroke-linejoin:round"
       id="rect113653"
       width="0.39687499"
       height="0.39687499"
       x="-11.842221"
       y="1.3229166" />
    <path
       id="rect111635"
       style="opacity:0.2;fill:#f9fafb;fill-opacity:1;stroke-width:2.38125;stroke-linecap:round;stroke-linejoin:round"
       d="m -11.710051,1.0583333 v 0.396875 h -0.396875 v 0.1322916 h 0.396875 v 0.396875 h 0.132291 v -0.396875 h 0.396875 V 1.4552083 h -0.396875 v -0.396875 z" />
    <path
       id="rect112153"
       style="opacity:0.2;fill:#f9fafb;fill-opacity:1;stroke-width:14.2303;stroke-linecap:round;stroke-linejoin:round"
       d="m -44.257812,4.5 v 1 h -1 V 6 h 1 v 1 h 0.5 V 6 h 1 V 5.5 h -1 v -1 z"
       transform="scale(0.26458334)" />
    <rect
       style="opacity:1;fill:#f9fafb;fill-opacity:1;stroke-width:2.38125;stroke-linecap:round;stroke-linejoin:round"
       id="rect111777"
       width="0.13229167"
       height="0.13229167"
       x="-11.710051"
       y="1.4552083" />
    <path
       id="rect112031"
       style="opacity:0.3;fill:#f9fafb;stroke-width:2.38125;stroke-linecap:round;stroke-linejoin:round"
       d="m -11.710051,1.3229166 h 0.132293 l -2e-6,0.1322917 h 0.132414 V 1.5875 l -0.132414,-10e-8 v 0.1322918 h -0.132293 l 2e-6,-0.1322918 -0.13217,10e-8 V 1.4552083 h 0.13217 z"
       sodipodi:nodetypes="ccccccccccccc" />
  </g>
  <g
     id="g113383"
     transform="matrix(3.7795276,0,0,3.7795276,58.000354,-14)">
    <path
       id="rect112153-7"
       style="opacity:0.2;fill:#f9fafb;fill-opacity:1;stroke-width:3.7651;stroke-linecap:round;stroke-linejoin:round"
       d="m -14.022745,10.212917 v 0.264584 h -0.264584 v 0.132291 h 0.264584 v 0.264584 h 0.132291 v -0.264584 h 0.264584 v -0.132291 h -0.264584 v -0.264584 z" />
    <rect
       style="fill:#f9fafb;fill-opacity:1;stroke-width:2.38125;stroke-linecap:round;stroke-linejoin:round"
       id="rect111777-9"
       width="0.13229167"
       height="0.13229167"
       x="-14.022917"
       y="10.4775" />
    <path
       id="rect112031-2"
       style="opacity:0.3;fill:#f9fafb;stroke-width:2.38125;stroke-linecap:round;stroke-linejoin:round"
       d="m -14.022917,10.345209 h 0.132293 l -2e-6,0.132292 h 0.132414 v 0.132291 h -0.132414 v 0.132292 h -0.132293 l 2e-6,-0.132292 h -0.13217 v -0.132291 h 0.13217 z"
       sodipodi:nodetypes="ccccccccccccc" />
  </g>
  <g
     id="g113378"
     transform="matrix(3.7795276,0,0,3.7795276,33.999723,-23.97998)">
    <rect
       style="opacity:0.3;fill:#f9fafb;fill-opacity:1;stroke-width:2.38125;stroke-linecap:round;stroke-linejoin:round"
       id="rect113273"
       width="0.397046"
       height="0.39687502"
       x="-3.2278254"
       y="13.488453" />
    <path
       id="rect111635-0"
       style="opacity:0.2;fill:#f9fafb;fill-opacity:1;stroke-width:2.38125;stroke-linecap:round;stroke-linejoin:round"
       d="m -3.0954579,13.22387 v 0.396875 h -0.396875 v 0.132291 h 0.396875 v 0.396875 h 0.132291 v -0.396875 h 0.396875 v -0.132291 h -0.396875 V 13.22387 Z" />
    <path
       id="rect112153-2"
       style="opacity:0.2;fill:#f9fafb;fill-opacity:1;stroke-width:3.7651;stroke-linecap:round;stroke-linejoin:round"
       d="m -3.0952869,13.356161 v 0.264584 h -0.264583 v 0.132291 h 0.264583 v 0.264584 h 0.132292 v -0.264584 h 0.264583 v -0.132291 h -0.264583 v -0.264584 z" />
    <rect
       style="fill:#f9fafb;fill-opacity:1;stroke-width:2.38125;stroke-linecap:round;stroke-linejoin:round"
       id="rect111777-3"
       width="0.13229167"
       height="0.13229167"
       x="-3.0954573"
       y="13.620745" />
    <path
       id="rect112031-7"
       style="opacity:0.3;fill:#f9fafb;stroke-width:2.38125;stroke-linecap:round;stroke-linejoin:round"
       d="m -3.0954579,13.488453 h 0.132293 l -2e-6,0.132292 h 0.132414 v 0.132291 h -0.132414 v 0.132292 h -0.132293 l 2e-6,-0.132292 h -0.13217 v -0.132291 h 0.13217 z"
       sodipodi:nodetypes="ccccccccccccc" />
  </g>
  <rect
     style="opacity:0.3;fill:url(#radialGradient113845);fill-opacity:1;stroke-width:11.5714;stroke-linecap:round;stroke-linejoin:round"
     id="rect113757"
     width="4.5000005"
     height="4.5000005"
     x="4.8803492"
     y="3.6999998" />
  <rect
     style="opacity:0.3;fill:url(#radialGradient113845-2);fill-opacity:1;stroke-width:11.5714;stroke-linecap:round;stroke-linejoin:round"
     id="rect113757-1"
     width="4.5000005"
     height="4.5000005"
     x="25.1"
     y="9.4000015" />
  <g
     id="g113494"
     transform="matrix(3.7795276,0,0,3.7795276,31.099168,-12.1)">
    <path
       id="rect112153-9"
       style="opacity:0.2;fill:#f9fafb;fill-opacity:1;stroke-width:3.7651;stroke-linecap:round;stroke-linejoin:round"
       d="m -1.0581144,5.9531251 v 0.2645834 h -0.2645834 v 0.1322916 h 0.2645834 v 0.2645834 h 0.13229163 V 6.3500001 h 0.26458334 V 6.2177085 H -0.92582277 V 5.9531251 Z" />
    <rect
       style="fill:#f9fafb;fill-opacity:1;stroke-width:2.38125;stroke-linecap:round;stroke-linejoin:round"
       id="rect111777-2"
       width="0.13229167"
       height="0.13229167"
       x="-1.0582852"
       y="6.2177086" />
    <path
       id="rect112031-28"
       style="opacity:0.3;fill:#f9fafb;stroke-width:2.38125;stroke-linecap:round;stroke-linejoin:round"
       d="m -1.0582857,6.0854167 h 0.13229298 l -2e-6,0.1322917 h 0.132414 v 0.1322917 l -0.132414,-1e-7 V 6.4822918 H -1.0582877 l 2e-6,-0.1322918 -0.13217,1e-7 V 6.2177084 h 0.13217 z"
       sodipodi:nodetypes="ccccccccccccc" />
  </g>
  <path
     id="rect4039"
     style="fill:#ffe2ac;fill-opacity:1;stroke-width:2.49999;stroke-linecap:round;stroke-linejoin:round"
     d="M 11.624999,9.7499993 V 13.5 H 13.5 l -2.500001,-2e-6 L 11,16 8.7500002,17.25 V 21.5 L 11,22.25 12.25,23.5 H 18.5 L 21,22.25 22.25,21 v -1.25 l -0.625003,-1.875 -1.25,1.25 L 19.164443,19.10498 18.5,18.5 16,17.25 14.749999,16.625 17.25,16 l 0.625,-1.250001 -1e-6,-1.875001 -1.875,1e-6 L 14.75,14.75 V 11 H 13.5 V 9.7499999 L 12.874999,8.4999992 Z M 16.511429,16.625 17.25,17.25 18.5,18.5 h 1.25 l 2.5,-2.5 v 3.75 l -3e-6,1.249999 L 23.5,19.75 24.749997,17.25 23.5,14.75 24.75,13.5 V 12.25 H 21 Z"
     sodipodi:nodetypes="ccccccccccccccccccccccccccccccccccccccccccc" />
  <path
     id="rect1106"
     style="fill:#cd0000;fill-opacity:1;stroke-width:2.49999;stroke-linecap:round;stroke-linejoin:round"
     d="m 12.249999,8.4999998 1.25,-1.2500007 H 17.25 v 1.2500001 l -2.500001,1.2500007 h -2.5 z"
     sodipodi:nodetypes="ccccccc" />
  <path
     id="rect2738"
     style="fill:#e2a052;fill-opacity:1;stroke-width:2.49999;stroke-linecap:round;stroke-linejoin:round"
     d="m 10.999999,9.7499993 -1.875,1.8749997 0.012394,2.42494 h 2.5 l -0.01239,-3.04994 h 0.625 V 9.7499993 Z m 2.5,0 v 1.2499997 h 1.875 v 2.499999 H 17.875 V 11.624999 L 15.999999,9.7499993 Z M 19.75,12.249999 v 1.249999 H 21 v -1.249999 z m 0,1.249999 H 18.5 V 14.75 h 1.25 z M 18.5,14.75 H 17.25 V 16 H 18.5 Z M 17.25,16 h -2.500001 v 1.249998 L 16,17.25 l -10e-7,1.25 H 17.25 Z M 12.249999,13.499998 V 14.75 h 1.25 v -1.250002 z m 10.000001,0 V 14.75 h 2.5 V 13.499998 Z M 10.986572,14.75 V 16 H 8.4999989 l -1.8750001,1.875 v 2.500001 l 1.2500001,1.25 1.8750001,-0.625002 v -1.249998 h 1.25 V 18.5 h -1.25 v -1.250002 h 1.25 V 16 h 1.236573 v -1.25 z m 0.01342,5.000001 v 1.249998 h 1.25 l 3e-6,-1.25 h 1.249999 l -2e-6,1.25 h 1.25 v -1.249998 l -1.249998,-2e-6 -2e-6,-1.249999 h -1.25 l 3e-6,1.249999 z m 0,1.249998 H 9.7499965 v 1.250002 h 1.2500005 z m 0,1.250002 v 1.25 h 1.25 v -1.25 z M 20.999997,16 21,17.249998 H 19.749997 V 18.5 l 1.25,1.250001 h 1.25 V 18.5 l -0.625,-0.625 0.625,-0.625002 V 16 Z m 2.5,0 v 2.5 h 1.25 V 16 Z m -2.5,4.999999 v 1.250002 H 22.875 v -1.250002 z m 0,1.250002 h -2.5 L 18.5,24.125 H 21 Z m -7.5,0 v 1.25 h 1.25 v -1.25 z m 2.5,0 v 1.25 h 1.25 v -1.25 z"
     sodipodi:nodetypes="cccccccccccccccccccccccccccccccccccccccccccccccccccccccccccccccccccccccccccccccccccccccccccccccccccccccccccccccccccccccccccc" />
  <path
     id="rect2265"
     style="fill:#ffde00;fill-opacity:1;stroke-width:2.49999;stroke-linecap:round;stroke-linejoin:round"
     d="M 8.4999989,13.499998 V 14.75 H 12.249999 V 13.499998 Z M 9.749999,24.749999 v 1.250002 h 2.5 v -1.250002 z m 6.25,0 v 1.250002 H 18.5 v -1.250002 z" />
  <path
     d="m 12.249999,24.749999 v 1.250002 h 1.25 v -1.250002 z m 2.5,0 v 1.250002 h 1.25 v -1.250002 z"
     style="fill:#e9922c;fill-opacity:1;stroke-width:2.49999;stroke-linecap:round;stroke-linejoin:round"
     id="path4304" />
  <path
     id="rect632"
     style="fill:#703404;fill-opacity:1;stroke-width:2.49999;stroke-linecap:round;stroke-linejoin:round"
     d="M 13.499999,5.999999 V 7.2499991 H 17.25 V 8.4999992 H 18.5 V 5.999999 Z M 17.25,8.4999992 h -2.500001 v 1.2500001 h 1.25 V 10.999999 H 17.25 Z m 0,2.4999998 V 14.75 h 1.25 v -1.250002 h 1.25 V 12.249999 H 18.5 v -1.25 z m 2.5,1.25 h 5 v -1.25 h -5 z m 5,0 V 14.75 H 26 v -2.500001 z m 0,2.500001 H 23.5 V 16 h 1.25 z m 0,1.25 v 2.5 H 26 V 16 Z m 0,2.5 H 23.5 v 2.499999 h 1.25 z m -1.25,2.499999 h -1.25 v 2.500002 h 1.25 z m -1.25,2.500002 h -2.5 v 1.249998 h 2.5 z m -2.5,1.249998 H 18.5 v 1.250002 h 1.25 z m -1.25,0 v -1.249998 h -2.500001 v 1.249998 z m -2.500001,-13.75 h -1.25 V 14.75 h 1.25 z m -2.5,-3.7499999 h -1.25 v 1.2500001 h 1.25 z m -1.25,1.2500001 h -1.25 v 1.2500001 h 1.25 z m -1.25,1.2500001 h -1.25 v 1.2499997 h 1.25 z m 0,1.2499997 v 2.499999 h 1.25 v -2.499999 z m -1.25,0 H 8.4999989 v 2.499999 H 9.749999 Z m -1.2500001,2.499999 h -1.25 V 14.75 h 1.25 z m 0,1.250002 V 16 H 9.749999 v -1.25 z m 0,1.25 h -1.25 v 1.249998 h 1.25 z m -1.25,1.249998 H 6 v 3.750001 h 1.2499989 z m 0,3.750001 v 1.250002 h 1.25 v -1.250002 z m 1.25,1.250002 v 1.25 H 9.749999 v -1.25 z m 1.2500001,1.25 v 1.249998 h 2.5 v -1.249998 z m 0,1.249998 H 8.4999989 v 1.250002 H 9.749999 Z M 17.25,17.249998 V 18.5 H 18.5 V 17.249998 Z M 18.5,18.5 v 1.250001 H 21 V 18.5 Z m 2.5,0 h 1.25 V 17.249998 H 21 Z m -7.500001,6.249999 v 1.250002 h 1.25 v -1.250002 z" />
  <path
     id="rect3409"
     style="fill:#9f4b00;fill-opacity:1;stroke-width:2.49999;stroke-linecap:round;stroke-linejoin:round"
     d="M 9.749999,14.75 V 16 h 1.25 V 14.75 Z M 22.25,19.750001 v 1.249998 H 23.5 V 19.750001 Z M 8.4999989,20.999999 v 1.250002 H 9.749999 v -1.250002 z m 1.2500001,1.250002 v 1.25 h 1.25 v -1.25 z m 11.250001,0 v 1.25 h 1.25 v -1.25 z m -8.750001,1.25 v 1.249998 h 3.75 v -1.249998 z m 6.250001,0 v 1.249998 h 1.25 v -1.249998 z" />
</svg>
