<?xml version="1.0" encoding="UTF-8" standalone="no"?>
<!-- Created with Inkscape (http://www.inkscape.org/) -->

<svg
   width="32"
   height="32"
   viewBox="0 0 32 32.000002"
   version="1.1"
   id="svg1"
   inkscape:version="1.4.2 (ebf0e940d0, 2025-05-08)"
   sodipodi:docname="thingy.svg"
   xmlns:inkscape="http://www.inkscape.org/namespaces/inkscape"
   xmlns:sodipodi="http://sodipodi.sourceforge.net/DTD/sodipodi-0.dtd"
   xmlns:xlink="http://www.w3.org/1999/xlink"
   xmlns="http://www.w3.org/2000/svg"
   xmlns:svg="http://www.w3.org/2000/svg">
  <sodipodi:namedview
     id="namedview1"
     pagecolor="#ffffff"
     bordercolor="#000000"
     borderopacity="0.25"
     inkscape:showpageshadow="2"
     inkscape:pageopacity="0.0"
     inkscape:pagecheckerboard="0"
     inkscape:deskcolor="#d1d1d1"
     inkscape:document-units="px"
     inkscape:zoom="25.25"
     inkscape:cx="15.980198"
     inkscape:cy="16"
     inkscape:window-width="1920"
     inkscape:window-height="1011"
     inkscape:window-x="0"
     inkscape:window-y="0"
     inkscape:window-maximized="1"
     inkscape:current-layer="svg1" />
  <defs
     id="defs1">
    <linearGradient
       inkscape:collect="always"
       xlink:href="#linearGradient1778"
       id="linearGradient4"
       x1="16"
       y1="30"
       x2="16"
       y2="2"
       gradientUnits="userSpaceOnUse" />
    <linearGradient
       inkscape:collect="always"
       id="linearGradient1778">
      <stop
         style="stop-color:#a42020;stop-opacity:1;"
         offset="0"
         id="stop1774" />
      <stop
         style="stop-color:#de6060;stop-opacity:1;"
         offset="1"
         id="stop1776" />
    </linearGradient>
  </defs>
  <rect
     style="fill:#000000;stroke-width:1.75;opacity:0.2"
     id="rect1"
     width="28"
     height="28"
     x="2"
     y="3"
     ry="6" />
  <rect
     style="fill:url(#linearGradient4)"
     id="rect2"
     width="28"
     height="28"
     x="2"
     y="2"
     ry="6" />
  <path
     id="path4193"
     style="fill:#ffffff;stroke-width:2.00004;stroke-linecap:square;stroke-linejoin:round"
     d="M 9,9 C 7.8919812,9 7,9.8919812 7,11 v 4 c 0,0.03032 0.00251,0.05984 0.00391,0.08984 -0.02266,0.538901 0.1707502,1.08482 0.5839844,1.498047 l 6.8242186,6.826171 c 0.783458,0.783528 2.044637,0.783492 2.828125,0 l 4.171875,-4.171874 c 0.783469,-0.783512 0.78349,-2.044634 0,-2.828126 L 14.587891,9.5878906 C 14.174663,9.1746644 13.628745,8.9812484 13.089844,9.0039062 13.059864,9.0026064 13.03032,9 13,9 Z m 6.414062,0 6.705079,6.707031 c 1.162898,1.162904 1.162899,3.079285 0,4.242188 l -3.580079,3.580078 c 0.787367,0.664767 1.9587,0.627241 2.701172,-0.115235 l 4.171875,-4.171874 c 0.783469,-0.783512 0.78349,-2.044634 0,-2.828126 L 18.587891,9.5878906 C 18.174664,9.1746644 17.628744,8.9812484 17.089844,9.0039062 17.059864,9.0026064 17.03032,9 17,9 Z M 10,11 c 0.552285,0 1,0.447715 1,1 0,0.552285 -0.447715,1 -1,1 -0.5522847,0 -1,-0.447715 -1,-1 0,-0.552285 0.4477153,-1 1,-1 z"
     sodipodi:nodetypes="sssccccccccsscccccccccscsssss" />
</svg>
