<?xml version="1.0" encoding="UTF-8" standalone="no"?>
<!-- Created with Inkscape (http://www.inkscape.org/) -->

<svg
   width="32"
   height="32"
   viewBox="0 0 32 32.000002"
   version="1.1"
   id="svg1"
   inkscape:version="1.4.2 (ebf0e940d0, 2025-05-08)"
   sodipodi:docname="yast-control-center.svg"
   xmlns:inkscape="http://www.inkscape.org/namespaces/inkscape"
   xmlns:sodipodi="http://sodipodi.sourceforge.net/DTD/sodipodi-0.dtd"
   xmlns:xlink="http://www.w3.org/1999/xlink"
   xmlns="http://www.w3.org/2000/svg"
   xmlns:svg="http://www.w3.org/2000/svg">
  <sodipodi:namedview
     id="namedview1"
     pagecolor="#ffffff"
     bordercolor="#000000"
     borderopacity="0.25"
     inkscape:showpageshadow="2"
     inkscape:pageopacity="0.0"
     inkscape:pagecheckerboard="0"
     inkscape:deskcolor="#d1d1d1"
     inkscape:document-units="px"
     inkscape:zoom="24.5625"
     inkscape:cx="15.979644"
     inkscape:cy="16"
     inkscape:window-width="1920"
     inkscape:window-height="1011"
     inkscape:window-x="0"
     inkscape:window-y="0"
     inkscape:window-maximized="1"
     inkscape:current-layer="svg1" />
  <defs
     id="defs1">
    <linearGradient
       inkscape:collect="always"
       id="linearGradient1606">
      <stop
         style="stop-color:#eaebed;stop-opacity:1;"
         offset="0"
         id="stop1602" />
      <stop
         style="stop-color:#f9fafa;stop-opacity:1;"
         offset="1"
         id="stop1604" />
    </linearGradient>
    <linearGradient
       inkscape:collect="always"
       xlink:href="#linearGradient1606"
       id="linearGradient4"
       x1="16"
       y1="30"
       x2="16"
       y2="2"
       gradientUnits="userSpaceOnUse" />
    <linearGradient
       inkscape:collect="always"
       xlink:href="#linearGradient920"
       id="linearGradient4-4"
       x1="8"
       y1="14"
       x2="8"
       y2="0"
       gradientUnits="userSpaceOnUse"
       gradientTransform="matrix(1.8,0,0,2,1.6,2)" />
    <linearGradient
       inkscape:collect="always"
       id="linearGradient920">
      <stop
         style="stop-color:#82bf39;stop-opacity:1;"
         offset="0"
         id="stop916" />
      <stop
         style="stop-color:#bada82;stop-opacity:1;"
         offset="1"
         id="stop918" />
    </linearGradient>
  </defs>
  <rect
     style="fill:#000000;stroke-width:1.75;opacity:0.2"
     id="rect1"
     width="28"
     height="28"
     x="2"
     y="3"
     ry="6" />
  <rect
     style="fill:url(#linearGradient4)"
     id="rect2"
     width="28"
     height="28"
     x="2"
     y="2"
     ry="6" />
  <rect
     style="fill:url(#linearGradient4-4);stroke-width:1.89737"
     id="rect3"
     width="18"
     height="2"
     x="7"
     y="10"
     ry="1" />
  <rect
     style="opacity:0.4;fill:#000000;stroke-width:1.89737"
     id="rect4"
     width="18"
     height="2"
     x="7"
     y="20"
     ry="1" />
  <path
     id="path1"
     style="opacity:0.2;fill:#000000;stroke-width:1.33333"
     d="M 22 7 C 19.790861 7 18 8.7908613 18 11 C 18 13.209139 19.790861 15 22 15 C 24.209139 15 26 13.209139 26 11 C 26 8.7908613 24.209139 7 22 7 z M 10 17 C 7.790861 17 6 18.790861 6 21 C 6 23.209139 7.790861 25 10 25 C 12.209139 25 14 23.209139 14 21 C 14 18.790861 12.209139 17 10 17 z " />
  <path
     id="path2"
     style="fill:#f9f9f9;fill-opacity:1;stroke-width:6;stroke-linecap:round;stroke-linejoin:round"
     d="M 22 8 C 20.343145 8 19 9.3431465 19 11 C 19 12.656855 20.343145 14 22 14 C 23.656853 14 25 12.656855 25 11 C 25 9.3431465 23.656853 8 22 8 z M 10 18 C 8.343145 18 7 19.343146 7 21 C 7 22.656855 8.343145 24 10 24 C 11.656853 24 13 22.656855 13 21 C 13 19.343146 11.656853 18 10 18 z " />
</svg>
