<?xml version="1.0" encoding="UTF-8" standalone="no"?>
<!-- Created with Inkscape (http://www.inkscape.org/) -->

<svg
   width="32"
   height="32"
   viewBox="0 0 32 32.000002"
   version="1.1"
   id="svg1"
   inkscape:version="1.4 (e7c3feb100, 2024-10-09)"
   sodipodi:docname="youtube-dl.svg"
   xmlns:inkscape="http://www.inkscape.org/namespaces/inkscape"
   xmlns:sodipodi="http://sodipodi.sourceforge.net/DTD/sodipodi-0.dtd"
   xmlns="http://www.w3.org/2000/svg"
   xmlns:svg="http://www.w3.org/2000/svg">
  <sodipodi:namedview
     id="namedview1"
     pagecolor="#ffffff"
     bordercolor="#000000"
     borderopacity="0.25"
     inkscape:showpageshadow="2"
     inkscape:pageopacity="0.0"
     inkscape:pagecheckerboard="0"
     inkscape:deskcolor="#d1d1d1"
     inkscape:document-units="px"
     inkscape:zoom="24.5625"
     inkscape:cx="16.020356"
     inkscape:cy="16"
     inkscape:window-width="1920"
     inkscape:window-height="1011"
     inkscape:window-x="0"
     inkscape:window-y="0"
     inkscape:window-maximized="1"
     inkscape:current-layer="svg1" />
  <defs
     id="defs1" />
  <rect
     style="fill:#000000;stroke-width:1.75;opacity:0.2"
     id="rect1"
     width="28"
     height="28"
     x="2"
     y="3"
     ry="6" />
  <rect
     style="fill:#fafafa;fill-opacity:1"
     id="rect2"
     width="28"
     height="28"
     x="2"
     y="2"
     ry="6" />
  <path
     id="path1633"
     style="fill:#ff0000;fill-opacity:1;stroke-width:0.148643"
     d="m 15.99997,10 c 0,0 -5.448758,5.74e-4 -6.935524,0.353514 -0.798159,0.19764 -1.4547202,0.78932 -1.6738224,1.523432 C 6.9993694,13.218116 7,15.99998 7,15.99998 c 0,0 -6.306e-4,2.79598 0.3906236,4.123034 0.2191032,0.734112 0.8600144,1.312116 1.6738224,1.50976 1.502415,0.367058 6.935524,0.367186 6.935524,0.367186 0,0 5.446804,-5.76e-4 6.93357,-0.353514 0.81381,-0.19764 1.45472,-0.775648 1.673824,-1.50976 0.391254,-1.341172 0.392576,-4.123034 0.392576,-4.123034 0,0 0.0142,-2.795536 -0.392576,-4.136706 C 24.38826,11.142834 23.74735,10.564832 22.93354,10.367186 21.446774,10.00013 15.99997,10 15.99997,10 Z"
     sodipodi:nodetypes="ccccccccccccc" />
  <path
     id="rect1087"
     style="fill:#ffffff;stroke-width:0.45219"
     d="m 15,12 h 2 v 5 h 2 l -3,3 -3,-3 h 2 z"
     sodipodi:nodetypes="cccccccc" />
</svg>
