<?xml version="1.0" encoding="UTF-8" standalone="no"?>
<!-- Created with Inkscape (http://www.inkscape.org/) -->

<svg
   width="96"
   height="96"
   viewBox="0 0 96 96.000008"
   version="1.1"
   id="svg1"
   inkscape:version="1.4.2 (ebf0e940d0, 2025-05-08)"
   sodipodi:docname="applets-screenshooter.svg"
   xmlns:inkscape="http://www.inkscape.org/namespaces/inkscape"
   xmlns:sodipodi="http://sodipodi.sourceforge.net/DTD/sodipodi-0.dtd"
   xmlns:xlink="http://www.w3.org/1999/xlink"
   xmlns="http://www.w3.org/2000/svg"
   xmlns:svg="http://www.w3.org/2000/svg">
  <sodipodi:namedview
     id="namedview1"
     pagecolor="#ffffff"
     bordercolor="#000000"
     borderopacity="0.25"
     inkscape:showpageshadow="2"
     inkscape:pageopacity="0.0"
     inkscape:pagecheckerboard="0"
     inkscape:deskcolor="#d1d1d1"
     inkscape:document-units="px"
     inkscape:zoom="8.4166667"
     inkscape:cx="47.940594"
     inkscape:cy="48"
     inkscape:window-width="1920"
     inkscape:window-height="1011"
     inkscape:window-x="0"
     inkscape:window-y="0"
     inkscape:window-maximized="1"
     inkscape:current-layer="svg1" />
  <defs
     id="defs1">
    <linearGradient
       inkscape:collect="always"
       id="linearGradient1625">
      <stop
         style="stop-color:#13a5c5;stop-opacity:1;"
         offset="0"
         id="stop1621" />
      <stop
         style="stop-color:#b1f6cb;stop-opacity:1;"
         offset="1"
         id="stop1623" />
    </linearGradient>
    <linearGradient
       inkscape:collect="always"
       xlink:href="#linearGradient1625"
       id="linearGradient2"
       x1="48"
       y1="90"
       x2="48.990101"
       y2="6"
       gradientUnits="userSpaceOnUse" />
    <linearGradient
       inkscape:collect="always"
       xlink:href="#4852"
       id="linearGradient4"
       x1="16"
       y1="30"
       x2="16"
       y2="2"
       gradientUnits="userSpaceOnUse"
       gradientTransform="scale(3)" />
    <linearGradient
       inkscape:collect="always"
       id="4852">
      <stop
         style="stop-color:#272727;stop-opacity:1;"
         offset="0"
         id="stop14555" />
      <stop
         style="stop-color:#5d5d5d;stop-opacity:1;"
         offset="1"
         id="stop14557" />
    </linearGradient>
  </defs>
  <rect
     style="opacity:0.2;fill:#000000;stroke-width:7.35"
     id="rect1"
     width="84"
     height="84"
     x="6"
     y="7"
     ry="18" />
  <rect
     style="fill:url(#linearGradient4);stroke-width:3"
     id="rect2"
     width="84"
     height="84"
     x="6"
     y="6"
     ry="18" />
  <path
     d="m 28,22 c -1.108,0 -2,0.892004 -2,2 v 8 h -8 c -1.10799,0 -2,0.892006 -2,2 0,1.107994 0.89201,2 2,2 h 8 v 24 c 0,2.215992 1.78401,4 4,4 h 36 v 8 c 0,1.107996 0.892,2 2,2 1.108,0 2,-0.892004 2,-2 v -8 h 8 c 1.10799,0 2,-0.892006 2,-2 0,-1.107994 -0.89201,-2 -2,-2 H 70 V 36 c 0,-2.215992 -1.78401,-4 -4,-4 H 30 v -8 c 0,-1.107996 -0.892,-2 -2,-2 z m 2,14 H 66 V 60 H 30 Z"
     style="fill:url(#linearGradient2);stroke-width:2.0656;stroke-linecap:round;stroke-linejoin:round"
     id="path599" />
</svg>
