<?xml version="1.0" encoding="UTF-8" standalone="no"?>
<!-- Created with Inkscape (http://www.inkscape.org/) -->

<svg
   width="96"
   height="96"
   viewBox="0 0 96 96.000006"
   version="1.1"
   id="svg1"
   inkscape:version="1.4.2 (ebf0e940d0, 2025-05-08)"
   sodipodi:docname="baloo.svg"
   xmlns:inkscape="http://www.inkscape.org/namespaces/inkscape"
   xmlns:sodipodi="http://sodipodi.sourceforge.net/DTD/sodipodi-0.dtd"
   xmlns:xlink="http://www.w3.org/1999/xlink"
   xmlns="http://www.w3.org/2000/svg"
   xmlns:svg="http://www.w3.org/2000/svg">
  <sodipodi:namedview
     id="namedview1"
     pagecolor="#ffffff"
     bordercolor="#000000"
     borderopacity="0.25"
     inkscape:showpageshadow="2"
     inkscape:pageopacity="0.0"
     inkscape:pagecheckerboard="0"
     inkscape:deskcolor="#d1d1d1"
     inkscape:document-units="px"
     inkscape:zoom="8.1875"
     inkscape:cx="47.938931"
     inkscape:cy="48"
     inkscape:window-width="1920"
     inkscape:window-height="1011"
     inkscape:window-x="0"
     inkscape:window-y="0"
     inkscape:window-maximized="1"
     inkscape:current-layer="svg1" />
  <defs
     id="defs1">
    <linearGradient
       inkscape:collect="always"
       xlink:href="#4852"
       id="linearGradient4"
       x1="16"
       y1="30"
       x2="16"
       y2="2"
       gradientUnits="userSpaceOnUse"
       gradientTransform="scale(3)" />
    <linearGradient
       inkscape:collect="always"
       id="4852">
      <stop
         style="stop-color:#272727;stop-opacity:1;"
         offset="0"
         id="stop14555" />
      <stop
         style="stop-color:#5d5d5d;stop-opacity:1;"
         offset="1"
         id="stop14557" />
    </linearGradient>
    <linearGradient
       inkscape:collect="always"
       id="linearGradient1265">
      <stop
         style="stop-color:#2d7ff3;stop-opacity:1;"
         offset="0"
         id="stop1261" />
      <stop
         style="stop-color:#2cdbfa;stop-opacity:1;"
         offset="1"
         id="stop1263" />
    </linearGradient>
    <linearGradient
       inkscape:collect="always"
       xlink:href="#linearGradient1265"
       id="linearGradient2"
       x1="32"
       y1="60"
       x2="32"
       y2="4"
       gradientUnits="userSpaceOnUse"
       gradientTransform="scale(1.5)" />
  </defs>
  <rect
     style="opacity:0.2;fill:#000000;stroke-width:5.25"
     id="rect1"
     width="84"
     height="84"
     x="6"
     y="7"
     ry="18" />
  <rect
     style="fill:url(#linearGradient4);stroke-width:3"
     id="rect2"
     width="84"
     height="84"
     x="6"
     y="6"
     ry="18" />
  <path
     d="m 40.712324,25.5 c -0.705267,2.263376 -0.837595,2.155128 -1.05504,4.574385 -1.123276,1.004937 -1.273814,2.147986 -1.22462,3.259341 0.05326,1.206756 0.885635,1.99444 1.861402,2.049812 1.210555,-0.0039 1.915515,-1.194735 2.027217,-2.351252 0.130861,-1.355925 -0.102449,-2.23743 -1.073889,-2.935293 -0.02533,-1.834698 -0.10176,-2.272461 -0.53507,-4.596993 z m -5.599292,2.283421 c -0.705267,2.263376 -0.837614,2.155144 -1.055057,4.574383 -1.123278,1.004938 -1.273797,2.148009 -1.224598,3.259365 0.05326,1.206751 0.881851,1.99444 1.857639,2.049809 1.210554,-0.0039 1.915496,-1.194739 2.027199,-2.351255 0.130845,-1.35592 -0.09869,-2.241207 -1.070126,-2.939069 -0.02533,-1.834701 -0.101745,-2.2687 -0.535057,-4.593233 z m 10.889613,0 c -0.433307,2.324532 -0.509529,2.758532 -0.535052,4.593233 -0.971446,0.697861 -1.200986,1.583149 -1.070127,2.939068 0.111705,1.156517 0.816645,2.347397 2.027199,2.351256 0.975788,-0.05537 1.804373,-0.843058 1.857639,-2.04981 0.04918,-1.111356 -0.10134,-2.254426 -1.224618,-3.259364 -0.217447,-2.419239 -0.349765,-2.311007 -1.055041,-4.574383 z m 5.7877,3.858467 c -0.433305,2.32453 -0.509529,2.75853 -0.535056,4.593231 -0.971445,0.697861 -1.200985,1.58315 -1.070126,2.939071 0.111704,1.156515 0.816644,2.347395 2.027204,2.35125 0.975784,-0.05538 1.80437,-0.843055 1.857636,-2.049807 0.04919,-1.111354 -0.101324,-2.254424 -1.224617,-3.259363 -0.217447,-2.419238 -0.349765,-2.311008 -1.055041,-4.574382 z m -22.502689,0.670713 c -0.705269,2.263377 -0.837614,2.155131 -1.055055,4.574388 -1.123277,1.004937 -1.273796,2.144226 -1.2246,3.25558 0.05326,1.206752 0.885613,1.998202 1.861396,2.053571 1.210559,-0.0039 1.9155,-1.198499 2.027204,-2.355017 0.13086,-1.355923 -0.10245,-2.237425 -1.073889,-2.935285 -0.02533,-1.8347 -0.101745,-2.268702 -0.535056,-4.593237 z m 10.799172,5.983635 c -1.793397,0.0311 -2.949218,1.001773 -5.870598,3.364852 -4.033872,2.468141 -5.243926,3.831629 -5.301606,7.449402 -0.06384,3.999647 5.111,5.28851 9.276889,3.515564 1.269896,-0.540414 4.008251,-0.586023 5.471186,0.05653 3.039835,0.983811 8.429897,0.348228 8.51575,-4.031786 0.172751,-3.670291 -2.165391,-4.708293 -5.716104,-6.989706 -2.123062,-2.06449 -3.181576,-3.223342 -6.010005,-3.36109 -0.125955,-0.0061 -0.245935,-0.0059 -0.365506,-0.0038 z"
     id="path3291"
     sodipodi:nodetypes="ccccccccccccccccccccccccccccccccccccccccccccc"
     style="fill:url(#linearGradient2);stroke-width:1.92924" />
  <path
     id="path16476"
     style="fill:#d7f2fd;stroke-width:2.8125;stroke-linecap:round;stroke-linejoin:round"
     d="m 40.116211,18.002929 c -0.405484,0.0069 -0.811933,0.02659 -1.21875,0.05567 -5.398141,0.386727 -10.47604,2.706206 -14.302735,6.533203 -8.784522,8.786397 -8.784522,23.030007 0,31.816407 8.38039,8.335869 21.782162,8.765872 30.679688,0.984375 l 17.671875,17.671875 a 1.5,1.5 0 0 0 2.121094,0 1.5,1.5 0 0 0 0,-2.121095 L 57.430664,55.306641 C 65.224719,46.394694 64.779018,32.967273 56.411133,24.591796 52.085276,20.265768 46.198481,17.898534 40.116211,18.002929 Z M 40.502929,21 c 5.171417,7.8e-4 10.130756,2.055756 13.78711,5.712891 7.613251,7.614878 7.613251,19.959337 0,27.574218 -7.614881,7.613252 -19.959341,7.613252 -27.574219,0 -7.613251,-7.61488 -7.613251,-19.95934 0,-27.574218 C 30.372174,23.055756 35.331512,21.00078 40.502929,21 Z" />
</svg>
