<?xml version="1.0" encoding="UTF-8" standalone="no"?>
<!-- Created with Inkscape (http://www.inkscape.org/) -->

<svg
   width="96"
   height="96"
   viewBox="0 0 96 96.000006"
   version="1.1"
   id="svg1"
   inkscape:version="1.4.2 (ebf0e940d0, 2025-05-08)"
   sodipodi:docname="cups.svg"
   xmlns:inkscape="http://www.inkscape.org/namespaces/inkscape"
   xmlns:sodipodi="http://sodipodi.sourceforge.net/DTD/sodipodi-0.dtd"
   xmlns:xlink="http://www.w3.org/1999/xlink"
   xmlns="http://www.w3.org/2000/svg"
   xmlns:svg="http://www.w3.org/2000/svg">
  <sodipodi:namedview
     id="namedview1"
     pagecolor="#ffffff"
     bordercolor="#000000"
     borderopacity="0.25"
     inkscape:showpageshadow="2"
     inkscape:pageopacity="0.0"
     inkscape:pagecheckerboard="0"
     inkscape:deskcolor="#d1d1d1"
     inkscape:document-units="px"
     inkscape:zoom="8.28125"
     inkscape:cx="48"
     inkscape:cy="47.939623"
     inkscape:window-width="1920"
     inkscape:window-height="1011"
     inkscape:window-x="0"
     inkscape:window-y="0"
     inkscape:window-maximized="1"
     inkscape:current-layer="svg1" />
  <defs
     id="defs1">
    <linearGradient
       inkscape:collect="always"
       id="linearGradient1144">
      <stop
         style="stop-color:#adb2b9;stop-opacity:1;"
         offset="0"
         id="stop1140" />
      <stop
         style="stop-color:#e0e2e4;stop-opacity:1;"
         offset="1"
         id="stop1142" />
    </linearGradient>
    <linearGradient
       inkscape:collect="always"
       xlink:href="#linearGradient1144"
       id="linearGradient2"
       x1="48"
       y1="90"
       x2="48"
       y2="6"
       gradientUnits="userSpaceOnUse" />
    <linearGradient
       inkscape:collect="always"
       xlink:href="#4852"
       id="linearGradient4"
       x1="16"
       y1="30"
       x2="16"
       y2="2"
       gradientUnits="userSpaceOnUse"
       gradientTransform="scale(3)" />
    <linearGradient
       inkscape:collect="always"
       id="4852">
      <stop
         style="stop-color:#272727;stop-opacity:1;"
         offset="0"
         id="stop14555" />
      <stop
         style="stop-color:#5d5d5d;stop-opacity:1;"
         offset="1"
         id="stop14557" />
    </linearGradient>
  </defs>
  <rect
     style="opacity:0.2;fill:#000000;stroke-width:5.25"
     id="rect1"
     width="84"
     height="84"
     x="6"
     y="7"
     ry="18" />
  <rect
     style="fill:url(#linearGradient4);stroke-width:3"
     id="rect2"
     width="84"
     height="84"
     x="6"
     y="6"
     ry="18" />
  <path
     id="rect5611"
     style="fill:url(#linearGradient2);stroke-width:4;stroke-linecap:round;stroke-linejoin:round"
     d="M 30 20 L 30 30 L 66 30 L 66 20 L 30 20 z M 24 32 C 21.784 32 20 33.784004 20 36 L 20 52 C 20 54.215996 21.784 56 24 56 L 28 56 L 28 52 L 68 52 L 68 56 L 72 56 C 74.215996 56 76 54.215996 76 52 L 76 36 C 76 33.784004 74.215996 32 72 32 L 24 32 z M 28 42 L 32 42 L 32 46 L 28 46 L 28 42 z M 30 54 L 30 76 L 66 76 L 66 54 L 30 54 z " />
</svg>
