<?xml version="1.0" encoding="UTF-8" standalone="no"?>
<!-- Created with Inkscape (http://www.inkscape.org/) -->

<svg
   width="96"
   height="96"
   viewBox="0 0 96 96.000006"
   version="1.1"
   id="svg1"
   inkscape:version="1.4.2 (ebf0e940d0, 2025-05-08)"
   sodipodi:docname="desktop-environment-kde.svg"
   xmlns:inkscape="http://www.inkscape.org/namespaces/inkscape"
   xmlns:sodipodi="http://sodipodi.sourceforge.net/DTD/sodipodi-0.dtd"
   xmlns:xlink="http://www.w3.org/1999/xlink"
   xmlns="http://www.w3.org/2000/svg"
   xmlns:svg="http://www.w3.org/2000/svg">
  <sodipodi:namedview
     id="namedview1"
     pagecolor="#ffffff"
     bordercolor="#000000"
     borderopacity="0.25"
     inkscape:showpageshadow="2"
     inkscape:pageopacity="0.0"
     inkscape:pagecheckerboard="0"
     inkscape:deskcolor="#d1d1d1"
     inkscape:document-units="px"
     inkscape:zoom="8.28125"
     inkscape:cx="48"
     inkscape:cy="47.939623"
     inkscape:window-width="1920"
     inkscape:window-height="1011"
     inkscape:window-x="0"
     inkscape:window-y="0"
     inkscape:window-maximized="1"
     inkscape:current-layer="svg1" />
  <defs
     id="defs1">
    <linearGradient
       inkscape:collect="always"
       id="linearGradient1871">
      <stop
         style="stop-color:#3daee9;stop-opacity:1;"
         offset="0"
         id="stop1867" />
      <stop
         style="stop-color:#76c6ee;stop-opacity:1;"
         offset="1"
         id="stop1869" />
    </linearGradient>
    <linearGradient
       inkscape:collect="always"
       xlink:href="#linearGradient1871"
       id="linearGradient2"
       x1="48"
       y1="90"
       x2="48"
       y2="6"
       gradientUnits="userSpaceOnUse" />
    <linearGradient
       inkscape:collect="always"
       xlink:href="#4852"
       id="linearGradient4"
       x1="16"
       y1="30"
       x2="16"
       y2="2"
       gradientUnits="userSpaceOnUse"
       gradientTransform="scale(3)" />
    <linearGradient
       inkscape:collect="always"
       id="4852">
      <stop
         style="stop-color:#272727;stop-opacity:1;"
         offset="0"
         id="stop14555" />
      <stop
         style="stop-color:#5d5d5d;stop-opacity:1;"
         offset="1"
         id="stop14557" />
    </linearGradient>
  </defs>
  <rect
     style="opacity:0.2;fill:#000000;stroke-width:5.25"
     id="rect1"
     width="84"
     height="84"
     x="6"
     y="7"
     ry="18" />
  <rect
     style="fill:url(#linearGradient4);stroke-width:3"
     id="rect2"
     width="84"
     height="84"
     x="6"
     y="6"
     ry="18" />
  <path
     d="m 52,14.0001 v 0.0038 l 0.05468,-0.0038 z m 0,0.0038 -10,0.992186 V 57.558594 L 52,56 V 38 L 66,58 77.886718,54 62,36 78,18 66,14 52,34 Z M 29.402344,26.003906 c -0.123,0.015 -0.254656,0.04372 -0.347656,0.13672 l -4.265626,4.238282 c -0.17896,0.1785 -0.19796,0.448062 -0.0664,0.664062 l 4.535156,7.441408 c -1.066678,1.732238 -1.889112,3.626214 -2.445312,5.632812 l -8.3711,1.72656 C 18.187206,45.89575 18,46.138438 18,46.398438 v 5.984374 c 0,0.2535 0.19482,0.468844 0.441406,0.527344 l 8.117188,1.957032 c 0.51062,2.257598 1.373652,4.377502 2.51953,6.3125 l -4.730468,7.152344 c -0.1434,0.2175 -0.11462,0.506906 0.07032,0.691406 l 4.26172,4.234374 c 0.18,0.1785 0.45978,0.200812 0.67578,0.07032 l 7.38672,-4.453124 c 1.823398,1.089878 3.81429,1.92198 5.929688,2.449218 l 1.722656,8.238282 C 44.44854,79.8165 44.663782,80 44.925782,80 h 6.027342 c 0.252,0 0.471252,-0.16956 0.531252,-0.414062 l 2.046874,-8.289062 c 2.132198,-0.55236 4.11962,-1.445974 5.949218,-2.570314 l 7.41797,4.828126 c 0.219,0.141 0.505406,0.1151 0.691406,-0.0664 l 4.242188,-4.234376 c 0.18,-0.1785 0.221842,-0.453468 0.08984,-0.667968 l -2.894532,-4.742188 -0.94922,0.300782 c -0.138,0.042 -0.290092,-0.02212 -0.371092,-0.14062 0,0 -0.899202,-1.216514 -1.613282,-2.183594 -0.3331,-0.506878 -1.947442,-2.877582 -3.613282,-5.05078 -2.627996,5.627994 -8.272474,9.228374 -14.480468,9.234374 -8.836592,0 -16,-7.163408 -16,-16 0.0058,-6.067394 2.841006,-11.458758 8,-14.160156 V 29.375 c -1.115738,0.41474 -1.849394,0.925614 -2.871094,1.507812 l -7.382812,-4.80078 c -0.1095,-0.072 -0.22225,-0.08622 -0.34375,-0.07422 z"
     style="fill:url(#linearGradient2);stroke-width:2"
     id="path914" />
</svg>
