<?xml version="1.0" encoding="UTF-8" standalone="no"?>
<!-- Created with Inkscape (http://www.inkscape.org/) -->

<svg
   width="96"
   height="96"
   viewBox="0 0 96 96.000006"
   version="1.1"
   id="svg1"
   inkscape:version="1.4.2 (ebf0e940d0, 2025-05-08)"
   sodipodi:docname="desktop-environment-gnome.svg"
   xmlns:inkscape="http://www.inkscape.org/namespaces/inkscape"
   xmlns:sodipodi="http://sodipodi.sourceforge.net/DTD/sodipodi-0.dtd"
   xmlns:xlink="http://www.w3.org/1999/xlink"
   xmlns="http://www.w3.org/2000/svg"
   xmlns:svg="http://www.w3.org/2000/svg">
  <sodipodi:namedview
     id="namedview1"
     pagecolor="#ffffff"
     bordercolor="#000000"
     borderopacity="0.25"
     inkscape:showpageshadow="2"
     inkscape:pageopacity="0.0"
     inkscape:pagecheckerboard="0"
     inkscape:deskcolor="#d1d1d1"
     inkscape:document-units="px"
     inkscape:zoom="8.2916667"
     inkscape:cx="47.939698"
     inkscape:cy="48"
     inkscape:window-width="1920"
     inkscape:window-height="1011"
     inkscape:window-x="0"
     inkscape:window-y="0"
     inkscape:window-maximized="1"
     inkscape:current-layer="svg1" />
  <defs
     id="defs1">
    <linearGradient
       inkscape:collect="always"
       xlink:href="#4852"
       id="linearGradient4"
       x1="16"
       y1="30"
       x2="16"
       y2="2"
       gradientUnits="userSpaceOnUse"
       gradientTransform="scale(3)" />
    <linearGradient
       inkscape:collect="always"
       id="4852">
      <stop
         style="stop-color:#272727;stop-opacity:1;"
         offset="0"
         id="stop14555" />
      <stop
         style="stop-color:#5d5d5d;stop-opacity:1;"
         offset="1"
         id="stop14557" />
    </linearGradient>
    <linearGradient
       inkscape:collect="always"
       id="linearGradient1453">
      <stop
         style="stop-color:#3d7fca;stop-opacity:1;"
         offset="0"
         id="stop1449" />
      <stop
         style="stop-color:#8baee9;stop-opacity:1;"
         offset="1"
         id="stop1451" />
    </linearGradient>
    <linearGradient
       inkscape:collect="always"
       xlink:href="#linearGradient1453"
       id="linearGradient2"
       x1="16"
       y1="30"
       x2="16"
       y2="2"
       gradientUnits="userSpaceOnUse"
       gradientTransform="scale(3)" />
  </defs>
  <rect
     style="opacity:0.2;fill:#000000;stroke-width:5.25"
     id="rect1"
     width="84"
     height="84"
     x="6"
     y="7"
     ry="18" />
  <rect
     style="fill:url(#linearGradient4);stroke-width:3"
     id="rect2"
     width="84"
     height="84"
     x="6"
     y="6"
     ry="18" />
  <path
     d="M 69.50223,15 C 56.173704,15 53.678019,36 61.176057,36 68.673024,36 82.831311,15 69.50223,15 Z m -22.658205,3.046875 c -7.62306,1.020645 -4.937928,14.691684 -0.878904,14.947266 4.057374,0.2556 8.504715,-15.967907 0.878904,-14.947266 z m -12.287109,5.970702 c -0.38937,0.03378 -0.807948,0.1191 -1.253907,0.26952 -7.13667,2.407662 -1.085907,12.35157 2.912112,11.683593 3.751155,-0.625245 4.182429,-12.459918 -1.658205,-11.953125 z M 25.170198,33 c -0.637035,-0.0147 -1.323159,0.12876 -2.056641,0.474609 -5.865201,2.767164 1.975008,9.456657 5.425782,8.419923 C 31.558773,40.987002 29.629449,33.102474 25.170198,33 Z m 27.867189,3.005859 C 42.923421,35.819949 29.58414,41.330637 27.308871,52.400391 24.844668,64.379778 37.456476,81 50.611605,81 57.083247,81 64.543188,74.651634 65.93973,66.609375 66.40821,63.915747 64.066407,62.971578 61.334259,63 c -3.488208,0.0363 -7.610355,1.714641 -7.335936,3.990234 0.399576,3.315189 -1.65603,5.037828 -3.960936,5.091798 -3.146886,-0.396015 -4.689513,-2.282478 -5.103516,-5.132814 -0.563565,-7.484727 21.36234,-12.81612 19.564452,-24.421875 -0.657576,-4.244796 -5.39256,-6.409947 -11.460936,-6.521484 z"
     style="fill:url(#linearGradient2);stroke-width:3"
     id="path5913" />
</svg>
