<?xml version="1.0" encoding="UTF-8" standalone="no"?>
<!-- Created with Inkscape (http://www.inkscape.org/) -->

<svg
   width="96"
   height="96"
   viewBox="0 0 96 96.000006"
   version="1.1"
   id="svg1"
   inkscape:version="1.4.2 (ebf0e940d0, 2025-05-08)"
   sodipodi:docname="desktop-environment-xfce.svg"
   xmlns:inkscape="http://www.inkscape.org/namespaces/inkscape"
   xmlns:sodipodi="http://sodipodi.sourceforge.net/DTD/sodipodi-0.dtd"
   xmlns:xlink="http://www.w3.org/1999/xlink"
   xmlns="http://www.w3.org/2000/svg"
   xmlns:svg="http://www.w3.org/2000/svg">
  <sodipodi:namedview
     id="namedview1"
     pagecolor="#ffffff"
     bordercolor="#000000"
     borderopacity="0.25"
     inkscape:showpageshadow="2"
     inkscape:pageopacity="0.0"
     inkscape:pagecheckerboard="0"
     inkscape:deskcolor="#d1d1d1"
     inkscape:document-units="px"
     inkscape:zoom="8.1875"
     inkscape:cx="47.938931"
     inkscape:cy="48"
     inkscape:window-width="1920"
     inkscape:window-height="1011"
     inkscape:window-x="0"
     inkscape:window-y="0"
     inkscape:window-maximized="1"
     inkscape:current-layer="svg1" />
  <defs
     id="defs1">
    <linearGradient
       inkscape:collect="always"
       xlink:href="#4852"
       id="linearGradient4"
       x1="16"
       y1="30"
       x2="16"
       y2="2"
       gradientUnits="userSpaceOnUse"
       gradientTransform="scale(3)" />
    <linearGradient
       inkscape:collect="always"
       id="4852">
      <stop
         style="stop-color:#272727;stop-opacity:1;"
         offset="0"
         id="stop14555" />
      <stop
         style="stop-color:#5d5d5d;stop-opacity:1;"
         offset="1"
         id="stop14557" />
    </linearGradient>
  </defs>
  <rect
     style="opacity:0.2;fill:#000000;stroke-width:5.25"
     id="rect1"
     width="84"
     height="84"
     x="6"
     y="7"
     ry="18" />
  <rect
     style="fill:url(#linearGradient4);stroke-width:3"
     id="rect2"
     width="84"
     height="84"
     x="6"
     y="6"
     ry="18" />
  <path
     style="fill:#f9f9f9;stroke-width:3"
     d="m 11.253155,29.849277 c -0.15312,0.300036 -0.306242,0.598002 -0.453155,0.898035 2.327853,1.293255 9.036207,4.663986 12.22071,6.660765 4.024599,2.464422 9.464532,7.492581 9.892854,8.338887 -4.185996,7.289799 -2.286465,13.741572 -2.781006,14.428548 -0.355902,0.573171 -3.645933,4.185996 -2.586501,4.719849 1.051152,0.525579 2.72307,-0.300033 2.975511,-0.46143 0.525579,-0.322794 1.067709,-0.792507 0.840099,0.13656 -0.444879,1.899528 -2.464422,6.46626 0.322794,5.495802 0.339348,-0.19452 4.82538,-5.139897 5.367513,-5.309571 8.924469,2.32785 18.9063,1.260144 20.754096,0.395217 0.962181,0.06414 3.685251,1.777446 5.237154,2.594781 1.551903,0.809055 5.779284,2.836875 4.527414,-0.848373 -0.38901,-1.164963 -3.167949,-4.138404 -2.716863,-4.332912 0.993219,-0.395217 3.451431,1.026324 4.397055,1.293252 2.828601,0.792504 3.209334,-0.306243 1.423611,-2.72307 -1.762959,-2.41683 -2.027817,-2.044371 -2.586501,-3.159672 -0.436605,-0.898035 0,-1.891251 0.322794,-2.133348 0.573171,-0.436602 9.019653,-5.125416 10.999881,-6.919416 2.934129,-2.667198 0,-5.996547 -0.720084,-6.466254 -6.085524,-4.380501 -12.334515,-3.443154 -12.415212,-4.138407 -0.0414,-0.792501 -0.0246,-3.078972 -0.13038,-3.871479 -0.606279,-5.367513 -3.087252,-4.016322 -3.4266,-4.016322 -2.480976,0.38901 -1.568457,4.185999 -0.517302,7.759512 0.0807,0.912519 -0.864927,0.509025 -1.423611,-0.453156 -1.907805,-5.117139 -2.708586,-5.028162 -3.234165,-5.181285 -0.509022,-0.11382 -2.303019,0.978735 -2.271981,3.047937 0.0084,0.589722 0.711804,3.403839 0.711804,4.268766 -1.17117,1.026324 -1.229106,3.354177 -2.458212,4.20255 -3.57972,0.742842 -12.181395,-1.769169 -13.255311,-1.882977 -3.718359,-0.69525 -5.342682,2.094036 -5.940681,1.423614 C 29.503521,38.086776 22.130952,33.98148 18.938172,33.269673 17.70079,33.002745 13.52307,31.159083 12.01876,30.23001 11.776663,30.085167 11.50146,29.979636 11.234532,29.841 m 66.359322,4.850214 c -1.16496,1.25187 -0.962178,5.932404 -0.720081,5.893089 1.187724,-0.2421 1.075986,-6.269682 0.720081,-5.893089 m 3.370734,0.711807 c -0.13656,-0.380733 -3.201057,3.921138 -2.658927,5.504079 0.2421,0.686973 3.070695,-4.299804 2.658927,-5.504079 m -15.914238,7.31463 c 0.0414,-0.0414 0.08898,0.0168 0.13656,0.06414 0.355902,1.179447 0.751116,2.303022 3.095526,2.586501 0.27522,0.03312 -1.301532,0.953904 -2.383722,0.389013 -0.987012,-0.598002 -1.075986,-2.772732 -0.848373,-3.03966 m 6.079317,5.940681 c 0.21726,-0.03312 0.372456,-0.0246 0.525579,0 0.573168,0.14484 -4.159098,2.611332 -4.527417,2.271984 -0.22554,-0.21726 2.522358,-1.996779 4.010112,-2.271984 m 1.229109,1.560177 c 0.492471,0.0414 -2.739624,3.387285 -3.103806,3.039657 -0.26694,-0.2421 2.094036,-3.120354 3.103806,-3.039657"
     id="path3" />
</svg>
