<?xml version="1.0" encoding="UTF-8" standalone="no"?>
<!-- Created with Inkscape (http://www.inkscape.org/) -->

<svg
   width="96"
   height="96"
   viewBox="0 0 96 96.000006"
   version="1.1"
   id="svg1"
   inkscape:version="1.4.2 (ebf0e940d0, 2025-05-08)"
   sodipodi:docname="google-chrome-beta.svg"
   xmlns:inkscape="http://www.inkscape.org/namespaces/inkscape"
   xmlns:sodipodi="http://sodipodi.sourceforge.net/DTD/sodipodi-0.dtd"
   xmlns:xlink="http://www.w3.org/1999/xlink"
   xmlns="http://www.w3.org/2000/svg"
   xmlns:svg="http://www.w3.org/2000/svg">
  <sodipodi:namedview
     id="namedview1"
     pagecolor="#ffffff"
     bordercolor="#000000"
     borderopacity="0.25"
     inkscape:showpageshadow="2"
     inkscape:pageopacity="0.0"
     inkscape:pagecheckerboard="0"
     inkscape:deskcolor="#d1d1d1"
     inkscape:document-units="px"
     inkscape:zoom="8.1875"
     inkscape:cx="48.061069"
     inkscape:cy="48.061069"
     inkscape:window-width="1920"
     inkscape:window-height="1010"
     inkscape:window-x="0"
     inkscape:window-y="0"
     inkscape:window-maximized="1"
     inkscape:current-layer="svg1" />
  <defs
     id="defs1">
    <linearGradient
       inkscape:collect="always"
       xlink:href="#linearGradient12495"
       id="linearGradient12497"
       x1="3.7041574"
       y1="5.15939"
       x2="8.9958239"
       y2="5.15939"
       gradientUnits="userSpaceOnUse" />
    <linearGradient
       inkscape:collect="always"
       id="linearGradient12495">
      <stop
         style="stop-color:#db3328;stop-opacity:1;"
         offset="0"
         id="stop12491" />
      <stop
         style="stop-color:#e53d30;stop-opacity:1"
         offset="1"
         id="stop12493" />
    </linearGradient>
    <linearGradient
       inkscape:collect="always"
       xlink:href="#linearGradient13171"
       id="linearGradient13173"
       x1="4.4023013"
       y1="4.2994838"
       x2="5.9898009"
       y2="7.474484"
       gradientUnits="userSpaceOnUse" />
    <linearGradient
       inkscape:collect="always"
       id="linearGradient13171">
      <stop
         style="stop-color:#32a651;stop-opacity:1;"
         offset="0"
         id="stop13167" />
      <stop
         style="stop-color:#279847;stop-opacity:1"
         offset="1"
         id="stop13169" />
    </linearGradient>
    <linearGradient
       inkscape:collect="always"
       xlink:href="#4852"
       id="linearGradient4"
       x1="16"
       y1="30"
       x2="16"
       y2="2"
       gradientUnits="userSpaceOnUse"
       gradientTransform="scale(3)" />
    <linearGradient
       inkscape:collect="always"
       id="4852">
      <stop
         style="stop-color:#272727;stop-opacity:1;"
         offset="0"
         id="stop14555" />
      <stop
         style="stop-color:#5d5d5d;stop-opacity:1;"
         offset="1"
         id="stop14557" />
    </linearGradient>
  </defs>
  <rect
     style="opacity:0.2;fill:#000000;stroke-width:5.25"
     id="rect1"
     width="84"
     height="84"
     x="6"
     y="7"
     ry="18" />
  <rect
     style="fill:url(#linearGradient4);stroke-width:3"
     id="rect2"
     width="84"
     height="84"
     x="6"
     y="6"
     ry="18" />
  <g
     id="g13900"
     transform="matrix(6.6697542,0,0,6.6697542,5.6470596,5.6470596)">
    <path
       d="m 6.3499908,1.8520833 c -1.6648002,0 -3.1172325,0.9051142 -3.8949803,2.2495046 L 2.6017322,6.7248018 4.4023011,7.4744838 6.3499908,6.3500302 V 4.1010567 H 10.244704 C 9.4668234,2.7569983 8.014591,1.8520833 6.3499908,1.8520833 Z"
       style="fill:url(#linearGradient12497);fill-opacity:1;stroke-width:0.0175699"
       id="path1309" />
    <path
       d="m 1.8521097,6.3500302 c 0,2.4841174 2.013697,4.4978798 4.4978805,4.4978798 L 8.322717,9.7933342 8.2976798,7.4744838 6.3499902,6.3500302 4.4023011,7.4744838 2.4550101,4.1015879 C 2.0722656,4.7632044 1.8520833,5.5305796 1.8520833,6.3499639"
       style="fill:url(#linearGradient13173);fill-opacity:1;stroke-width:0.0175699"
       id="path1449"
       sodipodi:nodetypes="cccccccc" />
    <path
       d="m 6.3500375,6.3500302 1.947689,1.1244536 -1.947689,3.3734262 c 2.4841163,0 4.4978795,-2.0137624 4.4978795,-4.4978798 0,-0.819517 -0.220254,-1.5871712 -0.603213,-2.2489735 H 6.3499908 Z"
       style="fill:#fbbf12;stroke-width:0.0175699"
       id="path1829" />
    <path
       d="m 8.5990112,6.3500302 c 0,1.2420585 -1.0069151,2.2489734 -2.2489737,2.2489734 -1.242059,0 -2.2489739,-1.0069149 -2.2489739,-2.2489734 0,-1.2420588 1.0069149,-2.2489735 2.2489739,-2.2489735 1.2420586,0 2.2489737,1.0069147 2.2489737,2.2489735"
       style="fill:#ffffff;stroke-width:0.0175699"
       id="path2229" />
    <path
       d="m 8.1492041,6.3500006 c 0,0.9936381 -0.8055294,1.7991654 -1.7991667,1.7991654 -0.9936381,0 -1.7991668,-0.8055273 -1.7991668,-1.7991654 0,-0.9936377 0.8055287,-1.7991663 1.7991668,-1.7991663 0.9936373,0 1.7991667,0.8055286 1.7991667,1.7991663"
       style="fill:#4688f4;fill-opacity:1;stroke-width:0.0172995"
       id="path2029" />
  </g>
  <path
     id="path520"
     style="fill:#414342;fill-opacity:1;stroke-width:3;stroke-linecap:round;stroke-linejoin:round"
     d="M 19.419,57 A 30,29.999977 0 0 0 48.001032,78 30,29.999977 0 0 0 76.583064,57 Z" />
  <path
     id="path727"
     style="font-size:4px;font-family:'Google Sans';-inkscape-font-specification:'Google Sans';text-align:center;text-anchor:middle;fill:#ffffff;stroke-width:0.563274;stroke-linecap:round;stroke-linejoin:round"
     d="m 33.93726,60 v 10.562241 h 3.99867 c 0.560703,0 1.081428,-0.12609 1.563441,-0.381852 0.491847,-0.25575 0.881907,-0.606606 1.167177,-1.059108 0.29511,-0.462336 0.4467,-0.978489 0.4467,-1.549032 0,-0.58038 -0.16989,-1.087389 -0.504339,-1.520214 -0.334458,-0.432825 -0.765669,-0.737946 -1.296867,-0.915009 v -0.05763 c 0.442665,-0.20658 0.788937,-0.502548 1.044702,-0.886191 0.26559,-0.38364 0.396261,-0.835776 0.396261,-1.3473 0,-0.541029 -0.13524,-1.022544 -0.410676,-1.455369 -0.27543,-0.432825 -0.651771,-0.777159 -1.123947,-1.023084 C 38.756046,60.121512 38.265387,60 37.734192,60 Z m 17.572518,0.915012 v 2.125416 h -1.311276 v 1.138356 h 1.311276 v 4.409343 c 0,0.354129 0.05292,0.654675 0.15129,0.9006 0.09837,0.24591 0.24276,0.461529 0.439491,0.648432 0.17706,0.16722 0.39267,0.2979 0.648432,0.396267 0.26559,0.09837 0.552429,0.15129 0.85737,0.15129 0.2361,0 0.428832,-0.0138 0.576387,-0.04323 0.15738,-0.0294 0.313551,-0.08244 0.461106,-0.15129 V 69.26538 c -0.26559,0.16722 -0.543279,0.25215 -0.828552,0.25215 -0.354129,0 -0.627243,-0.10779 -0.81414,-0.324213 -0.15741,-0.19674 -0.23775,-0.501858 -0.23775,-0.915012 v -4.099536 h 1.830018 v -1.138356 h -1.830018 v -2.125416 z m -16.33329,0.28098 h 2.615343 c 0.344292,0 0.644838,0.08493 0.900603,0.25218 0.26559,0.16722 0.467484,0.382833 0.605199,0.648432 0.14757,0.25575 0.21615,0.51252 0.21615,0.778119 0,0.27543 -0.06858,0.548544 -0.21615,0.814143 -0.14754,0.25575 -0.358584,0.466794 -0.63402,0.634023 -0.26559,0.16722 -0.575289,0.25215 -0.929421,0.25215 h -2.557704 z m 10.699131,1.606671 c -0.727932,0 -1.365609,0.1836 -1.916475,0.547563 -0.550869,0.363969 -0.977511,0.852684 -1.282455,1.462578 -0.29511,0.609891 -0.4467,1.275 -0.4467,2.002935 0,0.757443 0.16074,1.44348 0.475518,2.053368 0.324618,0.600054 0.769551,1.06785 1.340094,1.412142 C 44.616144,70.62555 45.258393,70.8 45.976488,70.8 c 0.786957,0 1.459272,-0.17904 2.010141,-0.533154 0.560706,-0.354132 1.001064,-0.831072 1.325685,-1.44096 l -1.059111,-0.518748 c -0.521355,0.905001 -1.262259,1.354509 -2.226282,1.354509 -0.413151,0 -0.812355,-0.09867 -1.195998,-0.29541 -0.373803,-0.19674 -0.683493,-0.485505 -0.929418,-0.878988 -0.24591,-0.393477 -0.388368,-0.877617 -0.417879,-1.448163 h 5.951169 c 0.0294,-0.10821 0.04323,-0.2343 0.04323,-0.381852 0,-0.747609 -0.15159,-1.415352 -0.4467,-1.995732 -0.28527,-0.580383 -0.698193,-1.029888 -1.239228,-1.354506 -0.541029,-0.334452 -1.178706,-0.504336 -1.916478,-0.504333 z m 12.896601,0 c -0.629562,0 -1.207794,0.12609 -1.729152,0.381855 -0.511524,0.25575 -0.9153,0.613809 -1.210407,1.066311 l 0.95103,0.706071 c 0.20658,-0.324621 0.481629,-0.572235 0.835761,-0.749301 0.354129,-0.1869 0.744189,-0.28098 1.167177,-0.28098 0.600057,0 1.097919,0.16725 1.491396,0.511539 0.393477,0.334458 0.590793,0.786594 0.590793,1.347297 v 0.453903 c -0.20658,-0.12789 -0.507123,-0.24024 -0.9006,-0.338625 -0.38364,-0.09837 -0.801135,-0.14409 -1.253637,-0.14409 -0.914835,0 -1.676664,0.22476 -2.276718,0.67725 -0.600054,0.442668 -0.9006,1.062048 -0.9006,1.858842 0,0.48201 0.12414,0.913221 0.36024,1.296864 0.2361,0.373803 0.568641,0.66978 1.001466,0.886191 0.432828,0.21642 0.926118,0.324213 1.476987,0.324213 0.541035,0 1.022544,-0.12609 1.455369,-0.381852 0.432828,-0.25578 0.763443,-0.565455 0.979854,-0.929421 h 0.05763 v 1.073517 h 1.195998 V 65.79987 c 0,-0.924678 -0.29598,-1.651863 -0.886191,-2.183058 -0.58038,-0.541032 -1.383363,-0.814143 -2.406405,-0.814143 z m -12.91101,1.138356 c 0.511524,0 0.933588,0.10779 1.268046,0.324219 0.344292,0.21642 0.599115,0.477747 0.756504,0.792528 0.15738,0.314784 0.2397,0.636252 0.25938,0.951033 h -4.589463 c 0.12789,-0.619728 0.39642,-1.117587 0.799734,-1.491393 0.413151,-0.383643 0.915585,-0.576387 1.505799,-0.576387 z m -10.684722,1.815615 h 2.773848 c 0.373806,0 0.701787,0.08952 0.98706,0.26658 0.28527,0.16722 0.512655,0.391983 0.670044,0.677253 0.15738,0.27543 0.23055,0.562263 0.23055,0.857373 0,0.29511 -0.07317,0.579306 -0.23055,0.864576 -0.14754,0.27543 -0.363159,0.50739 -0.648432,0.684456 -0.27543,0.17706 -0.596901,0.25938 -0.951033,0.25938 h -2.831487 z m 23.725419,1.015881 c 0.38364,0 0.750837,0.05292 1.095129,0.15129 0.344292,0.09837 0.635694,0.22446 0.871782,0.381855 0,0.432825 -0.10779,0.832029 -0.324216,1.195998 -0.21642,0.363966 -0.507816,0.648162 -0.871779,0.864573 -0.363969,0.21642 -0.758601,0.331422 -1.181592,0.331422 -0.482007,0 -0.881211,-0.13329 -1.195998,-0.389052 -0.314781,-0.25578 -0.468312,-0.588318 -0.468312,-1.001472 0,-0.452499 0.16725,-0.824268 0.511542,-1.109538 0.354132,-0.28527 0.874857,-0.425082 1.563444,-0.425082 z" />
</svg>
