<?xml version="1.0" encoding="UTF-8" standalone="no"?>
<!-- Created with Inkscape (http://www.inkscape.org/) -->

<svg
   width="96"
   height="96"
   viewBox="0 0 96 96.000006"
   version="1.1"
   id="svg1"
   inkscape:version="1.4.2 (ebf0e940d0, 2025-05-08)"
   sodipodi:docname="kakaotalk.svg"
   xmlns:inkscape="http://www.inkscape.org/namespaces/inkscape"
   xmlns:sodipodi="http://sodipodi.sourceforge.net/DTD/sodipodi-0.dtd"
   xmlns:xlink="http://www.w3.org/1999/xlink"
   xmlns="http://www.w3.org/2000/svg"
   xmlns:svg="http://www.w3.org/2000/svg">
  <sodipodi:namedview
     id="namedview1"
     pagecolor="#ffffff"
     bordercolor="#000000"
     borderopacity="0.25"
     inkscape:showpageshadow="2"
     inkscape:pageopacity="0.0"
     inkscape:pagecheckerboard="0"
     inkscape:deskcolor="#d1d1d1"
     inkscape:document-units="px"
     inkscape:zoom="8.2916667"
     inkscape:cx="47.939698"
     inkscape:cy="48"
     inkscape:window-width="1920"
     inkscape:window-height="1011"
     inkscape:window-x="0"
     inkscape:window-y="0"
     inkscape:window-maximized="1"
     inkscape:current-layer="svg1" />
  <defs
     id="defs1">
    <linearGradient
       inkscape:collect="always"
       xlink:href="#4852"
       id="linearGradient4"
       x1="16"
       y1="30"
       x2="16"
       y2="2"
       gradientUnits="userSpaceOnUse"
       gradientTransform="scale(3)" />
    <linearGradient
       inkscape:collect="always"
       id="4852">
      <stop
         style="stop-color:#272727;stop-opacity:1;"
         offset="0"
         id="stop14555" />
      <stop
         style="stop-color:#5d5d5d;stop-opacity:1;"
         offset="1"
         id="stop14557" />
    </linearGradient>
    <linearGradient
       inkscape:collect="always"
       id="linearGradient1511">
      <stop
         style="stop-color:#ffb251;stop-opacity:1;"
         offset="0"
         id="stop1507" />
      <stop
         style="stop-color:#ffde75;stop-opacity:1;"
         offset="1"
         id="stop1509" />
    </linearGradient>
    <linearGradient
       inkscape:collect="always"
       xlink:href="#linearGradient1511"
       id="linearGradient2"
       x1="48"
       y1="90"
       x2="48"
       y2="6"
       gradientUnits="userSpaceOnUse" />
  </defs>
  <rect
     style="opacity:0.2;fill:#000000;stroke-width:5.25"
     id="rect1"
     width="84"
     height="84"
     x="6"
     y="7"
     ry="18" />
  <rect
     style="fill:url(#linearGradient4);stroke-width:3"
     id="rect2"
     width="84"
     height="84"
     x="6"
     y="6"
     ry="18" />
  <path
     id="path12794"
     style="fill:url(#linearGradient2);stroke-width:1.5"
     d="m 48,18 c -18.225396,0 -33,12.088312 -33,27 0.0099,7.938856 4.289698,15.471814 11.701173,20.595702 L 22.5,81 37.250976,70.464843 C 40.705042,71.461038 44.337699,71.979848 48,72 66.225396,72 81,59.911687 81,45 81,30.088312 66.225396,18 48,18 Z M 22.5,36 h 9 c 0.831,0 1.5,0.669003 1.5,1.5 0,0.831 -0.669,1.5 -1.5,1.5 h -3 v 13.5 c 0,0.831 -0.669,1.5 -1.5,1.5 -0.830997,0 -1.5,-0.669 -1.5,-1.5 V 39 h -3 C 21.669001,39 21,38.331 21,37.5 21,36.669003 21.669001,36 22.5,36 Z m 17.197266,0 c 0.0192,-7.44e-4 0.03921,-6e-6 0.05859,0 0.0282,1.5e-4 0.05691,0.0013 0.08496,0.003 0.002,1.11e-4 0.0039,-1.17e-4 0.006,0 0.0108,7.5e-4 0.0213,0.0021 0.03222,0.003 0.0333,0.0027 0.06621,0.0066 0.09963,0.0117 0.0198,0.003 0.03909,0.0078 0.05859,0.0117 0.0285,0.0054 0.057,0.0105 0.08496,0.0177 0.0087,0.0021 0.0177,0.0033 0.0264,0.0057 0.03111,0.0084 0.06069,0.0192 0.09081,0.0294 0.0465,0.0156 0.09081,0.03309 0.13476,0.05274 0.04452,0.0198 0.08712,0.04068 0.12891,0.06447 0.386469,0.21993 0.650082,0.599778 0.729492,1.028322 l 5.226564,15.020505 c 0.21507,0.802683 -0.25785,1.621839 -1.060548,1.836915 -0.802683,0.21507 -1.621836,-0.25785 -1.836912,-1.060548 L 42.539064,49.5 h -5.566407 l -1.02246,3.524412 c -0.21507,0.802689 -1.034232,1.275627 -1.836915,1.060548 -0.802686,-0.21507 -1.275627,-1.034232 -1.060548,-1.836915 l 5.220705,-15.008787 c 0.07671,-0.433962 0.34458,-0.818133 0.735351,-1.04004 0.04059,-0.0231 0.08274,-0.04503 0.12597,-0.06447 0.04113,-0.0186 0.08259,-0.0348 0.12597,-0.0498 0.0105,-0.0039 0.0219,-0.0054 0.03222,-0.009 0.0237,-0.0075 0.04617,-0.0171 0.07032,-0.0234 0.009,-0.0024 0.0174,-0.0036 0.0264,-0.006 0.04104,-0.0105 0.08103,-0.0195 0.12303,-0.0264 0.006,-10e-4 0.0114,-0.0021 0.0177,-0.003 0.03297,-0.0048 0.06615,-0.009 0.09963,-0.0117 0.0105,-9e-4 0.0216,-0.0023 0.03222,-0.003 0.002,-1.2e-4 0.0039,1.14e-4 0.0057,0 0.0096,-6e-4 0.0195,-0.0025 0.0294,-0.003 z M 51,36 c 0.830997,0 1.5,0.669003 1.5,1.5 V 51 H 60 c 0.830997,0 1.5,0.669003 1.5,1.5 0,0.831 -0.669003,1.5 -1.5,1.5 h -9 c -0.831,0 -1.5,-0.669 -1.5,-1.5 v -15 C 49.5,36.669003 50.169,36 51,36 Z m 15,0 c 0.830997,0 1.5,0.669003 1.5,1.5 v 4.819338 l 4.851561,-5.783205 c 0.534156,-0.636582 1.475724,-0.718725 2.112306,-0.18456 0.636582,0.534156 0.731721,1.489788 0.18456,2.115234 l -5.648436,6.457032 5.648436,6.459957 c 0.534156,0.636585 0.452013,1.581078 -0.18456,2.115237 -0.636582,0.534156 -1.57815,0.45201 -2.112306,-0.18456 L 67.5,47.53125 V 52.5 c 0,0.831 -0.669003,1.5 -1.5,1.5 -0.830997,0 -1.5,-0.669 -1.5,-1.5 v -15 C 64.5,36.669003 65.169003,36 66,36 Z M 39.755859,41.399415 37.842774,46.5 h 3.826173 z"
     sodipodi:nodetypes="scccccsssssscssscsssccscccccccccccsccccsccccccccccccsccsscsssssssssccscccsccssssscccc" />
</svg>
