<?xml version="1.0" encoding="UTF-8" standalone="no"?>
<!-- Created with Inkscape (http://www.inkscape.org/) -->

<svg
   width="96"
   height="96"
   viewBox="0 0 96 96.000006"
   version="1.1"
   id="svg1"
   inkscape:version="1.4.2 (ebf0e940d0, 2025-05-08)"
   sodipodi:docname="kmines.svg"
   xmlns:inkscape="http://www.inkscape.org/namespaces/inkscape"
   xmlns:sodipodi="http://sodipodi.sourceforge.net/DTD/sodipodi-0.dtd"
   xmlns:xlink="http://www.w3.org/1999/xlink"
   xmlns="http://www.w3.org/2000/svg"
   xmlns:svg="http://www.w3.org/2000/svg">
  <sodipodi:namedview
     id="namedview1"
     pagecolor="#ffffff"
     bordercolor="#000000"
     borderopacity="0.25"
     inkscape:showpageshadow="2"
     inkscape:pageopacity="0.0"
     inkscape:pagecheckerboard="0"
     inkscape:deskcolor="#d1d1d1"
     inkscape:document-units="px"
     inkscape:zoom="8.28125"
     inkscape:cx="48"
     inkscape:cy="48"
     inkscape:window-width="1920"
     inkscape:window-height="1010"
     inkscape:window-x="0"
     inkscape:window-y="0"
     inkscape:window-maximized="1"
     inkscape:current-layer="svg1" />
  <defs
     id="defs1">
    <linearGradient
       id="linearGradient5"
       inkscape:collect="always">
      <stop
         style="stop-color:#cfcfcf;stop-opacity:1;"
         offset="0"
         id="stop4" />
      <stop
         style="stop-color:#f8f8f8;stop-opacity:1;"
         offset="1"
         id="stop5" />
    </linearGradient>
    <linearGradient
       inkscape:collect="always"
       xlink:href="#4852"
       id="linearGradient4"
       x1="16"
       y1="30"
       x2="16"
       y2="2"
       gradientUnits="userSpaceOnUse"
       gradientTransform="scale(3)" />
    <linearGradient
       inkscape:collect="always"
       id="4852">
      <stop
         style="stop-color:#272727;stop-opacity:1;"
         offset="0"
         id="stop14555" />
      <stop
         style="stop-color:#5d5d5d;stop-opacity:1;"
         offset="1"
         id="stop14557" />
    </linearGradient>
    <linearGradient
       inkscape:collect="always"
       xlink:href="#linearGradient5"
       id="linearGradient15762"
       x1="32"
       y1="52"
       x2="32"
       y2="12"
       gradientUnits="userSpaceOnUse"
       gradientTransform="matrix(1.5,0,0,1.5,6.135e-4,0)" />
  </defs>
  <rect
     style="opacity:0.2;fill:#000000;stroke-width:5.25"
     id="rect1"
     width="84"
     height="84"
     x="6"
     y="7"
     ry="18" />
  <rect
     style="fill:url(#linearGradient4);stroke-width:3"
     id="rect2"
     width="84"
     height="84"
     x="6"
     y="6"
     ry="18" />
  <path
     id="path2634"
     style="fill:url(#linearGradient15762);stroke-width:6;stroke-linecap:round;stroke-linejoin:round"
     d="m 48.000615,18 c -1.661991,0 -3,1.338009 -3,3 v 6 c 0,1.661991 1.338009,3 3,3 1.661988,0 2.999997,-1.338009 2.999997,-3 v -6 c 0,-1.661991 -1.338009,-3 -2.999997,-3 z m 5.999997,6.767577 V 27 c 0,3.323979 -2.676021,6 -5.999997,6 -3.323979,0 -6,-2.676021 -6,-6 v -2.191407 c -4.202427,1.095663 -8.031738,3.311097 -11.074218,6.410157 l 1.886718,1.083984 c 2.878647,1.661991 3.859254,5.318619 2.197266,8.197266 -1.661991,2.878647 -5.318619,3.859251 -8.197266,2.197266 L 24.897099,41.589843 C 24.310194,43.67628 24.008625,45.832605 24.000615,48 c 0.0081,2.167395 0.309579,4.32372 0.896484,6.410157 l 1.916016,-1.107423 C 27.712689,52.783365 28.688154,52.526112 29.65491,52.5 c 2.126871,-0.05745 4.212852,1.02093 5.355471,3 1.661988,2.878647 0.681381,6.535272 -2.197266,8.197266 l -1.886718,1.083984 c 3.04248,3.09906 6.871791,5.314494 11.074218,6.410157 V 69 c 0,-3.323979 2.676021,-6 6,-6 3.323976,0 5.999997,2.676021 5.999997,6 v 2.191407 C 58.203039,70.095744 62.03235,67.88031 65.07483,64.78125 L 63.188112,63.697266 C 60.309468,62.035272 59.328861,58.378647 60.990846,55.5 c 1.142622,-1.97907 3.228597,-3.05745 5.355471,-3 0.966753,0.0261 1.942221,0.28335 2.841795,0.802734 l 1.916016,1.107423 C 71.691033,52.32372 71.992605,50.167395 72.000612,48 c -0.0027,-2.168688 -0.29643,-4.327011 -0.878907,-6.416016 l -1.933593,1.113282 C 66.309468,44.359251 62.65284,43.378647 60.990846,40.5 59.328861,37.621353 60.309468,33.964725 63.188112,32.302734 l 1.933593,-1.113282 C 62.06649,28.079436 58.22184,25.857426 54.000612,24.767577 Z M 24.410769,31.505859 C 23.450865,31.572969 22.539513,32.10042 22.020144,33 c -0.830997,1.439331 -0.343623,3.270567 1.095705,4.101564 l 5.197266,3 C 29.75244,40.932558 31.583679,40.439328 32.414679,39 33.24567,37.560672 32.752443,35.729436 31.313115,34.898436 l -5.197266,-3 c -0.539745,-0.311619 -1.129134,-0.432837 -1.70508,-0.392577 z m 46.751952,0 c -0.43569,0.03255 -0.878391,0.15885 -1.283202,0.392577 l -5.191407,3 c -1.439328,0.831 -1.932558,2.662236 -1.101561,4.101564 0.831,1.439328 2.662236,1.932558 4.101561,1.101564 l 5.191407,-3 C 74.318847,36.270567 74.812083,34.439331 73.98108,33 c -0.519369,-0.89958 -1.430712,-1.427037 -2.390625,-1.494141 -0.144,-0.0099 -0.28251,-0.0108 -0.427734,0 z M 48.000615,39 c 4.970547,0 8.999997,4.02945 8.999997,9 0,4.97055 -4.02945,9 -8.999997,9 -4.97055,0 -9,-4.02945 -9,-9 0,-4.97055 4.02945,-9 9,-9 z m 0,3 c -3.313701,0 -6,2.686299 -6,6 0,3.313701 2.686299,6 6,6 3.313698,0 5.999997,-2.686299 5.999997,-6 0,-3.313701 -2.686299,-6 -5.999997,-6 z M 29.590458,55.505859 c -0.43569,0.03255 -0.872535,0.15885 -1.277343,0.392577 l -5.197266,3 c -1.439328,0.831 -1.926702,2.662236 -1.095705,4.101564 0.830994,1.439328 2.656377,1.932558 4.095705,1.101564 l 5.197266,-3 c 1.439328,-0.831 1.932558,-2.662236 1.101564,-4.101564 -0.519375,-0.89958 -1.430721,-1.42704 -2.390631,-1.494141 -0.14397,-0.0099 -0.28836,-0.0108 -0.43359,0 z m 36.386718,0 C 65.017272,55.572969 64.105923,56.10042 63.586551,57 c -0.830994,1.439328 -0.337764,3.270564 1.101561,4.101564 l 5.191407,3 c 1.439328,0.830994 3.27057,0.337764 4.101561,-1.101564 0.831003,-1.439328 0.337767,-3.270564 -1.101561,-4.101564 l -5.191407,-3 C 67.148367,55.586817 66.553119,55.465599 65.977176,55.505859 Z M 48.000615,66 c -1.661991,0 -3,1.338012 -3,3 v 6 c 0,1.661991 1.338009,3 3,3 1.661988,0 2.999997,-1.338009 2.999997,-3 v -6 c 0,-1.661988 -1.338009,-3 -2.999997,-3 z" />
</svg>
