<?xml version="1.0" encoding="UTF-8" standalone="no"?>
<!-- Created with Inkscape (http://www.inkscape.org/) -->

<svg
   width="96"
   height="96"
   viewBox="0 0 96 96.000006"
   version="1.1"
   id="svg1"
   inkscape:version="1.4.2 (ebf0e940d0, 2025-05-08)"
   sodipodi:docname="knights.svg"
   xmlns:inkscape="http://www.inkscape.org/namespaces/inkscape"
   xmlns:sodipodi="http://sodipodi.sourceforge.net/DTD/sodipodi-0.dtd"
   xmlns:xlink="http://www.w3.org/1999/xlink"
   xmlns="http://www.w3.org/2000/svg"
   xmlns:svg="http://www.w3.org/2000/svg">
  <sodipodi:namedview
     id="namedview1"
     pagecolor="#ffffff"
     bordercolor="#000000"
     borderopacity="0.25"
     inkscape:showpageshadow="2"
     inkscape:pageopacity="0.0"
     inkscape:pagecheckerboard="0"
     inkscape:deskcolor="#d1d1d1"
     inkscape:document-units="px"
     inkscape:zoom="8.28125"
     inkscape:cx="48"
     inkscape:cy="48"
     inkscape:window-width="1920"
     inkscape:window-height="1010"
     inkscape:window-x="0"
     inkscape:window-y="0"
     inkscape:window-maximized="1"
     inkscape:current-layer="svg1" />
  <defs
     id="defs1">
    <linearGradient
       inkscape:collect="always"
       id="linearGradient1606">
      <stop
         style="stop-color:#eaebed;stop-opacity:1;"
         offset="0"
         id="stop1602" />
      <stop
         style="stop-color:#f9fafa;stop-opacity:1;"
         offset="1"
         id="stop1604" />
    </linearGradient>
    <linearGradient
       inkscape:collect="always"
       xlink:href="#linearGradient1606"
       id="linearGradient4"
       x1="16"
       y1="30"
       x2="16"
       y2="2"
       gradientUnits="userSpaceOnUse"
       gradientTransform="scale(3)" />
    <linearGradient
       inkscape:collect="always"
       xlink:href="#4852"
       id="linearGradient1091"
       x1="8"
       y1="16"
       x2="8"
       y2="0"
       gradientUnits="userSpaceOnUse"
       gradientTransform="matrix(5.25,0,0,5.25,6,6)" />
    <linearGradient
       inkscape:collect="always"
       id="4852">
      <stop
         style="stop-color:#272727;stop-opacity:1;"
         offset="0"
         id="stop14555" />
      <stop
         style="stop-color:#5d5d5d;stop-opacity:1;"
         offset="1"
         id="stop14557" />
    </linearGradient>
  </defs>
  <rect
     style="opacity:0.2;fill:#000000;stroke-width:5.25"
     id="rect1"
     width="84"
     height="84"
     x="6"
     y="7"
     ry="18" />
  <path
     id="rect2"
     style="fill:url(#linearGradient4);stroke-width:3"
     d="m 24,6 h 48 l 18,18 v 48 c 0,9.972 -8.028,18 -18,18 H 24 L 6,72 V 24 C 6,14.028 14.028,6 24,6 Z"
     sodipodi:nodetypes="sccssccss" />
  <path
     id="path530"
     style="fill:url(#linearGradient1091);fill-opacity:1;stroke-width:2.625;stroke-linecap:round;stroke-linejoin:round"
     d="M 48,6 V 48 H 90 V 24 C 90,14.028 81.972,6 72,6 Z m 0,42 H 6 v 24 c 0,9.972 8.028,18 18,18 h 24 z" />
  <path
     d="m 25.503564,52.000061 -0.0072,4.198817 L 15,62.995893 l 2.052006,4.312301 4.416669,-1.666019 c 0.798894,1.058025 2.01384,1.674848 3.299193,1.674988 2.208819,-0.0027 3.575319,-1.919998 3.732135,-4.234569 v -0.0018 7.275124 c -1.445786,1.103443 -2.788554,2.269769 -5.015844,2.977392 -3.288039,1.044632 -5.54688,2.446801 -5.547312,6.048706 L 20.869419,84 h 13.43527 l 4.695627,-4.524959 V 68.41216 c 0,-7.207893 -2.561812,-12.709931 -9.421126,-12.709931 -0.07344,0.003 -0.14688,0.0067 -0.22032,0.01128 0.0108,-0.357235 -0.0216,-0.10435 -0.09678,-0.452952 C 28.846503,53.355424 27.363822,52.003633 25.503627,52 Z"
     style="fill:#f2f2f2;fill-opacity:1;stroke-width:3.02371"
     id="path12192"
     sodipodi:nodetypes="cccccccccsccccsccccc" />
</svg>
