<?xml version="1.0" encoding="UTF-8" standalone="no"?>
<!-- Created with Inkscape (http://www.inkscape.org/) -->

<svg
   width="96"
   height="96"
   viewBox="0 0 96 96.000006"
   version="1.1"
   id="svg1"
   inkscape:version="1.4.2 (ebf0e940d0, 2025-05-08)"
   sodipodi:docname="konqueror.svg"
   xmlns:inkscape="http://www.inkscape.org/namespaces/inkscape"
   xmlns:sodipodi="http://sodipodi.sourceforge.net/DTD/sodipodi-0.dtd"
   xmlns:xlink="http://www.w3.org/1999/xlink"
   xmlns="http://www.w3.org/2000/svg"
   xmlns:svg="http://www.w3.org/2000/svg">
  <sodipodi:namedview
     id="namedview1"
     pagecolor="#ffffff"
     bordercolor="#000000"
     borderopacity="0.25"
     inkscape:showpageshadow="2"
     inkscape:pageopacity="0.0"
     inkscape:pagecheckerboard="0"
     inkscape:deskcolor="#d1d1d1"
     inkscape:document-units="px"
     inkscape:zoom="8.2916667"
     inkscape:cx="47.939698"
     inkscape:cy="48"
     inkscape:window-width="1920"
     inkscape:window-height="1011"
     inkscape:window-x="0"
     inkscape:window-y="0"
     inkscape:window-maximized="1"
     inkscape:current-layer="svg1" />
  <defs
     id="defs1">
    <linearGradient
       inkscape:collect="always"
       xlink:href="#4852"
       id="linearGradient4"
       x1="16"
       y1="30"
       x2="16"
       y2="2"
       gradientUnits="userSpaceOnUse"
       gradientTransform="scale(3)" />
    <linearGradient
       inkscape:collect="always"
       id="4852">
      <stop
         style="stop-color:#272727;stop-opacity:1;"
         offset="0"
         id="stop14555" />
      <stop
         style="stop-color:#5d5d5d;stop-opacity:1;"
         offset="1"
         id="stop14557" />
    </linearGradient>
  </defs>
  <rect
     style="opacity:0.2;fill:#000000;stroke-width:5.25"
     id="rect1"
     width="84"
     height="84"
     x="6"
     y="7"
     ry="18" />
  <rect
     style="fill:url(#linearGradient4);stroke-width:3"
     id="rect2"
     width="84"
     height="84"
     x="6"
     y="6"
     ry="18" />
  <circle
     style="fill:#3daee9;fill-opacity:1;stroke-width:2.18182;stroke-linecap:round"
     id="path1"
     cx="48"
     cy="48"
     r="24" />
  <path
     id="path3699"
     style="opacity:0.6;fill:#ffffff;stroke-width:3;stroke-linecap:round;stroke-linejoin:round"
     d="m 57.857988,16.365 c -1.139043,1.662564 -4.218003,5.162073 -6.21579,7.166865 l -0.885702,2.138277 c 1.966695,0.2439 3.935121,0.748422 5.854956,1.543644 1.919835,0.795222 3.668484,1.830345 5.231598,3.048555 l 0.885705,-2.138274 c 0.0051,-2.830251 0.302325,-7.481931 0.67251,-9.462966 z m -19.712775,0.0034 -5.542686,2.295855 c 0.370185,1.981035 0.667485,6.631707 0.672441,9.461955 l 0.88473,2.135925 c 3.208389,-2.498094 7.050282,-4.089456 11.085366,-4.591722 l -0.884727,-2.135925 c -1.997781,-2.004792 -5.076081,-5.503536 -6.215124,-7.166099 z m 39.192699,16.234149 c -1.981032,0.370185 -6.631704,0.667485 -9.461952,0.672441 l -2.135925,0.88473 c 2.498082,3.208389 4.08945,7.050282 4.591713,11.085369 l 2.135922,-0.88473 c 2.004792,-1.997781 5.503533,-5.076084 7.1661,-6.215124 z m -49.213845,0.670854 c -2.830251,-0.0051 -7.481931,-0.302325 -9.462966,-0.67251 L 16.365,38.14416 c 1.662564,1.139043 5.162073,4.218003 7.166865,6.21579 l 2.138277,0.885702 c 0.2439,-1.966695 0.748422,-3.935118 1.543644,-5.854956 0.795222,-1.919832 1.830345,-3.668484 3.048555,-5.231598 z m 42.207942,17.483103 c -0.2439,1.966695 -0.748425,3.935121 -1.543647,5.854956 -0.795222,1.919835 -1.830345,3.668484 -3.048555,5.231598 l 2.138274,0.885705 c 2.830251,0.0051 7.481934,0.302325 9.462966,0.67251 l 2.296101,-5.543277 c -1.662558,-1.13904 -5.162073,-4.218003 -7.166865,-6.21579 z m -44.661606,5.88e-4 -2.135925,0.884727 c -2.004792,1.997781 -5.503536,5.076084 -7.166098,6.215124 l 2.295856,5.542686 c 1.981035,-0.370188 6.631707,-0.667482 9.461952,-0.672444 l 2.135925,-0.884724 c -2.498082,-3.208392 -4.089447,-7.050285 -4.59171,-11.085369 z m 36.17205,14.982951 c -3.208392,2.498085 -7.050285,4.08945 -11.085372,4.591713 l 0.88473,2.135922 c 1.997781,2.004792 5.076084,5.503533 6.215124,7.1661 l 5.542686,-2.295858 C 63.029433,75.35688 62.732139,70.706208 62.727177,67.87596 Z m -27.683355,-2.28e-4 -0.885705,2.138274 c -0.0051,2.830251 -0.302325,7.481934 -0.67251,9.462966 l 5.543277,2.296101 c 1.139043,-1.662561 4.218003,-5.162073 6.21579,-7.166865 l 0.885702,-2.138274 c -1.966695,-0.2439 -3.935118,-0.748422 -5.854956,-1.543647 -1.919832,-0.795219 -3.668484,-1.830345 -5.231598,-3.048555 z" />
  <path
     id="path285"
     style="fill:#ffffff;stroke-width:5.4;stroke-linecap:round;stroke-linejoin:round"
     d="m 48.001074,21.001074 c -14.911644,0 -27,12.088356 -27,27 0,14.911644 12.088356,27 27,27 14.911644,0 27,-12.088356 27,-27 0,-14.911644 -12.088356,-27 -27,-27 z m 0,6 a 21,21 0 0 1 21,21 21,21 0 0 1 -21,21 21,21 0 0 1 -21,-21 21,21 0 0 1 21,-21 z" />
  <path
     d="m 47.990709,27.001074 c -1.524924,0 -3.007848,0.168 -4.437462,0.473286 L 41.690709,31.200909 38.876703,29.0913 c -5.046459,2.426214 -8.955693,6.79566 -10.766541,12.163377 l 4.130541,-1.652478 3.15,2.398875 1.05,-3.448833 13.65,-7.349718 -0.831924,-4.159452 c -0.42,-0.0243 -0.841611,-0.04032 -1.268076,-0.04032 m 15.551316,6.895806 -0.85131,2.553828 1.05,1.049958 -4.2,6.299763 2.101365,7.198968 6.962556,1.023015 c 0.25041,-1.301943 0.386064,-2.644278 0.386064,-4.022151 0,-3.595704 -0.899766,-6.971727 -2.479611,-9.926154 l -1.720374,-0.573438 0.625155,-1.25349 C 64.853712,35.415288 64.214022,34.641546 63.542022,33.8985 m -36.134544,9.90354 c -0.231,1.15011 -0.363468,2.338989 -0.400638,3.550479 l 7.333848,2.749281 -1.05,-3.149883 -2.1,-1.950843 z m 6.933231,6.29976 5.25,12.599514 v 4.555209 c 2.571693,1.117806 5.40831,1.744551 8.4,1.744551 0.20841,0 0.413532,-0.0081 0.621921,-0.0147 l 6.728079,-11.9853 -16.8,-8.999199 z"
     style="fill:#97e286;fill-opacity:1;stroke-width:4.2"
     id="path677"
     sodipodi:nodetypes="cccccccccccccccccscccccccccccccscccc" />
</svg>
