<?xml version="1.0" encoding="UTF-8" standalone="no"?>
<!-- Created with Inkscape (http://www.inkscape.org/) -->

<svg
   width="96"
   height="96"
   viewBox="0 0 96 96.000006"
   version="1.1"
   id="svg1"
   inkscape:version="1.4.2 (ebf0e940d0, 2025-05-08)"
   sodipodi:docname="kontact.svg"
   xmlns:inkscape="http://www.inkscape.org/namespaces/inkscape"
   xmlns:sodipodi="http://sodipodi.sourceforge.net/DTD/sodipodi-0.dtd"
   xmlns:xlink="http://www.w3.org/1999/xlink"
   xmlns="http://www.w3.org/2000/svg"
   xmlns:svg="http://www.w3.org/2000/svg">
  <sodipodi:namedview
     id="namedview1"
     pagecolor="#ffffff"
     bordercolor="#000000"
     borderopacity="0.25"
     inkscape:showpageshadow="2"
     inkscape:pageopacity="0.0"
     inkscape:pagecheckerboard="0"
     inkscape:deskcolor="#d1d1d1"
     inkscape:document-units="px"
     inkscape:zoom="8.2916667"
     inkscape:cx="47.939698"
     inkscape:cy="48"
     inkscape:window-width="1920"
     inkscape:window-height="1011"
     inkscape:window-x="0"
     inkscape:window-y="0"
     inkscape:window-maximized="1"
     inkscape:current-layer="svg1" />
  <defs
     id="defs1">
    <linearGradient
       inkscape:collect="always"
       xlink:href="#4852"
       id="linearGradient4"
       x1="16"
       y1="30"
       x2="16"
       y2="2"
       gradientUnits="userSpaceOnUse"
       gradientTransform="scale(3)" />
    <linearGradient
       inkscape:collect="always"
       id="4852">
      <stop
         style="stop-color:#272727;stop-opacity:1;"
         offset="0"
         id="stop14555" />
      <stop
         style="stop-color:#5d5d5d;stop-opacity:1;"
         offset="1"
         id="stop14557" />
    </linearGradient>
    <linearGradient
       inkscape:collect="always"
       id="linearGradient1511">
      <stop
         style="stop-color:#ffb251;stop-opacity:1;"
         offset="0"
         id="stop1507" />
      <stop
         style="stop-color:#ffde75;stop-opacity:1;"
         offset="1"
         id="stop1509" />
    </linearGradient>
    <linearGradient
       inkscape:collect="always"
       xlink:href="#linearGradient1511"
       id="linearGradient2"
       x1="32"
       y1="60"
       x2="32"
       y2="4"
       gradientUnits="userSpaceOnUse"
       gradientTransform="scale(1.5)" />
  </defs>
  <rect
     style="opacity:0.2;fill:#000000;stroke-width:5.25"
     id="rect1"
     width="84"
     height="84"
     x="6"
     y="7"
     ry="18" />
  <rect
     style="fill:url(#linearGradient4);stroke-width:3"
     id="rect2"
     width="84"
     height="84"
     x="6"
     y="6"
     ry="18" />
  <path
     d="m 62.05599,61.67973 c -1.43337,0 -2.812989,-0.358341 -4.138857,-1.075023 -1.325868,-0.752523 -2.25756,-1.935057 -2.795073,-3.547599 h -0.05364 c -0.322563,0.860022 -0.806349,1.576707 -1.451358,2.150055 -0.645015,0.573351 -1.3617,1.039194 -2.150055,1.397538 -0.752517,0.35835 -1.522953,0.609189 -2.311308,0.752517 -0.788355,0.14331 -1.50504,0.21498 -2.150058,0.21498 -3.440088,0 -6.055989,-0.967527 -7.847703,-2.902578 -1.791747,-1.935036 -2.687619,-4.533018 -2.687619,-7.793934 v -4.192611 c 0,-3.296749 0.860022,-5.894734 2.580063,-7.793951 1.755879,-1.93505 4.13886,-2.902574 7.148937,-2.902574 2.006721,0 3.601344,0.304591 4.783875,0.913773 1.182531,0.609184 2.024634,1.343788 2.526315,2.203808 v -2.795076 h 5.052633 v 16.93169 c 0,1.505037 0.304593,2.615904 0.913776,3.332588 0.609183,0.680848 1.487124,1.021275 2.63382,1.021275 0.895857,0 1.684209,-0.161252 2.365062,-0.483758 0.68085,-0.358356 1.254198,-0.913785 1.720041,-1.666292 0.465843,-0.788356 0.824184,-1.791715 1.075023,-3.010076 0.25083,-1.254203 0.37626,-2.777159 0.37626,-4.56887 v -0.591237 c 0,-3.010077 -0.44793,-5.697646 -1.343787,-8.06271 -0.860013,-2.365077 -2.15004,-4.371801 -3.870084,-6.020178 -1.720047,-1.684209 -3.83427,-2.956326 -6.342669,-3.816348 -2.508399,-0.895857 -5.393055,-1.343784 -8.653974,-1.343784 -2.795073,0 -5.357223,0.447927 -7.68645,1.343784 -2.329227,0.895857 -4.335945,2.203809 -6.020157,3.923853 -1.648377,1.684209 -2.93841,3.762597 -3.870102,6.235161 -0.931689,2.472564 -1.397535,5.267637 -1.397535,8.385219 v 0.913776 c 0,3.332589 0.44793,6.288912 1.343787,8.868984 0.931689,2.544231 2.257557,4.676367 3.977604,6.396414 1.720041,1.755879 3.816345,3.081747 6.288912,3.977604 2.508399,0.931692 5.321388,1.397538 8.438967,1.397538 2.687571,0 5.357223,-0.304596 8.008962,-0.913776 2.651733,-0.573348 5.088462,-1.43337 7.310187,-2.580072 l 1.50504,3.762597 c -2.257557,1.218366 -4.801791,2.150058 -7.632699,2.795076 -2.795073,0.68085 -5.80515,1.021278 -9.030234,1.021278 -3.870099,0 -7.328106,-0.573348 -10.374021,-1.720044 C 35.251959,70.692045 32.671893,69.043668 30.55767,66.893613 28.443447,64.743558 26.812989,62.145576 25.666293,59.099661 24.555432,56.053749 24,52.649493 24,48.886896 v -1.021278 c 0,-3.440088 0.537516,-6.611421 1.612542,-9.513993 1.110864,-2.93841 2.669655,-5.464725 4.676373,-7.578948 2.042553,-2.114223 4.497198,-3.7626 7.363941,-4.945131 C 40.555431,24.609183 43.81635,24 47.43561,24 c 3.977604,0 7.489362,0.573348 10.535274,1.720048 3.045912,1.11086 5.608062,2.687568 7.68645,4.730121 2.078388,2.042553 3.655095,4.479285 4.730124,7.310189 C 71.462487,40.591264 72,43.708846 72,47.113098 v 0.698763 c 0,1.576707 -0.16125,3.189249 -0.483759,4.837626 -0.28668,1.612545 -0.806277,3.099669 -1.558794,4.461372 -0.75252,1.325868 -1.773798,2.418813 -3.063831,3.278835 -1.254198,0.860025 -2.86674,1.290038 -4.837626,1.290036 z M 41.791713,50.015676 c 0,2.042553 0.447927,3.673011 1.343784,4.891374 0.895857,1.182531 2.311311,1.773798 4.246362,1.773798 0.752517,0 1.469202,-0.08958 2.150055,-0.26877 0.716682,-0.179189 1.343781,-0.483771 1.8813,-0.913776 0.573345,-0.430011 1.021275,-1.003362 1.343784,-1.720047 0.322509,-0.716679 0.483762,-1.612536 0.483762,-2.687567 v -4.730117 c 0,-0.716679 -0.10749,-1.397532 -0.322515,-2.042553 -0.17919,-0.680853 -0.501687,-1.272117 -0.967521,-1.773795 -0.465849,-0.537517 -1.075032,-0.949613 -1.827549,-1.236283 -0.752517,-0.322507 -1.66629,-0.48376 -2.741319,-0.48376 -1.755879,0 -3.135501,0.48376 -4.13886,1.451287 -0.967521,0.967523 -1.451283,2.723402 -1.451283,5.267633 z"
     style="font-weight:bold;font-size:4.74057px;line-height:1.25;font-family:'나눔스퀘어';-inkscape-font-specification:'나눔스퀘어 Bold';fill:url(#linearGradient2);stroke-width:1.34379"
     id="path6805"
     sodipodi:nodetypes="scccscsscsscsscccscscccsscccsscssscccsccccssscsscccscsssscccsscsccssscccscss" />
</svg>
