<?xml version="1.0" encoding="UTF-8" standalone="no"?>
<!-- Created with Inkscape (http://www.inkscape.org/) -->

<svg
   width="96"
   height="96"
   viewBox="0 0 96 96.000006"
   version="1.1"
   id="svg1"
   inkscape:version="1.4.2 (ebf0e940d0, 2025-05-08)"
   sodipodi:docname="korganizer.svg"
   xmlns:inkscape="http://www.inkscape.org/namespaces/inkscape"
   xmlns:sodipodi="http://sodipodi.sourceforge.net/DTD/sodipodi-0.dtd"
   xmlns:xlink="http://www.w3.org/1999/xlink"
   xmlns="http://www.w3.org/2000/svg"
   xmlns:svg="http://www.w3.org/2000/svg">
  <sodipodi:namedview
     id="namedview1"
     pagecolor="#ffffff"
     bordercolor="#000000"
     borderopacity="0.25"
     inkscape:showpageshadow="2"
     inkscape:pageopacity="0.0"
     inkscape:pagecheckerboard="0"
     inkscape:deskcolor="#d1d1d1"
     inkscape:document-units="px"
     inkscape:zoom="8.28125"
     inkscape:cx="48"
     inkscape:cy="48"
     inkscape:window-width="1920"
     inkscape:window-height="1010"
     inkscape:window-x="0"
     inkscape:window-y="0"
     inkscape:window-maximized="1"
     inkscape:current-layer="svg1" />
  <defs
     id="defs1">
    <linearGradient
       inkscape:collect="always"
       xlink:href="#4852"
       id="linearGradient4"
       x1="16"
       y1="30"
       x2="16"
       y2="2"
       gradientUnits="userSpaceOnUse"
       gradientTransform="scale(3)" />
    <linearGradient
       inkscape:collect="always"
       id="4852">
      <stop
         style="stop-color:#272727;stop-opacity:1;"
         offset="0"
         id="stop14555" />
      <stop
         style="stop-color:#5d5d5d;stop-opacity:1;"
         offset="1"
         id="stop14557" />
    </linearGradient>
  </defs>
  <rect
     style="opacity:0.2;fill:#000000;stroke-width:5.25"
     id="rect1"
     width="84"
     height="84"
     x="6"
     y="9"
     ry="18" />
  <rect
     style="fill:url(#linearGradient4);stroke-width:3.00001"
     id="rect2"
     width="84"
     height="84"
     x="6"
     y="6"
     ry="18" />
  <path
     id="rect349"
     style="fill:#dc4e4e;fill-opacity:1;stroke-width:6;stroke-linecap:round;stroke-linejoin:round"
     d="M 19.5 43 C 17.014721 43 15 45.014722 15 47.5 C 15 49.985278 17.014721 52 19.5 52 C 21.985279 52 24 49.985279 24 47.5 C 24 45.014722 21.985279 43 19.5 43 z M 31.5 46 C 30.669 46 30 46.669 30 47.5 C 30 48.331 30.669 49 31.5 49 L 76.5 49 C 77.331 49 78 48.331 78 47.5 C 78 46.669 77.331 46 76.5 46 L 31.5 46 z " />
  <path
     id="rect376"
     style="fill:#ffffff;fill-opacity:1;stroke-width:6;stroke-linecap:round;stroke-linejoin:round"
     d="M 19.5 22 A 1.5000005 1.5 0 0 0 18 23.5 A 1.5000005 1.5 0 0 0 19.5 25 A 1.5000005 1.5 0 0 0 21 23.5 A 1.5000005 1.5 0 0 0 19.5 22 z M 28.5 22 C 27.669 22 27 22.669 27 23.5 C 27 24.331 27.669 25 28.5 25 L 76.5 25 C 77.331 25 78 24.331 78 23.5 C 78 22.669 77.331 22 76.5 22 L 28.5 22 z M 19.5 34 A 1.5000005 1.5 0 0 0 18 35.5 A 1.5000005 1.5 0 0 0 19.5 37 A 1.5000005 1.5 0 0 0 21 35.5 A 1.5000005 1.5 0 0 0 19.5 34 z M 28.5 34 C 27.669 34 27 34.669 27 35.5 C 27 36.331 27.669 37 28.5 37 L 76.5 37 C 77.331 37 78 36.331 78 35.5 C 78 34.669 77.331 34 76.5 34 L 28.5 34 z M 19.5 58 A 1.5000005 1.5000005 0 0 0 18 59.5 A 1.5000005 1.5000005 0 0 0 19.5 61 A 1.5000005 1.5000005 0 0 0 21 59.5 A 1.5000005 1.5000005 0 0 0 19.5 58 z M 28.5 58 C 27.669 58 27 58.669 27 59.5 C 27 60.331 27.669 61 28.5 61 L 76.5 61 C 77.331 61 78 60.331 78 59.5 C 78 58.669 77.331 58 76.5 58 L 28.5 58 z M 19.5 70 A 1.5000005 1.4999995 0 0 0 18 71.5 A 1.5000005 1.4999995 0 0 0 19.5 73 A 1.5000005 1.4999995 0 0 0 21 71.5 A 1.5000005 1.4999995 0 0 0 19.5 70 z M 28.5 70 C 27.669 70 27 70.669 27 71.5 C 27 72.331 27.669 73 28.5 73 L 76.5 73 C 77.331 73 78 72.331 78 71.5 C 78 70.669 77.331 70 76.5 70 L 28.5 70 z " />
  <circle
     style="opacity:1;fill:#ffffff;stroke-width:1.66667"
     id="path8"
     cx="19.5"
     cy="47.5"
     r="2.5" />
</svg>
