<?xml version="1.0" encoding="UTF-8" standalone="no"?>
<!-- Created with Inkscape (http://www.inkscape.org/) -->

<svg
   width="96"
   height="96"
   viewBox="0 0 96 96.000006"
   version="1.1"
   id="svg1"
   inkscape:version="1.4.2 (ebf0e940d0, 2025-05-08)"
   sodipodi:docname="libreoffice-writer.svg"
   xmlns:inkscape="http://www.inkscape.org/namespaces/inkscape"
   xmlns:sodipodi="http://sodipodi.sourceforge.net/DTD/sodipodi-0.dtd"
   xmlns:xlink="http://www.w3.org/1999/xlink"
   xmlns="http://www.w3.org/2000/svg"
   xmlns:svg="http://www.w3.org/2000/svg">
  <sodipodi:namedview
     id="namedview1"
     pagecolor="#ffffff"
     bordercolor="#000000"
     borderopacity="0.25"
     inkscape:showpageshadow="2"
     inkscape:pageopacity="0.0"
     inkscape:pagecheckerboard="0"
     inkscape:deskcolor="#d1d1d1"
     inkscape:document-units="px"
     inkscape:zoom="8.1875"
     inkscape:cx="48.183206"
     inkscape:cy="48"
     inkscape:window-width="1920"
     inkscape:window-height="1011"
     inkscape:window-x="0"
     inkscape:window-y="0"
     inkscape:window-maximized="1"
     inkscape:current-layer="svg1" />
  <defs
     id="defs1">
    <linearGradient
       inkscape:collect="always"
       xlink:href="#4852"
       id="linearGradient4"
       x1="16"
       y1="30"
       x2="16"
       y2="2"
       gradientUnits="userSpaceOnUse"
       gradientTransform="scale(3)" />
    <linearGradient
       inkscape:collect="always"
       id="4852">
      <stop
         style="stop-color:#272727;stop-opacity:1;"
         offset="0"
         id="stop14555" />
      <stop
         style="stop-color:#5d5d5d;stop-opacity:1;"
         offset="1"
         id="stop14557" />
    </linearGradient>
  </defs>
  <rect
     style="opacity:0.2;fill:#000000;stroke-width:5.25"
     id="rect1"
     width="84"
     height="84"
     x="6"
     y="7"
     ry="18" />
  <rect
     style="fill:url(#linearGradient4);stroke-width:3"
     id="rect2"
     width="84"
     height="84"
     x="6"
     y="6"
     ry="18" />
  <path
     id="rect4373"
     style="fill:#ffffff;stroke-width:3"
     d="m 25.5,30 c -0.830999,0 -1.5,0.669 -1.5,1.5 0,0.831 0.669001,1.5 1.5,1.5 h 18 C 44.331,33 45,32.331 45,31.5 45,30.669 44.331,30 43.5,30 Z m 0,6 c -0.830999,0 -1.5,0.669 -1.5,1.5 0,0.831 0.669001,1.5 1.5,1.5 h 18 C 44.331,39 45,38.331 45,37.5 45,36.669 44.331,36 43.5,36 Z m 0,6 c -0.830999,0 -1.5,0.669 -1.5,1.5 0,0.831 0.669001,1.5 1.5,1.5 h 18 C 44.331,45 45,44.331 45,43.5 45,42.669 44.331,42 43.5,42 Z m 0,9 c -0.830999,0 -1.5,0.669 -1.5,1.5 0,0.831 0.669001,1.5 1.5,1.5 h 45 C 71.331,54 72,53.331 72,52.5 72,51.669 71.331,51 70.5,51 Z m 0,6 c -0.830999,0 -1.5,0.669 -1.5,1.5 0,0.831 0.669001,1.5 1.5,1.5 h 45 C 71.331,60 72,59.331 72,58.5 72,57.669 71.331,57 70.5,57 Z m 0,6 c -0.830999,0 -1.5,0.669 -1.5,1.5 0,0.831 0.669001,1.5 1.5,1.5 h 18 C 44.331,66 45,65.331 45,64.5 45,63.669 44.331,63 43.5,63 Z" />
  <path
     id="rect4649"
     style="fill:#7ad2f9;fill-opacity:1;stroke-width:3"
     d="m 54,30 c -1.661997,0 -3,1.338003 -3,3 v 9 c 0,1.661997 1.338003,3 3,3 h 15 c 1.661997,0 3,-1.338003 3,-3 v -9 c 0,-1.661997 -1.338003,-3 -3,-3 z m 3,4 9,8 H 54 Z M 67.5,33 C 68.328426,33 69,33.671574 69,34.5 69,35.328426 68.328426,36 67.5,36 66.671574,36 66,35.328426 66,34.5 66,33.671574 66.671574,33 67.5,33 Z"
     sodipodi:nodetypes="sssssssssccccsssss" />
</svg>
