<?xml version="1.0" encoding="UTF-8" standalone="no"?>
<!-- Created with Inkscape (http://www.inkscape.org/) -->

<svg
   width="96"
   height="96"
   viewBox="0 0 96 96.000006"
   version="1.1"
   id="svg1"
   inkscape:version="1.4.2 (ebf0e940d0, 2025-05-08)"
   sodipodi:docname="libreoffice-draw.svg"
   xmlns:inkscape="http://www.inkscape.org/namespaces/inkscape"
   xmlns:sodipodi="http://sodipodi.sourceforge.net/DTD/sodipodi-0.dtd"
   xmlns:xlink="http://www.w3.org/1999/xlink"
   xmlns="http://www.w3.org/2000/svg"
   xmlns:svg="http://www.w3.org/2000/svg">
  <sodipodi:namedview
     id="namedview1"
     pagecolor="#ffffff"
     bordercolor="#000000"
     borderopacity="0.25"
     inkscape:showpageshadow="2"
     inkscape:pageopacity="0.0"
     inkscape:pagecheckerboard="0"
     inkscape:deskcolor="#d1d1d1"
     inkscape:document-units="px"
     inkscape:zoom="8.1875"
     inkscape:cx="48.061069"
     inkscape:cy="48"
     inkscape:window-width="1920"
     inkscape:window-height="1011"
     inkscape:window-x="0"
     inkscape:window-y="0"
     inkscape:window-maximized="1"
     inkscape:current-layer="svg1" />
  <defs
     id="defs1">
    <linearGradient
       inkscape:collect="always"
       xlink:href="#4852"
       id="linearGradient4"
       x1="16"
       y1="30"
       x2="16"
       y2="2"
       gradientUnits="userSpaceOnUse"
       gradientTransform="scale(3)" />
    <linearGradient
       inkscape:collect="always"
       id="4852">
      <stop
         style="stop-color:#272727;stop-opacity:1;"
         offset="0"
         id="stop14555" />
      <stop
         style="stop-color:#5d5d5d;stop-opacity:1;"
         offset="1"
         id="stop14557" />
    </linearGradient>
  </defs>
  <rect
     style="opacity:0.2;fill:#000000;stroke-width:5.25"
     id="rect1"
     width="84"
     height="84"
     x="6"
     y="7"
     ry="18" />
  <rect
     style="fill:url(#linearGradient4);stroke-width:3"
     id="rect2"
     width="84"
     height="84"
     x="6"
     y="6"
     ry="18" />
  <path
     id="rect292"
     style="fill:#ffffff;stroke-width:3;stroke-linecap:round;stroke-linejoin:round"
     d="m 54.000001,34.000001 c -1.661997,0 -3,1.338003 -3,3 V 52 c 0,1.661997 1.338003,3 3,3 h 15 c 1.661997,0 3,-1.338003 3,-3 V 37 c 0,-1.661997 -1.338003,-3 -3,-3 z m 0,3 h 15 V 52 h -15 z"
     sodipodi:nodetypes="sssssssssccccc" />
  <circle
     style="fill:#ffffff;stroke-width:2.4;stroke-linecap:round;stroke-linejoin:round"
     id="path452"
     cx="36"
     cy="42"
     r="12" />
  <path
     id="path2642"
     style="color:#000000;fill:#fde9b6;fill-opacity:1;stroke:none;stroke-width:3;stroke-linecap:round;stroke-linejoin:round;-inkscape-stroke:none"
     d="m 45.000002,42.000002 c -0.494067,-2e-5 -0.956463,0.243232 -1.236327,0.650391 L 30.263673,63.650392 c -0.683799,0.995339 0.02874,2.349492 1.236329,2.349609 h 27 c 1.207591,-1.18e-4 1.920124,-1.35427 1.236327,-2.349609 l -13.5,-21 c -0.279864,-0.407158 -0.74226,-0.65041 -1.236327,-0.65039 z"
     sodipodi:nodetypes="cccccccc" />
</svg>
