<?xml version="1.0" encoding="UTF-8" standalone="no"?>
<!-- Created with Inkscape (http://www.inkscape.org/) -->

<svg
   width="96"
   height="96"
   viewBox="0 0 96 96.000006"
   version="1.1"
   id="svg1"
   inkscape:version="1.4.2 (ebf0e940d0, 2025-05-08)"
   sodipodi:docname="lunarclient.svg"
   xmlns:inkscape="http://www.inkscape.org/namespaces/inkscape"
   xmlns:sodipodi="http://sodipodi.sourceforge.net/DTD/sodipodi-0.dtd"
   xmlns:xlink="http://www.w3.org/1999/xlink"
   xmlns="http://www.w3.org/2000/svg"
   xmlns:svg="http://www.w3.org/2000/svg">
  <sodipodi:namedview
     id="namedview1"
     pagecolor="#ffffff"
     bordercolor="#000000"
     borderopacity="0.25"
     inkscape:showpageshadow="2"
     inkscape:pageopacity="0.0"
     inkscape:pagecheckerboard="0"
     inkscape:deskcolor="#d1d1d1"
     inkscape:document-units="px"
     inkscape:zoom="8.2916667"
     inkscape:cx="47.939698"
     inkscape:cy="48"
     inkscape:window-width="1920"
     inkscape:window-height="1011"
     inkscape:window-x="0"
     inkscape:window-y="0"
     inkscape:window-maximized="1"
     inkscape:current-layer="svg1" />
  <defs
     id="defs1">
    <linearGradient
       inkscape:collect="always"
       xlink:href="#4852"
       id="linearGradient4"
       x1="16"
       y1="30"
       x2="16"
       y2="2"
       gradientUnits="userSpaceOnUse"
       gradientTransform="scale(3)" />
    <linearGradient
       inkscape:collect="always"
       id="4852">
      <stop
         style="stop-color:#272727;stop-opacity:1;"
         offset="0"
         id="stop14555" />
      <stop
         style="stop-color:#5d5d5d;stop-opacity:1;"
         offset="1"
         id="stop14557" />
    </linearGradient>
  </defs>
  <rect
     style="opacity:0.2;fill:#000000;stroke-width:5.25"
     id="rect1"
     width="84"
     height="84"
     x="6"
     y="7"
     ry="18" />
  <rect
     style="fill:url(#linearGradient4);stroke-width:3"
     id="rect2"
     width="84"
     height="84"
     x="6"
     y="6"
     ry="18" />
  <path
     d="m 48.213867,18.00135 c -0.349137,0.01425 -0.690176,0.10947 -0.996093,0.27832 0,0 -6.65752,3.647997 -13.333008,7.570313 -3.337745,1.961157 -6.676982,3.987456 -9.234375,5.692383 -1.278698,0.852463 -2.355524,1.616985 -3.19043,2.305664 -0.417453,0.344339 -0.774195,0.660162 -1.104493,1.037109 C 20.025174,35.262087 19.5,35.584248 19.5,36.900763 V 61.50135 H 24 V 37.612678 c 0.10275,-0.0971 0.151765,-0.152331 0.322266,-0.292969 0.61704,-0.508969 1.613865,-1.226301 2.824218,-2.033202 2.420707,-1.613803 5.717855,-3.618799 9.017578,-5.557618 6.052556,-3.556299 11.156098,-6.354768 12.120117,-6.884765 0.952693,0.535898 5.922122,3.321482 11.830079,6.873047 3.224661,1.938502 6.448116,3.942003 8.8125,5.554687 1.182192,0.806342 2.155623,1.522895 2.756835,2.030274 0.167996,0.14178 0.21633,0.198994 0.316407,0.295898 v 23.90332 h 4.5 V 36.900763 c 0,-1.289742 -0.508325,-1.617151 -0.832032,-1.995117 -0.323705,-0.377965 -0.672087,-0.697833 -1.081054,-1.042968 -0.817933,-0.690271 -1.872414,-1.455571 -3.123047,-2.308594 -2.501265,-1.706046 -5.766426,-3.73091 -9.029297,-5.692383 -6.525742,-3.922946 -13.034179,-7.573242 -13.034179,-7.573242 -0.31565,-0.177264 -0.66941,-0.275754 -1.03125,-0.287109 -0.05174,-0.0018 -0.10353,-0.0018 -0.155274,0 z M 48.75,26.25135 48.219726,27.221076 47.25,27.75135 48.219726,28.281624 48.75,29.25135 49.280274,28.281624 50.25,27.75135 49.280274,27.221076 Z m -6.887696,3.612305 C 34.697608,32.738536 30.000946,39.6808 30,47.400763 c 2e-6,7.570733 4.461432,14.083661 10.889649,17.100587 H 16.5 v 0.999024 h 6 v 1.001952 h -6 v 0.999024 h 9 v 0.999024 h -6 v 1.001952 h 12 v 0.999024 h -6 v 0.999024 H 39 v 1.001952 H 36 V 73.50135 H 57 V 72.502326 H 54 V 71.500374 H 67.5 V 70.50135 h -6 v -0.999024 h 12 v -1.001952 h -6 V 67.50135 h 9 v -0.999024 h -6 v -1.001952 h 6 V 64.50135 H 56.938476 c 4.237811,-1.993636 7.683498,-5.531081 9.500977,-10.060547 -2.23773,0.89876 -4.628566,1.358638 -7.040039,1.359375 C 48.961267,55.80018 40.500002,47.338909 40.5,36.900763 c 7.37e-4,-2.411473 0.463545,-4.799379 1.362304,-7.037108 z M 62.25,35.25135 61.719726,36.221076 60.75,36.75135 61.719726,37.281624 62.25,38.25135 62.780274,37.281624 63.75,36.75135 62.780274,36.221076 Z m -16.5,0.75 -0.796875,1.453125 L 43.5,38.25135 44.953125,39.048225 45.75,40.50135 46.546875,39.048225 48,38.25135 46.546875,37.454475 Z m -18,0.75 -0.530274,0.969726 L 26.25,38.25135 27.219726,38.781624 27.75,39.75135 28.280274,38.781624 29.25,38.25135 28.280274,37.721076 Z m 25.5,3 -0.530274,0.969726 L 51.75,41.25135 52.719726,41.781624 53.25,42.75135 53.780274,41.781624 54.75,41.25135 53.780274,40.721076 Z m 12,3 -1.060547,1.939453 L 62.25,45.75135 64.189453,46.811896 65.25,48.75135 66.310546,46.811896 68.25,45.75135 66.310546,44.690803 Z m -9,3.75 -0.796875,1.453125 L 54,48.75135 55.453125,49.548225 56.25,51.00135 57.046875,49.548225 58.5,48.75135 57.046875,47.954475 Z m -27,8.25 -1.060547,1.939453 L 26.25,57.75135 28.189453,58.811897 29.25,60.75135 30.310546,58.811897 32.25,57.75135 30.310546,56.690803 Z"
     style="fill:#ffffff;stroke-width:1.5"
     id="path3007" />
</svg>
