<?xml version="1.0" encoding="UTF-8" standalone="no"?>
<!-- Created with Inkscape (http://www.inkscape.org/) -->

<svg
   width="96"
   height="96"
   viewBox="0 0 96 96.000006"
   version="1.1"
   id="svg1"
   inkscape:version="1.4.2 (ebf0e940d0, 2025-05-08)"
   sodipodi:docname="mintinstall.svg"
   xmlns:inkscape="http://www.inkscape.org/namespaces/inkscape"
   xmlns:sodipodi="http://sodipodi.sourceforge.net/DTD/sodipodi-0.dtd"
   xmlns:xlink="http://www.w3.org/1999/xlink"
   xmlns="http://www.w3.org/2000/svg"
   xmlns:svg="http://www.w3.org/2000/svg">
  <sodipodi:namedview
     id="namedview1"
     pagecolor="#ffffff"
     bordercolor="#000000"
     borderopacity="0.25"
     inkscape:showpageshadow="2"
     inkscape:pageopacity="0.0"
     inkscape:pagecheckerboard="0"
     inkscape:deskcolor="#d1d1d1"
     inkscape:document-units="px"
     inkscape:zoom="8.2916667"
     inkscape:cx="47.819095"
     inkscape:cy="48"
     inkscape:window-width="1920"
     inkscape:window-height="1011"
     inkscape:window-x="0"
     inkscape:window-y="0"
     inkscape:window-maximized="1"
     inkscape:current-layer="svg1" />
  <defs
     id="defs1">
    <linearGradient
       inkscape:collect="always"
       xlink:href="#4852"
       id="linearGradient4"
       x1="16"
       y1="30"
       x2="16"
       y2="2"
       gradientUnits="userSpaceOnUse"
       gradientTransform="scale(3)" />
    <linearGradient
       inkscape:collect="always"
       id="4852">
      <stop
         style="stop-color:#272727;stop-opacity:1;"
         offset="0"
         id="stop14555" />
      <stop
         style="stop-color:#5d5d5d;stop-opacity:1;"
         offset="1"
         id="stop14557" />
    </linearGradient>
    <linearGradient
       inkscape:collect="always"
       id="linearGradient2030">
      <stop
         style="stop-color:#4c7523;stop-opacity:1;"
         offset="0"
         id="stop2026" />
      <stop
         style="stop-color:#87cf3e;stop-opacity:1;"
         offset="1"
         id="stop2028" />
    </linearGradient>
    <linearGradient
       inkscape:collect="always"
       xlink:href="#linearGradient2030"
       id="linearGradient3"
       x1="48"
       y1="90"
       x2="48"
       y2="6"
       gradientUnits="userSpaceOnUse" />
  </defs>
  <rect
     style="opacity:0.2;fill:#000000;stroke-width:5.25"
     id="rect1"
     width="84"
     height="84"
     x="6"
     y="7"
     ry="18" />
  <rect
     style="fill:url(#linearGradient4);stroke-width:3"
     id="rect2"
     width="84"
     height="84"
     x="6"
     y="6"
     ry="18" />
  <path
     style="color:#000000;fill:#ececec;stroke:none;stroke-width:3;stroke-linecap:round;stroke-linejoin:round;-inkscape-stroke:none"
     d="M 48,30 C 39.733503,30 33,23.266497 33,15 A 1.5,1.5 0 0 1 34.5,13.5 1.5,1.5 0 0 1 36,15 c 0,6.645177 5.354823,12 12,12 6.645177,0 12,-5.354823 12,-12 A 1.5,1.5 0 0 1 61.5,13.5 1.5,1.5 0 0 1 63,15 c 0,8.266497 -6.733503,15 -15,15 z"
     id="path6892" />
  <path
     id="rect291"
     style="fill:url(#linearGradient3);stroke-width:4.17786;stroke-linecap:round;stroke-linejoin:round"
     d="m 31,44 v 24 c 0,5.539982 4.460018,10 10,10 h 14 c 5.539982,0 10,-4.460018 10,-10 V 57 c 0,-3.877988 -3.122012,-7 -7,-7 -1.962828,0 -3.731306,0.80093 -5,2.09375 C 51.731306,50.80093 49.962828,50 48,50 c -3.877988,0 -7,3.122012 -7,7 v 11 h 4 V 57 c 0,-1.661994 1.338006,-3 3,-3 1.661994,0 3,1.338006 3,3 v 11 h 4 V 57 c 0,-1.661994 1.338006,-3 3,-3 1.661994,0 3,1.338006 3,3 v 11 c 0,3.323988 -2.676012,6 -6,6 H 41 c -3.323988,0 -6,-2.676012 -6,-6 V 44 Z" />
</svg>
