<?xml version="1.0" encoding="UTF-8" standalone="no"?>
<!-- Created with Inkscape (http://www.inkscape.org/) -->

<svg
   width="96"
   height="96"
   viewBox="0 0 96 96.000006"
   version="1.1"
   id="svg1"
   inkscape:version="1.4.2 (ebf0e940d0, 2025-05-08)"
   sodipodi:docname="multimedia-photo-manager.svg"
   xmlns:inkscape="http://www.inkscape.org/namespaces/inkscape"
   xmlns:sodipodi="http://sodipodi.sourceforge.net/DTD/sodipodi-0.dtd"
   xmlns:xlink="http://www.w3.org/1999/xlink"
   xmlns="http://www.w3.org/2000/svg"
   xmlns:svg="http://www.w3.org/2000/svg">
  <sodipodi:namedview
     id="namedview1"
     pagecolor="#ffffff"
     bordercolor="#000000"
     borderopacity="0.25"
     inkscape:showpageshadow="2"
     inkscape:pageopacity="0.0"
     inkscape:pagecheckerboard="0"
     inkscape:deskcolor="#d1d1d1"
     inkscape:document-units="px"
     inkscape:zoom="8.2916667"
     inkscape:cx="47.939698"
     inkscape:cy="48"
     inkscape:window-width="1920"
     inkscape:window-height="1011"
     inkscape:window-x="0"
     inkscape:window-y="0"
     inkscape:window-maximized="1"
     inkscape:current-layer="svg1" />
  <defs
     id="defs1">
    <linearGradient
       inkscape:collect="always"
       xlink:href="#4852"
       id="linearGradient4"
       x1="16"
       y1="30"
       x2="16"
       y2="2"
       gradientUnits="userSpaceOnUse"
       gradientTransform="scale(3)" />
    <linearGradient
       inkscape:collect="always"
       id="4852">
      <stop
         style="stop-color:#272727;stop-opacity:1;"
         offset="0"
         id="stop14555" />
      <stop
         style="stop-color:#5d5d5d;stop-opacity:1;"
         offset="1"
         id="stop14557" />
    </linearGradient>
    <linearGradient
       inkscape:collect="always"
       xlink:href="#linearGradient6"
       id="linearGradient7"
       x1="20"
       y1="0"
       x2="20"
       y2="18"
       gradientUnits="userSpaceOnUse"
       gradientTransform="matrix(1.5,0,0,1.5,17.999496,18)" />
    <linearGradient
       id="linearGradient6"
       inkscape:collect="always">
      <stop
         style="stop-color:#ff8500;stop-opacity:1;"
         offset="0"
         id="stop6" />
      <stop
         style="stop-color:#ffc500;stop-opacity:1;"
         offset="1"
         id="stop7" />
    </linearGradient>
    <linearGradient
       inkscape:collect="always"
       xlink:href="#linearGradient12"
       id="linearGradient13"
       x1="20"
       y1="40"
       x2="20"
       y2="22"
       gradientUnits="userSpaceOnUse"
       gradientTransform="matrix(1.5,0,0,1.5,17.999496,18)" />
    <linearGradient
       id="linearGradient12"
       inkscape:collect="always">
      <stop
         style="stop-color:#1e7dd9;stop-opacity:1;"
         offset="0"
         id="stop12" />
      <stop
         style="stop-color:#1eb1d9;stop-opacity:1;"
         offset="1"
         id="stop13" />
    </linearGradient>
    <linearGradient
       inkscape:collect="always"
       xlink:href="#linearGradient8"
       id="linearGradient9"
       x1="20"
       y1="-1.0658141e-14"
       x2="20"
       y2="18"
       gradientUnits="userSpaceOnUse"
       gradientTransform="matrix(0.75,1.2990381,-1.2990381,0.75,58.980258,7.0192382)" />
    <linearGradient
       id="linearGradient8"
       inkscape:collect="always">
      <stop
         style="stop-color:#ffd737;stop-opacity:1;"
         offset="0"
         id="stop8" />
      <stop
         style="stop-color:#fff337;stop-opacity:1;"
         offset="1"
         id="stop9" />
    </linearGradient>
    <linearGradient
       inkscape:collect="always"
       xlink:href="#linearGradient14"
       id="linearGradient15"
       x1="20"
       y1="40"
       x2="20"
       y2="22"
       gradientUnits="userSpaceOnUse"
       gradientTransform="matrix(0.75,1.2990381,-1.2990381,0.75,58.980258,7.0192382)" />
    <linearGradient
       id="linearGradient14"
       inkscape:collect="always">
      <stop
         style="stop-color:#9b38d2;stop-opacity:1;"
         offset="0"
         id="stop14" />
      <stop
         style="stop-color:#d238c7;stop-opacity:1;"
         offset="1"
         id="stop15" />
    </linearGradient>
    <linearGradient
       inkscape:collect="always"
       xlink:href="#linearGradient2"
       id="linearGradient5"
       x1="20"
       y1="2.6645353e-15"
       x2="20"
       y2="18"
       gradientUnits="userSpaceOnUse"
       gradientTransform="matrix(-0.75,1.2990381,1.2990381,0.75,37.018734,7.0192379)" />
    <linearGradient
       id="linearGradient2"
       inkscape:collect="always">
      <stop
         style="stop-color:#e11e1e;stop-opacity:1;"
         offset="0"
         id="stop2" />
      <stop
         style="stop-color:#d0005a;stop-opacity:1;"
         offset="1"
         id="stop3" />
    </linearGradient>
    <linearGradient
       inkscape:collect="always"
       xlink:href="#linearGradient10"
       id="linearGradient11"
       x1="20"
       y1="40"
       x2="20"
       y2="22"
       gradientUnits="userSpaceOnUse"
       gradientTransform="matrix(-0.75,1.2990381,1.2990381,0.75,37.018734,7.0192379)" />
    <linearGradient
       id="linearGradient10"
       inkscape:collect="always">
      <stop
         style="stop-color:#6fd91e;stop-opacity:1;"
         offset="0"
         id="stop10" />
      <stop
         style="stop-color:#b8d91e;stop-opacity:1;"
         offset="1"
         id="stop11" />
    </linearGradient>
  </defs>
  <rect
     style="opacity:0.2;fill:#000000;stroke-width:5.25"
     id="rect1"
     width="84"
     height="84"
     x="6"
     y="7"
     ry="18" />
  <rect
     style="fill:url(#linearGradient4);stroke-width:3"
     id="rect2"
     width="84"
     height="84"
     x="6"
     y="6"
     ry="18" />
  <path
     id="rect1-8"
     style="opacity:0.7;fill:url(#linearGradient7);fill-opacity:1;stroke-width:1.5;stroke-linecap:round"
     d="m 47.999496,18 c 0,0 -12,5.352 -12,12 v 3 c 0,6.648 12,12 12,12 0,0 12,-5.352 12,-12 v -3 c 0,-6.648 -12,-12 -12,-12 z" />
  <path
     id="rect1-3"
     style="opacity:0.7;fill:url(#linearGradient13);fill-opacity:1;stroke-width:1.5;stroke-linecap:round"
     d="m 47.999496,51 c 0,0 -12,5.352 -12,12 v 3 c 0,6.648 12,12 12,12 0,0 12,-5.352 12,-12 v -3 c 0,-6.648 -12,-12 -12,-12 z" />
  <path
     id="rect1-1"
     style="opacity:0.7;fill:url(#linearGradient9);stroke-width:1.5;stroke-linecap:round"
     d="m 73.980258,33 c 0,0 -10.634969,-7.716305 -16.392304,-4.392305 l -2.598077,1.5 C 49.23254,33.431696 50.597572,46.5 50.597572,46.5 c 0,0 10.634968,7.716304 16.392305,4.392304 l 2.598076,-1.5 C 75.34529,46.068304 73.980258,33 73.980258,33 Z" />
  <path
     id="rect1-3-2"
     style="opacity:0.7;fill:url(#linearGradient15);stroke-width:1.5;stroke-linecap:round"
     d="m 45.40142,49.5 c 0,0 -10.634968,-7.716305 -16.392305,-4.392305 l -2.598076,1.5 C 20.653703,49.931695 22.018734,63 22.018734,63 c 0,0 10.634968,7.716304 16.392305,4.392304 l 2.598076,-1.5 C 46.766452,62.568305 45.40142,49.5 45.40142,49.5 Z" />
  <path
     id="rect1-1-0"
     style="opacity:0.7;fill:url(#linearGradient5);stroke-width:1.5;stroke-linecap:round"
     d="m 22.018734,33 c 0,0 10.634968,-7.716305 16.392305,-4.392305 l 2.598076,1.5 C 46.766452,33.431696 45.40142,46.5 45.40142,46.5 c 0,0 -10.634968,7.716304 -16.392305,4.392304 l -2.598076,-1.5 C 20.653703,46.068304 22.018734,33 22.018734,33 Z" />
  <path
     id="rect1-3-2-6"
     style="opacity:0.7;fill:url(#linearGradient11);stroke-width:1.5;stroke-linecap:round"
     d="m 50.597572,49.5 c 0,0 10.634968,-7.716305 16.392305,-4.392305 l 2.598076,1.5 C 75.34529,49.931695 73.980258,63 73.980258,63 c 0,0 -10.634969,7.716304 -16.392304,4.392304 l -2.598077,-1.5 C 49.23254,62.568305 50.597572,49.5 50.597572,49.5 Z" />
</svg>
