<?xml version="1.0" encoding="UTF-8" standalone="no"?>
<!-- Created with Inkscape (http://www.inkscape.org/) -->

<svg
   width="96"
   height="96"
   viewBox="0 0 96 96.000006"
   version="1.1"
   id="svg1"
   inkscape:version="1.4.2 (ebf0e940d0, 2025-05-08)"
   sodipodi:docname="nvidia.svg"
   xmlns:inkscape="http://www.inkscape.org/namespaces/inkscape"
   xmlns:sodipodi="http://sodipodi.sourceforge.net/DTD/sodipodi-0.dtd"
   xmlns:xlink="http://www.w3.org/1999/xlink"
   xmlns="http://www.w3.org/2000/svg"
   xmlns:svg="http://www.w3.org/2000/svg">
  <sodipodi:namedview
     id="namedview1"
     pagecolor="#ffffff"
     bordercolor="#000000"
     borderopacity="0.25"
     inkscape:showpageshadow="2"
     inkscape:pageopacity="0.0"
     inkscape:pagecheckerboard="0"
     inkscape:deskcolor="#d1d1d1"
     inkscape:document-units="px"
     inkscape:zoom="8.1875"
     inkscape:cx="47.938931"
     inkscape:cy="48"
     inkscape:window-width="1920"
     inkscape:window-height="1011"
     inkscape:window-x="0"
     inkscape:window-y="0"
     inkscape:window-maximized="1"
     inkscape:current-layer="svg1" />
  <defs
     id="defs1">
    <linearGradient
       inkscape:collect="always"
       xlink:href="#4852"
       id="linearGradient4"
       x1="16"
       y1="30"
       x2="16"
       y2="2"
       gradientUnits="userSpaceOnUse"
       gradientTransform="scale(3)" />
    <linearGradient
       inkscape:collect="always"
       id="4852">
      <stop
         style="stop-color:#272727;stop-opacity:1;"
         offset="0"
         id="stop14555" />
      <stop
         style="stop-color:#5d5d5d;stop-opacity:1;"
         offset="1"
         id="stop14557" />
    </linearGradient>
    <linearGradient
       inkscape:collect="always"
       xlink:href="#linearGradient1270"
       id="linearGradient1272"
       x1="23.002001"
       y1="38"
       x2="23.002001"
       y2="10"
       gradientUnits="userSpaceOnUse"
       gradientTransform="matrix(3,0,0,3,-21.006,-24)" />
    <linearGradient
       inkscape:collect="always"
       id="linearGradient1270">
      <stop
         style="stop-color:#80d935;stop-opacity:1;"
         offset="0"
         id="stop1266" />
      <stop
         style="stop-color:#afd65f;stop-opacity:1;"
         offset="1"
         id="stop1268" />
    </linearGradient>
  </defs>
  <rect
     style="opacity:0.2;fill:#000000;stroke-width:5.25"
     id="rect1"
     width="84"
     height="84"
     x="6"
     y="7"
     ry="18" />
  <rect
     style="fill:url(#linearGradient4);stroke-width:3"
     id="rect2"
     width="75"
     height="84"
     x="6"
     y="6"
     ry="18" />
  <path
     id="path353"
     style="fill:url(#linearGradient1272);fill-opacity:1;stroke-width:3"
     d="m 45,6 v 26.595702 c 13.320633,-0.13551 21.966798,11.835939 21.966798,11.835939 0,0 -10.208019,13.130859 -20.841798,13.130859 -0.97458,0 -0.26802,-0.09138 -1.125,-0.25194 v 3.498045 c 0.18321,0.0246 0.27552,0.05088 0.310548,0.07032 v 0.006 h 0.006 l 0.006,0.006 v 0.006 0.006 0.006 0.006 l -0.006,0.006 -0.006,0.006 -0.006,0.006 v 0.006 h -0.006 v 0.006 h 0.006 v 0.006 h 0.006 l 0.006,0.006 c 0.03396,0.009 0.12858,0.0117 0.351561,0.0117 9.895482,0 17.053035,-5.344587 23.982423,-11.671875 1.148877,0.973374 5.853414,3.340452 6.820311,4.376952 -6.588285,5.835288 -21.945606,10.541016 -30.650388,10.541016 -0.26223,0 -0.370932,-0.0078 -0.410157,-0.0177 h -0.006 l -0.006,-0.006 -0.006,-0.006 v -0.006 -0.006 -0.006 -0.006 h -0.006 v -0.006 l -0.006,-0.006 -0.006,-0.006 C 45.34128,64.123377 45.24753,64.103355 45,64.078125 V 90 h 27 c 9.972,0 18,-8.028 18,-18 V 24 C 90,14.028 81.972,6 72,6 Z m 0,58.078125 V 60.808593 C 32.890224,59.194602 27.123048,45.082032 27.123048,45.082032 c 0,0 7.045776,-8.469705 17.876952,-9.345705 v 3.796875 c 0.13035,-0.0147 0.19737,-0.03417 0.22266,-0.04689 h 0.006 l 0.006,-0.006 v -0.006 h -0.006 v -0.006 h -0.006 l -0.006,-0.006 c -0.0261,-0.0129 -0.08208,-0.0267 -0.10548,-0.03516 h -0.006 v -0.006 h 0.006 l 0.006,-0.006 c 0.0255,-0.0051 0.09669,-0.006 0.24609,-0.006 6.282588,0 10.007811,5.167968 10.007811,5.167968 l -4.376952,4.558593 C 48.698679,45.089103 48.818394,43.302552 45,42.814452 v 11.501955 c 0.86538,0.307863 0.21075,0.492186 1.283202,0.492186 7.451685,0 14.402346,-10.212891 14.402346,-10.212891 0,0 -6.193362,-8.884911 -15.685548,-8.917968 v 0.04101 c -0.15129,-0.012 -0.537423,-0.0261 -0.609375,-0.03516 0.0093,-0.0012 0.0228,-0.0048 0.05274,-0.006 0.18786,-0.0063 0.371286,-6.48e-4 0.556641,0 v -3.011718 c -11.996976,1.01928 -24.005859,11.765625 -24.005859,11.765625 0,0 7.504395,17.99889 24.005859,19.646484 z m 0,-9.761718 c -5.159748,-1.8339 -8.455077,-8.203125 -8.455077,-8.203125 0,0 4.612965,-3.790986 8.443359,-3.304689 h 0.006 v 0.006 H 45 v -3.28125 c -7.298385,0.8352 -13.3125,5.982423 -13.3125,5.982423 0,0 4.160118,10.068783 13.3125,11.794923 z m 0,-21.720705 c -0.18651,0.0019 -0.368307,-0.0013 -0.556641,0.006 -0.0147,5.4e-4 -0.0267,0.0045 -0.03516,0.006 0.08775,0.0084 0.445968,0.021 0.591798,0.03516 z" />
</svg>
