<?xml version="1.0" encoding="UTF-8" standalone="no"?>
<!-- Created with Inkscape (http://www.inkscape.org/) -->

<svg
   width="96"
   height="96"
   viewBox="0 0 96 96.000006"
   version="1.1"
   id="svg1"
   inkscape:version="1.4.2 (ebf0e940d0, 2025-05-08)"
   sodipodi:docname="preferences-desktop-screensaver.svg"
   xmlns:inkscape="http://www.inkscape.org/namespaces/inkscape"
   xmlns:sodipodi="http://sodipodi.sourceforge.net/DTD/sodipodi-0.dtd"
   xmlns:xlink="http://www.w3.org/1999/xlink"
   xmlns="http://www.w3.org/2000/svg"
   xmlns:svg="http://www.w3.org/2000/svg">
  <sodipodi:namedview
     id="namedview1"
     pagecolor="#ffffff"
     bordercolor="#000000"
     borderopacity="0.25"
     inkscape:showpageshadow="2"
     inkscape:pageopacity="0.0"
     inkscape:pagecheckerboard="0"
     inkscape:deskcolor="#d1d1d1"
     inkscape:document-units="px"
     inkscape:zoom="8.1875"
     inkscape:cx="47.938931"
     inkscape:cy="48"
     inkscape:window-width="1920"
     inkscape:window-height="1011"
     inkscape:window-x="0"
     inkscape:window-y="0"
     inkscape:window-maximized="1"
     inkscape:current-layer="svg1" />
  <defs
     id="defs1">
    <linearGradient
       inkscape:collect="always"
       xlink:href="#4852"
       id="linearGradient4"
       x1="16"
       y1="30"
       x2="16"
       y2="2"
       gradientUnits="userSpaceOnUse"
       gradientTransform="scale(3)" />
    <linearGradient
       inkscape:collect="always"
       id="4852">
      <stop
         style="stop-color:#272727;stop-opacity:1;"
         offset="0"
         id="stop14555" />
      <stop
         style="stop-color:#5d5d5d;stop-opacity:1;"
         offset="1"
         id="stop14557" />
    </linearGradient>
  </defs>
  <rect
     style="opacity:0.2;fill:#000000;stroke-width:5.25"
     id="rect1"
     width="84"
     height="84"
     x="6"
     y="7"
     ry="18" />
  <rect
     style="fill:url(#linearGradient4);stroke-width:3"
     id="rect2"
     width="84"
     height="84"
     x="6"
     y="6"
     ry="18" />
  <path
     d="M 58.65,34.800003 57.867663,32.43234 55.5,31.650003 57.867663,30.867666 58.65,28.5 59.432337,30.867666 61.8,31.650003 59.432337,32.43234 Z m -15,0.06 L 42.08532,30.12468 37.35,28.560003 42.08532,26.995323 43.65,22.26 45.214677,26.995323 49.95,28.560003 45.214677,30.12468 Z m -18.3,7.29 L 22.742201,34.257801 14.85,31.650003 22.742201,29.042202 25.35,21.15 27.957798,29.042202 35.85,31.650003 27.957798,34.257801 Z m 37.940583,-4.950117 c 2.342391,2.83833 3.762915,6.466071 3.762915,10.433559 0,9.068217 -7.351344,16.419939 -16.419942,16.419939 -3.967488,0 -7.595154,-1.420485 -10.433556,-3.762876 1.985445,8.463045 9.575118,14.709495 18.643338,14.709495 C 69.42318,75.000003 78,66.42318 78,55.843341 78,46.77474 71.75355,39.185256 63.290508,37.200003 Z"
     style="fill:#ffffff;stroke-width:3"
     id="path1" />
</svg>
