<?xml version="1.0" encoding="UTF-8" standalone="no"?>
<!-- Created with Inkscape (http://www.inkscape.org/) -->

<svg
   width="96"
   height="96"
   viewBox="0 0 96 96.000006"
   version="1.1"
   id="svg1"
   inkscape:version="1.4.2 (ebf0e940d0, 2025-05-08)"
   sodipodi:docname="preferences-desktop-accessibility.svg"
   xmlns:inkscape="http://www.inkscape.org/namespaces/inkscape"
   xmlns:sodipodi="http://sodipodi.sourceforge.net/DTD/sodipodi-0.dtd"
   xmlns:xlink="http://www.w3.org/1999/xlink"
   xmlns="http://www.w3.org/2000/svg"
   xmlns:svg="http://www.w3.org/2000/svg">
  <sodipodi:namedview
     id="namedview1"
     pagecolor="#ffffff"
     bordercolor="#000000"
     borderopacity="0.25"
     inkscape:showpageshadow="2"
     inkscape:pageopacity="0.0"
     inkscape:pagecheckerboard="0"
     inkscape:deskcolor="#d1d1d1"
     inkscape:document-units="px"
     inkscape:zoom="8.4166667"
     inkscape:cx="48.059406"
     inkscape:cy="48"
     inkscape:window-width="1920"
     inkscape:window-height="1011"
     inkscape:window-x="0"
     inkscape:window-y="0"
     inkscape:window-maximized="1"
     inkscape:current-layer="svg1" />
  <defs
     id="defs1">
    <linearGradient
       inkscape:collect="always"
       id="linearGradient937">
      <stop
         style="stop-color:#0861bd;stop-opacity:1;"
         offset="0"
         id="stop933" />
      <stop
         style="stop-color:#2da9ff;stop-opacity:1;"
         offset="1"
         id="stop935" />
    </linearGradient>
    <linearGradient
       inkscape:collect="always"
       xlink:href="#linearGradient937"
       id="linearGradient2"
       x1="48"
       y1="90"
       x2="48"
       y2="6"
       gradientUnits="userSpaceOnUse" />
    <linearGradient
       inkscape:collect="always"
       xlink:href="#4852"
       id="linearGradient4"
       x1="16"
       y1="30"
       x2="16"
       y2="2"
       gradientUnits="userSpaceOnUse"
       gradientTransform="scale(3)" />
    <linearGradient
       inkscape:collect="always"
       id="4852">
      <stop
         style="stop-color:#272727;stop-opacity:1;"
         offset="0"
         id="stop14555" />
      <stop
         style="stop-color:#5d5d5d;stop-opacity:1;"
         offset="1"
         id="stop14557" />
    </linearGradient>
  </defs>
  <rect
     style="opacity:0.2;fill:#000000;stroke-width:5.25"
     id="rect1"
     width="84"
     height="84"
     x="6"
     y="7"
     ry="18" />
  <rect
     style="fill:url(#linearGradient4);stroke-width:3"
     id="rect2"
     width="84"
     height="84"
     x="6"
     y="6"
     ry="18" />
  <path
     id="path2789"
     style="fill:url(#linearGradient2);stroke-width:6"
     d="m 48,21 c -3.313704,0 -6,2.686295 -6,6 0,3.313704 2.686296,6 6,6 3.313704,0 6,-2.686296 6,-6 0,-3.313705 -2.686296,-6 -6,-6 z M 28.5,39 c -0.828426,0 -1.5,0.671574 -1.5,1.5 0,0.828426 0.671574,1.5 1.5,1.5 H 42 v 31.5 c 0,0.828426 0.671574,1.5 1.5,1.5 0.828426,0 1.5,-0.671574 1.5,-1.5 V 57 h 6 v 16.5 c 0,0.828426 0.671574,1.5 1.5,1.5 0.828426,0 1.5,-0.671574 1.5,-1.5 V 42 H 67.5 C 68.328426,42 69,41.328426 69,40.5 69,39.671574 68.328426,39 67.5,39 Z"
     sodipodi:nodetypes="sssssssscsssccssscssss" />
</svg>
