<?xml version="1.0" encoding="UTF-8" standalone="no"?>
<!-- Created with Inkscape (http://www.inkscape.org/) -->

<svg
   width="96"
   height="96"
   viewBox="0 0 96 96.000006"
   version="1.1"
   id="svg1"
   inkscape:version="1.4.2 (ebf0e940d0, 2025-05-08)"
   sodipodi:docname="preferences-activities.svg"
   xmlns:inkscape="http://www.inkscape.org/namespaces/inkscape"
   xmlns:sodipodi="http://sodipodi.sourceforge.net/DTD/sodipodi-0.dtd"
   xmlns:xlink="http://www.w3.org/1999/xlink"
   xmlns="http://www.w3.org/2000/svg"
   xmlns:svg="http://www.w3.org/2000/svg">
  <sodipodi:namedview
     id="namedview1"
     pagecolor="#ffffff"
     bordercolor="#000000"
     borderopacity="0.25"
     inkscape:showpageshadow="2"
     inkscape:pageopacity="0.0"
     inkscape:pagecheckerboard="0"
     inkscape:deskcolor="#d1d1d1"
     inkscape:document-units="px"
     inkscape:zoom="8.28125"
     inkscape:cx="48"
     inkscape:cy="48"
     inkscape:window-width="1920"
     inkscape:window-height="1010"
     inkscape:window-x="0"
     inkscape:window-y="0"
     inkscape:window-maximized="1"
     inkscape:current-layer="svg1" />
  <defs
     id="defs1">
    <linearGradient
       inkscape:collect="always"
       id="linearGradient2539">
      <stop
         style="stop-color:#3a4c5f;stop-opacity:1;"
         offset="0"
         id="stop2535" />
      <stop
         style="stop-color:#5b7790;stop-opacity:1;"
         offset="1"
         id="stop2537" />
    </linearGradient>
    <linearGradient
       inkscape:collect="always"
       xlink:href="#linearGradient2539"
       id="linearGradient3"
       x1="16"
       y1="30"
       x2="16"
       y2="2"
       gradientUnits="userSpaceOnUse"
       gradientTransform="scale(3)" />
    <linearGradient
       inkscape:collect="always"
       xlink:href="#4852"
       id="linearGradient4"
       x1="16"
       y1="30"
       x2="16"
       y2="2"
       gradientUnits="userSpaceOnUse"
       gradientTransform="scale(3)" />
    <linearGradient
       inkscape:collect="always"
       id="4852">
      <stop
         style="stop-color:#272727;stop-opacity:1;"
         offset="0"
         id="stop14555" />
      <stop
         style="stop-color:#5d5d5d;stop-opacity:1;"
         offset="1"
         id="stop14557" />
    </linearGradient>
  </defs>
  <rect
     style="opacity:0.2;fill:#000000;stroke-width:5.25"
     id="rect1"
     width="84"
     height="84"
     x="6"
     y="7"
     ry="18" />
  <rect
     style="fill:url(#linearGradient4);stroke-width:3"
     id="rect2"
     width="84"
     height="84"
     x="6"
     y="6"
     ry="18" />
  <path
     id="rect1-2"
     style="opacity:1;fill:url(#linearGradient3);stroke-width:3"
     d="m 57.146484,16.230469 c -1.252308,0.03784 -2.359296,1.478994 -3.046875,2.701172 l -2.964843,5.267578 c 0.797004,0.105528 1.596936,0.250218 2.390625,0.439453 0.664722,0.158486 1.327359,0.350099 1.986327,0.568359 C 54.860655,24.992622 54.199746,24.797528 53.525391,24.638672 51.751824,24.220876 49.901121,24 48,24 c -1.183764,0 -2.342604,0.103991 -3.480468,0.269531 0.118479,-0.01752 0.232749,-0.05456 0.351561,-0.07031 l -2.970702,-5.267578 c -0.560247,-0.995848 -1.40367,-2.134725 -2.373048,-2.542969 -0.440628,-0.185565 -0.902973,-0.222185 -1.382811,-0.02344 l -5.542968,2.296875 c -1.53549,0.636019 -1.29177,2.870229 -0.84375,4.470703 l 1.628904,5.824219 c 0.375942,-0.287907 0.757125,-0.561649 1.148439,-0.826172 0.865794,-0.585266 1.775658,-1.097672 2.707029,-1.564453 -0.93426,0.469938 -1.847535,0.980982 -2.707029,1.564453 -2.280714,1.548269 -4.261239,3.492027 -5.888673,5.712891 0.107412,-0.14712 0.194233,-0.312864 0.304688,-0.457032 l -5.81836,-1.628904 c -1.600474,-0.44802 -3.834683,-0.69174 -4.470703,0.84375 l -2.296875,5.542968 c -0.636019,1.535487 1.117906,2.940942 2.566407,3.755859 l 5.267578,2.964843 c 0.105531,-0.797031 0.250209,-1.596909 0.439453,-2.390625 0.158485,-0.66471 0.350102,-1.327374 0.568359,-1.986327 -0.214401,0.651039 -0.409506,1.311999 -0.568359,1.986327 C 24.220864,44.2482 24,46.098852 24,48 c 0,1.184253 0.103857,2.342157 0.269531,3.480468 -0.01749,-0.118296 -0.05458,-0.232932 -0.07031,-0.351561 l -5.267578,2.970702 c -1.448504,0.815028 -3.202428,2.220375 -2.566407,3.755859 l 2.296875,5.542968 c 0.636019,1.53549 2.870224,1.291767 4.470703,0.84375 l 5.824219,-1.628904 c -0.286742,-0.374418 -0.562624,-0.75291 -0.826172,-1.14258 -0.584387,-0.864042 -1.092235,-1.771758 -1.558593,-2.70117 0.4694,0.931974 0.976175,1.843668 1.558593,2.70117 1.543459,2.272458 3.483702,4.247229 5.695314,5.871096 -0.141354,-0.103395 -0.300831,-0.186762 -0.439455,-0.292971 l -1.628904,5.818359 c -0.448023,1.600476 -0.69174,3.834687 0.84375,4.470705 l 5.542968,2.296875 c 1.535487,0.636021 2.940942,-1.117908 3.755859,-2.566407 l 2.964843,-5.267577 C 44.065518,71.6949 43.265121,71.551497 42.46875,71.361327 44.244786,71.780361 46.095981,72 48,72 c 1.178904,0 2.335347,-0.09946 3.46875,-0.263673 -0.114159,0.01682 -0.225375,0.04927 -0.339843,0.06445 l 2.970702,5.267577 c 0.814917,1.448508 2.220372,3.202431 3.755859,2.566407 l 5.542968,-2.296875 c 1.53549,-0.636015 1.291776,-2.870229 0.84375,-4.470705 l -1.628904,-5.824218 c -0.360714,0.276249 -0.726675,0.542148 -1.101564,0.796875 -0.863544,0.586758 -1.771941,1.101684 -2.70117,1.570314 0.933279,-0.47223 1.842882,-0.98466 2.70117,-1.570314 2.256453,-1.53969 4.215723,-3.472011 5.83008,-5.671875 -0.104322,0.142683 -0.185784,0.305412 -0.292971,0.445314 l 5.818359,1.628904 c 1.600476,0.44802 3.834687,0.691743 4.470705,-0.84375 l 2.296875,-5.542968 c 0.636021,-1.535487 -1.117902,-2.940951 -2.566407,-3.755859 l -5.267577,-2.964843 c -0.10557,0.797358 -0.250098,1.596585 -0.439455,2.390625 -0.159873,0.670407 -0.353535,1.339365 -0.574218,2.003907 0.216618,-0.656124 0.414045,-1.324104 0.574218,-2.003907 C 71.779284,51.751503 72,49.901499 72,48 c 0,-1.183713 -0.104004,-2.342652 -0.269532,-3.480468 0.01752,0.118473 0.05456,0.232755 0.07031,0.351561 l 5.267577,-2.970702 c 1.448505,-0.814908 3.202428,-2.220372 2.566407,-3.755859 l -2.296875,-5.542968 c -0.19875,-0.479838 -0.553311,-0.786441 -0.996093,-0.966798 -0.974127,-0.396783 -2.374284,-0.184965 -3.474612,0.123048 l -5.824218,1.628904 c 0.288036,0.376104 0.561543,0.756948 0.826173,1.148439 0.593622,0.878199 1.116213,1.802481 1.587891,2.748045 -0.475182,-0.949416 -0.995652,-1.875585 -1.587891,-2.748045 -1.546104,-2.277642 -3.48417,-4.256529 -5.701173,-5.882813 0.143571,0.10494 0.304557,0.190987 0.445314,0.298828 l 1.628904,-5.81836 c 0.44802,-1.600476 0.69174,-3.834683 -0.84375,-4.470703 l -5.542968,-2.296875 c -0.239919,-0.09938 -0.477075,-0.141773 -0.708984,-0.134765 z m -13.371093,8.179687 c -0.815091,0.145213 -1.61796,0.331361 -2.402343,0.556641 0.790113,-0.2281 1.590618,-0.410233 2.402343,-0.556641 z m -3.509766,0.908203 c -0.667506,0.227618 -1.317456,0.484244 -1.957032,0.767578 0.641433,-0.283566 1.29318,-0.54078 1.957032,-0.767578 z m 16.242189,0.257813 c 0.225075,0.08557 0.449865,0.159185 0.673827,0.251953 0.05072,0.02101 0.09599,0.049 0.146484,0.07031 -0.270417,-0.114292 -0.544941,-0.21771 -0.820311,-0.322265 z m 3.410154,1.59375 c 0.186183,0.106046 0.356634,0.229368 0.539064,0.339844 -0.181518,-0.110618 -0.35442,-0.233953 -0.539064,-0.339844 z m -32.408202,8.373046 c -0.110612,0.181512 -0.233958,0.354426 -0.339844,0.539064 0.106046,-0.186183 0.229368,-0.356634 0.339844,-0.539064 z M 48,36 c 6.627405,0 12,5.372598 12,12 0,6.627405 -5.372595,12 -12,12 -6.627402,0 -12,-5.372595 -12,-12 0,-6.627402 5.372598,-12 12,-12 z m 21.890625,2.25 c 0.297447,0.668058 0.566994,1.346589 0.802734,2.039064 -0.23628,-0.695016 -0.50613,-1.374336 -0.802734,-2.039064 z m -43.992188,0.421875 c -0.114287,0.270408 -0.217714,0.544953 -0.322265,0.820311 0.08557,-0.225069 0.159187,-0.449871 0.251953,-0.673827 0.02101,-0.05072 0.049,-0.09599 0.07031,-0.146484 z m 45.128906,2.689452 c 0.230235,0.79593 0.415188,1.602048 0.5625,2.419923 -0.146358,-0.822519 -0.334632,-1.628679 -0.5625,-2.419923 z M 24.410156,52.212891 c 0.145956,0.821202 0.329434,1.629879 0.556641,2.419923 -0.229487,-0.794754 -0.409818,-1.60332 -0.556641,-2.419923 z m 0.919922,3.556641 c 0.218964,0.638664 0.468229,1.261935 0.738281,1.875 -0.270655,-0.615879 -0.519869,-1.238511 -0.738281,-1.875 z m 45.111329,0.691404 c -0.09097,0.24075 -0.170337,0.481227 -0.269532,0.720705 -0.02033,0.04907 -0.0497,0.09175 -0.07031,0.140625 0.120006,-0.284154 0.230589,-0.571716 0.339842,-0.86133 z m -1.617189,3.462891 c -0.09776,0.171507 -0.209025,0.329727 -0.310545,0.498048 0.101628,-0.167427 0.212928,-0.327966 0.310545,-0.498048 z M 35.607423,68.53125 c 0.152868,0.09248 0.296097,0.197967 0.45117,0.287109 -0.156159,-0.08917 -0.297654,-0.194817 -0.45117,-0.287109 z m 22.083984,1.376952 c -0.624495,0.276156 -1.252635,0.533499 -1.898439,0.755862 0.646923,-0.222585 1.277859,-0.480861 1.898439,-0.755862 z m -18.996093,0.20508 c 0.100134,0.04219 0.203865,0.07632 0.304686,0.117186 -0.05992,-0.02427 -0.121806,-0.03381 -0.181641,-0.05859 -0.04254,-0.01762 -0.08066,-0.04076 -0.123045,-0.05859 z m 15.91992,0.925782 c -0.749097,0.215691 -1.510668,0.385002 -2.279298,0.527343 0.773715,-0.141642 1.533426,-0.313413 2.279298,-0.527343 z" />
  <path
     id="path285"
     style="opacity:0.3;fill:#ffffff;stroke-width:4.8;stroke-linecap:round;stroke-linejoin:round"
     d="M 48,24 C 34.745193,24 24,34.745193 24,48 24,61.254807 34.745193,72 48,72 61.254807,72 72,61.254807 72,48 72,34.745193 61.254807,24 48,24 Z m 0,12 c 6.627405,0 12,5.372598 12,12 0,6.627405 -5.372595,12 -12,12 -6.627402,0 -12,-5.372595 -12,-12 0,-6.627402 5.372598,-12 12,-12 z" />
</svg>
