<?xml version="1.0" encoding="UTF-8" standalone="no"?>
<!-- Created with Inkscape (http://www.inkscape.org/) -->

<svg
   width="96"
   height="96"
   viewBox="0 0 96 96.000008"
   version="1.1"
   id="svg1"
   inkscape:version="1.4.2 (ebf0e940d0, 2025-05-08)"
   sodipodi:docname="preferences-desktop-color.svg"
   xmlns:inkscape="http://www.inkscape.org/namespaces/inkscape"
   xmlns:sodipodi="http://sodipodi.sourceforge.net/DTD/sodipodi-0.dtd"
   xmlns:xlink="http://www.w3.org/1999/xlink"
   xmlns="http://www.w3.org/2000/svg"
   xmlns:svg="http://www.w3.org/2000/svg">
  <sodipodi:namedview
     id="namedview1"
     pagecolor="#ffffff"
     bordercolor="#000000"
     borderopacity="0.25"
     inkscape:showpageshadow="2"
     inkscape:pageopacity="0.0"
     inkscape:pagecheckerboard="0"
     inkscape:deskcolor="#d1d1d1"
     inkscape:document-units="px"
     inkscape:zoom="8.28125"
     inkscape:cx="48"
     inkscape:cy="48"
     inkscape:window-width="1920"
     inkscape:window-height="1010"
     inkscape:window-x="0"
     inkscape:window-y="0"
     inkscape:window-maximized="1"
     inkscape:current-layer="svg1" />
  <defs
     id="defs1">
    <linearGradient
       inkscape:collect="always"
       xlink:href="#4852"
       id="linearGradient4"
       x1="16"
       y1="30"
       x2="16"
       y2="2"
       gradientUnits="userSpaceOnUse"
       gradientTransform="scale(3)" />
    <linearGradient
       inkscape:collect="always"
       id="4852">
      <stop
         style="stop-color:#272727;stop-opacity:1;"
         offset="0"
         id="stop14555" />
      <stop
         style="stop-color:#5d5d5d;stop-opacity:1;"
         offset="1"
         id="stop14557" />
    </linearGradient>
    <radialGradient
       inkscape:collect="always"
       xlink:href="#linearGradient10051"
       id="radialGradient1174"
       cx="14.852401"
       cy="30.071783"
       fx="14.852401"
       fy="30.071783"
       r="14"
       gradientUnits="userSpaceOnUse"
       gradientTransform="matrix(-2.5714284,-2.5714282,2.4243662,-2.4243662,50.352986,127.93271)" />
    <linearGradient
       inkscape:collect="always"
       id="linearGradient10051">
      <stop
         style="stop-color:#aa3ad4;stop-opacity:1"
         offset="0"
         id="stop10047" />
      <stop
         style="stop-color:#aa3ad4;stop-opacity:0"
         offset="1"
         id="stop10049" />
    </linearGradient>
    <radialGradient
       inkscape:collect="always"
       xlink:href="#linearGradient1603"
       id="radialGradient1208"
       gradientUnits="userSpaceOnUse"
       gradientTransform="matrix(2.5714284,-2.5714282,-2.4243662,-2.4243662,45.647012,127.93271)"
       cx="14.852401"
       cy="30.071783"
       fx="14.852401"
       fy="30.071783"
       r="14" />
    <linearGradient
       inkscape:collect="always"
       id="linearGradient1603">
      <stop
         style="stop-color:#ff910c;stop-opacity:1;"
         offset="0"
         id="stop1599" />
      <stop
         style="stop-color:#ff910c;stop-opacity:0;"
         offset="1"
         id="stop1601" />
    </linearGradient>
    <radialGradient
       inkscape:collect="always"
       xlink:href="#linearGradient5569"
       id="radialGradient1243"
       gradientUnits="userSpaceOnUse"
       gradientTransform="matrix(2.5714284,2.5714282,-2.4243662,2.4243662,45.647012,-31.932708)"
       cx="15.190269"
       cy="30.646524"
       fx="15.190269"
       fy="30.646524"
       r="14" />
    <linearGradient
       inkscape:collect="always"
       id="linearGradient5569">
      <stop
         style="stop-color:#f5cc24;stop-opacity:1;"
         offset="0"
         id="stop5565" />
      <stop
         style="stop-color:#f5cc24;stop-opacity:0.00045133"
         offset="1"
         id="stop5567" />
    </linearGradient>
    <radialGradient
       inkscape:collect="always"
       xlink:href="#linearGradient3954"
       id="radialGradient1278"
       gradientUnits="userSpaceOnUse"
       gradientTransform="matrix(-2.5714284,2.5714282,2.4243662,2.4243662,50.352986,-31.932708)"
       cx="15.190269"
       cy="30.646524"
       fx="15.190269"
       fy="30.646524"
       r="14" />
    <linearGradient
       inkscape:collect="always"
       id="linearGradient3954">
      <stop
         style="stop-color:#24c2f5;stop-opacity:1;"
         offset="0"
         id="stop3950" />
      <stop
         style="stop-color:#24c2f5;stop-opacity:0;"
         offset="1"
         id="stop3952" />
    </linearGradient>
    <radialGradient
       inkscape:collect="always"
       xlink:href="#linearGradient7221"
       id="radialGradient1313"
       gradientUnits="userSpaceOnUse"
       gradientTransform="matrix(3.4285714,0,0,-3.4285714,-6.857139,102.85714)"
       cx="16"
       cy="28.250002"
       fx="16"
       fy="28.250002"
       r="14" />
    <linearGradient
       inkscape:collect="always"
       id="linearGradient7221">
      <stop
         style="stop-color:#f43434;stop-opacity:1;"
         offset="0"
         id="stop7217" />
      <stop
         style="stop-color:#f43434;stop-opacity:0;"
         offset="1"
         id="stop7219" />
    </linearGradient>
    <radialGradient
       inkscape:collect="always"
       xlink:href="#linearGradient15132"
       id="radialGradient1348"
       gradientUnits="userSpaceOnUse"
       gradientTransform="matrix(0,3.4285714,-3.4285714,0,102.85714,-6.8571428)"
       cx="16"
       cy="28.250002"
       fx="16"
       fy="28.250002"
       r="14" />
    <linearGradient
       inkscape:collect="always"
       id="linearGradient15132">
      <stop
         style="stop-color:#f5e224;stop-opacity:1;"
         offset="0"
         id="stop15128" />
      <stop
         style="stop-color:#f5e224;stop-opacity:0;"
         offset="1"
         id="stop15130" />
    </linearGradient>
    <radialGradient
       inkscape:collect="always"
       xlink:href="#linearGradient12059"
       id="radialGradient991"
       cx="16"
       cy="28.250002"
       fx="16"
       fy="28.250002"
       r="14"
       gradientUnits="userSpaceOnUse"
       gradientTransform="matrix(3.4285714,0,0,3.4285714,-6.857139,-6.8571412)" />
    <linearGradient
       inkscape:collect="always"
       id="linearGradient12059">
      <stop
         style="stop-color:#47c12a;stop-opacity:1;"
         offset="0"
         id="stop12055" />
      <stop
         style="stop-color:#47c12a;stop-opacity:0;"
         offset="1"
         id="stop12057" />
    </linearGradient>
  </defs>
  <rect
     style="opacity:0.2;fill:#000000;stroke-width:7.35"
     id="rect1"
     width="84"
     height="84"
     x="6"
     y="7"
     ry="18" />
  <rect
     style="fill:url(#linearGradient4);stroke-width:3"
     id="rect2"
     width="84"
     height="84"
     x="6"
     y="6"
     ry="18" />
  <path
     id="path416"
     style="fill:#ffffff;fill-opacity:1;stroke-width:3.80348;stroke-linecap:round;stroke-linejoin:round"
     d="m 48,18.000002 c 0,0 -17.836194,28.986388 -18,41.999998 0,9.941114 8.058882,18 18,18 9.941114,0 18,-8.058886 18,-18 C 65.9928,46.099314 48,18.000002 48,18.000002 Z m 11.671874,39.24609 C 59.887318,58.148294 59.997428,59.072436 60,60 60,66.627418 54.627416,72 48,72 47.097482,71.9878 46.199224,71.87378 45.322266,71.660156 52.621758,70.277214 58.321662,64.55171 59.671874,57.246092 Z"
     sodipodi:nodetypes="ccsccccccc" />
  <path
     id="path371"
     style="fill:url(#radialGradient1174);fill-opacity:1;stroke-width:3;stroke-linecap:round;stroke-linejoin:round"
     d="m 48,18 c 0,0 -17.836194,28.98639 -18,42 0,9.941114 8.058882,18 18,18 9.941114,0 18,-8.058886 18,-18 C 65.9928,46.099314 48,18 48,18 Z M 59.671876,57.246094 C 59.887318,58.148296 59.997428,59.072436 60,60 60,66.627418 54.627416,72 48,72 47.097482,71.9878 46.201176,71.87378 45.324218,71.660156 52.62371,70.277214 58.321662,64.551712 59.671876,57.246094 Z" />
  <path
     id="path1184"
     style="fill:url(#radialGradient1208);fill-opacity:1;stroke-width:3;stroke-linecap:round;stroke-linejoin:round"
     d="m 48,18 c 0,0 -17.836194,28.98639 -18,42 0,9.941114 8.058882,18 18,18 9.941114,0 18,-8.058886 18,-18 C 65.9928,46.099314 48,18 48,18 Z M 59.671876,57.246094 C 59.887318,58.148296 59.997428,59.072436 60,60 60,66.627418 54.627416,72 48,72 47.097482,71.9878 46.201176,71.87378 45.324218,71.660156 52.62371,70.277214 58.321662,64.551712 59.671876,57.246094 Z" />
  <path
     id="path1219"
     style="fill:url(#radialGradient1243);fill-opacity:1;stroke-width:3;stroke-linecap:round;stroke-linejoin:round"
     d="m 48,18 c 0,0 -17.836194,28.98639 -18,42 0,9.941114 8.058882,18 18,18 9.941114,0 18,-8.058886 18,-18 C 65.9928,46.099314 48,18 48,18 Z M 59.671876,57.246094 C 59.887318,58.148296 59.997428,59.072436 60,60 60,66.627418 54.627416,72 48,72 47.097482,71.9878 46.201176,71.87378 45.324218,71.660156 52.62371,70.277214 58.321662,64.551712 59.671876,57.246094 Z" />
  <path
     id="path1254"
     style="fill:url(#radialGradient1278);fill-opacity:1;stroke-width:3;stroke-linecap:round;stroke-linejoin:round"
     d="m 48,18 c 0,0 -17.836194,28.98639 -18,42 0,9.941114 8.058882,18 18,18 9.941114,0 18,-8.058886 18,-18 C 65.9928,46.099314 48,18 48,18 Z M 59.671876,57.246094 C 59.887318,58.148296 59.997428,59.072436 60,60 60,66.627418 54.627416,72 48,72 47.097482,71.9878 46.201176,71.87378 45.324218,71.660156 52.62371,70.277214 58.321662,64.551712 59.671876,57.246094 Z" />
  <path
     id="path1289"
     style="fill:url(#radialGradient1313);fill-opacity:1;stroke-width:3;stroke-linecap:round;stroke-linejoin:round"
     d="m 48,18 c 0,0 -17.836194,28.98639 -18,42 0,9.941114 8.058882,18 18,18 9.941114,0 18,-8.058886 18,-18 C 65.9928,46.099314 48,18 48,18 Z M 59.671876,57.246094 C 59.887318,58.148296 59.997428,59.072436 60,60 60,66.627418 54.627416,72 48,72 47.097482,71.9878 46.201176,71.87378 45.324218,71.660156 52.62371,70.277214 58.321662,64.551712 59.671876,57.246094 Z" />
  <path
     id="path1324"
     style="fill:url(#radialGradient1348);fill-opacity:1;stroke-width:3;stroke-linecap:round;stroke-linejoin:round"
     d="m 48,18 c 0,0 -17.836194,28.98639 -18,42 0,9.941114 8.058882,18 18,18 9.941114,0 18,-8.058886 18,-18 C 65.9928,46.099314 48,18 48,18 Z M 59.671876,57.246094 C 59.887318,58.148296 59.997428,59.072436 60,60 60,66.627418 54.627416,72 48,72 47.097482,71.9878 46.201176,71.87378 45.324218,71.660156 52.62371,70.277214 58.321662,64.551712 59.671876,57.246094 Z" />
  <path
     id="path404"
     style="fill:url(#radialGradient991);fill-opacity:1;stroke-width:3;stroke-linecap:round;stroke-linejoin:round"
     d="m 48,18 c 0,0 -17.836194,28.98639 -18,42 0,9.941114 8.058882,18 18,18 9.941114,0 18,-8.058886 18,-18 C 65.9928,46.099314 48,18 48,18 Z M 59.671876,57.246094 C 59.887318,58.148296 59.997428,59.072436 60,60 60,66.627418 54.627416,72 48,72 47.097482,71.9878 46.201176,71.87378 45.324218,71.660156 52.62371,70.277214 58.321662,64.551712 59.671876,57.246094 Z" />
</svg>
