<?xml version="1.0" encoding="UTF-8" standalone="no"?>
<!-- Created with Inkscape (http://www.inkscape.org/) -->

<svg
   width="96"
   height="96"
   viewBox="0 0 96 96.000006"
   version="1.1"
   id="svg1"
   inkscape:version="1.4.2 (ebf0e940d0, 2025-05-08)"
   sodipodi:docname="seahorse.svg"
   xmlns:inkscape="http://www.inkscape.org/namespaces/inkscape"
   xmlns:sodipodi="http://sodipodi.sourceforge.net/DTD/sodipodi-0.dtd"
   xmlns:xlink="http://www.w3.org/1999/xlink"
   xmlns="http://www.w3.org/2000/svg"
   xmlns:svg="http://www.w3.org/2000/svg">
  <sodipodi:namedview
     id="namedview1"
     pagecolor="#ffffff"
     bordercolor="#000000"
     borderopacity="0.25"
     inkscape:showpageshadow="2"
     inkscape:pageopacity="0.0"
     inkscape:pagecheckerboard="0"
     inkscape:deskcolor="#d1d1d1"
     inkscape:document-units="px"
     inkscape:zoom="8.1875"
     inkscape:cx="47.938931"
     inkscape:cy="48"
     inkscape:window-width="1920"
     inkscape:window-height="1011"
     inkscape:window-x="0"
     inkscape:window-y="0"
     inkscape:window-maximized="1"
     inkscape:current-layer="svg1" />
  <defs
     id="defs1">
    <linearGradient
       inkscape:collect="always"
       xlink:href="#4852"
       id="linearGradient4"
       x1="16"
       y1="30"
       x2="16"
       y2="2"
       gradientUnits="userSpaceOnUse"
       gradientTransform="scale(3)" />
    <linearGradient
       inkscape:collect="always"
       id="4852">
      <stop
         style="stop-color:#272727;stop-opacity:1;"
         offset="0"
         id="stop14555" />
      <stop
         style="stop-color:#5d5d5d;stop-opacity:1;"
         offset="1"
         id="stop14557" />
    </linearGradient>
    <linearGradient
       inkscape:collect="always"
       id="linearGradient6154">
      <stop
         style="stop-color:#4cb35a;stop-opacity:1;"
         offset="0"
         id="stop6150" />
      <stop
         style="stop-color:#73d091;stop-opacity:1;"
         offset="1"
         id="stop6152" />
    </linearGradient>
    <linearGradient
       inkscape:collect="always"
       xlink:href="#linearGradient6154"
       id="linearGradient2"
       x1="16"
       y1="30"
       x2="16"
       y2="2"
       gradientUnits="userSpaceOnUse"
       gradientTransform="scale(3)" />
  </defs>
  <rect
     style="opacity:0.2;fill:#000000;stroke-width:5.25"
     id="rect1"
     width="84"
     height="84"
     x="6"
     y="7"
     ry="18" />
  <rect
     style="fill:url(#linearGradient4);stroke-width:3"
     id="rect2"
     width="84"
     height="84"
     x="6"
     y="6"
     ry="18" />
  <rect
     style="opacity:1;fill:url(#linearGradient2);stroke-width:3;stroke-linecap:round;stroke-linejoin:round;paint-order:stroke fill markers"
     id="rect5470"
     width="60"
     height="45"
     x="18"
     y="27"
     ry="6" />
  <rect
     style="opacity:1;fill:#1a1a1a;stroke-width:4.39155;stroke-linecap:round;stroke-linejoin:round;paint-order:stroke fill markers"
     id="rect5731"
     width="60"
     height="9"
     x="18"
     y="36" />
  <path
     d="M 40.5,15 C 31.387311,15 24,22.387311 24,31.500003 c 0,6.411111 3.658728,11.963835 9,14.695314 v 30.035154 l 3,1.769532 h 4.125 l 4.880859,-5.302734 -1.125,-1.177734 1.125,-1.177734 -2.25,-2.36133 2.25,-2.355468 -1.125,-1.177734 1.125,-1.177734 -1.6875,-1.769532 1.6875,-1.769532 v -1.76367 l -1.125,-1.183596 1.125,-1.177734 V 51.046878 L 48,50.953128 V 46.195317 C 53.341272,43.463838 57,37.911114 57,31.500003 57,22.387311 49.612689,15 40.5,15 Z m 0,6.046875 c 2.48523,0 4.499934,2.004207 4.5,4.476561 C 44.999934,27.995793 42.98523,30 40.5,30 38.01477,30 36.000069,27.995793 36,25.523436 c 6.9e-5,-2.472354 2.01477,-4.476561 4.5,-4.476561 z"
     style="fill:#ffffff;fill-opacity:1;stroke-width:3"
     id="path5092" />
</svg>
