<?xml version="1.0" encoding="UTF-8" standalone="no"?>
<!-- Created with Inkscape (http://www.inkscape.org/) -->

<svg
   width="96"
   height="96"
   viewBox="0 0 96 96.000006"
   version="1.1"
   id="svg1"
   inkscape:version="1.4.2 (ebf0e940d0, 2025-05-08)"
   sodipodi:docname="system-software-install.svg"
   xmlns:inkscape="http://www.inkscape.org/namespaces/inkscape"
   xmlns:sodipodi="http://sodipodi.sourceforge.net/DTD/sodipodi-0.dtd"
   xmlns:xlink="http://www.w3.org/1999/xlink"
   xmlns="http://www.w3.org/2000/svg"
   xmlns:svg="http://www.w3.org/2000/svg">
  <sodipodi:namedview
     id="namedview1"
     pagecolor="#ffffff"
     bordercolor="#000000"
     borderopacity="0.25"
     inkscape:showpageshadow="2"
     inkscape:pageopacity="0.0"
     inkscape:pagecheckerboard="0"
     inkscape:deskcolor="#d1d1d1"
     inkscape:document-units="px"
     inkscape:zoom="8.2916667"
     inkscape:cx="47.939698"
     inkscape:cy="48"
     inkscape:window-width="1920"
     inkscape:window-height="1011"
     inkscape:window-x="0"
     inkscape:window-y="0"
     inkscape:window-maximized="1"
     inkscape:current-layer="svg1" />
  <defs
     id="defs1">
    <linearGradient
       inkscape:collect="always"
       xlink:href="#4852"
       id="linearGradient4"
       x1="16"
       y1="30"
       x2="16"
       y2="2"
       gradientUnits="userSpaceOnUse"
       gradientTransform="scale(3)" />
    <linearGradient
       inkscape:collect="always"
       id="4852">
      <stop
         style="stop-color:#272727;stop-opacity:1;"
         offset="0"
         id="stop14555" />
      <stop
         style="stop-color:#5d5d5d;stop-opacity:1;"
         offset="1"
         id="stop14557" />
    </linearGradient>
    <linearGradient
       inkscape:collect="always"
       xlink:href="#linearGradient3147"
       id="linearGradient2"
       x1="24"
       y1="45"
       x2="24"
       y2="3"
       gradientUnits="userSpaceOnUse"
       gradientTransform="scale(2)" />
    <linearGradient
       inkscape:collect="always"
       id="linearGradient3147">
      <stop
         style="stop-color:#0091f9;stop-opacity:1;"
         offset="0"
         id="stop3143" />
      <stop
         style="stop-color:#41bbff;stop-opacity:1;"
         offset="1"
         id="stop3145" />
    </linearGradient>
  </defs>
  <rect
     style="opacity:0.2;fill:#000000;stroke-width:5.25"
     id="rect1"
     width="84"
     height="84"
     x="6"
     y="7"
     ry="18" />
  <rect
     style="fill:url(#linearGradient4);stroke-width:3"
     id="rect2"
     width="84"
     height="84"
     x="6"
     y="6"
     ry="18" />
  <path
     id="rect7044"
     style="fill:url(#linearGradient2);stroke-width:2"
     d="m 48.000042,42 c -1.107998,0 -2,0.892002 -2,2 v 29.171876 l -9.070312,-9.07422 c -0.783474,-0.783472 -2.044656,-0.783472 -2.828126,0 -0.783472,0.783474 -0.783474,2.04856 0,2.832032 L 46.58598,79.414062 c 0.783474,0.783474 2.04465,0.783474 2.828124,0 L 61.89848,66.929688 c 0.783472,-0.783472 0.783472,-2.048558 0,-2.832032 -0.78347,-0.783468 -2.044652,-0.783472 -2.828126,0 l -9.070312,9.07422 V 44 c 0,-1.107998 -0.892002,-2 -2,-2 z"
     sodipodi:nodetypes="ssccssssssccss" />
  <path
     style="color:#000000;fill:#ececec;stroke:none;stroke-width:3;stroke-linecap:round;stroke-linejoin:round;-inkscape-stroke:none"
     d="M 48,30 C 39.733503,30 33,23.266497 33,15 A 1.5,1.5 0 0 1 34.5,13.5 1.5,1.5 0 0 1 36,15 c 0,6.645177 5.354823,12 12,12 6.645177,0 12,-5.354823 12,-12 A 1.5,1.5 0 0 1 61.5,13.5 1.5,1.5 0 0 1 63,15 c 0,8.266497 -6.733503,15 -15,15 z"
     id="path6892" />
</svg>
