<?xml version="1.0" encoding="UTF-8" standalone="no"?>
<!-- Created with Inkscape (http://www.inkscape.org/) -->

<svg
   width="96"
   height="96"
   viewBox="0 0 96 96.000006"
   version="1.1"
   id="svg1"
   inkscape:version="1.4.2 (ebf0e940d0, 2025-05-08)"
   sodipodi:docname="system-help.svg"
   xmlns:inkscape="http://www.inkscape.org/namespaces/inkscape"
   xmlns:sodipodi="http://sodipodi.sourceforge.net/DTD/sodipodi-0.dtd"
   xmlns:xlink="http://www.w3.org/1999/xlink"
   xmlns="http://www.w3.org/2000/svg"
   xmlns:svg="http://www.w3.org/2000/svg">
  <sodipodi:namedview
     id="namedview1"
     pagecolor="#ffffff"
     bordercolor="#000000"
     borderopacity="0.25"
     inkscape:showpageshadow="2"
     inkscape:pageopacity="0.0"
     inkscape:pagecheckerboard="0"
     inkscape:deskcolor="#d1d1d1"
     inkscape:document-units="px"
     inkscape:zoom="8.28125"
     inkscape:cx="48"
     inkscape:cy="48"
     inkscape:window-width="1920"
     inkscape:window-height="1010"
     inkscape:window-x="0"
     inkscape:window-y="0"
     inkscape:window-maximized="1"
     inkscape:current-layer="svg1" />
  <defs
     id="defs1">
    <linearGradient
       inkscape:collect="always"
       xlink:href="#4852"
       id="linearGradient4"
       x1="16"
       y1="30"
       x2="16"
       y2="2"
       gradientUnits="userSpaceOnUse"
       gradientTransform="scale(3)" />
    <linearGradient
       inkscape:collect="always"
       id="4852">
      <stop
         style="stop-color:#272727;stop-opacity:1;"
         offset="0"
         id="stop14555" />
      <stop
         style="stop-color:#5d5d5d;stop-opacity:1;"
         offset="1"
         id="stop14557" />
    </linearGradient>
    <linearGradient
       inkscape:collect="always"
       id="linearGradient1625">
      <stop
         style="stop-color:#13a5c5;stop-opacity:1;"
         offset="0"
         id="stop1621" />
      <stop
         style="stop-color:#b1f6cb;stop-opacity:1;"
         offset="1"
         id="stop1623" />
    </linearGradient>
    <linearGradient
       inkscape:collect="always"
       xlink:href="#linearGradient1625"
       id="linearGradient2"
       x1="16"
       y1="30"
       x2="16"
       y2="2"
       gradientUnits="userSpaceOnUse"
       gradientTransform="scale(3)" />
  </defs>
  <rect
     style="opacity:0.2;fill:#000000;stroke-width:5.25"
     id="rect1"
     width="84"
     height="84"
     x="6"
     y="7"
     ry="18" />
  <rect
     style="fill:url(#linearGradient4);stroke-width:3"
     id="rect2"
     width="84"
     height="84"
     x="6"
     y="6"
     ry="18" />
  <path
     id="path345"
     style="fill:url(#linearGradient2);stroke-width:6;stroke-linecap:round;stroke-linejoin:round"
     d="M 48,18 A 30,30 0 0 0 18,48 30,30 0 0 0 48,78 30,30 0 0 0 78,48 30,30 0 0 0 48,18 Z m -11.835936,5.730469 7.447263,9.93164 c -2.275584,0.693879 -4.41717,1.932798 -6.216795,3.732423 -1.799625,1.799625 -3.038544,3.941211 -3.732423,6.216795 l -9.93164,-7.447263 c 1.278054,-2.62026 3.002661,-5.076882 5.179687,-7.253908 2.177026,-2.177026 4.633648,-3.901633 7.253908,-5.179687 z m 23.671872,0 c 2.62026,1.278054 5.076882,3.002661 7.253907,5.179687 2.177028,2.177026 3.901635,4.633648 5.179689,7.253908 l -9.931641,7.447263 c -0.693879,-2.275584 -1.932798,-4.41717 -3.732423,-6.216795 -1.799625,-1.799625 -3.941211,-3.038544 -6.216795,-3.732423 z M 48,36 c 6.627405,0 12,5.372595 12,12 0,6.627405 -5.372595,12 -12,12 C 41.372595,60 36,54.627405 36,48 36,41.372595 41.372595,36 48,36 Z M 33.662109,52.388673 c 0.693879,2.275584 1.932798,4.41717 3.732423,6.216795 1.799625,1.799625 3.941211,3.038544 6.216795,3.732423 l -7.447263,9.931641 c -2.62026,-1.278057 -5.076882,-3.002661 -7.253908,-5.179689 -2.177026,-2.177025 -3.901631,-4.633647 -5.179687,-7.253907 z m 28.675782,0 9.931641,7.447263 c -1.278057,2.62026 -3.002661,5.076882 -5.179689,7.253907 -2.177025,2.177028 -4.633647,3.901632 -7.253907,5.179689 l -7.447263,-9.931641 c 2.275584,-0.693879 4.41717,-1.932798 6.216795,-3.732423 1.799625,-1.799625 3.038544,-3.941211 3.732423,-6.216795 z" />
</svg>
