<?xml version="1.0" encoding="UTF-8" standalone="no"?>
<!-- Created with Inkscape (http://www.inkscape.org/) -->

<svg
   width="96"
   height="96"
   viewBox="0 0 96 96.000006"
   version="1.1"
   id="svg1"
   inkscape:version="1.4.2 (ebf0e940d0, 2025-05-08)"
   sodipodi:docname="virt-manager.svg"
   xmlns:inkscape="http://www.inkscape.org/namespaces/inkscape"
   xmlns:sodipodi="http://sodipodi.sourceforge.net/DTD/sodipodi-0.dtd"
   xmlns:xlink="http://www.w3.org/1999/xlink"
   xmlns="http://www.w3.org/2000/svg"
   xmlns:svg="http://www.w3.org/2000/svg">
  <sodipodi:namedview
     id="namedview1"
     pagecolor="#ffffff"
     bordercolor="#000000"
     borderopacity="0.25"
     inkscape:showpageshadow="2"
     inkscape:pageopacity="0.0"
     inkscape:pagecheckerboard="0"
     inkscape:deskcolor="#d1d1d1"
     inkscape:document-units="px"
     inkscape:zoom="8.4166667"
     inkscape:cx="47.940594"
     inkscape:cy="48"
     inkscape:window-width="1920"
     inkscape:window-height="1011"
     inkscape:window-x="0"
     inkscape:window-y="0"
     inkscape:window-maximized="1"
     inkscape:current-layer="svg1" />
  <defs
     id="defs1">
    <linearGradient
       inkscape:collect="always"
       xlink:href="#4852"
       id="linearGradient4"
       x1="16"
       y1="30"
       x2="16"
       y2="2"
       gradientUnits="userSpaceOnUse"
       gradientTransform="scale(3)" />
    <linearGradient
       inkscape:collect="always"
       id="4852">
      <stop
         style="stop-color:#272727;stop-opacity:1;"
         offset="0"
         id="stop14555" />
      <stop
         style="stop-color:#5d5d5d;stop-opacity:1;"
         offset="1"
         id="stop14557" />
    </linearGradient>
  </defs>
  <rect
     style="opacity:0.2;fill:#000000;stroke-width:5.25"
     id="rect1"
     width="84"
     height="84"
     x="6"
     y="7"
     ry="18" />
  <rect
     style="fill:url(#linearGradient4);stroke-width:3"
     id="rect2"
     width="84"
     height="84"
     x="6"
     y="6"
     ry="18" />
  <path
     style="fill:#ececec;stroke-width:3"
     d="M 56.4,60 66,36 h 7.2 l 9.6,24 H 75.6 L 69.599028,45.6 63.6,60 h -7.199517 z"
     id="path3" />
  <path
     style="fill:#909198;stroke-width:3"
     d="M 49.2,60 58.8,36 H 66 l 9.6,24 H 68.4 L 62.399028,45.6 56.4,60 h -7.199517 z"
     id="path5" />
  <path
     style="fill:#ececec;stroke-width:3"
     d="M 37.2,60 46.8,36 H 54 l 9.6,24 H 56.4 L 50.399028,45.6 44.4,60 h -7.199517 z"
     id="path7" />
  <path
     style="fill:#909198;stroke-width:3"
     d="m 30,60 9.6,-24 h 7.2 l 9.6,24 H 49.2 L 43.199028,45.6 37.2,60 h -7.199517 z"
     id="path9" />
  <path
     style="fill:#a53655;stroke-width:3"
     d="m 13.2,36 9.6,24 H 30 L 39.6,36 H 32.4 L 26.399028,50.4 20.4,36 h -7.199515 z"
     id="path11" />
</svg>
