<?xml version="1.0" encoding="UTF-8" standalone="no"?>
<!-- Created with Inkscape (http://www.inkscape.org/) -->

<svg
   width="96"
   height="96"
   viewBox="0 0 96 96.000006"
   version="1.1"
   id="svg1"
   inkscape:version="1.4.2 (ebf0e940d0, 2025-05-08)"
   sodipodi:docname="youtube-dl.svg"
   xmlns:inkscape="http://www.inkscape.org/namespaces/inkscape"
   xmlns:sodipodi="http://sodipodi.sourceforge.net/DTD/sodipodi-0.dtd"
   xmlns:xlink="http://www.w3.org/1999/xlink"
   xmlns="http://www.w3.org/2000/svg"
   xmlns:svg="http://www.w3.org/2000/svg">
  <sodipodi:namedview
     id="namedview1"
     pagecolor="#ffffff"
     bordercolor="#000000"
     borderopacity="0.25"
     inkscape:showpageshadow="2"
     inkscape:pageopacity="0.0"
     inkscape:pagecheckerboard="0"
     inkscape:deskcolor="#d1d1d1"
     inkscape:document-units="px"
     inkscape:zoom="8.1875"
     inkscape:cx="48.183206"
     inkscape:cy="48.061069"
     inkscape:window-width="1920"
     inkscape:window-height="1010"
     inkscape:window-x="0"
     inkscape:window-y="0"
     inkscape:window-maximized="1"
     inkscape:current-layer="svg1" />
  <defs
     id="defs1">
    <linearGradient
       inkscape:collect="always"
       xlink:href="#4852"
       id="linearGradient4"
       x1="16"
       y1="30"
       x2="16"
       y2="2"
       gradientUnits="userSpaceOnUse"
       gradientTransform="scale(3)" />
    <linearGradient
       inkscape:collect="always"
       id="4852">
      <stop
         style="stop-color:#272727;stop-opacity:1;"
         offset="0"
         id="stop14555" />
      <stop
         style="stop-color:#5d5d5d;stop-opacity:1;"
         offset="1"
         id="stop14557" />
    </linearGradient>
  </defs>
  <rect
     style="opacity:0.2;fill:#000000;stroke-width:5.25"
     id="rect1"
     width="84"
     height="84"
     x="6"
     y="7"
     ry="18" />
  <rect
     style="fill:url(#linearGradient4);stroke-width:3"
     id="rect2"
     width="84"
     height="84"
     x="6"
     y="6"
     ry="18" />
  <path
     id="path1633"
     style="fill:#ff0000;fill-opacity:1;stroke-width:0.487147"
     d="M 48 28 C 48 28 30.443014 28.003133 25.652344 29.179688 C 23.080512 29.838513 20.965758 31.810763 20.259766 34.257812 C 18.999063 38.728386 19 48 19 48 C 19 48 18.999006 57.322575 20.259766 61.746094 C 20.965762 64.193141 23.030086 66.116579 25.652344 66.775391 C 30.493438 67.998928 48 68 48 68 C 48 68 65.551125 67.996868 70.341797 66.820312 C 72.96406 66.161485 75.030333 64.236112 75.736328 61.789062 C 76.997032 57.318486 77 48.046875 77 48.046875 C 77 48.046875 77.046965 38.728386 75.736328 34.257812 C 75.030331 31.810762 72.96406 29.883429 70.341797 29.224609 C 65.551125 28.001084 48 28 48 28 z M 44 36 L 52 36 L 52 48 L 60 48 L 48 60 L 36 48 L 44 48 L 44 36 z " />
</svg>
