<?xml version="1.0" encoding="UTF-8" standalone="no"?>
<!-- Created with Inkscape (http://www.inkscape.org/) -->

<svg
   width="256"
   height="256"
   viewBox="0 0 256 256.00002"
   version="1.1"
   id="svg1"
   inkscape:version="1.4.2 (ebf0e940d0, 2025-05-08)"
   sodipodi:docname="accessories-calculator.svg"
   xmlns:inkscape="http://www.inkscape.org/namespaces/inkscape"
   xmlns:sodipodi="http://sodipodi.sourceforge.net/DTD/sodipodi-0.dtd"
   xmlns:xlink="http://www.w3.org/1999/xlink"
   xmlns="http://www.w3.org/2000/svg"
   xmlns:svg="http://www.w3.org/2000/svg">
  <sodipodi:namedview
     id="namedview1"
     pagecolor="#ffffff"
     bordercolor="#000000"
     borderopacity="0.25"
     inkscape:showpageshadow="2"
     inkscape:pageopacity="0.0"
     inkscape:pagecheckerboard="0"
     inkscape:deskcolor="#d1d1d1"
     inkscape:document-units="px"
     inkscape:zoom="3.109375"
     inkscape:cx="127.8392"
     inkscape:cy="128"
     inkscape:window-width="1920"
     inkscape:window-height="1011"
     inkscape:window-x="0"
     inkscape:window-y="0"
     inkscape:window-maximized="1"
     inkscape:current-layer="svg1"
     showguides="false" />
  <defs
     id="defs1">
    <linearGradient
       inkscape:collect="always"
       xlink:href="#4852"
       id="linearGradient4"
       x1="16"
       y1="30"
       x2="16"
       y2="2"
       gradientUnits="userSpaceOnUse"
       gradientTransform="scale(8)" />
    <linearGradient
       inkscape:collect="always"
       id="4852">
      <stop
         style="stop-color:#272727;stop-opacity:1;"
         offset="0"
         id="stop14555" />
      <stop
         style="stop-color:#5d5d5d;stop-opacity:1;"
         offset="1"
         id="stop14557" />
    </linearGradient>
    <linearGradient
       inkscape:collect="always"
       xlink:href="#linearGradient3147"
       id="linearGradient1525"
       x1="35.554195"
       y1="35.459599"
       x2="35.554195"
       y2="49.459599"
       gradientUnits="userSpaceOnUse"
       gradientTransform="matrix(8,0,0,8,-156.43358,-155.67678)" />
    <linearGradient
       inkscape:collect="always"
       id="linearGradient3147">
      <stop
         style="stop-color:#41bbff;stop-opacity:1;"
         offset="0"
         id="stop3143" />
      <stop
         style="stop-color:#0091f9;stop-opacity:1;"
         offset="1"
         id="stop3145" />
    </linearGradient>
  </defs>
  <rect
     style="opacity:0.2;fill:#000000;stroke-width:14"
     id="rect1"
     width="224"
     height="224"
     x="16"
     y="17"
     ry="48" />
  <rect
     style="fill:url(#linearGradient4);stroke-width:8"
     id="rect2"
     width="224"
     height="224"
     x="16"
     y="16"
     ry="48" />
  <path
     id="rect686"
     style="fill:url(#linearGradient1525);fill-opacity:1;stroke-width:12.5714;stroke-linecap:round;stroke-linejoin:round"
     d="m 144,128 c -8.86399,0 -16,7.13601 -16,16 v 72 c 0,8.864 7.13601,16 16,16 h 48 a 40,40 0 0 0 40,-40 v -48 c 0,-8.86399 -7.136,-16 -16,-16 z" />
  <path
     id="path364"
     style="fill:#f9f9f9;stroke-width:54.8692;stroke-linejoin:round"
     d="M 71.996128,56 V 80 H 47.996124 v 8 h 24.000004 v 24 h 8 V 88 H 103.99613 V 80 H 79.996128 V 56 Z m 80.000002,24 v 8 h 55.99999 V 80 Z M 50.824248,149.17187 45.168,154.82813 66.339872,176 45.168,197.17188 50.824248,202.82812 71.996128,181.65625 93.168,202.82812 98.824256,197.17188 77.652376,176 98.824256,154.82813 93.168,149.17187 71.996128,170.34375 Z" />
  <path
     d="m 151.99613,160 v 7.99999 h 55.99999 V 160 Z m 0,24 v 8 h 55.99999 v -8 z"
     style="fill:#ffffff;stroke-width:54.8688;stroke-linejoin:round"
     id="path697"
     sodipodi:nodetypes="cccccccccc" />
</svg>
