<?xml version="1.0" encoding="UTF-8" standalone="no"?>
<!-- Created with Inkscape (http://www.inkscape.org/) -->

<svg
   width="256"
   height="256"
   viewBox="0 0 256 256.00002"
   version="1.1"
   id="svg1"
   inkscape:version="1.4.2 (ebf0e940d0, 2025-05-08)"
   sodipodi:docname="github.svg"
   xmlns:inkscape="http://www.inkscape.org/namespaces/inkscape"
   xmlns:sodipodi="http://sodipodi.sourceforge.net/DTD/sodipodi-0.dtd"
   xmlns:xlink="http://www.w3.org/1999/xlink"
   xmlns="http://www.w3.org/2000/svg"
   xmlns:svg="http://www.w3.org/2000/svg">
  <sodipodi:namedview
     id="namedview1"
     pagecolor="#ffffff"
     bordercolor="#000000"
     borderopacity="0.25"
     inkscape:showpageshadow="2"
     inkscape:pageopacity="0.0"
     inkscape:pagecheckerboard="0"
     inkscape:deskcolor="#d1d1d1"
     inkscape:document-units="px"
     inkscape:zoom="3.1054688"
     inkscape:cx="128"
     inkscape:cy="128"
     inkscape:window-width="1920"
     inkscape:window-height="1010"
     inkscape:window-x="0"
     inkscape:window-y="0"
     inkscape:window-maximized="1"
     inkscape:current-layer="svg1" />
  <defs
     id="defs1">
    <linearGradient
       inkscape:collect="always"
       xlink:href="#linearGradient5"
       id="linearGradient6"
       x1="15.999795"
       y1="29.999998"
       x2="16"
       y2="2"
       gradientUnits="userSpaceOnUse"
       gradientTransform="scale(8)" />
    <linearGradient
       id="linearGradient5"
       inkscape:collect="always">
      <stop
         style="stop-color:#cfcfcf;stop-opacity:1;"
         offset="0"
         id="stop4" />
      <stop
         style="stop-color:#f8f8f8;stop-opacity:1;"
         offset="1"
         id="stop5" />
    </linearGradient>
    <linearGradient
       inkscape:collect="always"
       xlink:href="#4852"
       id="linearGradient4"
       x1="16"
       y1="30"
       x2="16"
       y2="2"
       gradientUnits="userSpaceOnUse"
       gradientTransform="scale(8)" />
    <linearGradient
       inkscape:collect="always"
       id="4852">
      <stop
         style="stop-color:#272727;stop-opacity:1;"
         offset="0"
         id="stop14555" />
      <stop
         style="stop-color:#5d5d5d;stop-opacity:1;"
         offset="1"
         id="stop14557" />
    </linearGradient>
  </defs>
  <rect
     style="opacity:0.2;fill:#000000;stroke-width:14"
     id="rect1"
     width="224"
     height="224"
     x="16"
     y="17"
     ry="48" />
  <rect
     style="fill:url(#linearGradient4);stroke-width:8"
     id="rect2"
     width="224"
     height="224"
     x="16"
     y="16"
     ry="48" />
  <path
     d="m 183.28027,72.013188 c -3.40854,-0.1592 -13.01267,0.979208 -28.02344,11.421868 -8.39749,-2.532152 -17.98338,-3.45922 -27.97656,-3.43506 -9.14179,0.0224 -18.62167,0.76088 -27.835934,3.43506 C 84.42876,72.992964 76.754668,71.860204 73.342772,72.020996 c -1.137568,0.0536 -1.687504,0.22656 -1.687504,0.22656 -5.708392,14.80838 -2.0968,25.763652 -1.015624,28.484374 -6.705888,7.51667 -10.640624,15.52441 -10.640624,27.26806 0,41.22923 26.714452,53.32394 49.99219,56.03905 -2.99255,2.68834 -4.87567,6.97866 -5.82812,13.92726 -5.972234,2.75434 -21.992818,9.49526 -31.343758,-6.9453 0,0 -5.532192,-10.33458 -16.054688,-11.09376 0,0 -10.229504,-0.13208 -0.710936,6.53906 0,0 6.87156,3.31102 11.640624,15.7422 0,0 7.1448,18.92168 36.304688,12.42186 V 240 h 47.99867 v -32 c 0,-10.03332 -0.23928,-20.71678 -3.99769,-24.03907 23.34813,-2.66185 47.99902,-14.62611 47.99902,-55.96094 0,-11.74365 -3.26592,-19.75929 -9.98438,-27.27587 1.07478,-2.72136 4.68216,-13.668184 -1.03904,-28.476556 0,0 -0.55128,-0.18128 -1.68751,-0.23432 z"
     style="fill:url(#linearGradient6);stroke-width:4"
     id="path403"
     sodipodi:nodetypes="ccccsccscccccccccscscccc" />
</svg>
