<?xml version="1.0" encoding="UTF-8" standalone="no"?>
<!-- Created with Inkscape (http://www.inkscape.org/) -->

<svg
   width="256"
   height="256"
   viewBox="0 0 256 256.00002"
   version="1.1"
   id="svg1"
   inkscape:version="1.4.2 (ebf0e940d0, 2025-05-08)"
   sodipodi:docname="gnome-mahjongg.svg"
   xmlns:inkscape="http://www.inkscape.org/namespaces/inkscape"
   xmlns:sodipodi="http://sodipodi.sourceforge.net/DTD/sodipodi-0.dtd"
   xmlns:xlink="http://www.w3.org/1999/xlink"
   xmlns="http://www.w3.org/2000/svg"
   xmlns:svg="http://www.w3.org/2000/svg">
  <sodipodi:namedview
     id="namedview1"
     pagecolor="#ffffff"
     bordercolor="#000000"
     borderopacity="0.25"
     inkscape:showpageshadow="2"
     inkscape:pageopacity="0.0"
     inkscape:pagecheckerboard="0"
     inkscape:deskcolor="#d1d1d1"
     inkscape:document-units="px"
     inkscape:zoom="3.15625"
     inkscape:cx="127.84158"
     inkscape:cy="128"
     inkscape:window-width="1920"
     inkscape:window-height="1011"
     inkscape:window-x="0"
     inkscape:window-y="0"
     inkscape:window-maximized="1"
     inkscape:current-layer="svg1"
     showguides="false" />
  <defs
     id="defs1">
    <linearGradient
       inkscape:collect="always"
       xlink:href="#4852"
       id="linearGradient4"
       x1="16"
       y1="30"
       x2="16"
       y2="2"
       gradientUnits="userSpaceOnUse"
       gradientTransform="scale(8)" />
    <linearGradient
       inkscape:collect="always"
       id="4852">
      <stop
         style="stop-color:#272727;stop-opacity:1;"
         offset="0"
         id="stop14555" />
      <stop
         style="stop-color:#5d5d5d;stop-opacity:1;"
         offset="1"
         id="stop14557" />
    </linearGradient>
    <linearGradient
       inkscape:collect="always"
       id="linearGradient2083">
      <stop
         style="stop-color:#ffde75;stop-opacity:1;"
         offset="0"
         id="stop2079" />
      <stop
         style="stop-color:#ffecab;stop-opacity:1;"
         offset="1"
         id="stop2081" />
    </linearGradient>
    <linearGradient
       inkscape:collect="always"
       xlink:href="#linearGradient2083"
       id="linearGradient2"
       x1="16"
       y1="30"
       x2="16"
       y2="2"
       gradientUnits="userSpaceOnUse"
       gradientTransform="scale(8)" />
  </defs>
  <rect
     style="opacity:0.2;fill:#000000;stroke-width:14"
     id="rect1"
     width="224"
     height="224"
     x="16"
     y="17"
     ry="48" />
  <rect
     style="fill:url(#linearGradient4);stroke-width:8"
     id="rect2"
     width="224"
     height="224"
     x="16"
     y="16"
     ry="48" />
  <path
     id="rect8005"
     style="opacity:0.4;fill:#ffffff;stroke-width:16;stroke-linecap:round;stroke-linejoin:round"
     d="M 64,16 C 37.408,16 16,37.408 16,64 v 128 c 0,26.592 21.408,48 48,48 h 64 V 16 Z" />
  <path
     d="m 180.56562,83.902592 c 0,10.920504 -0.2162,21.177628 -1.72812,30.745308 l -34.0375,-0.15311 3.70781,5.74219 h 29.25781 c -3.66794,16.37186 -12.11656,30.55216 -31.67499,42.25156 l 1.30157,7.97344 c 20.84629,-9.89427 34.16353,-25.33047 38.3906,-50.225 h 37.04534 l -13.07032,-13.07031 -5.7422,7.60155 -17.45624,-0.0771 c 0.45184,-4.09074 0.67818,-8.41581 0.67818,-12.99374 l 6.49688,-1.47657 z m 17.05158,9.46094 -3.69688,1.848432 c 3.86408,3.56458 9.08612,6.458036 9.26406,11.867186 L 210.6,101.51196 c -2.98036,-4.397896 -8.0956,-6.134828 -12.9828,-8.148428 z M 187.60938,123.5729 c 0,25.29012 28.36094,47.075 28.36094,47.075 L 223.2,159.1526 c 0,0 -31.51094,-15.18922 -31.51094,-34.66095 z M 71.365624,82.64 l -4.87812,4.364068 0.10936,11.583808 -33.796872,-1.00624 5.1625,6.978114 H 66.64062 l 0.07708,11.70047 H 50.992324 l -6.682816,-3.19374 0.28436,34.46903 7.317188,-3.77345 V 139.398 h 14.97018 l 0.08744,12.77421 -33.457816,-0.27344 9.034376,9.16562 3.871876,-3.34688 h 20.59532 l 0.0554,7.71095 c 0,2.76949 2.581252,5.52344 2.581252,5.52344 l 7.164052,-5.23906 c 0,0 -3.434364,-2.15822 -3.434364,-4.64845 l -0.08752,-3.34688 H 110.085 l -10.117192,-8.65753 -4.867192,3.34192 -21.962496,-0.17496 -0.29528,-12.8289 h 11.111508 l 3.05156,4.80156 5.315632,-5.39218 -2.154692,-2.47188 v -18.04091 l 4.725,-2.89843 -11.320308,-6.11407 0.06584,6.97814 H 72.263396 l -0.22968,-11.70048 H 103.91654 L 93.810276,94.311356 88.932156,99.255108 71.869652,98.751952 Z m -19.454548,37.26242 h 14.827992 l 0.04416,5.81874 H 51.911012 Z m 20.44986,0 h 11.319332 l 0.0554,5.81874 H 72.514456 Z m -20.44986,9.44999 H 66.81562 l 0.0328,6.40341 H 51.911184 Z m 20.701432,0 h 11.155264 l 0.0554,6.4034 H 72.743936 Z"
     style="fill:url(#linearGradient2);stroke-width:8"
     id="path9849" />
</svg>
