<?xml version="1.0" encoding="UTF-8" standalone="no"?>
<!-- Created with Inkscape (http://www.inkscape.org/) -->

<svg
   width="256"
   height="256"
   viewBox="0 0 256 256.00002"
   version="1.1"
   id="svg1"
   inkscape:version="1.4.2 (ebf0e940d0, 2025-05-08)"
   sodipodi:docname="gnome-contacts.svg"
   xmlns:inkscape="http://www.inkscape.org/namespaces/inkscape"
   xmlns:sodipodi="http://sodipodi.sourceforge.net/DTD/sodipodi-0.dtd"
   xmlns:xlink="http://www.w3.org/1999/xlink"
   xmlns="http://www.w3.org/2000/svg"
   xmlns:svg="http://www.w3.org/2000/svg">
  <sodipodi:namedview
     id="namedview1"
     pagecolor="#ffffff"
     bordercolor="#000000"
     borderopacity="0.25"
     inkscape:showpageshadow="2"
     inkscape:pageopacity="0.0"
     inkscape:pagecheckerboard="0"
     inkscape:deskcolor="#d1d1d1"
     inkscape:document-units="px"
     inkscape:zoom="3.078125"
     inkscape:cx="127.83756"
     inkscape:cy="128"
     inkscape:window-width="1920"
     inkscape:window-height="1011"
     inkscape:window-x="0"
     inkscape:window-y="0"
     inkscape:window-maximized="1"
     inkscape:current-layer="svg1" />
  <defs
     id="defs1">
    <linearGradient
       inkscape:collect="always"
       xlink:href="#4852"
       id="linearGradient4"
       x1="16"
       y1="30"
       x2="16"
       y2="2"
       gradientUnits="userSpaceOnUse"
       gradientTransform="scale(8)" />
    <linearGradient
       inkscape:collect="always"
       id="4852">
      <stop
         style="stop-color:#272727;stop-opacity:1;"
         offset="0"
         id="stop14555" />
      <stop
         style="stop-color:#5d5d5d;stop-opacity:1;"
         offset="1"
         id="stop14557" />
    </linearGradient>
  </defs>
  <rect
     style="opacity:0.2;fill:#000000;stroke-width:14"
     id="rect1"
     width="224"
     height="224"
     x="16"
     y="17"
     ry="48" />
  <rect
     style="fill:url(#linearGradient4);stroke-width:8"
     id="rect2"
     width="224"
     height="224"
     x="16"
     y="16"
     ry="48" />
  <path
     id="rect294"
     style="fill:#8ace64;fill-opacity:1;stroke-width:14.3109;stroke-linecap:round;stroke-linejoin:round"
     d="M 208,18.718752 V 108 h 32 V 64 C 240,43.023428 226.6788,25.28022 208,18.718752 Z" />
  <path
     id="rect956"
     style="fill:#f44d4d;fill-opacity:1;stroke-width:6.8508;stroke-linecap:round;stroke-linejoin:round"
     d="m 208,92 v 88 h 32 V 92 Z"
     sodipodi:nodetypes="ccccc" />
  <path
     id="rect1736"
     style="fill:#ffbc42;fill-opacity:1;stroke-width:12.3936;stroke-linecap:round;stroke-linejoin:round"
     inkscape:label="rect1736"
     d="m 208,164 v 73.28124 C 226.6788,230.71978 240,212.97658 240,192 v -28 z" />
  <path
     id="rect4024"
     style="opacity:0.2;fill:#000000;fill-opacity:1;stroke-width:8.2624;stroke-linecap:round;stroke-linejoin:round"
     d="m 208,92 v 2 h 32 v -2 z m 0,72 v 2 h 32 v -2 z" />
  <path
     d="m 144.79731,159.91937 c -3.34453,0 -6.56364,-0.83613 -9.65733,-2.50838 -3.09369,-1.75589 -5.26764,-4.51514 -6.52184,-8.27773 h -0.12512 c -0.75264,2.00671 -1.88148,3.67897 -3.38651,5.0168 -1.50503,1.3378 -3.17729,2.42477 -5.01679,3.26092 -1.75587,0.83615 -3.55356,1.42143 -5.39306,1.75586 -1.83948,0.3344 -3.51176,0.5016 -5.01679,0.5016 -8.02687,0 -14.130638,-2.25757 -18.31131,-6.77269 -4.180792,-4.51506 -6.271152,-10.57702 -6.271152,-18.18582 v -9.78275 c 0,-7.69242 2.00672,-13.7544 6.020152,-18.18589 4.097048,-4.51513 9.65733,-6.772674 16.68085,-6.772674 4.68235,0 8.40313,0.710724 11.16237,2.132134 2.75924,1.42143 4.72416,3.13551 5.89474,5.14221 v -6.52183 H 136.645 v 39.50727 c 0,3.51176 0.71072,6.10378 2.13214,7.77603 1.42142,1.58865 3.46996,2.38299 6.14557,2.38299 2.09035,0 3.92983,-0.37624 5.51848,-1.12878 1.58866,-0.83615 2.92647,-2.13216 4.01344,-3.88802 1.08696,-1.83948 1.9231,-4.18066 2.50839,-7.0235 0.58528,-2.92647 0.87793,-6.48004 0.87793,-10.66069 v -1.37956 c 0,-7.02352 -1.04517,-13.29451 -3.13549,-18.81298 -2.00668,-5.51853 -5.01676,-10.20089 -9.03018,-14.047098 -4.01345,-3.929816 -8.94664,-6.898088 -14.79956,-8.904816 -5.85294,-2.090328 -12.5838,-3.135488 -20.19262,-3.135488 -6.52183,0 -12.50018,1.04516 -17.935036,3.135488 -5.434864,2.090336 -10.117216,5.142232 -14.04704,9.155656 -3.846216,3.929832 -6.856288,8.779388 -9.03024,14.548708 -2.173928,5.76932 -3.260904,12.29116 -3.260904,19.56552 v 2.13214 c 0,7.77604 1.045168,14.67413 3.135496,20.6943 2.173936,5.93653 5.26764,10.91152 9.28108,14.92496 4.013424,4.09706 8.9048,7.19074 14.674128,9.28108 5.852928,2.17395 12.416566,3.26092 19.690916,3.26092 6.271,0 12.5002,-0.71072 18.68758,-2.13215 6.18738,-1.33781 11.87308,-3.34452 17.0571,-6.02016 l 3.51176,8.77939 c -5.26763,2.84286 -11.20417,5.01681 -17.80963,6.52186 -6.52183,1.58864 -13.54535,2.38298 -21.07054,2.38298 -9.03023,0 -17.098914,-1.33782 -24.206058,-4.01344 C 82.254584,180.94811 76.234432,177.1019 71.301248,172.0851 66.368064,167.06831 62.56366,161.00635 59.888036,153.89922 57.296008,146.7921 56,138.84882 56,130.06943 v -2.38299 c 0,-8.02687 1.2542,-15.42665 3.7626,-22.1993 2.592016,-6.856308 6.229192,-12.751036 10.911536,-17.684228 4.76596,-4.933176 10.493472,-8.7794 17.18252,-11.538632 C 94.629336,73.421432 102.23816,72 110.68309,72 c 9.28109,0 17.47517,1.337816 24.5823,4.013448 7.10713,2.592008 13.08548,6.270992 17.93506,11.036952 4.84957,4.76596 8.52855,10.451664 11.03695,17.0571 2.5084,6.60544 3.7626,13.87981 3.7626,21.82307 v 1.63044 c 0,3.67899 -0.37624,7.44159 -1.12877,11.28779 -0.66888,3.76261 -1.88132,7.23258 -3.63719,10.40989 -1.75588,3.09368 -4.13886,5.64389 -7.14894,7.65061 -2.92646,2.00672 -6.68906,3.01008 -11.28779,3.01007 z M 97.514,132.70325 c 0,4.76595 1.045168,8.57036 3.1355,11.41321 2.09032,2.75924 5.39304,4.13886 9.90817,4.13886 1.75588,0 3.42813,-0.20912 5.01679,-0.62712 1.67227,-0.41808 3.13549,-1.1288 4.38972,-2.13214 1.33779,-1.00336 2.38296,-2.34119 3.13548,-4.01345 0.75248,-1.67225 1.12877,-3.76259 1.12877,-6.271 v -11.03694 c 0,-1.67224 -0.2508,-3.2609 -0.75256,-4.76595 -0.41808,-1.58865 -1.17058,-2.96827 -2.25753,-4.13886 -1.08698,-1.2542 -2.50841,-2.21575 -4.26429,-2.88465 -1.75587,-0.75256 -3.88802,-1.12878 -6.39641,-1.12878 -4.09705,0 -7.31617,1.12878 -9.65734,3.38634 -2.257548,2.25756 -3.386324,6.35461 -3.386324,12.29114 z"
     style="font-weight:bold;font-size:4.74057px;line-height:1.25;font-family:'나눔스퀘어';-inkscape-font-specification:'나눔스퀘어 Bold';fill:#ffffff;stroke-width:3.13552"
     id="path6805"
     sodipodi:nodetypes="scccscsscsscsscccscscccsscccsscssscccsccccssscsscccscsssscccsscsccssscccscss" />
</svg>
