<?xml version="1.0" encoding="UTF-8" standalone="no"?>
<!-- Created with Inkscape (http://www.inkscape.org/) -->

<svg
   width="256"
   height="256"
   viewBox="0 0 256 256.00002"
   version="1.1"
   id="svg1"
   inkscape:version="1.4.2 (ebf0e940d0, 2025-05-08)"
   sodipodi:docname="gnome-color-chooser.svg"
   xmlns:inkscape="http://www.inkscape.org/namespaces/inkscape"
   xmlns:sodipodi="http://sodipodi.sourceforge.net/DTD/sodipodi-0.dtd"
   xmlns:xlink="http://www.w3.org/1999/xlink"
   xmlns="http://www.w3.org/2000/svg"
   xmlns:svg="http://www.w3.org/2000/svg">
  <sodipodi:namedview
     id="namedview1"
     pagecolor="#ffffff"
     bordercolor="#000000"
     borderopacity="0.25"
     inkscape:showpageshadow="2"
     inkscape:pageopacity="0.0"
     inkscape:pagecheckerboard="0"
     inkscape:deskcolor="#d1d1d1"
     inkscape:document-units="px"
     inkscape:zoom="3.1054688"
     inkscape:cx="128"
     inkscape:cy="128"
     inkscape:window-width="1920"
     inkscape:window-height="1010"
     inkscape:window-x="0"
     inkscape:window-y="0"
     inkscape:window-maximized="1"
     inkscape:current-layer="svg1" />
  <defs
     id="defs1">
    <linearGradient
       inkscape:collect="always"
       xlink:href="#4852"
       id="linearGradient4"
       x1="16"
       y1="30"
       x2="16"
       y2="2"
       gradientUnits="userSpaceOnUse"
       gradientTransform="scale(8)" />
    <linearGradient
       inkscape:collect="always"
       id="4852">
      <stop
         style="stop-color:#272727;stop-opacity:1;"
         offset="0"
         id="stop14555" />
      <stop
         style="stop-color:#5d5d5d;stop-opacity:1;"
         offset="1"
         id="stop14557" />
    </linearGradient>
    <radialGradient
       inkscape:collect="always"
       xlink:href="#linearGradient10051"
       id="radialGradient1174"
       cx="14.852401"
       cy="30.071783"
       fx="14.852401"
       fy="30.071783"
       r="14"
       gradientUnits="userSpaceOnUse"
       gradientTransform="matrix(-6.857142,-6.857142,6.4649768,-6.4649764,134.27155,341.15376)" />
    <linearGradient
       inkscape:collect="always"
       id="linearGradient10051">
      <stop
         style="stop-color:#aa3ad4;stop-opacity:1"
         offset="0"
         id="stop10047" />
      <stop
         style="stop-color:#aa3ad4;stop-opacity:0"
         offset="1"
         id="stop10049" />
    </linearGradient>
    <radialGradient
       inkscape:collect="always"
       xlink:href="#linearGradient1603"
       id="radialGradient1208"
       gradientUnits="userSpaceOnUse"
       gradientTransform="matrix(6.857142,-6.857142,-6.4649768,-6.4649764,121.72229,341.15376)"
       cx="14.852401"
       cy="30.071783"
       fx="14.852401"
       fy="30.071783"
       r="14" />
    <linearGradient
       inkscape:collect="always"
       id="linearGradient1603">
      <stop
         style="stop-color:#ff910c;stop-opacity:1;"
         offset="0"
         id="stop1599" />
      <stop
         style="stop-color:#ff910c;stop-opacity:0;"
         offset="1"
         id="stop1601" />
    </linearGradient>
    <radialGradient
       inkscape:collect="always"
       xlink:href="#linearGradient5569"
       id="radialGradient1243"
       gradientUnits="userSpaceOnUse"
       gradientTransform="matrix(6.857142,6.857142,-6.4649768,6.4649764,121.72229,-85.154008)"
       cx="15.190269"
       cy="30.646524"
       fx="15.190269"
       fy="30.646524"
       r="14" />
    <linearGradient
       inkscape:collect="always"
       id="linearGradient5569">
      <stop
         style="stop-color:#f5cc24;stop-opacity:1;"
         offset="0"
         id="stop5565" />
      <stop
         style="stop-color:#f5cc24;stop-opacity:0.00045133"
         offset="1"
         id="stop5567" />
    </linearGradient>
    <radialGradient
       inkscape:collect="always"
       xlink:href="#linearGradient3954"
       id="radialGradient1278"
       gradientUnits="userSpaceOnUse"
       gradientTransform="matrix(-6.857142,6.857142,6.4649768,6.4649764,134.27155,-85.154008)"
       cx="15.190269"
       cy="30.646524"
       fx="15.190269"
       fy="30.646524"
       r="14" />
    <linearGradient
       inkscape:collect="always"
       id="linearGradient3954">
      <stop
         style="stop-color:#24c2f5;stop-opacity:1;"
         offset="0"
         id="stop3950" />
      <stop
         style="stop-color:#24c2f5;stop-opacity:0;"
         offset="1"
         id="stop3952" />
    </linearGradient>
    <radialGradient
       inkscape:collect="always"
       xlink:href="#linearGradient7221"
       id="radialGradient1313"
       gradientUnits="userSpaceOnUse"
       gradientTransform="matrix(9.1428568,0,0,-9.1428568,-18.288783,274.2856)"
       cx="16"
       cy="28.250002"
       fx="16"
       fy="28.250002"
       r="14" />
    <linearGradient
       inkscape:collect="always"
       id="linearGradient7221">
      <stop
         style="stop-color:#f43434;stop-opacity:1;"
         offset="0"
         id="stop7217" />
      <stop
         style="stop-color:#f43434;stop-opacity:0;"
         offset="1"
         id="stop7219" />
    </linearGradient>
    <radialGradient
       inkscape:collect="always"
       xlink:href="#linearGradient15132"
       id="radialGradient1348"
       gradientUnits="userSpaceOnUse"
       gradientTransform="matrix(0,9.1428568,-9.1428568,0,274.28264,-18.285838)"
       cx="16"
       cy="28.250002"
       fx="16"
       fy="28.250002"
       r="14" />
    <linearGradient
       inkscape:collect="always"
       id="linearGradient15132">
      <stop
         style="stop-color:#f5e224;stop-opacity:1;"
         offset="0"
         id="stop15128" />
      <stop
         style="stop-color:#f5e224;stop-opacity:0;"
         offset="1"
         id="stop15130" />
    </linearGradient>
    <radialGradient
       inkscape:collect="always"
       xlink:href="#linearGradient12059"
       id="radialGradient991"
       cx="16"
       cy="28.250002"
       fx="16"
       fy="28.250002"
       r="14"
       gradientUnits="userSpaceOnUse"
       gradientTransform="matrix(9.1428568,0,0,9.1428568,-18.288783,-18.285834)" />
    <linearGradient
       inkscape:collect="always"
       id="linearGradient12059">
      <stop
         style="stop-color:#47c12a;stop-opacity:1;"
         offset="0"
         id="stop12055" />
      <stop
         style="stop-color:#47c12a;stop-opacity:0;"
         offset="1"
         id="stop12057" />
    </linearGradient>
  </defs>
  <rect
     style="opacity:0.2;fill:#000000;stroke-width:14"
     id="rect1"
     width="224"
     height="224"
     x="16"
     y="17"
     ry="48" />
  <rect
     style="fill:url(#linearGradient4);stroke-width:8"
     id="rect2"
     width="224"
     height="224"
     x="16"
     y="16"
     ry="48" />
  <path
     id="rect3072"
     style="fill:#ffffff;stroke-width:24;stroke-linecap:round;stroke-linejoin:round"
     d="m 183.38754,56.593624 c -4.0899,0 -8.1786,1.569232 -11.31249,4.703128 l -16.96875,16.968752 -5.65625,-5.656248 c -3.13388,-3.133888 -8.17863,-3.133888 -11.31251,0 -3.13389,3.133888 -3.13388,8.178608 0,11.312496 l 5.65625,5.656256 -62.234374,62.218742 v 11.31251 l -22.624992,22.64062 c -3.133904,3.1339 -3.133896,8.1786 0,11.3125 3.133888,3.1339 8.1786,3.1339 11.312496,0 l 22.640624,-22.625 h 11.312506 l 62.21874,-62.23437 5.65626,5.65625 c 3.13389,3.13389 8.17861,3.13389 11.31249,0 3.1339,-3.13388 3.1339,-8.17862 0,-11.31251 l -5.65624,-5.65625 16.96874,-16.968748 c 6.2678,-6.267792 6.2678,-16.357208 0,-22.625 -3.13388,-3.133896 -7.22258,-4.703128 -11.3125,-4.703128 z" />
  <path
     id="path371"
     style="fill:url(#radialGradient1174);fill-opacity:1;stroke-width:8;stroke-linecap:round;stroke-linejoin:round"
     d="m 183.38754,56.593624 c -4.0899,0 -8.1786,1.569232 -11.31249,4.703128 l -16.96875,16.968752 -5.65625,-5.656248 c -3.13388,-3.133888 -8.17863,-3.133888 -11.31251,0 -3.13389,3.133888 -3.13388,8.178608 0,11.312496 l 5.65625,5.656256 -62.234374,62.218742 v 11.31251 l -22.624992,22.64062 c -3.133904,3.1339 -3.133896,8.1786 0,11.3125 3.133888,3.1339 8.1786,3.1339 11.312496,0 l 22.640624,-22.625 h 11.312506 l 62.21874,-62.23437 5.65626,5.65625 c 3.13389,3.13389 8.17861,3.13389 11.31249,0 3.1339,-3.13388 3.1339,-8.17862 0,-11.31251 l -5.65624,-5.65625 16.96874,-16.968748 c 6.2678,-6.267784 6.2678,-16.357208 0,-22.625 -3.13388,-3.133896 -7.22258,-4.703128 -11.3125,-4.703128 z" />
  <path
     id="path1184"
     style="fill:url(#radialGradient1208);fill-opacity:1;stroke-width:8;stroke-linecap:round;stroke-linejoin:round"
     d="m 183.38754,56.593624 c -4.0899,0 -8.1786,1.569232 -11.31249,4.703128 l -16.96875,16.968752 -5.65625,-5.656248 c -3.13388,-3.133888 -8.17863,-3.133888 -11.31251,0 -3.13389,3.133888 -3.13388,8.178608 0,11.312496 l 5.65625,5.656256 -62.234374,62.218742 v 11.31251 l -22.624992,22.64062 c -3.133904,3.1339 -3.133896,8.1786 0,11.3125 3.133888,3.1339 8.1786,3.1339 11.312496,0 l 22.640624,-22.625 h 11.312506 l 62.21874,-62.23437 5.65626,5.65625 c 3.13389,3.13389 8.17861,3.13389 11.31249,0 3.1339,-3.13388 3.1339,-8.17862 0,-11.31251 l -5.65624,-5.65625 16.96874,-16.968748 c 6.2678,-6.267784 6.2678,-16.357208 0,-22.625 -3.13388,-3.133896 -7.22258,-4.703128 -11.3125,-4.703128 z" />
  <path
     id="path1219"
     style="fill:url(#radialGradient1243);fill-opacity:1;stroke-width:8;stroke-linecap:round;stroke-linejoin:round"
     d="m 183.38754,56.593624 c -4.0899,0 -8.1786,1.569232 -11.31249,4.703128 l -16.96875,16.968752 -5.65625,-5.656248 c -3.13388,-3.133888 -8.17863,-3.133888 -11.31251,0 -3.13389,3.133888 -3.13388,8.178608 0,11.312496 l 5.65625,5.656256 -62.234374,62.218742 v 11.31251 l -22.624992,22.64062 c -3.133904,3.1339 -3.133896,8.1786 0,11.3125 3.133888,3.1339 8.1786,3.1339 11.312496,0 l 22.640624,-22.625 h 11.312506 l 62.21874,-62.23437 5.65626,5.65625 c 3.13389,3.13389 8.17861,3.13389 11.31249,0 3.1339,-3.13388 3.1339,-8.17862 0,-11.31251 l -5.65624,-5.65625 16.96874,-16.968748 c 6.2678,-6.267784 6.2678,-16.357208 0,-22.625 -3.13388,-3.133896 -7.22258,-4.703128 -11.3125,-4.703128 z" />
  <path
     id="path1254"
     style="fill:url(#radialGradient1278);fill-opacity:1;stroke-width:8;stroke-linecap:round;stroke-linejoin:round"
     d="m 183.38754,56.593624 c -4.0899,0 -8.1786,1.569232 -11.31249,4.703128 l -16.96875,16.968752 -5.65625,-5.656248 c -3.13388,-3.133888 -8.17863,-3.133888 -11.31251,0 -3.13389,3.133888 -3.13388,8.178608 0,11.312496 l 5.65625,5.656256 -62.234374,62.218742 v 11.31251 l -22.624992,22.64062 c -3.133904,3.1339 -3.133896,8.1786 0,11.3125 3.133888,3.1339 8.1786,3.1339 11.312496,0 l 22.640624,-22.625 h 11.312506 l 62.21874,-62.23437 5.65626,5.65625 c 3.13389,3.13389 8.17861,3.13389 11.31249,0 3.1339,-3.13388 3.1339,-8.17862 0,-11.31251 l -5.65624,-5.65625 16.96874,-16.968748 c 6.2678,-6.267784 6.2678,-16.357208 0,-22.625 -3.13388,-3.133896 -7.22258,-4.703128 -11.3125,-4.703128 z" />
  <path
     id="path1289"
     style="fill:url(#radialGradient1313);fill-opacity:1;stroke-width:8;stroke-linecap:round;stroke-linejoin:round"
     d="m 183.38754,56.593624 c -4.0899,0 -8.17859,1.569232 -11.31249,4.703128 l -16.96875,16.968752 -5.65625,-5.656248 c -3.13387,-3.133888 -8.17863,-3.133888 -11.31251,0 -3.13389,3.133888 -3.13388,8.178608 0,11.312496 l 5.65625,5.656256 -62.234374,62.218742 v 11.31251 l -22.624992,22.64062 c -3.133904,3.1339 -3.133896,8.1786 0,11.3125 3.133888,3.1339 8.1786,3.1339 11.312496,0 l 22.640624,-22.625 h 11.312506 l 62.21874,-62.23437 5.65626,5.65625 c 3.13389,3.13389 8.17861,3.13389 11.31249,0 3.1339,-3.13388 3.1339,-8.17862 0,-11.31251 l -5.65624,-5.65625 16.96874,-16.968748 c 6.2678,-6.267784 6.2678,-16.357208 0,-22.625 -3.13388,-3.133896 -7.22258,-4.703128 -11.3125,-4.703128 z" />
  <path
     id="path1324"
     style="fill:url(#radialGradient1348);fill-opacity:1;stroke-width:8;stroke-linecap:round;stroke-linejoin:round"
     d="m 183.38754,56.593624 c -4.0899,0 -8.1786,1.569232 -11.31249,4.703128 l -16.96875,16.968752 -5.65625,-5.656248 c -3.13388,-3.133888 -8.17863,-3.133888 -11.31251,0 -3.13389,3.133888 -3.13388,8.178608 0,11.312496 l 5.65625,5.656256 -62.234374,62.218742 v 11.31251 l -22.624992,22.64062 c -3.133904,3.1339 -3.133896,8.1786 0,11.3125 3.133888,3.1339 8.1786,3.1339 11.312496,0 l 22.640624,-22.625 h 11.312506 l 62.21874,-62.23437 5.65626,5.65625 c 3.13389,3.13389 8.17861,3.13389 11.31249,0 3.1339,-3.13388 3.1339,-8.17862 0,-11.31251 l -5.65624,-5.65625 16.96874,-16.968748 c 6.2678,-6.267784 6.2678,-16.357208 0,-22.625 -3.13388,-3.133896 -7.22258,-4.703128 -11.3125,-4.703128 z" />
  <path
     id="path404"
     style="fill:url(#radialGradient991);fill-opacity:1;stroke-width:8;stroke-linecap:round;stroke-linejoin:round"
     d="m 183.38754,56.593624 c -4.0899,0 -8.1786,1.569232 -11.31249,4.703128 l -16.96875,16.968752 -5.65625,-5.656248 c -3.13388,-3.133888 -8.17863,-3.133888 -11.31251,0 -3.13389,3.133888 -3.13388,8.178608 0,11.312496 l 5.65625,5.656256 -62.234374,62.218742 v 11.31251 l -22.624992,22.64062 c -3.133896,3.1339 -3.133896,8.1786 0,11.3125 3.133888,3.1339 8.1786,3.1339 11.312496,0 l 22.640624,-22.625 h 11.312506 l 62.21874,-62.23437 5.65626,5.65625 c 3.13389,3.13389 8.17861,3.13389 11.31249,0 3.1339,-3.13388 3.1339,-8.17862 0,-11.31251 l -5.65624,-5.65625 16.96874,-16.968748 c 6.2678,-6.267784 6.2678,-16.357208 0,-22.625 -3.13388,-3.133896 -7.22258,-4.703128 -11.3125,-4.703128 z" />
  <path
     id="rect3065"
     style="opacity:0.5;fill:#ffffff;stroke-width:64;stroke-linecap:round;stroke-linejoin:round"
     d="m 194.70396,61.29284 c -6.26778,-6.267784 -16.35962,-6.267784 -22.62742,0 l -16.97056,16.970568 -5.65685,-5.656856 c -3.13388,-3.133888 -8.17983,-3.133888 -11.31371,0 -3.13389,3.133888 -3.13388,8.179824 0,11.313712 l 16.97056,16.970556 16.97056,16.97056 c 3.1339,3.1339 8.17983,3.1339 11.31372,0 3.13388,-3.13388 3.13388,-8.17981 0,-11.3137 l -5.65686,-5.65686 16.97056,-16.970556 c 6.2678,-6.267792 6.2678,-16.359632 0,-22.627424 z" />
</svg>
