<?xml version="1.0" encoding="UTF-8" standalone="no"?>
<!-- Created with Inkscape (http://www.inkscape.org/) -->

<svg
   width="256"
   height="256"
   viewBox="0 0 256 256.00002"
   version="1.1"
   id="svg1"
   inkscape:version="1.4.2 (ebf0e940d0, 2025-05-08)"
   sodipodi:docname="gnome-calendar.svg"
   xmlns:inkscape="http://www.inkscape.org/namespaces/inkscape"
   xmlns:sodipodi="http://sodipodi.sourceforge.net/DTD/sodipodi-0.dtd"
   xmlns:xlink="http://www.w3.org/1999/xlink"
   xmlns="http://www.w3.org/2000/svg"
   xmlns:svg="http://www.w3.org/2000/svg">
  <sodipodi:namedview
     id="namedview1"
     pagecolor="#ffffff"
     bordercolor="#000000"
     borderopacity="0.25"
     inkscape:showpageshadow="2"
     inkscape:pageopacity="0.0"
     inkscape:pagecheckerboard="0"
     inkscape:deskcolor="#d1d1d1"
     inkscape:document-units="px"
     inkscape:zoom="3.109375"
     inkscape:cx="127.8392"
     inkscape:cy="128"
     inkscape:window-width="1920"
     inkscape:window-height="1011"
     inkscape:window-x="0"
     inkscape:window-y="0"
     inkscape:window-maximized="1"
     inkscape:current-layer="svg1" />
  <defs
     id="defs1">
    <linearGradient
       inkscape:collect="always"
       xlink:href="#4852"
       id="linearGradient4"
       x1="16"
       y1="30"
       x2="16"
       y2="2"
       gradientUnits="userSpaceOnUse"
       gradientTransform="scale(8)" />
    <linearGradient
       inkscape:collect="always"
       id="4852">
      <stop
         style="stop-color:#272727;stop-opacity:1;"
         offset="0"
         id="stop14555" />
      <stop
         style="stop-color:#5d5d5d;stop-opacity:1;"
         offset="1"
         id="stop14557" />
    </linearGradient>
    <linearGradient
       inkscape:collect="always"
       xlink:href="#linearGradient7"
       id="linearGradient2"
       x1="16"
       y1="30"
       x2="16"
       y2="2"
       gradientUnits="userSpaceOnUse"
       gradientTransform="scale(8)" />
    <linearGradient
       inkscape:collect="always"
       xlink:href="#linearGradient7"
       id="linearGradient1"
       gradientUnits="userSpaceOnUse"
       x1="16"
       y1="30"
       x2="16"
       y2="2"
       gradientTransform="scale(8)" />
    <linearGradient
       id="linearGradient7"
       inkscape:collect="always">
      <stop
         style="stop-color:#7d36a2;stop-opacity:1;"
         offset="0"
         id="stop5" />
      <stop
         style="stop-color:#bd62e7;stop-opacity:1;"
         offset="1"
         id="stop6" />
    </linearGradient>
  </defs>
  <rect
     style="opacity:0.2;fill:#000000;stroke-width:14"
     id="rect1"
     width="224"
     height="224"
     x="16"
     y="17"
     ry="48" />
  <path
     id="rect2"
     style="fill:url(#linearGradient4);stroke-width:8"
     d="m 16,64 v 128 c 0,26.592 21.408,48 48,48 h 128 c 26.592,0 48,-21.408 48,-48 V 64 Z" />
  <path
     id="rect3"
     style="fill:url(#linearGradient1);stroke-width:8"
     d="M 64,16 C 37.408,16 16,37.408 16,64 v 8 H 240 V 64 C 240,37.408 218.592,16 192,16 Z" />
  <path
     id="path1"
     style="opacity:0.3;fill:#ffffff;stroke-width:8;stroke-linecap:round"
     d="m 128,96 a 8,8 0 0 0 -8,8 8,8 0 0 0 8,8 8,8 0 0 0 8,-8 8,8 0 0 0 -8,-8 z m 24,0 a 8,8 0 0 0 -8,8 8,8 0 0 0 8,8 8,8 0 0 0 8,-8 8,8 0 0 0 -8,-8 z m 24,0 a 8,8 0 0 0 -8,8 8,8 0 0 0 8,8 8,8 0 0 0 8,-8 8,8 0 0 0 -8,-8 z m 24,0 a 8,8 0 0 0 -8,8 8,8 0 0 0 8,8 8,8 0 0 0 8,-8 8,8 0 0 0 -8,-8 z M 56,120 a 8,8 0 0 0 -8,8 8,8 0 0 0 8,8 8,8 0 0 0 8,-8 8,8 0 0 0 -8,-8 z m 24,0 a 8,8 0 0 0 -8,8 8,8 0 0 0 8,8 8,8 0 0 0 8,-8 8,8 0 0 0 -8,-8 z m 24,0 a 8,8 0 0 0 -8,8 8,8 0 0 0 8,8 8,8 0 0 0 8,-8 8,8 0 0 0 -8,-8 z m 24,0 a 8,8 0 0 0 -8,8 8,8 0 0 0 8,8 8,8 0 0 0 8,-8 8,8 0 0 0 -8,-8 z m 48,0 a 8,8 0 0 0 -8,8 8,8 0 0 0 8,8 8,8 0 0 0 8,-8 8,8 0 0 0 -8,-8 z m 24,0 a 8,8 0 0 0 -8,8 8,8 0 0 0 8,8 8,8 0 0 0 8,-8 8,8 0 0 0 -8,-8 z M 56,144 a 8,8 0 0 0 -8,8 8,8 0 0 0 8,8 8,8 0 0 0 8,-8 8,8 0 0 0 -8,-8 z m 24,0 a 8,8 0 0 0 -8,8 8,8 0 0 0 8,8 8,8 0 0 0 8,-8 8,8 0 0 0 -8,-8 z m 24,0 a 8,8 0 0 0 -8,8 8,8 0 0 0 8,8 8,8 0 0 0 8,-8 8,8 0 0 0 -8,-8 z m 24,0 a 8,8 0 0 0 -8,8 8,8 0 0 0 8,8 8,8 0 0 0 8,-8 8,8 0 0 0 -8,-8 z m 24,0 a 8,8 0 0 0 -8,8 8,8 0 0 0 8,8 8,8 0 0 0 8,-8 8,8 0 0 0 -8,-8 z m 24,0 a 8,8 0 0 0 -8,8 8,8 0 0 0 8,8 8,8 0 0 0 8,-8 8,8 0 0 0 -8,-8 z m 24,0 a 8,8 0 0 0 -8,8 8,8 0 0 0 8,8 8,8 0 0 0 8,-8 8,8 0 0 0 -8,-8 z M 56,168 a 8,8 0 0 0 -8,8 8,8 0 0 0 8,8 8,8 0 0 0 8,-8 8,8 0 0 0 -8,-8 z m 24,0 a 8,8 0 0 0 -8,8 8,8 0 0 0 8,8 8,8 0 0 0 8,-8 8,8 0 0 0 -8,-8 z m 24,0 a 8,8 0 0 0 -8,8 8,8 0 0 0 8,8 8,8 0 0 0 8,-8 8,8 0 0 0 -8,-8 z m 24,0 a 8,8 0 0 0 -8,8 8,8 0 0 0 8,8 8,8 0 0 0 8,-8 8,8 0 0 0 -8,-8 z m 24,0 a 8,8 0 0 0 -8,8 8,8 0 0 0 8,8 8,8 0 0 0 8,-8 8,8 0 0 0 -8,-8 z m 24,0 a 8,8 0 0 0 -8,8 8,8 0 0 0 8,8 8,8 0 0 0 8,-8 8,8 0 0 0 -8,-8 z m 24,0 a 8,8 0 0 0 -8,8 8,8 0 0 0 8,8 8,8 0 0 0 8,-8 8,8 0 0 0 -8,-8 z M 56,192 a 8,8 0 0 0 -8,8 8,8 0 0 0 8,8 8,8 0 0 0 8,-8 8,8 0 0 0 -8,-8 z m 24,0 a 8,8 0 0 0 -8,8 8,8 0 0 0 8,8 8,8 0 0 0 8,-8 8,8 0 0 0 -8,-8 z m 24,0 a 8,8 0 0 0 -8,8 8,8 0 0 0 8,8 8,8 0 0 0 8,-8 8,8 0 0 0 -8,-8 z m 24,0 a 8,8 0 0 0 -8,8 8,8 0 0 0 8,8 8,8 0 0 0 8,-8 8,8 0 0 0 -8,-8 z" />
  <circle
     style="fill:url(#linearGradient2);stroke-width:8;stroke-linecap:round"
     id="path2"
     cx="152.00024"
     cy="128"
     r="8" />
</svg>
