<?xml version="1.0" encoding="UTF-8" standalone="no"?>
<!-- Created with Inkscape (http://www.inkscape.org/) -->

<svg
   width="256"
   height="256"
   viewBox="0 0 256 256.00002"
   version="1.1"
   id="svg1"
   inkscape:version="1.4.2 (ebf0e940d0, 2025-05-08)"
   sodipodi:docname="kdeconnect.svg"
   xmlns:inkscape="http://www.inkscape.org/namespaces/inkscape"
   xmlns:sodipodi="http://sodipodi.sourceforge.net/DTD/sodipodi-0.dtd"
   xmlns:xlink="http://www.w3.org/1999/xlink"
   xmlns="http://www.w3.org/2000/svg"
   xmlns:svg="http://www.w3.org/2000/svg">
  <sodipodi:namedview
     id="namedview1"
     pagecolor="#ffffff"
     bordercolor="#000000"
     borderopacity="0.25"
     inkscape:showpageshadow="2"
     inkscape:pageopacity="0.0"
     inkscape:pagecheckerboard="0"
     inkscape:deskcolor="#d1d1d1"
     inkscape:document-units="px"
     inkscape:zoom="3.109375"
     inkscape:cx="127.8392"
     inkscape:cy="128"
     inkscape:window-width="1920"
     inkscape:window-height="1011"
     inkscape:window-x="0"
     inkscape:window-y="0"
     inkscape:window-maximized="1"
     inkscape:current-layer="svg1" />
  <defs
     id="defs1">
    <linearGradient
       inkscape:collect="always"
       xlink:href="#4852"
       id="linearGradient4"
       x1="16"
       y1="30"
       x2="16"
       y2="2"
       gradientUnits="userSpaceOnUse"
       gradientTransform="scale(8)" />
    <linearGradient
       inkscape:collect="always"
       id="4852">
      <stop
         style="stop-color:#272727;stop-opacity:1;"
         offset="0"
         id="stop14555" />
      <stop
         style="stop-color:#5d5d5d;stop-opacity:1;"
         offset="1"
         id="stop14557" />
    </linearGradient>
    <linearGradient
       inkscape:collect="always"
       id="linearGradient1871">
      <stop
         style="stop-color:#3daee9;stop-opacity:1;"
         offset="0"
         id="stop1867" />
      <stop
         style="stop-color:#76c6ee;stop-opacity:1;"
         offset="1"
         id="stop1869" />
    </linearGradient>
    <linearGradient
       inkscape:collect="always"
       xlink:href="#linearGradient1871"
       id="linearGradient2"
       x1="28"
       y1="60"
       x2="28"
       y2="4"
       gradientUnits="userSpaceOnUse"
       gradientTransform="matrix(4,0,0,4,16,0)" />
  </defs>
  <rect
     style="opacity:0.2;fill:#000000;stroke-width:14"
     id="rect1"
     width="224"
     height="224"
     x="16"
     y="17"
     ry="48" />
  <rect
     style="fill:url(#linearGradient4);stroke-width:8"
     id="rect2"
     width="224"
     height="224"
     x="16"
     y="16"
     ry="48" />
  <path
     id="rect634"
     style="fill:url(#linearGradient2);stroke-width:8;stroke-linejoin:round"
     d="m 92,40 c -8.863984,0 -16,7.136016 -16,16 v 144 c 0,8.86398 7.136016,16 16,16 h 72 c 8.86398,0 16,-7.13602 16,-16 V 56 c 0,-8.863984 -7.13602,-16 -16,-16 z m 20,156 h 32 c 2.21599,0 4,1.784 4,4 0,2.216 -1.78401,4 -4,4 h -32 c -2.21599,0 -4,-1.784 -4,-4 0,-2.216 1.78401,-4 4,-4 z" />
  <path
     id="path360"
     style="opacity:0.8;fill:#000000;fill-opacity:1;stroke-width:4"
     d="m 108,84 c -3.324,0 -6,2.676004 -6,6 0,3.323996 2.676,6 6,6 3.324,0 6,-2.676004 6,-6 0,-3.323996 -2.676,-6 -6,-6 z M 139.42969,84 128,95.19922 145.14453,112 128,128.80078 139.42969,140 168,112 Z M 95,116 c -3.877968,0 -7,3.12198 -7,7 0,3.87797 3.122032,7 7,7 3.878024,0 7,-3.12203 7,-7 0,-3.87802 -3.121976,-7 -7,-7 z m 23,28 c -5.53999,0 -10,4.46 -10,10 0,5.54 4.46001,10 10,10 5.54,0 10,-4.46 10,-10 0,-5.54 -4.46,-10 -10,-10 z" />
</svg>
