<?xml version="1.0" encoding="UTF-8" standalone="no"?>
<!-- Created with Inkscape (http://www.inkscape.org/) -->

<svg
   width="256"
   height="256"
   viewBox="0 0 256 256.00002"
   version="1.1"
   id="svg1"
   inkscape:version="1.4.2 (ebf0e940d0, 2025-05-08)"
   sodipodi:docname="kmines.svg"
   xmlns:inkscape="http://www.inkscape.org/namespaces/inkscape"
   xmlns:sodipodi="http://sodipodi.sourceforge.net/DTD/sodipodi-0.dtd"
   xmlns:xlink="http://www.w3.org/1999/xlink"
   xmlns="http://www.w3.org/2000/svg"
   xmlns:svg="http://www.w3.org/2000/svg">
  <sodipodi:namedview
     id="namedview1"
     pagecolor="#ffffff"
     bordercolor="#000000"
     borderopacity="0.25"
     inkscape:showpageshadow="2"
     inkscape:pageopacity="0.0"
     inkscape:pagecheckerboard="0"
     inkscape:deskcolor="#d1d1d1"
     inkscape:document-units="px"
     inkscape:zoom="3.1054688"
     inkscape:cx="128"
     inkscape:cy="128"
     inkscape:window-width="1920"
     inkscape:window-height="1010"
     inkscape:window-x="0"
     inkscape:window-y="0"
     inkscape:window-maximized="1"
     inkscape:current-layer="svg1" />
  <defs
     id="defs1">
    <linearGradient
       id="linearGradient5"
       inkscape:collect="always">
      <stop
         style="stop-color:#cfcfcf;stop-opacity:1;"
         offset="0"
         id="stop4" />
      <stop
         style="stop-color:#f8f8f8;stop-opacity:1;"
         offset="1"
         id="stop5" />
    </linearGradient>
    <linearGradient
       inkscape:collect="always"
       xlink:href="#4852"
       id="linearGradient4"
       x1="16"
       y1="30"
       x2="16"
       y2="2"
       gradientUnits="userSpaceOnUse"
       gradientTransform="scale(8)" />
    <linearGradient
       inkscape:collect="always"
       id="4852">
      <stop
         style="stop-color:#272727;stop-opacity:1;"
         offset="0"
         id="stop14555" />
      <stop
         style="stop-color:#5d5d5d;stop-opacity:1;"
         offset="1"
         id="stop14557" />
    </linearGradient>
    <linearGradient
       inkscape:collect="always"
       xlink:href="#linearGradient5"
       id="linearGradient15762"
       x1="32"
       y1="52"
       x2="32"
       y2="12"
       gradientUnits="userSpaceOnUse"
       gradientTransform="matrix(4,0,0,4,0.001636,0)" />
  </defs>
  <rect
     style="opacity:0.2;fill:#000000;stroke-width:14"
     id="rect1"
     width="224"
     height="224"
     x="16"
     y="17"
     ry="48" />
  <rect
     style="fill:url(#linearGradient4);stroke-width:8"
     id="rect2"
     width="224"
     height="224"
     x="16"
     y="16"
     ry="48" />
  <path
     id="path2634"
     style="fill:url(#linearGradient15762);stroke-width:16;stroke-linecap:round;stroke-linejoin:round"
     d="m 128.00164,48 c -4.43198,0 -8,3.568024 -8,8 v 16 c 0,4.431976 3.56802,8 8,8 4.43197,0 7.99999,-3.568024 7.99999,-8 V 56 c 0,-4.431976 -3.56802,-8 -7.99999,-8 z m 15.99999,18.046872 V 72 c 0,8.863944 -7.13605,16 -15.99999,16 -8.86394,0 -16,-7.136056 -16,-16 V 66.156248 C 100.79517,69.078016 90.583672,74.98584 82.470392,83.25 l 5.031248,2.890624 C 95.178032,90.5726 97.792984,100.32361 93.361016,108 88.92904,115.67639 79.178032,118.29134 71.50164,113.85938 l -5.109376,-2.95313 C 64.827184,116.47008 64.023,122.22028 64.00164,128 c 0.0216,5.77972 0.825544,11.52992 2.390624,17.09375 l 5.109376,-2.95313 c 2.398864,-1.38498 5.000104,-2.07099 7.57812,-2.14062 5.671656,-0.1532 11.234272,2.72248 14.281256,8 4.431968,7.67639 1.817016,17.42739 -5.859376,21.85938 L 82.470392,172.75 c 8.11328,8.26416 18.324778,14.17198 29.531248,17.09376 V 184 c 0,-8.86394 7.13606,-16 16,-16 8.86394,0 15.99999,7.13606 15.99999,16 v 5.84376 c 11.20647,-2.92178 21.41797,-8.8296 29.53125,-17.09376 l -5.03125,-2.89062 C 160.82525,165.42739 158.2103,155.67639 162.64226,148 c 3.04699,-5.27752 8.60959,-8.1532 14.28125,-8 2.57801,0.0696 5.17926,0.7556 7.57813,2.14062 l 5.10936,2.95313 c 1.56508,-5.56383 2.36928,-11.31403 2.39064,-17.09375 -0.008,-5.78317 -0.79048,-11.5387 -2.34376,-17.10938 l -5.15624,2.96876 c -7.67639,4.43196 -17.4274,1.81701 -21.85938,-5.85938 -4.43196,-7.67639 -1.81701,-17.4274 5.85937,-21.859376 l 5.15625,-2.968752 c -8.14724,-8.293376 -18.39964,-14.218736 -29.65625,-17.125 z M 65.095384,84.015624 c -2.559744,0.17896 -4.990016,1.585496 -6.375,3.984376 -2.215992,3.838216 -0.916328,8.721512 2.92188,10.937504 L 75.50164,106.9375 c 3.8382,2.21599 8.721504,0.90071 10.937504,-2.9375 2.215976,-3.83821 0.900704,-8.721504 -2.937504,-10.937504 l -13.859376,-8 c -1.43932,-0.830984 -3.011024,-1.154232 -4.54688,-1.046872 z m 124.671876,0 c -1.16184,0.0868 -2.34238,0.4236 -3.42188,1.046872 l -13.84375,8 c -3.83821,2.216 -5.15349,7.099294 -2.93749,10.937504 2.216,3.83821 7.09929,5.15349 10.93749,2.9375 l 13.84375,-7.999996 c 3.83822,-2.215992 5.1535,-7.099288 2.9375,-10.937504 -1.38498,-2.39888 -3.81524,-3.805432 -6.375,-3.984376 -0.384,-0.0264 -0.75336,-0.0288 -1.14062,0 z M 128.00164,104 c 13.25479,0 23.99999,10.7452 23.99999,24 0,13.2548 -10.7452,24 -23.99999,24 -13.2548,0 -24,-10.7452 -24,-24 0,-13.2548 10.7452,-24 24,-24 z m 0,8 c -8.83654,0 -16,7.16346 -16,16 0,8.83654 7.16346,16 16,16 8.83653,0 15.99999,-7.16346 15.99999,-16 0,-8.83654 -7.16346,-16 -15.99999,-16 z m -49.093752,36.01562 c -1.16184,0.0868 -2.32676,0.4236 -3.406248,1.04688 l -13.859376,8 c -3.838208,2.216 -5.137872,7.09929 -2.92188,10.9375 2.215984,3.83821 7.083672,5.15349 10.92188,2.9375 l 13.859376,-8 c 3.838208,-2.216 5.153488,-7.09929 2.937504,-10.9375 -1.385,-2.39888 -3.815256,-3.80544 -6.375016,-3.98438 -0.38392,-0.0264 -0.76896,-0.0288 -1.15624,0 z m 97.031252,0 c -2.55975,0.17896 -4.99001,1.5855 -6.375,3.98438 -2.21599,3.83821 -0.90071,8.7215 2.93749,10.9375 l 13.84375,8 c 3.83822,2.21599 8.72152,0.90071 10.9375,-2.9375 2.216,-3.83821 0.90072,-8.7215 -2.9375,-10.9375 l -13.84375,-8 c -1.43932,-0.83099 -3.02665,-1.15424 -4.56249,-1.04688 z M 128.00164,176 c -4.43198,0 -8,3.56803 -8,8 v 16 c 0,4.43198 3.56802,8 8,8 4.43197,0 7.99999,-3.56802 7.99999,-8 v -16 c 0,-4.43197 -3.56802,-8 -7.99999,-8 z" />
</svg>
