<?xml version="1.0" encoding="UTF-8" standalone="no"?>
<!-- Created with Inkscape (http://www.inkscape.org/) -->

<svg
   width="256"
   height="256"
   viewBox="0 0 256 256.00002"
   version="1.1"
   id="svg1"
   inkscape:version="1.4.2 (ebf0e940d0, 2025-05-08)"
   sodipodi:docname="knights.svg"
   xmlns:inkscape="http://www.inkscape.org/namespaces/inkscape"
   xmlns:sodipodi="http://sodipodi.sourceforge.net/DTD/sodipodi-0.dtd"
   xmlns:xlink="http://www.w3.org/1999/xlink"
   xmlns="http://www.w3.org/2000/svg"
   xmlns:svg="http://www.w3.org/2000/svg">
  <sodipodi:namedview
     id="namedview1"
     pagecolor="#ffffff"
     bordercolor="#000000"
     borderopacity="0.25"
     inkscape:showpageshadow="2"
     inkscape:pageopacity="0.0"
     inkscape:pagecheckerboard="0"
     inkscape:deskcolor="#d1d1d1"
     inkscape:document-units="px"
     inkscape:zoom="3.1054688"
     inkscape:cx="128"
     inkscape:cy="128"
     inkscape:window-width="1920"
     inkscape:window-height="1010"
     inkscape:window-x="0"
     inkscape:window-y="0"
     inkscape:window-maximized="1"
     inkscape:current-layer="svg1" />
  <defs
     id="defs1">
    <linearGradient
       inkscape:collect="always"
       id="linearGradient1606">
      <stop
         style="stop-color:#eaebed;stop-opacity:1;"
         offset="0"
         id="stop1602" />
      <stop
         style="stop-color:#f9fafa;stop-opacity:1;"
         offset="1"
         id="stop1604" />
    </linearGradient>
    <linearGradient
       inkscape:collect="always"
       xlink:href="#linearGradient1606"
       id="linearGradient4"
       x1="16"
       y1="30"
       x2="16"
       y2="2"
       gradientUnits="userSpaceOnUse"
       gradientTransform="scale(8)" />
    <linearGradient
       inkscape:collect="always"
       xlink:href="#4852"
       id="linearGradient1091"
       x1="8"
       y1="16"
       x2="8"
       y2="0"
       gradientUnits="userSpaceOnUse"
       gradientTransform="matrix(14,0,0,14,16,16)" />
    <linearGradient
       inkscape:collect="always"
       id="4852">
      <stop
         style="stop-color:#272727;stop-opacity:1;"
         offset="0"
         id="stop14555" />
      <stop
         style="stop-color:#5d5d5d;stop-opacity:1;"
         offset="1"
         id="stop14557" />
    </linearGradient>
  </defs>
  <rect
     style="opacity:0.2;fill:#000000;stroke-width:14"
     id="rect1"
     width="224"
     height="224"
     x="16"
     y="17"
     ry="48" />
  <path
     id="rect2"
     style="fill:url(#linearGradient4);stroke-width:8"
     d="m 64,16 h 128 l 48,48 v 128 c 0,26.592 -21.408,48 -48,48 H 64 L 16,192 V 64 C 16,37.408 37.408,16 64,16 Z"
     sodipodi:nodetypes="sccssccss" />
  <path
     id="path530"
     style="fill:url(#linearGradient1091);fill-opacity:1;stroke-width:7;stroke-linecap:round;stroke-linejoin:round"
     d="M 128,16 V 128 H 240 V 64 C 240,37.408 218.592,16 192,16 Z m 0,112 H 16 v 64 c 0,26.592 21.408,48 48,48 h 64 z" />
  <path
     d="m 68.009504,142.00016 -0.0192,11.0219 L 40,170.86424 l 5.472016,11.3198 11.777784,-4.3733 c 2.130384,2.77732 5.37024,4.39648 8.797848,4.39685 5.890184,-0.007 9.534184,-5.04 9.95236,-11.11575 v -0.005 19.09722 c -3.855428,2.89654 -7.436144,5.95814 -13.375584,7.81566 -8.768104,2.74216 -14.79168,6.42286 -14.792832,15.87786 l 7.820192,12.1223 h 35.827388 l 12.521668,-11.87804 v -29.04008 c 0,-18.92074 -6.831496,-33.3636 -25.123,-33.3636 -0.19584,0.008 -0.39168,0.0176 -0.58752,0.0296 0.0288,-0.93774 -0.0576,-0.27392 -0.25808,-1.189 C 76.924008,145.55799 72.970192,142.00954 68.009672,142 Z"
     style="fill:#f2f2f2;fill-opacity:1;stroke-width:8"
     id="path12192"
     sodipodi:nodetypes="cccccccccsccccsccccc" />
</svg>
