<?xml version="1.0" encoding="UTF-8" standalone="no"?>
<!-- Created with Inkscape (http://www.inkscape.org/) -->

<svg
   width="256"
   height="256"
   viewBox="0 0 256 256.00002"
   version="1.1"
   id="svg1"
   inkscape:version="1.4.2 (ebf0e940d0, 2025-05-08)"
   sodipodi:docname="kvantum.svg"
   xmlns:inkscape="http://www.inkscape.org/namespaces/inkscape"
   xmlns:sodipodi="http://sodipodi.sourceforge.net/DTD/sodipodi-0.dtd"
   xmlns:xlink="http://www.w3.org/1999/xlink"
   xmlns="http://www.w3.org/2000/svg"
   xmlns:svg="http://www.w3.org/2000/svg">
  <sodipodi:namedview
     id="namedview1"
     pagecolor="#ffffff"
     bordercolor="#000000"
     borderopacity="0.25"
     inkscape:showpageshadow="2"
     inkscape:pageopacity="0.0"
     inkscape:pagecheckerboard="0"
     inkscape:deskcolor="#d1d1d1"
     inkscape:document-units="px"
     inkscape:zoom="3.078125"
     inkscape:cx="127.83756"
     inkscape:cy="128"
     inkscape:window-width="1920"
     inkscape:window-height="1011"
     inkscape:window-x="0"
     inkscape:window-y="0"
     inkscape:window-maximized="1"
     inkscape:current-layer="svg1" />
  <defs
     id="defs1">
    <linearGradient
       inkscape:collect="always"
       id="linearGradient1690">
      <stop
         style="stop-color:#eb7b51;stop-opacity:1;"
         offset="0"
         id="stop1686" />
      <stop
         style="stop-color:#ee5b85;stop-opacity:1;"
         offset="0.30000001"
         id="stop1692" />
      <stop
         style="stop-color:#c05fe9;stop-opacity:1;"
         offset="0.68692034"
         id="stop1694" />
      <stop
         style="stop-color:#2f95f5;stop-opacity:1;"
         offset="1"
         id="stop1696" />
    </linearGradient>
    <linearGradient
       inkscape:collect="always"
       xlink:href="#4852"
       id="linearGradient4"
       x1="30"
       y1="2"
       x2="2"
       y2="30"
       gradientUnits="userSpaceOnUse"
       gradientTransform="scale(8)" />
    <linearGradient
       inkscape:collect="always"
       id="4852">
      <stop
         style="stop-color:#272727;stop-opacity:1;"
         offset="0"
         id="stop14555" />
      <stop
         style="stop-color:#5d5d5d;stop-opacity:1;"
         offset="1"
         id="stop14557" />
    </linearGradient>
    <linearGradient
       inkscape:collect="always"
       xlink:href="#linearGradient1690"
       id="linearGradient2"
       x1="2"
       y1="30"
       x2="30"
       y2="2"
       gradientUnits="userSpaceOnUse"
       gradientTransform="scale(8)" />
  </defs>
  <rect
     style="opacity:0.2;fill:#000000;stroke-width:14"
     id="rect1"
     width="224"
     height="224"
     x="16"
     y="17"
     ry="48" />
  <rect
     style="fill:url(#linearGradient4);stroke-width:8"
     id="rect2"
     width="224"
     height="224"
     x="16"
     y="16"
     ry="48" />
  <path
     d="m 71.999512,80 9.76e-4,10.382416 8.894848,0.67352 1.485256,2.020352 L 67.615016,162.97762 65.343408,165.0827 56,165.76046 v 10.23892 l 39.999368,6e-4 0.0013,-10.23837 -8.198552,-0.59056 -1.572648,-2.18899 6.028632,-27.20664 h 9.26088 l 13.28016,24.53947 c 5.42776,10.74265 9.23541,15.34816 20.96868,15.49065 3.37371,0.0416 4.73091,0.28048 13.83234,0 31.39153,-25.2535 47.4149,-46.63218 49.94654,-55.33517 1.53326,-5.27111 -0.90106,-8.50394 -6.11726,-8.50394 -2.54448,0 -5.45756,1.03254 -8.73528,3.11649 l -2.35894,20.22866 c -6.42464,8.09033 -14.98934,16.90325 -25.42438,26.09721 l 9.11691,-36.90253 c 1.43231,-7.11054 1.90451,-10.90436 -2.88372,-12.37567 l -21.40455,4.54687 -1.1344,3.87184 9.87124,1.5163 c 0.68624,2.45138 -2.28886,9.91462 -3.78751,18.12878 l -4.8053,25.50752 c -0.076,0.26232 -0.12328,0.55024 -0.1748,0.84186 -3.11584,-1.61316 -5.08,-4.48566 -7.33904,-8.83907 l -18.78429,-33.80013 34.33578,-32.17352 10.07959,-1.094328 -0.001,-10.635376 -40.00005,2.88e-4 0.002,10.635912 14.01895,0.67264 0.8737,2.273144 -36.228646,31.47362 h -4.36848 l 6.698056,-31.978476 1.92212,-2.020344 9.08399,-0.67328 -9.1e-4,-10.38348 z"
     style="fill:url(#linearGradient2);stroke-width:8"
     id="path1445" />
</svg>
