<?xml version="1.0" encoding="UTF-8" standalone="no"?>
<!-- Created with Inkscape (http://www.inkscape.org/) -->

<svg
   width="256"
   height="256"
   viewBox="0 0 256 256.00002"
   version="1.1"
   id="svg1"
   inkscape:version="1.4.2 (ebf0e940d0, 2025-05-08)"
   sodipodi:docname="kwin.svg"
   xmlns:inkscape="http://www.inkscape.org/namespaces/inkscape"
   xmlns:sodipodi="http://sodipodi.sourceforge.net/DTD/sodipodi-0.dtd"
   xmlns:xlink="http://www.w3.org/1999/xlink"
   xmlns="http://www.w3.org/2000/svg"
   xmlns:svg="http://www.w3.org/2000/svg">
  <sodipodi:namedview
     id="namedview1"
     pagecolor="#ffffff"
     bordercolor="#000000"
     borderopacity="0.25"
     inkscape:showpageshadow="2"
     inkscape:pageopacity="0.0"
     inkscape:pagecheckerboard="0"
     inkscape:deskcolor="#d1d1d1"
     inkscape:document-units="px"
     inkscape:zoom="3.109375"
     inkscape:cx="127.8392"
     inkscape:cy="128"
     inkscape:window-width="1920"
     inkscape:window-height="1011"
     inkscape:window-x="0"
     inkscape:window-y="0"
     inkscape:window-maximized="1"
     inkscape:current-layer="svg1" />
  <defs
     id="defs1">
    <linearGradient
       inkscape:collect="always"
       xlink:href="#4852"
       id="linearGradient4"
       x1="16"
       y1="30"
       x2="16"
       y2="2"
       gradientUnits="userSpaceOnUse"
       gradientTransform="scale(8)" />
    <linearGradient
       inkscape:collect="always"
       id="4852">
      <stop
         style="stop-color:#272727;stop-opacity:1;"
         offset="0"
         id="stop14555" />
      <stop
         style="stop-color:#5d5d5d;stop-opacity:1;"
         offset="1"
         id="stop14557" />
    </linearGradient>
  </defs>
  <rect
     style="opacity:0.2;fill:#000000;stroke-width:14"
     id="rect1"
     width="224"
     height="224"
     x="16"
     y="17"
     ry="48" />
  <rect
     style="fill:url(#linearGradient4);stroke-width:8"
     id="rect2"
     width="224"
     height="224"
     x="16"
     y="16"
     ry="48" />
  <rect
     style="opacity:0.1;fill:#ffffff;fill-opacity:1;stroke-width:24;stroke-linecap:round;stroke-linejoin:round"
     id="rect2588"
     width="116"
     height="92"
     x="46"
     y="54"
     ry="10" />
  <rect
     style="fill:#eff0f1;fill-opacity:1;stroke-width:12;stroke-linecap:round;stroke-linejoin:round"
     id="rect598"
     width="112"
     height="88"
     x="48"
     y="56"
     ry="8" />
  <rect
     style="opacity:0.1;fill:#ffffff;fill-opacity:1;stroke-width:24;stroke-linecap:round;stroke-linejoin:round"
     id="rect2630-3"
     width="116"
     height="92"
     x="94"
     y="110"
     ry="10" />
  <rect
     style="fill:#ffffff;fill-opacity:1;stroke-width:12;stroke-linecap:round;stroke-linejoin:round"
     id="rect652"
     width="112"
     height="88"
     x="96"
     y="112"
     ry="8" />
  <path
     d="m 104,112 h 96 c 4.432,0 8,3.56799 8,7.99999 v 8 H 95.999996 v -8 c 0,-4.432 3.568,-8 8.000004,-7.99999 z"
     style="fill:#475057;fill-opacity:1;stroke-width:24;stroke-linecap:round;stroke-linejoin:round"
     id="path2537" />
  <path
     id="rect1268"
     style="fill:#76828e;fill-opacity:1;stroke-width:24;stroke-linecap:round;stroke-linejoin:round"
     d="M 55.999996,56.000004 H 152 c 4.432,0 8,3.568 8,7.999996 v 8 H 47.999996 v -8 c 0,-4.431996 3.568,-7.999996 8,-7.999996 z"
     sodipodi:nodetypes="sssccss" />
  <path
     d="m 156.06253,131.9 -12.0625,2.10156 v 41.54688 l 12,-1.54688 -0.0625,-18.72656 14.15625,20.72656 13.90624,-2 -15.99999,-21.45312 16.05469,-18 -14.07813,-2.59375 -14.03906,18 z m -25.36719,10.60938 c -0.11588,0.01 -0.2252,0.0604 -0.31252,0.14844 l -4.14062,4.1875 c -0.1798,0.1812 -0.2098,0.46368 -0.0703,0.67968 l 5,7.67969 c -0.94324,1.67392 -1.65594,3.50929 -2.11719,5.42969 l -8.63281,2.11718 C 120.18224,162.81036 120,163.027 120,163.275 v 2.72656 2.72657 c 0,0.248 0.18224,0.46463 0.42188,0.52343 l 8.63281,2.11719 c 0.46125,1.9204 1.17395,3.75577 2.11719,5.42969 l -5,7.67968 c -0.13948,0.216 -0.10948,0.4985 0.0703,0.6797 l 4.14062,4.1875 c 0.17456,0.176 0.44542,0.1906 0.65625,0.0624 l 7.83594,-4.80468 c 1.53731,0.8956 3.94203,1.61616 5.69531,2.09376 l 1.83594,8.86718 c 0.051,0.256 0.25432,0.4375 0.50781,0.4375 h 3.08594 3.08593 c 0.25352,0 0.45681,-0.1814 0.50782,-0.4375 l 1.83594,-8.86718 c 1.75327,-0.4776 4.158,-1.19816 5.69531,-2.09376 l 7.83593,4.8047 c 0.21084,0.128 0.48169,0.1136 0.65626,-0.0624 l 4.14062,-4.18752 c 0.1798,-0.1812 0.2098,-0.46368 0.0703,-0.67968 l -4.16406,-6.39844 -0.51563,0.0781 -2.92187,-4.28124 c -2.98426,6.25585 -9.29537,10.24246 -16.22656,10.25 -9.94113,0 -18,-8.05888 -18,-18 0.006,-6.83252 3.87938,-13.07272 9.99999,-16.10939 v -3.92969 c -1.14095,0.3804 -2.26205,0.80977 -3.125,1.3125 l -7.83594,-4.80468 c -0.1054,-0.064 -0.22788,-0.0956 -0.34376,-0.0859 z"
     style="fill:#4d4d4d;fill-opacity:1;stroke-width:4"
     id="path304" />
</svg>
