<?xml version="1.0" encoding="UTF-8" standalone="no"?>
<!-- Created with Inkscape (http://www.inkscape.org/) -->

<svg
   width="256"
   height="256"
   viewBox="0 0 256 256.00002"
   version="1.1"
   id="svg1"
   inkscape:version="1.4.2 (ebf0e940d0, 2025-05-08)"
   sodipodi:docname="libreoffice-math.svg"
   xmlns:inkscape="http://www.inkscape.org/namespaces/inkscape"
   xmlns:sodipodi="http://sodipodi.sourceforge.net/DTD/sodipodi-0.dtd"
   xmlns:xlink="http://www.w3.org/1999/xlink"
   xmlns="http://www.w3.org/2000/svg"
   xmlns:svg="http://www.w3.org/2000/svg">
  <sodipodi:namedview
     id="namedview1"
     pagecolor="#ffffff"
     bordercolor="#000000"
     borderopacity="0.25"
     inkscape:showpageshadow="2"
     inkscape:pageopacity="0.0"
     inkscape:pagecheckerboard="0"
     inkscape:deskcolor="#d1d1d1"
     inkscape:document-units="px"
     inkscape:zoom="3.109375"
     inkscape:cx="127.8392"
     inkscape:cy="128"
     inkscape:window-width="1920"
     inkscape:window-height="1011"
     inkscape:window-x="0"
     inkscape:window-y="0"
     inkscape:window-maximized="1"
     inkscape:current-layer="svg1" />
  <defs
     id="defs1">
    <linearGradient
       inkscape:collect="always"
       xlink:href="#4852"
       id="linearGradient4"
       x1="16"
       y1="30"
       x2="16"
       y2="2"
       gradientUnits="userSpaceOnUse"
       gradientTransform="scale(8)" />
    <linearGradient
       inkscape:collect="always"
       id="4852">
      <stop
         style="stop-color:#272727;stop-opacity:1;"
         offset="0"
         id="stop14555" />
      <stop
         style="stop-color:#5d5d5d;stop-opacity:1;"
         offset="1"
         id="stop14557" />
    </linearGradient>
  </defs>
  <rect
     style="opacity:0.2;fill:#000000;stroke-width:14"
     id="rect1"
     width="224"
     height="224"
     x="16"
     y="17"
     ry="48" />
  <rect
     style="fill:url(#linearGradient4);stroke-width:8"
     id="rect2"
     width="224"
     height="224"
     x="16"
     y="16"
     ry="48" />
  <path
     id="rect293"
     style="fill:#ffffff;stroke-width:16;stroke-linecap:round;stroke-linejoin:round"
     d="m 119.99925,80 v 0.0312 c -1.46385,0.16096 -2.77294,1.12692 -3.3125,2.609376 l -24.779502,60.406244 -7.25,-20.07812 C 84.176048,121.17301 82.5696,119.9939 80.797872,120 H 80.563496 68 c -2.215996,0 -4,1.78401 -4,4 0,2.216 1.784004,4 4,4 h 9.735376 l 9.312496,23.8125 c 0.805464,2.74024 1.49028,3.97169 2.828128,4.51563 2.082352,0.75792 4.382712,-0.30824 5.140624,-2.39063 L 123.24925,88 H 188 c 2.216,0 4,-1.784008 4,-4 0,-2.216 -1.784,-4 -4,-4 z M 68,176 c -2.215996,0 -4,1.784 -4,4 0,2.216 1.784004,4 4,4 h 24 c 2.216,0 4,-1.784 4,-4 0,-2.216 -1.784,-4 -4,-4 z m 48,0 c -2.216,0 -4,1.784 -4,4 0,2.216 1.784,4 4,4 h 24 c 2.216,0 4,-1.784 4,-4 0,-2.216 -1.784,-4 -4,-4 z m 48,0 c -2.216,0 -4,1.784 -4,4 0,2.216 1.784,4 4,4 h 24 c 2.216,0 4,-1.784 4,-4 0,-2.216 -1.784,-4 -4,-4 z"
     sodipodi:nodetypes="cccccccssscccccssscsssssssssssssssssssss" />
  <path
     id="rect1107"
     style="fill:#ef95b4;fill-opacity:1;stroke-width:16;stroke-linecap:round;stroke-linejoin:round"
     d="m 137.37442,105.37442 c -3.13389,3.13389 -3.13389,8.17982 0,11.31372 l 11.31113,11.31114 -11.31113,11.31114 c -3.13389,3.1339 -3.13389,8.17982 0,11.31371 3.13389,3.13389 8.17981,3.13389 11.31371,0 l 11.31114,-11.31114 11.31115,11.31114 c 3.13389,3.13389 8.1798,3.13389 11.3137,0 3.1339,-3.13389 3.1339,-8.17981 0,-11.31371 l -11.31114,-11.31114 11.31113,-11.31114 c 3.13389,-3.1339 3.13389,-8.17983 0,-11.31372 -3.13389,-3.13389 -8.17981,-3.13389 -11.3137,0 l -11.31114,11.31115 -11.31115,-11.31115 c -3.13389,-3.13388 -8.17981,-3.13389 -11.3137,0 z"
     sodipodi:nodetypes="sscssscssscssscss" />
</svg>
