<?xml version="1.0" encoding="UTF-8" standalone="no"?>
<!-- Created with Inkscape (http://www.inkscape.org/) -->

<svg
   width="256"
   height="256"
   viewBox="0 0 256 256.00002"
   version="1.1"
   id="svg1"
   inkscape:version="1.4.2 (ebf0e940d0, 2025-05-08)"
   sodipodi:docname="nvidia.svg"
   xmlns:inkscape="http://www.inkscape.org/namespaces/inkscape"
   xmlns:sodipodi="http://sodipodi.sourceforge.net/DTD/sodipodi-0.dtd"
   xmlns:xlink="http://www.w3.org/1999/xlink"
   xmlns="http://www.w3.org/2000/svg"
   xmlns:svg="http://www.w3.org/2000/svg">
  <sodipodi:namedview
     id="namedview1"
     pagecolor="#ffffff"
     bordercolor="#000000"
     borderopacity="0.25"
     inkscape:showpageshadow="2"
     inkscape:pageopacity="0.0"
     inkscape:pagecheckerboard="0"
     inkscape:deskcolor="#d1d1d1"
     inkscape:document-units="px"
     inkscape:zoom="3.0703125"
     inkscape:cx="127.83715"
     inkscape:cy="128"
     inkscape:window-width="1920"
     inkscape:window-height="1011"
     inkscape:window-x="0"
     inkscape:window-y="0"
     inkscape:window-maximized="1"
     inkscape:current-layer="svg1" />
  <defs
     id="defs1">
    <linearGradient
       inkscape:collect="always"
       xlink:href="#4852"
       id="linearGradient4"
       x1="16"
       y1="30"
       x2="16"
       y2="2"
       gradientUnits="userSpaceOnUse"
       gradientTransform="scale(8)" />
    <linearGradient
       inkscape:collect="always"
       id="4852">
      <stop
         style="stop-color:#272727;stop-opacity:1;"
         offset="0"
         id="stop14555" />
      <stop
         style="stop-color:#5d5d5d;stop-opacity:1;"
         offset="1"
         id="stop14557" />
    </linearGradient>
    <linearGradient
       inkscape:collect="always"
       xlink:href="#linearGradient1270"
       id="linearGradient1272"
       x1="23.002001"
       y1="38"
       x2="23.002001"
       y2="10"
       gradientUnits="userSpaceOnUse"
       gradientTransform="matrix(8,0,0,8,-56.016,-64)" />
    <linearGradient
       inkscape:collect="always"
       id="linearGradient1270">
      <stop
         style="stop-color:#80d935;stop-opacity:1;"
         offset="0"
         id="stop1266" />
      <stop
         style="stop-color:#afd65f;stop-opacity:1;"
         offset="1"
         id="stop1268" />
    </linearGradient>
  </defs>
  <rect
     style="opacity:0.2;fill:#000000;stroke-width:14"
     id="rect1"
     width="224"
     height="224"
     x="16"
     y="17"
     ry="48" />
  <rect
     style="fill:url(#linearGradient4);stroke-width:8"
     id="rect2"
     width="200"
     height="224"
     x="16"
     y="16"
     ry="48" />
  <path
     id="path353"
     style="fill:url(#linearGradient1272);fill-opacity:1;stroke-width:8"
     d="m 120,16 v 70.921872 c 35.52169,-0.36136 58.57813,31.562508 58.57813,31.562508 0,0 -27.22139,35.01562 -55.57813,35.01562 -2.59888,0 -0.71472,-0.24368 -3,-0.67184 v 9.32812 c 0.48856,0.0656 0.73472,0.13568 0.82813,0.18752 v 0.016 h 0.016 l 0.016,0.016 v 0.016 0.016 0.016 0.016 l -0.016,0.016 -0.016,0.016 -0.016,0.016 v 0.016 h -0.016 v 0.016 h 0.016 v 0.016 h 0.016 l 0.016,0.016 c 0.0906,0.024 0.34288,0.0312 0.93749,0.0312 26.38796,0 45.47476,-14.25223 63.95314,-31.125 3.06366,2.59566 15.6091,8.90787 18.18748,11.67187 -17.56876,15.56077 -58.52161,28.10938 -81.73436,28.10938 -0.69928,0 -0.98915,-0.0208 -1.09375,-0.0472 h -0.016 l -0.016,-0.016 -0.016,-0.016 v -0.016 -0.016 -0.016 -0.016 h -0.016 v -0.016 l -0.016,-0.016 -0.016,-0.016 C 120.91008,170.99567 120.66008,170.94228 120,170.875 V 240 h 72 c 26.592,0 48,-21.408 48,-48 V 64 C 240,37.408 218.592,16 192,16 Z m 0,154.875 v -8.71875 c -32.292736,-4.30398 -47.671872,-41.9375 -47.671872,-41.9375 0,0 18.788736,-22.585878 47.671872,-24.921878 v 10.124998 c 0.3476,-0.0392 0.52632,-0.0911 0.59376,-0.12504 h 0.016 l 0.016,-0.016 v -0.016 h -0.016 v -0.016 h -0.016 l -0.016,-0.016 c -0.0696,-0.0344 -0.21888,-0.0712 -0.28128,-0.0938 h -0.016 v -0.016 h 0.016 l 0.016,-0.016 c 0.068,-0.0136 0.25784,-0.016 0.65624,-0.016 16.75357,0 26.6875,13.78125 26.6875,13.78125 l -11.67188,12.15625 C 129.86314,120.23761 130.18238,115.47347 120,114.17187 v 30.67188 c 2.30768,0.82097 0.562,1.3125 3.42187,1.3125 19.87116,0 38.40626,-27.23438 38.40626,-27.23438 0,0 -16.51563,-23.693094 -41.82813,-23.781246 v 0.10936 c -0.40344,-0.032 -1.43313,-0.0696 -1.625,-0.09376 0.0248,-0.0032 0.0608,-0.0128 0.14064,-0.016 0.50096,-0.0168 0.9901,-0.0017 1.48438,0 v -8.031248 c -31.99194,2.71808 -64.015628,31.375004 -64.015628,31.375004 0,0 20.01172,47.99704 64.015628,52.39062 z m 0,-26.03125 c -13.75933,-4.8904 -22.546872,-21.875 -22.546872,-21.875 0,0 12.301242,-10.10929 22.515622,-8.8125 h 0.016 v 0.016 H 120 v -8.75 c -19.46236,2.2272 -35.5,15.95313 -35.5,15.95313 0,0 11.093648,26.85008 35.5,31.45312 z m 0,-57.921878 c -0.49736,0.0052 -0.98215,-0.0034 -1.48438,0.016 -0.0392,0.0014 -0.0712,0.012 -0.0938,0.016 0.234,0.0224 1.18925,0.056 1.57813,0.09376 z" />
</svg>
