<?xml version="1.0" encoding="UTF-8" standalone="no"?>
<!-- Created with Inkscape (http://www.inkscape.org/) -->

<svg
   width="256"
   height="256"
   viewBox="0 0 256 256.00002"
   version="1.1"
   id="svg1"
   inkscape:version="1.4.2 (ebf0e940d0, 2025-05-08)"
   sodipodi:docname="org.gnome.Loupe.svg"
   xmlns:inkscape="http://www.inkscape.org/namespaces/inkscape"
   xmlns:sodipodi="http://sodipodi.sourceforge.net/DTD/sodipodi-0.dtd"
   xmlns:xlink="http://www.w3.org/1999/xlink"
   xmlns="http://www.w3.org/2000/svg"
   xmlns:svg="http://www.w3.org/2000/svg">
  <sodipodi:namedview
     id="namedview1"
     pagecolor="#ffffff"
     bordercolor="#000000"
     borderopacity="0.25"
     inkscape:showpageshadow="2"
     inkscape:pageopacity="0.0"
     inkscape:pagecheckerboard="0"
     inkscape:deskcolor="#d1d1d1"
     inkscape:document-units="px"
     inkscape:zoom="3.15625"
     inkscape:cx="127.84158"
     inkscape:cy="128"
     inkscape:window-width="1920"
     inkscape:window-height="1011"
     inkscape:window-x="0"
     inkscape:window-y="0"
     inkscape:window-maximized="1"
     inkscape:current-layer="svg1"
     showguides="false" />
  <defs
     id="defs1">
    <linearGradient
       inkscape:collect="always"
       xlink:href="#4852"
       id="linearGradient4"
       x1="16"
       y1="30"
       x2="16"
       y2="2"
       gradientUnits="userSpaceOnUse"
       gradientTransform="scale(8)" />
    <linearGradient
       inkscape:collect="always"
       id="4852">
      <stop
         style="stop-color:#272727;stop-opacity:1;"
         offset="0"
         id="stop14555" />
      <stop
         style="stop-color:#5d5d5d;stop-opacity:1;"
         offset="1"
         id="stop14557" />
    </linearGradient>
    <linearGradient
       inkscape:collect="always"
       id="linearGradient3">
      <stop
         style="stop-color:#ff8303;stop-opacity:1;"
         offset="0"
         id="stop1" />
      <stop
         style="stop-color:#b966d8;stop-opacity:1;"
         offset="0.5"
         id="stop3" />
      <stop
         style="stop-color:#5672c9;stop-opacity:1;"
         offset="1"
         id="stop2" />
    </linearGradient>
    <linearGradient
       inkscape:collect="always"
       xlink:href="#linearGradient3"
       id="linearGradient5"
       x1="16"
       y1="30"
       x2="16"
       y2="2"
       gradientUnits="userSpaceOnUse"
       gradientTransform="scale(8)" />
  </defs>
  <rect
     style="opacity:0.2;fill:#000000;stroke-width:14"
     id="rect1"
     width="224"
     height="224"
     x="16"
     y="17"
     ry="48" />
  <rect
     style="fill:url(#linearGradient4);stroke-width:8"
     id="rect2"
     width="224"
     height="224"
     x="16"
     y="16"
     ry="48" />
  <path
     id="path1600"
     style="opacity:1;fill:url(#linearGradient5);stroke-width:1.19053;stroke-linecap:round;stroke-linejoin:round"
     d="M 80,64 A 16,16 0 0 0 64,80 16,16 0 0 0 80,96 16,16 0 0 0 96,80 16,16 0 0 0 80,64 Z m 64.875,63.75 c -2.75466,-0.009 -5.52006,0.88744 -7.25,2.73438 l -24.59375,26.25 -9.01563,-10.26563 c -3.2311,-3.67874 -10.97574,-3.73551 -14.39062,0 L 48,192 h 32 64 64 l -55.98438,-61.51562 c -1.6478,-1.81054 -4.38596,-2.72528 -7.14062,-2.73438 z" />
  <path
     id="path3505"
     style="opacity:0.3;fill:#ffffff;fill-opacity:1;stroke-width:16;stroke-linecap:round;stroke-linejoin:round"
     d="M 80,64 A 16,16 0 0 0 64,80 16,16 0 0 0 80,96 16,16 0 0 0 96,80 16,16 0 0 0 80,64 Z m 64.875,63.75 c -2.75466,-0.009 -5.52006,0.88744 -7.25,2.73438 L 80,192 h 128 l -55.98438,-61.51562 c -1.6478,-1.81054 -4.38596,-2.72528 -7.14062,-2.73438 z" />
</svg>
