<?xml version="1.0" encoding="UTF-8" standalone="no"?>
<!-- Created with Inkscape (http://www.inkscape.org/) -->

<svg
   width="256"
   height="256"
   viewBox="0 0 256 256.00002"
   version="1.1"
   id="svg1"
   inkscape:version="1.4.2 (ebf0e940d0, 2025-05-08)"
   sodipodi:docname="preferences-system-bluetooth.svg"
   xmlns:inkscape="http://www.inkscape.org/namespaces/inkscape"
   xmlns:sodipodi="http://sodipodi.sourceforge.net/DTD/sodipodi-0.dtd"
   xmlns:xlink="http://www.w3.org/1999/xlink"
   xmlns="http://www.w3.org/2000/svg"
   xmlns:svg="http://www.w3.org/2000/svg">
  <sodipodi:namedview
     id="namedview1"
     pagecolor="#ffffff"
     bordercolor="#000000"
     borderopacity="0.25"
     inkscape:showpageshadow="2"
     inkscape:pageopacity="0.0"
     inkscape:pagecheckerboard="0"
     inkscape:deskcolor="#d1d1d1"
     inkscape:document-units="px"
     inkscape:zoom="3.109375"
     inkscape:cx="127.8392"
     inkscape:cy="128"
     inkscape:window-width="1920"
     inkscape:window-height="1011"
     inkscape:window-x="0"
     inkscape:window-y="0"
     inkscape:window-maximized="1"
     inkscape:current-layer="svg1" />
  <defs
     id="defs1">
    <linearGradient
       inkscape:collect="always"
       id="linearGradient1818">
      <stop
         style="stop-color:#017cd9;stop-opacity:1;"
         offset="0"
         id="stop1814" />
      <stop
         style="stop-color:#3fa3e8;stop-opacity:1;"
         offset="1"
         id="stop1816" />
    </linearGradient>
    <linearGradient
       inkscape:collect="always"
       xlink:href="#linearGradient1818"
       id="linearGradient2"
       x1="32"
       y1="60"
       x2="32"
       y2="4"
       gradientUnits="userSpaceOnUse"
       gradientTransform="scale(4)" />
    <linearGradient
       inkscape:collect="always"
       xlink:href="#4852"
       id="linearGradient4"
       x1="16"
       y1="30"
       x2="16"
       y2="2"
       gradientUnits="userSpaceOnUse"
       gradientTransform="scale(8)" />
    <linearGradient
       inkscape:collect="always"
       id="4852">
      <stop
         style="stop-color:#272727;stop-opacity:1;"
         offset="0"
         id="stop14555" />
      <stop
         style="stop-color:#5d5d5d;stop-opacity:1;"
         offset="1"
         id="stop14557" />
    </linearGradient>
  </defs>
  <rect
     style="opacity:0.2;fill:#000000;stroke-width:14"
     id="rect1"
     width="224"
     height="224"
     x="16"
     y="17"
     ry="48" />
  <rect
     style="fill:url(#linearGradient4);stroke-width:8"
     id="rect2"
     width="224"
     height="224"
     x="16"
     y="16"
     ry="48" />
  <path
     d="m 122.57861,56.25464 c -1.55232,0.59016 -2.57848,2.07816 -2.57848,3.73888 v 58.62562 L 86.471464,88.847384 c -1.73712,-1.3648 -4.25168,-1.06312 -5.61656,0.674 -1.364868,1.73712 -1.063108,4.25168 0.674,5.61656 L 118.97997,127.9913 81.528904,160.84746 c -1.737108,1.3648 -2.038868,3.8792 -0.674,5.616 1.36488,1.7376 3.87944,2.0392 5.61656,0.6744 L 120.00013,137.3641 v 58.6267 c 0,1.6608 1.02616,3.1488 2.57848,3.7392 1.55232,0.5904 3.30784,0.16 4.4112,-1.0816 l 39.99453,-35.99454 c 0.73272,-0.824 1.09264,-1.9144 0.99448,-3.0136 -0.0982,-1.0984 -0.6456,-2.108 -1.51288,-2.7888 L 131.92901,127.9913 166.46594,99.142024 c 0.86728,-0.68144 1.41472,-1.6908 1.51288,-2.78936 0.0982,-1.09864 -0.26176,-2.18896 -0.99448,-3.01336 L 126.98981,57.33576 c -1.23431,-1.111144 -2.85888,-1.6716 -4.4112,-1.08144 z m 5.42152,78.82402 28.57941,25.43696 -28.57941,24.95454 z m 0,-14.1744 V 70.51384 l 28.57941,24.963544 z"
     id="path346"
     sodipodi:nodetypes="csccsccccccssccccccscscccccccccc"
     style="fill:url(#linearGradient2);stroke-width:8" />
</svg>
