<?xml version="1.0" encoding="UTF-8" standalone="no"?>
<!-- Created with Inkscape (http://www.inkscape.org/) -->

<svg
   width="256"
   height="256"
   viewBox="0 0 256 256.00002"
   version="1.1"
   id="svg1"
   inkscape:version="1.4.2 (ebf0e940d0, 2025-05-08)"
   sodipodi:docname="preferences-system.svg"
   xmlns:inkscape="http://www.inkscape.org/namespaces/inkscape"
   xmlns:sodipodi="http://sodipodi.sourceforge.net/DTD/sodipodi-0.dtd"
   xmlns:xlink="http://www.w3.org/1999/xlink"
   xmlns="http://www.w3.org/2000/svg"
   xmlns:svg="http://www.w3.org/2000/svg">
  <sodipodi:namedview
     id="namedview1"
     pagecolor="#ffffff"
     bordercolor="#000000"
     borderopacity="0.25"
     inkscape:showpageshadow="2"
     inkscape:pageopacity="0.0"
     inkscape:pagecheckerboard="0"
     inkscape:deskcolor="#d1d1d1"
     inkscape:document-units="px"
     inkscape:zoom="3.0703125"
     inkscape:cx="127.83715"
     inkscape:cy="128"
     inkscape:window-width="1920"
     inkscape:window-height="1011"
     inkscape:window-x="0"
     inkscape:window-y="0"
     inkscape:window-maximized="1"
     inkscape:current-layer="svg1" />
  <defs
     id="defs1">
    <linearGradient
       inkscape:collect="always"
       xlink:href="#linearGradient2116"
       id="linearGradient3"
       x1="16"
       y1="30"
       x2="16"
       y2="2"
       gradientUnits="userSpaceOnUse"
       gradientTransform="scale(8)" />
    <linearGradient
       inkscape:collect="always"
       xlink:href="#4852"
       id="linearGradient4"
       x1="16"
       y1="30"
       x2="16"
       y2="2"
       gradientUnits="userSpaceOnUse"
       gradientTransform="scale(8)" />
    <linearGradient
       inkscape:collect="always"
       id="4852">
      <stop
         style="stop-color:#272727;stop-opacity:1;"
         offset="0"
         id="stop14555" />
      <stop
         style="stop-color:#5d5d5d;stop-opacity:1;"
         offset="1"
         id="stop14557" />
    </linearGradient>
    <linearGradient
       inkscape:collect="always"
       id="linearGradient2116">
      <stop
         style="stop-color:#657481;stop-opacity:1;"
         offset="0"
         id="stop2112" />
      <stop
         style="stop-color:#9ba6b0;stop-opacity:1;"
         offset="1"
         id="stop2114" />
    </linearGradient>
  </defs>
  <rect
     style="opacity:0.2;fill:#000000;stroke-width:14"
     id="rect1"
     width="224"
     height="224"
     x="16"
     y="17"
     ry="48" />
  <rect
     style="fill:url(#linearGradient4);stroke-width:8"
     id="rect2"
     width="224"
     height="224"
     x="16"
     y="16"
     ry="48" />
  <path
     id="rect1-2"
     style="opacity:1;fill:url(#linearGradient3);stroke-width:8"
     d="m 152.39062,43.281248 c -3.33948,0.10092 -6.29145,3.943988 -8.125,7.203128 l -7.90624,14.046872 c 2.12534,0.28144 4.25849,0.66728 6.375,1.17188 1.77259,0.42264 3.53962,0.933592 5.29687,1.515624 -1.73617,-0.57176 -3.49859,-1.092008 -5.29687,-1.515624 C 138.00486,64.589 133.06966,64 128,64 c -3.1567,0 -6.24694,0.27728 -9.28125,0.71872 0.31592,-0.0464 0.62064,-0.14552 0.9375,-0.18752 l -7.92187,-14.046824 c -1.494,-2.655596 -3.74312,-5.6926 -6.32813,-6.781252 -1.17501,-0.49484 -2.40793,-0.592492 -3.6875,-0.06252 l -14.781246,6.125 c -4.09464,1.696052 -3.44472,7.653944 -2.25,11.921876 l 4.343744,15.531252 c 1.002512,-0.76776 2.019,-1.497736 3.062504,-2.203128 2.308784,-1.560712 4.735088,-2.92712 7.218744,-4.171872 -2.49136,1.253168 -4.92676,2.615952 -7.218744,4.171872 -6.081904,4.12872 -11.363304,9.312072 -15.703128,15.234376 0.2864,-0.39232 0.51792,-0.834304 0.812504,-1.218752 L 61.6875,84.687484 c -4.267932,-1.19472 -10.225824,-1.84464 -11.921876,2.25 l -6.125,14.781246 c -1.696052,4.09463 2.981084,7.84251 6.843752,10.01563 l 14.046872,7.90624 c 0.28144,-2.12541 0.6672,-4.25842 1.17188,-6.375 0.42264,-1.77256 0.9336,-3.53966 1.515624,-5.29687 -0.57176,1.73611 -1.092016,3.49867 -1.515624,5.29687 C 64.588968,117.9952 64,122.93027 64,128 c 0,3.15801 0.27696,6.24575 0.71872,9.28125 -0.0464,-0.31544 -0.14552,-0.62112 -0.18752,-0.9375 l -14.046872,7.92187 c -3.86268,2.17341 -8.539808,5.921 -6.843752,10.01563 l 6.125,14.78125 c 1.696052,4.09464 7.653932,3.44471 11.921876,2.25 l 15.531252,-4.34375 c -0.76464,-0.99845 -1.500336,-2.00776 -2.203128,-3.04688 -1.55836,-2.30411 -2.912624,-4.72469 -4.156248,-7.20312 1.251736,2.48527 2.603136,4.91645 4.156248,7.20312 4.115888,6.05989 9.289872,11.32595 15.187504,15.65626 -0.37696,-0.27568 -0.802216,-0.498 -1.17188,-0.78128 l -4.343744,15.51563 c -1.194728,4.26792 -1.84464,10.22582 2.25,11.92188 l 14.781244,6.125 c 4.09464,1.69604 7.84252,-2.9811 10.01563,-6.84376 l 7.90625,-14.04688 C 117.50805,191.1864 115.37366,190.804 113.25,190.29688 117.9861,191.4143 122.92262,192 128,192 c 3.14374,0 6.22759,-0.26528 9.25,-0.70312 -0.3044,0.0448 -0.60096,0.1314 -0.90625,0.1718 l 7.92187,14.04688 c 2.17312,3.86268 5.921,8.5398 10.01563,6.84374 l 14.78125,-6.125 c 4.09464,-1.69604 3.44473,-7.65394 2.25,-11.92188 l -4.34375,-15.53124 c -0.9619,0.73664 -1.9378,1.44572 -2.9375,2.125 -2.30279,1.56468 -4.72518,2.93782 -7.20312,4.1875 2.48874,-1.25928 4.91435,-2.62576 7.20312,-4.1875 6.01721,-4.10584 11.24193,-9.2587 15.54688,-15.125 -0.27816,0.38048 -0.49544,0.81443 -0.78128,1.1875 l 15.51563,4.34374 c 4.26792,1.19472 10.22582,1.84465 11.92188,-2.25 l 6.125,-14.78124 c 1.69604,-4.09464 -2.98108,-7.84254 -6.84376,-10.01563 l -14.04688,-7.90625 c -0.28152,2.12629 -0.66696,4.25756 -1.17188,6.375 -0.42632,1.78776 -0.94276,3.57164 -1.53124,5.34376 0.57768,-1.74967 1.10412,-3.53095 1.53124,-5.34376 C 191.41142,138.00401 192,133.07066 192,128 c 0,-3.15657 -0.27736,-6.24707 -0.71872,-9.28125 0.0464,0.31592 0.1456,0.62072 0.1876,0.9375 l 14.04688,-7.92187 c 3.86268,-2.17309 8.5398,-5.921 6.84374,-10.01563 l -6.125,-14.781246 c -0.53,-1.279568 -1.4755,-2.097176 -2.65624,-2.578128 -2.59768,-1.058088 -6.33142,-0.49328 -9.26564,0.32816 l -15.53124,4.343744 c 0.76808,1.002944 1.49744,2.018528 2.20312,3.062504 1.583,2.341864 2.97657,4.806616 4.23438,7.32812 -1.26715,-2.531776 -2.65507,-5.00156 -4.23438,-7.32812 -4.12294,-6.073712 -9.29112,-11.350744 -15.20312,-15.687504 0.38288,0.27984 0.81215,0.50928 1.1875,0.79688 l 4.34374,-15.515624 c 1.19472,-4.267936 1.84464,-10.22582 -2.25,-11.921876 l -14.78124,-6.125 c -0.63976,-0.265 -1.2722,-0.37808 -1.89063,-0.35936 z m -35.65624,21.812504 c -2.17358,0.3872 -4.31456,0.883624 -6.40625,1.484376 2.10697,-0.60824 4.24165,-1.09396 6.40625,-1.484376 z m -9.35938,2.421872 c -1.78002,0.60696 -3.51322,1.29132 -5.21875,2.04688 1.71049,-0.75616 3.44848,-1.442088 5.21875,-2.04688 z m 43.3125,0.68752 c 0.60024,0.22816 1.19964,0.42448 1.79688,0.67184 0.13528,0.056 0.256,0.13064 0.39064,0.18752 -0.72112,-0.3048 -1.45318,-0.58056 -2.1875,-0.859376 z m 9.09375,4.25 c 0.49648,0.2828 0.95102,0.61168 1.4375,0.906248 -0.48408,-0.29496 -0.94512,-0.62384 -1.4375,-0.906248 z M 73.359376,94.781272 c -0.29496,0.484 -0.62392,0.945136 -0.906248,1.437504 0.2828,-0.49648 0.61168,-0.951024 0.906248,-1.437504 z M 128,96 c 17.67308,0 32,14.32693 32,32 0,17.67308 -14.32692,32 -32,32 -17.67307,0 -32,-14.32692 -32,-32 0,-17.67307 14.32693,-32 32,-32 z m 58.375,6 c 0.7932,1.78149 1.51198,3.5909 2.14062,5.4375 -0.63008,-1.85337 -1.34968,-3.66489 -2.14062,-5.4375 z m -117.312496,1.125 c -0.3048,0.72112 -0.58056,1.45321 -0.859376,2.1875 0.22816,-0.60016 0.42448,-1.19966 0.67184,-1.79688 0.056,-0.1352 0.13064,-0.256 0.18752,-0.39064 z m 120.343736,7.17187 c 0.61392,2.12248 1.10718,4.27213 1.5,6.45313 -0.39032,-2.19338 -0.89234,-4.34314 -1.5,-6.45313 z M 65.093752,139.23438 c 0.3892,2.18987 0.878488,4.34634 1.484376,6.45312 -0.612,-2.11934 -1.092848,-4.27552 -1.484376,-6.45312 z m 2.45312,9.48437 c 0.58392,1.70311 1.248616,3.36516 1.968752,5 -0.72176,-1.64234 -1.38632,-3.30269 -1.968752,-5 z m 120.296888,1.84375 c -0.24256,0.642 -0.45424,1.28327 -0.71872,1.92188 -0.0544,0.13088 -0.1326,0.24472 -0.1876,0.37496 0.32,-0.75776 0.61488,-1.52458 0.90624,-2.29688 z m -4.31251,9.23437 c -0.26072,0.45736 -0.55744,0.87927 -0.82812,1.32813 0.27104,-0.44648 0.56784,-0.87458 0.82812,-1.32813 z M 94.953128,182.75 c 0.40768,0.24664 0.7896,0.52792 1.20312,0.7656 -0.4164,-0.23776 -0.79376,-0.51952 -1.20312,-0.7656 z m 58.890622,3.67188 c -1.66532,0.7364 -3.34036,1.42266 -5.0625,2.01562 1.72513,-0.59352 3.40762,-1.2823 5.0625,-2.01562 z m -50.65625,0.54688 c 0.26704,0.1124 0.5436,0.20352 0.8125,0.31248 -0.15976,-0.0648 -0.3248,-0.0902 -0.4844,-0.1562 -0.11344,-0.0472 -0.21512,-0.1088 -0.32808,-0.1562 z m 42.45312,2.46874 c -1.99759,0.5752 -4.02844,1.02668 -6.07812,1.40626 2.06324,-0.37768 4.08913,-0.83578 6.07812,-1.40626 z" />
  <path
     id="path285"
     style="opacity:0.3;fill:#ffffff;stroke-width:12.8;stroke-linecap:round;stroke-linejoin:round"
     d="m 128,64 c -35.346152,0 -64,28.653848 -64,64 0,35.34615 28.653848,64 64,64 35.34615,0 64,-28.65385 64,-64 0,-35.346152 -28.65385,-64 -64,-64 z m 0,32 c 17.67308,0 32,14.32693 32,32 0,17.67308 -14.32692,32 -32,32 -17.67307,0 -32,-14.32692 -32,-32 0,-17.67307 14.32693,-32 32,-32 z" />
</svg>
