<?xml version="1.0" encoding="UTF-8" standalone="no"?>
<!-- Created with Inkscape (http://www.inkscape.org/) -->

<svg
   width="256"
   height="256"
   viewBox="0 0 256 256.00002"
   version="1.1"
   id="svg1"
   inkscape:version="1.4.2 (ebf0e940d0, 2025-05-08)"
   sodipodi:docname="preferences-desktop-keyboard.svg"
   xmlns:inkscape="http://www.inkscape.org/namespaces/inkscape"
   xmlns:sodipodi="http://sodipodi.sourceforge.net/DTD/sodipodi-0.dtd"
   xmlns:xlink="http://www.w3.org/1999/xlink"
   xmlns="http://www.w3.org/2000/svg"
   xmlns:svg="http://www.w3.org/2000/svg">
  <sodipodi:namedview
     id="namedview1"
     pagecolor="#ffffff"
     bordercolor="#000000"
     borderopacity="0.25"
     inkscape:showpageshadow="2"
     inkscape:pageopacity="0.0"
     inkscape:pagecheckerboard="0"
     inkscape:deskcolor="#d1d1d1"
     inkscape:document-units="px"
     inkscape:zoom="3.1054688"
     inkscape:cx="128"
     inkscape:cy="128"
     inkscape:window-width="1920"
     inkscape:window-height="1010"
     inkscape:window-x="0"
     inkscape:window-y="0"
     inkscape:window-maximized="1"
     inkscape:current-layer="svg1"
     showguides="false" />
  <defs
     id="defs1">
    <linearGradient
       inkscape:collect="always"
       xlink:href="#4852"
       id="linearGradient4"
       x1="16"
       y1="30"
       x2="16"
       y2="2"
       gradientUnits="userSpaceOnUse"
       gradientTransform="scale(8)" />
    <linearGradient
       inkscape:collect="always"
       id="4852">
      <stop
         style="stop-color:#272727;stop-opacity:1;"
         offset="0"
         id="stop14555" />
      <stop
         style="stop-color:#5d5d5d;stop-opacity:1;"
         offset="1"
         id="stop14557" />
    </linearGradient>
  </defs>
  <rect
     style="opacity:0.2;fill:#000000;stroke-width:14"
     id="rect1"
     width="224"
     height="224"
     x="16"
     y="17"
     ry="48" />
  <rect
     style="fill:url(#linearGradient4);stroke-width:8"
     id="rect2"
     width="224"
     height="224"
     x="16"
     y="16"
     ry="48" />
  <path
     id="path1728"
     style="fill:#a1a1a1;fill-opacity:1;stroke-width:8;stroke-linecap:round;stroke-linejoin:round"
     d="M 47.999999,63.999998 C 43.568004,63.999998 40,67.568008 40,71.999999 v 16 c 0,4.431993 3.568004,8 7.999999,8 h 15.999999 c 4.431994,0 8.000001,-3.568007 8.000001,-8 v -16 c 0,-4.431991 -3.568007,-8.000001 -8.000001,-8.000001 z m 48,0 c -4.431993,0 -8,3.56801 -8,8.000001 v 16 c 0,4.431993 3.568007,8 8,8 H 112 c 4.432,0 8,-3.568007 8,-8 v -16 c 0,-4.431991 -3.568,-8.000001 -8,-8.000001 z m 48.000001,0 c -4.432,0 -8,3.56801 -8,8.000001 v 16 c 0,4.431993 3.568,8 8,8 h 16 c 4.43199,0 8,-3.568007 8,-8 v -16 c 0,-4.431991 -3.56801,-8.000001 -8,-8.000001 z m 48,0 c -4.432,0 -8,3.56801 -8,8.000001 v 16 c 0,4.431993 3.568,8 8,8 h 16.00001 c 4.43199,0 7.99998,-3.568007 7.99998,-8 v -16 c 0,-4.431991 -3.56799,-8.000001 -7.99998,-8.000001 z M 47.999999,112 C 43.568004,112 40,115.568 40,120 v 16 c 0,4.43199 3.568004,8 7.999999,8 h 15.999999 c 4.431994,0 8.000001,-3.56801 8.000001,-8 v -16 c 0,-4.432 -3.568007,-8 -8.000001,-8 z m 48,0 c -4.431993,0 -8,3.568 -8,8 v 16 c 0,4.43199 3.568007,8 8,8 H 112 c 4.432,0 8,-3.56801 8,-8 v -16 c 0,-4.432 -3.568,-8 -8,-8 z M 144,112 c -4.432,0 -8,3.568 -8,8 v 16 c 0,4.43199 3.568,8 8,8 h 16 c 4.43199,0 8,-3.56801 8,-8 v -16 c 0,-4.432 -3.56801,-8 -8,-8 z m 48,0 c -4.432,0 -8,3.568 -8,8 v 16 c 0,4.43199 3.568,8 8,8 h 16.00001 c 4.43199,0 7.99998,-3.56801 7.99998,-8 v -16 c 0,-4.432 -3.56799,-8 -7.99998,-8 z M 80,160 c -4.432001,0 -8.000001,3.568 -8.000001,8 v 16 c 0,4.43199 3.568,8 8.000001,8 h 96 c 4.43199,0 8,-3.56801 8,-8 v -16 c 0,-4.432 -3.56801,-8 -8,-8 z" />
</svg>
