<?xml version="1.0" encoding="UTF-8" standalone="no"?>
<!-- Created with Inkscape (http://www.inkscape.org/) -->

<svg
   width="256"
   height="256"
   viewBox="0 0 256 256.00002"
   version="1.1"
   id="svg1"
   inkscape:version="1.4.2 (ebf0e940d0, 2025-05-08)"
   sodipodi:docname="preferences-system-login.svg"
   xmlns:inkscape="http://www.inkscape.org/namespaces/inkscape"
   xmlns:sodipodi="http://sodipodi.sourceforge.net/DTD/sodipodi-0.dtd"
   xmlns:xlink="http://www.w3.org/1999/xlink"
   xmlns="http://www.w3.org/2000/svg"
   xmlns:svg="http://www.w3.org/2000/svg">
  <sodipodi:namedview
     id="namedview1"
     pagecolor="#ffffff"
     bordercolor="#000000"
     borderopacity="0.25"
     inkscape:showpageshadow="2"
     inkscape:pageopacity="0.0"
     inkscape:pagecheckerboard="0"
     inkscape:deskcolor="#d1d1d1"
     inkscape:document-units="px"
     inkscape:zoom="3.109375"
     inkscape:cx="127.8392"
     inkscape:cy="128"
     inkscape:window-width="1920"
     inkscape:window-height="1011"
     inkscape:window-x="0"
     inkscape:window-y="0"
     inkscape:window-maximized="1"
     inkscape:current-layer="svg1" />
  <defs
     id="defs1">
    <linearGradient
       inkscape:collect="always"
       xlink:href="#4852"
       id="linearGradient4"
       x1="16"
       y1="30"
       x2="16"
       y2="2"
       gradientUnits="userSpaceOnUse"
       gradientTransform="scale(8)" />
    <linearGradient
       inkscape:collect="always"
       id="4852">
      <stop
         style="stop-color:#272727;stop-opacity:1;"
         offset="0"
         id="stop14555" />
      <stop
         style="stop-color:#5d5d5d;stop-opacity:1;"
         offset="1"
         id="stop14557" />
    </linearGradient>
  </defs>
  <rect
     style="opacity:0.2;fill:#000000;stroke-width:14"
     id="rect1"
     width="224"
     height="224"
     x="16"
     y="17"
     ry="48" />
  <rect
     style="fill:url(#linearGradient4);stroke-width:8"
     id="rect2"
     width="224"
     height="224"
     x="16"
     y="16"
     ry="48" />
  <rect
     style="opacity:0.6;fill:#ffffff;fill-opacity:1;stroke-width:32;stroke-linecap:round;stroke-linejoin:round"
     id="rect4572"
     width="176"
     height="128"
     x="40"
     y="64"
     ry="16" />
  <rect
     style="fill:#ffffff;stroke-width:30.9838;stroke-linecap:round;stroke-linejoin:round"
     id="rect2768"
     width="144"
     height="40"
     x="56"
     y="120"
     ry="8" />
  <rect
     style="fill:#ffffff;stroke-width:25.2982;stroke-linecap:round;stroke-linejoin:round"
     id="rect2770"
     width="80"
     height="8"
     x="56"
     y="88" />
  <path
     id="path3639"
     style="fill:#4d4d4d;fill-opacity:1;stroke-width:8;stroke-linecap:round;stroke-linejoin:round"
     d="m 76,132 c -4.418272,0 -8,3.58173 -8,8 0,4.41827 3.581728,8 8,8 4.418272,0 8,-3.58173 8,-8 0,-4.41827 -3.581728,-8 -8,-8 z m 24,0 c -4.418272,0 -8,3.58173 -8,8 0,4.41827 3.581728,8 8,8 4.41828,0 8,-3.58173 8,-8 0,-4.41827 -3.58172,-8 -8,-8 z m 24,0 c -4.41828,0 -8,3.58173 -8,8 0,4.41827 3.58172,8 8,8 4.41827,0 8,-3.58173 8,-8 0,-4.41827 -3.58173,-8 -8,-8 z m 24,0 c -4.41827,0 -8,3.58173 -8,8 0,4.41827 3.58173,8 8,8 4.41828,0 8,-3.58173 8,-8 0,-4.41827 -3.58172,-8 -8,-8 z m 24,0 c -4.41828,0 -8,3.58173 -8,8 0,4.41827 3.58172,8 8,8 4.41827,0 8,-3.58173 8,-8 0,-4.41827 -3.58173,-8 -8,-8 z" />
</svg>
