<?xml version="1.0" encoding="UTF-8" standalone="no"?>
<!-- Created with Inkscape (http://www.inkscape.org/) -->

<svg
   width="256"
   height="256"
   viewBox="0 0 256 256.00002"
   version="1.1"
   id="svg1"
   inkscape:version="1.4.2 (ebf0e940d0, 2025-05-08)"
   sodipodi:docname="preferences-desktop-color.svg"
   xmlns:inkscape="http://www.inkscape.org/namespaces/inkscape"
   xmlns:sodipodi="http://sodipodi.sourceforge.net/DTD/sodipodi-0.dtd"
   xmlns:xlink="http://www.w3.org/1999/xlink"
   xmlns="http://www.w3.org/2000/svg"
   xmlns:svg="http://www.w3.org/2000/svg">
  <sodipodi:namedview
     id="namedview1"
     pagecolor="#ffffff"
     bordercolor="#000000"
     borderopacity="0.25"
     inkscape:showpageshadow="2"
     inkscape:pageopacity="0.0"
     inkscape:pagecheckerboard="0"
     inkscape:deskcolor="#d1d1d1"
     inkscape:document-units="px"
     inkscape:zoom="3.1054688"
     inkscape:cx="128"
     inkscape:cy="128"
     inkscape:window-width="1920"
     inkscape:window-height="1010"
     inkscape:window-x="0"
     inkscape:window-y="0"
     inkscape:window-maximized="1"
     inkscape:current-layer="svg1" />
  <defs
     id="defs1">
    <linearGradient
       inkscape:collect="always"
       xlink:href="#4852"
       id="linearGradient4"
       x1="16"
       y1="30"
       x2="16"
       y2="2"
       gradientUnits="userSpaceOnUse"
       gradientTransform="scale(8)" />
    <linearGradient
       inkscape:collect="always"
       id="4852">
      <stop
         style="stop-color:#272727;stop-opacity:1;"
         offset="0"
         id="stop14555" />
      <stop
         style="stop-color:#5d5d5d;stop-opacity:1;"
         offset="1"
         id="stop14557" />
    </linearGradient>
    <radialGradient
       inkscape:collect="always"
       xlink:href="#linearGradient10051"
       id="radialGradient1174"
       cx="14.852401"
       cy="30.071783"
       fx="14.852401"
       fy="30.071783"
       r="14"
       gradientUnits="userSpaceOnUse"
       gradientTransform="matrix(-6.8571424,-6.857142,6.4649768,-6.4649768,134.27463,341.15388)" />
    <linearGradient
       inkscape:collect="always"
       id="linearGradient10051">
      <stop
         style="stop-color:#aa3ad4;stop-opacity:1"
         offset="0"
         id="stop10047" />
      <stop
         style="stop-color:#aa3ad4;stop-opacity:0"
         offset="1"
         id="stop10049" />
    </linearGradient>
    <radialGradient
       inkscape:collect="always"
       xlink:href="#linearGradient1603"
       id="radialGradient1208"
       gradientUnits="userSpaceOnUse"
       gradientTransform="matrix(6.8571424,-6.857142,-6.4649768,-6.4649768,121.72537,341.15388)"
       cx="14.852401"
       cy="30.071783"
       fx="14.852401"
       fy="30.071783"
       r="14" />
    <linearGradient
       inkscape:collect="always"
       id="linearGradient1603">
      <stop
         style="stop-color:#ff910c;stop-opacity:1;"
         offset="0"
         id="stop1599" />
      <stop
         style="stop-color:#ff910c;stop-opacity:0;"
         offset="1"
         id="stop1601" />
    </linearGradient>
    <radialGradient
       inkscape:collect="always"
       xlink:href="#linearGradient5569"
       id="radialGradient1243"
       gradientUnits="userSpaceOnUse"
       gradientTransform="matrix(6.8571424,6.857142,-6.4649768,6.4649768,121.72537,-85.153888)"
       cx="15.190269"
       cy="30.646524"
       fx="15.190269"
       fy="30.646524"
       r="14" />
    <linearGradient
       inkscape:collect="always"
       id="linearGradient5569">
      <stop
         style="stop-color:#f5cc24;stop-opacity:1;"
         offset="0"
         id="stop5565" />
      <stop
         style="stop-color:#f5cc24;stop-opacity:0.00045133"
         offset="1"
         id="stop5567" />
    </linearGradient>
    <radialGradient
       inkscape:collect="always"
       xlink:href="#linearGradient3954"
       id="radialGradient1278"
       gradientUnits="userSpaceOnUse"
       gradientTransform="matrix(-6.8571424,6.857142,6.4649768,6.4649768,134.27463,-85.153888)"
       cx="15.190269"
       cy="30.646524"
       fx="15.190269"
       fy="30.646524"
       r="14" />
    <linearGradient
       inkscape:collect="always"
       id="linearGradient3954">
      <stop
         style="stop-color:#24c2f5;stop-opacity:1;"
         offset="0"
         id="stop3950" />
      <stop
         style="stop-color:#24c2f5;stop-opacity:0;"
         offset="1"
         id="stop3952" />
    </linearGradient>
    <radialGradient
       inkscape:collect="always"
       xlink:href="#linearGradient7221"
       id="radialGradient1313"
       gradientUnits="userSpaceOnUse"
       gradientTransform="matrix(9.1428568,0,0,-9.1428568,-18.285704,274.28572)"
       cx="16"
       cy="28.250002"
       fx="16"
       fy="28.250002"
       r="14" />
    <linearGradient
       inkscape:collect="always"
       id="linearGradient7221">
      <stop
         style="stop-color:#f43434;stop-opacity:1;"
         offset="0"
         id="stop7217" />
      <stop
         style="stop-color:#f43434;stop-opacity:0;"
         offset="1"
         id="stop7219" />
    </linearGradient>
    <radialGradient
       inkscape:collect="always"
       xlink:href="#linearGradient15132"
       id="radialGradient1348"
       gradientUnits="userSpaceOnUse"
       gradientTransform="matrix(0,9.1428568,-9.1428568,0,274.28572,-18.285715)"
       cx="16"
       cy="28.250002"
       fx="16"
       fy="28.250002"
       r="14" />
    <linearGradient
       inkscape:collect="always"
       id="linearGradient15132">
      <stop
         style="stop-color:#f5e224;stop-opacity:1;"
         offset="0"
         id="stop15128" />
      <stop
         style="stop-color:#f5e224;stop-opacity:0;"
         offset="1"
         id="stop15130" />
    </linearGradient>
    <radialGradient
       inkscape:collect="always"
       xlink:href="#linearGradient12059"
       id="radialGradient991"
       cx="16"
       cy="28.250002"
       fx="16"
       fy="28.250002"
       r="14"
       gradientUnits="userSpaceOnUse"
       gradientTransform="matrix(9.1428568,0,0,9.1428568,-18.285704,-18.28571)" />
    <linearGradient
       inkscape:collect="always"
       id="linearGradient12059">
      <stop
         style="stop-color:#47c12a;stop-opacity:1;"
         offset="0"
         id="stop12055" />
      <stop
         style="stop-color:#47c12a;stop-opacity:0;"
         offset="1"
         id="stop12057" />
    </linearGradient>
  </defs>
  <rect
     style="opacity:0.2;fill:#000000;stroke-width:14"
     id="rect1"
     width="224"
     height="224"
     x="16"
     y="17"
     ry="48" />
  <rect
     style="fill:url(#linearGradient4);stroke-width:8"
     id="rect2"
     width="224"
     height="224"
     x="16"
     y="16"
     ry="48" />
  <path
     id="path416"
     style="fill:#ffffff;fill-opacity:1;stroke-width:10.1426;stroke-linecap:round;stroke-linejoin:round"
     d="m 128,48.000004 c 0,0 -47.563184,77.297036 -48,111.999996 0,26.50964 21.49035,48 48,48 26.50964,0 48,-21.49036 48,-48 C 175.9808,122.9315 128,48.000004 128,48.000004 Z m 31.125,104.656246 c 0.57451,2.40587 0.86814,4.87025 0.875,7.34375 0,17.67311 -14.32689,32 -32,32 -2.40671,-0.0328 -4.80207,-0.33656 -7.14062,-0.90624 19.46531,-3.68786 34.66505,-18.95586 38.26562,-38.43751 z"
     sodipodi:nodetypes="ccsccccccc" />
  <path
     id="path371"
     style="fill:url(#radialGradient1174);fill-opacity:1;stroke-width:8;stroke-linecap:round;stroke-linejoin:round"
     d="m 128,48 c 0,0 -47.563184,77.29704 -48,112 0,26.50964 21.49035,48 48,48 26.50964,0 48,-21.49036 48,-48 C 175.9808,122.9315 128,48 128,48 Z m 31.125,104.65625 c 0.57451,2.40587 0.86814,4.87025 0.875,7.34375 0,17.67311 -14.32689,32 -32,32 -2.40671,-0.0328 -4.80207,-0.33656 -7.14062,-0.90624 19.46531,-3.68786 34.66505,-18.95586 38.26562,-38.43751 z" />
  <path
     id="path1184"
     style="fill:url(#radialGradient1208);fill-opacity:1;stroke-width:8;stroke-linecap:round;stroke-linejoin:round"
     d="m 128,48 c 0,0 -47.563184,77.29704 -48,112 0,26.50964 21.49035,48 48,48 26.50964,0 48,-21.49036 48,-48 C 175.9808,122.9315 128,48 128,48 Z m 31.125,104.65625 c 0.57451,2.40587 0.86814,4.87025 0.875,7.34375 0,17.67311 -14.32689,32 -32,32 -2.40671,-0.0328 -4.80207,-0.33656 -7.14062,-0.90624 19.46531,-3.68786 34.66505,-18.95586 38.26562,-38.43751 z" />
  <path
     id="path1219"
     style="fill:url(#radialGradient1243);fill-opacity:1;stroke-width:8;stroke-linecap:round;stroke-linejoin:round"
     d="m 128,48 c 0,0 -47.563184,77.29704 -48,112 0,26.50964 21.49035,48 48,48 26.50964,0 48,-21.49036 48,-48 C 175.9808,122.9315 128,48 128,48 Z m 31.125,104.65625 c 0.57451,2.40587 0.86814,4.87025 0.875,7.34375 0,17.67311 -14.32689,32 -32,32 -2.40671,-0.0328 -4.80207,-0.33656 -7.14062,-0.90624 19.46531,-3.68786 34.66505,-18.95586 38.26562,-38.43751 z" />
  <path
     id="path1254"
     style="fill:url(#radialGradient1278);fill-opacity:1;stroke-width:8;stroke-linecap:round;stroke-linejoin:round"
     d="m 128,48 c 0,0 -47.563184,77.29704 -48,112 0,26.50964 21.49035,48 48,48 26.50964,0 48,-21.49036 48,-48 C 175.9808,122.9315 128,48 128,48 Z m 31.125,104.65625 c 0.57451,2.40587 0.86814,4.87025 0.875,7.34375 0,17.67311 -14.32689,32 -32,32 -2.40671,-0.0328 -4.80207,-0.33656 -7.14062,-0.90624 19.46531,-3.68786 34.66505,-18.95586 38.26562,-38.43751 z" />
  <path
     id="path1289"
     style="fill:url(#radialGradient1313);fill-opacity:1;stroke-width:8;stroke-linecap:round;stroke-linejoin:round"
     d="m 128,48 c 0,0 -47.563184,77.29704 -48,112 0,26.50964 21.49035,48 48,48 26.50964,0 48,-21.49036 48,-48 C 175.9808,122.9315 128,48 128,48 Z m 31.125,104.65625 c 0.57451,2.40587 0.86814,4.87025 0.875,7.34375 0,17.67311 -14.32689,32 -32,32 -2.40671,-0.0328 -4.80207,-0.33656 -7.14062,-0.90624 19.46531,-3.68786 34.66505,-18.95586 38.26562,-38.43751 z" />
  <path
     id="path1324"
     style="fill:url(#radialGradient1348);fill-opacity:1;stroke-width:8;stroke-linecap:round;stroke-linejoin:round"
     d="m 128,48 c 0,0 -47.563184,77.29704 -48,112 0,26.50964 21.49035,48 48,48 26.50964,0 48,-21.49036 48,-48 C 175.9808,122.9315 128,48 128,48 Z m 31.125,104.65625 c 0.57451,2.40587 0.86814,4.87025 0.875,7.34375 0,17.67311 -14.32689,32 -32,32 -2.40671,-0.0328 -4.80207,-0.33656 -7.14062,-0.90624 19.46531,-3.68786 34.66505,-18.95586 38.26562,-38.43751 z" />
  <path
     id="path404"
     style="fill:url(#radialGradient991);fill-opacity:1;stroke-width:8;stroke-linecap:round;stroke-linejoin:round"
     d="m 128,48 c 0,0 -47.563184,77.29704 -48,112 0,26.50964 21.49035,48 48,48 26.50964,0 48,-21.49036 48,-48 C 175.9808,122.9315 128,48 128,48 Z m 31.125,104.65625 c 0.57451,2.40587 0.86814,4.87025 0.875,7.34375 0,17.67311 -14.32689,32 -32,32 -2.40671,-0.0328 -4.80207,-0.33656 -7.14062,-0.90624 19.46531,-3.68786 34.66505,-18.95586 38.26562,-38.43751 z" />
</svg>
