<?xml version="1.0" encoding="UTF-8" standalone="no"?>
<!-- Created with Inkscape (http://www.inkscape.org/) -->

<svg
   width="256"
   height="256"
   viewBox="0 0 256 256.00002"
   version="1.1"
   id="svg1"
   inkscape:version="1.4.2 (ebf0e940d0, 2025-05-08)"
   sodipodi:docname="preferences-desktop-touchscreen.svg"
   xmlns:inkscape="http://www.inkscape.org/namespaces/inkscape"
   xmlns:sodipodi="http://sodipodi.sourceforge.net/DTD/sodipodi-0.dtd"
   xmlns:xlink="http://www.w3.org/1999/xlink"
   xmlns="http://www.w3.org/2000/svg"
   xmlns:svg="http://www.w3.org/2000/svg">
  <sodipodi:namedview
     id="namedview1"
     pagecolor="#ffffff"
     bordercolor="#000000"
     borderopacity="0.25"
     inkscape:showpageshadow="2"
     inkscape:pageopacity="0.0"
     inkscape:pagecheckerboard="0"
     inkscape:deskcolor="#d1d1d1"
     inkscape:document-units="px"
     inkscape:zoom="3.109375"
     inkscape:cx="127.8392"
     inkscape:cy="128"
     inkscape:window-width="1920"
     inkscape:window-height="1011"
     inkscape:window-x="0"
     inkscape:window-y="0"
     inkscape:window-maximized="1"
     inkscape:current-layer="svg1" />
  <defs
     id="defs1">
    <linearGradient
       inkscape:collect="always"
       xlink:href="#4852"
       id="linearGradient4"
       x1="16"
       y1="30"
       x2="16"
       y2="2"
       gradientUnits="userSpaceOnUse"
       gradientTransform="matrix(7.9999998,0,0,7.9999998,1.1117352e-6,1.1117352e-6)" />
    <linearGradient
       inkscape:collect="always"
       id="4852">
      <stop
         style="stop-color:#272727;stop-opacity:1;"
         offset="0"
         id="stop14555" />
      <stop
         style="stop-color:#5d5d5d;stop-opacity:1;"
         offset="1"
         id="stop14557" />
    </linearGradient>
  </defs>
  <rect
     style="opacity:0.2;fill:#000000;stroke-width:14"
     id="rect1"
     width="224"
     height="224"
     x="16"
     y="17"
     ry="47.999996" />
  <rect
     style="fill:url(#linearGradient4);stroke-width:8.00001"
     id="rect2"
     width="224"
     height="224"
     x="16"
     y="16"
     ry="47.999996" />
  <circle
     style="opacity:0.4;fill:#f9f9f9;stroke-width:8.00001"
     id="path1"
     cx="120"
     cy="88"
     r="23.999998" />
  <circle
     style="opacity:0.4;fill:#f9f9f9;stroke-width:8.00001"
     id="path2"
     cx="120"
     cy="88"
     r="15.999999" />
  <path
     id="rect701"
     style="fill:#ffffff;stroke-width:8.00001;stroke-linecap:round;stroke-linejoin:round"
     d="m 119.99999,79.999998 c -4.43199,0 -8,3.568007 -8,7.999999 v 62.078123 l -17.375,-17.375 c -6.267785,-6.26779 -16.357209,-6.26779 -22.624992,0 C 92.283046,155.14571 108.97185,192 119.99999,192 h 48 l 7.99999,-56 c 0,-4.43199 -3.56801,-8.00001 -7.99999,-8.00001 -4.43199,0 -8.00001,3.56802 -8.00001,8.00001 v -8.00001 c 0,-4.43198 -3.56801,-7.99999 -7.99999,-7.99999 -4.43199,0 -8,3.56801 -8,7.99999 V 120 c 0,-4.43199 -3.56802,-8 -8,-8 -4.43199,0 -8,3.56801 -8,8 V 87.999997 c 0,-4.431992 -3.56802,-7.999999 -8,-7.999999 z"
     sodipodi:nodetypes="sscsccccscsscsscss" />
</svg>
