<?xml version="1.0" encoding="UTF-8" standalone="no"?>
<!-- Created with Inkscape (http://www.inkscape.org/) -->

<svg
   width="256"
   height="256"
   viewBox="0 0 256 256.00002"
   version="1.1"
   id="svg1"
   inkscape:version="1.4.2 (ebf0e940d0, 2025-05-08)"
   sodipodi:docname="qv4l2.svg"
   xmlns:inkscape="http://www.inkscape.org/namespaces/inkscape"
   xmlns:sodipodi="http://sodipodi.sourceforge.net/DTD/sodipodi-0.dtd"
   xmlns:xlink="http://www.w3.org/1999/xlink"
   xmlns="http://www.w3.org/2000/svg"
   xmlns:svg="http://www.w3.org/2000/svg">
  <sodipodi:namedview
     id="namedview1"
     pagecolor="#ffffff"
     bordercolor="#000000"
     borderopacity="0.25"
     inkscape:showpageshadow="2"
     inkscape:pageopacity="0.0"
     inkscape:pagecheckerboard="0"
     inkscape:deskcolor="#d1d1d1"
     inkscape:document-units="px"
     inkscape:zoom="3.15625"
     inkscape:cx="127.84158"
     inkscape:cy="128"
     inkscape:window-width="1920"
     inkscape:window-height="1011"
     inkscape:window-x="0"
     inkscape:window-y="0"
     inkscape:window-maximized="1"
     inkscape:current-layer="svg1" />
  <defs
     id="defs1">
    <linearGradient
       inkscape:collect="always"
       xlink:href="#4852"
       id="linearGradient4"
       x1="16"
       y1="30"
       x2="16"
       y2="2"
       gradientUnits="userSpaceOnUse"
       gradientTransform="scale(8)" />
    <linearGradient
       inkscape:collect="always"
       id="4852">
      <stop
         style="stop-color:#272727;stop-opacity:1;"
         offset="0"
         id="stop14555" />
      <stop
         style="stop-color:#5d5d5d;stop-opacity:1;"
         offset="1"
         id="stop14557" />
    </linearGradient>
    <linearGradient
       inkscape:collect="always"
       xlink:href="#linearGradient1625"
       id="linearGradient6"
       x1="16"
       y1="29.5"
       x2="16"
       y2="1.5"
       gradientUnits="userSpaceOnUse"
       gradientTransform="matrix(8,0,0,8,0,4)" />
    <linearGradient
       inkscape:collect="always"
       id="linearGradient1625">
      <stop
         style="stop-color:#13a5c5;stop-opacity:1;"
         offset="0"
         id="stop1621" />
      <stop
         style="stop-color:#b1f6cb;stop-opacity:1;"
         offset="1"
         id="stop1623" />
    </linearGradient>
  </defs>
  <rect
     style="opacity:0.2;fill:#000000;stroke-width:14"
     id="rect1"
     width="224"
     height="224"
     x="16"
     y="17"
     ry="48" />
  <rect
     style="fill:url(#linearGradient4);stroke-width:8"
     id="rect2"
     width="224"
     height="224"
     x="16"
     y="16"
     ry="48" />
  <path
     id="path669"
     style="fill:url(#linearGradient6);stroke-width:39.6192;stroke-linecap:round;stroke-linejoin:round"
     d="m 112,60 c -8.86398,0 -10.64111,3.961656 -16,12 L 88,84 H 68 c -11.045696,0 -20,8.954304 -20,20 v 72 c 0,11.0457 8.954304,20 20,20 h 120 c 11.0457,0 20,-8.9543 20,-20 v -72 c 0,-11.045696 -8.9543,-20 -20,-20 h -20 l -8,-12 c -4.91684,-7.375272 -7.13602,-12 -16,-12 z m 16,40 c 22.09139,0 40,17.90861 40,40 0,22.09139 -17.90861,40 -40,40 -22.09139,0 -40,-17.90861 -40,-40 0,-22.09139 17.90861,-40 40,-40 z m 56,0 c 4.41828,0 8,3.58172 8,8 0,4.41828 -3.58172,8 -8,8 -4.41828,0 -8,-3.58172 -8,-8 0,-4.41828 3.58172,-8 8,-8 z m -56,8 c -17.67306,0 -32,14.32694 -32,32 0,17.67308 14.32694,32 32,32 17.67308,0 32,-14.32692 32,-32 0,-17.67306 -14.32692,-32 -32,-32 z" />
</svg>
