<?xml version="1.0" encoding="UTF-8" standalone="no"?>
<!-- Created with Inkscape (http://www.inkscape.org/) -->

<svg
   width="256"
   height="256"
   viewBox="0 0 256 256.00002"
   version="1.1"
   id="svg1"
   inkscape:version="1.4.2 (ebf0e940d0, 2025-05-08)"
   sodipodi:docname="utilities-log-viewer.svg"
   xmlns:inkscape="http://www.inkscape.org/namespaces/inkscape"
   xmlns:sodipodi="http://sodipodi.sourceforge.net/DTD/sodipodi-0.dtd"
   xmlns:xlink="http://www.w3.org/1999/xlink"
   xmlns="http://www.w3.org/2000/svg"
   xmlns:svg="http://www.w3.org/2000/svg">
  <sodipodi:namedview
     id="namedview1"
     pagecolor="#ffffff"
     bordercolor="#000000"
     borderopacity="0.25"
     inkscape:showpageshadow="2"
     inkscape:pageopacity="0.0"
     inkscape:pagecheckerboard="0"
     inkscape:deskcolor="#d1d1d1"
     inkscape:document-units="px"
     inkscape:zoom="3.0703125"
     inkscape:cx="127.83715"
     inkscape:cy="128"
     inkscape:window-width="1920"
     inkscape:window-height="1011"
     inkscape:window-x="0"
     inkscape:window-y="0"
     inkscape:window-maximized="1"
     inkscape:current-layer="svg1" />
  <defs
     id="defs1">
    <linearGradient
       inkscape:collect="always"
       xlink:href="#4852"
       id="linearGradient4"
       x1="16"
       y1="30"
       x2="16"
       y2="2"
       gradientUnits="userSpaceOnUse"
       gradientTransform="scale(8)" />
    <linearGradient
       inkscape:collect="always"
       id="linearGradient1217">
      <stop
         style="stop-color:#96a3ad;stop-opacity:1;"
         offset="0"
         id="stop1213" />
      <stop
         style="stop-color:#c4c8cd;stop-opacity:1;"
         offset="1"
         id="stop1215" />
    </linearGradient>
    <linearGradient
       inkscape:collect="always"
       id="4852">
      <stop
         style="stop-color:#272727;stop-opacity:1;"
         offset="0"
         id="stop14555" />
      <stop
         style="stop-color:#5d5d5d;stop-opacity:1;"
         offset="1"
         id="stop14557" />
    </linearGradient>
    <linearGradient
       inkscape:collect="always"
       xlink:href="#linearGradient1217"
       id="linearGradient5"
       x1="32"
       y1="60"
       x2="32"
       y2="4"
       gradientUnits="userSpaceOnUse" />
    <linearGradient
       inkscape:collect="always"
       xlink:href="#linearGradient1217"
       id="linearGradient6"
       gradientUnits="userSpaceOnUse"
       x1="32"
       y1="60"
       x2="32"
       y2="4" />
    <linearGradient
       inkscape:collect="always"
       xlink:href="#linearGradient1217"
       id="linearGradient7"
       gradientUnits="userSpaceOnUse"
       x1="32"
       y1="60"
       x2="32"
       y2="4" />
  </defs>
  <rect
     style="opacity:0.2;fill:#000000;stroke-width:14"
     id="rect1"
     width="224"
     height="224"
     x="16"
     y="17"
     ry="48" />
  <rect
     style="fill:url(#linearGradient4);stroke-width:8"
     id="rect2"
     width="224"
     height="224"
     x="16"
     y="16"
     ry="48" />
  <g
     id="g3"
     style="fill:url(#linearGradient5)"
     transform="scale(4)">
    <path
       id="rect291"
       style="opacity:0.5;fill:url(#linearGradient6);stroke-width:2;stroke-linecap:round"
       d="m 13,17 c -0.553999,0 -1,0.446001 -1,1 0,0.553999 0.446001,1 1,1 h 38 c 0.554,0 1,-0.446001 1,-1 0,-0.553999 -0.446,-1 -1,-1 z m 0,8 c -0.553999,0 -1,0.446 -1,1 0,0.554 0.446001,1 1,1 h 38 c 0.554,0 1,-0.446 1,-1 0,-0.554 -0.446,-1 -1,-1 z m 0,8 c -0.553997,0 -1,0.446 -1,1 0,0.554 0.446003,1 1,1 h 38 c 0.554,0 1,-0.446 1,-1 0,-0.554 -0.446,-1 -1,-1 z m 0,8 c -0.553997,0 -1,0.446 -1,1 0,0.554 0.446003,1 1,1 h 18 c 0.554,0 1,-0.446 1,-1 0,-0.554 -0.446,-1 -1,-1 z"
       sodipodi:nodetypes="ssssssssssssssssssssssssssss" />
    <path
       id="path557"
       style="fill:url(#linearGradient7);fill-opacity:1;stroke-width:2.2;stroke-linecap:round"
       d="m 34,22 a 11,11 0 0 0 -11,11 11,11 0 0 0 11,11 11,11 0 0 0 7.039062,-2.546875 l 7.810547,7.810547 c 0.391737,0.391737 1.022326,0.391737 1.414063,0 0.391737,-0.391737 0.391737,-1.022326 0,-1.414063 L 42.453125,40.039062 A 11,11 0 0 0 45,33 11,11 0 0 0 34,22 Z m 0,2 a 9,9 0 0 1 9,9 9,9 0 0 1 -2.636719,6.363281 A 9,9 0 0 1 34,42 9,9 0 0 1 25,33 9,9 0 0 1 34,24 Z" />
  </g>
</svg>
