<?xml version="1.0" encoding="UTF-8" standalone="no"?>
<!-- Created with Inkscape (http://www.inkscape.org/) -->

<svg
   width="256"
   height="256"
   viewBox="0 0 256 256.00002"
   version="1.1"
   id="svg1"
   inkscape:version="1.4.2 (ebf0e940d0, 2025-05-08)"
   sodipodi:docname="warpinator.svg"
   xmlns:inkscape="http://www.inkscape.org/namespaces/inkscape"
   xmlns:sodipodi="http://sodipodi.sourceforge.net/DTD/sodipodi-0.dtd"
   xmlns:xlink="http://www.w3.org/1999/xlink"
   xmlns="http://www.w3.org/2000/svg"
   xmlns:svg="http://www.w3.org/2000/svg">
  <sodipodi:namedview
     id="namedview1"
     pagecolor="#ffffff"
     bordercolor="#000000"
     borderopacity="0.25"
     inkscape:showpageshadow="2"
     inkscape:pageopacity="0.0"
     inkscape:pagecheckerboard="0"
     inkscape:deskcolor="#d1d1d1"
     inkscape:document-units="px"
     inkscape:zoom="3.109375"
     inkscape:cx="127.8392"
     inkscape:cy="128"
     inkscape:window-width="1920"
     inkscape:window-height="1011"
     inkscape:window-x="0"
     inkscape:window-y="0"
     inkscape:window-maximized="1"
     inkscape:current-layer="svg1" />
  <defs
     id="defs1">
    <linearGradient
       inkscape:collect="always"
       xlink:href="#4852"
       id="linearGradient4"
       x1="16"
       y1="30"
       x2="16"
       y2="2"
       gradientUnits="userSpaceOnUse"
       gradientTransform="scale(8)" />
    <linearGradient
       inkscape:collect="always"
       id="4852">
      <stop
         style="stop-color:#272727;stop-opacity:1;"
         offset="0"
         id="stop14555" />
      <stop
         style="stop-color:#5d5d5d;stop-opacity:1;"
         offset="1"
         id="stop14557" />
    </linearGradient>
    <linearGradient
       inkscape:collect="always"
       id="linearGradient1141">
      <stop
         style="stop-color:#795bca;stop-opacity:1;"
         offset="0"
         id="stop1137" />
      <stop
         style="stop-color:#a088ee;stop-opacity:1;"
         offset="1"
         id="stop1139" />
    </linearGradient>
    <linearGradient
       inkscape:collect="always"
       xlink:href="#linearGradient1141"
       id="linearGradient2"
       x1="16"
       y1="30"
       x2="16"
       y2="2"
       gradientUnits="userSpaceOnUse"
       gradientTransform="scale(8)" />
  </defs>
  <rect
     style="opacity:0.2;fill:#000000;stroke-width:14"
     id="rect1"
     width="224"
     height="224"
     x="16"
     y="17"
     ry="48" />
  <rect
     style="fill:url(#linearGradient4);stroke-width:8"
     id="rect2"
     width="224"
     height="224"
     x="16"
     y="16"
     ry="48" />
  <path
     d="m 192.00312,56.000032 c -8.83654,0 -15.99999,7.163448 -15.99999,16 0.003,1.63304 0.25584,3.256008 0.75,4.812504 l -27.46875,30.125004 c -4.16542,-1.91964 -8.69481,-2.92144 -13.28125,-2.93751 -17.26011,0.008 -31.4041,13.70227 -31.96875,30.95313 l -38.828124,5.53125 c -2.164768,-2.75974 -5.476904,-4.3726 -8.984376,-4.375 -6.312696,0.004 -11.426808,5.1248 -11.421876,11.43749 0.0038,6.3066 5.115276,11.41819 11.421876,11.42188 4.659976,-0.003 8.85172,-2.83411 10.593752,-7.15625 l 38.906248,-5.5625 c 4.3918,12.9886 16.57025,21.73598 30.28125,21.75 17.67311,0 32,-14.32689 32,-32 -0.003,-6.44684 -1.95227,-12.74259 -5.59375,-18.06249 l 27.4375,-30.10938 c 0.71408,0.10584 1.43444,0.16328 2.15624,0.17184 8.83656,0 16,-7.163448 16,-16 0,-8.836552 -7.16344,-16 -16,-16 z m -91.99999,8 c -6.627418,0 -12.000002,5.372584 -12.000002,12 0,6.627416 5.372584,12 12.000002,12 6.62741,0 12,-5.372584 12,-12 0,-6.627416 -5.37259,-12 -12,-12 z m 91.99999,0 c 4.41828,0 8,3.58172 8,8 0,4.41828 -3.58172,8 -8,8 -4.41828,0 -8,-3.58172 -8,-8 0,-4.41828 3.58172,-8 8,-8 z m -81.12499,22.171872 -5.92187,4.359376 3.96874,5.67188 5.92188,-4.375 z m 5.92187,8.468752 -5.90625,4.375 5.20313,7.453124 5.92187,-4.375 z m 19.20313,25.359374 c 8.83655,0 16,7.16345 16,16 0,8.83655 -7.16345,16 -16,16 -8.83655,0 -16,-7.16345 -16,-16 0,-8.83655 7.16345,-16 16,-16 z m -79.78125,21.82813 c 3.1594,-0.002 5.721216,2.55934 5.718744,5.71874 0.0024,3.1594 -2.559344,5.72123 -5.718744,5.71876 -3.153296,-0.006 -5.7056,-2.56545 -5.703128,-5.71876 -0.0024,-3.15329 2.549832,-5.71258 5.703128,-5.71874 z m 107.51562,15 -5.57812,5.57812 7.20312,7.23438 5.60938,-5.60938 z m 9.82812,9.8125 -5.59374,5.59375 8.35938,8.34375 5.57812,-5.57813 z m -51.62499,0.85937 -4.98437,12.45313 7.15624,2.5 4.96876,-12.4375 z m 68.06249,8.5 c -7.73198,0 -13.99999,6.26802 -13.99999,14.00001 0,7.73198 6.26801,14 13.99999,14 7.732,0 14,-6.26802 14,-14 0,-7.73199 -6.268,-14.00001 -14,-14.00001 z m -73.99999,8.00001 c -6.62742,0 -12,5.37258 -12,12 0,6.6274 5.37258,12 12,12 6.62741,0 12,-5.3726 12,-12 0,-6.62742 -5.37259,-12 -12,-12 z"
     style="fill:url(#linearGradient2);stroke-width:8"
     id="path2992" />
</svg>
