<?xml version="1.0" encoding="UTF-8" standalone="no"?>
<!-- Created with Inkscape (http://www.inkscape.org/) -->

<svg
   width="256"
   height="256"
   viewBox="0 0 256 256.00002"
   version="1.1"
   id="svg1"
   inkscape:version="1.4.2 (ebf0e940d0, 2025-05-08)"
   sodipodi:docname="zanshin.svg"
   xmlns:inkscape="http://www.inkscape.org/namespaces/inkscape"
   xmlns:sodipodi="http://sodipodi.sourceforge.net/DTD/sodipodi-0.dtd"
   xmlns:xlink="http://www.w3.org/1999/xlink"
   xmlns="http://www.w3.org/2000/svg"
   xmlns:svg="http://www.w3.org/2000/svg">
  <sodipodi:namedview
     id="namedview1"
     pagecolor="#ffffff"
     bordercolor="#000000"
     borderopacity="0.25"
     inkscape:showpageshadow="2"
     inkscape:pageopacity="0.0"
     inkscape:pagecheckerboard="0"
     inkscape:deskcolor="#d1d1d1"
     inkscape:document-units="px"
     inkscape:zoom="3.15625"
     inkscape:cx="127.84158"
     inkscape:cy="128"
     inkscape:window-width="1920"
     inkscape:window-height="1011"
     inkscape:window-x="0"
     inkscape:window-y="0"
     inkscape:window-maximized="1"
     inkscape:current-layer="svg1" />
  <defs
     id="defs1">
    <linearGradient
       inkscape:collect="always"
       xlink:href="#4852"
       id="linearGradient4"
       x1="16"
       y1="30"
       x2="16"
       y2="2"
       gradientUnits="userSpaceOnUse"
       gradientTransform="scale(8)" />
    <linearGradient
       inkscape:collect="always"
       id="4852">
      <stop
         style="stop-color:#272727;stop-opacity:1;"
         offset="0"
         id="stop14555" />
      <stop
         style="stop-color:#5d5d5d;stop-opacity:1;"
         offset="1"
         id="stop14557" />
    </linearGradient>
    <linearGradient
       inkscape:collect="always"
       xlink:href="#linearGradient3"
       id="linearGradient14"
       x1="16"
       y1="26"
       x2="16"
       y2="18"
       gradientUnits="userSpaceOnUse"
       gradientTransform="matrix(8,0,0,8,0.0030512,0)" />
    <linearGradient
       id="linearGradient3"
       inkscape:collect="always">
      <stop
         style="stop-color:#c7c7c7;stop-opacity:1;"
         offset="0"
         id="stop4" />
      <stop
         style="stop-color:#e8e8e8;stop-opacity:1;"
         offset="1"
         id="stop5" />
    </linearGradient>
    <radialGradient
       inkscape:collect="always"
       xlink:href="#linearGradient2"
       id="radialGradient13"
       cx="16"
       cy="22"
       fx="16"
       fy="22"
       r="9.0957031"
       gradientTransform="matrix(8,0,0,3.5181442,0.0030512,98.600824)"
       gradientUnits="userSpaceOnUse" />
    <linearGradient
       id="linearGradient2"
       inkscape:collect="always">
      <stop
         style="stop-color:#1b4a75;stop-opacity:1;"
         offset="0"
         id="stop2" />
      <stop
         style="stop-color:#363636;stop-opacity:1;"
         offset="1"
         id="stop3" />
    </linearGradient>
    <linearGradient
       inkscape:collect="always"
       xlink:href="#linearGradient7"
       id="linearGradient11"
       x1="16"
       y1="6"
       x2="16"
       y2="25"
       gradientUnits="userSpaceOnUse" />
    <linearGradient
       id="linearGradient7"
       inkscape:collect="always">
      <stop
         style="stop-color:#4c74c3;stop-opacity:1;"
         offset="0"
         id="stop7" />
      <stop
         style="stop-color:#2894c2;stop-opacity:1"
         offset="1"
         id="stop8" />
    </linearGradient>
    <linearGradient
       inkscape:collect="always"
       xlink:href="#linearGradient7"
       id="linearGradient1"
       gradientUnits="userSpaceOnUse"
       x1="16"
       y1="6"
       x2="16"
       y2="25" />
    <linearGradient
       inkscape:collect="always"
       xlink:href="#linearGradient7"
       id="linearGradient5"
       gradientUnits="userSpaceOnUse"
       x1="16"
       y1="6"
       x2="16"
       y2="25" />
    <linearGradient
       inkscape:collect="always"
       xlink:href="#linearGradient7"
       id="linearGradient6"
       gradientUnits="userSpaceOnUse"
       x1="16"
       y1="6"
       x2="16"
       y2="25" />
  </defs>
  <rect
     style="opacity:0.2;fill:#000000;stroke-width:14"
     id="rect1"
     width="224"
     height="224"
     x="16"
     y="17"
     ry="48" />
  <rect
     style="fill:url(#linearGradient4);stroke-width:8"
     id="rect2"
     width="224"
     height="224"
     x="16"
     y="16"
     ry="48" />
  <path
     style="baseline-shift:baseline;display:inline;overflow:visible;vector-effect:none;fill:url(#linearGradient14);stroke:none;stroke-width:8;stroke-linecap:round;stroke-linejoin:round;enable-background:accumulate;stop-color:#000000"
     d="m 80.003048,144 h 96.000002 c 8.86399,0 12.03591,8.07181 15.99999,16 l 16,32 c 3.9641,7.9282 -7.136,16 -16,16 H 64.003048 c -8.864,0 -19.9641,-8.0718 -16,-16 l 16,-32 c 3.964104,-7.92819 7.136,-16 16,-16 z"
     id="path1" />
  <path
     style="baseline-shift:baseline;display:inline;overflow:visible;vector-effect:none;fill:url(#radialGradient13);stroke-width:8;stroke-linecap:round;stroke-linejoin:round;enable-background:accumulate;stop-color:#000000"
     d="m 80.003048,152 h 96.000002 c 2.00365,0 2.12877,0.19584 3.57813,2.01562 1.44935,1.81979 3.1796,5.39047 5.26562,9.56251 l 15.92188,31.82811 c -0.0752,0.1856 -0.40888,0.8171 -1.26564,1.57814 -1.79828,1.59734 -5.49632,3.01562 -7.5,3.01562 H 64.003048 c -2.003656,0 -5.701704,-1.41828 -7.5,-3.01562 -0.856768,-0.76104 -1.1906,-1.39258 -1.265624,-1.57814 l 15.92188,-31.82811 c 2.086024,-4.17204 3.816264,-7.74272 5.265624,-9.56251 C 77.874288,152.19585 77.999392,152 80.003048,152 Z"
     id="path2"
     sodipodi:nodetypes="sssccssssccss" />
  <g
     id="g2"
     style="fill:url(#linearGradient11)"
     transform="matrix(8,0,0,8,0.0030512,0)">
    <path
       id="path398"
       style="opacity:0.8;fill:url(#linearGradient1);stroke-width:4;stroke-linecap:round;stroke-linejoin:round"
       d="m 16,16 c -0.135614,0.699234 -0.314197,3.370411 -2,4 -1.200966,0.44852 -4.9983856,1.016659 -5,2.5 -0.00178,1.633349 2.224208,2.5 7,2.5 4.775792,0 7.0018,-0.866651 7,-2.5 -0.0016,-1.483341 -3.799034,-2.05148 -5,-2.5 -1.685803,-0.629589 -1.864386,-3.300766 -2,-4 z" />
    <circle
       style="opacity:1;fill:url(#linearGradient5);stroke-width:4;stroke-linecap:round;stroke-linejoin:round"
       id="path452"
       cx="16"
       cy="8"
       r="2" />
    <circle
       style="opacity:0.8;fill:url(#linearGradient6);stroke-width:3;stroke-linecap:round;stroke-linejoin:round"
       id="path626"
       cx="16"
       cy="13.5"
       r="1.5" />
  </g>
</svg>
