<?xml version="1.0" encoding="UTF-8" standalone="no"?>
<!-- Created with Inkscape (http://www.inkscape.org/) -->

<svg
   width="256"
   height="256"
   viewBox="0 0 256 256"
   version="1.1"
   id="svg5"
   inkscape:version="1.4.2 (ebf0e940d0, 2025-05-08)"
   sodipodi:docname="audio-card.svg"
   xmlns:inkscape="http://www.inkscape.org/namespaces/inkscape"
   xmlns:sodipodi="http://sodipodi.sourceforge.net/DTD/sodipodi-0.dtd"
   xmlns:xlink="http://www.w3.org/1999/xlink"
   xmlns="http://www.w3.org/2000/svg"
   xmlns:svg="http://www.w3.org/2000/svg">
  <sodipodi:namedview
     id="namedview7"
     pagecolor="#ffffff"
     bordercolor="#000000"
     borderopacity="0.25"
     inkscape:showpageshadow="2"
     inkscape:pageopacity="0.0"
     inkscape:pagecheckerboard="0"
     inkscape:deskcolor="#d1d1d1"
     inkscape:document-units="px"
     showgrid="false"
     inkscape:zoom="3.0703125"
     inkscape:cx="127.83715"
     inkscape:cy="128"
     inkscape:window-width="1920"
     inkscape:window-height="1011"
     inkscape:window-x="0"
     inkscape:window-y="0"
     inkscape:window-maximized="1"
     inkscape:current-layer="svg5" />
  <defs
     id="defs2">
    <linearGradient
       inkscape:collect="always"
       xlink:href="#linearGradient981"
       id="linearGradient6"
       x1="16"
       y1="8"
       x2="16"
       y2="24"
       gradientUnits="userSpaceOnUse"
       gradientTransform="matrix(8.5,0,0,8.5,-8,-8)" />
    <linearGradient
       inkscape:collect="always"
       id="linearGradient981">
      <stop
         style="stop-color:#858585;stop-opacity:1;"
         offset="0"
         id="stop977" />
      <stop
         style="stop-color:#595959;stop-opacity:1;"
         offset="1"
         id="stop979" />
    </linearGradient>
    <linearGradient
       inkscape:collect="always"
       xlink:href="#linearGradient1940"
       id="linearGradient4"
       x1="16"
       y1="30"
       x2="16"
       y2="2"
       gradientUnits="userSpaceOnUse"
       gradientTransform="scale(8)" />
    <linearGradient
       inkscape:collect="always"
       id="linearGradient1940">
      <stop
         style="stop-color:#28b013;stop-opacity:1;"
         offset="0"
         id="stop1936" />
      <stop
         style="stop-color:#4ac265;stop-opacity:1;"
         offset="1"
         id="stop1938" />
    </linearGradient>
  </defs>
  <rect
     style="opacity:0.2;fill:#000000;stroke-width:14"
     id="rect1"
     width="224"
     height="224"
     x="16"
     y="17"
     ry="48" />
  <rect
     style="fill:url(#linearGradient4);stroke-width:8"
     id="rect2"
     width="224"
     height="224"
     x="16"
     y="16"
     ry="48" />
  <path
     id="rect7545"
     style="fill:#f2f2f2;stroke-width:16.9449;stroke-linecap:round;stroke-linejoin:round"
     d="m 100,44 c -2.215992,0 -4,1.784008 -4,4 V 96 H 48 c -2.215992,0 -4,1.784008 -4,4 0,2.216 1.784008,4 4,4 h 48 v 20 H 48 c -2.215992,0 -4,1.78401 -4,4 0,2.21599 1.784008,4 4,4 h 48 v 20 H 48 c -2.215992,0 -4,1.78401 -4,4 0,2.21599 1.784008,4 4,4 h 48 v 48 c 0,2.216 1.784008,4 4,4 2.21599,0 4,-1.784 4,-4 v -48 h 20 v 48 c 0,2.216 1.78401,4 4,4 2.21599,0 4,-1.784 4,-4 v -48 h 20 v 48 c 0,2.216 1.78401,4 4,4 2.21599,0 4,-1.784 4,-4 v -48 h 48 c 2.216,0 4,-1.78401 4,-4 0,-2.21599 -1.784,-4 -4,-4 h -48 v -20 h 48 c 2.216,0 4,-1.78401 4,-4 0,-2.21599 -1.784,-4 -4,-4 h -48 v -20 h 48 c 2.216,0 4,-1.784 4,-4 0,-2.215992 -1.784,-4 -4,-4 H 160 V 48 c 0,-2.215992 -1.78401,-4 -4,-4 -2.21599,0 -4,1.784008 -4,4 V 96 H 132 V 48 c 0,-2.215992 -1.78401,-4 -4,-4 -2.21599,0 -4,1.784008 -4,4 V 96 H 104 V 48 c 0,-2.215992 -1.78401,-4 -4,-4 z m 4,60 h 20 v 20 h -20 z m 28,0 h 20 v 20 h -20 z m -28,28 h 20 v 20 h -20 z m 28,0 h 20 v 20 h -20 z" />
  <rect
     style="opacity:0.2;fill:#000000;stroke-width:8.5"
     id="rect3"
     width="136"
     height="136"
     x="60"
     y="61"
     ry="28" />
  <rect
     style="fill:url(#linearGradient6);stroke-width:8.5"
     id="rect4"
     width="136"
     height="136"
     x="60"
     y="60"
     ry="28" />
</svg>
