<?xml version="1.0" encoding="UTF-8" standalone="no"?>
<!-- Created with Inkscape (http://www.inkscape.org/) -->

<svg
   width="16"
   height="16"
   viewBox="0 0 16 16"
   version="1.1"
   id="svg5"
   inkscape:version="1.4.2 (ebf0e940d0, 2025-05-08)"
   sodipodi:docname="drive-removable-media.svg"
   xmlns:inkscape="http://www.inkscape.org/namespaces/inkscape"
   xmlns:sodipodi="http://sodipodi.sourceforge.net/DTD/sodipodi-0.dtd"
   xmlns:xlink="http://www.w3.org/1999/xlink"
   xmlns="http://www.w3.org/2000/svg"
   xmlns:svg="http://www.w3.org/2000/svg">
  <sodipodi:namedview
     id="namedview7"
     pagecolor="#ffffff"
     bordercolor="#000000"
     borderopacity="0.25"
     inkscape:showpageshadow="2"
     inkscape:pageopacity="0.0"
     inkscape:pagecheckerboard="0"
     inkscape:deskcolor="#d1d1d1"
     inkscape:document-units="px"
     showgrid="false"
     inkscape:zoom="34.383067"
     inkscape:cx="5.220593"
     inkscape:cy="6.9947221"
     inkscape:window-width="1920"
     inkscape:window-height="1010"
     inkscape:window-x="0"
     inkscape:window-y="0"
     inkscape:window-maximized="1"
     inkscape:current-layer="svg5" />
  <defs
     id="defs2">
    <linearGradient
       inkscape:collect="always"
       id="linearGradient8064">
      <stop
         style="stop-color:#c5c5c5;stop-opacity:1;"
         offset="0"
         id="stop8060" />
      <stop
         style="stop-color:#e2e2e2;stop-opacity:1;"
         offset="1"
         id="stop8062" />
    </linearGradient>
    <linearGradient
       inkscape:collect="always"
       xlink:href="#linearGradient8064"
       id="linearGradient2"
       x1="16"
       y1="15.735369"
       x2="16"
       y2="0"
       gradientUnits="userSpaceOnUse" />
  </defs>
  <rect
     style="fill:url(#linearGradient2)"
     id="rect1"
     width="16"
     height="16"
     x="0"
     y="0"
     ry="4" />
  <path
     d="M 7.5,14.5 C 8.32843,14.5 9,13.82843 9,13 9,12.34416 8.58641,11.79759 8,11.59375 V 11 10.6875 10.21875 L 10.3125,8.375 10.5,8.25 V 8 7 H 11 V 5 H 9 V 7 H 9.5 V 7.78125 L 8,8.96875 V 4 H 9 L 7.5,1.5 6,4 H 7 V 4 9.96875 L 5.5000001,8.78125 V 7.843875 C 5.792,7.669265 6,7.365095 6,7.000125 c 0,-0.55228 -0.44772,-1 -0.9999999,-1 C 4.44772,6.000125 4,6.447845 4,7.000125 c 0,0.36497 0.208,0.66914 0.5,0.84375 V 9 9.25 L 4.6875,9.375 7,11.21875 v 0.0312 0.25 0.0937 c -0.58641,0.20384 -1,0.75041 -1,1.40625 0,0.82843 0.67157,1.5 1.5,1.5 z"
     style="color:#bebebe;display:inline;overflow:visible;visibility:visible;fill:#707070;fill-opacity:1;fill-rule:nonzero;stroke:none;stroke-width:4;marker:none;enable-background:accumulate"
     id="path429"
     sodipodi:nodetypes="csccccccccccccccccccccccccsssccccccccscc" />
</svg>
