<?xml version="1.0" encoding="UTF-8" standalone="no"?>
<!-- Created with Inkscape (http://www.inkscape.org/) -->

<svg
   width="32"
   height="32"
   viewBox="0 0 32 32.000001"
   version="1.1"
   id="svg5"
   sodipodi:docname="emblem-system.svg"
   inkscape:version="1.4.2 (ebf0e940d0, 2025-05-08)"
   xmlns:inkscape="http://www.inkscape.org/namespaces/inkscape"
   xmlns:sodipodi="http://sodipodi.sourceforge.net/DTD/sodipodi-0.dtd"
   xmlns="http://www.w3.org/2000/svg"
   xmlns:svg="http://www.w3.org/2000/svg">
  <sodipodi:namedview
     id="namedview7"
     pagecolor="#ffffff"
     bordercolor="#666666"
     borderopacity="1.0"
     inkscape:showpageshadow="2"
     inkscape:pageopacity="0.0"
     inkscape:pagecheckerboard="0"
     inkscape:deskcolor="#d1d1d1"
     inkscape:document-units="px"
     showgrid="false"
     inkscape:zoom="24.875"
     inkscape:cx="15.979899"
     inkscape:cy="16"
     inkscape:window-width="1920"
     inkscape:window-height="1011"
     inkscape:window-x="0"
     inkscape:window-y="0"
     inkscape:window-maximized="1"
     inkscape:current-layer="svg5" />
  <defs
     id="defs2" />
  <rect
     style="fill:#808a92;fill-opacity:1;stroke:none"
     id="rect184"
     width="28"
     height="28"
     x="2"
     y="2"
     ry="5" />
  <path
     id="path285"
     style="fill:#ffffff;stroke-width:1.6;stroke-linecap:round;stroke-linejoin:round"
     d="M 19.048828 5.4101562 C 18.631392 5.4227698 18.262396 5.9031543 18.033203 6.3105469 L 17.044922 8.0664062 C 17.31059 8.1015822 17.577234 8.1498125 17.841797 8.2128906 C 18.063325 8.2657082 18.284296 8.3296098 18.503906 8.4023438 C 18.286885 8.330874 18.066582 8.2658428 17.841797 8.2128906 C 17.250608 8.0736253 16.633707 8 16 8 C 15.605408 8 15.219136 8.0346625 14.839844 8.0898438 C 14.879338 8.0840025 14.917426 8.0716581 14.957031 8.0664062 L 13.966797 6.3105469 C 13.780048 5.9785976 13.50086 5.5989721 13.177734 5.4628906 C 13.030858 5.4010356 12.87479 5.3888291 12.714844 5.4550781 L 10.867188 6.2207031 C 10.355358 6.4327094 10.436598 7.1774461 10.585938 7.7109375 L 11.128906 9.6523438 C 11.254207 9.5563843 11.381295 9.4651193 11.511719 9.3769531 C 11.80032 9.1818601 12.103602 9.0110658 12.414062 8.8554688 C 12.10264 9.0121177 11.798219 9.182459 11.511719 9.3769531 C 10.751489 9.893044 10.0913 10.540965 9.5488281 11.28125 C 9.5846321 11.23221 9.6135724 11.176962 9.6503906 11.128906 L 7.7109375 10.585938 C 7.177446 10.436597 6.4327097 10.355358 6.2207031 10.867188 L 5.4550781 12.714844 C 5.2430715 13.226673 5.8277135 13.695158 6.3105469 13.966797 L 8.0664062 14.955078 C 8.1015829 14.689405 8.1498108 14.422771 8.2128906 14.158203 C 8.2657191 13.936631 8.3295909 13.715747 8.4023438 13.496094 C 8.3308776 13.713106 8.2658409 13.933428 8.2128906 14.158203 C 8.0736231 14.749396 8 15.366288 8 16 C 8 16.394751 8.0346188 16.780718 8.0898438 17.160156 C 8.0840125 17.120724 8.07165 17.082512 8.0664062 17.042969 L 6.3105469 18.033203 C 5.8277122 18.304879 5.2430711 18.773328 5.4550781 19.285156 L 6.2207031 21.132812 C 6.4327094 21.644642 7.1774444 21.563401 7.7109375 21.414062 L 9.6523438 20.871094 C 9.5567635 20.746289 9.4648019 20.620123 9.3769531 20.490234 C 9.1821573 20.20222 9.0128748 19.899648 8.8574219 19.589844 C 9.0138888 19.900502 9.1828135 20.2044 9.3769531 20.490234 C 9.8914395 21.247719 10.538187 21.905977 11.275391 22.447266 C 11.228273 22.412801 11.175114 22.385012 11.128906 22.349609 L 10.585938 24.289062 C 10.436597 24.822554 10.355358 25.567291 10.867188 25.779297 L 12.714844 26.544922 C 13.226673 26.756929 13.695158 26.172286 13.966797 25.689453 L 14.955078 23.933594 C 14.688506 23.8983 14.421706 23.850499 14.15625 23.787109 C 14.748262 23.926787 15.365328 24 16 24 C 16.392968 24 16.778449 23.966845 17.15625 23.912109 C 17.118197 23.917716 17.081125 23.928534 17.042969 23.933594 L 18.033203 25.689453 C 18.304842 26.172289 18.773327 26.75693 19.285156 26.544922 L 21.132812 25.779297 C 21.644642 25.567292 21.563404 24.822555 21.414062 24.289062 L 20.871094 22.347656 C 20.750856 22.439739 20.628869 22.528372 20.503906 22.613281 C 20.216058 22.808867 19.913259 22.980509 19.603516 23.136719 C 19.914609 22.979309 20.21781 22.808499 20.503906 22.613281 C 21.256057 22.100051 21.909147 21.455944 22.447266 20.722656 C 22.412492 20.770217 22.385338 20.82446 22.349609 20.871094 L 24.289062 21.414062 C 24.822554 21.563402 25.567291 21.644642 25.779297 21.132812 L 26.544922 19.285156 C 26.756929 18.773327 26.172288 18.304839 25.689453 18.033203 L 23.933594 17.044922 C 23.898404 17.310708 23.850228 17.577117 23.787109 17.841797 C 23.735556 18.057977 23.674032 18.273916 23.603516 18.488281 C 23.67283 18.276341 23.735434 18.061117 23.787109 17.841797 C 23.926428 17.250501 24 16.633833 24 16 C 24 15.605429 23.965332 15.219116 23.910156 14.839844 C 23.915997 14.879335 23.928342 14.917429 23.933594 14.957031 L 25.689453 13.966797 C 26.172288 13.695161 26.756929 13.226673 26.544922 12.714844 L 25.779297 10.867188 C 25.713047 10.707242 25.59486 10.605041 25.447266 10.544922 C 25.122557 10.412661 24.655838 10.483268 24.289062 10.585938 L 22.347656 11.128906 C 22.443668 11.254274 22.534837 11.381222 22.623047 11.511719 C 22.820921 11.804452 22.995118 12.112546 23.152344 12.427734 C 22.99395 12.111262 22.82046 11.802539 22.623047 11.511719 C 22.107679 10.752505 21.461657 10.092876 20.722656 9.5507812 C 20.770513 9.5857615 20.824175 9.6144437 20.871094 9.6503906 L 21.414062 7.7109375 C 21.563402 7.1774453 21.644643 6.4327097 21.132812 6.2207031 L 19.285156 5.4550781 C 19.205183 5.4219521 19.126131 5.4078204 19.048828 5.4101562 z M 14.59375 8.1367188 C 14.319564 8.1855099 14.050869 8.2482548 13.787109 8.3242188 C 14.052436 8.247466 14.321107 8.1858269 14.59375 8.1367188 z M 13.429688 8.4355469 C 13.203873 8.51232 12.983814 8.6013758 12.767578 8.6972656 C 12.984777 8.6011617 13.204781 8.5121153 13.429688 8.4355469 z M 18.816406 8.5175781 C 18.898386 8.5484918 18.980961 8.5756004 19.0625 8.609375 C 19.081616 8.617293 19.098165 8.6286713 19.117188 8.6367188 C 19.01798 8.5946607 18.917614 8.5556984 18.816406 8.5175781 z M 19.972656 9.0566406 C 20.034738 9.0920008 20.091513 9.1330845 20.152344 9.1699219 C 20.091838 9.1330494 20.034204 9.0919378 19.972656 9.0566406 z M 9.1699219 11.847656 C 9.1330517 11.90816 9.0919356 11.965798 9.0566406 12.027344 C 9.0919895 11.965283 9.1330968 11.908466 9.1699219 11.847656 z M 16 12 C 18.209135 12 20 13.790866 20 16 C 20 18.209135 18.209135 20 16 20 C 13.790866 20 12 18.209135 12 16 C 12 13.790866 13.790866 12 16 12 z M 23.298828 12.757812 C 23.393675 12.971401 23.482647 13.18712 23.558594 13.408203 C 23.482512 13.186503 23.393361 12.970233 23.298828 12.757812 z M 8.6328125 12.890625 C 8.5947173 12.98076 8.5602405 13.072276 8.5253906 13.164062 C 8.5539142 13.089038 8.5784528 13.014106 8.609375 12.939453 C 8.6163773 12.922548 8.625709 12.907457 8.6328125 12.890625 z M 23.683594 13.804688 C 23.757216 14.061488 23.81357 14.322307 23.861328 14.585938 C 23.813846 14.320677 23.756535 14.060192 23.683594 13.804688 z M 8.1367188 17.404297 C 8.1853707 17.678031 8.2465298 17.94759 8.3222656 18.210938 C 8.2457698 17.94602 8.1856597 17.676498 8.1367188 17.404297 z M 8.4433594 18.589844 C 8.5163475 18.802732 8.5994355 19.010488 8.6894531 19.214844 C 8.5992345 19.009551 8.5161634 18.802007 8.4433594 18.589844 z M 23.466797 18.855469 C 23.440456 18.924246 23.418983 18.994037 23.390625 19.0625 C 23.383611 19.079433 23.374303 19.094468 23.367188 19.111328 C 23.402778 19.027171 23.434034 18.941068 23.466797 18.855469 z M 22.943359 19.974609 C 22.910627 20.032049 22.871889 20.084257 22.837891 20.140625 C 22.871947 20.084519 22.910655 20.031608 22.943359 19.974609 z M 11.869141 22.84375 C 11.920097 22.874577 11.96784 22.909739 12.019531 22.939453 C 11.967478 22.90973 11.920313 22.874514 11.869141 22.84375 z M 19.230469 23.302734 C 19.022304 23.394786 18.812924 23.480567 18.597656 23.554688 C 18.813297 23.480493 19.023609 23.394401 19.230469 23.302734 z M 12.898438 23.371094 C 12.931816 23.385157 12.966393 23.396534 13 23.410156 C 12.980028 23.402066 12.959398 23.398886 12.939453 23.390625 C 12.925274 23.384752 12.912565 23.377038 12.898438 23.371094 z M 18.205078 23.679688 C 17.955379 23.751585 17.701522 23.808022 17.445312 23.855469 C 17.703217 23.808255 17.956454 23.750998 18.205078 23.679688 z " />
  <path
     id="rect899"
     style="fill:#000000;stroke:none;opacity:0.4"
     d="M 7 2 C 4.2300028 2 2 4.2300028 2 7 L 2 25 C 2 27.769997 4.2300028 30 7 30 L 25 30 C 27.769997 30 30 27.769997 30 25 L 30 7 C 30 4.2300028 27.769997 2 25 2 L 7 2 z M 7 3 L 25 3 C 27.215998 3 29 4.7840022 29 7 L 29 25 C 29 27.215998 27.215998 29 25 29 L 7 29 C 4.7840022 29 3 27.215998 3 25 L 3 7 C 3 4.7840022 4.7840022 3 7 3 z " />
</svg>
