<?xml version="1.0" encoding="UTF-8" standalone="no"?>
<!-- Created with Inkscape (http://www.inkscape.org/) -->

<svg
   width="128"
   height="128"
   viewBox="0 0 128 128.00001"
   version="1.1"
   id="svg1"
   inkscape:version="1.4.2 (ebf0e940d0, 2025-05-08)"
   sodipodi:docname="cider.svg"
   xmlns:inkscape="http://www.inkscape.org/namespaces/inkscape"
   xmlns:sodipodi="http://sodipodi.sourceforge.net/DTD/sodipodi-0.dtd"
   xmlns:xlink="http://www.w3.org/1999/xlink"
   xmlns="http://www.w3.org/2000/svg"
   xmlns:svg="http://www.w3.org/2000/svg">
  <sodipodi:namedview
     id="namedview1"
     pagecolor="#ffffff"
     bordercolor="#000000"
     borderopacity="0.25"
     inkscape:showpageshadow="2"
     inkscape:pageopacity="0.0"
     inkscape:pagecheckerboard="0"
     inkscape:deskcolor="#d1d1d1"
     inkscape:document-units="px"
     inkscape:zoom="6.140625"
     inkscape:cx="63.918575"
     inkscape:cy="64"
     inkscape:window-width="1920"
     inkscape:window-height="1011"
     inkscape:window-x="0"
     inkscape:window-y="0"
     inkscape:window-maximized="1"
     inkscape:current-layer="svg1" />
  <defs
     id="defs1">
    <linearGradient
       inkscape:collect="always"
       xlink:href="#4852"
       id="linearGradient4"
       x1="16"
       y1="30"
       x2="16"
       y2="2"
       gradientUnits="userSpaceOnUse"
       gradientTransform="scale(4)" />
    <linearGradient
       inkscape:collect="always"
       id="4852">
      <stop
         style="stop-color:#272727;stop-opacity:1;"
         offset="0"
         id="stop14555" />
      <stop
         style="stop-color:#5d5d5d;stop-opacity:1;"
         offset="1"
         id="stop14557" />
    </linearGradient>
    <linearGradient
       inkscape:collect="always"
       xlink:href="#linearGradient1"
       id="linearGradient3"
       x1="8"
       y1="22"
       x2="8"
       y2="-6"
       gradientUnits="userSpaceOnUse"
       gradientTransform="matrix(4,0,0,4,32,32)" />
    <linearGradient
       id="linearGradient1"
       inkscape:collect="always">
      <stop
         style="stop-color:#f50057;stop-opacity:1;"
         offset="0"
         id="stop1" />
      <stop
         style="stop-color:#ff6299;stop-opacity:1;"
         offset="1"
         id="stop2" />
    </linearGradient>
  </defs>
  <rect
     style="opacity:0.2;fill:#000000;stroke-width:7"
     id="rect1"
     width="112"
     height="112"
     x="8"
     y="9"
     ry="24" />
  <rect
     style="fill:url(#linearGradient4);stroke-width:4"
     id="rect2"
     width="112"
     height="112"
     x="8"
     y="8"
     ry="24" />
  <circle
     style="fill:url(#linearGradient3);fill-opacity:1;stroke-width:4;stroke-linecap:round"
     id="path287"
     cx="64"
     cy="64"
     r="40" />
  <path
     d="M 64,40 C 50.745164,40 40,50.745164 40,64 40,77.254832 50.745164,88 64,88 77.254832,88 88,77.254832 88,64 88,50.745164 77.254832,40 64,40 Z m -0.0392,4 H 64 C 75.045696,44 84,52.954304 84,64 84,75.045696 75.045696,84 64,84 52.954304,84 44,75.045696 44,64 43.99998,52.969544 52.9305,44.021544 63.960936,44 Z M 58.125,53.742188 C 56.931772,53.815964 56.001388,54.804496 56,56 v 8 8 c -0.0024,1.761636 1.918964,2.851448 3.429688,1.945312 L 66,70 72.570312,66.054688 c 1.546312,-0.933396 1.546312,-3.17598 0,-4.109376 L 66,58 59.429688,54.054688 c -0.39336,-0.23356 -0.848212,-0.34248 -1.304688,-0.31252 z"
     style="fill:#212121;stroke-width:4"
     id="path1" />
</svg>
