<?xml version="1.0" encoding="UTF-8" standalone="no"?>
<!-- Created with Inkscape (http://www.inkscape.org/) -->

<svg
   width="128"
   height="128"
   viewBox="0 0 128 128.00001"
   version="1.1"
   id="svg1"
   inkscape:version="1.4.2 (ebf0e940d0, 2025-05-08)"
   sodipodi:docname="firewall-config.svg"
   xmlns:inkscape="http://www.inkscape.org/namespaces/inkscape"
   xmlns:sodipodi="http://sodipodi.sourceforge.net/DTD/sodipodi-0.dtd"
   xmlns:xlink="http://www.w3.org/1999/xlink"
   xmlns="http://www.w3.org/2000/svg"
   xmlns:svg="http://www.w3.org/2000/svg">
  <sodipodi:namedview
     id="namedview1"
     pagecolor="#ffffff"
     bordercolor="#000000"
     borderopacity="0.25"
     inkscape:showpageshadow="2"
     inkscape:pageopacity="0.0"
     inkscape:pagecheckerboard="0"
     inkscape:deskcolor="#d1d1d1"
     inkscape:document-units="px"
     inkscape:zoom="6.21875"
     inkscape:cx="63.919598"
     inkscape:cy="64"
     inkscape:window-width="1920"
     inkscape:window-height="1011"
     inkscape:window-x="0"
     inkscape:window-y="0"
     inkscape:window-maximized="1"
     inkscape:current-layer="svg1" />
  <defs
     id="defs1">
    <linearGradient
       inkscape:collect="always"
       xlink:href="#linearGradient2"
       id="linearGradient4"
       x1="16"
       y1="30"
       x2="16"
       y2="2"
       gradientUnits="userSpaceOnUse"
       gradientTransform="scale(4)" />
    <linearGradient
       inkscape:collect="always"
       id="linearGradient2">
      <stop
         style="stop-color:#451b13;stop-opacity:1;"
         offset="0"
         id="stop1" />
      <stop
         style="stop-color:#6d382f;stop-opacity:1;"
         offset="1"
         id="stop2" />
    </linearGradient>
  </defs>
  <rect
     style="opacity:0.2;fill:#000000;stroke-width:7"
     id="rect1"
     width="112"
     height="112"
     x="8"
     y="9"
     ry="24" />
  <rect
     style="fill:url(#linearGradient4);stroke-width:4"
     id="rect2"
     width="112"
     height="112"
     x="8"
     y="8"
     ry="24" />
  <path
     id="rect3865"
     style="opacity:0.5;fill:#ffffff;stroke-width:1.76383;stroke-linecap:square;stroke-linejoin:round"
     d="M 46,8 V 20 H 11.214844 C 10.48551,21.264492 9.8747352,22.601956 9.3828124,24 H 30 V 48 H 8 v 4 h 6 V 76 H 8 v 4 h 22 v 24 H 9.3828124 c 0.4919228,1.39804 1.1026976,2.73551 1.8320316,4 H 46 v 12 h 4 v -12 h 28 v 12 h 4 v -12 h 34.78516 c 0.72933,-1.26449 1.3401,-2.60196 1.83203,-4 H 98 V 80 h 22 v -4 h -6 V 52 h 6 V 48 H 98 V 24 h 20.61719 c -0.49193,-1.398044 -1.1027,-2.735508 -1.83203,-4 H 82 V 8 H 78 V 20 H 50 V 8 Z M 34,24 H 62 V 48 H 34 Z m 32,0 H 94 V 48 H 66 Z M 18,52 H 46 V 76 H 18 Z m 32,0 H 78 V 76 H 50 Z m 32,0 h 28 V 76 H 82 Z M 34,80 h 28 v 24 H 34 Z m 32,0 h 28 v 24 H 66 Z" />
</svg>
