<?xml version="1.0" encoding="UTF-8" standalone="no"?>
<!-- Created with Inkscape (http://www.inkscape.org/) -->

<svg
   width="128"
   height="128"
   viewBox="0 0 128 128.00001"
   version="1.1"
   id="svg1"
   inkscape:version="1.4.2 (ebf0e940d0, 2025-05-08)"
   sodipodi:docname="gimp.svg"
   xmlns:inkscape="http://www.inkscape.org/namespaces/inkscape"
   xmlns:sodipodi="http://sodipodi.sourceforge.net/DTD/sodipodi-0.dtd"
   xmlns:xlink="http://www.w3.org/1999/xlink"
   xmlns="http://www.w3.org/2000/svg"
   xmlns:svg="http://www.w3.org/2000/svg">
  <sodipodi:namedview
     id="namedview1"
     pagecolor="#ffffff"
     bordercolor="#000000"
     borderopacity="0.25"
     inkscape:showpageshadow="2"
     inkscape:pageopacity="0.0"
     inkscape:pagecheckerboard="0"
     inkscape:deskcolor="#d1d1d1"
     inkscape:document-units="px"
     inkscape:zoom="6.140625"
     inkscape:cx="63.918575"
     inkscape:cy="64"
     inkscape:window-width="1920"
     inkscape:window-height="1011"
     inkscape:window-x="0"
     inkscape:window-y="0"
     inkscape:window-maximized="1"
     inkscape:current-layer="svg1" />
  <defs
     id="defs1">
    <linearGradient
       inkscape:collect="always"
       xlink:href="#linearGradient4-2"
       id="linearGradient4"
       x1="16"
       y1="30"
       x2="16"
       y2="2"
       gradientUnits="userSpaceOnUse"
       gradientTransform="scale(4)" />
    <linearGradient
       inkscape:collect="always"
       id="linearGradient4-2">
      <stop
         style="stop-color:#1d1c18;stop-opacity:1;"
         offset="0"
         id="stop3" />
      <stop
         style="stop-color:#423838;stop-opacity:1;"
         offset="1"
         id="stop4" />
    </linearGradient>
  </defs>
  <rect
     style="opacity:0.2;fill:#000000;stroke-width:7"
     id="rect1"
     width="112"
     height="112"
     x="8"
     y="9"
     ry="24" />
  <rect
     style="fill:url(#linearGradient4);stroke-width:4"
     id="rect2"
     width="112"
     height="112"
     x="8"
     y="8"
     ry="24" />
  <path
     style="fill:#8c8073;fill-opacity:1;fill-rule:evenodd;stroke-width:2"
     d="m 101.21116,24.026882 c -0.69534,-0.1106 -1.320036,0.28186 -1.695596,0.7286 -0.37554,0.44696 -0.63612,1.0007 -0.86304,1.69856 -0.39244,1.20762 -1.8337,5.69012 -7.0308,10.12046 -5.19708,4.43056 -14.15928,11.02652 -29.69234,11.4262 -9.44514,0.1106 -15.95904,-4.74784 -19.72536,-12.20064 -0.93994,-1.85994 -2.30928,-5.32604 -2.30928,-3.1206 v 3.40996 l -0.048,17.64818 0.0958,0.23232 c 0,0 0.84614,1.87962 -0.048,4.412 -0.8941,2.5326 -4.4202,6.22834 -12.29986,8.59338 l -0.9633,0.28628 0.183,1.0144 c 0.43706,2.45744 2.17922,4.97612 4.75114,7.5547 2.5719,2.57836 6.01546,5.187 10.0253,7.5454 8.01968,4.71682 18.29142,8.44422 28.27138,8.6184 9.97994,0.1746 19.74442,-3.31534 26.20528,-12.9813 6.460856,-9.66576 9.611796,-28.11292 7.030776,-52.13892 h -0.004 c -0.082,-0.65962 -0.22752,-1.22286 -0.48814,-1.71646 -0.2606,-0.4934 -0.69948,-1.00292 -1.39482,-1.113 z"
     id="path9412" />
  <path
     style="fill:#ffffff;fill-rule:evenodd;stroke-width:2"
     d="m 48.997964,46.000702 c -2.72128,0 -5.45624,0.89958 -7.53844,2.75044 -2.08218,1.85086 -3.45952,4.67148 -3.45952,8.25154 0,3.58006 1.37734,6.39672 3.45952,8.24758 2.0822,1.85086 4.81716,2.75044 7.53844,2.75044 2.72128,0 5.45624,-0.89958 7.53844,-2.75044 2.08218,-1.85086 3.4636,-4.66752 3.4636,-8.24758 0,-3.58006 -1.38142,-6.40068 -3.4636,-8.25154 -2.0822,-1.85086 -4.81716,-2.75044 -7.53844,-2.75044 z"
     id="path9420" />
  <path
     style="fill:#3f3f3f;fill-rule:evenodd;stroke-width:2"
     d="m 51.000004,54.000702 c -1.22518,0 -2.46378,0.405 -3.41798,1.2532 -0.95418,0.8482 -1.58202,2.1546 -1.58202,3.7468 0,1.5922 0.62784,2.8986 1.58202,3.7468 0.9542,0.8482 2.1928,1.2532 3.41798,1.2532 1.22518,0 2.46378,-0.405 3.41796,-1.2532 0.9542,-0.8482 1.58204,-2.1546 1.58204,-3.7468 0,-1.5922 -0.62784,-2.8986 -1.58204,-3.7468 -0.95418,-0.8482 -2.19278,-1.2532 -3.41796,-1.2532 z"
     id="path9422" />
  <path
     id="path9424"
     style="fill:#333333;fill-opacity:1;fill-rule:evenodd;stroke-width:2"
     d="m 72,72 c 0,0 0.307362,1.561616 1.414062,2.984376 -2.61634,2.010918 -7.78852,2.648478 -13.67578,3.011718 -3.54394,0.2147 -7.452582,0 -11.738282,0 v 0.004 c 6.67882,2.34736 12.411642,4.100094 16.914062,3.996094 4.22988,-0.09836 7.3734,-1.901562 9.19922,-4.414062 0.25386,0.98936 0.882118,1.924362 1.886718,4.414062 0.45126,-2.83476 2.782874,-4.198442 1.058594,-6.414062 C 75.329334,73.360212 72,72 72,72 Z"
     sodipodi:nodetypes="cccccccccc" />
  <path
     style="fill:#3f3f3f;fill-rule:evenodd;stroke-width:2"
     d="m 28.947944,52.000702 c -0.53248,0 -1.05464,0.0326 -1.5622,0.1126 -1.35352,0.21232 -2.60672,0.72106 -3.68714,1.49282 -4.321698,3.0873 -5.459858,10.08412 -0.1218,17.41092 5.33808,7.32702 12.40058,8.46408 16.72228,5.3768 4.3217,-3.08728 5.46406,-10.0841 0.126,-17.41092 -3.50312,-4.80826 -7.74986,-6.94958 -11.47714,-6.98186 z"
     id="path9428" />
  <path
     style="fill:#ffffff;fill-rule:evenodd;stroke-width:2"
     d="m 66.997964,46.000702 c -2.72128,0 -5.45624,0.89958 -7.53844,2.75044 -2.08218,1.85086 -3.45952,4.67148 -3.45952,8.25154 0,3.58006 1.37734,6.39672 3.45952,8.24758 2.0822,1.85086 4.81716,2.75044 7.53844,2.75044 2.72128,0 5.45624,-0.89958 7.53844,-2.75044 2.08218,-1.85086 3.4636,-4.66752 3.4636,-8.24758 0,-3.58006 -1.38142,-6.40068 -3.4636,-8.25154 -2.0822,-1.85086 -4.81716,-2.75044 -7.53844,-2.75044 z"
     id="path9430" />
  <path
     style="fill:#3f3f3f;fill-rule:evenodd;stroke-width:2"
     d="m 69.000004,54.000702 c -1.22518,0 -2.46378,0.405 -3.41798,1.2532 -0.95418,0.8482 -1.58202,2.1546 -1.58202,3.7468 0,1.5922 0.62784,2.8986 1.58202,3.7468 0.9542,0.8482 2.1928,1.2532 3.41798,1.2532 1.22518,0 2.46378,-0.405 3.41796,-1.2532 0.9542,-0.8482 1.58204,-2.1546 1.58204,-3.7468 0,-1.5922 -0.62784,-2.8986 -1.58204,-3.7468 -0.95418,-0.8482 -2.19278,-1.2532 -3.41796,-1.2532 z"
     id="path9432" />
  <path
     style="fill:#ff9a0c;stroke-width:2"
     d="m 91.935544,90.800882 1.8528,-3.68976 c -6.89266,-5.04266 -19.76038,-10.15968 -19.76038,-10.15968 l -2.0275,1.11456 c 0,0 11.683,10.36208 19.93508,12.73488 z"
     id="path9438" />
  <path
     style="fill:#8a8a8a;stroke-width:2"
     d="m 92.000004,84.000062 -0.96614,0.63538 c -0.89488,0.48982 -1.62088,1.32234 -2.20976,2.28518 -0.67382,1.58284 -0.93992,2.57264 -0.8241,4.1191 l 1.4,-0.23972 c 0,0 7.30984,2.09708 10.770236,3.2 l 0.40478,-0.77978 1.42498,-2.7581 -9.999996,-5.12288 z"
     id="path9440" />
  <path
     style="fill:#3f3f3f;stroke-width:2"
     d="m 112,104 c -2.49398,-8.103158 -3.37854,-14.537058 -9.8961,-13.964538 -5.252256,0.46138 -5.619956,7.66466 -0.1926,9.6524 C 107.13964,101.60266 111.99994,104 111.99994,104 Z"
     id="path9442" />
</svg>
