<?xml version="1.0" encoding="UTF-8" standalone="no"?>
<!-- Created with Inkscape (http://www.inkscape.org/) -->

<svg
   width="128"
   height="128"
   viewBox="0 0 128 128.00001"
   version="1.1"
   id="svg1"
   inkscape:version="1.4.2 (ebf0e940d0, 2025-05-08)"
   sodipodi:docname="gnome-contacts.svg"
   xmlns:inkscape="http://www.inkscape.org/namespaces/inkscape"
   xmlns:sodipodi="http://sodipodi.sourceforge.net/DTD/sodipodi-0.dtd"
   xmlns:xlink="http://www.w3.org/1999/xlink"
   xmlns="http://www.w3.org/2000/svg"
   xmlns:svg="http://www.w3.org/2000/svg">
  <sodipodi:namedview
     id="namedview1"
     pagecolor="#ffffff"
     bordercolor="#000000"
     borderopacity="0.25"
     inkscape:showpageshadow="2"
     inkscape:pageopacity="0.0"
     inkscape:pagecheckerboard="0"
     inkscape:deskcolor="#d1d1d1"
     inkscape:document-units="px"
     inkscape:zoom="6.15625"
     inkscape:cx="63.918782"
     inkscape:cy="64"
     inkscape:window-width="1920"
     inkscape:window-height="1011"
     inkscape:window-x="0"
     inkscape:window-y="0"
     inkscape:window-maximized="1"
     inkscape:current-layer="svg1" />
  <defs
     id="defs1">
    <linearGradient
       inkscape:collect="always"
       xlink:href="#4852"
       id="linearGradient4"
       x1="16"
       y1="30"
       x2="16"
       y2="2"
       gradientUnits="userSpaceOnUse"
       gradientTransform="scale(4)" />
    <linearGradient
       inkscape:collect="always"
       id="4852">
      <stop
         style="stop-color:#272727;stop-opacity:1;"
         offset="0"
         id="stop14555" />
      <stop
         style="stop-color:#5d5d5d;stop-opacity:1;"
         offset="1"
         id="stop14557" />
    </linearGradient>
  </defs>
  <rect
     style="opacity:0.2;fill:#000000;stroke-width:7"
     id="rect1"
     width="112"
     height="112"
     x="8"
     y="9"
     ry="24" />
  <rect
     style="fill:url(#linearGradient4);stroke-width:4"
     id="rect2"
     width="112"
     height="112"
     x="8"
     y="8"
     ry="24" />
  <path
     id="rect294"
     style="fill:#8ace64;fill-opacity:1;stroke-width:7.15544;stroke-linecap:round;stroke-linejoin:round"
     d="M 104,9.359376 V 54 h 16 V 32 C 120,21.511714 113.3394,12.64011 104,9.359376 Z" />
  <path
     id="rect956"
     style="fill:#f44d4d;fill-opacity:1;stroke-width:3.4254;stroke-linecap:round;stroke-linejoin:round"
     d="m 104,46 v 44 h 16 V 46 Z"
     sodipodi:nodetypes="ccccc" />
  <path
     id="rect1736"
     style="fill:#ffbc42;fill-opacity:1;stroke-width:6.1968;stroke-linecap:round;stroke-linejoin:round"
     inkscape:label="rect1736"
     d="m 104,82 v 36.64062 C 113.3394,115.35989 120,106.48829 120,96 V 82 Z" />
  <path
     id="rect4024"
     style="opacity:0.2;fill:#000000;fill-opacity:1;stroke-width:4.1312;stroke-linecap:round;stroke-linejoin:round"
     d="m 104,46 v 1 h 16 v -1 z m 0,36 v 1 h 16 v -1 z" />
  <path
     d="m 72.398656,79.959684 c -1.672264,0 -3.28182,-0.418064 -4.828668,-1.254188 -1.546844,-0.877944 -2.63382,-2.257572 -3.260916,-4.138868 h -0.06256 c -0.37632,1.003356 -0.940744,1.839488 -1.693256,2.5084 -0.752516,0.668904 -1.588648,1.212388 -2.508396,1.63046 -0.877936,0.418076 -1.77678,0.710716 -2.696528,0.877932 -0.919744,0.1672 -1.75588,0.2508 -2.508396,0.2508 -4.013436,0 -7.06532,-1.128784 -9.155656,-3.386344 -2.090396,-2.257532 -3.135576,-5.288512 -3.135576,-9.092912 v -4.891376 c 0,-3.846208 1.00336,-6.877196 3.010076,-9.092944 2.048524,-2.257564 4.828664,-3.386336 8.340424,-3.386336 2.341176,0 4.201564,0.35536 5.581184,1.066068 1.37962,0.710712 2.36208,1.567752 2.947372,2.571104 V 50.360564 H 68.3225 V 70.1142 c 0,1.75588 0.35536,3.051892 1.066072,3.888016 0.710708,0.794324 1.734976,1.191492 3.072784,1.191492 1.045172,0 1.964916,-0.18812 2.75924,-0.564388 0.794328,-0.418076 1.463236,-1.06608 2.00672,-1.944008 0.54348,-0.919744 0.961548,-2.090332 1.254192,-3.511752 0.29264,-1.463236 0.438968,-3.24002 0.438968,-5.330344 v -0.68978 c 0,-3.51176 -0.522584,-6.647256 -1.567748,-9.406492 -1.00334,-2.759264 -2.508376,-5.100444 -4.515088,-7.023548 -2.006724,-1.964908 -4.47332,-3.449044 -7.39978,-4.452408 -2.926468,-1.045164 -6.2919,-1.567744 -10.096308,-1.567744 -3.260916,0 -6.250092,0.52258 -8.96752,1.567744 -2.717432,1.045168 -5.058608,2.571116 -7.02352,4.577828 -1.923108,1.964916 -3.428144,4.389696 -4.51512,7.274356 -1.086964,2.884656 -1.630452,6.14558 -1.630452,9.782756 V 64.972 c 0,3.88802 0.522584,7.337064 1.567748,10.347148 1.086968,2.968268 2.63382,5.45576 4.64054,7.462484 2.006712,2.048528 4.4524,3.595368 7.337064,4.64054 2.926464,1.086972 6.208284,1.630456 9.845456,1.630456 3.1355,0 6.2501,-0.35536 9.343792,-1.066072 3.093688,-0.668904 5.93654,-1.67226 8.528552,-3.01008 l 1.755876,4.389692 c -2.633812,1.421432 -5.602084,2.508408 -8.904812,3.260928 -3.260916,0.79432 -6.772676,1.191492 -10.535272,1.191492 -4.515116,0 -8.549456,-0.668908 -12.103028,-2.006716 -3.553564,-1.337816 -6.56364,-3.260924 -9.030232,-5.76932 C 33.184032,83.534156 31.28183,80.503176 29.944018,76.949608 28.648004,73.396048 28,69.424408 28,65.034716 V 63.84322 c 0,-4.013436 0.6271,-7.713324 1.8813,-11.099652 1.296008,-3.428152 3.114596,-6.375516 5.455768,-8.842112 2.38298,-2.466588 5.246736,-4.3897 8.59126,-5.769316 C 47.314668,36.710716 51.11908,36 55.341544,36 c 4.640544,0 8.737588,0.668908 12.291152,2.006724 3.553564,1.296004 6.54274,3.135496 8.967528,5.518476 2.424784,2.38298 4.264276,5.225832 5.518476,8.528552 C 83.3729,55.356472 84,58.993656 84,62.965284 v 0.81522 C 84,65.62 83.81188,67.5013 83.435616,69.4244 c -0.33444,1.881304 -0.94066,3.616288 -1.818596,5.204944 -0.87794,1.54684 -2.069428,2.821948 -3.574468,3.825304 -1.463232,1.00336 -3.344532,1.50504 -5.643896,1.505036 z M 48.757,66.351624 c 0,2.382976 0.522584,4.28518 1.567748,5.706604 1.045164,1.37962 2.696524,2.069432 4.954088,2.069432 0.87794,0 1.714064,-0.10456 2.508396,-0.31356 0.836132,-0.20904 1.567744,-0.5644 2.194856,-1.066072 0.668896,-0.50168 1.191484,-1.170592 1.567744,-2.006724 0.37624,-0.836124 0.564384,-1.881292 0.564384,-3.1355 v -5.518468 c 0,-0.83612 -0.1254,-1.630452 -0.37628,-2.382976 -0.20904,-0.794324 -0.585292,-1.484136 -1.128768,-2.069428 -0.543488,-0.627104 -1.254204,-1.107876 -2.132144,-1.442328 -0.877936,-0.37628 -1.944008,-0.564388 -3.198204,-0.564388 -2.048524,0 -3.658084,0.564388 -4.828668,1.693168 -1.128776,1.12878 -1.693164,3.177308 -1.693164,6.145572 z"
     style="font-weight:bold;font-size:4.74057px;line-height:1.25;font-family:'나눔스퀘어';-inkscape-font-specification:'나눔스퀘어 Bold';fill:#ffffff;stroke-width:1.56776"
     id="path6805"
     sodipodi:nodetypes="scccscsscsscsscccscscccsscccsscssscccsccccssscsscccscsssscccsscsccssscccscss" />
</svg>
