<?xml version="1.0" encoding="UTF-8" standalone="no"?>
<!-- Created with Inkscape (http://www.inkscape.org/) -->

<svg
   width="128"
   height="128"
   viewBox="0 0 128 128.00001"
   version="1.1"
   id="svg1"
   inkscape:version="1.4.2 (ebf0e940d0, 2025-05-08)"
   sodipodi:docname="gnome-color-chooser.svg"
   xmlns:inkscape="http://www.inkscape.org/namespaces/inkscape"
   xmlns:sodipodi="http://sodipodi.sourceforge.net/DTD/sodipodi-0.dtd"
   xmlns:xlink="http://www.w3.org/1999/xlink"
   xmlns="http://www.w3.org/2000/svg"
   xmlns:svg="http://www.w3.org/2000/svg">
  <sodipodi:namedview
     id="namedview1"
     pagecolor="#ffffff"
     bordercolor="#000000"
     borderopacity="0.25"
     inkscape:showpageshadow="2"
     inkscape:pageopacity="0.0"
     inkscape:pagecheckerboard="0"
     inkscape:deskcolor="#d1d1d1"
     inkscape:document-units="px"
     inkscape:zoom="6.2109375"
     inkscape:cx="64"
     inkscape:cy="64"
     inkscape:window-width="1920"
     inkscape:window-height="1010"
     inkscape:window-x="0"
     inkscape:window-y="0"
     inkscape:window-maximized="1"
     inkscape:current-layer="svg1" />
  <defs
     id="defs1">
    <linearGradient
       inkscape:collect="always"
       xlink:href="#4852"
       id="linearGradient4"
       x1="16"
       y1="30"
       x2="16"
       y2="2"
       gradientUnits="userSpaceOnUse"
       gradientTransform="scale(4)" />
    <linearGradient
       inkscape:collect="always"
       id="4852">
      <stop
         style="stop-color:#272727;stop-opacity:1;"
         offset="0"
         id="stop14555" />
      <stop
         style="stop-color:#5d5d5d;stop-opacity:1;"
         offset="1"
         id="stop14557" />
    </linearGradient>
    <radialGradient
       inkscape:collect="always"
       xlink:href="#linearGradient10051"
       id="radialGradient1174"
       cx="14.852401"
       cy="30.071783"
       fx="14.852401"
       fy="30.071783"
       r="14"
       gradientUnits="userSpaceOnUse"
       gradientTransform="matrix(-3.428571,-3.428571,3.2324884,-3.2324882,67.135776,170.57688)" />
    <linearGradient
       inkscape:collect="always"
       id="linearGradient10051">
      <stop
         style="stop-color:#aa3ad4;stop-opacity:1"
         offset="0"
         id="stop10047" />
      <stop
         style="stop-color:#aa3ad4;stop-opacity:0"
         offset="1"
         id="stop10049" />
    </linearGradient>
    <radialGradient
       inkscape:collect="always"
       xlink:href="#linearGradient1603"
       id="radialGradient1208"
       gradientUnits="userSpaceOnUse"
       gradientTransform="matrix(3.428571,-3.428571,-3.2324884,-3.2324882,60.861144,170.57688)"
       cx="14.852401"
       cy="30.071783"
       fx="14.852401"
       fy="30.071783"
       r="14" />
    <linearGradient
       inkscape:collect="always"
       id="linearGradient1603">
      <stop
         style="stop-color:#ff910c;stop-opacity:1;"
         offset="0"
         id="stop1599" />
      <stop
         style="stop-color:#ff910c;stop-opacity:0;"
         offset="1"
         id="stop1601" />
    </linearGradient>
    <radialGradient
       inkscape:collect="always"
       xlink:href="#linearGradient5569"
       id="radialGradient1243"
       gradientUnits="userSpaceOnUse"
       gradientTransform="matrix(3.428571,3.428571,-3.2324884,3.2324882,60.861144,-42.577004)"
       cx="15.190269"
       cy="30.646524"
       fx="15.190269"
       fy="30.646524"
       r="14" />
    <linearGradient
       inkscape:collect="always"
       id="linearGradient5569">
      <stop
         style="stop-color:#f5cc24;stop-opacity:1;"
         offset="0"
         id="stop5565" />
      <stop
         style="stop-color:#f5cc24;stop-opacity:0.00045133"
         offset="1"
         id="stop5567" />
    </linearGradient>
    <radialGradient
       inkscape:collect="always"
       xlink:href="#linearGradient3954"
       id="radialGradient1278"
       gradientUnits="userSpaceOnUse"
       gradientTransform="matrix(-3.428571,3.428571,3.2324884,3.2324882,67.135776,-42.577004)"
       cx="15.190269"
       cy="30.646524"
       fx="15.190269"
       fy="30.646524"
       r="14" />
    <linearGradient
       inkscape:collect="always"
       id="linearGradient3954">
      <stop
         style="stop-color:#24c2f5;stop-opacity:1;"
         offset="0"
         id="stop3950" />
      <stop
         style="stop-color:#24c2f5;stop-opacity:0;"
         offset="1"
         id="stop3952" />
    </linearGradient>
    <radialGradient
       inkscape:collect="always"
       xlink:href="#linearGradient7221"
       id="radialGradient1313"
       gradientUnits="userSpaceOnUse"
       gradientTransform="matrix(4.5714284,0,0,-4.5714284,-9.1443916,137.1428)"
       cx="16"
       cy="28.250002"
       fx="16"
       fy="28.250002"
       r="14" />
    <linearGradient
       inkscape:collect="always"
       id="linearGradient7221">
      <stop
         style="stop-color:#f43434;stop-opacity:1;"
         offset="0"
         id="stop7217" />
      <stop
         style="stop-color:#f43434;stop-opacity:0;"
         offset="1"
         id="stop7219" />
    </linearGradient>
    <radialGradient
       inkscape:collect="always"
       xlink:href="#linearGradient15132"
       id="radialGradient1348"
       gradientUnits="userSpaceOnUse"
       gradientTransform="matrix(0,4.5714284,-4.5714284,0,137.14132,-9.1429192)"
       cx="16"
       cy="28.250002"
       fx="16"
       fy="28.250002"
       r="14" />
    <linearGradient
       inkscape:collect="always"
       id="linearGradient15132">
      <stop
         style="stop-color:#f5e224;stop-opacity:1;"
         offset="0"
         id="stop15128" />
      <stop
         style="stop-color:#f5e224;stop-opacity:0;"
         offset="1"
         id="stop15130" />
    </linearGradient>
    <radialGradient
       inkscape:collect="always"
       xlink:href="#linearGradient12059"
       id="radialGradient991"
       cx="16"
       cy="28.250002"
       fx="16"
       fy="28.250002"
       r="14"
       gradientUnits="userSpaceOnUse"
       gradientTransform="matrix(4.5714284,0,0,4.5714284,-9.1443916,-9.1429168)" />
    <linearGradient
       inkscape:collect="always"
       id="linearGradient12059">
      <stop
         style="stop-color:#47c12a;stop-opacity:1;"
         offset="0"
         id="stop12055" />
      <stop
         style="stop-color:#47c12a;stop-opacity:0;"
         offset="1"
         id="stop12057" />
    </linearGradient>
  </defs>
  <rect
     style="opacity:0.2;fill:#000000;stroke-width:7"
     id="rect1"
     width="112"
     height="112"
     x="8"
     y="9"
     ry="24" />
  <rect
     style="fill:url(#linearGradient4);stroke-width:4"
     id="rect2"
     width="112"
     height="112"
     x="8"
     y="8"
     ry="24" />
  <path
     id="rect3072"
     style="fill:#ffffff;stroke-width:12;stroke-linecap:round;stroke-linejoin:round"
     d="m 91.693772,28.296812 c -2.044952,0 -4.0893,0.784616 -5.656248,2.351564 l -8.484376,8.484376 -2.828124,-2.828124 c -1.56694,-1.566944 -4.089312,-1.566944 -5.656252,0 -1.566948,1.566944 -1.566944,4.089304 0,5.656248 l 2.828124,2.828128 -31.117188,31.109372 v 5.656252 L 29.467212,92.87494 c -1.566952,1.566948 -1.566948,4.0893 0,5.656248 1.566944,1.566952 4.0893,1.566952 5.656248,0 L 46.443772,87.218692 h 5.656252 l 31.109372,-31.117188 2.828128,2.828124 c 1.566948,1.566948 4.089304,1.566948 5.656248,0 1.566944,-1.56694 1.566944,-4.089308 0,-5.656252 l -2.828124,-2.828124 8.484376,-8.484376 c 3.133896,-3.133896 3.133896,-8.178604 0,-11.3125 -1.566948,-1.566948 -3.611296,-2.351564 -5.656252,-2.351564 z" />
  <path
     id="path371"
     style="fill:url(#radialGradient1174);fill-opacity:1;stroke-width:4;stroke-linecap:round;stroke-linejoin:round"
     d="m 91.693772,28.296812 c -2.044952,0 -4.0893,0.784616 -5.656248,2.351564 l -8.484376,8.484376 -2.828124,-2.828124 c -1.56694,-1.566944 -4.089312,-1.566944 -5.656252,0 -1.566948,1.566944 -1.566944,4.089304 0,5.656248 l 2.828124,2.828128 -31.117188,31.109372 v 5.656252 L 29.467212,92.87494 c -1.566952,1.566948 -1.566948,4.0893 0,5.656248 1.566944,1.566952 4.0893,1.566952 5.656248,0 L 46.443772,87.218692 h 5.656252 l 31.109372,-31.117188 2.828128,2.828124 c 1.566948,1.566948 4.089304,1.566948 5.656248,0 1.566944,-1.56694 1.566944,-4.089308 0,-5.656252 l -2.828124,-2.828124 8.484376,-8.484376 c 3.133896,-3.133892 3.133896,-8.178604 0,-11.3125 -1.566948,-1.566948 -3.611296,-2.351564 -5.656252,-2.351564 z" />
  <path
     id="path1184"
     style="fill:url(#radialGradient1208);fill-opacity:1;stroke-width:4;stroke-linecap:round;stroke-linejoin:round"
     d="m 91.693772,28.296812 c -2.044952,0 -4.0893,0.784616 -5.656248,2.351564 l -8.484376,8.484376 -2.828124,-2.828124 c -1.56694,-1.566944 -4.089312,-1.566944 -5.656252,0 -1.566948,1.566944 -1.566944,4.089304 0,5.656248 l 2.828124,2.828128 -31.117188,31.109372 v 5.656252 L 29.467212,92.87494 c -1.566952,1.566948 -1.566948,4.0893 0,5.656248 1.566944,1.566952 4.0893,1.566952 5.656248,0 L 46.443772,87.218692 h 5.656252 l 31.109372,-31.117188 2.828128,2.828124 c 1.566948,1.566948 4.089304,1.566948 5.656248,0 1.566944,-1.56694 1.566944,-4.089308 0,-5.656252 l -2.828124,-2.828124 8.484376,-8.484376 c 3.133896,-3.133892 3.133896,-8.178604 0,-11.3125 -1.566948,-1.566948 -3.611296,-2.351564 -5.656252,-2.351564 z" />
  <path
     id="path1219"
     style="fill:url(#radialGradient1243);fill-opacity:1;stroke-width:4;stroke-linecap:round;stroke-linejoin:round"
     d="m 91.693772,28.296812 c -2.044952,0 -4.0893,0.784616 -5.656248,2.351564 l -8.484376,8.484376 -2.828124,-2.828124 c -1.56694,-1.566944 -4.089312,-1.566944 -5.656252,0 -1.566948,1.566944 -1.566944,4.089304 0,5.656248 l 2.828124,2.828128 -31.117188,31.109372 v 5.656252 L 29.467212,92.87494 c -1.566952,1.566948 -1.566948,4.0893 0,5.656248 1.566944,1.566952 4.0893,1.566952 5.656248,0 L 46.443772,87.218692 h 5.656252 l 31.109372,-31.117188 2.828128,2.828124 c 1.566948,1.566948 4.089304,1.566948 5.656248,0 1.566944,-1.56694 1.566944,-4.089308 0,-5.656252 l -2.828124,-2.828124 8.484376,-8.484376 c 3.133896,-3.133892 3.133896,-8.178604 0,-11.3125 -1.566948,-1.566948 -3.611296,-2.351564 -5.656252,-2.351564 z" />
  <path
     id="path1254"
     style="fill:url(#radialGradient1278);fill-opacity:1;stroke-width:4;stroke-linecap:round;stroke-linejoin:round"
     d="m 91.693772,28.296812 c -2.044952,0 -4.0893,0.784616 -5.656248,2.351564 l -8.484376,8.484376 -2.828124,-2.828124 c -1.56694,-1.566944 -4.089312,-1.566944 -5.656252,0 -1.566948,1.566944 -1.566944,4.089304 0,5.656248 l 2.828124,2.828128 -31.117188,31.109372 v 5.656252 L 29.467212,92.87494 c -1.566952,1.566948 -1.566948,4.0893 0,5.656248 1.566944,1.566952 4.0893,1.566952 5.656248,0 L 46.443772,87.218692 h 5.656252 l 31.109372,-31.117188 2.828128,2.828124 c 1.566948,1.566948 4.089304,1.566948 5.656248,0 1.566944,-1.56694 1.566944,-4.089308 0,-5.656252 l -2.828124,-2.828124 8.484376,-8.484376 c 3.133896,-3.133892 3.133896,-8.178604 0,-11.3125 -1.566948,-1.566948 -3.611296,-2.351564 -5.656252,-2.351564 z" />
  <path
     id="path1289"
     style="fill:url(#radialGradient1313);fill-opacity:1;stroke-width:4;stroke-linecap:round;stroke-linejoin:round"
     d="m 91.693772,28.296812 c -2.044952,0 -4.089296,0.784616 -5.656248,2.351564 l -8.484376,8.484376 -2.828124,-2.828124 c -1.566936,-1.566944 -4.089312,-1.566944 -5.656252,0 -1.566948,1.566944 -1.566944,4.089304 0,5.656248 l 2.828124,2.828128 -31.117188,31.109372 v 5.656252 L 29.467212,92.87494 c -1.566952,1.566948 -1.566948,4.0893 0,5.656248 1.566944,1.566952 4.0893,1.566952 5.656248,0 L 46.443772,87.218692 h 5.656252 l 31.109372,-31.117188 2.828128,2.828124 c 1.566948,1.566948 4.089304,1.566948 5.656248,0 1.566944,-1.56694 1.566944,-4.089308 0,-5.656252 l -2.828124,-2.828124 8.484376,-8.484376 c 3.133896,-3.133892 3.133896,-8.178604 0,-11.3125 -1.566948,-1.566948 -3.611292,-2.351564 -5.656252,-2.351564 z" />
  <path
     id="path1324"
     style="fill:url(#radialGradient1348);fill-opacity:1;stroke-width:4;stroke-linecap:round;stroke-linejoin:round"
     d="m 91.693772,28.296812 c -2.044952,0 -4.0893,0.784616 -5.656248,2.351564 l -8.484376,8.484376 -2.828124,-2.828124 c -1.56694,-1.566944 -4.089312,-1.566944 -5.656252,0 -1.566948,1.566944 -1.566944,4.089304 0,5.656248 l 2.828124,2.828128 -31.117188,31.109372 v 5.656252 L 29.467212,92.87494 c -1.566952,1.566948 -1.566948,4.0893 0,5.656248 1.566944,1.566952 4.0893,1.566952 5.656248,0 L 46.443772,87.218692 h 5.656252 l 31.109372,-31.117188 2.828128,2.828124 c 1.566948,1.566948 4.089304,1.566948 5.656248,0 1.566944,-1.56694 1.566944,-4.089308 0,-5.656252 l -2.828124,-2.828124 8.484376,-8.484376 c 3.133896,-3.133892 3.133896,-8.178604 0,-11.3125 -1.566948,-1.566948 -3.611296,-2.351564 -5.656252,-2.351564 z" />
  <path
     id="path404"
     style="fill:url(#radialGradient991);fill-opacity:1;stroke-width:4;stroke-linecap:round;stroke-linejoin:round"
     d="m 91.693772,28.296812 c -2.044952,0 -4.0893,0.784616 -5.656248,2.351564 l -8.484376,8.484376 -2.828124,-2.828124 c -1.56694,-1.566944 -4.089312,-1.566944 -5.656252,0 -1.566948,1.566944 -1.566944,4.089304 0,5.656248 l 2.828124,2.828128 -31.117188,31.109372 v 5.656252 L 29.467212,92.87494 c -1.566948,1.566948 -1.566948,4.0893 0,5.656248 1.566944,1.566952 4.0893,1.566952 5.656248,0 L 46.443772,87.218692 h 5.656252 l 31.109372,-31.117188 2.828128,2.828124 c 1.566948,1.566948 4.089304,1.566948 5.656248,0 1.566944,-1.56694 1.566944,-4.089308 0,-5.656252 l -2.828124,-2.828124 8.484376,-8.484376 c 3.133896,-3.133892 3.133896,-8.178604 0,-11.3125 -1.566948,-1.566948 -3.611296,-2.351564 -5.656252,-2.351564 z" />
  <path
     id="rect3065"
     style="opacity:0.5;fill:#ffffff;stroke-width:32;stroke-linecap:round;stroke-linejoin:round"
     d="m 97.351984,30.64642 c -3.133896,-3.133892 -8.179816,-3.133892 -11.313712,0 l -8.48528,8.485284 -2.828428,-2.828428 c -1.56694,-1.566944 -4.089912,-1.566944 -5.656852,0 -1.566948,1.566944 -1.566944,4.089912 0,5.656856 l 8.48528,8.48528 8.48528,8.48528 c 1.566948,1.566948 4.089912,1.566948 5.656856,0 1.566944,-1.56694 1.566944,-4.089908 0,-5.656852 l -2.828428,-2.828428 8.485284,-8.48528 c 3.133896,-3.133896 3.133896,-8.179816 0,-11.313712 z" />
</svg>
