<?xml version="1.0" encoding="UTF-8" standalone="no"?>
<!-- Created with Inkscape (http://www.inkscape.org/) -->

<svg
   width="128"
   height="128"
   viewBox="0 0 128 128.00001"
   version="1.1"
   id="svg1"
   inkscape:version="1.4.2 (ebf0e940d0, 2025-05-08)"
   sodipodi:docname="jockey.svg"
   xmlns:inkscape="http://www.inkscape.org/namespaces/inkscape"
   xmlns:sodipodi="http://sodipodi.sourceforge.net/DTD/sodipodi-0.dtd"
   xmlns:xlink="http://www.w3.org/1999/xlink"
   xmlns="http://www.w3.org/2000/svg"
   xmlns:svg="http://www.w3.org/2000/svg">
  <sodipodi:namedview
     id="namedview1"
     pagecolor="#ffffff"
     bordercolor="#000000"
     borderopacity="0.25"
     inkscape:showpageshadow="2"
     inkscape:pageopacity="0.0"
     inkscape:pagecheckerboard="0"
     inkscape:deskcolor="#d1d1d1"
     inkscape:document-units="px"
     inkscape:zoom="6.21875"
     inkscape:cx="63.919598"
     inkscape:cy="64"
     inkscape:window-width="1920"
     inkscape:window-height="1011"
     inkscape:window-x="0"
     inkscape:window-y="0"
     inkscape:window-maximized="1"
     inkscape:current-layer="svg1" />
  <defs
     id="defs1">
    <linearGradient
       inkscape:collect="always"
       xlink:href="#4852"
       id="linearGradient4"
       x1="16"
       y1="30"
       x2="16"
       y2="2"
       gradientUnits="userSpaceOnUse"
       gradientTransform="scale(4)" />
    <linearGradient
       inkscape:collect="always"
       id="4852">
      <stop
         style="stop-color:#272727;stop-opacity:1;"
         offset="0"
         id="stop14555" />
      <stop
         style="stop-color:#5d5d5d;stop-opacity:1;"
         offset="1"
         id="stop14557" />
    </linearGradient>
    <linearGradient
       inkscape:collect="always"
       xlink:href="#linearGradient981"
       id="linearGradient6"
       x1="11"
       y1="4"
       x2="11"
       y2="18"
       gradientUnits="userSpaceOnUse"
       gradientTransform="matrix(4.8571424,0,0,4.8571424,10.57143,10.57143)" />
    <linearGradient
       inkscape:collect="always"
       id="linearGradient981">
      <stop
         style="stop-color:#858585;stop-opacity:1;"
         offset="0"
         id="stop977" />
      <stop
         style="stop-color:#595959;stop-opacity:1;"
         offset="1"
         id="stop979" />
    </linearGradient>
  </defs>
  <rect
     style="opacity:0.2;fill:#000000;stroke-width:7"
     id="rect1"
     width="112"
     height="112"
     x="8"
     y="9"
     ry="24" />
  <rect
     style="fill:url(#linearGradient4);stroke-width:4"
     id="rect2"
     width="112"
     height="112"
     x="8"
     y="8"
     ry="24" />
  <path
     id="rect7545"
     style="fill:#f2f2f2;stroke-width:8.47246;stroke-linecap:round;stroke-linejoin:round"
     d="m 50,22 c -1.107996,0 -2,0.892004 -2,2 V 48 H 24 c -1.107996,0 -2,0.892004 -2,2 0,1.107998 0.892004,2 2,2 H 48 V 62 H 24 c -1.107996,0 -2,0.892004 -2,2 0,1.107996 0.892004,2 2,2 H 48 V 76 H 24 c -1.107996,0 -2,0.892004 -2,2 0,1.107996 0.892004,2 2,2 h 24 v 24 c 0,1.108 0.892004,2 2,2 1.107996,0 2,-0.892 2,-2 V 80 h 10 v 24 c 0,1.108 0.892004,2 2,2 1.107996,0 2,-0.892 2,-2 V 80 h 10 v 24 c 0,1.108 0.892004,2 2,2 1.107996,0 2,-0.892 2,-2 V 80 h 24 c 1.108,0 2,-0.892004 2,-2 0,-1.107996 -0.892,-2 -2,-2 H 80 V 66 h 24 c 1.108,0 2,-0.892004 2,-2 0,-1.107996 -0.892,-2 -2,-2 H 80 V 52 h 24 c 1.108,0 2,-0.892002 2,-2 0,-1.107996 -0.892,-2 -2,-2 H 80 V 24 c 0,-1.107996 -0.892004,-2 -2,-2 -1.107996,0 -2,0.892004 -2,2 V 48 H 66 V 24 c 0,-1.107996 -0.892004,-2 -2,-2 -1.107996,0 -2,0.892004 -2,2 V 48 H 52 V 24 c 0,-1.107996 -0.892004,-2 -2,-2 z m 2,30 H 62 V 62 H 52 Z m 14,0 H 76 V 62 H 66 Z M 52,66 H 62 V 76 H 52 Z m 14,0 H 76 V 76 H 66 Z" />
  <rect
     style="opacity:0.2;fill:#000000;stroke-width:9.71428"
     id="rect3"
     width="68"
     height="68"
     x="30"
     y="31"
     ry="12" />
  <rect
     style="fill:url(#linearGradient6);stroke-width:9.71428"
     id="rect4"
     width="68"
     height="68"
     x="30"
     y="30"
     ry="12" />
</svg>
