<?xml version="1.0" encoding="UTF-8" standalone="no"?>
<!-- Created with Inkscape (http://www.inkscape.org/) -->

<svg
   width="128"
   height="128"
   viewBox="0 0 128 128.00001"
   version="1.1"
   id="svg1"
   inkscape:version="1.4.2 (ebf0e940d0, 2025-05-08)"
   sodipodi:docname="konqueror.svg"
   xmlns:inkscape="http://www.inkscape.org/namespaces/inkscape"
   xmlns:sodipodi="http://sodipodi.sourceforge.net/DTD/sodipodi-0.dtd"
   xmlns:xlink="http://www.w3.org/1999/xlink"
   xmlns="http://www.w3.org/2000/svg"
   xmlns:svg="http://www.w3.org/2000/svg">
  <sodipodi:namedview
     id="namedview1"
     pagecolor="#ffffff"
     bordercolor="#000000"
     borderopacity="0.25"
     inkscape:showpageshadow="2"
     inkscape:pageopacity="0.0"
     inkscape:pagecheckerboard="0"
     inkscape:deskcolor="#d1d1d1"
     inkscape:document-units="px"
     inkscape:zoom="6.21875"
     inkscape:cx="63.919598"
     inkscape:cy="64"
     inkscape:window-width="1920"
     inkscape:window-height="1011"
     inkscape:window-x="0"
     inkscape:window-y="0"
     inkscape:window-maximized="1"
     inkscape:current-layer="svg1" />
  <defs
     id="defs1">
    <linearGradient
       inkscape:collect="always"
       xlink:href="#4852"
       id="linearGradient4"
       x1="16"
       y1="30"
       x2="16"
       y2="2"
       gradientUnits="userSpaceOnUse"
       gradientTransform="scale(4)" />
    <linearGradient
       inkscape:collect="always"
       id="4852">
      <stop
         style="stop-color:#272727;stop-opacity:1;"
         offset="0"
         id="stop14555" />
      <stop
         style="stop-color:#5d5d5d;stop-opacity:1;"
         offset="1"
         id="stop14557" />
    </linearGradient>
  </defs>
  <rect
     style="opacity:0.2;fill:#000000;stroke-width:7"
     id="rect1"
     width="112"
     height="112"
     x="8"
     y="9"
     ry="24" />
  <rect
     style="fill:url(#linearGradient4);stroke-width:4"
     id="rect2"
     width="112"
     height="112"
     x="8"
     y="8"
     ry="24" />
  <circle
     style="fill:#3daee9;fill-opacity:1;stroke-width:2.9091;stroke-linecap:round"
     id="path1"
     cx="64"
     cy="64"
     r="32" />
  <path
     id="path3699"
     style="opacity:0.6;fill:#ffffff;stroke-width:4;stroke-linecap:round;stroke-linejoin:round"
     d="m 77.143984,21.82 c -1.518724,2.216752 -5.624004,6.882764 -8.28772,9.55582 l -1.180936,2.851036 c 2.62226,0.3252 5.246828,0.997896 7.806608,2.058192 2.55978,1.060296 4.891312,2.44046 6.975464,4.06474 l 1.18094,-2.851032 c 0.0068,-3.773668 0.4031,-9.975908 0.89668,-12.617288 z m -26.2837,0.0046 -7.390248,3.06114 c 0.49358,2.64138 0.88998,8.842276 0.896588,12.61594 l 1.17964,2.8479 c 4.277852,-3.330792 9.400376,-5.452608 14.780488,-6.122296 l -1.179636,-2.8479 c -2.663708,-2.673056 -6.768108,-7.338048 -8.286832,-9.5548 z m 52.256936,21.645532 c -2.64138,0.49358 -8.842276,0.88998 -12.61594,0.896588 l -2.8479,1.17964 c 3.330776,4.277852 5.4526,9.400376 6.122284,14.780492 l 2.847896,-1.17964 c 2.673056,-2.663708 7.33804,-6.768112 9.5548,-8.286832 z m -65.618464,0.894472 c -3.773668,-0.0068 -9.975908,-0.4031 -12.617288,-0.89668 L 21.82,50.85888 c 2.216752,1.518724 6.882764,5.624004 9.55582,8.28772 l 2.851036,1.180936 c 0.3252,-2.62226 0.997896,-5.246824 2.058192,-7.806608 1.060296,-2.559776 2.44046,-4.891312 4.06474,-6.975464 z m 56.277256,23.310804 c -0.3252,2.62226 -0.9979,5.246828 -2.058196,7.806608 -1.060296,2.55978 -2.44046,4.891312 -4.06474,6.975464 l 2.851032,1.18094 c 3.773668,0.0068 9.975912,0.4031 12.617292,0.89668 l 3.06146,-7.391036 c -2.21674,-1.51872 -6.88276,-5.624004 -9.555816,-8.28772 z m -59.548808,7.84e-4 -2.8479,1.179636 c -2.673056,2.663708 -7.338048,6.768112 -9.554798,8.286832 l 3.061142,7.390248 c 2.64138,-0.493584 8.842276,-0.889976 12.615936,-0.896592 l 2.8479,-1.179632 c -3.330776,-4.277856 -5.452596,-9.40038 -6.12228,-14.780492 z m 48.2294,19.977268 c -4.277856,3.33078 -9.40038,5.4526 -14.780496,6.122284 l 1.17964,2.847896 c 2.663708,2.673056 6.768112,7.33804 8.286832,9.5548 l 7.390248,-3.06114 c -0.493584,-2.64146 -0.889976,-8.842356 -0.896592,-12.61602 z m -36.91114,-3.04e-4 -1.18094,2.851032 c -0.0068,3.773668 -0.4031,9.975912 -0.89668,12.617292 l 7.391036,3.06146 c 1.518724,-2.21674 5.624004,-6.88276 8.28772,-9.555816 l 1.180936,-2.851032 c -2.62226,-0.3252 -5.246824,-0.997896 -7.806608,-2.058196 -2.559776,-1.060292 -4.891312,-2.44046 -6.975464,-4.06474 z" />
  <path
     id="path285"
     style="fill:#ffffff;stroke-width:7.2;stroke-linecap:round;stroke-linejoin:round"
     d="m 64.001432,28.001432 c -19.882192,0 -36,16.117808 -36,36 0,19.882192 16.117808,35.999998 36,35.999998 19.882192,0 35.999998,-16.117806 35.999998,-35.999998 0,-19.882192 -16.117806,-36 -35.999998,-36 z m 0,8 a 28,28 0 0 1 28,28 28,28 0 0 1 -28,28 28,28 0 0 1 -28,-28 28,28 0 0 1 28,-28 z" />
  <path
     d="m 63.987612,36.001432 c -2.033232,0 -4.010464,0.224 -5.916616,0.631048 L 55.587612,41.601212 51.835604,38.7884 C 45.106992,42.023352 39.89468,47.84928 37.480216,55.006236 l 5.507388,-2.203304 4.2,3.1985 1.4,-4.598444 18.2,-9.799624 -1.109232,-5.545936 c -0.56,-0.0324 -1.122148,-0.05376 -1.690768,-0.05376 m 20.735088,9.194408 -1.13508,3.405104 1.4,1.399944 -5.6,8.399684 2.80182,9.598624 9.283408,1.36402 c 0.33388,-1.735924 0.514752,-3.525704 0.514752,-5.362868 0,-4.794272 -1.199688,-9.295636 -3.306148,-13.234872 l -2.293832,-0.764584 0.83354,-1.67132 C 86.471616,47.220384 85.618696,46.188728 84.722696,45.198 M 36.543304,58.40272 c -0.308,1.53348 -0.484624,3.118652 -0.534184,4.733972 l 9.778464,3.665708 -1.4,-4.199844 -2.8,-2.601124 z m 9.244308,8.39968 7,16.799352 v 6.073612 c 3.428924,1.490408 7.21108,2.326068 11.2,2.326068 0.27788,0 0.551376,-0.0108 0.829228,-0.0196 l 8.970772,-15.9804 -22.4,-11.998932 z"
     style="fill:#97e286;fill-opacity:1;stroke-width:5.6"
     id="path677"
     sodipodi:nodetypes="cccccccccccccccccscccccccccccccscccc" />
</svg>
