<?xml version="1.0" encoding="UTF-8" standalone="no"?>
<!-- Created with Inkscape (http://www.inkscape.org/) -->

<svg
   width="128"
   height="128"
   viewBox="0 0 128 128.00001"
   version="1.1"
   id="svg1"
   inkscape:version="1.4.2 (ebf0e940d0, 2025-05-08)"
   sodipodi:docname="kvantum.svg"
   xmlns:inkscape="http://www.inkscape.org/namespaces/inkscape"
   xmlns:sodipodi="http://sodipodi.sourceforge.net/DTD/sodipodi-0.dtd"
   xmlns:xlink="http://www.w3.org/1999/xlink"
   xmlns="http://www.w3.org/2000/svg"
   xmlns:svg="http://www.w3.org/2000/svg">
  <sodipodi:namedview
     id="namedview1"
     pagecolor="#ffffff"
     bordercolor="#000000"
     borderopacity="0.25"
     inkscape:showpageshadow="2"
     inkscape:pageopacity="0.0"
     inkscape:pagecheckerboard="0"
     inkscape:deskcolor="#d1d1d1"
     inkscape:document-units="px"
     inkscape:zoom="6.15625"
     inkscape:cx="63.918782"
     inkscape:cy="64"
     inkscape:window-width="1920"
     inkscape:window-height="1011"
     inkscape:window-x="0"
     inkscape:window-y="0"
     inkscape:window-maximized="1"
     inkscape:current-layer="svg1" />
  <defs
     id="defs1">
    <linearGradient
       inkscape:collect="always"
       id="linearGradient1690">
      <stop
         style="stop-color:#eb7b51;stop-opacity:1;"
         offset="0"
         id="stop1686" />
      <stop
         style="stop-color:#ee5b85;stop-opacity:1;"
         offset="0.30000001"
         id="stop1692" />
      <stop
         style="stop-color:#c05fe9;stop-opacity:1;"
         offset="0.68692034"
         id="stop1694" />
      <stop
         style="stop-color:#2f95f5;stop-opacity:1;"
         offset="1"
         id="stop1696" />
    </linearGradient>
    <linearGradient
       inkscape:collect="always"
       xlink:href="#4852"
       id="linearGradient4"
       x1="30"
       y1="2"
       x2="2"
       y2="30"
       gradientUnits="userSpaceOnUse"
       gradientTransform="scale(4)" />
    <linearGradient
       inkscape:collect="always"
       id="4852">
      <stop
         style="stop-color:#272727;stop-opacity:1;"
         offset="0"
         id="stop14555" />
      <stop
         style="stop-color:#5d5d5d;stop-opacity:1;"
         offset="1"
         id="stop14557" />
    </linearGradient>
    <linearGradient
       inkscape:collect="always"
       xlink:href="#linearGradient1690"
       id="linearGradient2"
       x1="2"
       y1="30"
       x2="30"
       y2="2"
       gradientUnits="userSpaceOnUse"
       gradientTransform="scale(4)" />
  </defs>
  <rect
     style="opacity:0.2;fill:#000000;stroke-width:7"
     id="rect1"
     width="112"
     height="112"
     x="8"
     y="9"
     ry="24" />
  <rect
     style="fill:url(#linearGradient4);stroke-width:4"
     id="rect2"
     width="112"
     height="112"
     x="8"
     y="8"
     ry="24" />
  <path
     d="m 35.999756,40 4.88e-4,5.191208 4.447424,0.33676 0.742628,1.010176 -7.382788,34.950668 -1.135804,1.05254 L 28,82.880232 v 5.119456 l 19.999684,3.04e-4 6.32e-4,-5.119188 -4.099276,-0.29528 -0.786324,-1.094496 3.014316,-13.603316 h 4.63044 l 6.64008,12.269732 c 2.71388,5.371324 4.617704,7.67408 10.484336,7.745328 1.686856,0.0208 2.365456,0.14024 6.916172,0 C 90.495824,75.27602 98.507508,64.58668 99.773328,60.235184 100.53996,57.599632 99.3228,55.983216 96.714704,55.983216 c -1.272244,0 -2.72878,0.516268 -4.367644,1.558244 L 91.167588,67.655788 C 87.955272,71.700956 83.67292,76.107416 78.4554,80.704396 l 4.558456,-18.451268 c 0.716152,-3.555268 0.952256,-5.452176 -1.44186,-6.187832 l -10.702276,2.273436 -0.5672,1.93592 4.93562,0.758148 c 0.34312,1.225688 -1.144428,4.957312 -1.893756,9.064388 l -2.402648,12.753764 c -0.038,0.13116 -0.06164,0.27512 -0.0874,0.420928 -1.55792,-0.80658 -2.54,-2.242832 -3.66952,-4.419536 L 57.792668,61.95228 74.96056,45.86552 l 5.039796,-0.547164 -7.12e-4,-5.317688 -20.000024,1.44e-4 7.6e-4,5.317956 7.009476,0.33632 0.436848,1.136572 -18.11432,15.736812 h -2.18424 l 3.349024,-15.98924 0.961064,-1.010172 4.541992,-0.33664 -4.52e-4,-5.19174 z"
     style="fill:url(#linearGradient2);stroke-width:4"
     id="path1445" />
</svg>
