<?xml version="1.0" encoding="UTF-8" standalone="no"?>
<!-- Created with Inkscape (http://www.inkscape.org/) -->

<svg
   width="128"
   height="128"
   viewBox="0 0 128 128.00001"
   version="1.1"
   id="svg1"
   inkscape:version="1.4.2 (ebf0e940d0, 2025-05-08)"
   sodipodi:docname="libreoffice-base.svg"
   xmlns:inkscape="http://www.inkscape.org/namespaces/inkscape"
   xmlns:sodipodi="http://sodipodi.sourceforge.net/DTD/sodipodi-0.dtd"
   xmlns:xlink="http://www.w3.org/1999/xlink"
   xmlns="http://www.w3.org/2000/svg"
   xmlns:svg="http://www.w3.org/2000/svg">
  <sodipodi:namedview
     id="namedview1"
     pagecolor="#ffffff"
     bordercolor="#000000"
     borderopacity="0.25"
     inkscape:showpageshadow="2"
     inkscape:pageopacity="0.0"
     inkscape:pagecheckerboard="0"
     inkscape:deskcolor="#d1d1d1"
     inkscape:document-units="px"
     inkscape:zoom="6.21875"
     inkscape:cx="63.919598"
     inkscape:cy="64"
     inkscape:window-width="1920"
     inkscape:window-height="1011"
     inkscape:window-x="0"
     inkscape:window-y="0"
     inkscape:window-maximized="1"
     inkscape:current-layer="svg1" />
  <defs
     id="defs1">
    <linearGradient
       inkscape:collect="always"
       xlink:href="#4852"
       id="linearGradient4"
       x1="16"
       y1="30"
       x2="16"
       y2="2"
       gradientUnits="userSpaceOnUse"
       gradientTransform="scale(4)" />
    <linearGradient
       inkscape:collect="always"
       id="4852">
      <stop
         style="stop-color:#272727;stop-opacity:1;"
         offset="0"
         id="stop14555" />
      <stop
         style="stop-color:#5d5d5d;stop-opacity:1;"
         offset="1"
         id="stop14557" />
    </linearGradient>
  </defs>
  <rect
     style="opacity:0.2;fill:#000000;stroke-width:7"
     id="rect1"
     width="112"
     height="112"
     x="8"
     y="9"
     ry="24" />
  <rect
     style="fill:url(#linearGradient4);stroke-width:4"
     id="rect2"
     width="112"
     height="112"
     x="8"
     y="8"
     ry="24" />
  <path
     id="path525"
     style="fill:#e88ff7;fill-opacity:1;stroke-width:3.87298;stroke-linecap:round;stroke-linejoin:round"
     d="m 47,40 c -8.284246,0 -15,1.615656 -15,4 v 6 c 0,2.384344 6.715754,4 15,4 8.284246,0 15,-1.615656 15,-4 V 44 C 62,41.615656 55.284246,40 47,40 Z M 32,54 v 8 c 0,2.384342 6.715762,4 15,4 8.284238,0 15,-1.615658 15,-4 v -8 c 0,2.384342 -6.715762,4 -15,4 -8.284238,0 -15,-1.615658 -15,-4 z m 0,12 v 8 c 0,2.384342 6.715762,4 15,4 8.284238,0 15,-1.615658 15,-4 v -8 c 0,2.384342 -6.715762,4 -15,4 -8.284238,0 -15,-1.615658 -15,-4 z m 0,12 v 8 c 0,2.384342 6.715762,4 15,4 8.284238,0 15,-1.615658 15,-4 v -8 c 0,2.384342 -6.715762,4 -15,4 -8.284238,0 -15,-1.615658 -15,-4 z" />
  <path
     id="rect523"
     style="fill:#ffffff;stroke-width:2"
     d="m 72,48 c -2.215998,0 -4,1.784002 -4,4 v 32 c 0,2.215998 1.784002,4 4,4 h 20 c 2.215998,0 4,-1.784002 4,-4 V 52 c 0,-2.215998 -1.784002,-4 -4,-4 z m 0,4 h 8 v 8 h -8 z m 12,0 h 8 v 8 H 84 Z M 72,64 h 8 v 8 h -8 z m 12,0 h 8 v 8 H 84 Z M 72,76 h 8 v 8 h -8 z m 12,0 h 8 v 8 h -8 z"
     sodipodi:nodetypes="ssssssssscccccccccccccccccccccccccccccc" />
</svg>
