<?xml version="1.0" encoding="UTF-8" standalone="no"?>
<!-- Created with Inkscape (http://www.inkscape.org/) -->

<svg
   width="128"
   height="128"
   viewBox="0 0 128 128.00001"
   version="1.1"
   id="svg1"
   inkscape:version="1.4.2 (ebf0e940d0, 2025-05-08)"
   sodipodi:docname="multimedia-photo-manager.svg"
   xmlns:inkscape="http://www.inkscape.org/namespaces/inkscape"
   xmlns:sodipodi="http://sodipodi.sourceforge.net/DTD/sodipodi-0.dtd"
   xmlns:xlink="http://www.w3.org/1999/xlink"
   xmlns="http://www.w3.org/2000/svg"
   xmlns:svg="http://www.w3.org/2000/svg">
  <sodipodi:namedview
     id="namedview1"
     pagecolor="#ffffff"
     bordercolor="#000000"
     borderopacity="0.25"
     inkscape:showpageshadow="2"
     inkscape:pageopacity="0.0"
     inkscape:pagecheckerboard="0"
     inkscape:deskcolor="#d1d1d1"
     inkscape:document-units="px"
     inkscape:zoom="6.21875"
     inkscape:cx="63.919598"
     inkscape:cy="64"
     inkscape:window-width="1920"
     inkscape:window-height="1011"
     inkscape:window-x="0"
     inkscape:window-y="0"
     inkscape:window-maximized="1"
     inkscape:current-layer="svg1" />
  <defs
     id="defs1">
    <linearGradient
       inkscape:collect="always"
       xlink:href="#4852"
       id="linearGradient4"
       x1="16"
       y1="30"
       x2="16"
       y2="2"
       gradientUnits="userSpaceOnUse"
       gradientTransform="scale(3.9999999)" />
    <linearGradient
       inkscape:collect="always"
       id="4852">
      <stop
         style="stop-color:#272727;stop-opacity:1;"
         offset="0"
         id="stop14555" />
      <stop
         style="stop-color:#5d5d5d;stop-opacity:1;"
         offset="1"
         id="stop14557" />
    </linearGradient>
    <linearGradient
       inkscape:collect="always"
       xlink:href="#linearGradient6"
       id="linearGradient7"
       x1="20"
       y1="0"
       x2="20"
       y2="18"
       gradientUnits="userSpaceOnUse"
       gradientTransform="matrix(2,0,0,2,23.999327,23.999999)" />
    <linearGradient
       id="linearGradient6"
       inkscape:collect="always">
      <stop
         style="stop-color:#ff8500;stop-opacity:1;"
         offset="0"
         id="stop6" />
      <stop
         style="stop-color:#ffc500;stop-opacity:1;"
         offset="1"
         id="stop7" />
    </linearGradient>
    <linearGradient
       inkscape:collect="always"
       xlink:href="#linearGradient12"
       id="linearGradient13"
       x1="20"
       y1="40"
       x2="20"
       y2="22"
       gradientUnits="userSpaceOnUse"
       gradientTransform="matrix(2,0,0,2,23.999327,23.999999)" />
    <linearGradient
       id="linearGradient12"
       inkscape:collect="always">
      <stop
         style="stop-color:#1e7dd9;stop-opacity:1;"
         offset="0"
         id="stop12" />
      <stop
         style="stop-color:#1eb1d9;stop-opacity:1;"
         offset="1"
         id="stop13" />
    </linearGradient>
    <linearGradient
       inkscape:collect="always"
       xlink:href="#linearGradient8"
       id="linearGradient9"
       x1="20"
       y1="-1.0658141e-14"
       x2="20"
       y2="18"
       gradientUnits="userSpaceOnUse"
       gradientTransform="matrix(0.99999997,1.7320508,-1.7320508,0.99999997,78.640342,9.358984)" />
    <linearGradient
       id="linearGradient8"
       inkscape:collect="always">
      <stop
         style="stop-color:#ffd737;stop-opacity:1;"
         offset="0"
         id="stop8" />
      <stop
         style="stop-color:#fff337;stop-opacity:1;"
         offset="1"
         id="stop9" />
    </linearGradient>
    <linearGradient
       inkscape:collect="always"
       xlink:href="#linearGradient14"
       id="linearGradient15"
       x1="20"
       y1="40"
       x2="20"
       y2="22"
       gradientUnits="userSpaceOnUse"
       gradientTransform="matrix(0.99999997,1.7320508,-1.7320508,0.99999997,78.640342,9.358984)" />
    <linearGradient
       id="linearGradient14"
       inkscape:collect="always">
      <stop
         style="stop-color:#9b38d2;stop-opacity:1;"
         offset="0"
         id="stop14" />
      <stop
         style="stop-color:#d238c7;stop-opacity:1;"
         offset="1"
         id="stop15" />
    </linearGradient>
    <linearGradient
       inkscape:collect="always"
       xlink:href="#linearGradient2"
       id="linearGradient5"
       x1="20"
       y1="2.6645353e-15"
       x2="20"
       y2="18"
       gradientUnits="userSpaceOnUse"
       gradientTransform="matrix(-0.99999997,1.7320508,1.7320508,0.99999997,49.358311,9.3589836)" />
    <linearGradient
       id="linearGradient2"
       inkscape:collect="always">
      <stop
         style="stop-color:#e11e1e;stop-opacity:1;"
         offset="0"
         id="stop2" />
      <stop
         style="stop-color:#d0005a;stop-opacity:1;"
         offset="1"
         id="stop3" />
    </linearGradient>
    <linearGradient
       inkscape:collect="always"
       xlink:href="#linearGradient10"
       id="linearGradient11"
       x1="20"
       y1="40"
       x2="20"
       y2="22"
       gradientUnits="userSpaceOnUse"
       gradientTransform="matrix(-0.99999997,1.7320508,1.7320508,0.99999997,49.358311,9.3589836)" />
    <linearGradient
       id="linearGradient10"
       inkscape:collect="always">
      <stop
         style="stop-color:#6fd91e;stop-opacity:1;"
         offset="0"
         id="stop10" />
      <stop
         style="stop-color:#b8d91e;stop-opacity:1;"
         offset="1"
         id="stop11" />
    </linearGradient>
  </defs>
  <rect
     style="opacity:0.2;fill:#000000;stroke-width:7"
     id="rect1"
     width="112"
     height="112"
     x="8"
     y="9"
     ry="24" />
  <rect
     style="fill:url(#linearGradient4);stroke-width:4"
     id="rect2"
     width="112"
     height="112"
     x="8"
     y="8"
     ry="24" />
  <path
     id="rect1-8"
     style="opacity:0.7;fill:url(#linearGradient7);fill-opacity:1;stroke-width:2;stroke-linecap:round"
     d="m 63.999328,24 c 0,0 -16,7.136 -16,16 v 4 c 0,8.864 16,16 16,16 0,0 16,-7.136 16,-16 v -4 c 0,-8.864 -16,-16 -16,-16 z" />
  <path
     id="rect1-3"
     style="opacity:0.7;fill:url(#linearGradient13);fill-opacity:1;stroke-width:2;stroke-linecap:round"
     d="m 63.999328,68 c 0,0 -16,7.136 -16,16 v 4 c 0,8.864 16,16 16,16 0,0 16,-7.136 16,-16 v -4 c 0,-8.864 -16,-16 -16,-16 z" />
  <path
     id="rect1-1"
     style="opacity:0.7;fill:url(#linearGradient9);stroke-width:2;stroke-linecap:round"
     d="m 98.640344,44 c 0,0 -14.179959,-10.288407 -21.856405,-5.856407 l -3.464103,2 C 65.643387,44.575595 67.463429,62 67.463429,62 c 0,0 14.179958,10.288405 21.856407,5.856405 l 3.464101,-2 C 100.46039,61.424405 98.640344,44 98.640344,44 Z" />
  <path
     id="rect1-3-2"
     style="opacity:0.7;fill:url(#linearGradient15);stroke-width:2;stroke-linecap:round"
     d="m 60.535227,66 c 0,0 -14.179958,-10.288407 -21.856407,-5.856407 l -3.464101,2 C 27.538271,66.575593 29.358312,84 29.358312,84 c 0,0 14.179957,10.288405 21.856407,5.856405 l 3.464101,-2 C 62.355269,83.424407 60.535227,66 60.535227,66 Z" />
  <path
     id="rect1-1-0"
     style="opacity:0.7;fill:url(#linearGradient5);stroke-width:2;stroke-linecap:round"
     d="m 29.358312,44 c 0,0 14.179957,-10.288407 21.856407,-5.856407 l 3.464101,2 C 62.355269,44.575595 60.535227,62 60.535227,62 c 0,0 -14.179958,10.288405 -21.856407,5.856405 l -3.464101,-2 C 27.538271,61.424405 29.358312,44 29.358312,44 Z" />
  <path
     id="rect1-3-2-6"
     style="opacity:0.7;fill:url(#linearGradient11);stroke-width:2;stroke-linecap:round"
     d="m 67.463429,66 c 0,0 14.179958,-10.288407 21.856407,-5.856407 l 3.464101,2 C 100.46039,66.575593 98.640344,84 98.640344,84 c 0,0 -14.179959,10.288405 -21.856405,5.856405 l -3.464103,-2 C 65.643387,83.424407 67.463429,66 67.463429,66 Z" />
</svg>
