<?xml version="1.0" encoding="UTF-8" standalone="no"?>
<!-- Created with Inkscape (http://www.inkscape.org/) -->

<svg
   width="128"
   height="128"
   viewBox="0 0 128 128.00001"
   version="1.1"
   id="svg1"
   inkscape:version="1.4.2 (ebf0e940d0, 2025-05-08)"
   sodipodi:docname="nvidia.svg"
   xmlns:inkscape="http://www.inkscape.org/namespaces/inkscape"
   xmlns:sodipodi="http://sodipodi.sourceforge.net/DTD/sodipodi-0.dtd"
   xmlns:xlink="http://www.w3.org/1999/xlink"
   xmlns="http://www.w3.org/2000/svg"
   xmlns:svg="http://www.w3.org/2000/svg">
  <sodipodi:namedview
     id="namedview1"
     pagecolor="#ffffff"
     bordercolor="#000000"
     borderopacity="0.25"
     inkscape:showpageshadow="2"
     inkscape:pageopacity="0.0"
     inkscape:pagecheckerboard="0"
     inkscape:deskcolor="#d1d1d1"
     inkscape:document-units="px"
     inkscape:zoom="6.140625"
     inkscape:cx="63.918575"
     inkscape:cy="64"
     inkscape:window-width="1920"
     inkscape:window-height="1011"
     inkscape:window-x="0"
     inkscape:window-y="0"
     inkscape:window-maximized="1"
     inkscape:current-layer="svg1" />
  <defs
     id="defs1">
    <linearGradient
       inkscape:collect="always"
       xlink:href="#4852"
       id="linearGradient4"
       x1="16"
       y1="30"
       x2="16"
       y2="2"
       gradientUnits="userSpaceOnUse"
       gradientTransform="scale(4)" />
    <linearGradient
       inkscape:collect="always"
       id="4852">
      <stop
         style="stop-color:#272727;stop-opacity:1;"
         offset="0"
         id="stop14555" />
      <stop
         style="stop-color:#5d5d5d;stop-opacity:1;"
         offset="1"
         id="stop14557" />
    </linearGradient>
    <linearGradient
       inkscape:collect="always"
       xlink:href="#linearGradient1270"
       id="linearGradient1272"
       x1="23.002001"
       y1="38"
       x2="23.002001"
       y2="10"
       gradientUnits="userSpaceOnUse"
       gradientTransform="matrix(4,0,0,4,-28.008,-32)" />
    <linearGradient
       inkscape:collect="always"
       id="linearGradient1270">
      <stop
         style="stop-color:#80d935;stop-opacity:1;"
         offset="0"
         id="stop1266" />
      <stop
         style="stop-color:#afd65f;stop-opacity:1;"
         offset="1"
         id="stop1268" />
    </linearGradient>
  </defs>
  <rect
     style="opacity:0.2;fill:#000000;stroke-width:7"
     id="rect1"
     width="112"
     height="112"
     x="8"
     y="9"
     ry="24" />
  <rect
     style="fill:url(#linearGradient4);stroke-width:4"
     id="rect2"
     width="100"
     height="112"
     x="8"
     y="8"
     ry="24" />
  <path
     id="path353"
     style="fill:url(#linearGradient1272);fill-opacity:1;stroke-width:4"
     d="m 60,8 v 35.460936 c 17.760844,-0.18068 29.289064,15.781252 29.289064,15.781252 0,0 -13.610692,17.507812 -27.789064,17.507812 -1.29944,0 -0.35736,-0.12184 -1.5,-0.33592 v 4.66406 c 0.24428,0.0328 0.36736,0.06784 0.414064,0.09376 v 0.008 h 0.008 l 0.008,0.008 v 0.008 0.008 0.008 0.008 l -0.008,0.008 -0.008,0.008 -0.008,0.008 v 0.008 h -0.008 v 0.008 h 0.008 v 0.008 h 0.008 l 0.008,0.008 c 0.04528,0.012 0.17144,0.0156 0.468748,0.0156 13.193976,0 22.73738,-7.126116 31.976564,-15.5625 1.531836,1.297832 7.804554,4.453936 9.093744,5.835936 -8.784376,7.780384 -29.260804,14.054688 -40.86718,14.054688 -0.34964,0 -0.494576,-0.0104 -0.546876,-0.0236 h -0.008 l -0.008,-0.008 -0.008,-0.008 v -0.008 -0.008 -0.008 -0.008 h -0.008 v -0.008 l -0.008,-0.008 -0.008,-0.008 C 60.45504,85.497836 60.33004,85.47114 60,85.4375 V 120 h 36 c 13.296,0 24,-10.704 24,-24 V 32 C 120,18.704 109.296,8 96,8 Z m 0,77.4375 V 81.078124 C 43.853632,78.926136 36.164064,60.109376 36.164064,60.109376 c 0,0 9.394368,-11.29294 23.835936,-12.46094 v 5.0625 c 0.1738,-0.0196 0.26316,-0.04556 0.29688,-0.06252 h 0.008 l 0.008,-0.008 v -0.008 h -0.008 v -0.008 h -0.008 l -0.008,-0.008 c -0.0348,-0.0172 -0.10944,-0.0356 -0.14064,-0.04688 h -0.008 v -0.008 h 0.008 l 0.008,-0.008 c 0.034,-0.0068 0.12892,-0.008 0.32812,-0.008 8.376784,0 13.343748,6.890624 13.343748,6.890624 l -5.835936,6.078124 C 64.931572,60.118804 65.091192,57.736736 60,57.085936 v 15.33594 c 1.15384,0.410484 0.281,0.656248 1.710936,0.656248 9.93558,0 19.203128,-13.617188 19.203128,-13.617188 0,0 -8.257816,-11.846548 -20.914064,-11.890624 v 0.05468 c -0.20172,-0.016 -0.716564,-0.0348 -0.8125,-0.04688 0.0124,-0.0016 0.0304,-0.0064 0.07032,-0.008 0.25048,-0.0084 0.495048,-8.64e-4 0.742188,0 v -4.015624 c -15.995968,1.35904 -32.007812,15.6875 -32.007812,15.6875 0,0 10.00586,23.99852 32.007812,26.195312 z m 0,-13.015624 c -6.879664,-2.4452 -11.273436,-10.9375 -11.273436,-10.9375 0,0 6.15062,-5.054648 11.257812,-4.406252 h 0.008 v 0.008 H 60 v -4.375 c -9.73118,1.1136 -17.75,7.976564 -17.75,7.976564 0,0 5.546824,13.425044 17.75,15.726564 z m 0,-28.96094 c -0.24868,0.0026 -0.491076,-0.0017 -0.742188,0.008 -0.0196,7.2e-4 -0.0356,0.006 -0.04688,0.008 0.117,0.0112 0.594624,0.028 0.789064,0.04688 z" />
</svg>
