<?xml version="1.0" encoding="UTF-8" standalone="no"?>
<!-- Created with Inkscape (http://www.inkscape.org/) -->

<svg
   width="128"
   height="128"
   viewBox="0 0 128 128.00001"
   version="1.1"
   id="svg1"
   inkscape:version="1.4 (e7c3feb100, 2024-10-09)"
   sodipodi:docname="org.gnome.Dictionary.svg"
   xmlns:inkscape="http://www.inkscape.org/namespaces/inkscape"
   xmlns:sodipodi="http://sodipodi.sourceforge.net/DTD/sodipodi-0.dtd"
   xmlns:xlink="http://www.w3.org/1999/xlink"
   xmlns="http://www.w3.org/2000/svg"
   xmlns:svg="http://www.w3.org/2000/svg">
  <sodipodi:namedview
     id="namedview1"
     pagecolor="#ffffff"
     bordercolor="#000000"
     borderopacity="0.25"
     inkscape:showpageshadow="2"
     inkscape:pageopacity="0.0"
     inkscape:pagecheckerboard="0"
     inkscape:deskcolor="#d1d1d1"
     inkscape:document-units="px"
     inkscape:zoom="6.3125"
     inkscape:cx="64.079208"
     inkscape:cy="64"
     inkscape:window-width="1920"
     inkscape:window-height="1011"
     inkscape:window-x="0"
     inkscape:window-y="0"
     inkscape:window-maximized="1"
     inkscape:current-layer="svg1" />
  <defs
     id="defs1">
    <linearGradient
       inkscape:collect="always"
       xlink:href="#4852"
       id="linearGradient4"
       x1="16"
       y1="30"
       x2="16"
       y2="2"
       gradientUnits="userSpaceOnUse"
       gradientTransform="scale(4)" />
    <linearGradient
       inkscape:collect="always"
       id="linearGradient919">
      <stop
         style="stop-color:#35b360;stop-opacity:1;"
         offset="0"
         id="stop915" />
      <stop
         style="stop-color:#82d3a7;stop-opacity:1;"
         offset="1"
         id="stop917" />
    </linearGradient>
    <linearGradient
       inkscape:collect="always"
       id="4852">
      <stop
         style="stop-color:#272727;stop-opacity:1;"
         offset="0"
         id="stop14555" />
      <stop
         style="stop-color:#5d5d5d;stop-opacity:1;"
         offset="1"
         id="stop14557" />
    </linearGradient>
    <linearGradient
       inkscape:collect="always"
       xlink:href="#linearGradient919"
       id="linearGradient3"
       x1="32"
       y1="60"
       x2="32"
       y2="4"
       gradientUnits="userSpaceOnUse"
       gradientTransform="scale(2)" />
    <linearGradient
       inkscape:collect="always"
       xlink:href="#linearGradient919"
       id="linearGradient6"
       x1="32"
       y1="60"
       x2="32"
       y2="4"
       gradientUnits="userSpaceOnUse"
       gradientTransform="scale(2)" />
  </defs>
  <rect
     style="opacity:0.2;fill:#000000;stroke-width:7"
     id="rect1"
     width="112"
     height="112"
     x="8"
     y="9"
     ry="24" />
  <rect
     style="fill:url(#linearGradient4);stroke-width:4"
     id="rect2"
     width="112"
     height="112"
     x="8"
     y="8"
     ry="24" />
  <path
     d="M 56.867188,44 44.218752,81.632812 40,82.429688 V 84 H 52 V 82.429688 L 48.429688,81.632812 51.367188,72 H 65.593752 L 69.281248,81.632812 64,82.429688 V 84 H 80 V 82.429688 L 75.289064,81.632812 62.125,44 Z m 1.296876,7.054688 6.570312,17 H 53.007812 Z M 91.656248,56 C 89.223624,56 86.203956,56.334 83,57 v 6 h 1.867188 L 85.875,59.507812 c 1.641528,-0.894312 3.65506,-1.335936 5.632812,-1.335936 1.463536,0 2.534348,0.4372 3.226564,1.3125 0.711984,0.87528 1.179688,2.232392 1.179688,4.078124 v 4.382812 l -5.093752,0.10936 c -3.00618,0.05708 -4.699044,0.458008 -6.281248,1.085936 -1.582196,0.608944 -2.744792,1.499964 -3.476564,2.679688 C 80.350512,72.981068 80,74.461364 80,76.250004 c 0,5.3279 2.38206,7.75 7.148436,7.75 3.500616,0 6.682868,-1.080812 8.9375,-3.25 l 0.46094,3.25 H 104 v -1.29688 l -2,-0.718748 V 63.304688 C 101.983,60.831076 101.20157,58.995644 99.757812,57.796876 98.333836,56.5981 94.701996,56 91.656248,56 Z M 96,70.039064 v 9.25 c -0.988876,0.45668 -1.776748,0.843992 -2.765624,1.148436 -0.9691,0.28532 -1.530128,0.421876 -2.875,0.421876 -2.82818,0 -4.242188,-1.393248 -4.242188,-4.742188 0,-2.093112 0.468896,-3.590056 1.398436,-4.484376 0.94932,-0.894264 2.146688,-1.381364 4.796876,-1.476564 z"
     style="fill:url(#linearGradient3);stroke-width:2"
     id="path619" />
  <path
     id="rect3"
     style="opacity:0.5;fill:url(#linearGradient6);stroke-width:4"
     d="M 32,8 C 18.704,8 8,18.704 8,32 v 64 c 0,13.296 10.704,24 24,24 z" />
</svg>
