<?xml version="1.0" encoding="UTF-8" standalone="no"?>
<!-- Created with Inkscape (http://www.inkscape.org/) -->

<svg
   width="128"
   height="128"
   viewBox="0 0 128 128.00001"
   version="1.1"
   id="svg1"
   inkscape:version="1.4.2 (ebf0e940d0, 2025-05-08)"
   sodipodi:docname="plasma.svg"
   xmlns:inkscape="http://www.inkscape.org/namespaces/inkscape"
   xmlns:sodipodi="http://sodipodi.sourceforge.net/DTD/sodipodi-0.dtd"
   xmlns:xlink="http://www.w3.org/1999/xlink"
   xmlns="http://www.w3.org/2000/svg"
   xmlns:svg="http://www.w3.org/2000/svg">
  <sodipodi:namedview
     id="namedview1"
     pagecolor="#ffffff"
     bordercolor="#000000"
     borderopacity="0.25"
     inkscape:showpageshadow="2"
     inkscape:pageopacity="0.0"
     inkscape:pagecheckerboard="0"
     inkscape:deskcolor="#d1d1d1"
     inkscape:document-units="px"
     inkscape:zoom="6.21875"
     inkscape:cx="63.919598"
     inkscape:cy="64"
     inkscape:window-width="1920"
     inkscape:window-height="1011"
     inkscape:window-x="0"
     inkscape:window-y="0"
     inkscape:window-maximized="1"
     inkscape:current-layer="svg1" />
  <defs
     id="defs1">
    <linearGradient
       inkscape:collect="always"
       id="linearGradient3201">
      <stop
         style="stop-color:#3daee9;stop-opacity:1;"
         offset="0"
         id="stop3197" />
      <stop
         style="stop-color:#5fd3ff;stop-opacity:1;"
         offset="1"
         id="stop3199" />
    </linearGradient>
    <linearGradient
       inkscape:collect="always"
       xlink:href="#linearGradient3201"
       id="linearGradient2"
       x1="32"
       y1="60"
       x2="32"
       y2="4"
       gradientUnits="userSpaceOnUse"
       gradientTransform="scale(2)" />
    <linearGradient
       inkscape:collect="always"
       xlink:href="#4852"
       id="linearGradient4"
       x1="16"
       y1="30"
       x2="16"
       y2="2"
       gradientUnits="userSpaceOnUse"
       gradientTransform="scale(4)" />
    <linearGradient
       inkscape:collect="always"
       id="4852">
      <stop
         style="stop-color:#272727;stop-opacity:1;"
         offset="0"
         id="stop14555" />
      <stop
         style="stop-color:#5d5d5d;stop-opacity:1;"
         offset="1"
         id="stop14557" />
    </linearGradient>
  </defs>
  <rect
     style="opacity:0.2;fill:#000000;stroke-width:7"
     id="rect1"
     width="112"
     height="112"
     x="8"
     y="9"
     ry="24" />
  <rect
     style="fill:url(#linearGradient4);stroke-width:4"
     id="rect2"
     width="112"
     height="112"
     x="8"
     y="8"
     ry="24" />
  <path
     id="path360"
     style="fill:url(#linearGradient2);stroke-width:4"
     d="m 44,24 c -3.323996,0 -6,2.676004 -6,6 0,3.323996 2.676004,6 6,6 3.323996,0 6,-2.676004 6,-6 0,-3.323996 -2.676004,-6 -6,-6 z M 75.429688,24 64,35.199218 81.144532,52 64,68.800782 75.429688,80 104,52 Z M 31,56 c -3.877968,0 -7,3.121976 -7,7 0,3.877968 3.122032,7 7,7 3.878024,0 7,-3.122032 7,-7 0,-3.878024 -3.121976,-7 -7,-7 z m 23,28 c -5.539994,0 -10,4.460006 -10,10 0,5.539994 4.460006,10 10,10 5.539994,0 10,-4.460006 10,-10 0,-5.539994 -4.460006,-10 -10,-10 z" />
</svg>
