<?xml version="1.0" encoding="UTF-8" standalone="no"?>
<!-- Created with Inkscape (http://www.inkscape.org/) -->

<svg
   width="128"
   height="128"
   viewBox="0 0 128 128.00001"
   version="1.1"
   id="svg1"
   inkscape:version="1.4.2 (ebf0e940d0, 2025-05-08)"
   sodipodi:docname="preferences-desktop-color.svg"
   xmlns:inkscape="http://www.inkscape.org/namespaces/inkscape"
   xmlns:sodipodi="http://sodipodi.sourceforge.net/DTD/sodipodi-0.dtd"
   xmlns:xlink="http://www.w3.org/1999/xlink"
   xmlns="http://www.w3.org/2000/svg"
   xmlns:svg="http://www.w3.org/2000/svg">
  <sodipodi:namedview
     id="namedview1"
     pagecolor="#ffffff"
     bordercolor="#000000"
     borderopacity="0.25"
     inkscape:showpageshadow="2"
     inkscape:pageopacity="0.0"
     inkscape:pagecheckerboard="0"
     inkscape:deskcolor="#d1d1d1"
     inkscape:document-units="px"
     inkscape:zoom="6.2109375"
     inkscape:cx="64"
     inkscape:cy="64"
     inkscape:window-width="1920"
     inkscape:window-height="1010"
     inkscape:window-x="0"
     inkscape:window-y="0"
     inkscape:window-maximized="1"
     inkscape:current-layer="svg1" />
  <defs
     id="defs1">
    <linearGradient
       inkscape:collect="always"
       xlink:href="#4852"
       id="linearGradient4"
       x1="16"
       y1="30"
       x2="16"
       y2="2"
       gradientUnits="userSpaceOnUse"
       gradientTransform="scale(4)" />
    <linearGradient
       inkscape:collect="always"
       id="4852">
      <stop
         style="stop-color:#272727;stop-opacity:1;"
         offset="0"
         id="stop14555" />
      <stop
         style="stop-color:#5d5d5d;stop-opacity:1;"
         offset="1"
         id="stop14557" />
    </linearGradient>
    <radialGradient
       inkscape:collect="always"
       xlink:href="#linearGradient10051"
       id="radialGradient1174"
       cx="14.852401"
       cy="30.071783"
       fx="14.852401"
       fy="30.071783"
       r="14"
       gradientUnits="userSpaceOnUse"
       gradientTransform="matrix(-3.4285712,-3.428571,3.2324884,-3.2324884,67.137316,170.57694)" />
    <linearGradient
       inkscape:collect="always"
       id="linearGradient10051">
      <stop
         style="stop-color:#aa3ad4;stop-opacity:1"
         offset="0"
         id="stop10047" />
      <stop
         style="stop-color:#aa3ad4;stop-opacity:0"
         offset="1"
         id="stop10049" />
    </linearGradient>
    <radialGradient
       inkscape:collect="always"
       xlink:href="#linearGradient1603"
       id="radialGradient1208"
       gradientUnits="userSpaceOnUse"
       gradientTransform="matrix(3.4285712,-3.428571,-3.2324884,-3.2324884,60.862684,170.57694)"
       cx="14.852401"
       cy="30.071783"
       fx="14.852401"
       fy="30.071783"
       r="14" />
    <linearGradient
       inkscape:collect="always"
       id="linearGradient1603">
      <stop
         style="stop-color:#ff910c;stop-opacity:1;"
         offset="0"
         id="stop1599" />
      <stop
         style="stop-color:#ff910c;stop-opacity:0;"
         offset="1"
         id="stop1601" />
    </linearGradient>
    <radialGradient
       inkscape:collect="always"
       xlink:href="#linearGradient5569"
       id="radialGradient1243"
       gradientUnits="userSpaceOnUse"
       gradientTransform="matrix(3.4285712,3.428571,-3.2324884,3.2324884,60.862684,-42.576944)"
       cx="15.190269"
       cy="30.646524"
       fx="15.190269"
       fy="30.646524"
       r="14" />
    <linearGradient
       inkscape:collect="always"
       id="linearGradient5569">
      <stop
         style="stop-color:#f5cc24;stop-opacity:1;"
         offset="0"
         id="stop5565" />
      <stop
         style="stop-color:#f5cc24;stop-opacity:0.00045133"
         offset="1"
         id="stop5567" />
    </linearGradient>
    <radialGradient
       inkscape:collect="always"
       xlink:href="#linearGradient3954"
       id="radialGradient1278"
       gradientUnits="userSpaceOnUse"
       gradientTransform="matrix(-3.4285712,3.428571,3.2324884,3.2324884,67.137316,-42.576944)"
       cx="15.190269"
       cy="30.646524"
       fx="15.190269"
       fy="30.646524"
       r="14" />
    <linearGradient
       inkscape:collect="always"
       id="linearGradient3954">
      <stop
         style="stop-color:#24c2f5;stop-opacity:1;"
         offset="0"
         id="stop3950" />
      <stop
         style="stop-color:#24c2f5;stop-opacity:0;"
         offset="1"
         id="stop3952" />
    </linearGradient>
    <radialGradient
       inkscape:collect="always"
       xlink:href="#linearGradient7221"
       id="radialGradient1313"
       gradientUnits="userSpaceOnUse"
       gradientTransform="matrix(4.5714284,0,0,-4.5714284,-9.142852,137.14286)"
       cx="16"
       cy="28.250002"
       fx="16"
       fy="28.250002"
       r="14" />
    <linearGradient
       inkscape:collect="always"
       id="linearGradient7221">
      <stop
         style="stop-color:#f43434;stop-opacity:1;"
         offset="0"
         id="stop7217" />
      <stop
         style="stop-color:#f43434;stop-opacity:0;"
         offset="1"
         id="stop7219" />
    </linearGradient>
    <radialGradient
       inkscape:collect="always"
       xlink:href="#linearGradient15132"
       id="radialGradient1348"
       gradientUnits="userSpaceOnUse"
       gradientTransform="matrix(0,4.5714284,-4.5714284,0,137.14286,-9.1428574)"
       cx="16"
       cy="28.250002"
       fx="16"
       fy="28.250002"
       r="14" />
    <linearGradient
       inkscape:collect="always"
       id="linearGradient15132">
      <stop
         style="stop-color:#f5e224;stop-opacity:1;"
         offset="0"
         id="stop15128" />
      <stop
         style="stop-color:#f5e224;stop-opacity:0;"
         offset="1"
         id="stop15130" />
    </linearGradient>
    <radialGradient
       inkscape:collect="always"
       xlink:href="#linearGradient12059"
       id="radialGradient991"
       cx="16"
       cy="28.250002"
       fx="16"
       fy="28.250002"
       r="14"
       gradientUnits="userSpaceOnUse"
       gradientTransform="matrix(4.5714284,0,0,4.5714284,-9.142852,-9.142855)" />
    <linearGradient
       inkscape:collect="always"
       id="linearGradient12059">
      <stop
         style="stop-color:#47c12a;stop-opacity:1;"
         offset="0"
         id="stop12055" />
      <stop
         style="stop-color:#47c12a;stop-opacity:0;"
         offset="1"
         id="stop12057" />
    </linearGradient>
  </defs>
  <rect
     style="opacity:0.2;fill:#000000;stroke-width:7"
     id="rect1"
     width="112"
     height="112"
     x="8"
     y="9"
     ry="24" />
  <rect
     style="fill:url(#linearGradient4);stroke-width:4"
     id="rect2"
     width="112"
     height="112"
     x="8"
     y="8"
     ry="24" />
  <path
     id="path416"
     style="fill:#ffffff;fill-opacity:1;stroke-width:5.07132;stroke-linecap:round;stroke-linejoin:round"
     d="M 64,24.000002 C 64,24.000002 40.218408,62.64852 40,80 40,93.25482 50.745176,104 64,104 77.25482,104 88,93.25482 88,80 87.9904,61.465752 64,24.000002 64,24.000002 Z M 79.5625,76.328124 C 79.849756,77.53106 79.996572,78.763248 80,80 80,88.836556 72.836556,96 64,96 62.796644,95.9836 61.598964,95.83172 60.429688,95.546876 70.162344,93.702952 77.762216,86.068948 79.5625,76.328124 Z"
     sodipodi:nodetypes="ccsccccccc" />
  <path
     id="path371"
     style="fill:url(#radialGradient1174);fill-opacity:1;stroke-width:4;stroke-linecap:round;stroke-linejoin:round"
     d="m 64,24 c 0,0 -23.781592,38.64852 -24,56 0,13.25482 10.745176,24 24,24 C 77.25482,104 88,93.25482 88,80 87.9904,61.465752 64,24 64,24 Z M 79.5625,76.328124 C 79.849756,77.53106 79.996572,78.763248 80,80 80,88.836556 72.836556,96 64,96 62.796644,95.9836 61.598964,95.83172 60.429688,95.546876 70.162344,93.70295 77.762216,86.068948 79.5625,76.328124 Z" />
  <path
     id="path1184"
     style="fill:url(#radialGradient1208);fill-opacity:1;stroke-width:4;stroke-linecap:round;stroke-linejoin:round"
     d="m 64,24 c 0,0 -23.781592,38.64852 -24,56 0,13.25482 10.745176,24 24,24 C 77.25482,104 88,93.25482 88,80 87.9904,61.465752 64,24 64,24 Z M 79.5625,76.328124 C 79.849756,77.53106 79.996572,78.763248 80,80 80,88.836556 72.836556,96 64,96 62.796644,95.9836 61.598964,95.83172 60.429688,95.546876 70.162344,93.70295 77.762216,86.068948 79.5625,76.328124 Z" />
  <path
     id="path1219"
     style="fill:url(#radialGradient1243);fill-opacity:1;stroke-width:4;stroke-linecap:round;stroke-linejoin:round"
     d="m 64,24 c 0,0 -23.781592,38.64852 -24,56 0,13.25482 10.745176,24 24,24 C 77.25482,104 88,93.25482 88,80 87.9904,61.465752 64,24 64,24 Z M 79.5625,76.328124 C 79.849756,77.53106 79.996572,78.763248 80,80 80,88.836556 72.836556,96 64,96 62.796644,95.9836 61.598964,95.83172 60.429688,95.546876 70.162344,93.70295 77.762216,86.068948 79.5625,76.328124 Z" />
  <path
     id="path1254"
     style="fill:url(#radialGradient1278);fill-opacity:1;stroke-width:4;stroke-linecap:round;stroke-linejoin:round"
     d="m 64,24 c 0,0 -23.781592,38.64852 -24,56 0,13.25482 10.745176,24 24,24 C 77.25482,104 88,93.25482 88,80 87.9904,61.465752 64,24 64,24 Z M 79.5625,76.328124 C 79.849756,77.53106 79.996572,78.763248 80,80 80,88.836556 72.836556,96 64,96 62.796644,95.9836 61.598964,95.83172 60.429688,95.546876 70.162344,93.70295 77.762216,86.068948 79.5625,76.328124 Z" />
  <path
     id="path1289"
     style="fill:url(#radialGradient1313);fill-opacity:1;stroke-width:4;stroke-linecap:round;stroke-linejoin:round"
     d="m 64,24 c 0,0 -23.781592,38.64852 -24,56 0,13.25482 10.745176,24 24,24 C 77.25482,104 88,93.25482 88,80 87.9904,61.465752 64,24 64,24 Z M 79.5625,76.328124 C 79.849756,77.53106 79.996572,78.763248 80,80 80,88.836556 72.836556,96 64,96 62.796644,95.9836 61.598964,95.83172 60.429688,95.546876 70.162344,93.70295 77.762216,86.068948 79.5625,76.328124 Z" />
  <path
     id="path1324"
     style="fill:url(#radialGradient1348);fill-opacity:1;stroke-width:4;stroke-linecap:round;stroke-linejoin:round"
     d="m 64,24 c 0,0 -23.781592,38.64852 -24,56 0,13.25482 10.745176,24 24,24 C 77.25482,104 88,93.25482 88,80 87.9904,61.465752 64,24 64,24 Z M 79.5625,76.328124 C 79.849756,77.53106 79.996572,78.763248 80,80 80,88.836556 72.836556,96 64,96 62.796644,95.9836 61.598964,95.83172 60.429688,95.546876 70.162344,93.70295 77.762216,86.068948 79.5625,76.328124 Z" />
  <path
     id="path404"
     style="fill:url(#radialGradient991);fill-opacity:1;stroke-width:4;stroke-linecap:round;stroke-linejoin:round"
     d="m 64,24 c 0,0 -23.781592,38.64852 -24,56 0,13.25482 10.745176,24 24,24 C 77.25482,104 88,93.25482 88,80 87.9904,61.465752 64,24 64,24 Z M 79.5625,76.328124 C 79.849756,77.53106 79.996572,78.763248 80,80 80,88.836556 72.836556,96 64,96 62.796644,95.9836 61.598964,95.83172 60.429688,95.546876 70.162344,93.70295 77.762216,86.068948 79.5625,76.328124 Z" />
</svg>
