<?xml version="1.0" encoding="UTF-8" standalone="no"?>
<!-- Created with Inkscape (http://www.inkscape.org/) -->

<svg
   width="128"
   height="128"
   viewBox="0 0 128 128.00001"
   version="1.1"
   id="svg1"
   inkscape:version="1.4.2 (ebf0e940d0, 2025-05-08)"
   sodipodi:docname="preferences-activities.svg"
   xmlns:inkscape="http://www.inkscape.org/namespaces/inkscape"
   xmlns:sodipodi="http://sodipodi.sourceforge.net/DTD/sodipodi-0.dtd"
   xmlns:xlink="http://www.w3.org/1999/xlink"
   xmlns="http://www.w3.org/2000/svg"
   xmlns:svg="http://www.w3.org/2000/svg">
  <sodipodi:namedview
     id="namedview1"
     pagecolor="#ffffff"
     bordercolor="#000000"
     borderopacity="0.25"
     inkscape:showpageshadow="2"
     inkscape:pageopacity="0.0"
     inkscape:pagecheckerboard="0"
     inkscape:deskcolor="#d1d1d1"
     inkscape:document-units="px"
     inkscape:zoom="6.2109375"
     inkscape:cx="64"
     inkscape:cy="64"
     inkscape:window-width="1920"
     inkscape:window-height="1010"
     inkscape:window-x="0"
     inkscape:window-y="0"
     inkscape:window-maximized="1"
     inkscape:current-layer="svg1" />
  <defs
     id="defs1">
    <linearGradient
       inkscape:collect="always"
       id="linearGradient2539">
      <stop
         style="stop-color:#3a4c5f;stop-opacity:1;"
         offset="0"
         id="stop2535" />
      <stop
         style="stop-color:#5b7790;stop-opacity:1;"
         offset="1"
         id="stop2537" />
    </linearGradient>
    <linearGradient
       inkscape:collect="always"
       xlink:href="#linearGradient2539"
       id="linearGradient3"
       x1="16"
       y1="30"
       x2="16"
       y2="2"
       gradientUnits="userSpaceOnUse"
       gradientTransform="scale(4)" />
    <linearGradient
       inkscape:collect="always"
       xlink:href="#4852"
       id="linearGradient4"
       x1="16"
       y1="30"
       x2="16"
       y2="2"
       gradientUnits="userSpaceOnUse"
       gradientTransform="scale(4)" />
    <linearGradient
       inkscape:collect="always"
       id="4852">
      <stop
         style="stop-color:#272727;stop-opacity:1;"
         offset="0"
         id="stop14555" />
      <stop
         style="stop-color:#5d5d5d;stop-opacity:1;"
         offset="1"
         id="stop14557" />
    </linearGradient>
  </defs>
  <rect
     style="opacity:0.2;fill:#000000;stroke-width:7"
     id="rect1"
     width="112"
     height="112"
     x="8"
     y="9"
     ry="24" />
  <rect
     style="fill:url(#linearGradient4);stroke-width:4"
     id="rect2"
     width="112"
     height="112"
     x="8"
     y="8"
     ry="24" />
  <path
     id="rect1-2"
     style="opacity:1;fill:url(#linearGradient3);stroke-width:4"
     d="m 76.195312,21.640624 c -1.669744,0.05046 -3.145728,1.971994 -4.0625,3.601564 l -3.953124,7.023436 c 1.062672,0.14072 2.129248,0.33364 3.1875,0.58594 0.886296,0.21132 1.769812,0.466796 2.648436,0.757812 C 73.14754,33.323496 72.266328,33.063372 71.367188,32.851564 69.002432,32.2945 66.534828,32 64,32 c -1.578352,0 -3.123472,0.13864 -4.640624,0.35936 0.15796,-0.0232 0.31032,-0.07276 0.468748,-0.09376 l -3.960936,-7.023412 c -0.746996,-1.327798 -1.87156,-2.8463 -3.164064,-3.390626 -0.587504,-0.24742 -1.203964,-0.296246 -1.843748,-0.03126 l -7.390624,3.0625 c -2.04732,0.848026 -1.72236,3.826972 -1.125,5.960938 l 2.171872,7.765626 c 0.501256,-0.38388 1.0095,-0.748868 1.531252,-1.101564 1.154392,-0.780356 2.367544,-1.46356 3.609372,-2.085936 -1.24568,0.626584 -2.46338,1.307976 -3.609372,2.085936 -3.040952,2.06436 -5.681652,4.656036 -7.851564,7.617188 0.1432,-0.19616 0.25896,-0.417152 0.406252,-0.609376 L 30.84375,42.343742 c -2.133966,-0.59736 -5.112912,-0.92232 -5.960938,1.125 l -3.0625,7.390624 c -0.848026,2.047316 1.490542,3.921256 3.421876,5.007812 l 7.023436,3.953124 c 0.14072,-1.062708 0.3336,-2.129212 0.58594,-3.1875 0.21132,-0.88628 0.4668,-1.769832 0.757812,-2.648436 -0.28588,0.868052 -0.546008,1.749332 -0.757812,2.648436 C 32.294484,58.9976 32,61.465136 32,64 c 0,1.579004 0.13848,3.122876 0.35936,4.640624 -0.0232,-0.15772 -0.07276,-0.31056 -0.09376,-0.468748 l -7.023436,3.960936 c -1.93134,1.086704 -4.269904,2.9605 -3.421876,5.007812 l 3.0625,7.390624 c 0.848026,2.04732 3.826966,1.722356 5.960938,1.125 l 7.765626,-2.171872 c -0.38232,-0.499224 -0.750168,-1.00388 -1.101564,-1.52344 -0.77918,-1.152056 -1.456312,-2.362344 -2.078124,-3.60156 0.625868,1.242632 1.301568,2.458224 2.078124,3.60156 2.057944,3.029944 4.644936,5.662972 7.593752,7.828128 -0.18848,-0.13784 -0.401108,-0.249 -0.58594,-0.39064 l -2.171872,7.757812 c -0.597364,2.133968 -0.92232,5.112914 1.125,5.960944 l 7.390624,3.0625 c 2.047316,0.84802 3.921256,-1.49055 5.007812,-3.42188 l 3.953124,-7.023436 C 58.754024,95.5932 57.686828,95.401996 56.625,95.148436 58.993048,95.707148 61.461308,96 64,96 c 1.571872,0 3.113796,-0.13264 4.625,-0.35156 -0.1522,0.0224 -0.30048,0.06568 -0.453124,0.08592 l 3.960936,7.02344 c 1.086556,1.93134 2.960496,4.2699 5.007812,3.42187 l 7.390624,-3.0625 c 2.04732,-0.84802 1.722368,-3.82697 1.125,-5.960938 l -2.171872,-7.765624 c -0.480952,0.36832 -0.9689,0.722864 -1.468752,1.0625 -1.151392,0.782344 -2.362588,1.468912 -3.60156,2.093752 1.244372,-0.62964 2.457176,-1.31288 3.60156,-2.093752 3.008604,-2.05292 5.620964,-4.629348 7.77344,-7.5625 -0.13908,0.19024 -0.24772,0.407216 -0.39064,0.593752 l 7.757812,2.171872 c 2.133968,0.59736 5.112914,0.922324 5.960944,-1.125 l 3.0625,-7.390624 c 0.84802,-2.047316 -1.49054,-3.921268 -3.42188,-5.007812 l -7.023436,-3.953124 c -0.14076,1.063144 -0.33348,2.12878 -0.58594,3.1875 -0.21316,0.893876 -0.47138,1.78582 -0.765624,2.671876 0.28884,-0.874832 0.55206,-1.765472 0.765624,-2.671876 C 95.705712,69.002004 96,66.535332 96,64 c 0,-1.578284 -0.13868,-3.123536 -0.35936,-4.640624 0.0232,0.15796 0.07276,0.31036 0.09376,0.468748 l 7.02344,-3.960936 c 1.93134,-1.086544 4.2699,-2.960496 3.42187,-5.007812 l -3.0625,-7.390624 c -0.265,-0.639784 -0.73775,-1.048588 -1.32812,-1.289064 -1.29884,-0.529044 -3.165714,-0.24664 -4.632818,0.16408 l -7.765624,2.171872 c 0.38404,0.501472 0.748724,1.009264 1.101564,1.531252 0.791496,1.170932 1.488284,2.403308 2.117188,3.66406 -0.633576,-1.265888 -1.327536,-2.50078 -2.117188,-3.66406 -2.061472,-3.036856 -4.64556,-5.675372 -7.601564,-7.843752 0.19144,0.13992 0.406076,0.25464 0.593752,0.39844 l 2.171872,-7.757812 c 0.59736,-2.133968 0.92232,-5.11291 -1.125,-5.960938 l -7.390624,-3.0625 c -0.31988,-0.1325 -0.6361,-0.18904 -0.945312,-0.17968 z M 58.367188,32.546876 c -1.086788,0.1936 -2.15728,0.441812 -3.203124,0.742188 1.053484,-0.30412 2.120824,-0.54698 3.203124,-0.742188 z M 53.6875,33.757812 c -0.890008,0.30348 -1.756608,0.64566 -2.609376,1.02344 0.855244,-0.37808 1.72424,-0.721044 2.609376,-1.02344 z m 21.656252,0.34376 c 0.30012,0.11408 0.59982,0.21224 0.898436,0.33592 0.06764,0.028 0.128,0.06532 0.19532,0.09376 -0.36056,-0.1524 -0.726588,-0.29028 -1.093748,-0.429688 z m 4.546872,2.125 c 0.24824,0.1414 0.475512,0.30584 0.718752,0.453124 -0.24204,-0.14748 -0.47256,-0.31192 -0.718752,-0.453124 z M 36.679688,47.390636 c -0.14748,0.242 -0.31196,0.472568 -0.453124,0.718752 0.1414,-0.24824 0.30584,-0.475512 0.453124,-0.718752 z M 64,48 c 8.83654,0 16,7.163464 16,16 0,8.83654 -7.16346,16 -16,16 -8.836536,0 -16,-7.16346 -16,-16 0,-8.836536 7.163464,-16 16,-16 z m 29.1875,3 c 0.3966,0.890744 0.755992,1.795452 1.070312,2.718752 C 93.942772,52.792064 93.582972,51.886304 93.1875,51 Z m -58.656248,0.5625 c -0.1524,0.36056 -0.29028,0.726604 -0.429688,1.093748 0.11408,-0.30008 0.21224,-0.599828 0.33592,-0.898436 0.028,-0.0676 0.06532,-0.128 0.09376,-0.19532 z m 60.171872,3.585936 c 0.30696,1.06124 0.553584,2.136064 0.75,3.226564 -0.19516,-1.096692 -0.446176,-2.171572 -0.75,-3.226564 z M 32.546876,69.617188 c 0.1946,1.094936 0.439244,2.173172 0.742188,3.226564 -0.306,-1.059672 -0.546424,-2.13776 -0.742188,-3.226564 z m 1.22656,4.742188 c 0.29196,0.851552 0.624308,1.68258 0.984376,2.5 -0.36088,-0.821172 -0.69316,-1.651348 -0.984376,-2.5 z m 60.14844,0.921872 c -0.12128,0.321 -0.22712,0.641636 -0.35936,0.96094 -0.0272,0.06544 -0.06628,0.12236 -0.09376,0.18748 0.16,-0.37888 0.30744,-0.762288 0.453124,-1.14844 z m -2.156252,4.617188 c -0.13036,0.22868 -0.27872,0.439636 -0.41406,0.664064 0.13552,-0.22324 0.28392,-0.437288 0.41406,-0.664064 z M 47.476564,91.375 c 0.20384,0.12332 0.3948,0.26396 0.60156,0.3828 -0.2082,-0.11888 -0.39688,-0.25976 -0.60156,-0.3828 z m 29.445312,1.835936 c -0.83266,0.3682 -1.67018,0.711332 -2.531252,1.007816 0.862564,-0.29676 1.703812,-0.641148 2.531252,-1.007816 z m -25.328124,0.27344 c 0.13352,0.05624 0.2718,0.10176 0.406248,0.15624 -0.07988,-0.0324 -0.1624,-0.04508 -0.2422,-0.07812 -0.05672,-0.0236 -0.10756,-0.05436 -0.16404,-0.07812 z m 21.22656,1.234376 c -0.998796,0.2876 -2.014224,0.513336 -3.039064,0.703124 1.03162,-0.18884 2.044568,-0.417884 3.039064,-0.703124 z" />
  <path
     id="path285"
     style="opacity:0.3;fill:#ffffff;stroke-width:6.4;stroke-linecap:round;stroke-linejoin:round"
     d="M 64,32 C 46.326924,32 32,46.326924 32,64 32,81.673076 46.326924,96 64,96 81.673076,96 96,81.673076 96,64 96,46.326924 81.673076,32 64,32 Z m 0,16 c 8.83654,0 16,7.163464 16,16 0,8.83654 -7.16346,16 -16,16 -8.836536,0 -16,-7.16346 -16,-16 0,-8.836536 7.163464,-16 16,-16 z" />
</svg>
