<?xml version="1.0" encoding="UTF-8" standalone="no"?>
<!-- Created with Inkscape (http://www.inkscape.org/) -->

<svg
   width="128"
   height="128"
   viewBox="0 0 128 128.00001"
   version="1.1"
   id="svg1"
   inkscape:version="1.4.2 (ebf0e940d0, 2025-05-08)"
   sodipodi:docname="sound-recorder.svg"
   xmlns:inkscape="http://www.inkscape.org/namespaces/inkscape"
   xmlns:sodipodi="http://sodipodi.sourceforge.net/DTD/sodipodi-0.dtd"
   xmlns:xlink="http://www.w3.org/1999/xlink"
   xmlns="http://www.w3.org/2000/svg"
   xmlns:svg="http://www.w3.org/2000/svg">
  <sodipodi:namedview
     id="namedview1"
     pagecolor="#ffffff"
     bordercolor="#000000"
     borderopacity="0.25"
     inkscape:showpageshadow="2"
     inkscape:pageopacity="0.0"
     inkscape:pagecheckerboard="0"
     inkscape:deskcolor="#d1d1d1"
     inkscape:document-units="px"
     inkscape:zoom="6.21875"
     inkscape:cx="63.919598"
     inkscape:cy="64"
     inkscape:window-width="1920"
     inkscape:window-height="1011"
     inkscape:window-x="0"
     inkscape:window-y="0"
     inkscape:window-maximized="1"
     inkscape:current-layer="svg1" />
  <defs
     id="defs1">
    <linearGradient
       inkscape:collect="always"
       xlink:href="#4852"
       id="linearGradient4"
       x1="16"
       y1="30"
       x2="16"
       y2="2"
       gradientUnits="userSpaceOnUse"
       gradientTransform="scale(4)" />
    <linearGradient
       inkscape:collect="always"
       id="4852">
      <stop
         style="stop-color:#272727;stop-opacity:1;"
         offset="0"
         id="stop14555" />
      <stop
         style="stop-color:#5d5d5d;stop-opacity:1;"
         offset="1"
         id="stop14557" />
    </linearGradient>
    <linearGradient
       inkscape:collect="always"
       id="linearGradient1344">
      <stop
         style="stop-color:#da2d2d;stop-opacity:1;"
         offset="0"
         id="stop1340" />
      <stop
         style="stop-color:#ff7676;stop-opacity:1;"
         offset="1"
         id="stop1342" />
    </linearGradient>
    <linearGradient
       inkscape:collect="always"
       xlink:href="#linearGradient1344"
       id="linearGradient2"
       x1="16"
       y1="30"
       x2="16"
       y2="2"
       gradientUnits="userSpaceOnUse"
       gradientTransform="scale(4)" />
  </defs>
  <rect
     style="opacity:0.2;fill:#000000;stroke-width:7"
     id="rect1"
     width="112"
     height="112"
     x="8"
     y="9"
     ry="24" />
  <rect
     style="fill:url(#linearGradient4);stroke-width:4"
     id="rect2"
     width="112"
     height="112"
     x="8"
     y="8"
     ry="24" />
  <path
     id="rect286"
     style="fill:url(#linearGradient2);stroke-width:16;stroke-linecap:round;stroke-linejoin:round"
     d="m 56,24 c -2.216,0 -4,1.784 -4,4 v 72 c 0,2.216 1.784,4 4,4 2.216,0 4,-1.784 4,-4 V 28 c 0,-2.216 -1.784,-4 -4,-4 z m 32,12 c -2.216,0 -4,1.784 -4,4 v 48 c 0,2.216 1.784,4 4,4 2.216,0 4,-1.784 4,-4 V 40 c 0,-2.216 -1.784,-4 -4,-4 z m -48,8 c -2.216,0 -4,1.784 -4,4 v 32 c 0,2.216 1.784,4 4,4 2.216,0 4,-1.784 4,-4 V 48 c 0,-2.216 -1.784,-4 -4,-4 z m 32,4 c -2.216,0 -4,1.784 -4,4 v 24 c 0,2.216 1.784,4 4,4 2.216,0 4,-1.784 4,-4 V 52 c 0,-2.216 -1.784,-4 -4,-4 z m -48,8 c -2.216,0 -4,1.784 -4,4 v 8 c 0,2.216 1.784,4 4,4 2.216,0 4,-1.784 4,-4 v -8 c 0,-2.216 -1.784,-4 -4,-4 z m 80,0 c -2.216,0 -4,1.784 -4,4 v 8 c 0,2.216 1.784,4 4,4 2.216,0 4,-1.784 4,-4 v -8 c 0,-2.216 -1.784,-4 -4,-4 z" />
  <rect
     style="opacity:0.5;fill:#ffffff;stroke-width:16;stroke-linecap:round;stroke-linejoin:round"
     id="rect288"
     width="8"
     height="16"
     x="100.00001"
     y="56"
     ry="4" />
  <rect
     style="opacity:0.5;fill:#ffffff;stroke-width:16;stroke-linecap:round;stroke-linejoin:round"
     id="rect290"
     width="8"
     height="40"
     x="36.000008"
     y="44"
     ry="4" />
  <rect
     style="opacity:0.5;fill:#ffffff;stroke-width:16;stroke-linecap:round;stroke-linejoin:round"
     id="rect404"
     width="8"
     height="32"
     x="68"
     y="48"
     ry="4" />
</svg>
