<?xml version="1.0" encoding="UTF-8" standalone="no"?>
<!-- Created with Inkscape (http://www.inkscape.org/) -->

<svg
   width="128"
   height="128"
   viewBox="0 0 128 128.00001"
   version="1.1"
   id="svg1"
   inkscape:version="1.4.2 (ebf0e940d0, 2025-05-08)"
   sodipodi:docname="system-software-update.svg"
   xmlns:inkscape="http://www.inkscape.org/namespaces/inkscape"
   xmlns:sodipodi="http://sodipodi.sourceforge.net/DTD/sodipodi-0.dtd"
   xmlns:xlink="http://www.w3.org/1999/xlink"
   xmlns="http://www.w3.org/2000/svg"
   xmlns:svg="http://www.w3.org/2000/svg">
  <sodipodi:namedview
     id="namedview1"
     pagecolor="#ffffff"
     bordercolor="#000000"
     borderopacity="0.25"
     inkscape:showpageshadow="2"
     inkscape:pageopacity="0.0"
     inkscape:pagecheckerboard="0"
     inkscape:deskcolor="#d1d1d1"
     inkscape:document-units="px"
     inkscape:zoom="6.2109375"
     inkscape:cx="64"
     inkscape:cy="64"
     inkscape:window-width="1920"
     inkscape:window-height="1010"
     inkscape:window-x="0"
     inkscape:window-y="0"
     inkscape:window-maximized="1"
     inkscape:current-layer="svg1" />
  <defs
     id="defs1">
    <linearGradient
       inkscape:collect="always"
       xlink:href="#4852"
       id="linearGradient4"
       x1="16"
       y1="30"
       x2="16"
       y2="2"
       gradientUnits="userSpaceOnUse"
       gradientTransform="scale(4)" />
    <linearGradient
       inkscape:collect="always"
       id="4852">
      <stop
         style="stop-color:#272727;stop-opacity:1;"
         offset="0"
         id="stop14555" />
      <stop
         style="stop-color:#5d5d5d;stop-opacity:1;"
         offset="1"
         id="stop14557" />
    </linearGradient>
    <linearGradient
       inkscape:collect="always"
       xlink:href="#linearGradient3788"
       id="linearGradient2"
       x1="16"
       y1="2"
       x2="16"
       y2="30"
       gradientUnits="userSpaceOnUse"
       gradientTransform="scale(4)" />
    <linearGradient
       inkscape:collect="always"
       id="linearGradient3788">
      <stop
         style="stop-color:#ffcf41;stop-opacity:1;"
         offset="0"
         id="stop3784" />
      <stop
         style="stop-color:#f98d00;stop-opacity:1;"
         offset="1"
         id="stop3786" />
    </linearGradient>
  </defs>
  <rect
     style="opacity:0.2;fill:#000000;stroke-width:7"
     id="rect1"
     width="112"
     height="112"
     x="8"
     y="9"
     ry="24" />
  <rect
     style="fill:url(#linearGradient4);stroke-width:4"
     id="rect2"
     width="112"
     height="112"
     x="8"
     y="8"
     ry="24" />
  <path
     id="path291"
     style="fill:url(#linearGradient2);stroke-width:3.78948;stroke-linecap:round;stroke-linejoin:round"
     d="M 64,28 C 50.055356,28 37.975712,35.928036 32,47.523436 V 36 h -4 v 16 4 H 32 33.007812 48 V 52 H 34.328124 C 39.0752,40.273216 50.570588,32 64,32 78.911644,32 91.440788,42.196844 94.992188,56 h 4.101564 C 95.455312,39.968956 81.132068,28 64,28 Z M 28.906252,72 C 32.544684,88.031048 46.867936,100 64,100 77.944648,100 90.024288,92.071964 96,80.476564 V 92 h 4 V 76 72 H 99.093752 96 94.992188 80 v 4 H 93.671876 C 88.9248,87.726784 77.429416,96 64,96 49.08836,96 36.559212,85.803156 33.007812,72 Z" />
</svg>
