<?xml version="1.0" encoding="UTF-8" standalone="no"?>
<!-- Created with Inkscape (http://www.inkscape.org/) -->

<svg
   width="128"
   height="128"
   viewBox="0 0 128 128.00001"
   version="1.1"
   id="svg1"
   inkscape:version="1.4.2 (ebf0e940d0, 2025-05-08)"
   sodipodi:docname="thingy.svg"
   xmlns:inkscape="http://www.inkscape.org/namespaces/inkscape"
   xmlns:sodipodi="http://sodipodi.sourceforge.net/DTD/sodipodi-0.dtd"
   xmlns:xlink="http://www.w3.org/1999/xlink"
   xmlns="http://www.w3.org/2000/svg"
   xmlns:svg="http://www.w3.org/2000/svg">
  <sodipodi:namedview
     id="namedview1"
     pagecolor="#ffffff"
     bordercolor="#000000"
     borderopacity="0.25"
     inkscape:showpageshadow="2"
     inkscape:pageopacity="0.0"
     inkscape:pagecheckerboard="0"
     inkscape:deskcolor="#d1d1d1"
     inkscape:document-units="px"
     inkscape:zoom="6.140625"
     inkscape:cx="63.918575"
     inkscape:cy="64"
     inkscape:window-width="1920"
     inkscape:window-height="1011"
     inkscape:window-x="0"
     inkscape:window-y="0"
     inkscape:window-maximized="1"
     inkscape:current-layer="svg1" />
  <defs
     id="defs1">
    <linearGradient
       inkscape:collect="always"
       xlink:href="#4852"
       id="linearGradient4"
       x1="16"
       y1="30"
       x2="16"
       y2="2"
       gradientUnits="userSpaceOnUse"
       gradientTransform="scale(4)" />
    <linearGradient
       inkscape:collect="always"
       id="4852">
      <stop
         style="stop-color:#272727;stop-opacity:1;"
         offset="0"
         id="stop14555" />
      <stop
         style="stop-color:#5d5d5d;stop-opacity:1;"
         offset="1"
         id="stop14557" />
    </linearGradient>
    <linearGradient
       inkscape:collect="always"
       id="linearGradient1778">
      <stop
         style="stop-color:#a42020;stop-opacity:1;"
         offset="0"
         id="stop1774" />
      <stop
         style="stop-color:#de6060;stop-opacity:1;"
         offset="1"
         id="stop1776" />
    </linearGradient>
    <linearGradient
       inkscape:collect="always"
       xlink:href="#linearGradient1778"
       id="linearGradient2"
       x1="16"
       y1="30"
       x2="16"
       y2="2"
       gradientUnits="userSpaceOnUse"
       gradientTransform="scale(4)" />
  </defs>
  <rect
     style="opacity:0.2;fill:#000000;stroke-width:7"
     id="rect1"
     width="112"
     height="112"
     x="8"
     y="9"
     ry="23.999998" />
  <rect
     style="fill:url(#linearGradient4);stroke-width:4"
     id="rect2"
     width="112"
     height="112"
     x="8"
     y="8"
     ry="24" />
  <path
     id="path4193"
     style="fill:url(#linearGradient2);stroke-width:8.00016;stroke-linecap:square;stroke-linejoin:round"
     d="m 36,36 c -4.432076,0 -8,3.567924 -8,8 v 16 c 0,0.12128 0.01,0.23936 0.0156,0.35936 -0.09064,2.155604 0.683,4.33928 2.335936,5.992188 l 27.296876,27.304684 c 3.133832,3.134112 8.178548,3.133968 11.3125,0 l 16.6875,-16.687496 c 3.133876,-3.134048 3.13396,-8.178536 0,-11.312504 L 58.351564,38.351564 C 56.698652,36.698656 54.51498,35.924992 52.359376,36.015624 52.239456,36.010424 52.12128,36 52,36 Z m 25.656248,0 26.820316,26.828124 c 4.651592,4.651616 4.651596,12.31714 0,16.968752 L 74.156248,94.117188 c 3.149468,2.659068 7.8348,2.508964 10.804688,-0.46094 L 101.64844,76.968752 c 3.13387,-3.134048 3.13396,-8.178536 0,-11.312504 L 74.351564,38.351564 C 72.698656,36.698656 70.514976,35.924992 68.359376,36.015624 68.239456,36.010424 68.12128,36 68,36 Z M 40,44 c 2.20914,0 4,1.79086 4,4 0,2.20914 -1.79086,4 -4,4 -2.20914,0 -4,-1.79086 -4,-4 0,-2.20914 1.79086,-4 4,-4 z"
     sodipodi:nodetypes="sssccccccccsscccccccccscsssss" />
</svg>
