<?xml version="1.0" encoding="UTF-8" standalone="no"?>
<!-- Created with Inkscape (http://www.inkscape.org/) -->

<svg
   width="128"
   height="128"
   viewBox="0 0 128 128.00001"
   version="1.1"
   id="svg1"
   inkscape:version="1.4.2 (ebf0e940d0, 2025-05-08)"
   sodipodi:docname="vlc.svg"
   xmlns:inkscape="http://www.inkscape.org/namespaces/inkscape"
   xmlns:sodipodi="http://sodipodi.sourceforge.net/DTD/sodipodi-0.dtd"
   xmlns:xlink="http://www.w3.org/1999/xlink"
   xmlns="http://www.w3.org/2000/svg"
   xmlns:svg="http://www.w3.org/2000/svg">
  <sodipodi:namedview
     id="namedview1"
     pagecolor="#ffffff"
     bordercolor="#000000"
     borderopacity="0.25"
     inkscape:showpageshadow="2"
     inkscape:pageopacity="0.0"
     inkscape:pagecheckerboard="0"
     inkscape:deskcolor="#d1d1d1"
     inkscape:document-units="px"
     inkscape:zoom="6.2109375"
     inkscape:cx="64"
     inkscape:cy="64"
     inkscape:window-width="1920"
     inkscape:window-height="1010"
     inkscape:window-x="0"
     inkscape:window-y="0"
     inkscape:window-maximized="1"
     inkscape:current-layer="svg1" />
  <defs
     id="defs1">
    <linearGradient
       inkscape:collect="always"
       xlink:href="#4852"
       id="linearGradient4"
       x1="16"
       y1="30"
       x2="16"
       y2="2"
       gradientUnits="userSpaceOnUse"
       gradientTransform="scale(4)" />
    <linearGradient
       inkscape:collect="always"
       id="4852">
      <stop
         style="stop-color:#272727;stop-opacity:1;"
         offset="0"
         id="stop14555" />
      <stop
         style="stop-color:#5d5d5d;stop-opacity:1;"
         offset="1"
         id="stop14557" />
    </linearGradient>
    <linearGradient
       inkscape:collect="always"
       xlink:href="#linearGradient1382"
       id="linearGradient2"
       x1="128"
       y1="240"
       x2="128"
       y2="16"
       gradientUnits="userSpaceOnUse"
       gradientTransform="scale(0.5)" />
    <linearGradient
       inkscape:collect="always"
       id="linearGradient1382">
      <stop
         style="stop-color:#ff650f;stop-opacity:1;"
         offset="0"
         id="stop1378" />
      <stop
         style="stop-color:#ffb54f;stop-opacity:1;"
         offset="1"
         id="stop1380" />
    </linearGradient>
  </defs>
  <rect
     style="opacity:0.2;fill:#000000;stroke-width:7"
     id="rect1"
     width="112"
     height="112"
     x="8"
     y="9"
     ry="24" />
  <rect
     style="fill:url(#linearGradient4);stroke-width:4"
     id="rect2"
     width="112"
     height="112"
     x="8"
     y="8"
     ry="24" />
  <path
     d="m 64.007675,24.000932 c -1.815985,-0.02024 -3.6708,0.28824 -5.5,1.023438 -1.133595,0.455598 -1.989535,1.406128 -2.335935,2.578124 l -3.67969,12.42969 c 2.713095,1.967308 7.201945,2.9371 11.5078,2.968284 4.44456,0.032 8.707745,-0.937604 11.507825,-2.968284 L 71.82799,27.602494 c -0.364,-1.240396 -1.30726,-2.228038 -2.53125,-2.648438 -1.692,-0.583596 -3.473065,-0.933124 -5.289065,-0.953124 z M 47.757677,56.02437 43.0233,72.01655 c 6.43529,3.58136 13.79143,5.02858 20.97655,4.983915 7.31428,-0.0455 14.457505,-1.644575 20.97658,-4.983915 L 80.24205,56.02437 c -10.99436,4.37278 -20.24041,5.49718 -32.484373,0 z m 37.218753,15.99218 2.843745,9.625 c 0.5126,1.7332 -0.20224,3.592985 -1.742185,4.539065 -6.27518,3.85195 -14.112565,5.743955 -22.07814,5.820315 -7.96478,0.076 -16.119654,-1.648525 -22.281234,-5.945315 -1.410944,-0.98452 -2.034474,-2.763985 -1.546876,-4.414065 l 2.85156,-9.625 h -5.00781 c -1.613472,3.85e-4 -3.074432,0.97166 -3.695312,2.46094 L 24.32799,98.46186 c -1.097396,2.63201 0.835112,5.53907 3.6875,5.53907 h 71.96875 c 2.85255,-10e-4 4.78477,-2.90579 3.6875,-5.53907 L 93.67955,74.47749 c -0.62092,-1.48924 -2.08196,-2.46054 -3.69531,-2.46094 z"
     id="path3767"
     style="fill:url(#linearGradient2);stroke-width:4"
     sodipodi:nodetypes="ccccsccccccscccccccccccccsccccc" />
</svg>
