<?xml version="1.0" encoding="UTF-8" standalone="no"?>
<!-- Created with Inkscape (http://www.inkscape.org/) -->

<svg
   width="128"
   height="128"
   viewBox="0 0 128 128.00001"
   version="1.1"
   id="svg1"
   inkscape:version="1.4.2 (ebf0e940d0, 2025-05-08)"
   sodipodi:docname="yast-sound.svg"
   xmlns:inkscape="http://www.inkscape.org/namespaces/inkscape"
   xmlns:sodipodi="http://sodipodi.sourceforge.net/DTD/sodipodi-0.dtd"
   xmlns:xlink="http://www.w3.org/1999/xlink"
   xmlns="http://www.w3.org/2000/svg"
   xmlns:svg="http://www.w3.org/2000/svg">
  <sodipodi:namedview
     id="namedview1"
     pagecolor="#ffffff"
     bordercolor="#000000"
     borderopacity="0.25"
     inkscape:showpageshadow="2"
     inkscape:pageopacity="0.0"
     inkscape:pagecheckerboard="0"
     inkscape:deskcolor="#d1d1d1"
     inkscape:document-units="px"
     inkscape:zoom="6.21875"
     inkscape:cx="63.919598"
     inkscape:cy="64"
     inkscape:window-width="1920"
     inkscape:window-height="1011"
     inkscape:window-x="0"
     inkscape:window-y="0"
     inkscape:window-maximized="1"
     inkscape:current-layer="svg1" />
  <defs
     id="defs1">
    <linearGradient
       inkscape:collect="always"
       xlink:href="#4852"
       id="linearGradient4"
       x1="16"
       y1="30"
       x2="16"
       y2="2"
       gradientUnits="userSpaceOnUse"
       gradientTransform="scale(4)" />
    <linearGradient
       inkscape:collect="always"
       id="4852">
      <stop
         style="stop-color:#272727;stop-opacity:1;"
         offset="0"
         id="stop14555" />
      <stop
         style="stop-color:#5d5d5d;stop-opacity:1;"
         offset="1"
         id="stop14557" />
    </linearGradient>
    <linearGradient
       inkscape:collect="always"
       id="linearGradient1217">
      <stop
         style="stop-color:#96a3ad;stop-opacity:1;"
         offset="0"
         id="stop1213" />
      <stop
         style="stop-color:#c4c8cd;stop-opacity:1;"
         offset="1"
         id="stop1215" />
    </linearGradient>
    <linearGradient
       inkscape:collect="always"
       xlink:href="#linearGradient1217"
       id="linearGradient2"
       x1="16"
       y1="30"
       x2="16"
       y2="2"
       gradientUnits="userSpaceOnUse"
       gradientTransform="scale(4)" />
  </defs>
  <rect
     style="opacity:0.2;fill:#000000;stroke-width:7"
     id="rect1"
     width="112"
     height="112"
     x="8"
     y="9"
     ry="24" />
  <rect
     style="fill:url(#linearGradient4);stroke-width:4"
     id="rect2"
     width="112"
     height="112"
     x="8"
     y="8"
     ry="24" />
  <path
     id="path1"
     style="fill:url(#linearGradient2);stroke-width:8;stroke-linecap:round"
     d="m 84.867188,32.554688 c -0.12952,0.0092 -0.256924,0.03606 -0.382812,0.0703 -0.5136,0.13574 -0.952092,0.47023 -1.218752,0.929688 C 82.712144,34.512398 83.041184,35.737512 84,36.289062 93.903592,42.006904 100,52.56432 100,64 100,75.435684 93.903596,85.9931 84,91.710936 83.041176,92.262484 82.712144,93.4876 83.265624,94.445312 83.817172,95.404136 85.042288,95.733168 86,95.179688 97.13564,88.75052 104,76.858332 104,64 104,51.141672 97.13564,39.249478 86,32.820312 c -0.22852,-0.13142 -0.480736,-0.216392 -0.742188,-0.25 -0.12946,-0.0162 -0.261104,-0.02478 -0.390624,-0.0156 z M 60,34 44,48 H 32 c -4.431982,0 -8,3.568016 -8,8 v 16 c 0,4.431976 3.568018,8 8,8 h 12 l 16,14 z m 13.4375,10.179688 c -0.691276,0.04976 -1.319484,0.45568 -1.640624,1.085936 -0.499636,0.983824 -0.10808,2.186424 0.875,2.6875 C 78.706456,51.027896 82.5,57.21942 82.5,63.992188 c 0,6.772768 -3.793544,12.964292 -9.828124,16.03906 -0.983096,0.501076 -1.37464,1.703672 -0.875,2.687504 0.501076,0.983088 1.703676,1.374636 2.6875,0.875 C 81.851888,79.839808 86.5,72.260944 86.5,63.992188 86.5,55.723432 81.851888,48.14456 74.484376,44.390624 c -0.23376,-0.1188 -0.488592,-0.19046 -0.75,-0.210936 -0.10074,-0.0078 -0.19812,-0.007 -0.296876,0 z" />
  <path
     d="m 85.257812,32.567482 c -0.25892,-0.0324 -0.52166,-0.0138 -0.773436,0.0547 -0.5136,0.13574 -0.952092,0.470232 -1.218752,0.929688 -0.55348,0.957712 -0.22444,2.182826 0.734376,2.734376 9.903592,5.71784 16,16.275256 16,27.710936 0,11.435684 -6.096404,21.9931 -16,27.710936 -0.958824,0.551548 -1.287856,1.776664 -0.734376,2.734376 C 83.817172,95.401318 85.042288,95.73035 86,95.17687 97.13564,88.747696 104,76.855508 104,63.997176 104,51.138848 97.13564,39.246656 86,32.81749 c -0.22852,-0.13142 -0.480736,-0.216392 -0.742188,-0.25 z M 73.734376,44.176856 c -0.805948,-0.06284 -1.570484,0.36564 -1.9375,1.085936 -0.499636,0.983824 -0.10808,2.186424 0.875,2.6875 6.03458,3.074772 9.828124,9.266296 9.828124,16.039064 0,6.772768 -3.793544,12.964288 -9.828124,16.03906 -0.983096,0.501076 -1.37464,1.703676 -0.875,2.687504 0.501076,0.983092 1.703676,1.374636 2.6875,0.875 C 81.851888,79.83698 86.5,72.258112 86.5,63.989356 86.5,55.7206 81.851888,48.141728 74.484376,44.387792 c -0.23376,-0.1188 -0.488592,-0.19044 -0.75,-0.21092 z"
     style="opacity:0.5;fill:#ffffff;stroke-width:8;stroke-linecap:round"
     id="path2" />
</svg>
