<?xml version="1.0" encoding="UTF-8" standalone="no"?>
<!-- Created with Inkscape (http://www.inkscape.org/) -->

<svg
   width="128"
   height="128"
   viewBox="0 0 128 128.00001"
   version="1.1"
   id="svg1"
   inkscape:version="1.4.2 (ebf0e940d0, 2025-05-08)"
   sodipodi:docname="accessories-calculator.svg"
   xmlns:inkscape="http://www.inkscape.org/namespaces/inkscape"
   xmlns:sodipodi="http://sodipodi.sourceforge.net/DTD/sodipodi-0.dtd"
   xmlns:xlink="http://www.w3.org/1999/xlink"
   xmlns="http://www.w3.org/2000/svg"
   xmlns:svg="http://www.w3.org/2000/svg">
  <sodipodi:namedview
     id="namedview1"
     pagecolor="#ffffff"
     bordercolor="#000000"
     borderopacity="0.25"
     inkscape:showpageshadow="2"
     inkscape:pageopacity="0.0"
     inkscape:pagecheckerboard="0"
     inkscape:deskcolor="#d1d1d1"
     inkscape:document-units="px"
     inkscape:zoom="6.21875"
     inkscape:cx="63.919598"
     inkscape:cy="64"
     inkscape:window-width="1920"
     inkscape:window-height="1011"
     inkscape:window-x="0"
     inkscape:window-y="0"
     inkscape:window-maximized="1"
     inkscape:current-layer="svg1" />
  <defs
     id="defs1">
    <linearGradient
       inkscape:collect="always"
       id="linearGradient1606">
      <stop
         style="stop-color:#eaebed;stop-opacity:1;"
         offset="0"
         id="stop1602" />
      <stop
         style="stop-color:#f9fafa;stop-opacity:1;"
         offset="1"
         id="stop1604" />
    </linearGradient>
    <linearGradient
       inkscape:collect="always"
       xlink:href="#linearGradient1606"
       id="linearGradient4"
       x1="16"
       y1="30"
       x2="16"
       y2="2"
       gradientUnits="userSpaceOnUse"
       gradientTransform="scale(4)" />
    <linearGradient
       inkscape:collect="always"
       xlink:href="#linearGradient3147"
       id="linearGradient1525"
       x1="35.554195"
       y1="35.459599"
       x2="35.554195"
       y2="49.459599"
       gradientUnits="userSpaceOnUse"
       gradientTransform="matrix(4,0,0,4,-78.216788,-77.838388)" />
    <linearGradient
       inkscape:collect="always"
       id="linearGradient3147">
      <stop
         style="stop-color:#41bbff;stop-opacity:1;"
         offset="0"
         id="stop3143" />
      <stop
         style="stop-color:#0091f9;stop-opacity:1;"
         offset="1"
         id="stop3145" />
    </linearGradient>
  </defs>
  <rect
     style="opacity:0.2;fill:#000000;stroke-width:7"
     id="rect1"
     width="112"
     height="112"
     x="8"
     y="9"
     ry="24" />
  <rect
     style="fill:url(#linearGradient4);stroke-width:4"
     id="rect2"
     width="112"
     height="112"
     x="8"
     y="8"
     ry="24" />
  <path
     id="rect686"
     style="fill:url(#linearGradient1525);fill-opacity:1;stroke-width:6.28572;stroke-linecap:round;stroke-linejoin:round"
     d="m 72,64 c -4.431996,0 -8,3.568004 -8,8 v 36 c 0,4.432 3.568004,8 8,8 H 96 A 20,20 0 0 0 116,96 V 72 c 0,-4.431996 -3.568,-8 -8,-8 z" />
  <path
     id="path364"
     style="fill:#666666;stroke-width:27.4346;stroke-linejoin:round"
     d="M 35.998064,28 V 40 H 23.998062 v 4 h 12.000002 v 12 h 4 V 44 h 12 v -4 h -12 V 28 Z m 40,12 v 4 H 103.99806 V 40 Z M 25.412124,74.585936 22.584,77.414064 33.169936,88 22.584,98.585936 25.412124,101.41406 35.998064,90.828124 46.584,101.41406 49.412128,98.585936 38.826188,88 49.412128,77.414064 46.584,74.585936 35.998064,85.171876 Z" />
  <path
     d="m 75.998064,80 v 3.999996 H 103.99806 V 80 Z m 0,12.000004 V 96 h 27.999996 v -3.999996 z"
     style="fill:#ffffff;stroke-width:27.4344;stroke-linejoin:round"
     id="path697"
     sodipodi:nodetypes="cccccccccc" />
</svg>
