<?xml version="1.0" encoding="UTF-8" standalone="no"?>
<!-- Created with Inkscape (http://www.inkscape.org/) -->

<svg
   width="128"
   height="128"
   viewBox="0 0 128 128.00001"
   version="1.1"
   id="svg1"
   inkscape:version="1.4.2 (ebf0e940d0, 2025-05-08)"
   sodipodi:docname="accessories-camera.svg"
   xmlns:inkscape="http://www.inkscape.org/namespaces/inkscape"
   xmlns:sodipodi="http://sodipodi.sourceforge.net/DTD/sodipodi-0.dtd"
   xmlns:xlink="http://www.w3.org/1999/xlink"
   xmlns="http://www.w3.org/2000/svg"
   xmlns:svg="http://www.w3.org/2000/svg">
  <sodipodi:namedview
     id="namedview1"
     pagecolor="#ffffff"
     bordercolor="#000000"
     borderopacity="0.25"
     inkscape:showpageshadow="2"
     inkscape:pageopacity="0.0"
     inkscape:pagecheckerboard="0"
     inkscape:deskcolor="#d1d1d1"
     inkscape:document-units="px"
     inkscape:zoom="6.3125"
     inkscape:cx="63.920792"
     inkscape:cy="64"
     inkscape:window-width="1920"
     inkscape:window-height="1011"
     inkscape:window-x="0"
     inkscape:window-y="0"
     inkscape:window-maximized="1"
     inkscape:current-layer="svg1" />
  <defs
     id="defs1">
    <linearGradient
       inkscape:collect="always"
       xlink:href="#linearGradient1217"
       id="linearGradient4"
       x1="16"
       y1="30"
       x2="16"
       y2="2"
       gradientUnits="userSpaceOnUse"
       gradientTransform="scale(4)" />
    <linearGradient
       inkscape:collect="always"
       id="linearGradient1217">
      <stop
         style="stop-color:#96a3ad;stop-opacity:1;"
         offset="0"
         id="stop1213" />
      <stop
         style="stop-color:#c4c8cd;stop-opacity:1;"
         offset="1"
         id="stop1215" />
    </linearGradient>
    <linearGradient
       id="linearGradient4-8"
       inkscape:collect="always">
      <stop
         style="stop-color:#3a3a3a;stop-opacity:1;"
         offset="0"
         id="stop4" />
      <stop
         style="stop-color:#4d4d4d;stop-opacity:1;"
         offset="1"
         id="stop5" />
    </linearGradient>
    <linearGradient
       inkscape:collect="always"
       xlink:href="#linearGradient4-8"
       id="linearGradient6"
       x1="16"
       y1="29.5"
       x2="16"
       y2="1.5"
       gradientUnits="userSpaceOnUse"
       gradientTransform="matrix(4,0,0,4,0,2)" />
  </defs>
  <rect
     style="opacity:0.2;fill:#000000;stroke-width:7"
     id="rect1"
     width="112"
     height="112"
     x="8"
     y="9"
     ry="24" />
  <rect
     style="fill:url(#linearGradient4);stroke-width:4"
     id="rect2"
     width="112"
     height="112"
     x="8"
     y="8"
     ry="24" />
  <rect
     style="opacity:1;fill:#eeaf4f;stroke-width:8"
     id="rect3"
     width="16"
     height="16"
     x="84"
     y="46"
     ry="4" />
  <path
     id="path669"
     style="opacity:1;fill:url(#linearGradient6);stroke-width:19.8096;stroke-linecap:round;stroke-linejoin:round"
     d="m 56,30 c -4.431988,0 -5.320556,1.980828 -8,6 l -4,6 H 34 c -5.522848,0 -10,4.477152 -10,10 v 36 c 0,5.522848 4.477152,10 10,10 h 60 c 5.522848,0 10,-4.477152 10,-10 V 52 C 104,46.477152 99.522848,42 94,42 H 84 l -4,-6 c -2.45842,-3.687636 -3.568012,-6 -8,-6 z m 8,20 C 75.045696,50 84,58.954304 84,70 84,81.045696 75.045696,90 64,90 52.954304,90 44,81.045696 44,70 44,58.954304 52.954304,50 64,50 Z m 28,0 c 2.20914,0 4,1.79086 4,4 0,2.20914 -1.79086,4 -4,4 -2.20914,0 -4,-1.79086 -4,-4 0,-2.20914 1.79086,-4 4,-4 z m -28,4 c -8.836532,0 -16,7.163472 -16,16 0,8.83654 7.163468,16 16,16 8.83654,0 16,-7.16346 16,-16 0,-8.836528 -7.16346,-16 -16,-16 z" />
</svg>
