<?xml version="1.0" encoding="UTF-8" standalone="no"?>
<!-- Created with Inkscape (http://www.inkscape.org/) -->

<svg
   width="128"
   height="128"
   viewBox="0 0 128 128.00001"
   version="1.1"
   id="svg1"
   inkscape:version="1.4.2 (ebf0e940d0, 2025-05-08)"
   sodipodi:docname="androidstudio-preview.svg"
   xmlns:inkscape="http://www.inkscape.org/namespaces/inkscape"
   xmlns:sodipodi="http://sodipodi.sourceforge.net/DTD/sodipodi-0.dtd"
   xmlns="http://www.w3.org/2000/svg"
   xmlns:svg="http://www.w3.org/2000/svg">
  <sodipodi:namedview
     id="namedview1"
     pagecolor="#ffffff"
     bordercolor="#000000"
     borderopacity="0.25"
     inkscape:showpageshadow="2"
     inkscape:pageopacity="0.0"
     inkscape:pagecheckerboard="0"
     inkscape:deskcolor="#d1d1d1"
     inkscape:document-units="px"
     inkscape:zoom="6.03125"
     inkscape:cx="63.917098"
     inkscape:cy="64"
     inkscape:window-width="1920"
     inkscape:window-height="997"
     inkscape:window-x="0"
     inkscape:window-y="0"
     inkscape:window-maximized="1"
     inkscape:current-layer="svg1" />
  <defs
     id="defs1" />
  <rect
     style="opacity:0.2;fill:#000000;stroke-width:7"
     id="rect1"
     width="112"
     height="112"
     x="8"
     y="9"
     ry="24" />
  <rect
     style="fill:#132f40;fill-opacity:1;stroke-width:4"
     id="rect2"
     width="112"
     height="112"
     x="8"
     y="8"
     ry="24" />
  <path
     id="path3"
     d="m 92.02806,52 c -0.31468,-0.0052 -0.62738,0.12474 -0.847655,0.38281 l -2.51172,2.94141 c -2.0388,-1.6244 -4.620085,-2.59375 -7.429685,-2.59375 -0.964,0 -1.902985,0.11232 -2.800785,0.328125 l 8.160155,22.26953 c 3.1674,-1.595 5.52698,-4.55668 6.30078,-8.11328 l 3.80078,0.734375 c 0.5922,0.1146 1.16665,-0.27108 1.28125,-0.86328 0.1146,-0.5922 -0.27478,-1.16665 -0.86718,-1.28125 l -3.94922,-0.76563 c 0.004,-0.1248 0.008,-0.2492 0.008,-0.375 0,-2.9938 -1.10478,-5.729215 -2.925785,-7.824215 L 92.84075,53.80078 c 0.3916,-0.4588 0.3377,-1.14746 -0.1211,-1.53906 C 92.51874,52.09048 92.27281,52.004045 92.02806,52 Z m -8.027345,4 a 2,2 0 0 1 2,2 2,2 0 0 1 -2,2 2,2 0 0 1 -2,-2 2,2 0 0 1 2,-2 z m 4,10 a 2,2 0 0 1 2,2 2,2 0 0 1 -2,2 2,2 0 0 1 -2,-2 2,2 0 0 1 2,-2 z"
     style="fill:#3ddc84;fill-opacity:1;stroke-width:2" />
  <path
     id="path8"
     style="fill:#ffffff;fill-opacity:1;stroke-width:2"
     d="m 65.78587,24 c -0.987395,0 -1.93445,0.391486 -2.63281,1.089844 -0.698155,0.698358 -1.089845,1.64521 -1.089845,2.632812 v 8.921876 c -0.613005,0.07454 -1.215055,0.245934 -1.785155,0.511718 -1.422695,0.66338 -2.525535,1.864986 -3.0625,3.339844 L 48.082748,65.58594 C 45.65004,63.55525 43.52796,61.110205 41.852278,58.35547 40.829934,56.73833 39.281516,56 37.707748,56 c -1.816444,0 -3.66486,0.923975 -4.76172,2.36719 -1.096858,1.44321 -1.442722,3.404115 -0.261718,5.48437 v 0.004 l 0.004,0.004 c 2.998964,4.926345 7.01611,8.97595 11.660156,11.98828 L 39.84456,88.218935 C 39.57884,88.94941 39.64924,100.758 39.64924,100.758 c -0.10862,0.33936 -0.086,0.70743 0.0625,1.03125 0.1483,0.32402 0.414284,0.57945 0.742186,0.71875 0.327906,0.1393 0.694958,0.14928 1.031252,0.0313 0.336086,-0.11802 0.616192,-0.35418 0.785156,-0.66797 0,0 8.433496,-8.8752 8.699216,-9.60547 l 4.218665,-11.58617 c 3.217,0.86862 6.55833,1.32031 9.9375,1.32031 3.69984,0 7.443325,-0.540135 11.121095,-1.66797 l 4.38672,11.96875 c 0.25835,0.72925 8.66406,9.57031 8.66406,9.57031 0.16876,0.3138 0.44907,0.54995 0.78516,0.66797 0.336085,0.11802 0.703345,0.10806 1.03125,-0.0313 0.327905,-0.1391 0.593665,-0.39473 0.742185,-0.71875 0.148495,-0.32381 0.170915,-0.69189 0.0625,-1.03125 0,0 -0.02255,-11.76065 -0.296875,-12.48437 L 74.10228,40.460938 C 73.556315,39.020036 72.46464,37.855312 71.063215,37.214844 70.565265,36.98727 70.04045,36.830854 69.50853,36.75 v -9.027344 c 0,-0.987602 -0.39169,-1.934454 -1.089845,-2.632812 C 67.720325,24.391486 66.77327,24 65.78587,24 Z m -0.03905,27.671875 6.98047,19.05078 C 70.2084,71.52627 67.64837,72 65.117905,72 62.928155,72 60.76071,71.700635 58.66087,71.13672 Z" />
  <path
     d="m 66.000825,50 c 2.121605,0 4.15637,-0.842912 5.656785,-2.343104 1.500195,-1.500414 2.343105,-3.535182 2.343105,-5.656786 0,-2.121826 -0.84291,-4.156594 -2.343105,-5.656782 C 70.157195,34.84291 68.12243,34 66.000825,34 c -2.121825,0 -4.156595,0.84291 -5.65678,2.343328 -1.50042,1.500188 -2.34333,3.534956 -2.34333,5.656782 0,2.121604 0.84291,4.156372 2.34333,5.656786 C 61.84423,49.157088 63.879,50 66.000825,50 Z"
     fill="#e4e4e4"
     id="path15"
     style="fill:#132f40;fill-opacity:1;stroke-width:2" />
  <path
     id="path17"
     style="fill:#ffffff;fill-opacity:1;stroke-width:2"
     d="m 66.000715,32 c -1.31339,0 -2.614735,0.259262 -3.828125,0.761718 -1.21317,0.50268 -2.313615,1.2394 -3.242185,2.16797 -0.928575,0.928572 -1.665515,2.029018 -2.16797,3.242188 -0.50268,1.213172 -0.76172,2.514954 -0.76172,3.828124 0,2.65223 1.054465,5.194868 2.92969,7.070312 C 60.80585,50.945535 63.348485,52 66.000715,52 68.652725,52 71.19558,50.945535 73.07103,49.070312 74.946475,47.194868 76.000715,44.65223 76.000715,42 c 0,-1.31317 -0.259035,-2.614952 -0.761715,-3.828124 -0.50246,-1.213168 -1.2394,-2.313616 -2.16797,-3.242188 -0.92857,-0.92857 -2.02902,-1.66529 -3.24219,-2.16797 C 68.615445,32.259262 67.313885,32 66.000715,32 Z m 0,4.164062 c 1.547545,0 3.030805,0.61674 4.125,1.710938 1.094195,1.094196 1.71094,2.577676 1.71094,4.125 0,1.547544 -0.616745,3.030804 -1.71094,4.125 -1.094195,1.09442 -2.577455,1.710938 -4.125,1.710938 -1.54732,0 -3.0308,-0.616518 -4.125,-1.710938 -1.094195,-1.094196 -1.70703,-2.577456 -1.70703,-4.125 0,-1.547324 0.612835,-3.030804 1.70703,-4.125 1.0942,-1.094198 2.57768,-1.710938 4.125,-1.710938 z" />
</svg>
