<?xml version="1.0" encoding="UTF-8" standalone="no"?>
<!-- Created with Inkscape (http://www.inkscape.org/) -->

<svg
   width="128"
   height="128"
   viewBox="0 0 128 128.00001"
   version="1.1"
   id="svg1"
   inkscape:version="1.4 (e7c3feb100, 2024-10-09)"
   sodipodi:docname="applications-education.svg"
   xmlns:inkscape="http://www.inkscape.org/namespaces/inkscape"
   xmlns:sodipodi="http://sodipodi.sourceforge.net/DTD/sodipodi-0.dtd"
   xmlns:xlink="http://www.w3.org/1999/xlink"
   xmlns="http://www.w3.org/2000/svg"
   xmlns:svg="http://www.w3.org/2000/svg">
  <sodipodi:namedview
     id="namedview1"
     pagecolor="#ffffff"
     bordercolor="#000000"
     borderopacity="0.25"
     inkscape:showpageshadow="2"
     inkscape:pageopacity="0.0"
     inkscape:pagecheckerboard="0"
     inkscape:deskcolor="#d1d1d1"
     inkscape:document-units="px"
     inkscape:zoom="6.3125"
     inkscape:cx="64.079208"
     inkscape:cy="64"
     inkscape:window-width="1920"
     inkscape:window-height="1011"
     inkscape:window-x="0"
     inkscape:window-y="0"
     inkscape:window-maximized="1"
     inkscape:current-layer="svg1" />
  <defs
     id="defs1">
    <linearGradient
       inkscape:collect="always"
       xlink:href="#linearGradient2472"
       id="linearGradient4"
       x1="16"
       y1="30"
       x2="16"
       y2="2"
       gradientUnits="userSpaceOnUse"
       gradientTransform="scale(4)" />
    <linearGradient
       inkscape:collect="always"
       id="linearGradient2472">
      <stop
         style="stop-color:#3ec90e;stop-opacity:1;"
         offset="0"
         id="stop2468" />
      <stop
         style="stop-color:#75db10;stop-opacity:1;"
         offset="1"
         id="stop2470" />
    </linearGradient>
  </defs>
  <rect
     style="opacity:0.2;fill:#000000;stroke-width:7"
     id="rect1"
     width="112"
     height="112"
     x="8"
     y="9"
     ry="24" />
  <rect
     style="fill:url(#linearGradient4);stroke-width:4"
     id="rect2"
     width="112"
     height="112"
     x="8"
     y="8"
     ry="24" />
  <path
     id="rect1073"
     style="opacity:0.5;fill:#ffffff;stroke:none;stroke-width:8.46784;stroke-linecap:round;stroke-linejoin:round;stroke-dasharray:none;stroke-opacity:1"
     d="M 28,52 V 72.335936 C 25.66407,73.155536 24,75.37716 24,78 v 6 c 0,3.323996 2.676004,6 6,6 3.323996,0 6,-2.676004 6,-6 v -6 c 0,-2.62284 -1.664068,-4.844464 -4,-5.664064 V 52 Z" />
  <path
     id="path1024"
     style="color:#000000;fill:#ffffff;stroke:none;stroke-width:5.3468;stroke-linecap:round;stroke-linejoin:round;-inkscape-stroke:none"
     d="m 64,32 a 2.858511,2.5007496 0 0 0 -1.351562,0.292968 l -37.15625,17.507814 a 2.858511,2.5007496 0 0 0 0,4.39453 l 37.15625,17.507812 a 2.858511,2.5007496 0 0 0 2.703124,0 L 102.50781,54.195312 a 2.858511,2.5007496 0 0 0 0,-4.39453 L 65.351562,32.292968 A 2.858511,2.5007496 0 0 0 64,32 Z M 40.195312,65.53125 C 40.071904,66.33511 40,67.160552 40,68 v 16 c 0,8.863984 7.136016,12 16,12 h 16 c 8.863984,0 16,-3.136016 16,-12 V 68 c 0,-0.839448 -0.07192,-1.66489 -0.19532,-2.46875 l -20.75,9.773438 -0.0078,0.0078 c -1.959112,0.918432 -4.13464,0.918432 -6.093752,0 l -0.0078,-0.0078 z" />
</svg>
