<?xml version="1.0" encoding="UTF-8" standalone="no"?>
<!-- Created with Inkscape (http://www.inkscape.org/) -->

<svg
   width="128"
   height="128"
   viewBox="0 0 128 128.00001"
   version="1.1"
   id="svg1"
   inkscape:version="1.4 (e7c3feb100, 2024-10-09)"
   sodipodi:docname="applications-all.svg"
   xmlns:inkscape="http://www.inkscape.org/namespaces/inkscape"
   xmlns:sodipodi="http://sodipodi.sourceforge.net/DTD/sodipodi-0.dtd"
   xmlns:xlink="http://www.w3.org/1999/xlink"
   xmlns="http://www.w3.org/2000/svg"
   xmlns:svg="http://www.w3.org/2000/svg">
  <sodipodi:namedview
     id="namedview1"
     pagecolor="#ffffff"
     bordercolor="#000000"
     borderopacity="0.25"
     inkscape:showpageshadow="2"
     inkscape:pageopacity="0.0"
     inkscape:pagecheckerboard="0"
     inkscape:deskcolor="#d1d1d1"
     inkscape:document-units="px"
     inkscape:zoom="6.3125"
     inkscape:cx="64.079208"
     inkscape:cy="64"
     inkscape:window-width="1920"
     inkscape:window-height="1011"
     inkscape:window-x="0"
     inkscape:window-y="0"
     inkscape:window-maximized="1"
     inkscape:current-layer="svg1" />
  <defs
     id="defs1">
    <linearGradient
       inkscape:collect="always"
       xlink:href="#linearGradient3147"
       id="linearGradient4"
       x1="16"
       y1="30"
       x2="16"
       y2="2"
       gradientUnits="userSpaceOnUse"
       gradientTransform="scale(4)" />
    <linearGradient
       inkscape:collect="always"
       id="linearGradient3147">
      <stop
         style="stop-color:#0091f9;stop-opacity:1;"
         offset="0"
         id="stop3143" />
      <stop
         style="stop-color:#41bbff;stop-opacity:1;"
         offset="1"
         id="stop3145" />
    </linearGradient>
  </defs>
  <rect
     style="opacity:0.2;fill:#000000;stroke-width:7"
     id="rect1"
     width="112"
     height="112"
     x="8"
     y="9"
     ry="24" />
  <rect
     style="fill:url(#linearGradient4);stroke-width:4"
     id="rect2"
     width="112"
     height="112"
     x="8"
     y="8"
     ry="24" />
  <path
     id="path433"
     style="fill:#ffffff;fill-opacity:1;stroke-width:72;stroke-linecap:round;stroke-linejoin:round"
     d="m 36,28 c -4.418276,0 -8,3.581724 -8,8 0,4.418276 3.581724,8 8,8 4.418264,0 8,-3.581724 8,-8 0,-4.418276 -3.581736,-8 -8,-8 z m 28,0 c -4.41828,0 -8,3.581724 -8,8 0,4.418276 3.58172,8 8,8 4.418272,0 8,-3.581724 8,-8 0,-4.418276 -3.581728,-8 -8,-8 z m 28,0 c -4.418272,0 -8,3.581724 -8,8 0,4.418276 3.581728,8 8,8 4.418272,0 8,-3.581724 8,-8 0,-4.418276 -3.581728,-8 -8,-8 z M 36,56 c -4.418276,0 -8,3.581728 -8,8 0,4.418272 3.581724,8 8,8 4.418264,0 8,-3.581728 8,-8 0,-4.418272 -3.581736,-8 -8,-8 z m 28,0 c -4.41828,0 -8,3.581728 -8,8 0,4.418272 3.58172,8 8,8 4.418272,0 8,-3.581728 8,-8 0,-4.418272 -3.581728,-8 -8,-8 z m 28,0 c -4.418272,0 -8,3.581728 -8,8 0,4.418272 3.581728,8 8,8 4.418272,0 8,-3.581728 8,-8 0,-4.418272 -3.581728,-8 -8,-8 z M 36,84 c -4.418276,0 -8,3.581728 -8,8 0,4.418272 3.581724,8 8,8 4.418264,0 8,-3.581728 8,-8 0,-4.418272 -3.581736,-8 -8,-8 z m 28,0 c -4.41828,0 -8,3.581728 -8,8 0,4.418272 3.58172,8 8,8 4.41828,0 8,-3.581728 8,-8 0,-4.418272 -3.58172,-8 -8,-8 z m 28,0 c -4.418272,0 -8,3.581728 -8,8 0,4.418272 3.581728,8 8,8 4.418272,0 8,-3.581728 8,-8 0,-4.418272 -3.581728,-8 -8,-8 z"
     sodipodi:nodetypes="sssssssssssssssssssssssssssssssssssssssssssss" />
</svg>
