<?xml version="1.0" encoding="UTF-8" standalone="no"?>
<!-- Created with Inkscape (http://www.inkscape.org/) -->

<svg
   width="128"
   height="128"
   viewBox="0 0 128 128.00001"
   version="1.1"
   id="svg1"
   inkscape:version="1.4 (e7c3feb100, 2024-10-09)"
   sodipodi:docname="ark.svg"
   xmlns:inkscape="http://www.inkscape.org/namespaces/inkscape"
   xmlns:sodipodi="http://sodipodi.sourceforge.net/DTD/sodipodi-0.dtd"
   xmlns:xlink="http://www.w3.org/1999/xlink"
   xmlns="http://www.w3.org/2000/svg"
   xmlns:svg="http://www.w3.org/2000/svg">
  <sodipodi:namedview
     id="namedview1"
     pagecolor="#ffffff"
     bordercolor="#000000"
     borderopacity="0.25"
     inkscape:showpageshadow="2"
     inkscape:pageopacity="0.0"
     inkscape:pagecheckerboard="0"
     inkscape:deskcolor="#d1d1d1"
     inkscape:document-units="px"
     inkscape:zoom="6.140625"
     inkscape:cx="64.081425"
     inkscape:cy="64"
     inkscape:window-width="1920"
     inkscape:window-height="1011"
     inkscape:window-x="0"
     inkscape:window-y="0"
     inkscape:window-maximized="1"
     inkscape:current-layer="svg1" />
  <defs
     id="defs1">
    <linearGradient
       inkscape:collect="always"
       xlink:href="#linearGradient2014"
       id="linearGradient4"
       x1="16"
       y1="30"
       x2="16"
       y2="2"
       gradientUnits="userSpaceOnUse"
       gradientTransform="scale(4)" />
    <linearGradient
       inkscape:collect="always"
       xlink:href="#linearGradient2014"
       id="linearGradient6816"
       x1="26"
       y1="44"
       x2="26"
       y2="-12"
       gradientUnits="userSpaceOnUse"
       gradientTransform="matrix(2,0,0,2,11.999999,31.999999)" />
    <linearGradient
       inkscape:collect="always"
       id="linearGradient2014">
      <stop
         style="stop-color:#d09552;stop-opacity:1;"
         offset="0"
         id="stop2010" />
      <stop
         style="stop-color:#f7dcb2;stop-opacity:1;"
         offset="1"
         id="stop2012" />
    </linearGradient>
  </defs>
  <rect
     style="opacity:0.2;fill:#000000;stroke-width:7"
     id="rect1"
     width="112"
     height="112"
     x="8"
     y="9"
     ry="24" />
  <rect
     style="fill:url(#linearGradient4);stroke-width:4"
     id="rect2"
     width="112"
     height="112"
     x="8"
     y="8"
     ry="24" />
  <rect
     style="opacity:0.6;fill:#ffffff;stroke-width:8.00001;stroke-linecap:round;stroke-linejoin:round"
     id="rect954"
     width="39.999996"
     height="48"
     x="23.999998"
     y="30"
     ry="8" />
  <path
     id="rect346"
     style="fill:#ffffff;stroke-width:8.00001;stroke-linecap:round;stroke-linejoin:round"
     d="m 31.999998,41.999999 c -4.431994,0 -7.999999,3.568004 -7.999999,8 v 35.999999 c 0,6.647991 5.352007,12 12,12 h 55.999999 c 6.647991,0 12.000002,-5.352009 12.000002,-12 V 54 C 104,47.352006 98.647989,41.999999 91.999998,41.999999 Z"
     sodipodi:nodetypes="cccsssscc" />
  <path
     id="rect6665"
     style="fill:url(#linearGradient6816);fill-opacity:1;stroke-width:4;stroke-linecap:round;stroke-linejoin:round"
     d="m 23.999999,63.999998 v 4.000001 H 28 V 63.999998 Z M 28,67.999999 v 3.999999 h 3.999998 v -3.999999 z m 3.999998,0 h 4.000001 v -4.000001 h -4.000001 z m 4.000001,0 v 3.999999 H 40 v -3.999999 z m 4.000001,0 h 3.999999 V 63.999998 H 40 Z m 3.999999,0 v 3.999999 h 4 v -3.999999 z m 4,0 h 3.999999 v -4.000001 h -3.999999 z m 3.999999,0 v 3.999999 h 4.000001 v -3.999999 z m 4.000001,0 h 3.999999 v -4.000001 h -3.999999 z m 3.999999,0 v 3.999999 h 4 v -3.999999 z m 4,0 h 4.000001 v -4.000001 h -4.000001 z m 4.000001,0 v 3.999999 h 3.999999 v -3.999999 z m 3.999999,0 h 4.000001 v -4.000001 h -4.000001 z m 4.000001,0 v 3.999999 h 3.999998 v -3.999999 z m 3.999998,0 h 4.000001 v -4.000001 h -4.000001 z m 4.000001,0 v 3.999999 h 3.999999 v -3.999999 z m 3.999999,0 h 4.000001 v -4.000001 h -4.000001 z m 4.000001,0 v 3.999999 h 4 v -3.999999 z m 4,0 h 3.999999 v -4.000001 h -3.999999 z m 3.999999,0 v 3.999999 H 104 v -3.999999 z" />
</svg>
