<?xml version="1.0" encoding="UTF-8" standalone="no"?>
<!-- Created with Inkscape (http://www.inkscape.org/) -->

<svg
   width="128"
   height="128"
   viewBox="0 0 128 128.00001"
   version="1.1"
   id="svg1"
   inkscape:version="1.4.2 (ebf0e940d0, 2025-05-08)"
   sodipodi:docname="beamng-drive.svg"
   xmlns:inkscape="http://www.inkscape.org/namespaces/inkscape"
   xmlns:sodipodi="http://sodipodi.sourceforge.net/DTD/sodipodi-0.dtd"
   xmlns:xlink="http://www.w3.org/1999/xlink"
   xmlns="http://www.w3.org/2000/svg"
   xmlns:svg="http://www.w3.org/2000/svg">
  <sodipodi:namedview
     id="namedview1"
     pagecolor="#ffffff"
     bordercolor="#000000"
     borderopacity="0.25"
     inkscape:showpageshadow="2"
     inkscape:pageopacity="0.0"
     inkscape:pagecheckerboard="0"
     inkscape:deskcolor="#d1d1d1"
     inkscape:document-units="px"
     inkscape:zoom="6.140625"
     inkscape:cx="63.918575"
     inkscape:cy="64"
     inkscape:window-width="1920"
     inkscape:window-height="1011"
     inkscape:window-x="0"
     inkscape:window-y="0"
     inkscape:window-maximized="1"
     inkscape:current-layer="svg1" />
  <defs
     id="defs1">
    <linearGradient
       inkscape:collect="always"
       id="linearGradient1606">
      <stop
         style="stop-color:#eaebed;stop-opacity:1;"
         offset="0"
         id="stop1602" />
      <stop
         style="stop-color:#f9fafa;stop-opacity:1;"
         offset="1"
         id="stop1604" />
    </linearGradient>
    <linearGradient
       inkscape:collect="always"
       xlink:href="#linearGradient1606"
       id="linearGradient4"
       x1="16"
       y1="30"
       x2="16"
       y2="2"
       gradientUnits="userSpaceOnUse"
       gradientTransform="scale(4)" />
  </defs>
  <rect
     style="opacity:0.2;fill:#000000;stroke-width:7"
     id="rect1"
     width="112"
     height="112"
     x="8"
     y="9"
     ry="24" />
  <rect
     style="fill:url(#linearGradient4);stroke-width:4"
     id="rect2"
     width="112"
     height="112"
     x="8"
     y="8"
     ry="24" />
  <path
     d="m 81.894532,34 a 4.0004,4.0004 0 0 0 -2.07422,0.644532 l -40,26 a 4.0004,4.0004 0 0 0 0.44922,6.960936 l 50,24 a 4.0004,4.0004 0 0 0 5.652344,-4.390624 l -10,-50 A 4.0004,4.0004 0 0 0 81.894532,34 Z M 79.234376,44.570312 86.507812,80.92578 50.14844,63.476564 Z"
     style="fill:#353535;stroke-width:4"
     id="path2" />
  <path
     id="path5"
     style="fill:#fe7d2a;stroke-width:4"
     d="M 82,28 A 10,10 0 0 0 72,38 10,10 0 0 0 82,48 10,10 0 0 0 92,38 10,10 0 0 0 82,28 Z M 44,44 A 20,20 0 0 0 24,64 20,20 0 0 0 44,84 20,20 0 0 0 64,64 20,20 0 0 0 44,44 Z M 90,72 A 14,14 0 0 0 76,86 14,14 0 0 0 90,100 14,14 0 0 0 104,86 14,14 0 0 0 90,72 Z" />
</svg>
