<?xml version="1.0" encoding="UTF-8" standalone="no"?>
<!-- Created with Inkscape (http://www.inkscape.org/) -->

<svg
   width="128"
   height="128"
   viewBox="0 0 128 128.00001"
   version="1.1"
   id="svg1"
   inkscape:version="1.4.2 (ebf0e940d0, 2025-05-08)"
   sodipodi:docname="bulky.svg"
   xmlns:inkscape="http://www.inkscape.org/namespaces/inkscape"
   xmlns:sodipodi="http://sodipodi.sourceforge.net/DTD/sodipodi-0.dtd"
   xmlns:xlink="http://www.w3.org/1999/xlink"
   xmlns="http://www.w3.org/2000/svg"
   xmlns:svg="http://www.w3.org/2000/svg">
  <sodipodi:namedview
     id="namedview1"
     pagecolor="#ffffff"
     bordercolor="#000000"
     borderopacity="0.25"
     inkscape:showpageshadow="2"
     inkscape:pageopacity="0.0"
     inkscape:pagecheckerboard="0"
     inkscape:deskcolor="#d1d1d1"
     inkscape:document-units="px"
     inkscape:zoom="6.140625"
     inkscape:cx="63.918575"
     inkscape:cy="64"
     inkscape:window-width="1920"
     inkscape:window-height="1011"
     inkscape:window-x="0"
     inkscape:window-y="0"
     inkscape:window-maximized="1"
     inkscape:current-layer="svg1" />
  <defs
     id="defs1">
    <linearGradient
       inkscape:collect="always"
       xlink:href="#linearGradient3712"
       id="linearGradient4"
       x1="16"
       y1="30"
       x2="16"
       y2="2"
       gradientUnits="userSpaceOnUse"
       gradientTransform="scale(4)" />
    <linearGradient
       inkscape:collect="always"
       id="linearGradient3712">
      <stop
         style="stop-color:#393e53;stop-opacity:1;"
         offset="0"
         id="stop3708" />
      <stop
         style="stop-color:#797d96;stop-opacity:1;"
         offset="1"
         id="stop3710" />
    </linearGradient>
  </defs>
  <rect
     style="opacity:0.2;fill:#000000;stroke-width:7"
     id="rect1"
     width="112"
     height="112"
     x="8"
     y="9"
     ry="24" />
  <rect
     style="fill:url(#linearGradient4);stroke-width:4"
     id="rect2"
     width="112"
     height="112"
     x="8"
     y="8"
     ry="24" />
  <path
     id="path30115"
     style="display:inline;fill:#ffffff;fill-opacity:1;stroke:none;stroke-width:4;enable-background:new"
     d="m 64,32 v 4 H 76 V 92 H 64 v 4 H 92 V 92 H 80 V 36 H 92 V 32 Z M 32,48 a 8,8 0 0 0 -8,8 v 16 a 8,8 0 0 0 8,8 H 72 V 76 H 32 A 4,4 0 0 1 28,72 V 56 a 4,4 0 0 1 4,-4 h 40 v -4 z m 52,0 v 4 h 12 a 4,4 0 0 1 4,4 v 16 a 4,4 0 0 1 -4,4 H 84 v 4 h 12 a 8,8 0 0 0 8,-8 V 56 A 8,8 0 0 0 96,48 Z M 36,60 v 8 h 28 v -8 z" />
</svg>
