<?xml version="1.0" encoding="UTF-8" standalone="no"?>
<!-- Created with Inkscape (http://www.inkscape.org/) -->

<svg
   width="128"
   height="128"
   viewBox="0 0 128 128.00001"
   version="1.1"
   id="svg1"
   inkscape:version="1.4 (e7c3feb100, 2024-10-09)"
   sodipodi:docname="calls-app.svg"
   xmlns:inkscape="http://www.inkscape.org/namespaces/inkscape"
   xmlns:sodipodi="http://sodipodi.sourceforge.net/DTD/sodipodi-0.dtd"
   xmlns:xlink="http://www.w3.org/1999/xlink"
   xmlns="http://www.w3.org/2000/svg"
   xmlns:svg="http://www.w3.org/2000/svg">
  <sodipodi:namedview
     id="namedview1"
     pagecolor="#ffffff"
     bordercolor="#000000"
     borderopacity="0.25"
     inkscape:showpageshadow="2"
     inkscape:pageopacity="0.0"
     inkscape:pagecheckerboard="0"
     inkscape:deskcolor="#d1d1d1"
     inkscape:document-units="px"
     inkscape:zoom="6.3125"
     inkscape:cx="64.079208"
     inkscape:cy="64"
     inkscape:window-width="1920"
     inkscape:window-height="1011"
     inkscape:window-x="0"
     inkscape:window-y="0"
     inkscape:window-maximized="1"
     inkscape:current-layer="svg1" />
  <defs
     id="defs1">
    <linearGradient
       inkscape:collect="always"
       xlink:href="#linearGradient1717"
       id="linearGradient4"
       x1="16"
       y1="30"
       x2="16"
       y2="2"
       gradientUnits="userSpaceOnUse"
       gradientTransform="scale(4)" />
    <linearGradient
       inkscape:collect="always"
       id="linearGradient1717">
      <stop
         style="stop-color:#4ca90b;stop-opacity:1;"
         offset="0"
         id="stop1713" />
      <stop
         style="stop-color:#9ad77b;stop-opacity:1;"
         offset="1"
         id="stop1715" />
    </linearGradient>
  </defs>
  <rect
     style="opacity:0.2;fill:#000000;stroke-width:7"
     id="rect1"
     width="112"
     height="112"
     x="8"
     y="9"
     ry="24" />
  <rect
     style="fill:url(#linearGradient4);stroke-width:4"
     id="rect2"
     width="112"
     height="112"
     x="8"
     y="8"
     ry="24" />
  <path
     id="path1"
     style="opacity:0.5;fill:#ffffff;stroke-width:4"
     d="m 39.671876,27.757812 c -1.022476,0 -2.044654,0.3884 -2.828126,1.171876 l -5.65625,5.65625 3.554688,12.164062 13.421876,4.804688 5.656248,-5.656252 c 1.566944,-1.566948 1.566944,-4.0893 0,-5.656248 L 42.5,28.929688 c -0.783472,-0.783472 -1.805648,-1.171876 -2.828124,-1.171876 z m 45.257812,45.25 c -1.022476,0 -2.044652,0.3884 -2.828124,1.171876 L 76.445312,79.835936 80,92 l 13.421876,4.804688 5.656248,-5.656252 c 1.566946,-1.566948 1.566946,-4.0893 0,-5.656248 L 87.757812,74.179688 C 86.97434,73.396216 85.952164,73.007812 84.929688,73.007812 Z" />
  <path
     id="rect788"
     style="fill:#ffffff;stroke-width:4"
     d="m 31.195312,34.578124 c -6.267778,6.267776 -3.745412,18.8874 5.65625,28.289064 l 28.28125,28.281248 C 74.53448,100.5501 87.1541,103.07247 93.421876,96.804688 L 76.445312,79.835936 c -1.56694,1.56694 -4.089308,1.56694 -5.656248,0 l -22.625,-22.625 c -1.56694,-1.56694 -1.56694,-4.089308 0,-5.656248 z" />
</svg>
