<?xml version="1.0" encoding="UTF-8" standalone="no"?>
<!-- Created with Inkscape (http://www.inkscape.org/) -->

<svg
   width="128"
   height="128"
   viewBox="0 0 128 128.00001"
   version="1.1"
   id="svg1"
   inkscape:version="1.4.2 (ebf0e940d0, 2025-05-08)"
   sodipodi:docname="cities-skylines-2.svg"
   xmlns:inkscape="http://www.inkscape.org/namespaces/inkscape"
   xmlns:sodipodi="http://sodipodi.sourceforge.net/DTD/sodipodi-0.dtd"
   xmlns:xlink="http://www.w3.org/1999/xlink"
   xmlns="http://www.w3.org/2000/svg"
   xmlns:svg="http://www.w3.org/2000/svg">
  <sodipodi:namedview
     id="namedview1"
     pagecolor="#ffffff"
     bordercolor="#000000"
     borderopacity="0.25"
     inkscape:showpageshadow="2"
     inkscape:pageopacity="0.0"
     inkscape:pagecheckerboard="0"
     inkscape:deskcolor="#d1d1d1"
     inkscape:document-units="px"
     inkscape:zoom="6.140625"
     inkscape:cx="63.918575"
     inkscape:cy="64"
     inkscape:window-width="1920"
     inkscape:window-height="1011"
     inkscape:window-x="0"
     inkscape:window-y="0"
     inkscape:window-maximized="1"
     inkscape:current-layer="svg1"
     showguides="false" />
  <defs
     id="defs1">
    <linearGradient
       inkscape:collect="always"
       xlink:href="#linearGradient3"
       id="linearGradient4"
       x1="16"
       y1="30"
       x2="16"
       y2="2"
       gradientUnits="userSpaceOnUse"
       gradientTransform="scale(4)" />
    <linearGradient
       inkscape:collect="always"
       id="linearGradient3">
      <stop
         style="stop-color:#18d7ff;stop-opacity:1;"
         offset="0"
         id="stop1" />
      <stop
         style="stop-color:#0071de;stop-opacity:1;"
         offset="1"
         id="stop2" />
    </linearGradient>
  </defs>
  <rect
     style="opacity:0.2;fill:#000000;stroke-width:9.8"
     id="rect1"
     width="112"
     height="112"
     x="8"
     y="9"
     ry="24" />
  <rect
     style="fill:url(#linearGradient4);stroke-width:4"
     id="rect2"
     width="112"
     height="112"
     x="8"
     y="8"
     ry="24" />
  <path
     id="path2"
     style="fill:#ffffff;stroke-width:4"
     d="m 66.007812,24 v 0.008 c -0.0048,5.76754 0.0016,11.537148 0,17.304688 11.062992,6.299496 22.1237,12.590328 33.1875,18.890624 0.2664,0.144 0.522128,0.31748 0.804688,0.4375 V 47.054876 c 0.006,-0.407968 -0.0048,-0.814784 -0.10156,-1.218752 -0.23408,-1.388692 -0.978316,-2.691232 -2.0625,-3.60156 C 97.2547,41.730604 96.556376,41.40298 95.89844,41.015812 88.29626,36.686588 80.695928,32.359904 73.093752,28.031452 70.73084,26.689756 68.373952,25.337492 66.007812,24 Z M 62,24.007812 c -0.38716,0.2158 -0.762876,0.440468 -1.148436,0.656252 -9.843184,5.657148 -19.68808,11.3116 -29.531252,16.968748 -0.33904,0.192 -0.674684,0.39284 -0.976564,0.632812 -1.336056,1.041516 -2.205132,2.652876 -2.3125,4.33594 v 13.093748 c 0.004,0.431968 0.0052,0.87272 0.08592,1.304688 0.14528,0.98792 0.636088,1.920996 1.382816,2.593752 0.42784,0.415964 0.970392,0.677996 1.47656,0.984372 3.514096,2.044636 7.024968,4.088172 10.539064,6.132812 0.52472,0.29596 1.045316,0.624676 1.578128,0.906252 0.004,-0.727944 -0.0016,-1.447136 0,-2.171876 -0.0032,-3.922888 0.002,-7.850548 0.008,-11.773436 0.0032,-1.847052 -0.0104,-3.692012 0,-5.539064 0.51664,-0.31196 1.05582,-0.607872 1.578124,-0.906248 5.774164,-3.299468 11.54536,-6.60134 17.320312,-9.89844 z m 22.9375,32.359376 c 0.01,0.0056 0.0212,0.01 0.0312,0.0156 3.6e-5,-0.0056 -4.8e-5,-0.01 0,-0.0156 z m 0.0312,0.0156 c -0.0038,0.522276 7.92e-4,1.052788 0,1.578124 0.004,3.934084 -0.002,7.8706 -0.008,11.804688 -8.08e-4,2.033436 8.08e-4,4.067328 0,6.101564 -6.316976,3.610112 -12.63614,7.217212 -18.953124,10.828124 0.0024,5.76594 -0.0088,11.53094 0,17.296872 0.65392,-0.368 1.312432,-0.749 1.968752,-1.125 9.427432,-5.419556 18.860824,-10.838236 28.28906,-16.257808 0.49248,-0.288 0.996724,-0.555656 1.4375,-0.914064 1.120504,-0.886328 1.909248,-2.175224 2.179688,-3.570312 0.161444,-0.75992 0.10128,-1.535952 0.10936,-2.304688 -8.08e-4,-3.841292 -8.08e-4,-7.682944 0,-11.523436 -0.004,-0.439968 0.0026,-0.895176 -0.07812,-1.33594 -0.18572,-1.2687 -0.97754,-2.433804 -2.08594,-3.093748 -4.288,-2.495604 -8.568188,-4.994312 -12.859372,-7.484376 z M 28.015624,67.351564 28,67.359376 c 0.0052,0.0022 0.0104,0.0056 0.0156,0.008 z m 0,0.0156 c -0.0016,4.4418 0,8.879308 0,13.320312 0.004,0.256 0,0.517328 0,0.781252 0.08072,1.112712 0.437936,2.201256 1.078128,3.117184 0.50856,0.73592 1.193496,1.363732 1.97656,1.8125 10.307368,5.86678 20.6075,11.73486 30.914064,17.601588 0.0064,-5.768336 0.0044,-11.536348 0.008,-17.304688 -2.646644,-1.512664 -5.296804,-3.014756 -7.9455,-4.523436 -8.436904,-4.804412 -16.875596,-9.610448 -25.3125,-14.414064 -0.2374,-0.12548 -0.466472,-0.279 -0.718752,-0.39064 z"
     sodipodi:nodetypes="csccccccccccccccccccccccccccccccccccccccccccccccccccccccccccc" />
</svg>
