<?xml version="1.0" encoding="UTF-8" standalone="no"?>
<!-- Created with Inkscape (http://www.inkscape.org/) -->

<svg
   width="128"
   height="128"
   viewBox="0 0 128 128.00001"
   version="1.1"
   id="svg1"
   inkscape:version="1.4.2 (ebf0e940d0, 2025-05-08)"
   sodipodi:docname="civ-vi.svg"
   xmlns:inkscape="http://www.inkscape.org/namespaces/inkscape"
   xmlns:sodipodi="http://sodipodi.sourceforge.net/DTD/sodipodi-0.dtd"
   xmlns:xlink="http://www.w3.org/1999/xlink"
   xmlns="http://www.w3.org/2000/svg"
   xmlns:svg="http://www.w3.org/2000/svg">
  <sodipodi:namedview
     id="namedview1"
     pagecolor="#ffffff"
     bordercolor="#000000"
     borderopacity="0.25"
     inkscape:showpageshadow="2"
     inkscape:pageopacity="0.0"
     inkscape:pagecheckerboard="0"
     inkscape:deskcolor="#d1d1d1"
     inkscape:document-units="px"
     inkscape:zoom="6.140625"
     inkscape:cx="63.918575"
     inkscape:cy="64"
     inkscape:window-width="1920"
     inkscape:window-height="1011"
     inkscape:window-x="0"
     inkscape:window-y="0"
     inkscape:window-maximized="1"
     inkscape:current-layer="svg1" />
  <defs
     id="defs1">
    <linearGradient
       inkscape:collect="always"
       xlink:href="#linearGradient871"
       id="linearGradient4"
       x1="-1.980198"
       y1="0"
       x2="0"
       y2="16"
       gradientUnits="userSpaceOnUse"
       gradientTransform="matrix(7,0,0,7,120,8)" />
    <linearGradient
       inkscape:collect="always"
       id="linearGradient871">
      <stop
         style="stop-color:#fee293;stop-opacity:1;"
         offset="0"
         id="stop867" />
      <stop
         style="stop-color:#fffad0;stop-opacity:1;"
         offset="0.5"
         id="stop4835" />
      <stop
         style="stop-color:#fffaea;stop-opacity:1;"
         offset="1"
         id="stop869" />
    </linearGradient>
    <radialGradient
       inkscape:collect="always"
       xlink:href="#linearGradient879"
       id="radialGradient3"
       cx="-15.210008"
       cy="14.392661"
       fx="-15.210008"
       fy="14.392661"
       r="8"
       gradientUnits="userSpaceOnUse"
       gradientTransform="matrix(9.4914344,3.4745448,-3.4611038,9.4547164,207.70922,25.51796)" />
    <linearGradient
       inkscape:collect="always"
       id="linearGradient879">
      <stop
         style="stop-color:#f7cea2;stop-opacity:1;"
         offset="0"
         id="stop875" />
      <stop
         style="stop-color:#f7cea2;stop-opacity:0;"
         offset="1"
         id="stop877" />
    </linearGradient>
    <linearGradient
       inkscape:collect="always"
       xlink:href="#linearGradient1389"
       id="linearGradient970"
       x1="11.013281"
       y1="4.3410792"
       x2="11.013281"
       y2="11.467776"
       gradientUnits="userSpaceOnUse"
       gradientTransform="matrix(7.559056,0,0,7.559056,20.749992,7.18554)" />
    <linearGradient
       inkscape:collect="always"
       id="linearGradient1389">
      <stop
         style="stop-color:#ffffff;stop-opacity:0"
         offset="0"
         id="stop1385" />
      <stop
         style="stop-color:#ffffff;stop-opacity:0.57254902;"
         offset="0.5"
         id="stop1969" />
      <stop
         style="stop-color:#ffffff;stop-opacity:0.00353621"
         offset="1"
         id="stop1387" />
    </linearGradient>
  </defs>
  <rect
     style="opacity:0.2;fill:#000000;stroke-width:9.8"
     id="rect1"
     width="112"
     height="112"
     x="8"
     y="9"
     ry="24" />
  <rect
     style="fill:url(#linearGradient4);stroke-width:7"
     id="rect2"
     width="112"
     height="112"
     x="8"
     y="8"
     ry="24" />
  <rect
     style="fill:url(#radialGradient3);stroke-width:7"
     id="rect3"
     width="112"
     height="112"
     x="8"
     y="8.0000038"
     ry="24" />
  <path
     d="m 24,40 v 0.69362 c 2.160196,0.618332 2.933052,1.854628 4.939436,6.251928 L 49.856228,93.87208 h 1.156256 L 70.695536,49.416284 c 2.314696,-5.250104 3.010268,-7.487728 6.251932,-8.722664 V 40 c -2.702304,0.15448 -5.711844,0.1542 -8.645892,0.1542 -1.697732,0 -3.626904,-0.07732 -5.324644,-0.1542 v 0.69362 c 1.389432,0.23108 2.006084,1.004068 2.006084,2.085536 0,1.695684 -0.463524,2.699732 -0.925268,3.781196 L 50.395636,78.74528 38.356392,49.802144 c -1.080784,-2.624708 -1.929312,-4.94022 -1.929312,-6.175156 0,-1.698424 0.848528,-2.546104 2.314524,-2.933368 V 40 C 32.180692,40.1545 27.087852,40.1545 24,40 Z m 64.485344,0.0013 v 0.69362 c 3.1651,0.693164 3.85862,3.395496 3.85862,10.651988 v 28.865728 c 0,7.562744 -0.770768,9.799704 -3.85862,10.573204 v 0.69362 c 2.391944,-0.07756 5.093452,-0.15224 7.950244,-0.15224 2.545408,0 5.247672,0.07484 7.564412,0.15224 v -0.69362 c -3.00992,-0.7735 -3.93741,-2.856988 -3.93741,-10.573204 V 51.346944 c 0,-7.333736 0.77265,-9.958804 3.93741,-10.65198 v -0.693616 c -2.62539,0.07688 -5.327688,0.1542 -7.7186,0.1542 -2.394332,0 -5.0941,-0.07732 -7.796056,-0.1542 z"
     style="fill:#9b371e;stroke-width:0.341804"
     id="path1755" />
  <path
     d="m 24,40 v 0.695312 c 2.160196,0.618332 2.931116,1.852704 4.9375,6.25 L 49.855468,93.8711 H 51.01172 L 70.695316,49.417968 c 2.314696,-5.250104 3.01224,-7.487716 6.253904,-8.722656 V 40 c -2.7023,0.15448 -5.714388,0.15232 -8.648436,0.15232 -1.697732,0 -3.626476,-0.07544 -5.32422,-0.15232 v 0.695312 c 1.389432,0.23108 2.007812,1.000568 2.007816,2.082032 0,1.695684 -0.464036,2.699784 -0.925784,3.781252 L 50.394532,78.7461 38.355464,49.800784 c -1.080788,-2.624708 -1.929684,-4.93694 -1.929684,-6.171876 0,-1.698424 0.850408,-2.546328 2.316404,-2.933596 V 40 C 32.181272,40.1545 27.087852,40.1545 24,40 Z m 64.48438,0 v 0.695312 c 3.165088,0.693168 3.859372,3.395856 3.859372,10.652344 v 28.863292 c 0,7.562748 -0.77152,9.80072 -3.859372,10.574216 v 0.69528 c 2.39194,-0.07756 5.096336,-0.15232 7.95312,-0.15232 2.545416,0 5.24576,0.07484 7.5625,0.15232 v -0.69528 c -3.00992,-0.773496 -3.9375,-2.858 -3.9375,-10.574216 V 51.347656 c 0,-7.333732 0.77275,-9.959168 3.9375,-10.652344 V 40 c -2.62539,0.07688 -5.327832,0.15628 -7.71874,0.15628 -2.394324,0 -5.094932,-0.0794 -7.79688,-0.15628 z"
     style="opacity:0.5;fill:url(#linearGradient970);fill-opacity:1;stroke-width:1.29186"
     id="path338" />
</svg>
