<?xml version="1.0" encoding="UTF-8" standalone="no"?>
<!-- Created with Inkscape (http://www.inkscape.org/) -->

<svg
   width="128"
   height="128"
   viewBox="0 0 128 128.00001"
   version="1.1"
   id="svg1"
   inkscape:version="1.4.2 (ebf0e940d0, 2025-05-08)"
   sodipodi:docname="com.github.maoschanz.drawing.svg"
   xmlns:inkscape="http://www.inkscape.org/namespaces/inkscape"
   xmlns:sodipodi="http://sodipodi.sourceforge.net/DTD/sodipodi-0.dtd"
   xmlns:xlink="http://www.w3.org/1999/xlink"
   xmlns="http://www.w3.org/2000/svg"
   xmlns:svg="http://www.w3.org/2000/svg">
  <sodipodi:namedview
     id="namedview1"
     pagecolor="#ffffff"
     bordercolor="#000000"
     borderopacity="0.25"
     inkscape:showpageshadow="2"
     inkscape:pageopacity="0.0"
     inkscape:pagecheckerboard="0"
     inkscape:deskcolor="#d1d1d1"
     inkscape:document-units="px"
     inkscape:zoom="6.140625"
     inkscape:cx="63.918575"
     inkscape:cy="64"
     inkscape:window-width="1920"
     inkscape:window-height="1011"
     inkscape:window-x="0"
     inkscape:window-y="0"
     inkscape:window-maximized="1"
     inkscape:current-layer="svg1" />
  <defs
     id="defs1">
    <linearGradient
       inkscape:collect="always"
       xlink:href="#linearGradient3028"
       id="linearGradient4"
       x1="16"
       y1="30"
       x2="16"
       y2="2"
       gradientUnits="userSpaceOnUse"
       gradientTransform="scale(4)" />
    <linearGradient
       inkscape:collect="always"
       id="linearGradient3028">
      <stop
         style="stop-color:#ef8d7a;stop-opacity:1;"
         offset="0"
         id="stop3024" />
      <stop
         style="stop-color:#e5443f;stop-opacity:1;"
         offset="1"
         id="stop3026" />
    </linearGradient>
  </defs>
  <rect
     style="opacity:0.2;fill:#000000;stroke-width:7"
     id="rect1"
     width="112"
     height="112"
     x="8"
     y="9"
     ry="24" />
  <rect
     style="fill:url(#linearGradient4);stroke-width:4"
     id="rect2"
     width="112"
     height="112"
     x="8"
     y="8"
     ry="24" />
  <path
     d="m 19.985102,51.275688 c -1.523146,-0.514164 -3.174592,0.30456 -3.6875,1.828128 -0.514176,1.523144 0.304552,3.174592 1.828126,3.687496 2.882596,0.978312 3.085694,1.7324 3.265624,3.359384 0.17992,1.626976 -0.436784,4.270208 -1.03125,7.125 -0.594464,2.85478 -1.2685,6.175296 0.468752,9.359376 1.73725,3.184072 5.579878,4.929072 11.328126,5.296864 2.462836,0.1576 3.850196,0.970796 4.953124,2.140628 1.102932,1.169828 1.873616,2.84306 2.328124,4.640628 0.909024,3.595132 0.515624,7.312488 0.515624,7.312488 -0.18164,1.591032 0.956708,3.029696 2.546876,3.218748 1.59676,0.19096 3.04552,-0.949872 3.234376,-2.54688 0,0 0.5756,-4.550096 -0.65624,-9.421864 -0.61592,-2.43588 -1.703128,-5.048668 -3.734388,-7.20312 -2.031256,-2.154448 -5.058336,-3.712916 -8.8125,-3.953128 -4.830424,-0.30908 -6.124588,-1.405736 -6.593748,-2.265624 -0.46916,-0.859888 -0.418344,-2.781352 0.125,-5.390624 0.54334,-2.609272 1.475456,-5.64296 1.109376,-8.953128 -0.36608,-3.310168 -2.812224,-6.749464 -7.187502,-8.234372 z"
     style="color:#000000;opacity:0.5;fill:#ffffff;stroke:none;stroke-width:8;stroke-linecap:round;-inkscape-stroke:none"
     id="path1648" />
  <path
     id="path1089"
     style="fill:#ffffff;stroke-width:2"
     d="m 99.203116,29.48058 c -0.957696,0.04592 -1.90612,0.437368 -2.640624,1.171872 -0.09792,0.09792 -0.19556,0.19192 -0.28124,0.29688 l -50.625,50.60936 L 40,98.527444 56.968752,92.871192 107.57801,42.246092 c 0.0524,-0.0428 0.10548,-0.09472 0.15636,-0.14052 l 0.14064,-0.14064 c 1.56695,-1.566944 1.56695,-4.0893 0,-5.656248 l -5.65627,-5.656232 c -0.83244,-0.83244 -1.93024,-1.2239 -3.015624,-1.171872 z" />
</svg>
