<?xml version="1.0" encoding="UTF-8" standalone="no"?>
<!-- Created with Inkscape (http://www.inkscape.org/) -->

<svg
   width="128"
   height="128"
   viewBox="0 0 128 128.00001"
   version="1.1"
   id="svg1"
   inkscape:version="1.4.2 (ebf0e940d0, 2025-05-08)"
   sodipodi:docname="cpu-x.svg"
   xmlns:inkscape="http://www.inkscape.org/namespaces/inkscape"
   xmlns:sodipodi="http://sodipodi.sourceforge.net/DTD/sodipodi-0.dtd"
   xmlns:xlink="http://www.w3.org/1999/xlink"
   xmlns="http://www.w3.org/2000/svg"
   xmlns:svg="http://www.w3.org/2000/svg">
  <sodipodi:namedview
     id="namedview1"
     pagecolor="#ffffff"
     bordercolor="#000000"
     borderopacity="0.25"
     inkscape:showpageshadow="2"
     inkscape:pageopacity="0.0"
     inkscape:pagecheckerboard="0"
     inkscape:deskcolor="#d1d1d1"
     inkscape:document-units="px"
     inkscape:zoom="6.21875"
     inkscape:cx="63.919598"
     inkscape:cy="64"
     inkscape:window-width="1920"
     inkscape:window-height="1011"
     inkscape:window-x="0"
     inkscape:window-y="0"
     inkscape:window-maximized="1"
     inkscape:current-layer="svg1"
     showguides="false" />
  <defs
     id="defs1">
    <linearGradient
       inkscape:collect="always"
       xlink:href="#linearGradient1940"
       id="linearGradient4"
       x1="16"
       y1="30"
       x2="16"
       y2="2"
       gradientUnits="userSpaceOnUse"
       gradientTransform="scale(3.9999999)" />
    <linearGradient
       inkscape:collect="always"
       id="linearGradient1993">
      <stop
         style="stop-color:#e9e9e9;stop-opacity:1;"
         offset="0"
         id="stop1989" />
      <stop
         style="stop-color:#d0d0d0;stop-opacity:1;"
         offset="1"
         id="stop1991" />
    </linearGradient>
    <linearGradient
       inkscape:collect="always"
       id="linearGradient1940">
      <stop
         style="stop-color:#28b013;stop-opacity:1;"
         offset="0"
         id="stop1936" />
      <stop
         style="stop-color:#4ac265;stop-opacity:1;"
         offset="1"
         id="stop1938" />
    </linearGradient>
    <linearGradient
       inkscape:collect="always"
       xlink:href="#linearGradient1993"
       id="linearGradient6"
       x1="11"
       y1="4"
       x2="11"
       y2="18"
       gradientUnits="userSpaceOnUse"
       gradientTransform="matrix(5.7142851,0,0,5.7142851,1.1428583,1.1428583)" />
  </defs>
  <rect
     style="opacity:0.2;fill:#000000;stroke-width:9.8"
     id="rect1"
     width="112"
     height="112"
     x="8"
     y="9"
     ry="24" />
  <rect
     style="fill:url(#linearGradient4);stroke-width:4"
     id="rect2"
     width="112"
     height="112"
     x="8"
     y="8"
     ry="24" />
  <rect
     style="opacity:0.2;fill:#000000;stroke-width:11.4286"
     id="rect3"
     width="80"
     height="80"
     x="24"
     y="25"
     ry="16" />
  <rect
     style="opacity:1;fill:url(#linearGradient6);stroke-width:11.4286"
     id="rect4"
     width="80"
     height="80"
     x="24"
     y="24"
     ry="16" />
  <path
     d="m 67.044436,76.301452 c -4.48064,2.080296 -8.649236,2.064296 -11.449636,1.856264 -3.336476,-0.24004 -6.02326,-1.152172 -7.203428,-1.95228 -0.727304,-0.487268 -1.716248,-0.30324 -2.209116,0.424064 -0.492072,0.728104 -0.30164,1.720244 0.42566,2.208312 1.897072,1.288192 5.253548,2.240328 8.762852,2.496368 0.592084,0.04 1.240176,0.072 1.944276,0.072 3.048436,0 6.928992,-0.29604 11.073584,-2.224324 0.792112,-0.36804 1.13616,-1.312188 0.768108,-2.112304 -0.36804,-0.792112 -1.320188,-1.13536 -2.1123,-0.768108 z M 84.72696,73.941908 C 84.879,60.123932 86.295184,34.010604 59.843408,36.120504 33.723676,38.224804 40.649464,65.812744 40.259808,75.054064 39.914968,79.941972 38.292328,85.918832 36,91.999704 h 7.060208 c 0.725704,-2.576372 1.25938,-5.128736 1.489012,-7.55308 0.425664,0.29604 0.880928,0.584084 1.367396,0.85612 0.790512,0.464068 1.469012,1.088148 2.189112,1.744244 1.68104,1.528224 3.587712,3.264464 7.313048,3.480504 0.24804,0.016 0.504072,0.024 0.744104,0.024 3.76854,0 6.344908,-1.648236 8.417204,-2.976428 0.99214,-0.632088 1.848264,-1.176168 2.65638,-1.440204 2.296328,-0.720104 4.296612,-1.880268 5.792824,-3.35248 0.23204,-0.23204 0.448064,-0.464064 0.656096,-0.7121 0.83212,3.056428 1.97628,6.49692 3.240464,9.929412 H 92 c -3.616516,-5.5928 -7.353052,-11.065576 -7.27304,-18.057784 z m -41.938792,-7.513076 -8e-4,-0.008 c -0.25924,-4.504644 1.898672,-8.297184 4.819892,-8.473212 2.921216,-0.16804 5.499184,3.35248 5.75522,7.865124 h 0.008 c 0.008,0.24004 0.016,0.480068 0.016,0.720104 -0.928132,0.23204 -1.760252,0.56808 -2.50836,0.96814 -0.0032,-0.04 -0.0056,-0.072 -0.0088,-0.104 v 0 c -0.25044,-2.560368 -1.617032,-4.496644 -3.054836,-4.320616 -1.436204,0.17604 -2.398744,2.39234 -2.149108,4.952704 v 0 c 0.1088,1.12016 0.430464,2.120304 0.877728,2.872412 -0.112,0.088 -0.426464,0.32004 -0.788116,0.584084 -0.27204,0.20004 -0.602484,0.440064 -1.00174,0.736104 -1.087356,-1.432204 -1.832264,-3.480496 -1.965884,-5.792828 z m 29.593028,11.1448 c -0.104,2.38434 -3.22446,4.624668 -6.096868,5.520796 l -0.024,0.008 c -1.192172,0.39204 -2.264324,1.072152 -3.392484,1.800256 -1.896272,1.208172 -3.864552,2.472352 -6.69696,2.472352 -0.19204,0 -0.38404,-0.008 -0.56808,-0.024 -2.600372,-0.15204 -3.814144,-1.256176 -5.351964,-2.656384 -0.812916,-0.744108 -1.652236,-1.504216 -2.733192,-2.144308 l -0.0232,-0.008 c -2.336336,-1.32018 -3.786144,-2.960432 -3.878956,-4.384628 -0.0456,-0.7121 0.27044,-1.328196 0.940136,-1.83226 1.456208,-1.087364 2.432344,-1.799468 3.077236,-2.271532 0.717704,-0.528076 0.934536,-0.6881 1.09376,-0.84012 0.1152,-0.104 0.23844,-0.22404 0.37204,-0.36004 1.337792,-1.296188 3.575712,-3.472496 7.0082,-3.472496 2.1043,0 4.424632,0.808116 6.896984,2.40034 1.168168,0.760112 2.184312,1.11216 3.472496,1.552224 0.880128,0.30404 1.880272,0.648092 3.224464,1.224176 l 0.024,0.008 c 1.24818,0.520072 2.728392,1.455416 2.65638,3.007636 z M 71.6931,71.973624 c -0.24004,-0.12 -0.488072,-0.23204 -0.752108,-0.34404 -1.208172,-0.520076 -2.176312,-0.864124 -2.984428,-1.144164 0.448064,-0.872124 0.720104,-1.96028 0.744108,-3.136448 v 0 c 0.064,-2.864408 -1.376196,-5.18474 -3.22446,-5.19274 -1.840264,-0.008 -3.384484,2.312328 -3.448492,5.17674 v 0 0.28004 c -1.136164,-0.520076 -2.256324,-0.896128 -3.34448,-1.136164 -0.008,-0.104 -0.016,-0.21604 -0.016,-0.32004 v 0 c -0.104,-5.224748 3.09644,-9.537364 7.15302,-9.64938 4.05658,-0.112 7.42506,4.032576 7.537076,9.24932 v 0 c 0.04,2.36034 -0.584084,4.536648 -1.664236,6.216888 z"
     style="opacity:0.4;fill:#000000;stroke-width:8.00116"
     id="path364" />
</svg>
