<?xml version="1.0" encoding="UTF-8" standalone="no"?>
<!-- Created with Inkscape (http://www.inkscape.org/) -->

<svg
   width="128"
   height="128"
   viewBox="0 0 128 128.00001"
   version="1.1"
   id="svg1"
   inkscape:version="1.4.2 (ebf0e940d0, 2025-05-08)"
   sodipodi:docname="cuttlefish.svg"
   xmlns:inkscape="http://www.inkscape.org/namespaces/inkscape"
   xmlns:sodipodi="http://sodipodi.sourceforge.net/DTD/sodipodi-0.dtd"
   xmlns:xlink="http://www.w3.org/1999/xlink"
   xmlns="http://www.w3.org/2000/svg"
   xmlns:svg="http://www.w3.org/2000/svg">
  <sodipodi:namedview
     id="namedview1"
     pagecolor="#ffffff"
     bordercolor="#000000"
     borderopacity="0.25"
     inkscape:showpageshadow="2"
     inkscape:pageopacity="0.0"
     inkscape:pagecheckerboard="0"
     inkscape:deskcolor="#d1d1d1"
     inkscape:document-units="px"
     inkscape:zoom="6.203125"
     inkscape:cx="63.919395"
     inkscape:cy="64"
     inkscape:window-width="1920"
     inkscape:window-height="1009"
     inkscape:window-x="0"
     inkscape:window-y="0"
     inkscape:window-maximized="1"
     inkscape:current-layer="svg1" />
  <defs
     id="defs1">
    <linearGradient
       inkscape:collect="always"
       id="linearGradient1606">
      <stop
         style="stop-color:#eaebed;stop-opacity:1;"
         offset="0"
         id="stop1602" />
      <stop
         style="stop-color:#f9fafa;stop-opacity:1;"
         offset="1"
         id="stop1604" />
    </linearGradient>
    <linearGradient
       inkscape:collect="always"
       xlink:href="#linearGradient1606"
       id="linearGradient4"
       x1="16"
       y1="30"
       x2="16"
       y2="2"
       gradientUnits="userSpaceOnUse"
       gradientTransform="scale(4)" />
    <linearGradient
       inkscape:collect="always"
       xlink:href="#linearGradient986"
       id="linearGradient2369"
       x1="24"
       y1="45"
       x2="24"
       y2="3"
       gradientUnits="userSpaceOnUse"
       gradientTransform="matrix(2.6666668,0,0,2.6666668,4.68e-5,0)" />
    <linearGradient
       inkscape:collect="always"
       id="linearGradient986">
      <stop
         style="stop-color:#ffa12a;stop-opacity:1;"
         offset="0"
         id="stop982" />
      <stop
         style="stop-color:#ffdc75;stop-opacity:1;"
         offset="1"
         id="stop984" />
    </linearGradient>
  </defs>
  <rect
     style="opacity:0.2;fill:#000000;stroke-width:7"
     id="rect1"
     width="112"
     height="112"
     x="8"
     y="9"
     ry="24" />
  <rect
     style="fill:url(#linearGradient4);stroke-width:4"
     id="rect2"
     width="112"
     height="112"
     x="8"
     y="8"
     ry="24" />
  <path
     d="m 63.828046,24 c -15.324,0 -33.538,12.552672 -37.308,26.666672 -1.7756,10.622 1.1494,18.315332 6.5112,23.461332 0.1436,1.504 0.430572,3.006 0.3048,4.508 -0.004,0.044 -0.0108,0.09 -0.0156,0.134 -0.0284,0.282 -0.07144,0.564 -0.1368,0.848 -0.0276,0.114 -0.0712,0.232 -0.10536,0.346 -0.06304,0.216 -0.1248,0.43 -0.21496,0.646 -0.07544,0.178 -0.18464,0.356 -0.2812,0.534 -0.0896,0.168 -0.1636,0.334 -0.27336,0.5 -0.22536,0.342 -0.488628,0.682 -0.8086,1.024 -1.25,1.334 -2.3438,2.166 -3.2812,2.708 -2.81276,1.624 -4.21896,0.624 -4.21896,2.624 0,2.166 4.9498,6.092 9.488204,4.628 0.698396,-0.224 1.3878,-0.574 2.047,-1.082 0.3296,-0.252 0.652796,-0.544 0.964796,-0.878 0.572004,-0.612 1.07,-1.182 1.512004,-1.718 0.435996,-0.526 0.805996,-1.01 1.139996,-1.47 0.076,0.67 0.032,1.518 -0.292,2.812 -1.293996,5.152 -8.137,4.72 -4.86,8.376 2.54,2.834006 10.13,2.942006 14.328,-0.738 -1.674,3.794006 -4.218,6.070006 0.672,6.070006 7.5,0 15,-5.332006 15,-13.332006 0,8 7.5,13.332006 15,13.332006 4.89,0 2.346,-2.276 0.672,-6.070006 4.198,3.680006 11.788,3.572006 14.328,0.738 3.278,-3.656 -3.566,-3.224 -4.86,-8.376 -0.326,-1.296 -0.37,-2.144 -0.292,-2.816 0.676,0.934 1.522,1.986 2.652,3.192 5,5.334 12.500004,-0.002 12.500004,-2.668 0,-2.666 -2.5,0.002 -7.500004,-5.332 -2.79,-2.976 -1.724,-5.954 -1.508,-8.93 5.786004,-5.232 8.532004,-12.869332 6.144004,-23.071332 C 95.812006,35.538472 79.152006,24 63.828006,24 Z"
     style="fill:url(#linearGradient2369);fill-opacity:1;stroke-width:2"
     id="path312"
     sodipodi:nodetypes="scccccccccccsccccccccscscccccscccs" />
  <ellipse
     style="fill:#ffffff;stroke-width:4;stroke-linecap:round;stroke-linejoin:round"
     id="path697"
     cx="46.00013"
     cy="52.000008"
     rx="6"
     ry="8" />
  <ellipse
     style="fill:#ffffff;stroke-width:5.65684;stroke-linecap:round;stroke-linejoin:round"
     id="path1307"
     cx="82.00013"
     cy="52.000008"
     rx="6"
     ry="8" />
  <ellipse
     style="fill:#333333;stroke-width:2.82842;stroke-linecap:round;stroke-linejoin:round"
     id="path1309"
     cx="49.00013"
     cy="52.000008"
     rx="3"
     ry="4" />
  <ellipse
     style="fill:#333333;stroke-width:4.89896;stroke-linecap:round;stroke-linejoin:round"
     id="path1363"
     cx="85"
     cy="52.000008"
     rx="3"
     ry="4" />
</svg>
