<?xml version="1.0" encoding="UTF-8" standalone="no"?>
<!-- Created with Inkscape (http://www.inkscape.org/) -->

<svg
   width="128"
   height="128"
   viewBox="0 0 128 128.00001"
   version="1.1"
   id="svg1"
   inkscape:version="1.4.2 (ebf0e940d0, 2025-05-08)"
   sodipodi:docname="desktop-environment-xfce.svg"
   xmlns:inkscape="http://www.inkscape.org/namespaces/inkscape"
   xmlns:sodipodi="http://sodipodi.sourceforge.net/DTD/sodipodi-0.dtd"
   xmlns:xlink="http://www.w3.org/1999/xlink"
   xmlns="http://www.w3.org/2000/svg"
   xmlns:svg="http://www.w3.org/2000/svg">
  <sodipodi:namedview
     id="namedview1"
     pagecolor="#ffffff"
     bordercolor="#000000"
     borderopacity="0.25"
     inkscape:showpageshadow="2"
     inkscape:pageopacity="0.0"
     inkscape:pagecheckerboard="0"
     inkscape:deskcolor="#d1d1d1"
     inkscape:document-units="px"
     inkscape:zoom="6.140625"
     inkscape:cx="63.918575"
     inkscape:cy="64"
     inkscape:window-width="1920"
     inkscape:window-height="1011"
     inkscape:window-x="0"
     inkscape:window-y="0"
     inkscape:window-maximized="1"
     inkscape:current-layer="svg1" />
  <defs
     id="defs1">
    <linearGradient
       inkscape:collect="always"
       xlink:href="#linearGradient2"
       id="linearGradient4"
       x1="16"
       y1="30"
       x2="16"
       y2="2"
       gradientUnits="userSpaceOnUse"
       gradientTransform="scale(4)" />
    <linearGradient
       inkscape:collect="always"
       id="linearGradient2">
      <stop
         style="stop-color:#26448e;stop-opacity:1;"
         offset="0"
         id="stop1" />
      <stop
         style="stop-color:#6074be;stop-opacity:1;"
         offset="1"
         id="stop2" />
    </linearGradient>
  </defs>
  <rect
     style="opacity:0.2;fill:#000000;stroke-width:7"
     id="rect1"
     width="112"
     height="112"
     x="8"
     y="9"
     ry="24" />
  <rect
     style="fill:url(#linearGradient4);stroke-width:4"
     id="rect2"
     width="112"
     height="112"
     x="8"
     y="8"
     ry="24" />
  <path
     style="fill:#f9f9f9;stroke-width:4"
     d="m 15.004206,39.799038 c -0.20416,0.400048 -0.408322,0.797336 -0.604206,1.197378 3.103802,1.724342 12.048278,6.218648 16.29428,8.881022 5.36613,3.285896 12.619376,9.990106 13.190472,11.118514 -5.581328,9.719734 -3.048618,18.322096 -3.708008,19.238064 -0.474536,0.764226 -4.861246,5.581328 -3.44867,6.29313 1.40154,0.700774 3.630764,-0.400042 3.96735,-0.61524 0.700774,-0.430392 1.423614,-1.056674 1.120134,0.18208 -0.593174,2.532702 -3.285896,8.621681 0.430392,7.327738 0.452464,-0.259368 6.433836,-6.853198 7.156682,-7.07943 11.899294,3.1038 25.2084,1.680192 27.672128,0.526954 1.28291,0.08552 4.913666,2.369928 6.982872,3.45971 2.069202,1.07874 7.705712,3.782501 6.036552,-1.131166 -0.51868,-1.553282 -4.223934,-5.51787 -3.622486,-5.777214 1.324294,-0.526956 4.60191,1.368432 5.862742,1.724336 3.771461,1.056672 4.279108,-0.408324 1.898146,-3.63076 -2.35061,-3.22244 -2.703754,-2.725828 -3.448666,-4.212896 -0.582138,-1.19738 0,-2.521668 0.430392,-2.844464 0.76423,-0.582136 12.026198,-6.833888 14.666518,-9.225888 3.91217,-3.556264 0,-7.995396 -0.96012,-8.621672 -8.11404,-5.840668 -16.446022,-4.590872 -16.55362,-5.517876 -0.0552,-1.056668 -0.0328,-4.105296 -0.17384,-5.161972 -0.80837,-7.156684 -4.116336,-5.355096 -4.5688,-5.355096 -3.307968,0.51868 -2.091274,5.581332 -0.689732,10.346016 0.1076,1.216692 -1.153238,0.6787 -1.89815,-0.604208 -2.543742,-6.822852 -3.611448,-6.704216 -4.312222,-6.90838 -0.678696,-0.15176 -3.07069,1.30498 -3.029306,4.063916 0.0112,0.786296 0.949072,4.538452 0.949072,5.691688 -1.56156,1.368432 -1.638808,4.472236 -3.277616,5.6034 C 66.593536,59.757178 55.124638,56.40783 53.69275,56.256086 48.734936,55.329088 46.569174,59.048136 45.77184,58.15424 39.33803,50.782368 29.507936,45.30864 25.250898,44.359562 23.601054,44.003662 18.03076,41.545446 16.025014,40.30668 15.702218,40.113558 15.33528,39.972848 14.979376,39.788 m 88.479094,6.466952 c -1.55328,1.66916 -1.2829,7.909872 -0.96011,7.85745 1.58364,-0.3228 1.43465,-8.359576 0.96011,-7.85745 m 4.49431,0.949074 c -0.18208,-0.507642 -4.26807,5.228184 -3.54523,7.338774 0.3228,0.915962 4.09426,-5.733072 3.54523,-7.338774 m -21.21898,9.75284 c 0.0552,-0.0552 0.11864,0.0224 0.18208,0.08552 0.474536,1.572599 1.001488,3.070696 4.127368,3.44867 0.36696,0.04416 -1.735376,1.271872 -3.178296,0.518682 C 86.548936,60.2124 86.430304,57.31276 86.73379,56.956856 m 8.105752,7.92091 c 0.289682,-0.04416 0.496614,-0.0328 0.700769,0 0.764229,0.193121 -5.545461,3.481777 -6.036551,3.029312 -0.30072,-0.28968 3.363144,-2.662374 5.346816,-3.029312 m 1.63881,2.080235 c 0.656634,0.0552 -3.652828,4.516381 -4.138404,4.052877 -0.35592,-0.3228 2.792043,-4.160472 4.138404,-4.052877"
     id="path3" />
</svg>
