<?xml version="1.0" encoding="UTF-8" standalone="no"?>
<!-- Created with Inkscape (http://www.inkscape.org/) -->

<svg
   width="128"
   height="128"
   viewBox="0 0 128 128.00001"
   version="1.1"
   id="svg1"
   inkscape:version="1.4.2 (ebf0e940d0, 2025-05-08)"
   sodipodi:docname="forza-horizon-5.svg"
   xmlns:inkscape="http://www.inkscape.org/namespaces/inkscape"
   xmlns:sodipodi="http://sodipodi.sourceforge.net/DTD/sodipodi-0.dtd"
   xmlns:xlink="http://www.w3.org/1999/xlink"
   xmlns="http://www.w3.org/2000/svg"
   xmlns:svg="http://www.w3.org/2000/svg">
  <sodipodi:namedview
     id="namedview1"
     pagecolor="#ffffff"
     bordercolor="#000000"
     borderopacity="0.25"
     inkscape:showpageshadow="2"
     inkscape:pageopacity="0.0"
     inkscape:pagecheckerboard="0"
     inkscape:deskcolor="#d1d1d1"
     inkscape:document-units="px"
     inkscape:zoom="6.140625"
     inkscape:cx="63.918575"
     inkscape:cy="64"
     inkscape:window-width="1920"
     inkscape:window-height="1011"
     inkscape:window-x="0"
     inkscape:window-y="0"
     inkscape:window-maximized="1"
     inkscape:current-layer="svg1" />
  <defs
     id="defs1">
    <linearGradient
       inkscape:collect="always"
       id="linearGradient2869">
      <stop
         style="stop-color:#df8251;stop-opacity:1;"
         offset="0"
         id="stop2865" />
      <stop
         style="stop-color:#e72d83;stop-opacity:1;"
         offset="1"
         id="stop2867" />
    </linearGradient>
    <radialGradient
       inkscape:collect="always"
       xlink:href="#linearGradient2869"
       id="radialGradient1"
       cx="32"
       cy="32"
       fx="32"
       fy="32"
       r="28"
       gradientUnits="userSpaceOnUse"
       gradientTransform="scale(2)" />
  </defs>
  <rect
     style="opacity:0.2;fill:#000000;stroke-width:7"
     id="rect1"
     width="112"
     height="112"
     x="8"
     y="9"
     ry="24" />
  <rect
     style="fill:url(#radialGradient1);stroke-width:4"
     id="rect2"
     width="112"
     height="112"
     x="8"
     y="8"
     ry="24" />
  <path
     id="rect288"
     style="fill:#191919;fill-opacity:1;stroke-width:4;stroke-linecap:round;stroke-linejoin:round"
     d="M 58,44 C 46.954342,44 42.570728,45.9444 38,56 h 20 10 24 c 7.080266,0 14.76752,-6.53254 16,-12 z M 20,58 52.664062,67.605468 48,77 60,74 68,58 H 58 Z m 50,0 -8,16 12,-2 6,-14 z m 12,0 -6,14 7.285156,-1.457032 c 2.576648,-0.51533 2.779686,-1.666186 3.652344,-3.351562 L 92,58 Z M 33.914062,64.175782 22,88 44,80 49.605468,68.789062 Z"
     sodipodi:nodetypes="scccscsccccccccccccccscccccccc" />
</svg>
