<?xml version="1.0" encoding="UTF-8" standalone="no"?>
<!-- Created with Inkscape (http://www.inkscape.org/) -->

<svg
   width="128"
   height="128"
   viewBox="0 0 128 128.00001"
   version="1.1"
   id="svg1"
   inkscape:version="1.4.2 (ebf0e940d0, 2025-05-08)"
   sodipodi:docname="garrysmod.svg"
   xmlns:inkscape="http://www.inkscape.org/namespaces/inkscape"
   xmlns:sodipodi="http://sodipodi.sourceforge.net/DTD/sodipodi-0.dtd"
   xmlns="http://www.w3.org/2000/svg"
   xmlns:svg="http://www.w3.org/2000/svg">
  <sodipodi:namedview
     id="namedview1"
     pagecolor="#ffffff"
     bordercolor="#000000"
     borderopacity="0.25"
     inkscape:showpageshadow="2"
     inkscape:pageopacity="0.0"
     inkscape:pagecheckerboard="0"
     inkscape:deskcolor="#d1d1d1"
     inkscape:document-units="px"
     inkscape:zoom="6.140625"
     inkscape:cx="63.918575"
     inkscape:cy="64"
     inkscape:window-width="1920"
     inkscape:window-height="1011"
     inkscape:window-x="0"
     inkscape:window-y="0"
     inkscape:window-maximized="1"
     inkscape:current-layer="svg1" />
  <defs
     id="defs1" />
  <rect
     style="opacity:0.2;fill:#000000;stroke-width:7"
     id="rect1"
     width="112"
     height="112"
     x="8"
     y="9"
     ry="24" />
  <rect
     style="fill:#1295f0;fill-opacity:1;stroke-width:4"
     id="rect2"
     width="112"
     height="112"
     x="8"
     y="8"
     ry="24" />
  <path
     d="m 62.0005,28 c -8.893724,0 -22.009102,5.573686 -22.000368,18.0006 9.24e-4,1.31396 0,16 0,16 -0.04094,7.83128 9.416156,18.000264 22.468372,18.000264 6.444108,0 11.63588,-2.794656 13.532228,-8.000132 v 12 c 0,5.191216 -6.226128,9.259548 -11.296188,9.312288 C 57.478692,93.2031 51.979576,88.77576 52.000332,84.000932 h -12.0002 c -0.03188,10.01384 10.296392,20.080968 24.289604,20.000268 8.2616,-0.0476 14.790248,-3.19614 19.086316,-9.226556 3.220056,-4.660076 4.62408,-6.87618 4.62408,-16.56034 V 29.18962 h -12.0002 v 4.398474 c 0,-4e-4 -4.212072,-5.586494 -14.000236,-5.586494 z m 1.773468,12.0002 c 7.26412,0 12.228204,4.568076 12.228204,14.188236 0,9.52416 -4.81608,13.812228 -12.0802,13.812228 -7.26012,0 -11.9202,-4.192068 -11.9202,-13.812228 0,-9.71616 4.66408,-14.188236 11.772196,-14.188236 z"
     style="fill:#ffffff;stroke-width:4.00008"
     id="path353"
     sodipodi:nodetypes="cssscscccscscccccsssss" />
</svg>
