<?xml version="1.0" encoding="UTF-8" standalone="no"?>
<!-- Created with Inkscape (http://www.inkscape.org/) -->

<svg
   width="128"
   height="128"
   viewBox="0 0 128 128.00001"
   version="1.1"
   id="svg1"
   inkscape:version="1.4.2 (ebf0e940d0, 2025-05-08)"
   sodipodi:docname="gmail.svg"
   xmlns:inkscape="http://www.inkscape.org/namespaces/inkscape"
   xmlns:sodipodi="http://sodipodi.sourceforge.net/DTD/sodipodi-0.dtd"
   xmlns="http://www.w3.org/2000/svg"
   xmlns:svg="http://www.w3.org/2000/svg">
  <sodipodi:namedview
     id="namedview1"
     pagecolor="#ffffff"
     bordercolor="#000000"
     borderopacity="0.25"
     inkscape:showpageshadow="2"
     inkscape:pageopacity="0.0"
     inkscape:pagecheckerboard="0"
     inkscape:deskcolor="#d1d1d1"
     inkscape:document-units="px"
     inkscape:zoom="6.2109375"
     inkscape:cx="64"
     inkscape:cy="64"
     inkscape:window-width="1920"
     inkscape:window-height="1010"
     inkscape:window-x="0"
     inkscape:window-y="0"
     inkscape:window-maximized="1"
     inkscape:current-layer="svg1" />
  <defs
     id="defs1" />
  <rect
     style="opacity:0.2;fill:#000000;stroke-width:7"
     id="rect1"
     width="112"
     height="112"
     x="8"
     y="9"
     ry="24" />
  <rect
     style="fill:#fafafa;fill-opacity:1;stroke-width:4"
     id="rect2"
     width="112"
     height="112"
     x="8"
     y="8"
     ry="24" />
  <path
     id="path523"
     style="fill:#4285f4;stroke-width:2"
     d="M 23.999996,45.468752 V 88.546876 C 23.999996,91.559768 26.414936,94 29.398432,94 H 39.999996 V 57.585936 Z" />
  <path
     id="path391"
     style="fill:#34a853;stroke-width:2"
     d="M 104,45.468752 87.999996,57.585936 V 94 H 98.60156 C 101.58505,94 104,91.559764 104,88.546876 Z" />
  <path
     d="M 36.96,57.823588 V 35.65066 L 64,55.818184 91.04,35.65066 V 57.823588 L 64,77.996896 Z"
     style="fill:#ea4335;stroke-width:2"
     id="path457"
     sodipodi:nodetypes="ccccccc" />
  <path
     id="path424"
     style="fill:#fbbc04;stroke-width:2"
     d="m 95.867184,34 c -1.642376,3.6e-5 -3.325836,0.510936 -4.828124,1.648436 l -3.039064,2.304688 V 60.125 L 104,48.007812 v -5.8125 C 104,37.35148 100.06436,33.999908 95.867184,34 Z" />
  <path
     id="path490"
     style="fill:#c5221f;stroke-width:2"
     d="m 32.132808,34 c -4.19718,-9.2e-5 -8.132812,3.35148 -8.132812,8.195312 V 48.0111 l 16,12.117184 V 37.953124 L 36.960932,35.648436 C 35.45864,34.510932 33.775184,34.000036 32.132808,34 Z"
     sodipodi:nodetypes="ssccccs" />
</svg>
