<?xml version="1.0" encoding="UTF-8" standalone="no"?>
<!-- Created with Inkscape (http://www.inkscape.org/) -->

<svg
   width="128"
   height="128"
   viewBox="0 0 128 128.00001"
   version="1.1"
   id="svg1"
   inkscape:version="1.4.2 (ebf0e940d0, 2025-05-08)"
   sodipodi:docname="google-keep.svg"
   xmlns:inkscape="http://www.inkscape.org/namespaces/inkscape"
   xmlns:sodipodi="http://sodipodi.sourceforge.net/DTD/sodipodi-0.dtd"
   xmlns="http://www.w3.org/2000/svg"
   xmlns:svg="http://www.w3.org/2000/svg">
  <sodipodi:namedview
     id="namedview1"
     pagecolor="#ffffff"
     bordercolor="#000000"
     borderopacity="0.25"
     inkscape:showpageshadow="2"
     inkscape:pageopacity="0.0"
     inkscape:pagecheckerboard="0"
     inkscape:deskcolor="#d1d1d1"
     inkscape:document-units="px"
     inkscape:zoom="6.21875"
     inkscape:cx="63.919598"
     inkscape:cy="64"
     inkscape:window-width="1920"
     inkscape:window-height="1011"
     inkscape:window-x="0"
     inkscape:window-y="0"
     inkscape:window-maximized="1"
     inkscape:current-layer="svg1" />
  <defs
     id="defs1" />
  <rect
     style="opacity:0.2;fill:#000000;stroke-width:7"
     id="rect1"
     width="112"
     height="112"
     x="8"
     y="9"
     ry="24" />
  <rect
     style="fill:#fafafa;fill-opacity:1;stroke-width:4"
     id="rect2"
     width="112"
     height="112"
     x="8"
     y="8"
     ry="24" />
  <path
     d="m 40,24 c -3.323996,0 -6,2.676004 -6,6 v 68 c 0,3.324 2.676004,6 6,6 h 48 c 3.323994,0 6,-2.676 6,-6 V 44 L 78,40 74,24 Z"
     style="fill:#fbbc04;fill-opacity:1;stroke-width:2;stroke-linecap:square;stroke-linejoin:bevel"
     id="path1151" />
  <path
     d="M 74,24 94,43.999998 H 74 Z"
     style="fill:#f29900;fill-opacity:1;stroke-width:1.1547;stroke-linecap:square;stroke-linejoin:bevel"
     id="path1123" />
  <path
     id="path289"
     style="fill:#ffffff;stroke-width:3.39412;stroke-linecap:square;stroke-linejoin:bevel"
     d="m 64,56 c -6.627392,0 -12,5.372608 -12,12 -0.0144,4.118548 2.130902,7.858882 6,12 h 12 c 3.436254,-4.275288 6.0144,-7.881452 6,-12 0,-6.627392 -5.372608,-12 -12,-12 z m -6,28 v 4 h 12 v -4 z"
     sodipodi:nodetypes="sccccsccccc" />
</svg>
