<?xml version="1.0" encoding="UTF-8" standalone="no"?>
<!-- Created with Inkscape (http://www.inkscape.org/) -->

<svg
   width="128"
   height="128"
   viewBox="0 0 128 128.00001"
   version="1.1"
   id="svg1"
   inkscape:version="1.4 (e7c3feb100, 2024-10-09)"
   sodipodi:docname="google-chrome-beta.svg"
   xmlns:inkscape="http://www.inkscape.org/namespaces/inkscape"
   xmlns:sodipodi="http://sodipodi.sourceforge.net/DTD/sodipodi-0.dtd"
   xmlns:xlink="http://www.w3.org/1999/xlink"
   xmlns="http://www.w3.org/2000/svg"
   xmlns:svg="http://www.w3.org/2000/svg">
  <sodipodi:namedview
     id="namedview1"
     pagecolor="#ffffff"
     bordercolor="#000000"
     borderopacity="0.25"
     inkscape:showpageshadow="2"
     inkscape:pageopacity="0.0"
     inkscape:pagecheckerboard="0"
     inkscape:deskcolor="#d1d1d1"
     inkscape:document-units="px"
     inkscape:zoom="6.140625"
     inkscape:cx="64.081425"
     inkscape:cy="64"
     inkscape:window-width="1920"
     inkscape:window-height="1011"
     inkscape:window-x="0"
     inkscape:window-y="0"
     inkscape:window-maximized="1"
     inkscape:current-layer="svg1" />
  <defs
     id="defs1">
    <linearGradient
       inkscape:collect="always"
       id="linearGradient1606">
      <stop
         style="stop-color:#eaebed;stop-opacity:1;"
         offset="0"
         id="stop1602" />
      <stop
         style="stop-color:#f9fafa;stop-opacity:1;"
         offset="1"
         id="stop1604" />
    </linearGradient>
    <linearGradient
       inkscape:collect="always"
       xlink:href="#linearGradient1606"
       id="linearGradient4"
       x1="16"
       y1="30"
       x2="16"
       y2="2"
       gradientUnits="userSpaceOnUse"
       gradientTransform="scale(4)" />
    <linearGradient
       inkscape:collect="always"
       xlink:href="#linearGradient12495"
       id="linearGradient12497"
       x1="3.7041574"
       y1="5.15939"
       x2="8.9958239"
       y2="5.15939"
       gradientUnits="userSpaceOnUse" />
    <linearGradient
       inkscape:collect="always"
       id="linearGradient12495">
      <stop
         style="stop-color:#db3328;stop-opacity:1;"
         offset="0"
         id="stop12491" />
      <stop
         style="stop-color:#e53d30;stop-opacity:1"
         offset="1"
         id="stop12493" />
    </linearGradient>
    <linearGradient
       inkscape:collect="always"
       xlink:href="#linearGradient13171"
       id="linearGradient13173"
       x1="4.4023013"
       y1="4.2994838"
       x2="5.9898009"
       y2="7.474484"
       gradientUnits="userSpaceOnUse" />
    <linearGradient
       inkscape:collect="always"
       id="linearGradient13171">
      <stop
         style="stop-color:#32a651;stop-opacity:1;"
         offset="0"
         id="stop13167" />
      <stop
         style="stop-color:#279847;stop-opacity:1"
         offset="1"
         id="stop13169" />
    </linearGradient>
  </defs>
  <rect
     style="opacity:0.2;fill:#000000;stroke-width:7"
     id="rect1"
     width="112"
     height="112"
     x="8"
     y="9"
     ry="24" />
  <rect
     style="fill:url(#linearGradient4);stroke-width:4"
     id="rect2"
     width="112"
     height="112"
     x="8"
     y="8"
     ry="24" />
  <g
     id="g13900"
     transform="matrix(8.8930056,0,0,8.8930056,7.5294128,7.5294128)">
    <path
       d="m 6.3499908,1.8520833 c -1.6648002,0 -3.1172325,0.9051142 -3.8949803,2.2495046 L 2.6017322,6.7248018 4.4023011,7.4744838 6.3499908,6.3500302 V 4.1010567 H 10.244704 C 9.4668234,2.7569983 8.014591,1.8520833 6.3499908,1.8520833 Z"
       style="fill:url(#linearGradient12497);fill-opacity:1;stroke-width:0.0175699"
       id="path1309" />
    <path
       d="m 1.8521097,6.3500302 c 0,2.4841174 2.013697,4.4978798 4.4978805,4.4978798 L 8.322717,9.7933342 8.2976798,7.4744838 6.3499902,6.3500302 4.4023011,7.4744838 2.4550101,4.1015879 C 2.0722656,4.7632044 1.8520833,5.5305796 1.8520833,6.3499639"
       style="fill:url(#linearGradient13173);fill-opacity:1;stroke-width:0.0175699"
       id="path1449"
       sodipodi:nodetypes="cccccccc" />
    <path
       d="m 6.3500375,6.3500302 1.947689,1.1244536 -1.947689,3.3734262 c 2.4841163,0 4.4978795,-2.0137624 4.4978795,-4.4978798 0,-0.819517 -0.220254,-1.5871712 -0.603213,-2.2489735 H 6.3499908 Z"
       style="fill:#fbbf12;stroke-width:0.0175699"
       id="path1829" />
    <path
       d="m 8.5990112,6.3500302 c 0,1.2420585 -1.0069151,2.2489734 -2.2489737,2.2489734 -1.242059,0 -2.2489739,-1.0069149 -2.2489739,-2.2489734 0,-1.2420588 1.0069149,-2.2489735 2.2489739,-2.2489735 1.2420586,0 2.2489737,1.0069147 2.2489737,2.2489735"
       style="fill:#ffffff;stroke-width:0.0175699"
       id="path2229" />
    <path
       d="m 8.1492041,6.3500006 c 0,0.9936381 -0.8055294,1.7991654 -1.7991667,1.7991654 -0.9936381,0 -1.7991668,-0.8055273 -1.7991668,-1.7991654 0,-0.9936377 0.8055287,-1.7991663 1.7991668,-1.7991663 0.9936373,0 1.7991667,0.8055286 1.7991667,1.7991663"
       style="fill:#4688f4;fill-opacity:1;stroke-width:0.0172995"
       id="path2029" />
  </g>
  <path
     id="path520"
     style="fill:#414342;fill-opacity:1;stroke-width:4;stroke-linecap:round;stroke-linejoin:round"
     d="M 25.892,76 A 40,39.99997 0 0 0 64.001376,104 40,39.99997 0 0 0 102.11075,76 Z" />
  <path
     id="path727"
     style="font-size:4px;font-family:'Google Sans';-inkscape-font-specification:'Google Sans';text-align:center;text-anchor:middle;fill:#ffffff;stroke-width:0.751032;stroke-linecap:round;stroke-linejoin:round"
     d="m 45.24968,80 v 14.082988 h 5.33156 c 0.747604,0 1.441904,-0.16812 2.084588,-0.509136 0.655796,-0.341 1.175876,-0.808808 1.556236,-1.412144 0.39348,-0.616448 0.5956,-1.304652 0.5956,-2.065376 0,-0.77384 -0.22652,-1.449852 -0.672452,-2.026952 -0.445944,-0.5771 -1.020892,-0.983928 -1.729156,-1.220012 v -0.07684 c 0.59022,-0.27544 1.051916,-0.670064 1.392936,-1.181588 0.35412,-0.51152 0.528348,-1.114368 0.528348,-1.7964 0,-0.721372 -0.18032,-1.363392 -0.547568,-1.940492 -0.36724,-0.5771 -0.869028,-1.036212 -1.498596,-1.364112 C 51.674728,80.162016 51.020516,80 50.312256,80 Z m 23.430024,1.220016 v 2.833888 h -1.748368 v 1.517808 h 1.748368 v 5.879124 c 0,0.472172 0.07056,0.8729 0.20172,1.2008 0.13116,0.32788 0.32368,0.615372 0.585988,0.864576 0.23608,0.22296 0.52356,0.3972 0.864576,0.528356 0.35412,0.13116 0.736572,0.20172 1.14316,0.20172 0.3148,0 0.571776,-0.0184 0.768516,-0.05764 0.20984,-0.0392 0.418068,-0.10992 0.614808,-0.20172 V 92.35384 c -0.35412,0.22296 -0.724372,0.3362 -1.104736,0.3362 -0.472172,0 -0.836324,-0.14372 -1.08552,-0.432284 -0.20988,-0.26232 -0.317,-0.669144 -0.317,-1.220016 v -5.466048 h 2.440024 v -1.517808 h -2.440024 v -2.833888 z m -21.77772,0.37464 h 3.487124 c 0.459056,0 0.859784,0.11324 1.200804,0.33624 0.35412,0.22296 0.623312,0.510444 0.806932,0.864576 0.19676,0.341 0.2882,0.68336 0.2882,1.037492 0,0.36724 -0.09144,0.731392 -0.2882,1.085524 -0.19672,0.341 -0.478112,0.622392 -0.84536,0.845364 -0.35412,0.22296 -0.767052,0.3362 -1.239228,0.3362 h -3.410272 z m 14.265508,2.142228 c -0.970576,0 -1.820812,0.2448 -2.5553,0.730084 -0.734492,0.485292 -1.303348,1.136912 -1.70994,1.950104 -0.39348,0.813188 -0.5956,1.7 -0.5956,2.67058 0,1.009924 0.21432,1.92464 0.634024,2.737824 0.432824,0.800072 1.026068,1.4238 1.786792,1.882856 C 59.488192,94.1674 60.344524,94.4 61.301984,94.4 c 1.049276,0 1.945696,-0.23872 2.680188,-0.710872 0.747608,-0.472176 1.334752,-1.108096 1.76758,-1.92128 l -1.412148,-0.691664 c -0.69514,1.206668 -1.683012,1.806012 -2.968376,1.806012 -0.550868,0 -1.08314,-0.13156 -1.594664,-0.39388 -0.498404,-0.26232 -0.911324,-0.64734 -1.239224,-1.171984 -0.32788,-0.524636 -0.517824,-1.170156 -0.557172,-1.930884 h 7.934892 c 0.0392,-0.14428 0.05764,-0.3124 0.05764,-0.509136 0,-0.996812 -0.20212,-1.887136 -0.5956,-2.660976 -0.38036,-0.773844 -0.930924,-1.373184 -1.652304,-1.806008 -0.721372,-0.445936 -1.571608,-0.672448 -2.555304,-0.672444 z m 17.195468,0 c -0.839416,0 -1.610392,0.16812 -2.305536,0.50914 -0.682032,0.341 -1.2204,0.818412 -1.613876,1.421748 l 1.26804,0.941428 c 0.27544,-0.432828 0.642172,-0.76298 1.114348,-0.999068 0.472172,-0.2492 0.992252,-0.37464 1.556236,-0.37464 0.800076,0 1.463892,0.223 1.988528,0.682052 0.524636,0.445944 0.787724,1.048792 0.787724,1.796396 v 0.605204 c -0.27544,-0.17052 -0.676164,-0.32032 -1.2008,-0.4515 -0.51152,-0.13116 -1.06818,-0.19212 -1.671516,-0.19212 -1.21978,0 -2.235552,0.29968 -3.035624,0.903 -0.800072,0.590224 -1.2008,1.416064 -1.2008,2.478456 0,0.64268 0.16552,1.217628 0.48032,1.729152 0.3148,0.498404 0.758188,0.89304 1.335288,1.181588 0.577104,0.28856 1.234824,0.432284 1.969316,0.432284 0.72138,0 1.363392,-0.16812 1.940492,-0.509136 0.577104,-0.34104 1.017924,-0.75394 1.306472,-1.239228 h 0.07684 v 1.431356 h 1.594664 V 87.73316 c 0,-1.232904 -0.39464,-2.202484 -1.181588,-2.910744 -0.77384,-0.721376 -1.844484,-1.085524 -3.20854,-1.085524 z m -17.21468,1.517808 c 0.682032,0 1.244784,0.14372 1.690728,0.432292 0.459056,0.28856 0.79882,0.636996 1.008672,1.056704 0.20984,0.419712 0.3196,0.848336 0.34584,1.268044 h -6.119284 c 0.17052,-0.826304 0.52856,-1.490116 1.066312,-1.988524 0.550868,-0.511524 1.22078,-0.768516 2.007732,-0.768516 z m -14.246296,2.42082 h 3.698464 c 0.498408,0 0.935716,0.11936 1.31608,0.35544 0.38036,0.22296 0.68354,0.522644 0.893392,0.903004 0.20984,0.36724 0.3074,0.749684 0.3074,1.143164 0,0.39348 -0.09756,0.772408 -0.3074,1.152768 -0.19672,0.36724 -0.484212,0.67652 -0.864576,0.912608 -0.36724,0.23608 -0.795868,0.34584 -1.268044,0.34584 h -3.775316 z m 31.633892,1.354508 c 0.51152,0 1.001116,0.07056 1.460172,0.20172 0.459056,0.13116 0.847592,0.29928 1.162376,0.50914 0,0.5771 -0.14372,1.109372 -0.432288,1.594664 -0.28856,0.485288 -0.677088,0.864216 -1.162372,1.152764 -0.485292,0.28856 -1.011468,0.441896 -1.575456,0.441896 -0.642676,0 -1.174948,-0.17772 -1.594664,-0.518736 -0.419708,-0.34104 -0.624416,-0.784424 -0.624416,-1.335296 0,-0.603332 0.223,-1.099024 0.682056,-1.479384 0.472176,-0.38036 1.166476,-0.566776 2.084592,-0.566776 z" />
</svg>
