<?xml version="1.0" encoding="UTF-8" standalone="no"?>
<!-- Created with Inkscape (http://www.inkscape.org/) -->

<svg
   width="128"
   height="128"
   viewBox="0 0 128 128.00001"
   version="1.1"
   id="svg1"
   inkscape:version="1.4.2 (ebf0e940d0, 2025-05-08)"
   sodipodi:docname="gparted.svg"
   xmlns:inkscape="http://www.inkscape.org/namespaces/inkscape"
   xmlns:sodipodi="http://sodipodi.sourceforge.net/DTD/sodipodi-0.dtd"
   xmlns:xlink="http://www.w3.org/1999/xlink"
   xmlns="http://www.w3.org/2000/svg"
   xmlns:svg="http://www.w3.org/2000/svg">
  <sodipodi:namedview
     id="namedview1"
     pagecolor="#ffffff"
     bordercolor="#000000"
     borderopacity="0.25"
     inkscape:showpageshadow="2"
     inkscape:pageopacity="0.0"
     inkscape:pagecheckerboard="0"
     inkscape:deskcolor="#d1d1d1"
     inkscape:document-units="px"
     inkscape:zoom="6.140625"
     inkscape:cx="63.918575"
     inkscape:cy="64"
     inkscape:window-width="1920"
     inkscape:window-height="1011"
     inkscape:window-x="0"
     inkscape:window-y="0"
     inkscape:window-maximized="1"
     inkscape:current-layer="svg1" />
  <defs
     id="defs1">
    <linearGradient
       inkscape:collect="always"
       xlink:href="#linearGradient1273"
       id="linearGradient4"
       x1="16"
       y1="30"
       x2="16"
       y2="2"
       gradientUnits="userSpaceOnUse"
       gradientTransform="scale(4)" />
    <linearGradient
       inkscape:collect="always"
       id="linearGradient1273">
      <stop
         style="stop-color:#a1a1a1;stop-opacity:1;"
         offset="0"
         id="stop1269" />
      <stop
         style="stop-color:#dedede;stop-opacity:1;"
         offset="1"
         id="stop1271" />
    </linearGradient>
    <linearGradient
       inkscape:collect="always"
       xlink:href="#linearGradient1865"
       id="linearGradient1867"
       x1="24"
       y1="9"
       x2="34.606602"
       y2="34.606602"
       gradientUnits="userSpaceOnUse"
       gradientTransform="scale(2.6666666)" />
    <linearGradient
       inkscape:collect="always"
       id="linearGradient1865">
      <stop
         style="stop-color:#81b037;stop-opacity:1;"
         offset="0"
         id="stop1861" />
      <stop
         style="stop-color:#a5c84c;stop-opacity:1;"
         offset="1"
         id="stop1863" />
    </linearGradient>
    <linearGradient
       inkscape:collect="always"
       xlink:href="#linearGradient1946"
       id="linearGradient1125"
       x1="24"
       y1="24"
       x2="34.606602"
       y2="38.959782"
       gradientUnits="userSpaceOnUse"
       gradientTransform="scale(2.6666666)" />
    <linearGradient
       inkscape:collect="always"
       id="linearGradient1946">
      <stop
         style="stop-color:#c21010;stop-opacity:1;"
         offset="0"
         id="stop1942" />
      <stop
         style="stop-color:#d26f6f;stop-opacity:1;"
         offset="1"
         id="stop1944" />
    </linearGradient>
    <linearGradient
       inkscape:collect="always"
       xlink:href="#linearGradient1857"
       id="linearGradient1859"
       x1="13.387063"
       y1="13.399749"
       x2="20.292116"
       y2="24"
       gradientUnits="userSpaceOnUse"
       gradientTransform="scale(2.6666666)" />
    <linearGradient
       inkscape:collect="always"
       id="linearGradient1857">
      <stop
         style="stop-color:#e29731;stop-opacity:1;"
         offset="0"
         id="stop1853" />
      <stop
         style="stop-color:#e2c531;stop-opacity:1;"
         offset="1"
         id="stop1855" />
    </linearGradient>
  </defs>
  <rect
     style="opacity:0.2;fill:#000000;stroke-width:7"
     id="rect1"
     width="112"
     height="112"
     x="8"
     y="9"
     ry="23.999998" />
  <rect
     style="fill:url(#linearGradient4);stroke-width:4"
     id="rect2"
     width="112"
     height="112"
     x="8"
     y="8"
     ry="24" />
  <path
     id="path346"
     style="opacity:0.6;fill:#ffffff;stroke-width:8;stroke-linecap:round;stroke-linejoin:round;paint-order:stroke fill markers"
     d="m 64,24 c -22.091368,0 -40,17.908632 -40,40 0,22.091364 17.908636,40 40,40 22.091364,0 40,-17.908636 40,-40 C 104,41.908632 86.091368,24 64,24 Z m 0,28 c 6.627408,0 12,5.372592 12,12 0,6.627408 -5.372592,12 -12,12 -6.627408,0 -12,-5.372592 -12,-12 0,-6.627408 5.372592,-12 12,-12 z" />
  <path
     id="path347"
     style="fill:url(#linearGradient1867);fill-opacity:1;stroke-width:2.66666;stroke-linecap:round;stroke-linejoin:round;paint-order:stroke fill markers"
     d="m 64,24 c -0.666748,0 -1.325624,0.0224 -1.984376,0.05468 -5.92838,0.31204 -11.696268,1.915792 -16.875,4.671876 -1.150828,0.61246 -2.271468,1.283384 -3.359376,2.007812 -0.543952,0.3622 -1.075104,0.7432 -1.60156,1.132812 -0.2666,0.198 -0.5276,0.404952 -0.789064,0.609376 -0.2786,0.2178 -0.563332,0.431276 -0.835936,0.656248 -0.482748,0.398 -0.957164,0.812252 -1.421876,1.234376 -0.483596,0.43868 -0.95248,0.88998 -1.41406,1.351564 -0.008,0.0076 -0.0156,0.0156 -0.0236,0.0236 L 44,53.781248 53.320312,58.546876 C 55.307512,54.664312 59.338848,52 64,52 c 6.6274,0 12,5.3726 12,12 0,4.838276 -2.867592,8.999848 -6.992188,10.898436 l 4.156252,9.046876 19.117184,8.335936 c 0.467976,-0.467972 0.930572,-0.939092 1.375,-1.429684 0.417004,-0.459084 0.817588,-0.929648 1.21094,-1.406252 0.32388,-0.39248 0.636308,-0.798296 0.945312,-1.203124 0.07984,-0.1048 0.16348,-0.20696 0.2422,-0.31252 0.0312,-0.04176 0.06268,-0.08312 0.09376,-0.125 0.35016,-0.473272 0.695476,-0.950084 1.02344,-1.4375 0.0368,-0.05436 0.07292,-0.10948 0.10936,-0.16408 0.0806,-0.12108 0.15516,-0.24524 0.23436,-0.3672 0.2764,-0.425352 0.545128,-0.853964 0.804688,-1.28906 0.33396,-0.55982 0.655204,-1.128208 0.960936,-1.703124 2.751616,-5.174276 4.353136,-10.932116 4.664066,-16.859376 C 103.97986,65.325792 103.99748,64.662076 104,64 104,41.908656 86.091344,24 64,24 Z" />
  <path
     id="path536"
     style="fill:url(#linearGradient1125);fill-opacity:1;stroke-width:2.66666;stroke-linecap:round;stroke-linejoin:round;paint-order:stroke fill markers"
     d="M 72.484376,72.484376 C 70.312804,74.655948 67.3137,76 64,76 v 28 c 0.690356,0 1.37292,-0.02 2.054688,-0.0547 0.681764,-0.0344 1.358908,-0.0802 2.031248,-0.14844 0.65142,-0.0662 1.303516,-0.15296 1.945312,-0.25 0.0208,-0.003 0.04172,-0.004 0.06252,-0.008 0.20752,-0.0316 0.41074,-0.0745 0.617184,-0.10936 0.407824,-0.0689 0.815224,-0.1376 1.218752,-0.21876 0.605824,-0.12328 1.214048,-0.26284 1.8125,-0.41406 6.952016,-1.75672 13.369756,-5.38544 18.53906,-10.515628 z" />
  <path
     id="path538"
     style="fill:url(#linearGradient1859);fill-opacity:1;stroke-width:2.66666;stroke-linecap:round;stroke-linejoin:round;paint-order:stroke fill markers"
     d="m 35.703124,35.742188 c -0.44556,0.446176 -0.888304,0.892656 -1.3125,1.359376 -5.16502,5.682784 -8.715724,12.859768 -9.929688,20.804684 -0.09328,0.610416 -0.16904,1.2324 -0.23436,1.851564 -0.006,0.05756 -0.0176,0.11428 -0.0236,0.17188 -0.0019,0.0184 -0.006,0.0364 -0.0076,0.05468 C 24.063396,61.306388 24,62.643252 24,64 h 28 c 0,-3.309728 1.340832,-6.305612 3.507812,-8.476564 z" />
  <path
     id="path400"
     style="fill:#ffffff;stroke-width:16;stroke-linecap:round;stroke-linejoin:round;paint-order:stroke fill markers"
     d="m 91.99866,106.92822 c 3.82636,2.20912 8.71906,0.89812 10.9282,-2.92821 2.20915,-3.82635 0.89815,-8.719066 -2.928192,-10.92821 L 61.357644,80 Z"
     sodipodi:nodetypes="csccc" />
</svg>
