<?xml version="1.0" encoding="UTF-8" standalone="no"?>
<!-- Created with Inkscape (http://www.inkscape.org/) -->

<svg
   width="128"
   height="128"
   viewBox="0 0 128 128.00001"
   version="1.1"
   id="svg1"
   inkscape:version="1.4.2 (ebf0e940d0, 2025-05-08)"
   sodipodi:docname="io.bassi.Amberol.svg"
   xmlns:inkscape="http://www.inkscape.org/namespaces/inkscape"
   xmlns:sodipodi="http://sodipodi.sourceforge.net/DTD/sodipodi-0.dtd"
   xmlns:xlink="http://www.w3.org/1999/xlink"
   xmlns="http://www.w3.org/2000/svg"
   xmlns:svg="http://www.w3.org/2000/svg">
  <sodipodi:namedview
     id="namedview1"
     pagecolor="#ffffff"
     bordercolor="#000000"
     borderopacity="0.25"
     inkscape:showpageshadow="2"
     inkscape:pageopacity="0.0"
     inkscape:pagecheckerboard="0"
     inkscape:deskcolor="#d1d1d1"
     inkscape:document-units="px"
     inkscape:zoom="6.3125"
     inkscape:cx="63.920792"
     inkscape:cy="64"
     inkscape:window-width="1920"
     inkscape:window-height="1011"
     inkscape:window-x="0"
     inkscape:window-y="0"
     inkscape:window-maximized="1"
     inkscape:current-layer="svg1" />
  <defs
     id="defs1">
    <linearGradient
       inkscape:collect="always"
       xlink:href="#linearGradient4-1"
       id="linearGradient4"
       x1="16"
       y1="30"
       x2="16"
       y2="2"
       gradientUnits="userSpaceOnUse"
       gradientTransform="scale(4)" />
    <linearGradient
       id="linearGradient4-1"
       inkscape:collect="always">
      <stop
         style="stop-color:#38c4f2;stop-opacity:1;"
         offset="0"
         id="stop4" />
      <stop
         style="stop-color:#1872f6;stop-opacity:1;"
         offset="1"
         id="stop5" />
    </linearGradient>
  </defs>
  <rect
     style="opacity:0.2;fill:#000000;stroke-width:7"
     id="rect1"
     width="112"
     height="112"
     x="8"
     y="9"
     ry="24" />
  <rect
     style="fill:url(#linearGradient4);stroke-width:4"
     id="rect2"
     width="112"
     height="112"
     x="8"
     y="8"
     ry="23.999998" />
  <path
     id="path4648"
     style="fill:#ffffff;stroke-width:8.00002;stroke-linejoin:round"
     d="m 64,24 c -22.091328,0 -40,17.908682 -40,40 0,22.091324 17.908672,40 40,40 22.091324,0 40,-17.908676 40,-40 C 104,41.908682 86.091324,24 64,24 Z M 51.726558,44.003904 c 0.654412,-0.02386 1.338566,0.12212 1.980476,0.484376 l 28.281248,15.996094 c 2.684206,1.514854 2.684206,5.512484 0,7.027342 L 53.707034,83.507814 c -2.567658,1.44895 -5.702646,-0.48048 -5.707032,-3.51172 V 48.000002 c 0.0038,-2.273464 1.763328,-3.924086 3.726556,-3.996098 z" />
</svg>
