<?xml version="1.0" encoding="UTF-8" standalone="no"?>
<!-- Created with Inkscape (http://www.inkscape.org/) -->

<svg
   width="128"
   height="128"
   viewBox="0 0 128 128.00001"
   version="1.1"
   id="svg1"
   inkscape:version="1.4.2 (ebf0e940d0, 2025-05-08)"
   sodipodi:docname="kmines.svg"
   xmlns:inkscape="http://www.inkscape.org/namespaces/inkscape"
   xmlns:sodipodi="http://sodipodi.sourceforge.net/DTD/sodipodi-0.dtd"
   xmlns:xlink="http://www.w3.org/1999/xlink"
   xmlns="http://www.w3.org/2000/svg"
   xmlns:svg="http://www.w3.org/2000/svg">
  <sodipodi:namedview
     id="namedview1"
     pagecolor="#ffffff"
     bordercolor="#000000"
     borderopacity="0.25"
     inkscape:showpageshadow="2"
     inkscape:pageopacity="0.0"
     inkscape:pagecheckerboard="0"
     inkscape:deskcolor="#d1d1d1"
     inkscape:document-units="px"
     inkscape:zoom="6.2109375"
     inkscape:cx="64"
     inkscape:cy="64"
     inkscape:window-width="1920"
     inkscape:window-height="1010"
     inkscape:window-x="0"
     inkscape:window-y="0"
     inkscape:window-maximized="1"
     inkscape:current-layer="svg1" />
  <defs
     id="defs1">
    <linearGradient
       inkscape:collect="always"
       xlink:href="#linearGradient1144"
       id="linearGradient4"
       x1="16"
       y1="30"
       x2="16"
       y2="2"
       gradientUnits="userSpaceOnUse"
       gradientTransform="scale(4)" />
    <linearGradient
       inkscape:collect="always"
       id="linearGradient1144">
      <stop
         style="stop-color:#adb2b9;stop-opacity:1;"
         offset="0"
         id="stop1140" />
      <stop
         style="stop-color:#e0e2e4;stop-opacity:1;"
         offset="1"
         id="stop1142" />
    </linearGradient>
    <linearGradient
       inkscape:collect="always"
       xlink:href="#linearGradient1283"
       id="linearGradient15762"
       x1="32"
       y1="52"
       x2="32"
       y2="12"
       gradientUnits="userSpaceOnUse"
       gradientTransform="matrix(2,0,0,2,8.18e-4,0)" />
    <linearGradient
       inkscape:collect="always"
       id="linearGradient1283">
      <stop
         style="stop-color:#3f3f3f;stop-opacity:1;"
         offset="0"
         id="stop1279" />
      <stop
         style="stop-color:#666666;stop-opacity:1;"
         offset="1"
         id="stop1281" />
    </linearGradient>
  </defs>
  <rect
     style="opacity:0.2;fill:#000000;stroke-width:7"
     id="rect1"
     width="112"
     height="112"
     x="8"
     y="9"
     ry="24" />
  <rect
     style="fill:url(#linearGradient4);stroke-width:4"
     id="rect2"
     width="112"
     height="112"
     x="8"
     y="8"
     ry="24" />
  <path
     id="path2634"
     style="fill:url(#linearGradient15762);fill-opacity:1;stroke-width:8;stroke-linecap:round;stroke-linejoin:round"
     d="m 64.000816,24 c -2.215988,0 -4,1.78401 -4,4 v 8 c 0,2.21599 1.784012,4 4,4 2.215988,0 4,-1.78401 4,-4 v -8 c 0,-2.21599 -1.784012,-4 -4,-4 z m 8,9.023438 V 36 c 0,4.431972 -3.568028,8 -8,8 -4.431972,0 -7.999996,-3.568028 -7.999996,-8 V 33.078126 C 50.397584,34.539006 45.291836,37.492918 41.235196,41.625 l 2.515624,1.445312 C 47.589016,45.2863 48.896492,50.161804 46.680508,54 44.46452,57.838196 39.589016,59.145668 35.75082,56.929688 L 33.196132,55.453124 C 32.413592,58.23504 32.0115,61.11014 32.000816,64 c 0.0108,2.88986 0.412776,5.76496 1.195316,8.546876 L 35.75082,71.070312 C 36.950252,70.37782 38.250872,70.034816 39.53988,70 c 2.835828,-0.0766 5.617136,1.36124 7.140628,4 2.215984,3.838196 0.908508,8.713696 -2.929688,10.929688 L 41.235196,86.375 c 4.05664,4.13208 9.162388,7.085992 14.765624,8.546876 V 92 c 0,-4.431972 3.568024,-8 7.999996,-8 4.431972,0 8,3.568028 8,8 v 2.921876 C 77.604052,93.460992 82.7098,90.50708 86.76644,86.375 L 84.250816,84.929688 C 80.412624,82.713696 79.105148,77.838196 81.321128,74 c 1.523496,-2.63876 4.304796,-4.0766 7.140628,-4 1.289004,0.0348 2.589628,0.3778 3.78906,1.070312 l 2.554688,1.476564 C 95.588044,69.76496 95.99014,66.88986 96.000816,64 c -0.0036,-2.891584 -0.39524,-5.769348 -1.171876,-8.554688 l -2.578124,1.484376 C 88.412624,59.145668 83.53712,57.838196 81.321128,54 79.105148,50.161804 80.412624,45.2863 84.250816,43.070312 L 86.82894,41.585936 C 82.75532,37.43925 77.62912,34.476566 72.000816,33.023438 Z M 32.547692,42.007812 C 31.267818,42.097292 30.052684,42.80056 29.360194,44 c -1.108,1.919108 -0.458166,4.360756 1.460936,5.468752 l 6.92969,4 C 39.66992,54.576744 42.111572,53.919104 43.219572,52 44.32756,50.080896 43.669924,47.639248 41.75082,46.531248 l -6.929688,-4 c -0.71966,-0.415492 -1.505512,-0.577116 -2.27344,-0.523436 z m 62.335936,0 c -0.58092,0.0434 -1.171188,0.2118 -1.710936,0.523436 l -6.921876,4 c -1.919104,1.108 -2.576744,3.549648 -1.468748,5.468752 1.108,1.919104 3.549648,2.576744 5.468748,1.468752 l 6.921876,-4 C 99.091796,48.360756 99.749444,45.919108 98.64144,44 c -0.692492,-1.19944 -1.907616,-1.902716 -3.1875,-1.992188 -0.192,-0.0132 -0.37668,-0.0144 -0.570312,0 z M 64.000816,52 c 6.6274,0 12,5.3726 12,12 0,6.6274 -5.3726,12 -12,12 -6.6274,0 -11.999996,-5.3726 -11.999996,-12 0,-6.6274 5.372596,-12 11.999996,-12 z m 0,4 c -4.418268,0 -7.999996,3.581732 -7.999996,8 0,4.418268 3.581728,8 7.999996,8 4.418268,0 8,-3.581732 8,-8 0,-4.418268 -3.581732,-8 -8,-8 z M 39.453944,74.007812 c -0.58092,0.0434 -1.16338,0.2118 -1.703124,0.523436 l -6.92969,4 c -1.919102,1.108 -2.568936,3.549648 -1.460936,5.468752 1.10799,1.919104 3.541834,2.576744 5.460938,1.468752 l 6.929688,-4 c 1.919104,-1.108 2.576744,-3.549648 1.468752,-5.468752 -0.6925,-1.19944 -1.907628,-1.90272 -3.187504,-1.992188 -0.19196,-0.0132 -0.38448,-0.0144 -0.578124,0 z m 48.515624,0 c -1.279872,0.08948 -2.495004,0.792748 -3.1875,1.992188 -1.107992,1.919104 -0.450352,4.360752 1.468748,5.468752 l 6.921876,4 c 1.919104,1.107992 4.36076,0.450352 5.468748,-1.468752 1.108004,-1.919104 0.450356,-4.360752 -1.468748,-5.468752 l -6.921876,-4 c -0.71966,-0.415492 -1.513324,-0.577116 -2.281248,-0.523436 z M 64.000816,88 c -2.215988,0 -4,1.784016 -4,4 v 8 c 0,2.21599 1.784012,4 4,4 2.215988,0 4,-1.78401 4,-4 v -8 c 0,-2.215984 -1.784012,-4 -4,-4 z" />
</svg>
