<?xml version="1.0" encoding="UTF-8" standalone="no"?>
<!-- Created with Inkscape (http://www.inkscape.org/) -->

<svg
   width="128"
   height="128"
   viewBox="0 0 128 128.00001"
   version="1.1"
   id="svg1"
   inkscape:version="1.4.2 (ebf0e940d0, 2025-05-08)"
   sodipodi:docname="kmix.svg"
   xmlns:inkscape="http://www.inkscape.org/namespaces/inkscape"
   xmlns:sodipodi="http://sodipodi.sourceforge.net/DTD/sodipodi-0.dtd"
   xmlns:xlink="http://www.w3.org/1999/xlink"
   xmlns="http://www.w3.org/2000/svg"
   xmlns:svg="http://www.w3.org/2000/svg">
  <sodipodi:namedview
     id="namedview1"
     pagecolor="#ffffff"
     bordercolor="#000000"
     borderopacity="0.25"
     inkscape:showpageshadow="2"
     inkscape:pageopacity="0.0"
     inkscape:pagecheckerboard="0"
     inkscape:deskcolor="#d1d1d1"
     inkscape:document-units="px"
     inkscape:zoom="6.21875"
     inkscape:cx="63.919598"
     inkscape:cy="64"
     inkscape:window-width="1920"
     inkscape:window-height="1011"
     inkscape:window-x="0"
     inkscape:window-y="0"
     inkscape:window-maximized="1"
     inkscape:current-layer="svg1" />
  <defs
     id="defs1">
    <linearGradient
       inkscape:collect="always"
       xlink:href="#linearGradient6542"
       id="linearGradient4"
       x1="16"
       y1="2"
       x2="16"
       y2="30"
       gradientUnits="userSpaceOnUse"
       gradientTransform="scale(4)" />
    <linearGradient
       inkscape:collect="always"
       id="linearGradient6542">
      <stop
         style="stop-color:#9aafb9;stop-opacity:1;"
         offset="0"
         id="stop6538" />
      <stop
         style="stop-color:#688492;stop-opacity:1;"
         offset="1"
         id="stop6540" />
    </linearGradient>
  </defs>
  <rect
     style="opacity:0.2;fill:#000000;stroke-width:7"
     id="rect1"
     width="112"
     height="112"
     x="8"
     y="9"
     ry="24" />
  <rect
     style="fill:url(#linearGradient4);stroke-width:4"
     id="rect2"
     width="112"
     height="112"
     x="8"
     y="8"
     ry="24" />
  <path
     d="m 60,33.997168 -16,14 H 32 c -4.431984,0 -8,3.568016 -8,8 v 16 c 0,4.431976 3.568016,8 8,8 h 12 l 16,14 z"
     style="fill:#ffffff;stroke-width:8;stroke-linecap:round"
     id="path1" />
  <path
     d="m 85.257812,32.56748 c -0.25892,-0.0324 -0.52166,-0.014 -0.773436,0.05468 -0.5136,0.13572 -0.952092,0.470232 -1.218752,0.929688 -0.55348,0.957712 -0.22444,2.182828 0.734376,2.734376 9.903592,5.71784 16,16.275256 16,27.710936 0,11.435684 -6.096404,21.9931 -16,27.710936 -0.958824,0.551548 -1.287856,1.776664 -0.734376,2.734376 C 83.817172,95.401296 85.042288,95.730328 86,95.176848 97.13564,88.74768 104,76.855492 104,63.99716 104,51.138832 97.13564,39.24664 86,32.817472 c -0.22852,-0.13144 -0.480736,-0.2164 -0.742188,-0.25 z M 73.734376,44.176856 c -0.805948,-0.06284 -1.570484,0.36564 -1.9375,1.085936 -0.499636,0.983824 -0.10808,2.186424 0.875,2.6875 6.03458,3.074772 9.828124,9.266296 9.828124,16.039064 0,6.772768 -3.793544,12.964288 -9.828124,16.03906 -0.983096,0.501076 -1.37464,1.703676 -0.875,2.687504 0.501076,0.983092 1.703676,1.374636 2.6875,0.875 C 81.851888,79.83698 86.5,72.258112 86.5,63.989356 86.5,55.7206 81.851888,48.141728 74.484376,44.387792 c -0.23376,-0.1188 -0.488592,-0.19044 -0.75,-0.21092 z"
     style="opacity:0.5;fill:#ffffff;stroke-width:8;stroke-linecap:round"
     id="path2" />
</svg>
