<?xml version="1.0" encoding="UTF-8" standalone="no"?>
<!-- Created with Inkscape (http://www.inkscape.org/) -->

<svg
   width="128"
   height="128"
   viewBox="0 0 128 128.00001"
   version="1.1"
   id="svg1"
   inkscape:version="1.4.2 (ebf0e940d0, 2025-05-08)"
   sodipodi:docname="kontact.svg"
   xmlns:inkscape="http://www.inkscape.org/namespaces/inkscape"
   xmlns:sodipodi="http://sodipodi.sourceforge.net/DTD/sodipodi-0.dtd"
   xmlns:xlink="http://www.w3.org/1999/xlink"
   xmlns="http://www.w3.org/2000/svg"
   xmlns:svg="http://www.w3.org/2000/svg">
  <sodipodi:namedview
     id="namedview1"
     pagecolor="#ffffff"
     bordercolor="#000000"
     borderopacity="0.25"
     inkscape:showpageshadow="2"
     inkscape:pageopacity="0.0"
     inkscape:pagecheckerboard="0"
     inkscape:deskcolor="#d1d1d1"
     inkscape:document-units="px"
     inkscape:zoom="6.21875"
     inkscape:cx="63.919598"
     inkscape:cy="64"
     inkscape:window-width="1920"
     inkscape:window-height="1011"
     inkscape:window-x="0"
     inkscape:window-y="0"
     inkscape:window-maximized="1"
     inkscape:current-layer="svg1" />
  <defs
     id="defs1">
    <linearGradient
       inkscape:collect="always"
       xlink:href="#linearGradient1511"
       id="linearGradient4"
       x1="16"
       y1="30"
       x2="16"
       y2="2"
       gradientUnits="userSpaceOnUse"
       gradientTransform="scale(3.9999999)" />
    <linearGradient
       inkscape:collect="always"
       id="linearGradient1511">
      <stop
         style="stop-color:#ffb251;stop-opacity:1;"
         offset="0"
         id="stop1507" />
      <stop
         style="stop-color:#ffde75;stop-opacity:1;"
         offset="1"
         id="stop1509" />
    </linearGradient>
  </defs>
  <rect
     style="opacity:0.2;fill:#000000;stroke-width:7"
     id="rect1"
     width="112"
     height="112"
     x="8"
     y="9"
     ry="24" />
  <rect
     style="fill:url(#linearGradient4);stroke-width:4"
     id="rect2"
     width="112"
     height="112"
     x="8"
     y="8"
     ry="24" />
  <path
     d="m 82.74132,81.906307 c -1.91116,0 -3.750652,-0.477788 -5.518476,-1.433364 -1.767824,-1.003364 -3.01008,-2.580076 -3.726764,-4.730132 h -0.07152 c -0.430084,1.146696 -1.075132,2.102276 -1.935144,2.86674 -0.86002,0.764468 -1.8156,1.385592 -2.86674,1.863384 -1.003356,0.4778 -2.030604,0.812252 -3.081744,1.003356 -1.05114,0.19108 -2.00672,0.28664 -2.866744,0.28664 -4.586784,0 -8.074652,-1.290036 -10.463604,-3.870104 -2.388996,-2.580048 -3.583492,-6.044024 -3.583492,-10.391912 v -5.590148 c 0,-4.395666 1.146696,-7.859646 3.440084,-10.391935 2.341172,-2.580067 5.51848,-3.870099 9.531916,-3.870099 2.675628,0 4.801792,0.406122 6.3785,1.218364 1.576708,0.812246 2.699512,1.791718 3.36842,2.938411 V 48.07874 h 6.736844 v 22.575587 c 0,2.006716 0.406124,3.487872 1.218368,4.44345 0.812244,0.907798 1.982832,1.3617 3.51176,1.3617 1.194476,0 2.245612,-0.215002 3.153416,-0.64501 0.9078,-0.477808 1.672264,-1.21838 2.293388,-2.221723 0.621124,-1.051141 1.098912,-2.388953 1.433364,-4.013435 0.33444,-1.67227 0.50168,-3.702878 0.50168,-6.091826 v -0.788316 c 0,-4.013436 -0.59724,-7.596862 -1.791716,-10.75028 -1.146684,-3.153436 -2.86672,-5.829068 -5.160112,-8.026904 -2.293396,-2.245612 -5.11236,-3.941768 -8.456892,-5.088464 -3.344532,-1.194476 -7.19074,-1.791712 -11.538632,-1.791712 -3.726764,0 -7.142964,0.597236 -10.2486,1.791712 -3.105636,1.194476 -5.78126,2.938412 -8.026876,5.231804 -2.197836,2.245612 -3.91788,5.016796 -5.160136,8.313548 -1.242252,3.296752 -1.86338,7.023516 -1.86338,11.180292 v 1.218368 c 0,4.443452 0.59724,8.385216 1.791716,11.825312 1.242252,3.392308 3.010076,6.235156 5.303472,8.528552 2.293388,2.341172 5.08846,4.108996 8.385216,5.303472 3.344532,1.242256 7.095184,1.863384 11.251956,1.863384 3.583428,0 7.142964,-0.406128 10.678616,-1.218368 3.535644,-0.764464 6.784616,-1.91116 9.746916,-3.440096 l 2.00672,5.016796 c -3.010076,1.624488 -6.402388,2.866744 -10.176932,3.726768 -3.726764,0.9078 -7.7402,1.361704 -12.040312,1.361704 -5.160132,0 -9.770808,-0.764464 -13.832028,-2.293392 C 47.002612,93.922727 43.562524,91.724891 40.74356,88.858151 37.924596,85.991411 35.750652,82.527435 34.221724,78.466215 32.740576,74.404999 32,69.865991 32,64.849195 v -1.361704 c 0,-4.586784 0.716688,-8.815228 2.150056,-12.685324 1.481152,-3.91788 3.55954,-7.2863 6.235164,-10.105264 2.723404,-2.818964 5.996264,-5.0168 9.818588,-6.593508 3.8701,-1.624484 8.217992,-2.436728 13.043672,-2.436728 5.303472,0 9.985816,0.764464 14.047032,2.293397 4.061216,1.481147 7.477416,3.583424 10.2486,6.306828 2.771184,2.723404 4.87346,5.97238 6.306832,9.746919 C 95.283316,53.788352 96,57.945128 96,62.484131 v 0.931684 c 0,2.102276 -0.215,4.252332 -0.645012,6.450168 -0.38224,2.15006 -1.075036,4.132892 -2.078392,5.948496 -1.00336,1.767824 -2.365064,3.225084 -4.085108,4.37178 -1.672264,1.1467 -3.82232,1.72005 -6.450168,1.720048 z M 55.722284,66.354235 c 0,2.723404 0.597236,4.897348 1.791712,6.521832 1.194476,1.576708 3.081748,2.365064 5.661816,2.365064 1.003356,0 1.958936,-0.11944 2.86674,-0.35836 0.955576,-0.238919 1.791708,-0.645028 2.5084,-1.218368 0.76446,-0.573348 1.3617,-1.337816 1.791712,-2.293396 0.430012,-0.955572 0.645016,-2.150048 0.645016,-3.583423 V 61.48076 c 0,-0.955572 -0.14332,-1.863376 -0.43002,-2.723404 C 70.31874,57.849552 69.888744,57.0612 69.267632,56.392296 68.6465,55.675608 67.834256,55.126147 66.8309,54.74392 c -1.003356,-0.430009 -2.22172,-0.645013 -3.655092,-0.645013 -2.341172,0 -4.180668,0.645013 -5.51848,1.935049 -1.290028,1.290031 -1.935044,3.631203 -1.935044,7.023511 z"
     style="font-weight:bold;font-size:4.74057px;line-height:1.25;font-family:'나눔스퀘어';-inkscape-font-specification:'나눔스퀘어 Bold';fill:#4d4d4d;fill-opacity:1;stroke-width:1.79172"
     id="path6805"
     sodipodi:nodetypes="scccscsscsscsscccscscccsscccsscssscccsccccssscsscccscsssscccsscsccssscccscss" />
</svg>
