<?xml version="1.0" encoding="UTF-8" standalone="no"?>
<!-- Created with Inkscape (http://www.inkscape.org/) -->

<svg
   width="128"
   height="128"
   viewBox="0 0 128 128.00001"
   version="1.1"
   id="svg1"
   inkscape:version="1.4 (e7c3feb100, 2024-10-09)"
   sodipodi:docname="libreoffice-draw.svg"
   xmlns:inkscape="http://www.inkscape.org/namespaces/inkscape"
   xmlns:sodipodi="http://sodipodi.sourceforge.net/DTD/sodipodi-0.dtd"
   xmlns:xlink="http://www.w3.org/1999/xlink"
   xmlns="http://www.w3.org/2000/svg"
   xmlns:svg="http://www.w3.org/2000/svg">
  <sodipodi:namedview
     id="namedview1"
     pagecolor="#ffffff"
     bordercolor="#000000"
     borderopacity="0.25"
     inkscape:showpageshadow="2"
     inkscape:pageopacity="0.0"
     inkscape:pagecheckerboard="0"
     inkscape:deskcolor="#d1d1d1"
     inkscape:document-units="px"
     inkscape:zoom="6.3125"
     inkscape:cx="64.079208"
     inkscape:cy="64"
     inkscape:window-width="1920"
     inkscape:window-height="1011"
     inkscape:window-x="0"
     inkscape:window-y="0"
     inkscape:window-maximized="1"
     inkscape:current-layer="svg1" />
  <defs
     id="defs1">
    <linearGradient
       inkscape:collect="always"
       xlink:href="#linearGradient16449"
       id="linearGradient4"
       x1="16"
       y1="30"
       x2="16"
       y2="2"
       gradientUnits="userSpaceOnUse"
       gradientTransform="scale(4)" />
    <linearGradient
       inkscape:collect="always"
       id="linearGradient16449">
      <stop
         style="stop-color:#ee9b00;stop-opacity:1;"
         offset="0"
         id="stop16445" />
      <stop
         style="stop-color:#eece00;stop-opacity:1;"
         offset="1"
         id="stop16447" />
    </linearGradient>
  </defs>
  <rect
     style="opacity:0.2;fill:#000000;stroke-width:7"
     id="rect1"
     width="112"
     height="112"
     x="8"
     y="9"
     ry="24" />
  <rect
     style="fill:url(#linearGradient4);stroke-width:4"
     id="rect2"
     width="112"
     height="112"
     x="8"
     y="8"
     ry="24" />
  <path
     id="rect292"
     style="fill:#ffffff;stroke-width:4;stroke-linecap:round;stroke-linejoin:round"
     d="m 72.000002,48.000002 c -2.215996,0 -4,1.784004 -4,4 v 20 c 0,2.215996 1.784004,4 4,4 h 20 c 2.215996,0 4,-1.784004 4,-4 v -20 c 0,-2.215996 -1.784004,-4 -4,-4 z m 0,4 h 20 v 20 h -20 z"
     sodipodi:nodetypes="sssssssssccccc" />
  <circle
     style="fill:#ffffff;stroke-width:3.2;stroke-linecap:round;stroke-linejoin:round"
     id="path452"
     cx="48"
     cy="56"
     r="16" />
  <path
     id="path2642"
     style="color:#000000;fill:#fde9b6;fill-opacity:1;stroke:none;stroke-width:4;stroke-linecap:round;stroke-linejoin:round;-inkscape-stroke:none"
     d="m 60.000002,56.000002 c -0.658756,-2.6e-5 -1.275284,0.32431 -1.648436,0.867188 l -18.000002,28 c -0.911732,1.327118 0.03832,3.132656 1.648438,3.132812 h 36 c 1.610122,-1.58e-4 2.560166,-1.805694 1.648436,-3.132812 l -18,-28 c -0.373152,-0.542878 -0.98968,-0.867214 -1.648436,-0.867188 z"
     sodipodi:nodetypes="cccccccc" />
</svg>
