<?xml version="1.0" encoding="UTF-8" standalone="no"?>
<!-- Created with Inkscape (http://www.inkscape.org/) -->

<svg
   width="128"
   height="128"
   viewBox="0 0 128 128.00001"
   version="1.1"
   id="svg1"
   inkscape:version="1.4 (e7c3feb100, 2024-10-09)"
   sodipodi:docname="libreoffice-math.svg"
   xmlns:inkscape="http://www.inkscape.org/namespaces/inkscape"
   xmlns:sodipodi="http://sodipodi.sourceforge.net/DTD/sodipodi-0.dtd"
   xmlns:xlink="http://www.w3.org/1999/xlink"
   xmlns="http://www.w3.org/2000/svg"
   xmlns:svg="http://www.w3.org/2000/svg">
  <sodipodi:namedview
     id="namedview1"
     pagecolor="#ffffff"
     bordercolor="#000000"
     borderopacity="0.25"
     inkscape:showpageshadow="2"
     inkscape:pageopacity="0.0"
     inkscape:pagecheckerboard="0"
     inkscape:deskcolor="#d1d1d1"
     inkscape:document-units="px"
     inkscape:zoom="6.3125"
     inkscape:cx="64.079208"
     inkscape:cy="64"
     inkscape:window-width="1920"
     inkscape:window-height="1011"
     inkscape:window-x="0"
     inkscape:window-y="0"
     inkscape:window-maximized="1"
     inkscape:current-layer="svg1" />
  <defs
     id="defs1">
    <linearGradient
       inkscape:collect="always"
       xlink:href="#linearGradient4276"
       id="linearGradient4"
       x1="16"
       y1="30"
       x2="16"
       y2="2"
       gradientUnits="userSpaceOnUse"
       gradientTransform="scale(4)" />
    <linearGradient
       inkscape:collect="always"
       id="linearGradient4276">
      <stop
         style="stop-color:#d3113a;stop-opacity:1;"
         offset="0"
         id="stop4272" />
      <stop
         style="stop-color:#f239a1;stop-opacity:1;"
         offset="1"
         id="stop4274" />
    </linearGradient>
  </defs>
  <rect
     style="opacity:0.2;fill:#000000;stroke-width:7"
     id="rect1"
     width="112"
     height="112"
     x="8"
     y="9"
     ry="24" />
  <rect
     style="fill:url(#linearGradient4);stroke-width:4"
     id="rect2"
     width="112"
     height="112"
     x="8"
     y="8"
     ry="24" />
  <path
     id="rect293"
     style="fill:#ffffff;stroke-width:8;stroke-linecap:round;stroke-linejoin:round"
     d="m 59.999624,40 v 0.0156 c -0.731924,0.08048 -1.386468,0.56346 -1.656248,1.304688 l -12.389752,30.203124 -3.625,-10.03906 C 42.088024,60.586504 41.2848,59.996952 40.398936,60 H 40.281748 34 c -1.107998,0 -2,0.892004 -2,2 0,1.108 0.892002,2 2,2 h 4.867688 l 4.656248,11.906248 c 0.402732,1.370124 0.74514,1.985848 1.414064,2.257816 1.041176,0.37896 2.191356,-0.15412 2.570312,-1.195312 L 61.624624,44 H 94 c 1.108,0 2,-0.892004 2,-2 0,-1.108 -0.892,-2 -2,-2 z M 34,88 c -1.107998,0 -2,0.892 -2,2 0,1.108 0.892002,2 2,2 h 12 c 1.108,0 2,-0.892 2,-2 0,-1.108 -0.892,-2 -2,-2 z m 24,0 c -1.108,0 -2,0.892 -2,2 0,1.108 0.892,2 2,2 h 12 c 1.108,0 2,-0.892 2,-2 0,-1.108 -0.892,-2 -2,-2 z m 24,0 c -1.108,0 -2,0.892 -2,2 0,1.108 0.892,2 2,2 h 12 c 1.108,0 2,-0.892 2,-2 0,-1.108 -0.892,-2 -2,-2 z"
     sodipodi:nodetypes="cccccccssscccccssscsssssssssssssssssssss" />
  <path
     id="rect1107"
     style="fill:#ef95b4;fill-opacity:1;stroke-width:8;stroke-linecap:round;stroke-linejoin:round"
     d="m 68.687212,52.687212 c -1.566948,1.566944 -1.566948,4.089908 0,5.656856 l 5.655564,5.655572 -5.655564,5.655572 c -1.566948,1.566948 -1.566948,4.089908 0,5.656852 1.566944,1.566948 4.089904,1.566948 5.656852,0 l 5.655572,-5.655568 5.655572,5.655568 c 1.566948,1.566948 4.089904,1.566948 5.656852,0 1.566948,-1.566944 1.566948,-4.089904 0,-5.656852 l -5.655568,-5.655572 5.655564,-5.655572 c 1.566948,-1.566948 1.566948,-4.089912 0,-5.656856 -1.566944,-1.566948 -4.089904,-1.566948 -5.656852,0 l -5.655568,5.655572 -5.655576,-5.655572 c -1.566944,-1.566944 -4.089904,-1.566948 -5.656848,0 z"
     sodipodi:nodetypes="sscssscssscssscss" />
</svg>
