<?xml version="1.0" encoding="UTF-8" standalone="no"?>
<!-- Created with Inkscape (http://www.inkscape.org/) -->

<svg
   width="128"
   height="128"
   viewBox="0 0 128 128.00001"
   version="1.1"
   id="svg1"
   inkscape:version="1.4.2 (ebf0e940d0, 2025-05-08)"
   sodipodi:docname="lunarclient.svg"
   xmlns:inkscape="http://www.inkscape.org/namespaces/inkscape"
   xmlns:sodipodi="http://sodipodi.sourceforge.net/DTD/sodipodi-0.dtd"
   xmlns:xlink="http://www.w3.org/1999/xlink"
   xmlns="http://www.w3.org/2000/svg"
   xmlns:svg="http://www.w3.org/2000/svg">
  <sodipodi:namedview
     id="namedview1"
     pagecolor="#ffffff"
     bordercolor="#000000"
     borderopacity="0.25"
     inkscape:showpageshadow="2"
     inkscape:pageopacity="0.0"
     inkscape:pagecheckerboard="0"
     inkscape:deskcolor="#d1d1d1"
     inkscape:document-units="px"
     inkscape:zoom="6.21875"
     inkscape:cx="63.919598"
     inkscape:cy="64"
     inkscape:window-width="1920"
     inkscape:window-height="1011"
     inkscape:window-x="0"
     inkscape:window-y="0"
     inkscape:window-maximized="1"
     inkscape:current-layer="svg1" />
  <defs
     id="defs1">
    <linearGradient
       inkscape:collect="always"
       xlink:href="#4852"
       id="linearGradient4"
       x1="16"
       y1="30"
       x2="16"
       y2="2"
       gradientUnits="userSpaceOnUse"
       gradientTransform="scale(3.9999999)" />
    <linearGradient
       inkscape:collect="always"
       id="4852">
      <stop
         style="stop-color:#272727;stop-opacity:1;"
         offset="0"
         id="stop14555" />
      <stop
         style="stop-color:#5d5d5d;stop-opacity:1;"
         offset="1"
         id="stop14557" />
    </linearGradient>
  </defs>
  <rect
     style="opacity:0.2;fill:#000000;stroke-width:7"
     id="rect1"
     width="112"
     height="112"
     x="8"
     y="9"
     ry="24" />
  <rect
     style="fill:url(#linearGradient4);stroke-width:4"
     id="rect2"
     width="112"
     height="112"
     x="8"
     y="8"
     ry="24" />
  <path
     d="m 64.285156,24.0018 c -0.465516,0.019 -0.920235,0.14596 -1.328124,0.371093 0,0 -8.876693,4.863996 -17.777344,10.093751 -4.450327,2.614876 -8.902643,5.316608 -12.3125,7.589844 -1.704931,1.136617 -3.140699,2.15598 -4.253907,3.074219 -0.556604,0.459118 -1.03226,0.880216 -1.472657,1.382812 C 26.700232,47.016116 26,47.445664 26,49.201017 V 82.0018 h 6 V 50.150237 c 0.137,-0.129466 0.202353,-0.203108 0.429688,-0.390625 0.82272,-0.678625 2.15182,-1.635068 3.765624,-2.710936 3.227609,-2.151737 7.623807,-4.825065 12.023437,-7.410157 8.070075,-4.741732 14.874798,-8.473024 16.160156,-9.179687 1.270258,0.714531 7.896163,4.428643 15.773439,9.164063 4.299548,2.584669 8.597488,5.256004 11.75,7.406249 1.576256,1.075123 2.874164,2.030527 3.67578,2.707032 0.223995,0.18904 0.28844,0.265325 0.421876,0.394531 V 82.0018 h 6 V 49.201017 c 0,-1.719656 -0.67777,-2.156201 -1.10938,-2.660156 -0.4316,-0.503953 -0.896112,-0.930444 -1.441401,-1.390624 C 98.358641,44.229876 96.952667,43.209476 95.285156,42.072112 91.950136,39.797384 87.596588,37.097565 83.246093,34.482268 74.545104,29.251673 65.867188,24.384612 65.867188,24.384612 65.446321,24.14826 64.974641,24.01694 64.492188,24.0018 c -0.06899,-0.0024 -0.13804,-0.0024 -0.207032,0 z M 65,35.0018 64.292968,36.294768 63,37.0018 64.292968,37.708832 65,39.0018 65.707032,37.708832 67,37.0018 65.707032,36.294768 Z m -9.183595,4.816407 C 46.263477,43.651381 40.001261,52.907733 40,63.201017 c 3e-6,10.094311 5.948576,18.778215 14.519532,22.800783 H 22 v 1.332032 h 8 v 1.335936 H 22 V 90.0018 h 12 v 1.332032 h -8 v 1.335936 H 42 V 94.0018 h -8 v 1.332032 h 18 v 1.335936 H 48 V 98.0018 H 76 V 96.669768 H 72 V 95.333832 H 90 V 94.0018 H 82 V 92.669768 H 98 V 91.333832 H 90 V 90.0018 h 12 v -1.332032 h -8 v -1.335936 h 8 V 86.0018 H 75.917968 c 5.650415,-2.658181 10.244664,-7.374775 12.667969,-13.414063 -2.98364,1.198347 -6.171421,1.811518 -9.386718,1.8125 C 65.281689,74.40024 54.000003,63.118545 54,49.201017 c 9.83e-4,-3.215297 0.61806,-6.399172 1.816405,-9.38281 z M 83,47.0018 82.292968,48.294768 81,49.0018 82.292968,49.708832 83,51.0018 83.707032,49.708832 85,49.0018 83.707032,48.294768 Z m -22,1 -1.0625,1.9375 L 58,51.0018 59.9375,52.0643 61,54.0018 62.0625,52.0643 64,51.0018 62.0625,49.9393 Z m -24,1 -0.707032,1.292968 L 35,51.0018 36.292968,51.708832 37,53.0018 37.707032,51.708832 39,51.0018 37.707032,50.294768 Z m 34,4 -0.707032,1.292968 L 69,55.0018 70.292968,55.708832 71,57.0018 71.707032,55.708832 73,55.0018 71.707032,54.294768 Z m 16,4 -1.414063,2.585937 L 83,61.0018 85.585937,62.415861 87,65.0018 88.414061,62.415861 91,61.0018 88.414061,59.587737 Z m -12,5 -1.0625,1.9375 L 72,65.0018 73.9375,66.0643 75,68.0018 76.0625,66.0643 78,65.0018 76.0625,63.9393 Z m -36,11 -1.414063,2.585937 L 35,77.0018 37.585937,78.415863 39,81.0018 40.414061,78.415863 43,77.0018 40.414061,75.587737 Z"
     style="fill:#ffffff;stroke-width:2"
     id="path3007" />
</svg>
