<?xml version="1.0" encoding="UTF-8" standalone="no"?>
<!-- Created with Inkscape (http://www.inkscape.org/) -->

<svg
   width="128"
   height="128"
   viewBox="0 0 128 128.00001"
   version="1.1"
   id="svg1"
   inkscape:version="1.4 (e7c3feb100, 2024-10-09)"
   sodipodi:docname="minecraft.svg"
   xmlns:inkscape="http://www.inkscape.org/namespaces/inkscape"
   xmlns:sodipodi="http://sodipodi.sourceforge.net/DTD/sodipodi-0.dtd"
   xmlns:xlink="http://www.w3.org/1999/xlink"
   xmlns="http://www.w3.org/2000/svg"
   xmlns:svg="http://www.w3.org/2000/svg">
  <sodipodi:namedview
     id="namedview1"
     pagecolor="#ffffff"
     bordercolor="#000000"
     borderopacity="0.25"
     inkscape:showpageshadow="2"
     inkscape:pageopacity="0.0"
     inkscape:pagecheckerboard="0"
     inkscape:deskcolor="#d1d1d1"
     inkscape:document-units="px"
     inkscape:zoom="6.140625"
     inkscape:cx="64.081425"
     inkscape:cy="64"
     inkscape:window-width="1920"
     inkscape:window-height="1011"
     inkscape:window-x="0"
     inkscape:window-y="0"
     inkscape:window-maximized="1"
     inkscape:current-layer="svg1" />
  <defs
     id="defs1">
    <linearGradient
       inkscape:collect="always"
       xlink:href="#linearGradient1149"
       id="linearGradient4"
       x1="16"
       y1="30"
       x2="16"
       y2="2"
       gradientUnits="userSpaceOnUse"
       gradientTransform="scale(4)" />
    <linearGradient
       inkscape:collect="always"
       id="linearGradient1149">
      <stop
         style="stop-color:#6ab12d;stop-opacity:1;"
         offset="0"
         id="stop1145" />
      <stop
         style="stop-color:#8dd27a;stop-opacity:1;"
         offset="1"
         id="stop1147" />
    </linearGradient>
  </defs>
  <rect
     style="opacity:0.2;fill:#000000;stroke-width:7"
     id="rect1"
     width="112"
     height="112"
     x="8"
     y="9"
     ry="24" />
  <rect
     style="fill:url(#linearGradient4);stroke-width:4"
     id="rect2"
     width="112"
     height="112"
     x="8"
     y="8"
     ry="24" />
  <path
     d="M 28,29 V 53 H 52 V 29 Z M 52,53 V 69 H 40 v 32 H 52 V 88 h 24 v 13 H 88 V 69 H 76 V 53 Z m 24,0 h 24 V 29 H 76 Z"
     style="opacity:0.2;fill:#ffffff;stroke-width:4"
     id="path536"
     sodipodi:nodetypes="ccccccccccccccccccccccc" />
  <path
     id="rect311"
     style="fill:#000000;stroke-width:4"
     d="M 28,28 V 52 H 52 V 28 Z M 52,53 V 65 H 40 v 35 H 52 V 87 h 24 v 13 H 88 V 65 H 76 V 53 Z m 24,-1 h 24 V 28 H 76 Z"
     sodipodi:nodetypes="ccccccccccccccccccccccc" />
  <path
     id="path564"
     style="opacity:0.3;fill:#000000;stroke-width:4"
     d="m 28,27 v 1 h 24 v -1 z m 48,0 v 1 h 24 V 27 Z M 52,52 v 1 H 76 V 52 Z M 40,64 v 1 h 12 v -1 z m 36,0 v 1 h 12 v -1 z"
     sodipodi:nodetypes="ccccccccccccccccccccccccc" />
</svg>
