<?xml version="1.0" encoding="UTF-8" standalone="no"?>
<!-- Created with Inkscape (http://www.inkscape.org/) -->

<svg
   width="128"
   height="128"
   viewBox="0 0 128 128.00001"
   version="1.1"
   id="svg1"
   inkscape:version="1.4 (e7c3feb100, 2024-10-09)"
   sodipodi:docname="naver-whale.svg"
   xmlns:inkscape="http://www.inkscape.org/namespaces/inkscape"
   xmlns:sodipodi="http://sodipodi.sourceforge.net/DTD/sodipodi-0.dtd"
   xmlns:xlink="http://www.w3.org/1999/xlink"
   xmlns="http://www.w3.org/2000/svg"
   xmlns:svg="http://www.w3.org/2000/svg">
  <sodipodi:namedview
     id="namedview1"
     pagecolor="#ffffff"
     bordercolor="#000000"
     borderopacity="0.25"
     inkscape:showpageshadow="2"
     inkscape:pageopacity="0.0"
     inkscape:pagecheckerboard="0"
     inkscape:deskcolor="#d1d1d1"
     inkscape:document-units="px"
     inkscape:zoom="6.3125"
     inkscape:cx="64.079208"
     inkscape:cy="64"
     inkscape:window-width="1920"
     inkscape:window-height="1011"
     inkscape:window-x="0"
     inkscape:window-y="0"
     inkscape:window-maximized="1"
     inkscape:current-layer="svg1" />
  <defs
     id="defs1">
    <linearGradient
       inkscape:collect="always"
       xlink:href="#linearGradient1969"
       id="linearGradient4"
       x1="16"
       y1="2"
       x2="16"
       y2="25"
       gradientUnits="userSpaceOnUse"
       gradientTransform="scale(4)" />
    <linearGradient
       inkscape:collect="always"
       id="linearGradient1969">
      <stop
         style="stop-color:#1b34a8;stop-opacity:1;"
         offset="0"
         id="stop1965" />
      <stop
         style="stop-color:#3683ae;stop-opacity:1"
         offset="1"
         id="stop1967" />
    </linearGradient>
    <linearGradient
       inkscape:collect="always"
       xlink:href="#linearGradient17511"
       id="linearGradient17513"
       x1="38.999996"
       y1="24.000418"
       x2="38.999996"
       y2="39.000496"
       gradientUnits="userSpaceOnUse"
       gradientTransform="matrix(2.6666672,0,0,2.6547504,2.076e-4,0.463422)" />
    <linearGradient
       inkscape:collect="always"
       id="linearGradient17511">
      <stop
         style="stop-color:#e4e5e7;stop-opacity:1;"
         offset="0"
         id="stop17507" />
      <stop
         style="stop-color:#c1c1c5;stop-opacity:1;"
         offset="1"
         id="stop17509" />
    </linearGradient>
    <linearGradient
       inkscape:collect="always"
       xlink:href="#linearGradient15319"
       id="linearGradient15327"
       x1="9.0688782"
       y1="25.661974"
       x2="9"
       y2="38.999268"
       gradientUnits="userSpaceOnUse"
       gradientTransform="matrix(2.6666672,0,0,2.6547504,2.076e-4,0.463422)" />
    <linearGradient
       inkscape:collect="always"
       id="linearGradient15319">
      <stop
         style="stop-color:#00dcb4;stop-opacity:1;"
         offset="0"
         id="stop15315" />
      <stop
         style="stop-color:#1f9ea2;stop-opacity:1;"
         offset="1"
         id="stop15317" />
    </linearGradient>
    <linearGradient
       inkscape:collect="always"
       xlink:href="#linearGradient10097"
       id="linearGradient15313"
       x1="9.0688782"
       y1="25.661974"
       x2="9.0184727"
       y2="38.999268"
       gradientUnits="userSpaceOnUse"
       gradientTransform="matrix(2.6666672,0,0,2.6547504,2.076e-4,0.463422)" />
    <linearGradient
       inkscape:collect="always"
       id="linearGradient10097">
      <stop
         style="stop-color:#00dcb4;stop-opacity:1;"
         offset="0"
         id="stop10093" />
      <stop
         style="stop-color:#0baeb5;stop-opacity:1"
         offset="1"
         id="stop10095" />
    </linearGradient>
  </defs>
  <rect
     style="opacity:0.2;fill:#000000;stroke-width:7"
     id="rect1"
     width="112"
     height="112"
     x="8"
     y="9"
     ry="24" />
  <rect
     style="fill:url(#linearGradient4);stroke-width:4"
     id="rect2"
     width="112"
     height="112"
     x="8"
     y="8"
     ry="24" />
  <path
     d="M 104.00021,64.17854 C 104.00021,86.171324 86.091508,104 64,104 57.5501,104 51.456752,102.48024 46.061568,99.780804 47.744132,91.19074 49.940824,83.856212 52.47554,77.594112 55.406836,70.352236 62.472816,71.314536 66.0359,66.657944 71.743056,59.199272 74.228668,47.923756 79.7387,45.207272 86.549104,41.849692 96.19926,40.5083 96.19926,40.5083 l 0.435608,0.63838 c 0.423184,0.593208 0.830456,1.198448 1.221196,1.815104 3.892066,6.14236 6.144146,13.417732 6.144146,21.216756 z"
     style="fill:url(#linearGradient17513);fill-opacity:1;stroke-width:1.42538"
     id="path405" />
  <path
     id="path372"
     style="fill:url(#linearGradient15327);fill-opacity:1;stroke-width:1.42538"
     d="m 92.144532,39.988284 c -5.188376,6.8e-4 -10.775628,1.506804 -15.406252,3.6875 -3.966736,1.868048 -7.83788,5.10034 -15.339844,11.031248 -5.55012,4.387824 -9.279296,5.896932 -12.85156,6.593748 -1.409716,0.275 -4.249208,0.21292 -5.742188,-0.125 C 36.423064,59.731536 31.529852,54.969388 30.621094,48.464844 30.343352,46.476944 30.534214,43.790648 31.082032,42 c 0.11454,-0.37444 0.1895,-0.701212 0.16406,-0.72656 -0.07578,-0.07544 -1.660562,2.412396 -2.414062,3.792968 -2.265534,4.150928 -3.675324,8.293088 -4.453126,13.074216 -0.408756,2.512576 -0.507124,7.760108 -0.19532,10.44922 1.071102,9.237732 5.301722,17.844088 11.88672,24.1875 l 1.066408,1.027344 -0.882812,0.8125 c -3.463884,3.181772 -7.85474,5.889202 -12.062504,7.437502 -0.236296,0.0869 -0.19522,0.1282 0.277344,0.29688 1.704962,0.60849 5.275852,1.32256 7.800784,1.55859 2.00032,0.187 5.608584,0.0575 7.523432,-0.26952 2.373044,-0.40532 4.547156,-1.01184 6.765628,-1.88672 l 3.195312,-1.46874 c 3.982464,-2.047676 8.122064,-5.439016 10.503904,-8.605472 3.111268,-4.13618 7.057116,-12.274316 11.355468,-23.433596 2.072584,-5.380796 3.015236,-7.603224 4.42578,-10.417968 1.97448,-3.940076 3.96894,-6.922368 5.988284,-8.953124 3.1979,-3.215964 8.372944,-6.694452 13.36328,-8.031248 l 0.765624,-0.31252 -0.0236,-0.0272 -1.792968,-0.4375 c -0.72084,-0.0504 -1.454116,-0.07828 -2.195312,-0.07812 z M 62,64 c 1.104568,0 2,0.895432 2,2 0,1.104568 -0.895432,2 -2,2 -1.104568,0 -2,-0.895432 -2,-2 0,-1.104568 0.895432,-2 2,-2 z"
     sodipodi:nodetypes="cssccsccssccccccscccssssccccccsssss" />
  <path
     id="path5945"
     style="fill:url(#linearGradient15313);fill-opacity:1;stroke-width:1.42538"
     d="M 50.666884,74.796432 C 47.429912,84.717496 40.718,90.391212 37.135632,93.804856 l -0.880208,0.814056 c -0.865968,0.795444 -1.790712,1.56136 -2.755208,2.286612 -0.964496,0.725252 -1.966462,1.40912 -2.994796,2.042912 -0.0012,7.6e-4 -0.004,-7.6e-4 -0.0054,0 -2.055508,1.266544 -4.204716,2.332184 -6.307292,3.105854 -0.05906,0.0216 -0.10288,0.0384 -0.12498,0.057 -0.02216,0.0192 -0.02508,0.036 -0.005,0.057 0.03952,0.0423 0.16998,0.0971 0.406248,0.18148 1.704964,0.60849 5.277156,1.32467 7.802084,1.5607 2.000324,0.187 5.605988,0.0574 7.520836,-0.26964 2.373044,-0.40532 4.547156,-1.01249 6.765628,-1.88736 l 3.197916,-1.46737 c 3.982472,-2.047676 8.123372,-5.44074 10.505208,-8.6072 2.46216,-3.273064 5.450316,-9.082848 8.718872,-16.882532 z" />
  <path
     d="m 67,30 c -0.552284,0 -1,0.447716 -1,1 0,0.552284 0.447716,1 1,1 0.552284,0 1,-0.447716 1,-1 0,-0.552284 -0.447716,-1 -1,-1 z m 11.5,5 C 78.22388,35 78,35.22388 78,35.5 78,35.77616 78.22388,36 78.5,36 78.77612,36 79,35.77616 79,35.5 79,35.22388 78.77612,35 78.5,35 Z m -25.769532,7.3125 c -0.16628,-4.32e-4 -0.3012,0.13448 -0.3008,0.3008 -4.32e-4,0.16628 0.13448,0.3012 0.3008,0.3008 0.16628,4.32e-4 0.3012,-0.13448 0.3008,-0.3008 4.32e-4,-0.16628 -0.13448,-0.3012 -0.3008,-0.3008 z M 64.5,43 C 64.22388,43 64,43.22388 64,43.5 64,43.77616 64.22388,44 64.5,44 64.77612,44 65,43.77616 65,43.5 65,43.22388 64.77612,43 64.5,43 Z m -12.199216,0.39844 c -0.16628,-4.36e-4 -0.3012,0.13448 -0.3008,0.30076 -4.32e-4,0.16628 0.13448,0.3012 0.3008,0.3008 0.16628,4.32e-4 0.3012,-0.13448 0.3008,-0.3008 4.32e-4,-0.16628 -0.13448,-0.3012 -0.3008,-0.30076 z M 42.5,45 C 42.22388,45 42,45.22388 42,45.5 42,45.77616 42.22388,46 42.5,46 42.77616,46 43,45.77616 43,45.5 43,45.22388 42.77616,45 42.5,45 Z m 6.5,3 c -0.552284,0 -1,0.447716 -1,1 0,0.552284 0.447716,1 1,1 0.552284,0 1,-0.447716 1,-1 0,-0.552284 -0.447716,-1 -1,-1 z"
     style="fill:#ffffff;stroke-width:2"
     id="path19127" />
</svg>
