<?xml version="1.0" encoding="UTF-8" standalone="no"?>
<!-- Created with Inkscape (http://www.inkscape.org/) -->

<svg
   width="128"
   height="128"
   viewBox="0 0 128 128.00001"
   version="1.1"
   id="svg1"
   inkscape:version="1.4.2 (ebf0e940d0, 2025-05-08)"
   sodipodi:docname="office-address-book.svg"
   xmlns:inkscape="http://www.inkscape.org/namespaces/inkscape"
   xmlns:sodipodi="http://sodipodi.sourceforge.net/DTD/sodipodi-0.dtd"
   xmlns:xlink="http://www.w3.org/1999/xlink"
   xmlns="http://www.w3.org/2000/svg"
   xmlns:svg="http://www.w3.org/2000/svg">
  <sodipodi:namedview
     id="namedview1"
     pagecolor="#ffffff"
     bordercolor="#000000"
     borderopacity="0.25"
     inkscape:showpageshadow="2"
     inkscape:pageopacity="0.0"
     inkscape:pagecheckerboard="0"
     inkscape:deskcolor="#d1d1d1"
     inkscape:document-units="px"
     inkscape:zoom="6.2109375"
     inkscape:cx="64"
     inkscape:cy="64"
     inkscape:window-width="1920"
     inkscape:window-height="1010"
     inkscape:window-x="0"
     inkscape:window-y="0"
     inkscape:window-maximized="1"
     inkscape:current-layer="svg1" />
  <defs
     id="defs1">
    <linearGradient
       inkscape:collect="always"
       xlink:href="#linearGradient3"
       id="linearGradient4"
       x1="16"
       y1="30"
       x2="16"
       y2="2"
       gradientUnits="userSpaceOnUse"
       gradientTransform="scale(4)" />
    <linearGradient
       inkscape:collect="always"
       id="linearGradient3">
      <stop
         style="stop-color:#cc883b;stop-opacity:1;"
         offset="0"
         id="stop1" />
      <stop
         style="stop-color:#e8c69e;stop-opacity:1;"
         offset="1"
         id="stop2" />
    </linearGradient>
  </defs>
  <rect
     style="opacity:0.2;fill:#000000;stroke-width:7"
     id="rect1"
     width="112"
     height="112"
     x="8"
     y="9"
     ry="24" />
  <rect
     style="fill:url(#linearGradient4);stroke-width:4"
     id="rect2"
     width="112"
     height="112"
     x="8"
     y="8"
     ry="24" />
  <path
     id="rect396"
     style="opacity:0.6;fill:#ffffff;stroke-width:7.30296"
     d="M 74,60 C 49.08504,75.520952 44,79.291304 44,88 v 4 c 0,4.431968 3.568032,8 8,8 h 44 c 4.43197,0 8,-3.568032 8,-8 V 88 C 104,79.291304 98.91496,75.520952 74,60 Z" />
  <path
     id="path234"
     style="fill:#ffffff;stroke-width:4.97492"
     d="M 74,28 C 64.058876,28 56,33.849734 56,46 56,58.150268 64.058876,72 74,72 83.941124,72 92,58.150268 92,46 92,33.849734 83.941124,28 74,28 Z" />
  <path
     id="rect3"
     style="opacity:0.3;fill:#000000;stroke-width:4"
     d="M 32,8 C 18.704,8 8,18.704 8,32 v 64 c 0,13.296 10.704,24 24,24 z" />
</svg>
