<?xml version="1.0" encoding="UTF-8" standalone="no"?>
<!-- Created with Inkscape (http://www.inkscape.org/) -->

<svg
   width="128"
   height="128"
   viewBox="0 0 128 128.00001"
   version="1.1"
   id="svg1"
   inkscape:version="1.4.2 (ebf0e940d0, 2025-05-08)"
   sodipodi:docname="org.gnome.Software.Develop.svg"
   xmlns:inkscape="http://www.inkscape.org/namespaces/inkscape"
   xmlns:sodipodi="http://sodipodi.sourceforge.net/DTD/sodipodi-0.dtd"
   xmlns:xlink="http://www.w3.org/1999/xlink"
   xmlns="http://www.w3.org/2000/svg"
   xmlns:svg="http://www.w3.org/2000/svg">
  <sodipodi:namedview
     id="namedview1"
     pagecolor="#ffffff"
     bordercolor="#000000"
     borderopacity="0.25"
     inkscape:showpageshadow="2"
     inkscape:pageopacity="0.0"
     inkscape:pagecheckerboard="0"
     inkscape:deskcolor="#d1d1d1"
     inkscape:document-units="px"
     inkscape:zoom="6.140625"
     inkscape:cx="63.918575"
     inkscape:cy="64"
     inkscape:window-width="1920"
     inkscape:window-height="1011"
     inkscape:window-x="0"
     inkscape:window-y="0"
     inkscape:window-maximized="1"
     inkscape:current-layer="svg1" />
  <defs
     id="defs1">
    <linearGradient
       inkscape:collect="always"
       xlink:href="#4852"
       id="linearGradient4"
       x1="16"
       y1="30"
       x2="16"
       y2="2"
       gradientUnits="userSpaceOnUse"
       gradientTransform="scale(4)" />
    <linearGradient
       inkscape:collect="always"
       id="4852">
      <stop
         style="stop-color:#272727;stop-opacity:1;"
         offset="0"
         id="stop14555" />
      <stop
         style="stop-color:#5d5d5d;stop-opacity:1;"
         offset="1"
         id="stop14557" />
    </linearGradient>
  </defs>
  <rect
     style="opacity:0.2;fill:#000000;stroke-width:7"
     id="rect1"
     width="112"
     height="112"
     x="8"
     y="9"
     ry="24" />
  <rect
     style="fill:url(#linearGradient4);stroke-width:4"
     id="rect2"
     width="112"
     height="112"
     x="8"
     y="8"
     ry="24" />
  <path
     id="rect345"
     style="fill:#999999;stroke-width:13.3866;stroke-linecap:round;stroke-linejoin:round"
     d="m 52,78 v 4 h 52 v -4 z m -28,8 v 4 h 80 v -4 z m 0,8 v 4 h 52 v -4 z" />
  <path
     id="rect374"
     style="fill:#be4747;fill-opacity:1;stroke-width:16;stroke-linecap:round;stroke-linejoin:round"
     d="m 24,62 v 4 h 20 v -4 z m 0,8 v 4 h 20 v -4 z"
     sodipodi:nodetypes="cccccccccc" />
  <path
     id="rect2575"
     style="fill:#7ebe47;fill-opacity:1;stroke-width:16;stroke-linecap:round;stroke-linejoin:round"
     d="m 52,62 v 4 h 52 v -4 z m 0,8 v 4 h 32 v -4 z" />
  <path
     id="rect3305"
     style="fill:#7849a6;fill-opacity:1;stroke-width:16;stroke-linecap:round;stroke-linejoin:round"
     d="m 24,46 v 4 h 20 v -4 z m 0,8 v 4 h 20 v -4 z" />
  <path
     id="rect4149"
     style="fill:#bb59a3;fill-opacity:1;stroke-width:16;stroke-linecap:round;stroke-linejoin:round"
     d="m 52,46 v 4 h 52 v -4 z m 0,8 v 4 h 32 v -4 z" />
  <path
     id="rect5308"
     style="fill:#4775be;fill-opacity:1;stroke-width:16;stroke-linecap:round;stroke-linejoin:round"
     d="m 24,30 v 4 h 80 v -4 z m 0,8 v 4 h 52 v -4 z" />
</svg>
