<?xml version="1.0" encoding="UTF-8" standalone="no"?>
<!-- Created with Inkscape (http://www.inkscape.org/) -->

<svg
   width="128"
   height="128"
   viewBox="0 0 128 128.00001"
   version="1.1"
   id="svg1"
   inkscape:version="1.4.2 (ebf0e940d0, 2025-05-08)"
   sodipodi:docname="plasmadiscover.svg"
   xmlns:inkscape="http://www.inkscape.org/namespaces/inkscape"
   xmlns:sodipodi="http://sodipodi.sourceforge.net/DTD/sodipodi-0.dtd"
   xmlns:xlink="http://www.w3.org/1999/xlink"
   xmlns="http://www.w3.org/2000/svg"
   xmlns:svg="http://www.w3.org/2000/svg">
  <sodipodi:namedview
     id="namedview1"
     pagecolor="#ffffff"
     bordercolor="#000000"
     borderopacity="0.25"
     inkscape:showpageshadow="2"
     inkscape:pageopacity="0.0"
     inkscape:pagecheckerboard="0"
     inkscape:deskcolor="#d1d1d1"
     inkscape:document-units="px"
     inkscape:zoom="6.2109375"
     inkscape:cx="64"
     inkscape:cy="64"
     inkscape:window-width="1920"
     inkscape:window-height="1010"
     inkscape:window-x="0"
     inkscape:window-y="0"
     inkscape:window-maximized="1"
     inkscape:current-layer="svg1" />
  <defs
     id="defs1">
    <linearGradient
       inkscape:collect="always"
       xlink:href="#linearGradient928"
       id="linearGradient4"
       x1="16"
       y1="30"
       x2="16"
       y2="2"
       gradientUnits="userSpaceOnUse"
       gradientTransform="scale(4)" />
    <linearGradient
       inkscape:collect="always"
       id="linearGradient928">
      <stop
         style="stop-color:#197cf1;stop-opacity:1;"
         offset="0"
         id="stop924" />
      <stop
         style="stop-color:#20bcfa;stop-opacity:1;"
         offset="1"
         id="stop926" />
    </linearGradient>
  </defs>
  <rect
     style="opacity:0.2;fill:#000000;stroke-width:7"
     id="rect1"
     width="112"
     height="112"
     x="8"
     y="9"
     ry="24" />
  <rect
     style="fill:url(#linearGradient4);stroke-width:4"
     id="rect2"
     width="112"
     height="112"
     x="8"
     y="8"
     ry="24" />
  <path
     style="color:#000000;fill:#ececec;stroke:none;stroke-width:4;stroke-linecap:round;stroke-linejoin:round;-inkscape-stroke:none"
     d="M 64,40 C 52.978004,40 44,31.021994 44,20 a 2,2 0 0 1 2,-2 2,2 0 0 1 2,2 c 0,8.860236 7.139764,16 16,16 8.860236,0 16,-7.139764 16,-16 a 2,2 0 0 1 2,-2 2,2 0 0 1 2,2 c 0,11.021994 -8.978004,20 -20,20 z"
     id="path6892" />
  <path
     id="path360"
     style="fill:#ffffff;stroke-width:4"
     d="m 50,52 c -2.216,0 -4,1.784 -4,4 0,2.216 1.784,4 4,4 2.216,0 4,-1.784 4,-4 0,-2.216 -1.784,-4 -4,-4 z m 22,0 -8,8 12,12 -12,12 8,8 20,-20 z M 42,72 c -3.323976,0 -6,2.675976 -6,6 0,3.323976 2.676024,6 6,6 3.324024,0 6,-2.676024 6,-6 0,-3.324024 -2.675976,-6 -6,-6 z m 14,20 c -4.432,0 -8,3.568 -8,8 0,4.432 3.568,8 8,8 4.432,0 8,-3.568 8,-8 0,-4.432 -3.568,-8 -8,-8 z" />
</svg>
