<?xml version="1.0" encoding="UTF-8" standalone="no"?>
<!-- Created with Inkscape (http://www.inkscape.org/) -->

<svg
   width="128"
   height="128"
   viewBox="0 0 128 128.00001"
   version="1.1"
   id="svg1"
   inkscape:version="1.4.2 (ebf0e940d0, 2025-05-08)"
   sodipodi:docname="polari.svg"
   xmlns:inkscape="http://www.inkscape.org/namespaces/inkscape"
   xmlns:sodipodi="http://sodipodi.sourceforge.net/DTD/sodipodi-0.dtd"
   xmlns:xlink="http://www.w3.org/1999/xlink"
   xmlns="http://www.w3.org/2000/svg"
   xmlns:svg="http://www.w3.org/2000/svg">
  <sodipodi:namedview
     id="namedview1"
     pagecolor="#ffffff"
     bordercolor="#000000"
     borderopacity="0.25"
     inkscape:showpageshadow="2"
     inkscape:pageopacity="0.0"
     inkscape:pagecheckerboard="0"
     inkscape:deskcolor="#d1d1d1"
     inkscape:document-units="px"
     inkscape:zoom="6.3125"
     inkscape:cx="63.920792"
     inkscape:cy="64"
     inkscape:window-width="1920"
     inkscape:window-height="1011"
     inkscape:window-x="0"
     inkscape:window-y="0"
     inkscape:window-maximized="1"
     inkscape:current-layer="svg1" />
  <defs
     id="defs1">
    <linearGradient
       inkscape:collect="always"
       xlink:href="#linearGradient2742"
       id="linearGradient4"
       x1="16"
       y1="30"
       x2="16"
       y2="2"
       gradientUnits="userSpaceOnUse"
       gradientTransform="scale(4)" />
    <linearGradient
       inkscape:collect="always"
       id="linearGradient2742">
      <stop
         style="stop-color:#1ccd6b;stop-opacity:1;"
         offset="0"
         id="stop2738" />
      <stop
         style="stop-color:#8be65c;stop-opacity:1;"
         offset="1"
         id="stop2740" />
    </linearGradient>
  </defs>
  <rect
     style="opacity:0.2;fill:#000000;stroke-width:7"
     id="rect1"
     width="112"
     height="112"
     x="8"
     y="9"
     ry="24" />
  <rect
     style="fill:url(#linearGradient4);stroke-width:4"
     id="rect2"
     width="112"
     height="112"
     x="8"
     y="8"
     ry="24" />
  <path
     id="path1"
     style="fill:#ffffff;stroke-width:16"
     d="M 56,28 C 38.272,28 24,42.272 24,60 24,72.082352 30.634192,82.55232 40.468752,88 38.001748,99.559496 36,104 36,104 c 0,0 8.363312,-2.35244 20,-12 H 72 C 89.728,92 104,77.728 104,60 104,42.272 89.728,28 72,28 Z"
     sodipodi:nodetypes="sscccssss" />
  <path
     d="m 60,42 h 4 l -1.781248,8 h 8 L 72,42 h 4 l -1.781248,8 H 80 v 4 H 73.335936 L 70.664064,66 H 80 v 4 H 69.781248 L 68,78 h -4 l 1.781248,-8 h -8 L 56,78 h -4 l 1.781248,-8 H 48 v -4 h 6.664064 L 57.335936,54 H 48 v -4 h 10.218752 z m 1.335936,12 -2.671872,12 h 8 l 2.671872,-12 z"
     style="fill:#3bbd1e;fill-opacity:1;stroke-width:16;stroke-linecap:round;stroke-linejoin:round"
     id="path1-2" />
</svg>
