<?xml version="1.0" encoding="UTF-8" standalone="no"?>
<!-- Created with Inkscape (http://www.inkscape.org/) -->

<svg
   width="128"
   height="128"
   viewBox="0 0 128 128.00001"
   version="1.1"
   id="svg1"
   inkscape:version="1.4.2 (ebf0e940d0, 2025-05-08)"
   sodipodi:docname="preferences-desktop-screensaver.svg"
   xmlns:inkscape="http://www.inkscape.org/namespaces/inkscape"
   xmlns:sodipodi="http://sodipodi.sourceforge.net/DTD/sodipodi-0.dtd"
   xmlns:xlink="http://www.w3.org/1999/xlink"
   xmlns="http://www.w3.org/2000/svg"
   xmlns:svg="http://www.w3.org/2000/svg">
  <sodipodi:namedview
     id="namedview1"
     pagecolor="#ffffff"
     bordercolor="#000000"
     borderopacity="0.25"
     inkscape:showpageshadow="2"
     inkscape:pageopacity="0.0"
     inkscape:pagecheckerboard="0"
     inkscape:deskcolor="#d1d1d1"
     inkscape:document-units="px"
     inkscape:zoom="6.140625"
     inkscape:cx="63.918575"
     inkscape:cy="64"
     inkscape:window-width="1920"
     inkscape:window-height="1011"
     inkscape:window-x="0"
     inkscape:window-y="0"
     inkscape:window-maximized="1"
     inkscape:current-layer="svg1" />
  <defs
     id="defs1">
    <linearGradient
       inkscape:collect="always"
       xlink:href="#linearGradient3"
       id="linearGradient4"
       x1="16"
       y1="30"
       x2="16"
       y2="2"
       gradientUnits="userSpaceOnUse"
       gradientTransform="scale(4)" />
    <linearGradient
       inkscape:collect="always"
       id="linearGradient3">
      <stop
         style="stop-color:#5b25b4;stop-opacity:1;"
         offset="0"
         id="stop1" />
      <stop
         style="stop-color:#bb3fee;stop-opacity:1;"
         offset="1"
         id="stop2" />
    </linearGradient>
  </defs>
  <rect
     style="opacity:0.2;fill:#000000;stroke-width:7"
     id="rect1"
     width="112"
     height="112"
     x="8"
     y="9"
     ry="24" />
  <rect
     style="fill:url(#linearGradient4);stroke-width:4"
     id="rect2"
     width="112"
     height="112"
     x="8"
     y="8"
     ry="24" />
  <path
     d="M 78.2,46.400004 77.156884,43.24312 74,42.200004 77.156884,41.156888 78.2,38 79.243116,41.156888 82.4,42.200004 79.243116,43.24312 Z m -20,0.08 L 56.11376,40.16624 49.8,38.080004 56.11376,35.993764 58.2,29.68 60.286236,35.993764 66.6,38.080004 60.286236,40.16624 Z m -24.4,9.72 L 30.322936,45.677068 19.8,42.200004 30.322936,38.722936 33.8,28.2 37.277064,38.722936 47.8,42.200004 37.277064,45.677068 Z m 50.587444,-6.600156 c 3.123188,3.78444 5.01722,8.621428 5.01722,13.911412 0,12.090956 -9.801792,21.893252 -21.893256,21.893252 -5.289984,0 -10.126872,-1.89398 -13.911408,-5.017168 C 56.24726,91.671404 66.366824,100 78.457784,100 92.56424,100 104,88.56424 104,74.457788 104,62.36632 95.6714,52.247008 84.387344,49.600004 Z"
     style="fill:#ffffff;stroke-width:4"
     id="path1" />
</svg>
