<?xml version="1.0" encoding="UTF-8" standalone="no"?>
<!-- Created with Inkscape (http://www.inkscape.org/) -->

<svg
   width="128"
   height="128"
   viewBox="0 0 128 128.00001"
   version="1.1"
   id="svg1"
   inkscape:version="1.4.2 (ebf0e940d0, 2025-05-08)"
   sodipodi:docname="preferences-desktop-effects.svg"
   xmlns:inkscape="http://www.inkscape.org/namespaces/inkscape"
   xmlns:sodipodi="http://sodipodi.sourceforge.net/DTD/sodipodi-0.dtd"
   xmlns:xlink="http://www.w3.org/1999/xlink"
   xmlns="http://www.w3.org/2000/svg"
   xmlns:svg="http://www.w3.org/2000/svg">
  <sodipodi:namedview
     id="namedview1"
     pagecolor="#ffffff"
     bordercolor="#000000"
     borderopacity="0.25"
     inkscape:showpageshadow="2"
     inkscape:pageopacity="0.0"
     inkscape:pagecheckerboard="0"
     inkscape:deskcolor="#d1d1d1"
     inkscape:document-units="px"
     inkscape:zoom="6.21875"
     inkscape:cx="63.919598"
     inkscape:cy="64"
     inkscape:window-width="1920"
     inkscape:window-height="1011"
     inkscape:window-x="0"
     inkscape:window-y="0"
     inkscape:window-maximized="1"
     inkscape:current-layer="svg1" />
  <defs
     id="defs1">
    <linearGradient
       inkscape:collect="always"
       xlink:href="#linearGradient3147"
       id="linearGradient4"
       x1="16"
       y1="30"
       x2="16"
       y2="2"
       gradientUnits="userSpaceOnUse"
       gradientTransform="scale(4)" />
    <linearGradient
       inkscape:collect="always"
       id="linearGradient3147">
      <stop
         style="stop-color:#0091f9;stop-opacity:1;"
         offset="0"
         id="stop3143" />
      <stop
         style="stop-color:#41bbff;stop-opacity:1;"
         offset="1"
         id="stop3145" />
    </linearGradient>
    <linearGradient
       inkscape:collect="always"
       xlink:href="#linearGradient950"
       id="linearGradient5187"
       x1="-12.832299"
       y1="-13.981112"
       x2="-14.419785"
       y2="-14.014091"
       gradientUnits="userSpaceOnUse" />
    <linearGradient
       inkscape:collect="always"
       id="linearGradient950">
      <stop
         style="stop-color:#ffffff;stop-opacity:1"
         offset="0"
         id="stop946" />
      <stop
         style="stop-color:#dddddd;stop-opacity:1"
         offset="1"
         id="stop948" />
    </linearGradient>
    <linearGradient
       inkscape:collect="always"
       xlink:href="#linearGradient2205"
       id="linearGradient5250"
       x1="12.472872"
       y1="6.6415358"
       x2="14.060357"
       y2="6.6415358"
       gradientUnits="userSpaceOnUse"
       gradientTransform="translate(0.35942789,-1.0853405)" />
    <linearGradient
       inkscape:collect="always"
       id="linearGradient2205">
      <stop
         style="stop-color:#818181;stop-opacity:1"
         offset="0"
         id="stop2201" />
      <stop
         style="stop-color:#404040;stop-opacity:1"
         offset="1"
         id="stop2203" />
    </linearGradient>
  </defs>
  <rect
     style="opacity:0.2;fill:#000000;stroke-width:7"
     id="rect1"
     width="112"
     height="112"
     x="8"
     y="9"
     ry="24" />
  <rect
     style="fill:url(#linearGradient4);stroke-width:4"
     id="rect2"
     width="112"
     height="112"
     x="8"
     y="8"
     ry="24" />
  <path
     id="rect1693"
     style="opacity:0.7;fill:#ffffff;fill-opacity:1;stroke-width:4"
     d="m 40.000076,32 c 0,4.418324 -3.581754,8.00008 -8.000074,8.000076 4.41832,0 8.000074,3.581756 8.000074,8.000076 0,-4.41832 3.581752,-8.000076 8.000072,-8.000076 -4.41832,0 -8.000072,-3.581756 -8.000072,-8.000076 z"
     sodipodi:nodetypes="ccccc" />
  <path
     d="m 56,44 c 0,4.41828 -3.58172,8.000004 -8,8 4.41828,0 8,3.58172 8,7.999996 C 56,55.58172 59.581728,52 64,52 59.581728,52 56,48.41828 56,44 Z"
     style="opacity:0.7;fill:#ffffff;fill-opacity:1;stroke-width:1.05833"
     id="path4839" />
  <g
     id="g2705"
     transform="matrix(5.3451088,5.3451088,-5.3451088,5.3451088,45.195832,-59.456936)">
    <path
       id="rect4814"
       style="opacity:1;fill:url(#linearGradient5187);stroke-width:1.58749;stroke-linecap:round;stroke-linejoin:round"
       d="m -12.978733,-6.7976533 c 0.09069,-0.088558 0.146893,-0.2039788 0.146893,-0.3456723 v -7.9380404 c 0,-0.293156 -0.23595,-0.529105 -0.529106,-0.529105 h -0.529105 c -0.293155,0 -0.529836,0.23668 -0.529836,0.529836 v 7.9365785 c 0,0.6140056 1.048158,0.7301567 1.441154,0.3464032 z"
       transform="scale(-1)" />
    <path
       id="rect5241"
       style="opacity:1;fill:url(#linearGradient5250);fill-opacity:1;stroke-width:1.58749;stroke-linecap:round;stroke-linejoin:round"
       d="m 13.361461,3.9688034 0.529162,10e-8 c 0.293156,5e-7 0.529162,0.2360065 0.529162,0.5291621 v 2.6456213 l -1.587485,-3e-7 V 4.4979659 c 0,-0.2931562 0.236006,-0.5291623 0.529161,-0.5291625 z"
       sodipodi:nodetypes="sssccss" />
  </g>
  <path
     d="m 60,20 c 0,4.418278 -3.58172,8.000002 -8,7.999998 4.41828,0 8,3.581724 8,8.000002 0,-4.418278 3.58172,-8.000002 8,-8.000002 -4.41828,0 -8,-3.58172 -8,-7.999998 z"
     style="opacity:0.7;fill:#ffffff;fill-opacity:1;stroke-width:1.05833"
     id="path5282" />
</svg>
