<?xml version="1.0" encoding="UTF-8" standalone="no"?>
<!-- Created with Inkscape (http://www.inkscape.org/) -->

<svg
   width="128"
   height="128"
   viewBox="0 0 128 128.00001"
   version="1.1"
   id="svg1"
   inkscape:version="1.4.2 (ebf0e940d0, 2025-05-08)"
   sodipodi:docname="preferences-desktop-theme-applications.svg"
   xmlns:inkscape="http://www.inkscape.org/namespaces/inkscape"
   xmlns:sodipodi="http://sodipodi.sourceforge.net/DTD/sodipodi-0.dtd"
   xmlns:xlink="http://www.w3.org/1999/xlink"
   xmlns="http://www.w3.org/2000/svg"
   xmlns:svg="http://www.w3.org/2000/svg">
  <sodipodi:namedview
     id="namedview1"
     pagecolor="#ffffff"
     bordercolor="#000000"
     borderopacity="0.25"
     inkscape:showpageshadow="2"
     inkscape:pageopacity="0.0"
     inkscape:pagecheckerboard="0"
     inkscape:deskcolor="#d1d1d1"
     inkscape:document-units="px"
     inkscape:zoom="6.203125"
     inkscape:cx="63.919395"
     inkscape:cy="64"
     inkscape:window-width="1920"
     inkscape:window-height="1009"
     inkscape:window-x="0"
     inkscape:window-y="0"
     inkscape:window-maximized="1"
     inkscape:current-layer="svg1" />
  <defs
     id="defs1">
    <linearGradient
       inkscape:collect="always"
       id="linearGradient1606">
      <stop
         style="stop-color:#eaebed;stop-opacity:1;"
         offset="0"
         id="stop1602" />
      <stop
         style="stop-color:#f9fafa;stop-opacity:1;"
         offset="1"
         id="stop1604" />
    </linearGradient>
    <linearGradient
       inkscape:collect="always"
       xlink:href="#linearGradient1606"
       id="linearGradient4"
       x1="16"
       y1="30"
       x2="16"
       y2="2"
       gradientUnits="userSpaceOnUse"
       gradientTransform="scale(4)" />
  </defs>
  <rect
     style="opacity:0.2;fill:#000000;stroke-width:7"
     id="rect1"
     width="112"
     height="112"
     x="8"
     y="9"
     ry="24" />
  <rect
     style="fill:url(#linearGradient4);stroke-width:4"
     id="rect2"
     width="112"
     height="112"
     x="8"
     y="8"
     ry="24" />
  <rect
     style="fill:#000000;stroke-width:7.58948;opacity:0.4"
     id="rect3"
     width="72"
     height="8"
     x="28"
     y="40"
     ry="4" />
  <rect
     style="opacity:0.4;fill:#000000;stroke-width:7.58948"
     id="rect4"
     width="72"
     height="8"
     x="28"
     y="80"
     ry="4" />
  <path
     id="path1"
     style="opacity:0.2;fill:#000000;stroke-width:4.33332"
     d="m 88,31 c -7.179702,0 -13,5.8203 -13,13 0,7.179702 5.820298,13 13,13 7.179702,0 13,-5.820298 13,-13 0,-7.1797 -5.820298,-13 -13,-13 z M 40,71 c -7.179702,0 -13,5.8203 -13,13 0,7.179702 5.820298,13 13,13 7.179702,0 13,-5.820298 13,-13 0,-7.1797 -5.820298,-13 -13,-13 z" />
  <path
     id="path2"
     style="fill:#f9f9f9;fill-opacity:1;stroke-width:24;stroke-linecap:round;stroke-linejoin:round"
     d="m 88,32 c -6.62742,0 -12,5.372586 -12,12 0,6.62742 5.37258,12 12,12 6.627412,0 12,-5.37258 12,-12 0,-6.627414 -5.372588,-12 -12,-12 z M 40,72 c -6.62742,0 -12,5.372584 -12,12 0,6.62742 5.37258,12 12,12 6.627412,0 12,-5.37258 12,-12 0,-6.627416 -5.372588,-12 -12,-12 z" />
</svg>
