<?xml version="1.0" encoding="UTF-8" standalone="no"?>
<!-- Created with Inkscape (http://www.inkscape.org/) -->

<svg
   width="128"
   height="128"
   viewBox="0 0 128 128.00001"
   version="1.1"
   id="svg1"
   inkscape:version="1.4 (e7c3feb100, 2024-10-09)"
   sodipodi:docname="preferences-system-network.svg"
   xmlns:inkscape="http://www.inkscape.org/namespaces/inkscape"
   xmlns:sodipodi="http://sodipodi.sourceforge.net/DTD/sodipodi-0.dtd"
   xmlns:xlink="http://www.w3.org/1999/xlink"
   xmlns="http://www.w3.org/2000/svg"
   xmlns:svg="http://www.w3.org/2000/svg">
  <sodipodi:namedview
     id="namedview1"
     pagecolor="#ffffff"
     bordercolor="#000000"
     borderopacity="0.25"
     inkscape:showpageshadow="2"
     inkscape:pageopacity="0.0"
     inkscape:pagecheckerboard="0"
     inkscape:deskcolor="#d1d1d1"
     inkscape:document-units="px"
     inkscape:zoom="6.3125"
     inkscape:cx="64.079208"
     inkscape:cy="64"
     inkscape:window-width="1920"
     inkscape:window-height="1011"
     inkscape:window-x="0"
     inkscape:window-y="0"
     inkscape:window-maximized="1"
     inkscape:current-layer="svg1" />
  <defs
     id="defs1">
    <linearGradient
       inkscape:collect="always"
       xlink:href="#linearGradient1333"
       id="linearGradient4"
       x1="16"
       y1="30"
       x2="16"
       y2="2"
       gradientUnits="userSpaceOnUse"
       gradientTransform="scale(4)" />
    <linearGradient
       inkscape:collect="always"
       xlink:href="#linearGradient2414"
       id="linearGradient2280"
       x1="5.8732753"
       y1="1.0689007"
       x2="6.6874967"
       y2="7.4285488"
       gradientUnits="userSpaceOnUse"
       gradientTransform="scale(15.11811)" />
    <linearGradient
       inkscape:collect="always"
       id="linearGradient2414">
      <stop
         style="stop-color:#ffffff;stop-opacity:1;"
         offset="0"
         id="stop2410" />
      <stop
         style="stop-color:#ffffff;stop-opacity:0;"
         offset="1"
         id="stop2412" />
    </linearGradient>
    <linearGradient
       inkscape:collect="always"
       xlink:href="#linearGradient2414"
       id="linearGradient2416"
       x1="6.7261014"
       y1="6.970808"
       x2="1.8283238"
       y2="1.6188054"
       gradientUnits="userSpaceOnUse"
       gradientTransform="scale(15.11811)" />
    <linearGradient
       inkscape:collect="always"
       xlink:href="#linearGradient2414"
       id="linearGradient2106"
       x1="6.7381701"
       y1="1.8265808"
       x2="1.7916619"
       y2="5.7219892"
       gradientUnits="userSpaceOnUse"
       gradientTransform="scale(15.11811)" />
    <linearGradient
       inkscape:collect="always"
       xlink:href="#linearGradient2414"
       id="linearGradient2272"
       x1="1.0583334"
       y1="3.6786497"
       x2="7.1712751"
       y2="3.6786497"
       gradientUnits="userSpaceOnUse"
       gradientTransform="scale(15.11811)" />
    <linearGradient
       inkscape:collect="always"
       id="linearGradient1333">
      <stop
         style="stop-color:#7253e1;stop-opacity:1;"
         offset="0"
         id="stop1329" />
      <stop
         style="stop-color:#b491dd;stop-opacity:1;"
         offset="1"
         id="stop1331" />
    </linearGradient>
  </defs>
  <rect
     style="opacity:0.2;fill:#000000;stroke-width:7"
     id="rect1"
     width="112"
     height="112"
     x="8"
     y="9"
     ry="24" />
  <rect
     style="fill:url(#linearGradient4);stroke-width:4"
     id="rect2"
     width="112"
     height="112"
     x="8"
     y="8"
     ry="24" />
  <path
     id="path105"
     style="color:#000000;opacity:0.8;fill:url(#linearGradient2280);fill-opacity:1;stroke:none;stroke-width:4;stroke-linecap:round;stroke-linejoin:round;-inkscape-stroke:none"
     d="m 65.717388,16.000168 c -0.953284,0.005 -1.722432,0.781078 -1.718748,1.734376 0.0048,0.953287 0.781076,1.72243 1.734376,1.718749 4.795944,-0.02448 8.97948,3.666345 12.351556,10.250001 3.372084,6.583652 5.698952,15.828242 6.679688,25.75781 1.961484,19.85914 -2.227708,38.738012 -11.821452,48.895956 -0.657004,0.69423 -0.625512,1.78998 0.07032,2.44532 0.694224,0.657 1.78998,0.62551 2.445312,-0.0703 C 86.450204,95.093912 90.234248,75.616084 88.209596,55.117376 87.19724,44.868004 84.825476,35.299452 81.154888,28.13298 77.4843,20.966508 72.28484,15.966556 65.717388,16.000168 Z"
     sodipodi:nodetypes="cccsscccssc" />
  <path
     id="path109"
     style="color:#000000;opacity:0.8;fill:url(#linearGradient2416);fill-opacity:1;stroke:none;stroke-width:4;stroke-linecap:round;stroke-linejoin:round;-inkscape-stroke:none"
     d="m 28.811138,37.679854 a 1.7277259,1.7277259 0 0 0 -1.851564,1.593752 c -0.56138,7.845434 2.769272,16.562026 8.14844,25.062498 5.37917,8.500476 12.866938,16.799612 20.960934,23.671876 8.094004,6.872264 16.77434,12.31676 24.687504,15.03125 7.913156,2.71449 15.399536,2.7125 20.203118,-2.08594 a 1.7277259,1.7277259 0 0 0 0.008,-2.44531 1.7277259,1.7277259 0 0 0 -2.445314,0 c -3.52592,3.52214 -9.344164,3.76856 -16.640624,1.265624 C 74.584804,97.270668 66.151004,92.038292 58.303328,85.375168 50.455648,78.712044 43.176408,70.617372 38.029886,62.484544 32.883368,54.351712 29.927916,46.189348 30.404888,39.523606 a 1.7277259,1.7277259 0 0 0 -1.59375,-1.843752 z" />
  <path
     id="path113"
     style="color:#000000;opacity:0.8;fill:url(#linearGradient2106);fill-opacity:1;stroke:none;stroke-width:4;stroke-linecap:round;stroke-linejoin:round;-inkscape-stroke:none"
     d="M 90.740824,26.94548 C 88.733844,26.89976 86.606816,27.1456 84.428328,27.640792 77.45716,29.225406 69.599956,33.26426 61.904888,38.820482 46.514748,49.93292 31.745136,67.101892 27.4752,83.828292 a 1.7277259,1.7277259 0 0 0 1.249996,2.101564 1.7277259,1.7277259 0 0 0 2.101562,-1.249996 c 3.93056,-15.396964 18.24313,-32.33398 33.10157,-43.062504 7.42922,-5.364266 14.996388,-9.184318 21.26562,-10.609376 6.26924,-1.425056 10.89362,-0.557868 13.601564,3.007812 a 1.7277259,1.7277259 0 0 0 2.421878,0.328124 1.7277259,1.7277259 0 0 0 0.33592,-2.421876 c -1.858942,-2.4478 -4.398646,-3.913308 -7.343734,-4.57031 -1.104412,-0.246376 -2.26456,-0.37882 -3.468752,-0.40625 z" />
  <path
     id="path117"
     style="color:#000000;opacity:0.8;fill:url(#linearGradient2272);fill-opacity:1;stroke:none;stroke-width:4;stroke-linecap:round;stroke-linejoin:round;-inkscape-stroke:none"
     d="m 66.522072,42.742356 c -5.130204,0.004 -10.243572,0.36396 -15.14062,1.031248 -9.794092,1.334608 -18.713454,3.93552 -25.210938,7.734376 -6.497486,3.798856 -10.771471,9.098248 -10.101563,15.429688 a 1.7277259,1.7277259 0 0 0 1.898437,1.539064 1.7277259,1.7277259 0 0 0 1.539063,-1.89844 c -0.488923,-4.620908 2.514933,-8.641488 8.406249,-12.085936 5.891318,-3.444452 14.466496,-6.006296 23.937504,-7.296876 18.942004,-2.58116 41.493452,-0.012 53.835936,8.851564 a 1.7277259,1.7277259 0 0 0 2.40625,-0.39844 1.7277259,1.7277259 0 0 0 -0.39064,-2.406248 c -10.248682,-7.359844 -25.78905,-10.51212 -41.17969,-10.5 z" />
  <circle
     style="fill:#ffffff;fill-opacity:1;stroke-width:6;stroke-linecap:round;stroke-linejoin:round"
     id="path1585"
     cx="30"
     cy="86"
     r="6" />
  <circle
     style="fill:#ffffff;fill-opacity:1;stroke-width:4;stroke-linecap:round;stroke-linejoin:round"
     id="path1711"
     cx="30"
     cy="34"
     r="6" />
  <circle
     style="fill:#ffffff;fill-opacity:1;stroke-width:4;stroke-linecap:round;stroke-linejoin:round"
     id="path1815"
     cx="106"
     cy="54"
     r="6" />
  <circle
     style="fill:#ffffff;fill-opacity:1;stroke-width:4;stroke-linecap:round;stroke-linejoin:round"
     id="path1919"
     cx="74"
     cy="106"
     r="6" />
</svg>
