<?xml version="1.0" encoding="UTF-8" standalone="no"?>
<!-- Created with Inkscape (http://www.inkscape.org/) -->

<svg
   width="128"
   height="128"
   viewBox="0 0 128 128.00001"
   version="1.1"
   id="svg1"
   inkscape:version="1.4.2 (ebf0e940d0, 2025-05-08)"
   sodipodi:docname="preferences-desktop-keyboard-shortcuts.svg"
   xmlns:inkscape="http://www.inkscape.org/namespaces/inkscape"
   xmlns:sodipodi="http://sodipodi.sourceforge.net/DTD/sodipodi-0.dtd"
   xmlns:xlink="http://www.w3.org/1999/xlink"
   xmlns="http://www.w3.org/2000/svg"
   xmlns:svg="http://www.w3.org/2000/svg">
  <sodipodi:namedview
     id="namedview1"
     pagecolor="#ffffff"
     bordercolor="#000000"
     borderopacity="0.25"
     inkscape:showpageshadow="2"
     inkscape:pageopacity="0.0"
     inkscape:pagecheckerboard="0"
     inkscape:deskcolor="#d1d1d1"
     inkscape:document-units="px"
     inkscape:zoom="6.2109375"
     inkscape:cx="64"
     inkscape:cy="64"
     inkscape:window-width="1920"
     inkscape:window-height="1010"
     inkscape:window-x="0"
     inkscape:window-y="0"
     inkscape:window-maximized="1"
     inkscape:current-layer="svg1" />
  <defs
     id="defs1">
    <linearGradient
       inkscape:collect="always"
       xlink:href="#linearGradient22024"
       id="linearGradient4"
       x1="16"
       y1="30"
       x2="16"
       y2="2"
       gradientUnits="userSpaceOnUse"
       gradientTransform="scale(4)" />
    <linearGradient
       inkscape:collect="always"
       id="linearGradient22024">
      <stop
         style="stop-color:#cdcdcd;stop-opacity:1;"
         offset="0"
         id="stop22020" />
      <stop
         style="stop-color:#eff0f1;stop-opacity:1;"
         offset="1"
         id="stop22022" />
    </linearGradient>
  </defs>
  <rect
     style="opacity:0.2;fill:#000000;stroke-width:7"
     id="rect1"
     width="112"
     height="112"
     x="8"
     y="9"
     ry="24" />
  <rect
     style="fill:url(#linearGradient4);stroke-width:4"
     id="rect2"
     width="112"
     height="112"
     x="8"
     y="8"
     ry="24" />
  <path
     d="m 24,32 c -2.215998,0 -4,1.784004 -4,4 v 8 c 0,2.215996 1.784002,4 4,4 h 8 c 2.215996,0 4,-1.784004 4,-4 v -8 c 0,-2.215996 -1.784004,-4 -4,-4 z m 24,0 c -2.215996,0 -4,1.784004 -4,4 v 8 c 0,2.215996 1.784004,4 4,4 h 8 c 2.216,0 4,-1.784004 4,-4 v -8 c 0,-2.215996 -1.784,-4 -4,-4 z m 24,0 c -2.216,0 -4,1.784004 -4,4 v 8 c 0,2.215996 1.784,4 4,4 h 8 c 2.215996,0 4,-1.784004 4,-4 v -8 c 0,-2.215996 -1.784004,-4 -4,-4 z M 24,56 c -2.215998,0 -4,1.784 -4,4 v 8 c 0,2.215996 1.784002,4 4,4 h 8 c 2.215996,0 4,-1.784004 4,-4 v -8 c 0,-2.216 -1.784004,-4 -4,-4 z m 24,0 c -2.215996,0 -4,1.784 -4,4 v 8 c 0,2.215996 1.784004,4 4,4 h 8 c 2.216,0 4,-1.784004 4,-4 v -8 c 0,-2.216 -1.784,-4 -4,-4 z m 48,0 c -2.216,0 -4,1.784 -4,4 v 8 c 0,2.215996 1.784,4 4,4 h 8 c 2.216,0 4,-1.784004 4,-4 v -8 c 0,-2.216 -1.784,-4 -4,-4 z M 40,80 c -2.216,0 -4,1.784 -4,4 v 8 c 0,2.215996 1.784,4 4,4 h 48 c 2.215996,0 4,-1.784004 4,-4 v -8 c 0,-2.216 -1.784004,-4 -4,-4 z"
     style="fill:#a1a1a1;fill-opacity:1;stroke-width:4;stroke-linecap:round;stroke-linejoin:round"
     id="path1728"
     sodipodi:nodetypes="sssssssssssssssssssssssssssssssssssssssssssssssssssssssssssssss" />
  <path
     d="m 96,32 c -2.216,0 -4,1.784004 -4,4 v 8 c 0,2.215996 1.784,4 4,4 h 8 c 2.216,0 4,-1.784004 4,-4 v -8 c 0,-2.215996 -1.784,-4 -4,-4 z M 72,56 c -2.216,0 -4,1.784 -4,4 v 8 c 0,2.215996 1.784,4 4,4 h 8 c 2.215996,0 4,-1.784004 4,-4 v -8 c 0,-2.216 -1.784004,-4 -4,-4 z"
     style="fill:#d98d49;fill-opacity:1;stroke-width:4;stroke-linecap:round;stroke-linejoin:round"
     id="path23709" />
</svg>
