<?xml version="1.0" encoding="UTF-8" standalone="no"?>
<!-- Created with Inkscape (http://www.inkscape.org/) -->

<svg
   width="128"
   height="128"
   viewBox="0 0 128 128.00001"
   version="1.1"
   id="svg1"
   inkscape:version="1.4.2 (ebf0e940d0, 2025-05-08)"
   sodipodi:docname="sysprof.svg"
   xmlns:inkscape="http://www.inkscape.org/namespaces/inkscape"
   xmlns:sodipodi="http://sodipodi.sourceforge.net/DTD/sodipodi-0.dtd"
   xmlns:xlink="http://www.w3.org/1999/xlink"
   xmlns="http://www.w3.org/2000/svg"
   xmlns:svg="http://www.w3.org/2000/svg">
  <sodipodi:namedview
     id="namedview1"
     pagecolor="#ffffff"
     bordercolor="#000000"
     borderopacity="0.25"
     inkscape:showpageshadow="2"
     inkscape:pageopacity="0.0"
     inkscape:pagecheckerboard="0"
     inkscape:deskcolor="#d1d1d1"
     inkscape:document-units="px"
     inkscape:zoom="6.140625"
     inkscape:cx="63.918575"
     inkscape:cy="64"
     inkscape:window-width="1920"
     inkscape:window-height="1011"
     inkscape:window-x="0"
     inkscape:window-y="0"
     inkscape:window-maximized="1"
     inkscape:current-layer="svg1"
     showguides="true" />
  <defs
     id="defs1">
    <linearGradient
       inkscape:collect="always"
       xlink:href="#linearGradient2279"
       id="linearGradient4"
       x1="16"
       y1="30"
       x2="16"
       y2="2"
       gradientUnits="userSpaceOnUse"
       gradientTransform="scale(4)" />
    <linearGradient
       inkscape:collect="always"
       id="linearGradient2279">
      <stop
         style="stop-color:#838383;stop-opacity:1;"
         offset="0"
         id="stop2275" />
      <stop
         style="stop-color:#c2c2c2;stop-opacity:1;"
         offset="1"
         id="stop2277" />
    </linearGradient>
  </defs>
  <rect
     style="opacity:0.2;fill:#000000;stroke-width:7"
     id="rect1"
     width="112"
     height="112"
     x="8"
     y="9"
     ry="24" />
  <rect
     style="fill:url(#linearGradient4);stroke-width:4"
     id="rect2"
     width="112"
     height="112"
     x="8"
     y="8"
     ry="24" />
  <path
     id="path1468"
     style="opacity:0.6;fill:#ffffff;fill-opacity:1;stroke-width:8.46596;stroke-linecap:round;stroke-linejoin:round"
     d="m 64,26 a 38,38 0 0 0 -24.972656,9.371094 l -4.78125,-4.785156 c -0.783474,-0.783474 -2.044652,-0.783474 -2.828126,0 l -2.83203,2.832032 c -0.783474,0.783472 -0.783474,2.04465 0,2.828124 l 5.058594,5.058594 A 38,38 0 0 0 26,64 38,38 0 0 0 64,102 38,38 0 0 0 102,64 38,38 0 0 0 64,26 Z" />
  <circle
     style="opacity:0.6;fill:#ffffff;stroke-width:8;stroke-linecap:round;stroke-linejoin:round"
     id="path291"
     cx="64"
     cy="64"
     r="38" />
  <rect
     style="fill:#b3b3b3;fill-opacity:1;stroke-width:8;stroke-linecap:round;stroke-linejoin:round"
     id="rect451"
     width="8"
     height="36"
     x="83.856163"
     y="-7.8356371"
     ry="4"
     transform="rotate(30)" />
  <circle
     style="fill:#666666;fill-opacity:1;stroke-width:6;stroke-linecap:round;stroke-linejoin:round"
     id="path2027"
     cx="64"
     cy="64"
     r="6" />
</svg>
