<?xml version="1.0" encoding="UTF-8" standalone="no"?>
<!-- Created with Inkscape (http://www.inkscape.org/) -->

<svg
   width="128"
   height="128"
   viewBox="0 0 128 128.00001"
   version="1.1"
   id="svg1"
   inkscape:version="1.4.2 (ebf0e940d0, 2025-05-08)"
   sodipodi:docname="system-help.svg"
   xmlns:inkscape="http://www.inkscape.org/namespaces/inkscape"
   xmlns:sodipodi="http://sodipodi.sourceforge.net/DTD/sodipodi-0.dtd"
   xmlns:xlink="http://www.w3.org/1999/xlink"
   xmlns="http://www.w3.org/2000/svg"
   xmlns:svg="http://www.w3.org/2000/svg">
  <sodipodi:namedview
     id="namedview1"
     pagecolor="#ffffff"
     bordercolor="#000000"
     borderopacity="0.25"
     inkscape:showpageshadow="2"
     inkscape:pageopacity="0.0"
     inkscape:pagecheckerboard="0"
     inkscape:deskcolor="#d1d1d1"
     inkscape:document-units="px"
     inkscape:zoom="6.2109375"
     inkscape:cx="64"
     inkscape:cy="64"
     inkscape:window-width="1920"
     inkscape:window-height="1010"
     inkscape:window-x="0"
     inkscape:window-y="0"
     inkscape:window-maximized="1"
     inkscape:current-layer="svg1" />
  <defs
     id="defs1">
    <linearGradient
       inkscape:collect="always"
       xlink:href="#linearGradient1625"
       id="linearGradient4"
       x1="16"
       y1="30"
       x2="16"
       y2="2"
       gradientUnits="userSpaceOnUse"
       gradientTransform="scale(4)" />
    <linearGradient
       inkscape:collect="always"
       id="linearGradient1625">
      <stop
         style="stop-color:#13a5c5;stop-opacity:1;"
         offset="0"
         id="stop1621" />
      <stop
         style="stop-color:#b1f6cb;stop-opacity:1;"
         offset="1"
         id="stop1623" />
    </linearGradient>
  </defs>
  <rect
     style="opacity:0.2;fill:#000000;stroke-width:7"
     id="rect1"
     width="112"
     height="112"
     x="8"
     y="9"
     ry="24" />
  <rect
     style="fill:url(#linearGradient4);stroke-width:4"
     id="rect2"
     width="112"
     height="112"
     x="8"
     y="8"
     ry="24" />
  <path
     id="path345"
     style="fill:#ffffff;stroke-width:8;stroke-linecap:round;stroke-linejoin:round"
     d="M 64,24 A 40,40 0 0 0 24,64 40,40 0 0 0 64,104 40,40 0 0 0 104,64 40,40 0 0 0 64,24 Z m -15.781248,7.640624 9.929684,13.242188 c -3.034112,0.925172 -5.88956,2.577064 -8.28906,4.976564 -2.3995,2.3995 -4.051392,5.254948 -4.976564,8.28906 L 31.640624,48.218752 c 1.704072,-3.49368 4.003548,-6.769176 6.906252,-9.671876 2.9027,-2.902704 6.178196,-5.20218 9.671876,-6.906252 z m 31.562496,0 c 3.49368,1.704072 6.769176,4.003548 9.671876,6.906252 2.902704,2.9027 5.20218,6.178196 6.906252,9.671876 l -13.242188,9.929684 c -0.925172,-3.034112 -2.577064,-5.88956 -4.976564,-8.28906 -2.3995,-2.3995 -5.254948,-4.051392 -8.28906,-4.976564 z M 64,48 c 8.83654,0 16,7.16346 16,16 0,8.83654 -7.16346,16 -16,16 C 55.16346,80 48,72.83654 48,64 48,55.16346 55.16346,48 64,48 Z M 44.882812,69.851564 c 0.925172,3.034112 2.577064,5.88956 4.976564,8.28906 2.3995,2.3995 5.254948,4.051392 8.28906,4.976564 L 48.218752,96.359376 C 44.725072,94.6553 41.449576,92.355828 38.546876,89.453124 35.644172,86.550424 33.3447,83.274928 31.640624,79.781248 Z m 38.234376,0 13.242188,9.929684 c -1.704076,3.49368 -4.003548,6.769176 -6.906252,9.671876 -2.9027,2.902704 -6.178196,5.202176 -9.671876,6.906252 L 69.851564,83.117188 c 3.034112,-0.925172 5.88956,-2.577064 8.28906,-4.976564 2.3995,-2.3995 4.051392,-5.254948 4.976564,-8.28906 z" />
</svg>
