<?xml version="1.0" encoding="UTF-8" standalone="no"?>
<!-- Created with Inkscape (http://www.inkscape.org/) -->

<svg
   width="128"
   height="128"
   viewBox="0 0 128 128.00001"
   version="1.1"
   id="svg1"
   inkscape:version="1.4.2 (ebf0e940d0, 2025-05-08)"
   sodipodi:docname="telegram.svg"
   xmlns:inkscape="http://www.inkscape.org/namespaces/inkscape"
   xmlns:sodipodi="http://sodipodi.sourceforge.net/DTD/sodipodi-0.dtd"
   xmlns:xlink="http://www.w3.org/1999/xlink"
   xmlns="http://www.w3.org/2000/svg"
   xmlns:svg="http://www.w3.org/2000/svg">
  <sodipodi:namedview
     id="namedview1"
     pagecolor="#ffffff"
     bordercolor="#000000"
     borderopacity="0.25"
     inkscape:showpageshadow="2"
     inkscape:pageopacity="0.0"
     inkscape:pagecheckerboard="0"
     inkscape:deskcolor="#d1d1d1"
     inkscape:document-units="px"
     inkscape:zoom="6.03125"
     inkscape:cx="63.917098"
     inkscape:cy="64"
     inkscape:window-width="1920"
     inkscape:window-height="997"
     inkscape:window-x="0"
     inkscape:window-y="0"
     inkscape:window-maximized="1"
     inkscape:current-layer="svg1" />
  <defs
     id="defs1">
    <linearGradient
       inkscape:collect="always"
       xlink:href="#linearGradient1595"
       id="linearGradient4"
       x1="16"
       y1="30"
       x2="16"
       y2="2"
       gradientUnits="userSpaceOnUse"
       gradientTransform="scale(4)" />
    <linearGradient
       inkscape:collect="always"
       id="linearGradient1595">
      <stop
         style="stop-color:#1d9ad8;stop-opacity:1"
         offset="0"
         id="stop1591" />
      <stop
         style="stop-color:#3cacde;stop-opacity:1"
         offset="1"
         id="stop1593" />
    </linearGradient>
  </defs>
  <rect
     style="opacity:0.2;fill:#000000;stroke-width:7"
     id="rect1"
     width="112"
     height="112"
     x="8"
     y="9"
     ry="24" />
  <rect
     style="fill:url(#linearGradient4);stroke-width:4"
     id="rect2"
     width="112"
     height="112"
     x="8"
     y="8"
     ry="24" />
  <path
     id="path10"
     style="fill:#ffffff;stroke-width:4.2604"
     d="m 96.027164,34.66927 c -1.589036,0.04564 -3.469184,0.683336 -5.294028,1.297408 -11.939084,4.031948 -49.68918,20.372824 -60.021,25.764184 -2.543268,1.054264 -3.637524,2.847356 -1.786732,4.394476 1.593344,1.31142 7.424252,3.117416 12.12662,4.034548 4.008628,1.21284 7.116748,0.05056 9.99246,-1.573644 6.907656,-4.092804 27.490612,-17.117192 28.59602,-17.845752 1.109616,-0.724276 2.322348,0.620876 1.704,1.2723 -0.618332,0.655704 -15.190876,13.7271 -19.976668,19.637028 -2.536892,3.248528 -2.46404,4.982612 0.14088,7.031164 5.844604,4.581372 21.456632,15.031096 23.781764,15.661088 2.960416,0.805684 4.698108,0.1362 5.9475,-2.285128 1.139064,-2.21568 7.699628,-40.05338 8.635612,-49.837548 0.635338,-6.057512 -1.197964,-7.626172 -3.846416,-7.550124 z" />
</svg>
