<?xml version="1.0" encoding="UTF-8" standalone="no"?>
<!-- Created with Inkscape (http://www.inkscape.org/) -->

<svg
   width="128"
   height="128"
   viewBox="0 0 128 128.00001"
   version="1.1"
   id="svg1"
   inkscape:version="1.4.2 (ebf0e940d0, 2025-05-08)"
   sodipodi:docname="utilities-log-viewer.svg"
   xmlns:inkscape="http://www.inkscape.org/namespaces/inkscape"
   xmlns:sodipodi="http://sodipodi.sourceforge.net/DTD/sodipodi-0.dtd"
   xmlns:xlink="http://www.w3.org/1999/xlink"
   xmlns="http://www.w3.org/2000/svg"
   xmlns:svg="http://www.w3.org/2000/svg">
  <sodipodi:namedview
     id="namedview1"
     pagecolor="#ffffff"
     bordercolor="#000000"
     borderopacity="0.25"
     inkscape:showpageshadow="2"
     inkscape:pageopacity="0.0"
     inkscape:pagecheckerboard="0"
     inkscape:deskcolor="#d1d1d1"
     inkscape:document-units="px"
     inkscape:zoom="6.140625"
     inkscape:cx="63.918575"
     inkscape:cy="64"
     inkscape:window-width="1920"
     inkscape:window-height="1011"
     inkscape:window-x="0"
     inkscape:window-y="0"
     inkscape:window-maximized="1"
     inkscape:current-layer="svg1" />
  <defs
     id="defs1">
    <linearGradient
       inkscape:collect="always"
       xlink:href="#linearGradient1217"
       id="linearGradient4"
       x1="16"
       y1="30"
       x2="16"
       y2="2"
       gradientUnits="userSpaceOnUse"
       gradientTransform="scale(4)" />
    <linearGradient
       inkscape:collect="always"
       id="linearGradient1217">
      <stop
         style="stop-color:#96a3ad;stop-opacity:1;"
         offset="0"
         id="stop1213" />
      <stop
         style="stop-color:#c4c8cd;stop-opacity:1;"
         offset="1"
         id="stop1215" />
    </linearGradient>
  </defs>
  <rect
     style="opacity:0.2;fill:#000000;stroke-width:7"
     id="rect1"
     width="112"
     height="112"
     x="8"
     y="9"
     ry="24" />
  <rect
     style="fill:url(#linearGradient4);stroke-width:4"
     id="rect2"
     width="112"
     height="112"
     x="8"
     y="8"
     ry="24" />
  <path
     id="rect291"
     style="opacity:0.5;fill:#ffffff;stroke-width:4;stroke-linecap:round"
     d="m 26,34 c -1.107998,0 -2,0.892002 -2,2 0,1.107998 0.892002,2 2,2 h 76 c 1.108,0 2,-0.892002 2,-2 0,-1.107998 -0.892,-2 -2,-2 z m 0,16 c -1.107998,0 -2,0.892 -2,2 0,1.108 0.892002,2 2,2 h 76 c 1.108,0 2,-0.892 2,-2 0,-1.108 -0.892,-2 -2,-2 z m 0,16 c -1.107994,0 -2,0.892 -2,2 0,1.108 0.892006,2 2,2 h 76 c 1.108,0 2,-0.892 2,-2 0,-1.108 -0.892,-2 -2,-2 z m 0,16 c -1.107994,0 -2,0.892 -2,2 0,1.108 0.892006,2 2,2 h 36 c 1.108,0 2,-0.892 2,-2 0,-1.108 -0.892,-2 -2,-2 z"
     sodipodi:nodetypes="ssssssssssssssssssssssssssss" />
  <path
     id="path557"
     style="fill:#ffffff;fill-opacity:1;stroke-width:4.4;stroke-linecap:round"
     d="M 68,44 A 22,22 0 0 0 46,66 22,22 0 0 0 68,88 22,22 0 0 0 82.078124,82.90625 l 15.621094,15.621094 c 0.783474,0.783474 2.044652,0.783474 2.828122,0 0.78348,-0.783474 0.78348,-2.044652 0,-2.828126 L 84.90625,80.078124 A 22,22 0 0 0 90,66 22,22 0 0 0 68,44 Z m 0,4 A 18,18 0 0 1 86,66 18,18 0 0 1 80.726562,78.726562 18,18 0 0 1 68,84 18,18 0 0 1 50,66 18,18 0 0 1 68,48 Z" />
</svg>
