<?xml version="1.0" encoding="UTF-8" standalone="no"?>
<!-- Created with Inkscape (http://www.inkscape.org/) -->

<svg
   width="128"
   height="128"
   viewBox="0 0 128 128.00001"
   version="1.1"
   id="svg1"
   inkscape:version="1.4.2 (ebf0e940d0, 2025-05-08)"
   sodipodi:docname="utilities-system-monitor.svg"
   xmlns:inkscape="http://www.inkscape.org/namespaces/inkscape"
   xmlns:sodipodi="http://sodipodi.sourceforge.net/DTD/sodipodi-0.dtd"
   xmlns:xlink="http://www.w3.org/1999/xlink"
   xmlns="http://www.w3.org/2000/svg"
   xmlns:svg="http://www.w3.org/2000/svg">
  <sodipodi:namedview
     id="namedview1"
     pagecolor="#ffffff"
     bordercolor="#000000"
     borderopacity="0.25"
     inkscape:showpageshadow="2"
     inkscape:pageopacity="0.0"
     inkscape:pagecheckerboard="0"
     inkscape:deskcolor="#d1d1d1"
     inkscape:document-units="px"
     inkscape:zoom="6.2109375"
     inkscape:cx="64"
     inkscape:cy="64"
     inkscape:window-width="1920"
     inkscape:window-height="1010"
     inkscape:window-x="0"
     inkscape:window-y="0"
     inkscape:window-maximized="1"
     inkscape:current-layer="svg1" />
  <defs
     id="defs1">
    <linearGradient
       inkscape:collect="always"
       xlink:href="#4852"
       id="linearGradient4"
       x1="16"
       y1="30"
       x2="16"
       y2="2"
       gradientUnits="userSpaceOnUse"
       gradientTransform="scale(4)" />
    <linearGradient
       inkscape:collect="always"
       id="4852">
      <stop
         style="stop-color:#272727;stop-opacity:1;"
         offset="0"
         id="stop14555" />
      <stop
         style="stop-color:#5d5d5d;stop-opacity:1;"
         offset="1"
         id="stop14557" />
    </linearGradient>
    <linearGradient
       inkscape:collect="always"
       xlink:href="#linearGradient7414"
       id="linearGradient7416"
       x1="14"
       y1="46"
       x2="14"
       y2="18"
       gradientUnits="userSpaceOnUse"
       gradientTransform="matrix(4,0,0,4,8,-64)" />
    <linearGradient
       inkscape:collect="always"
       id="linearGradient7414">
      <stop
         style="stop-color:#58dc93;stop-opacity:1;"
         offset="0"
         id="stop7410" />
      <stop
         style="stop-color:#a1e16b;stop-opacity:1;"
         offset="1"
         id="stop7412" />
    </linearGradient>
  </defs>
  <rect
     style="opacity:0.2;fill:#000000;stroke-width:7"
     id="rect1"
     width="112"
     height="112"
     x="8"
     y="9"
     ry="24" />
  <rect
     style="fill:url(#linearGradient4);stroke-width:4"
     id="rect2"
     width="112"
     height="104"
     x="8"
     y="8"
     ry="24" />
  <path
     id="rect7384"
     style="fill:url(#linearGradient7416);fill-opacity:1;stroke-width:9.46572;stroke-linecap:round;stroke-linejoin:round"
     d="M 36,40 C 21.846286,40 8,58.559152 8,68 v 8 20 c 0,13.296 10.704,24 24,24 h 64 c 13.06841,0 23.63435,-10.34146 23.99219,-23.320312 -0.007,-8.792028 -0.0226,-16.7144 -0.0469,-16.742188 C 116.54458,76.110796 109.88023,67.929024 100,68 92.142568,68.05644 84.000304,75.94316 76,76 68.000008,76.05684 64.07002,70.580712 60,64 54.114164,53.164736 47.999988,40 36,40 Z" />
  <path
     id="rect10286"
     style="fill:#ebfae7;stroke-width:4;stroke-linecap:round;stroke-linejoin:round"
     d="m 28,32 v 6 h 2 v -4 h 4 v -2 z m 12,0 v 2 h 4 v 4 h 2 V 32 Z M 28,44 v 6 h 6 v -2 h -4 v -4 z m 16,0 v 4 h -4 v 2 h 6 v -6 z m 48,16 v 6 h 2 v -4 h 4 v -2 z m 12,0 v 2 h 4 v 4 h 2 V 60 Z M 92,72 v 6 h 6 v -2 h -4 v -4 z m 16,0 v 4 h -4 v 2 h 6 v -6 z" />
</svg>
