<?xml version="1.0" encoding="UTF-8" standalone="no"?>
<!-- Created with Inkscape (http://www.inkscape.org/) -->

<svg
   width="128"
   height="128"
   viewBox="0 0 128 128.00001"
   version="1.1"
   id="svg1"
   inkscape:version="1.4.2 (ebf0e940d0, 2025-05-08)"
   sodipodi:docname="virt-manager.svg"
   xmlns:inkscape="http://www.inkscape.org/namespaces/inkscape"
   xmlns:sodipodi="http://sodipodi.sourceforge.net/DTD/sodipodi-0.dtd"
   xmlns:xlink="http://www.w3.org/1999/xlink"
   xmlns="http://www.w3.org/2000/svg"
   xmlns:svg="http://www.w3.org/2000/svg">
  <sodipodi:namedview
     id="namedview1"
     pagecolor="#ffffff"
     bordercolor="#000000"
     borderopacity="0.25"
     inkscape:showpageshadow="2"
     inkscape:pageopacity="0.0"
     inkscape:pagecheckerboard="0"
     inkscape:deskcolor="#d1d1d1"
     inkscape:document-units="px"
     inkscape:zoom="6.3125"
     inkscape:cx="63.920792"
     inkscape:cy="64"
     inkscape:window-width="1920"
     inkscape:window-height="1011"
     inkscape:window-x="0"
     inkscape:window-y="0"
     inkscape:window-maximized="1"
     inkscape:current-layer="svg1" />
  <defs
     id="defs1">
    <linearGradient
       inkscape:collect="always"
       id="linearGradient1606">
      <stop
         style="stop-color:#eaebed;stop-opacity:1;"
         offset="0"
         id="stop1602" />
      <stop
         style="stop-color:#f9fafa;stop-opacity:1;"
         offset="1"
         id="stop1604" />
    </linearGradient>
    <linearGradient
       inkscape:collect="always"
       xlink:href="#linearGradient1606"
       id="linearGradient4"
       x1="16"
       y1="30"
       x2="16"
       y2="2"
       gradientUnits="userSpaceOnUse"
       gradientTransform="scale(4)" />
  </defs>
  <rect
     style="opacity:0.2;fill:#000000;stroke-width:7"
     id="rect1"
     width="112"
     height="112"
     x="8"
     y="9"
     ry="24" />
  <rect
     style="fill:url(#linearGradient4);stroke-width:4"
     id="rect2"
     width="112"
     height="112"
     x="8"
     y="8"
     ry="24" />
  <path
     style="fill:#464646;stroke-width:4"
     d="M 75.2,80 88,48 h 9.6 l 12.8,32 h -9.6 L 92.798704,60.8 84.8,80 h -9.599356 z"
     id="path3" />
  <path
     style="fill:#909198;stroke-width:4"
     d="M 65.6,80 78.4,48 H 88 l 12.8,32 H 91.2 L 83.198704,60.8 75.2,80 h -9.599356 z"
     id="path5" />
  <path
     style="fill:#464646;stroke-width:4"
     d="M 49.6,80 62.4,48 H 72 L 84.8,80 H 75.2 L 67.198704,60.8 59.2,80 h -9.599356 z"
     id="path7" />
  <path
     style="fill:#909198;stroke-width:4"
     d="M 40,80 52.8,48 h 9.6 L 75.2,80 H 65.6 L 57.598704,60.8 49.6,80 h -9.599356 z"
     id="path9" />
  <path
     style="fill:#a53655;stroke-width:4"
     d="M 17.6,48 30.4,80 H 40 L 52.8,48 H 43.2 L 35.198704,67.2 27.2,48 h -9.599354 z"
     id="path11" />
</svg>
