<?xml version="1.0" encoding="UTF-8" standalone="no"?>
<!-- Created with Inkscape (http://www.inkscape.org/) -->

<svg
   width="128"
   height="128"
   viewBox="0 0 128 128.00001"
   version="1.1"
   id="svg1"
   inkscape:version="1.4 (e7c3feb100, 2024-10-09)"
   sodipodi:docname="xorg.svg"
   xmlns:inkscape="http://www.inkscape.org/namespaces/inkscape"
   xmlns:sodipodi="http://sodipodi.sourceforge.net/DTD/sodipodi-0.dtd"
   xmlns:xlink="http://www.w3.org/1999/xlink"
   xmlns="http://www.w3.org/2000/svg"
   xmlns:svg="http://www.w3.org/2000/svg">
  <sodipodi:namedview
     id="namedview1"
     pagecolor="#ffffff"
     bordercolor="#000000"
     borderopacity="0.25"
     inkscape:showpageshadow="2"
     inkscape:pageopacity="0.0"
     inkscape:pagecheckerboard="0"
     inkscape:deskcolor="#d1d1d1"
     inkscape:document-units="px"
     inkscape:zoom="6.140625"
     inkscape:cx="64.081425"
     inkscape:cy="64"
     inkscape:window-width="1920"
     inkscape:window-height="1011"
     inkscape:window-x="0"
     inkscape:window-y="0"
     inkscape:window-maximized="1"
     inkscape:current-layer="svg1" />
  <defs
     id="defs1">
    <linearGradient
       inkscape:collect="always"
       xlink:href="#linearGradient1144"
       id="linearGradient4"
       x1="16"
       y1="30"
       x2="16"
       y2="2"
       gradientUnits="userSpaceOnUse"
       gradientTransform="scale(3.9999999)" />
    <linearGradient
       inkscape:collect="always"
       xlink:href="#linearGradient3678"
       id="linearGradient3680"
       x1="11.2"
       y1="21.507999"
       x2="52.799999"
       y2="48.809299"
       gradientUnits="userSpaceOnUse"
       gradientTransform="matrix(2.1153845,0,0,2.1153845,-3.692308,-5.4976923)" />
    <linearGradient
       inkscape:collect="always"
       id="linearGradient3678">
      <stop
         style="stop-color:#ec6e28;stop-opacity:1;"
         offset="0"
         id="stop3674" />
      <stop
         style="stop-color:#f3bf21;stop-opacity:1;"
         offset="1"
         id="stop3676" />
    </linearGradient>
    <linearGradient
       inkscape:collect="always"
       id="linearGradient1144">
      <stop
         style="stop-color:#adb2b9;stop-opacity:1;"
         offset="0"
         id="stop1140" />
      <stop
         style="stop-color:#e0e2e4;stop-opacity:1;"
         offset="1"
         id="stop1142" />
    </linearGradient>
  </defs>
  <rect
     style="opacity:0.2;fill:#000000;stroke-width:7"
     id="rect1"
     width="112"
     height="112"
     x="8"
     y="9"
     ry="24" />
  <rect
     style="fill:url(#linearGradient4);stroke-width:4"
     id="rect2"
     width="112"
     height="112"
     x="8"
     y="8"
     ry="24" />
  <path
     id="rect2346"
     style="fill:#373a3d;fill-opacity:1;stroke-width:6.53196"
     d="M 28,28 56,66.773436 32,100 h 4 L 58,69.539064 68,55.695312 48,28 Z M 92,28 60,72.304688 80,100 h 20 L 72,61.226564 96,28 Z" />
  <path
     id="path3649"
     style="fill:url(#linearGradient3680);fill-opacity:1;stroke-width:2.11537"
     d="m 64,40 c -2.147744,0 -4.442568,0.16412 -6.507812,0.35936 3.679496,4.740996 6.727692,8.758068 10.242188,13.320312 -1.971752,-4.19374 -6.024752,-8.221064 -4.625,-10.289064 1.388744,-2.045996 3.945376,-1.703124 4.140624,-1.703124 4.097496,0 8.046632,0.46044 11.734376,1.304688 l 0.859376,-1.171876 C 74.924008,40.569076 69.588,40 64,40 Z m 22.195312,3.828124 -0.796876,1.125 c 11.362992,4.397248 19.046874,12.78676 19.046874,22.406252 0,14.170736 -16.66383,25.671872 -37.19531,25.671872 -20.53148,0 -37.203125,-11.493328 -37.203125,-25.66406 0,-7.127264 4.226521,-13.58054 11.031249,-18.234376 L 38.640624,45.1875 C 27.3684,50.428448 20,59.057864 20,68.820312 20,84.795044 39.712024,97.75 64,97.75 c 24.285228,0 44,-12.9577 44,-28.929688 0,-10.653488 -8.761448,-19.967944 -21.804688,-24.992188 z" />
</svg>
