<?xml version="1.0" encoding="UTF-8" standalone="no"?>
<!-- Created with Inkscape (http://www.inkscape.org/) -->

<svg
   width="128"
   height="128"
   viewBox="0 0 128 128.00001"
   version="1.1"
   id="svg1"
   inkscape:version="1.4.2 (ebf0e940d0, 2025-05-08)"
   sodipodi:docname="yast-sw_single.svg"
   xmlns:inkscape="http://www.inkscape.org/namespaces/inkscape"
   xmlns:sodipodi="http://sodipodi.sourceforge.net/DTD/sodipodi-0.dtd"
   xmlns:xlink="http://www.w3.org/1999/xlink"
   xmlns="http://www.w3.org/2000/svg"
   xmlns:svg="http://www.w3.org/2000/svg">
  <sodipodi:namedview
     id="namedview1"
     pagecolor="#ffffff"
     bordercolor="#000000"
     borderopacity="0.25"
     inkscape:showpageshadow="2"
     inkscape:pageopacity="0.0"
     inkscape:pagecheckerboard="0"
     inkscape:deskcolor="#d1d1d1"
     inkscape:document-units="px"
     inkscape:zoom="6.21875"
     inkscape:cx="63.919598"
     inkscape:cy="64"
     inkscape:window-width="1920"
     inkscape:window-height="1011"
     inkscape:window-x="0"
     inkscape:window-y="0"
     inkscape:window-maximized="1"
     inkscape:current-layer="svg1" />
  <defs
     id="defs1">
    <linearGradient
       inkscape:collect="always"
       xlink:href="#linearGradient920"
       id="linearGradient4"
       x1="16"
       y1="30"
       x2="16"
       y2="2"
       gradientUnits="userSpaceOnUse"
       gradientTransform="scale(4)" />
    <linearGradient
       inkscape:collect="always"
       id="linearGradient920">
      <stop
         style="stop-color:#82bf39;stop-opacity:1;"
         offset="0"
         id="stop916" />
      <stop
         style="stop-color:#bada82;stop-opacity:1;"
         offset="1"
         id="stop918" />
    </linearGradient>
  </defs>
  <rect
     style="opacity:0.2;fill:#000000;stroke-width:7"
     id="rect1"
     width="112"
     height="112"
     x="8"
     y="9"
     ry="24" />
  <rect
     style="fill:url(#linearGradient4);stroke-width:4"
     id="rect2"
     width="112"
     height="112"
     x="8"
     y="8"
     ry="24" />
  <path
     style="color:#000000;fill:#ececec;stroke:none;stroke-width:4;stroke-linecap:round;stroke-linejoin:round;-inkscape-stroke:none"
     d="M 64,40 C 52.978004,40 44,31.021994 44,20 a 2,2 0 0 1 2,-2 2,2 0 0 1 2,2 c 0,8.860236 7.139764,16 16,16 8.860236,0 16,-7.139764 16,-16 a 2,2 0 0 1 2,-2 2,2 0 0 1 2,2 c 0,11.021994 -8.978004,20 -20,20 z"
     id="path6892" />
  <path
     id="rect7044"
     style="fill:#ffffff;stroke-width:2"
     d="m 64.000042,54 c -1.107998,0 -2,0.892002 -2,2 V 97.171876 L 48.92973,84.097656 c -0.783474,-0.783472 -2.044656,-0.783472 -2.828126,0 -0.783472,0.783474 -0.783474,2.04856 0,2.832032 L 62.58598,103.41406 c 0.783474,0.78348 2.04465,0.78348 2.828124,0 L 81.89848,86.929688 c 0.783472,-0.783472 0.783472,-2.048558 0,-2.832032 -0.78347,-0.783468 -2.044652,-0.783472 -2.828126,0 L 66.000042,97.171876 V 56 c 0,-1.107998 -0.892002,-2 -2,-2 z"
     sodipodi:nodetypes="ssccssssssccss" />
</svg>
