<?xml version="1.0" encoding="UTF-8" standalone="no"?>
<!-- Created with Inkscape (http://www.inkscape.org/) -->

<svg
   width="128"
   height="128"
   viewBox="0 0 128 128.00001"
   version="1.1"
   id="svg1"
   inkscape:version="1.4 (e7c3feb100, 2024-10-09)"
   sodipodi:docname="youtube-music.svg"
   xmlns:inkscape="http://www.inkscape.org/namespaces/inkscape"
   xmlns:sodipodi="http://sodipodi.sourceforge.net/DTD/sodipodi-0.dtd"
   xmlns="http://www.w3.org/2000/svg"
   xmlns:svg="http://www.w3.org/2000/svg">
  <sodipodi:namedview
     id="namedview1"
     pagecolor="#ffffff"
     bordercolor="#000000"
     borderopacity="0.25"
     inkscape:showpageshadow="2"
     inkscape:pageopacity="0.0"
     inkscape:pagecheckerboard="0"
     inkscape:deskcolor="#d1d1d1"
     inkscape:document-units="px"
     inkscape:zoom="6.3125"
     inkscape:cx="64.079208"
     inkscape:cy="64"
     inkscape:window-width="1920"
     inkscape:window-height="1011"
     inkscape:window-x="0"
     inkscape:window-y="0"
     inkscape:window-maximized="1"
     inkscape:current-layer="svg1" />
  <defs
     id="defs1" />
  <rect
     style="opacity:0.2;fill:#000000;stroke-width:7"
     id="rect1"
     width="112"
     height="112"
     x="8"
     y="9"
     ry="24" />
  <rect
     style="fill:#fafafa;fill-opacity:1;stroke-width:4"
     id="rect2"
     width="112"
     height="112"
     x="8"
     y="8"
     ry="24" />
  <circle
     style="fill:#ff0000;fill-opacity:1;stroke-width:5;stroke-linecap:round"
     id="path233"
     cx="64"
     cy="64"
     r="40" />
  <path
     d="M 56,51.999996 76,63.999916 56,76 Z"
     style="fill:#ffffff;stroke-width:0.594572"
     id="path301" />
  <path
     id="path288"
     style="fill:#ffffff;stroke-width:4.66668;stroke-linecap:round"
     d="M 64,36 A 28,28 0 0 0 36,64 28,28 0 0 0 64,92 28,28 0 0 0 92,64 28,28 0 0 0 64,36 Z m 0,4 A 24,24 0 0 1 88,64 24,24 0 0 1 64,88 24,24 0 0 1 40,64 24,24 0 0 1 64,40 Z" />
</svg>
