<?xml version="1.0" encoding="UTF-8" standalone="no"?>
<!-- Created with Inkscape (http://www.inkscape.org/) -->

<svg
   width="24"
   height="24"
   viewBox="0 0 24 24.000002"
   version="1.1"
   id="svg1"
   inkscape:version="1.4.2 (ebf0e940d0, 2025-05-08)"
   sodipodi:docname="akregator.svg"
   xmlns:inkscape="http://www.inkscape.org/namespaces/inkscape"
   xmlns:sodipodi="http://sodipodi.sourceforge.net/DTD/sodipodi-0.dtd"
   xmlns:xlink="http://www.w3.org/1999/xlink"
   xmlns="http://www.w3.org/2000/svg"
   xmlns:svg="http://www.w3.org/2000/svg">
  <sodipodi:namedview
     id="namedview1"
     pagecolor="#ffffff"
     bordercolor="#000000"
     borderopacity="0.25"
     inkscape:showpageshadow="2"
     inkscape:pageopacity="0.0"
     inkscape:pagecheckerboard="0"
     inkscape:deskcolor="#d1d1d1"
     inkscape:document-units="px"
     inkscape:zoom="33.166667"
     inkscape:cx="11.984925"
     inkscape:cy="12"
     inkscape:window-width="1920"
     inkscape:window-height="1011"
     inkscape:window-x="0"
     inkscape:window-y="0"
     inkscape:window-maximized="1"
     inkscape:current-layer="svg1" />
  <defs
     id="defs1">
    <linearGradient
       inkscape:collect="always"
       xlink:href="#linearGradient1428"
       id="linearGradient4"
       x1="16"
       y1="30"
       x2="16"
       y2="2"
       gradientUnits="userSpaceOnUse"
       gradientTransform="matrix(0.71428571,0,0,0.71428571,0.5714286,0.5714286)" />
    <linearGradient
       inkscape:collect="always"
       id="linearGradient1428">
      <stop
         style="stop-color:#ffbb75;stop-opacity:1;"
         offset="0"
         id="stop1424" />
      <stop
         style="stop-color:#f68200;stop-opacity:1;"
         offset="1"
         id="stop1426" />
    </linearGradient>
  </defs>
  <rect
     style="opacity:0.2;fill:#000000;stroke-width:1.75"
     id="rect1"
     width="20"
     height="20"
     x="2"
     y="2.5"
     ry="4" />
  <rect
     style="fill:url(#linearGradient4);stroke-width:0.714286"
     id="rect2"
     width="20"
     height="20"
     x="2"
     y="2"
     ry="4" />
  <path
     id="path2779"
     style="color:#000000;fill:#ffffff;stroke:none;stroke-linecap:round"
     d="M 7,5 A 1,1 0 0 0 6,6 1,1 0 0 0 7,7 c 5.534681,0 10,4.465319 10,10 a 1,1 0 0 0 1,1 1,1 0 0 0 1,-1 C 19,10.384441 13.615559,5 7,5 Z m 0,5 a 1,1 0 0 0 -1,1 1,1 0 0 0 1,1 c 2.7732628,0 5,2.226737 5,5 a 1,1 0 0 0 1,1 1,1 0 0 0 1,-1 c 0,-3.854141 -3.145859,-7 -7,-7 z m 0,5 a 2,2 0 0 0 -2,2 2,2 0 0 0 2,2 2,2 0 0 0 2,-2 2,2 0 0 0 -2,-2 z" />
</svg>
