<?xml version="1.0" encoding="UTF-8" standalone="no"?>
<!-- Created with Inkscape (http://www.inkscape.org/) -->

<svg
   width="24"
   height="24"
   viewBox="0 0 24 24.000002"
   version="1.1"
   id="svg1"
   inkscape:version="1.4 (e7c3feb100, 2024-10-09)"
   sodipodi:docname="applications-all.svg"
   xmlns:inkscape="http://www.inkscape.org/namespaces/inkscape"
   xmlns:sodipodi="http://sodipodi.sourceforge.net/DTD/sodipodi-0.dtd"
   xmlns:xlink="http://www.w3.org/1999/xlink"
   xmlns="http://www.w3.org/2000/svg"
   xmlns:svg="http://www.w3.org/2000/svg">
  <sodipodi:namedview
     id="namedview1"
     pagecolor="#ffffff"
     bordercolor="#000000"
     borderopacity="0.25"
     inkscape:showpageshadow="2"
     inkscape:pageopacity="0.0"
     inkscape:pagecheckerboard="0"
     inkscape:deskcolor="#d1d1d1"
     inkscape:document-units="px"
     inkscape:zoom="33.666667"
     inkscape:cx="11.985149"
     inkscape:cy="12"
     inkscape:window-width="1920"
     inkscape:window-height="1011"
     inkscape:window-x="0"
     inkscape:window-y="0"
     inkscape:window-maximized="1"
     inkscape:current-layer="svg1" />
  <defs
     id="defs1">
    <linearGradient
       inkscape:collect="always"
       xlink:href="#linearGradient3147"
       id="linearGradient4"
       x1="16"
       y1="30"
       x2="16"
       y2="2"
       gradientUnits="userSpaceOnUse"
       gradientTransform="matrix(0.71428571,0,0,0.71428571,0.57142857,0.57142857)" />
    <linearGradient
       inkscape:collect="always"
       id="linearGradient3147">
      <stop
         style="stop-color:#0091f9;stop-opacity:1;"
         offset="0"
         id="stop3143" />
      <stop
         style="stop-color:#41bbff;stop-opacity:1;"
         offset="1"
         id="stop3145" />
    </linearGradient>
  </defs>
  <rect
     style="opacity:0.2;fill:#000000;stroke-width:1.75"
     id="rect1"
     width="20"
     height="20"
     x="2"
     y="2.5"
     ry="4" />
  <rect
     style="fill:url(#linearGradient4);stroke-width:0.714286"
     id="rect2"
     width="20"
     height="20"
     x="2"
     y="2"
     ry="4" />
  <path
     id="path292"
     style="fill:#ffffff;stroke-width:2;stroke-linecap:round;stroke-linejoin:round"
     d="M 6.5,5 A 1.5,1.5 0 0 0 5,6.5 1.5,1.5 0 0 0 6.5,8 1.5,1.5 0 0 0 8,6.5 1.5,1.5 0 0 0 6.5,5 Z m 5,0 A 1.5,1.5 0 0 0 10,6.5 1.5,1.5 0 0 0 11.5,8 1.5,1.5 0 0 0 13,6.5 1.5,1.5 0 0 0 11.5,5 Z m 5,0 A 1.5,1.5 0 0 0 15,6.5 1.5,1.5 0 0 0 16.5,8 1.5,1.5 0 0 0 18,6.5 1.5,1.5 0 0 0 16.5,5 Z m -10,5 A 1.5,1.5 0 0 0 5,11.5 1.5,1.5 0 0 0 6.5,13 1.5,1.5 0 0 0 8,11.5 1.5,1.5 0 0 0 6.5,10 Z m 5,0 A 1.5,1.5 0 0 0 10,11.5 1.5,1.5 0 0 0 11.5,13 1.5,1.5 0 0 0 13,11.5 1.5,1.5 0 0 0 11.5,10 Z m 5,0 A 1.5,1.5 0 0 0 15,11.5 1.5,1.5 0 0 0 16.5,13 1.5,1.5 0 0 0 18,11.5 1.5,1.5 0 0 0 16.5,10 Z m -10,5 A 1.5,1.5 0 0 0 5,16.5 1.5,1.5 0 0 0 6.5,18 1.5,1.5 0 0 0 8,16.5 1.5,1.5 0 0 0 6.5,15 Z m 5,0 A 1.5,1.5 0 0 0 10,16.5 1.5,1.5 0 0 0 11.5,18 1.5,1.5 0 0 0 13,16.5 1.5,1.5 0 0 0 11.5,15 Z m 5,0 A 1.5,1.5 0 0 0 15,16.5 1.5,1.5 0 0 0 16.5,18 1.5,1.5 0 0 0 18,16.5 1.5,1.5 0 0 0 16.5,15 Z" />
</svg>
