<?xml version="1.0" encoding="UTF-8" standalone="no"?>
<!-- Created with Inkscape (http://www.inkscape.org/) -->

<svg
   width="24"
   height="24"
   viewBox="0 0 24 24.000002"
   version="1.1"
   id="svg1"
   inkscape:version="1.4 (e7c3feb100, 2024-10-09)"
   sodipodi:docname="applications-education.svg"
   xmlns:inkscape="http://www.inkscape.org/namespaces/inkscape"
   xmlns:sodipodi="http://sodipodi.sourceforge.net/DTD/sodipodi-0.dtd"
   xmlns:xlink="http://www.w3.org/1999/xlink"
   xmlns="http://www.w3.org/2000/svg"
   xmlns:svg="http://www.w3.org/2000/svg">
  <sodipodi:namedview
     id="namedview1"
     pagecolor="#ffffff"
     bordercolor="#000000"
     borderopacity="0.25"
     inkscape:showpageshadow="2"
     inkscape:pageopacity="0.0"
     inkscape:pagecheckerboard="0"
     inkscape:deskcolor="#d1d1d1"
     inkscape:document-units="px"
     inkscape:zoom="33.666667"
     inkscape:cx="11.985149"
     inkscape:cy="12"
     inkscape:window-width="1920"
     inkscape:window-height="1011"
     inkscape:window-x="0"
     inkscape:window-y="0"
     inkscape:window-maximized="1"
     inkscape:current-layer="svg1" />
  <defs
     id="defs1">
    <linearGradient
       inkscape:collect="always"
       xlink:href="#linearGradient2472"
       id="linearGradient4"
       x1="16"
       y1="30"
       x2="16"
       y2="2"
       gradientUnits="userSpaceOnUse"
       gradientTransform="matrix(0.71428571,0,0,0.71428571,0.57142857,0.57142857)" />
    <linearGradient
       inkscape:collect="always"
       id="linearGradient2472">
      <stop
         style="stop-color:#3ec90e;stop-opacity:1;"
         offset="0"
         id="stop2468" />
      <stop
         style="stop-color:#75db10;stop-opacity:1;"
         offset="1"
         id="stop2470" />
    </linearGradient>
  </defs>
  <rect
     style="opacity:0.2;fill:#000000;stroke-width:1.75"
     id="rect1"
     width="20"
     height="20"
     x="2"
     y="2.5"
     ry="4" />
  <rect
     style="fill:url(#linearGradient4);stroke-width:0.714286"
     id="rect2"
     width="20"
     height="20"
     x="2"
     y="2"
     ry="4" />
  <path
     id="rect466"
     style="fill:#ffffff;stroke-width:2;stroke-linecap:round;stroke-linejoin:round"
     d="M 12,6 A 0.57170215,0.50015003 0 0 0 11.730469,6.058594 L 4.2988281,9.5605469 a 0.57170215,0.50015003 0 0 0 0,0.8789061 l 7.4316409,3.501953 a 0.57170215,0.50015003 0 0 0 0.539062,0 l 7.431641,-3.501953 a 0.57170215,0.50015003 0 0 0 0,-0.8789061 L 12.269531,6.0585938 A 0.57170215,0.50015003 0 0 0 12,6 Z M 7,12.699219 V 15.5 c 0,1.107998 2.8920022,2.5 4,2.5 h 2 c 1.107998,0 4,-1.392002 4,-2.5 v -2.800781 l -4.285156,2.121093 -0.002,0.002 c -0.443661,0.236722 -0.982122,0.236722 -1.425782,0 l -0.002,-0.002 z" />
  <rect
     style="opacity:0.5;fill:#ffffff;stroke:none;stroke-width:2.11696;stroke-linecap:round;stroke-linejoin:round;stroke-dasharray:none;stroke-opacity:1"
     id="rect1073"
     width="1"
     height="6"
     x="5"
     y="9.9999981" />
</svg>
