<?xml version="1.0" encoding="UTF-8" standalone="no"?>
<!-- Created with Inkscape (http://www.inkscape.org/) -->

<svg
   width="24"
   height="24"
   viewBox="0 0 24 24.000002"
   version="1.1"
   id="svg1"
   inkscape:version="1.4.2 (ebf0e940d0, 2025-05-08)"
   sodipodi:docname="audacity.svg"
   xmlns:inkscape="http://www.inkscape.org/namespaces/inkscape"
   xmlns:sodipodi="http://sodipodi.sourceforge.net/DTD/sodipodi-0.dtd"
   xmlns:xlink="http://www.w3.org/1999/xlink"
   xmlns="http://www.w3.org/2000/svg"
   xmlns:svg="http://www.w3.org/2000/svg">
  <sodipodi:namedview
     id="namedview1"
     pagecolor="#ffffff"
     bordercolor="#000000"
     borderopacity="0.25"
     inkscape:showpageshadow="2"
     inkscape:pageopacity="0.0"
     inkscape:pagecheckerboard="0"
     inkscape:deskcolor="#d1d1d1"
     inkscape:document-units="px"
     inkscape:zoom="33.125"
     inkscape:cx="12"
     inkscape:cy="12"
     inkscape:window-width="1920"
     inkscape:window-height="1010"
     inkscape:window-x="0"
     inkscape:window-y="0"
     inkscape:window-maximized="1"
     inkscape:current-layer="svg1" />
  <defs
     id="defs1">
    <linearGradient
       inkscape:collect="always"
       xlink:href="#linearGradient1161"
       id="linearGradient4"
       x1="16"
       y1="30"
       x2="16"
       y2="2"
       gradientUnits="userSpaceOnUse"
       gradientTransform="matrix(0.71428571,0,0,0.71428571,0.57142857,0.57142857)" />
    <linearGradient
       inkscape:collect="always"
       xlink:href="#linearGradient3010"
       id="linearGradient8315"
       x1="5.5"
       y1="13.500461"
       x2="16.5"
       y2="13.500461"
       gradientUnits="userSpaceOnUse"
       gradientTransform="translate(1,1)" />
    <linearGradient
       inkscape:collect="always"
       id="linearGradient3010">
      <stop
         style="stop-color:#f2c204;stop-opacity:1;"
         offset="0"
         id="stop3006" />
      <stop
         style="stop-color:#f26c04;stop-opacity:1;"
         offset="1"
         id="stop3008" />
    </linearGradient>
    <linearGradient
       inkscape:collect="always"
       id="linearGradient1161">
      <stop
         style="stop-color:#1d49bf;stop-opacity:1;"
         offset="0"
         id="stop1157" />
      <stop
         style="stop-color:#689ddc;stop-opacity:1;"
         offset="1"
         id="stop1159" />
    </linearGradient>
  </defs>
  <rect
     style="opacity:0.2;fill:#000000;stroke-width:1.75"
     id="rect1"
     width="20"
     height="20"
     x="2"
     y="2.5"
     ry="4" />
  <rect
     style="fill:url(#linearGradient4);stroke-width:0.714286"
     id="rect2"
     width="20"
     height="20"
     x="2"
     y="2"
     ry="4" />
  <path
     id="rect344"
     style="fill:#ffffff;stroke-width:2;stroke-linecap:round;stroke-linejoin:round"
     d="M 12,5 C 9.2300069,5 7,7.2300088 7,10 v 5 h 1 v -5 c 0,-2.215993 1.7840052,-4 4,-4 2.215994,1e-7 4,1.784007 4,4 v 5 h 1 V 10 C 17,7.2300088 14.769992,5.0000001 12,5 Z" />
  <path
     style="color:#000000;fill:url(#linearGradient8315);fill-opacity:1;stroke:none;stroke-linecap:square;stroke-linejoin:round;-inkscape-stroke:none"
     d="m 11.976563,11 a 0.50005,0.50005 0 0 0 -0.470704,0.417969 l -0.646484,3.876953 -0.8808594,-2.9375 A 0.50005,0.50005 0 0 0 9.0527344,12.277344 L 8.1914062,14 H 7 6.5 v 1 H 7 8.5 a 0.50005,0.50005 0 0 0 0.4472656,-0.277344 l 0.4355469,-0.871093 1.1386715,3.792968 a 0.50005,0.50005 0 0 0 0.972657,-0.0625 l 0.615234,-3.693359 0.90625,3.445312 a 0.50005,0.50005 0 0 0 0.974609,-0.0332 l 0.677735,-3.53125 0.367187,0.916016 A 0.50005,0.50005 0 0 0 15.5,15 H 17 17.5 V 14 H 17 15.837891 l -0.873047,-2.185547 a 0.50005,0.50005 0 0 0 -0.955078,0.0918 L 13.423828,14.951175 12.484375,11.37305 A 0.50005,0.50005 0 0 0 11.976563,11 Z"
     id="path8282" />
  <rect
     style="fill:#c4c4c4;fill-opacity:1;stroke-width:2.64575;stroke-linecap:round;stroke-linejoin:round"
     id="rect502"
     width="1"
     height="7"
     x="16"
     y="11" />
  <path
     id="rect2891"
     style="fill:#ffffff;fill-opacity:1;stroke-width:2.44949;stroke-linecap:round;stroke-linejoin:round"
     d="m 7,11 c -1.1079989,0 -2,1.338002 -2,3 v 1 c 0,1.661998 0.8920011,3 2,3 z" />
  <rect
     style="fill:#c4c4c4;fill-opacity:1;stroke-width:2.64575;stroke-linecap:round;stroke-linejoin:round"
     id="rect401"
     width="1"
     height="7"
     x="7.0000005"
     y="11" />
  <path
     id="rect3800"
     style="fill:#ffffff;stroke-linecap:square;stroke-linejoin:round"
     d="m 17,11 c 1.107999,0 2,1.338002 2,3 v 1 c 0,1.661998 -0.892001,3 -2,3 z" />
</svg>
