<?xml version="1.0" encoding="UTF-8" standalone="no"?>
<!-- Created with Inkscape (http://www.inkscape.org/) -->

<svg
   width="24"
   height="24"
   viewBox="0 0 24 24.000002"
   version="1.1"
   id="svg1"
   inkscape:version="1.4.2 (ebf0e940d0, 2025-05-08)"
   sodipodi:docname="beamng-drive.svg"
   xmlns:inkscape="http://www.inkscape.org/namespaces/inkscape"
   xmlns:sodipodi="http://sodipodi.sourceforge.net/DTD/sodipodi-0.dtd"
   xmlns:xlink="http://www.w3.org/1999/xlink"
   xmlns="http://www.w3.org/2000/svg"
   xmlns:svg="http://www.w3.org/2000/svg">
  <sodipodi:namedview
     id="namedview1"
     pagecolor="#ffffff"
     bordercolor="#000000"
     borderopacity="0.25"
     inkscape:showpageshadow="2"
     inkscape:pageopacity="0.0"
     inkscape:pagecheckerboard="0"
     inkscape:deskcolor="#d1d1d1"
     inkscape:document-units="px"
     inkscape:zoom="32.75"
     inkscape:cx="11.984733"
     inkscape:cy="12"
     inkscape:window-width="1920"
     inkscape:window-height="1011"
     inkscape:window-x="0"
     inkscape:window-y="0"
     inkscape:window-maximized="1"
     inkscape:current-layer="svg1" />
  <defs
     id="defs1">
    <linearGradient
       inkscape:collect="always"
       id="linearGradient1606">
      <stop
         style="stop-color:#eaebed;stop-opacity:1;"
         offset="0"
         id="stop1602" />
      <stop
         style="stop-color:#f9fafa;stop-opacity:1;"
         offset="1"
         id="stop1604" />
    </linearGradient>
    <linearGradient
       inkscape:collect="always"
       xlink:href="#linearGradient1606"
       id="linearGradient4"
       x1="16"
       y1="30"
       x2="16"
       y2="2"
       gradientUnits="userSpaceOnUse"
       gradientTransform="matrix(0.71428571,0,0,0.71428571,0.57142859,0.57142857)" />
  </defs>
  <rect
     style="opacity:0.2;fill:#000000;stroke-width:1.75"
     id="rect1"
     width="20"
     height="20"
     x="2"
     y="2.5"
     ry="4" />
  <rect
     style="fill:url(#linearGradient4);stroke-width:0.714286"
     id="rect2"
     width="20"
     height="20"
     x="2"
     y="2"
     ry="4" />
  <path
     d="M 15.247071,7 A 0.750075,0.750075 0 0 0 14.829102,7.1289065 L 7.8291015,11.878906 a 0.750075,0.750075 0 0 0 0.118164,1.307618 l 8.4999995,3.749999 a 0.750075,0.750075 0 0 0 1.041016,-0.816406 l -1.5,-8.5 A 0.750075,0.750075 0 0 0 15.247071,7 Z m -0.53418,2.0214845 1.054687,5.9746095 -5.975586,-2.635742 z"
     style="fill:#353535;stroke-width:0.5"
     id="path2" />
  <path
     id="path5"
     style="fill:#fe7d2a;stroke-width:0.5"
     d="M 15.25,6 A 1.75,1.75 0 0 0 13.5,7.75 1.75,1.75 0 0 0 15.25,9.5 1.75,1.75 0 0 0 17,7.75 1.75,1.75 0 0 0 15.25,6 Z M 8.5,9 A 3.5,3.5 0 0 0 5,12.5 3.5,3.5 0 0 0 8.5,16 3.5,3.5 0 0 0 12,12.5 3.5,3.5 0 0 0 8.5,9 Z m 8,5 A 2.5,2.5 0 0 0 14,16.5 2.5,2.5 0 0 0 16.5,19 2.5,2.5 0 0 0 19,16.5 2.5,2.5 0 0 0 16.5,14 Z" />
</svg>
