<?xml version="1.0" encoding="UTF-8" standalone="no"?>
<!-- Created with Inkscape (http://www.inkscape.org/) -->

<svg
   width="24"
   height="24"
   viewBox="0 0 24 24.000002"
   version="1.1"
   id="svg1"
   inkscape:version="1.4.2 (ebf0e940d0, 2025-05-08)"
   sodipodi:docname="cider.svg"
   xmlns:inkscape="http://www.inkscape.org/namespaces/inkscape"
   xmlns:sodipodi="http://sodipodi.sourceforge.net/DTD/sodipodi-0.dtd"
   xmlns:xlink="http://www.w3.org/1999/xlink"
   xmlns="http://www.w3.org/2000/svg"
   xmlns:svg="http://www.w3.org/2000/svg">
  <sodipodi:namedview
     id="namedview1"
     pagecolor="#ffffff"
     bordercolor="#000000"
     borderopacity="0.25"
     inkscape:showpageshadow="2"
     inkscape:pageopacity="0.0"
     inkscape:pagecheckerboard="0"
     inkscape:deskcolor="#d1d1d1"
     inkscape:document-units="px"
     inkscape:zoom="32.75"
     inkscape:cx="11.984733"
     inkscape:cy="12"
     inkscape:window-width="1920"
     inkscape:window-height="1011"
     inkscape:window-x="0"
     inkscape:window-y="0"
     inkscape:window-maximized="1"
     inkscape:current-layer="svg1" />
  <defs
     id="defs1">
    <linearGradient
       inkscape:collect="always"
       xlink:href="#4852"
       id="linearGradient4"
       x1="16"
       y1="30"
       x2="16"
       y2="2"
       gradientUnits="userSpaceOnUse"
       gradientTransform="matrix(0.71428571,0,0,0.71428571,0.57142857,0.57142857)" />
    <linearGradient
       inkscape:collect="always"
       id="4852">
      <stop
         style="stop-color:#272727;stop-opacity:1;"
         offset="0"
         id="stop14555" />
      <stop
         style="stop-color:#5d5d5d;stop-opacity:1;"
         offset="1"
         id="stop14557" />
    </linearGradient>
    <linearGradient
       inkscape:collect="always"
       xlink:href="#linearGradient1"
       id="linearGradient3"
       x1="7.9999995"
       y1="16.571428"
       x2="7.9999995"
       y2="-0.57142866"
       gradientUnits="userSpaceOnUse"
       gradientTransform="matrix(1.1666667,0,0,1.1666667,2.6666668,2.6666668)" />
    <linearGradient
       id="linearGradient1"
       inkscape:collect="always">
      <stop
         style="stop-color:#f50057;stop-opacity:1;"
         offset="0"
         id="stop1" />
      <stop
         style="stop-color:#ff6299;stop-opacity:1;"
         offset="1"
         id="stop2" />
    </linearGradient>
  </defs>
  <rect
     style="opacity:0.2;fill:#000000;stroke-width:1.75"
     id="rect1"
     width="20"
     height="20"
     x="2"
     y="2.5"
     ry="4" />
  <rect
     style="fill:url(#linearGradient4);stroke-width:0.714286"
     id="rect2"
     width="20"
     height="20"
     x="2"
     y="2"
     ry="4" />
  <circle
     style="fill:url(#linearGradient3);fill-opacity:1;stroke-width:1.16667;stroke-linecap:round"
     id="path287"
     cx="12"
     cy="12"
     r="7" />
  <path
     id="path351"
     style="fill:#212121;fill-opacity:1;stroke-width:0.133984"
     d="m 12,7 c -2.7614153,0 -5,2.2385847 -5,5 0,2.761415 2.2385847,5 5,5 2.761415,0 5,-2.238585 5,-5 0,-2.7614153 -2.238585,-5 -5,-5 z m 0,1 c 2.209133,0 4,1.7908677 4,4 0,2.209133 -1.790867,4 -4,4 C 9.7908676,16 8,14.209133 8,12 8,9.7908677 9.7908676,8 12,8 Z m -0.689453,2 C 11.146936,10.007202 11.000289,10.173017 11,10.400391 v 3.199218 c 3.55e-4,0.303164 0.26063,0.496475 0.474609,0.351563 l 2.357422,-1.59961 c 0.223696,-0.151502 0.223696,-0.551622 0,-0.703124 l -2.357422,-1.59961 C 11.421114,10.0126 11.365084,9.9975992 11.310547,10 Z" />
</svg>
