<?xml version="1.0" encoding="UTF-8" standalone="no"?>
<!-- Created with Inkscape (http://www.inkscape.org/) -->

<svg
   width="24"
   height="24"
   viewBox="0 0 24 24.000002"
   version="1.1"
   id="svg1"
   inkscape:version="1.4.2 (ebf0e940d0, 2025-05-08)"
   sodipodi:docname="gmail.svg"
   xmlns:inkscape="http://www.inkscape.org/namespaces/inkscape"
   xmlns:sodipodi="http://sodipodi.sourceforge.net/DTD/sodipodi-0.dtd"
   xmlns="http://www.w3.org/2000/svg"
   xmlns:svg="http://www.w3.org/2000/svg">
  <sodipodi:namedview
     id="namedview1"
     pagecolor="#ffffff"
     bordercolor="#000000"
     borderopacity="0.25"
     inkscape:showpageshadow="2"
     inkscape:pageopacity="0.0"
     inkscape:pagecheckerboard="0"
     inkscape:deskcolor="#d1d1d1"
     inkscape:document-units="px"
     inkscape:zoom="33.125"
     inkscape:cx="12"
     inkscape:cy="12"
     inkscape:window-width="1920"
     inkscape:window-height="1010"
     inkscape:window-x="0"
     inkscape:window-y="0"
     inkscape:window-maximized="1"
     inkscape:current-layer="svg1" />
  <defs
     id="defs1" />
  <rect
     style="opacity:0.2;fill:#000000;stroke-width:1.75"
     id="rect1"
     width="20"
     height="20"
     x="2"
     y="2.5"
     ry="4" />
  <rect
     style="fill:#fafafa;fill-opacity:1;stroke-width:0.714286"
     id="rect2"
     width="20"
     height="20"
     x="2"
     y="2"
     ry="4" />
  <path
     id="path523"
     style="fill:#4285f4;stroke-width:0.375"
     d="m 5,9.150391 v 7.827378 c 0,0.564918 0.4528012,1.022462 1.0122067,1.022462 H 8 v -6.577868 z"
     sodipodi:nodetypes="cssccc" />
  <path
     d="M 6.9299998,11.09676 7.7150878,7.5251462 12,10.720746 16.284912,7.5251462 17.07,11.09676 12,14.879255 Z"
     style="fill:#ea4335;stroke-width:0.375"
     id="path1021"
     sodipodi:nodetypes="ccccccc" />
  <path
     id="path391"
     style="fill:#34a853;stroke-width:0.375"
     d="m 19,9.150391 -3,2.271972 v 6.577868 h 1.987793 C 18.547198,18.000231 19,17.542686 19,16.977769 Z"
     sodipodi:nodetypes="cccssc" />
  <path
     id="path424"
     style="fill:#fbbc04;stroke-width:0.375"
     d="m 17.475098,7 c -0.307946,6.7e-6 -0.623595,0.0958 -0.905274,0.3090817 L 16,7.7412107 V 11.898437 L 19,9.626465 V 8.536621 C 19,7.6284025 18.262068,6.9999827 17.475098,7 Z" />
  <path
     id="path490"
     style="fill:#c5221f;stroke-width:0.375"
     d="M 6.5249022,7 C 5.737931,6.9999827 5,7.6284025 5,8.536621 v 1.09046 l 3,2.271972 V 7.7412107 L 7.4301755,7.3090817 C 7.1484958,7.0957997 6.8328477,7.0000067 6.5249022,7 Z"
     sodipodi:nodetypes="ssccccs" />
</svg>
