<?xml version="1.0" encoding="UTF-8" standalone="no"?>
<!-- Created with Inkscape (http://www.inkscape.org/) -->

<svg
   width="24"
   height="24"
   viewBox="0 0 24 24.000002"
   version="1.1"
   id="svg1"
   inkscape:version="1.4.2 (ebf0e940d0, 2025-05-08)"
   sodipodi:docname="google-keep.svg"
   xmlns:inkscape="http://www.inkscape.org/namespaces/inkscape"
   xmlns:sodipodi="http://sodipodi.sourceforge.net/DTD/sodipodi-0.dtd"
   xmlns="http://www.w3.org/2000/svg"
   xmlns:svg="http://www.w3.org/2000/svg">
  <sodipodi:namedview
     id="namedview1"
     pagecolor="#ffffff"
     bordercolor="#000000"
     borderopacity="0.25"
     inkscape:showpageshadow="2"
     inkscape:pageopacity="0.0"
     inkscape:pagecheckerboard="0"
     inkscape:deskcolor="#d1d1d1"
     inkscape:document-units="px"
     inkscape:zoom="33.166667"
     inkscape:cx="11.984925"
     inkscape:cy="12"
     inkscape:window-width="1920"
     inkscape:window-height="1011"
     inkscape:window-x="0"
     inkscape:window-y="0"
     inkscape:window-maximized="1"
     inkscape:current-layer="svg1" />
  <defs
     id="defs1" />
  <rect
     style="opacity:0.2;fill:#000000;stroke-width:1.75"
     id="rect1"
     width="20"
     height="20"
     x="2"
     y="2.5"
     ry="4" />
  <rect
     style="fill:#fafafa;fill-opacity:1;stroke-width:0.714286"
     id="rect2"
     width="20"
     height="20"
     x="2"
     y="2"
     ry="4" />
  <path
     id="path1151"
     style="fill:#f8bf08;fill-opacity:1;stroke-width:0.249999;stroke-linecap:square;stroke-linejoin:bevel"
     d="M 8,5 C 7.4477155,5 7,5.4477155 7,6 v 12 c 0,0.552285 0.4477155,1 1,1 h 8 c 0.552285,0 1,-0.447715 1,-1 V 9 L 13.5,8.5 13,5 Z" />
  <path
     d="m 13,5 4,4 h -4 z"
     style="fill:#f59307;fill-opacity:1;stroke-width:0.19245;stroke-linecap:square;stroke-linejoin:bevel"
     id="path1123" />
  <path
     id="path342"
     style="fill:#ffffff;stroke-linecap:square;stroke-linejoin:bevel"
     d="m 12,11.001 c -1.104567,0 -2,0.895433 -2,2 0.002,0.712567 0.382894,1.643219 1,1.9995 h 2 c 0.617105,-0.356281 0.998043,-1.286933 1,-1.9995 0,-1.104567 -0.895433,-2 -2,-2 z m -1,4.9995 v 1 h 2 v -1 z" />
</svg>
