<?xml version="1.0" encoding="UTF-8" standalone="no"?>
<!-- Created with Inkscape (http://www.inkscape.org/) -->

<svg
   width="24"
   height="24"
   viewBox="0 0 24 24.000002"
   version="1.1"
   id="svg1"
   inkscape:version="1.4.2 (ebf0e940d0, 2025-05-08)"
   sodipodi:docname="htop.svg"
   xmlns:inkscape="http://www.inkscape.org/namespaces/inkscape"
   xmlns:sodipodi="http://sodipodi.sourceforge.net/DTD/sodipodi-0.dtd"
   xmlns:xlink="http://www.w3.org/1999/xlink"
   xmlns="http://www.w3.org/2000/svg"
   xmlns:svg="http://www.w3.org/2000/svg">
  <sodipodi:namedview
     id="namedview1"
     pagecolor="#ffffff"
     bordercolor="#000000"
     borderopacity="0.25"
     inkscape:showpageshadow="2"
     inkscape:pageopacity="0.0"
     inkscape:pagecheckerboard="0"
     inkscape:deskcolor="#d1d1d1"
     inkscape:document-units="px"
     inkscape:zoom="33.125"
     inkscape:cx="12"
     inkscape:cy="12"
     inkscape:window-width="1920"
     inkscape:window-height="1010"
     inkscape:window-x="0"
     inkscape:window-y="0"
     inkscape:window-maximized="1"
     inkscape:current-layer="svg1" />
  <defs
     id="defs1">
    <linearGradient
       inkscape:collect="always"
       xlink:href="#4852"
       id="linearGradient4"
       x1="16"
       y1="30"
       x2="16"
       y2="2"
       gradientUnits="userSpaceOnUse"
       gradientTransform="matrix(0.71428571,0,0,0.71428571,0.57142857,0.57142857)" />
    <linearGradient
       inkscape:collect="always"
       id="4852">
      <stop
         style="stop-color:#272727;stop-opacity:1;"
         offset="0"
         id="stop14555" />
      <stop
         style="stop-color:#5d5d5d;stop-opacity:1;"
         offset="1"
         id="stop14557" />
    </linearGradient>
  </defs>
  <rect
     style="opacity:0.2;fill:#000000;stroke-width:1.75"
     id="rect1"
     width="20"
     height="20"
     x="2"
     y="2.5"
     ry="4" />
  <rect
     style="fill:url(#linearGradient4);stroke-width:0.714286"
     id="rect2"
     width="20"
     height="20"
     x="2"
     y="2"
     ry="4" />
  <path
     id="path1240"
     style="fill:#8bc34a"
     d="M 6,5 V 9 H 7 V 5 Z M 8,5 V 9 H 9 V 5 Z m -2,5 v 4 h 1 v -4 z m 2,0 v 4 h 1 v -4 z m -2,5 v 4 h 1 v -4 z m 2,0 v 4 h 1 v -4 z"
     sodipodi:nodetypes="cccccccccccccccccccccccccccccc" />
  <path
     d="M 10,9.9999998 V 14 h 1 V 9.9999998 Z m 2,0 V 14 h 1 V 9.9999998 Z"
     style="fill:#ff9800"
     id="path1212"
     sodipodi:nodetypes="cccccccccc" />
  <path
     id="path1128"
     style="fill:#ff5722"
     d="m 14,5 v 4 h 1 V 5 Z m 2,0 v 4 h 1 V 5 Z m -2,5 v 4 h 1 v -4 z m 2,0 v 4 h 1 v -4 z m -2,5 v 4 h 1 v -4 z m 2,0 v 4 h 1 v -4 z" />
  <path
     id="path1156"
     style="fill:#f9f9f9"
     d="M 4,5 V 8.9999998 H 5 V 5 Z m 14,0 v 3.9999998 h 1 V 5 Z M 4,9.9999998 V 14 H 5 V 9.9999998 Z m 14,0 V 14 h 1 V 9.9999998 Z M 4,15 v 4 h 1 v -4 z m 14,0 v 4 h 1 v -4 z"
     sodipodi:nodetypes="cccccccccccccccccccccccccccccc" />
</svg>
