<?xml version="1.0" encoding="UTF-8" standalone="no"?>
<!-- Created with Inkscape (http://www.inkscape.org/) -->

<svg
   width="24"
   height="24"
   viewBox="0 0 24 24.000002"
   version="1.1"
   id="svg1"
   inkscape:version="1.4.2 (ebf0e940d0, 2025-05-08)"
   sodipodi:docname="kmines.svg"
   xmlns:inkscape="http://www.inkscape.org/namespaces/inkscape"
   xmlns:sodipodi="http://sodipodi.sourceforge.net/DTD/sodipodi-0.dtd"
   xmlns:xlink="http://www.w3.org/1999/xlink"
   xmlns="http://www.w3.org/2000/svg"
   xmlns:svg="http://www.w3.org/2000/svg">
  <sodipodi:namedview
     id="namedview1"
     pagecolor="#ffffff"
     bordercolor="#000000"
     borderopacity="0.25"
     inkscape:showpageshadow="2"
     inkscape:pageopacity="0.0"
     inkscape:pagecheckerboard="0"
     inkscape:deskcolor="#d1d1d1"
     inkscape:document-units="px"
     inkscape:zoom="33.125"
     inkscape:cx="12"
     inkscape:cy="12"
     inkscape:window-width="1920"
     inkscape:window-height="1010"
     inkscape:window-x="0"
     inkscape:window-y="0"
     inkscape:window-maximized="1"
     inkscape:current-layer="svg1" />
  <defs
     id="defs1">
    <linearGradient
       inkscape:collect="always"
       xlink:href="#linearGradient1144"
       id="linearGradient4"
       x1="16"
       y1="30"
       x2="16"
       y2="2"
       gradientUnits="userSpaceOnUse"
       gradientTransform="matrix(0.71428571,0,0,0.71428571,0.57142857,0.57142857)" />
    <linearGradient
       inkscape:collect="always"
       id="linearGradient1144">
      <stop
         style="stop-color:#adb2b9;stop-opacity:1;"
         offset="0"
         id="stop1140" />
      <stop
         style="stop-color:#e0e2e4;stop-opacity:1;"
         offset="1"
         id="stop1142" />
    </linearGradient>
    <linearGradient
       inkscape:collect="always"
       xlink:href="#linearGradient1283"
       id="linearGradient9629"
       x1="24"
       y1="40"
       x2="24"
       y2="8"
       gradientUnits="userSpaceOnUse"
       gradientTransform="matrix(0.50000001,0,0,0.50000001,-2.172e-4,0)" />
    <linearGradient
       inkscape:collect="always"
       id="linearGradient1283">
      <stop
         style="stop-color:#3f3f3f;stop-opacity:1;"
         offset="0"
         id="stop1279" />
      <stop
         style="stop-color:#666666;stop-opacity:1;"
         offset="1"
         id="stop1281" />
    </linearGradient>
  </defs>
  <rect
     style="opacity:0.2;fill:#000000;stroke-width:1.75"
     id="rect1"
     width="20"
     height="20"
     x="2"
     y="2.5"
     ry="4" />
  <rect
     style="fill:url(#linearGradient4);stroke-width:0.714286"
     id="rect2"
     width="20"
     height="20"
     x="2"
     y="2"
     ry="4" />
  <path
     id="path9265"
     style="fill:url(#linearGradient9629);fill-opacity:1;stroke-width:2.6;stroke-linecap:round;stroke-linejoin:round"
     d="m 11.999783,4.0000003 c -0.553999,0 -1,0.446001 -1,1 v 1.0000001 c 0,0.5539989 0.446001,1 1,1 0.553999,0 1,-0.4460011 1,-1 V 5.0000003 c 0,-0.553999 -0.446001,-1 -1,-1 z m 2,1.817383 v 0.1826171 c 0,1.107995 -0.892005,2 -2,2 -1.107995,0 -2,-0.892005 -2,-2 V 5.8261723 A 6.5000001,6.5000001 0 0 0 7.6511499,7.1796879 l 0.152344,0.08789 c 0.959551,0.5539975 1.2864195,1.7728705 0.732422,2.732422 -0.5539975,0.9595511 -1.772871,1.2864191 -2.7324221,0.7324221 l -0.144531,-0.08301 A 6.5000001,6.5000001 0 0 0 5.4997828,12 a 6.5000001,6.5000001 0 0 0 0.15918,1.350586 l 0.144531,-0.08301 c 0.2998591,-0.173123 0.6250131,-0.25985 0.9472656,-0.268555 0.7089575,-0.01915 1.404282,0.341285 1.7851565,1.000977 0.5539975,0.959551 0.2271295,2.178424 -0.732422,2.732422 l -0.152344,0.08789 a 6.5000001,6.5000001 0 0 0 2.3486331,1.353515 v -0.173828 c 0,-1.107994 0.892005,-1.999999 2,-1.999999 1.107995,0 2,0.892005 2,1.999999 v 0.173828 a 6.5000001,6.5000001 0 0 0 2.348633,-1.353515 l -0.152344,-0.08789 c -0.959551,-0.553998 -1.28642,-1.772871 -0.732422,-2.732422 0.380874,-0.659692 1.076199,-1.020126 1.785156,-1.000977 0.322253,0.0087 0.647407,0.09543 0.947266,0.268555 l 0.144531,0.08301 A 6.5000001,6.5000001 0 0 0 18.499783,12 6.5000001,6.5000001 0 0 0 18.354275,10.640625 l -0.158203,0.0918 C 17.23652,11.28642 16.017647,10.959552 15.46365,10 14.909652,9.0404489 15.23652,7.8215759 16.196072,7.2675784 l 0.15918,-0.091797 A 6.5000001,6.5000001 0 0 0 13.999783,5.8173833 Z M 5.9636498,7.4990239 c -0.354479,-0.00957 -0.701164,0.17113 -0.891601,0.5009765 -0.277,0.479777 -0.114543,1.089211 0.365234,1.366211 l 0.8662111,0.5 c 0.479777,0.2769986 1.089211,0.113566 1.366211,-0.366211 0.276999,-0.479777 0.113566,-1.089211 -0.366211,-1.366211 l -0.866211,-0.5 C 6.2873524,7.5472274 6.1247769,7.5033759 5.9636498,7.4990239 Z m 12.0722662,0 c -0.161127,0.00435 -0.323703,0.048205 -0.473633,0.1347655 l -0.866211,0.5 c -0.479777,0.277 -0.64321,0.886434 -0.366211,1.366211 0.277,0.479777 0.886434,0.6432096 1.366211,0.366211 l 0.866211,-0.5 C 19.042059,9.0892119 19.204517,8.4797779 18.927517,8.0000004 18.73708,7.6701539 18.390395,7.4894489 18.035916,7.4990239 Z M 11.999783,10 a 2,2 0 0 1 2,2 2,2 0 0 1 -2,2.000001 2,2 0 0 1 -2,-2.000001 2,2 0 0 1 2,-2 z m 0,1 a 1,1 0 0 0 -1,1 1,1 0 0 0 1,1.000001 1,1 0 0 0 1,-1.000001 1,1 0 0 0 -1,-1 z m -5.2226561,2.999024 c -0.161127,0.0043 -0.3237025,0.0482 -0.473633,0.134766 l -0.8662111,0.5 c -0.479777,0.277 -0.642234,0.886434 -0.365234,1.366211 0.276999,0.479777 0.885457,0.64321 1.3652341,0.366211 l 0.866211,-0.5 c 0.479777,-0.277 0.64321,-0.886434 0.366211,-1.366211 -0.1904375,-0.329847 -0.538099,-0.510552 -0.892578,-0.500977 z m 10.4453121,0 c -0.354479,-0.0096 -0.702141,0.17113 -0.892578,0.500977 -0.277,0.479777 -0.113566,1.089211 0.366211,1.366211 l 0.866211,0.5 c 0.479777,0.276999 1.088235,0.113566 1.365234,-0.366211 0.276999,-0.479777 0.114543,-1.089211 -0.365234,-1.366211 l -0.866211,-0.5 c -0.149931,-0.08656 -0.312506,-0.130414 -0.473633,-0.134766 z m -5.222656,3.000977 c -0.553999,0 -1,0.446001 -1,0.999999 v 1 c 0,0.553999 0.446001,1 1,1 0.553999,0 1,-0.446001 1,-1 v -1 c 0,-0.553998 -0.446001,-0.999999 -1,-0.999999 z" />
</svg>
