<?xml version="1.0" encoding="UTF-8" standalone="no"?>
<!-- Created with Inkscape (http://www.inkscape.org/) -->

<svg
   width="24"
   height="24"
   viewBox="0 0 24 24.000002"
   version="1.1"
   id="svg1"
   inkscape:version="1.4.2 (ebf0e940d0, 2025-05-08)"
   sodipodi:docname="multimedia-photo-manager.svg"
   xmlns:inkscape="http://www.inkscape.org/namespaces/inkscape"
   xmlns:sodipodi="http://sodipodi.sourceforge.net/DTD/sodipodi-0.dtd"
   xmlns:xlink="http://www.w3.org/1999/xlink"
   xmlns="http://www.w3.org/2000/svg"
   xmlns:svg="http://www.w3.org/2000/svg">
  <sodipodi:namedview
     id="namedview1"
     pagecolor="#ffffff"
     bordercolor="#000000"
     borderopacity="0.25"
     inkscape:showpageshadow="2"
     inkscape:pageopacity="0.0"
     inkscape:pagecheckerboard="0"
     inkscape:deskcolor="#d1d1d1"
     inkscape:document-units="px"
     inkscape:zoom="33.166667"
     inkscape:cx="11.984925"
     inkscape:cy="12"
     inkscape:window-width="1920"
     inkscape:window-height="1011"
     inkscape:window-x="0"
     inkscape:window-y="0"
     inkscape:window-maximized="1"
     inkscape:current-layer="svg1" />
  <defs
     id="defs1">
    <linearGradient
       inkscape:collect="always"
       id="linearGradient1606">
      <stop
         style="stop-color:#eaebed;stop-opacity:1;"
         offset="0"
         id="stop1602" />
      <stop
         style="stop-color:#f9fafa;stop-opacity:1;"
         offset="1"
         id="stop1604" />
    </linearGradient>
    <linearGradient
       inkscape:collect="always"
       xlink:href="#linearGradient1606"
       id="linearGradient4"
       x1="16"
       y1="30"
       x2="16"
       y2="2"
       gradientUnits="userSpaceOnUse"
       gradientTransform="matrix(0.71428571,0,0,0.71428571,0.57142861,0.57142857)" />
    <linearGradient
       inkscape:collect="always"
       xlink:href="#linearGradient6"
       id="linearGradient7"
       x1="20"
       y1="0"
       x2="20"
       y2="18"
       gradientUnits="userSpaceOnUse"
       gradientTransform="matrix(0.375,0,0,0.38888888,4.4995232,5)" />
    <linearGradient
       id="linearGradient6"
       inkscape:collect="always">
      <stop
         style="stop-color:#ff8500;stop-opacity:1;"
         offset="0"
         id="stop6" />
      <stop
         style="stop-color:#ffc500;stop-opacity:1;"
         offset="1"
         id="stop7" />
    </linearGradient>
    <linearGradient
       inkscape:collect="always"
       xlink:href="#linearGradient12"
       id="linearGradient13"
       x1="20"
       y1="40"
       x2="20"
       y2="22"
       gradientUnits="userSpaceOnUse"
       gradientTransform="matrix(0.375,0,0,0.38888888,4.4995232,4.4444445)" />
    <linearGradient
       id="linearGradient12"
       inkscape:collect="always">
      <stop
         style="stop-color:#1e7dd9;stop-opacity:1;"
         offset="0"
         id="stop12" />
      <stop
         style="stop-color:#1eb1d9;stop-opacity:1;"
         offset="1"
         id="stop13" />
    </linearGradient>
    <linearGradient
       inkscape:collect="always"
       xlink:href="#linearGradient8"
       id="linearGradient9"
       x1="20"
       y1="-1.0658141e-14"
       x2="20"
       y2="18"
       gradientUnits="userSpaceOnUse"
       gradientTransform="matrix(0.50000002,0.86602544,-0.89810043,0.51851853,27.320509,-7.3205083)" />
    <linearGradient
       id="linearGradient8"
       inkscape:collect="always">
      <stop
         style="stop-color:#ffd737;stop-opacity:1;"
         offset="0"
         id="stop8" />
      <stop
         style="stop-color:#fff337;stop-opacity:1;"
         offset="1"
         id="stop9" />
    </linearGradient>
    <linearGradient
       inkscape:collect="always"
       xlink:href="#linearGradient14"
       id="linearGradient15"
       x1="20"
       y1="40"
       x2="20"
       y2="22"
       gradientUnits="userSpaceOnUse"
       gradientTransform="matrix(0.50000001,0.86602544,-0.89810044,0.51851854,28.603509,-8.0612492)" />
    <linearGradient
       id="linearGradient14"
       inkscape:collect="always">
      <stop
         style="stop-color:#9b38d2;stop-opacity:1;"
         offset="0"
         id="stop14" />
      <stop
         style="stop-color:#d238c7;stop-opacity:1;"
         offset="1"
         id="stop15" />
    </linearGradient>
    <linearGradient
       inkscape:collect="always"
       xlink:href="#linearGradient2"
       id="linearGradient5"
       x1="20"
       y1="2.6645353e-15"
       x2="20"
       y2="18"
       gradientUnits="userSpaceOnUse"
       gradientTransform="matrix(-0.50000001,0.86602543,0.89810044,0.51851854,12.679492,-7.3205084)" />
    <linearGradient
       id="linearGradient2"
       inkscape:collect="always">
      <stop
         style="stop-color:#e11e1e;stop-opacity:1;"
         offset="0"
         id="stop2" />
      <stop
         style="stop-color:#d0005a;stop-opacity:1;"
         offset="1"
         id="stop3" />
    </linearGradient>
    <linearGradient
       inkscape:collect="always"
       xlink:href="#linearGradient10"
       id="linearGradient11"
       x1="20"
       y1="40"
       x2="20"
       y2="22"
       gradientUnits="userSpaceOnUse"
       gradientTransform="matrix(-0.50000002,0.86602544,0.89810043,0.51851853,11.396492,-8.0612491)" />
    <linearGradient
       id="linearGradient10"
       inkscape:collect="always">
      <stop
         style="stop-color:#6fd91e;stop-opacity:1;"
         offset="0"
         id="stop10" />
      <stop
         style="stop-color:#b8d91e;stop-opacity:1;"
         offset="1"
         id="stop11" />
    </linearGradient>
  </defs>
  <rect
     style="opacity:0.2;fill:#000000;stroke-width:1.75"
     id="rect1"
     width="20"
     height="20"
     x="2"
     y="2.5"
     ry="4" />
  <rect
     style="fill:url(#linearGradient4);stroke-width:0.714286"
     id="rect2"
     width="20"
     height="20"
     x="2"
     y="2"
     ry="4" />
  <path
     id="rect1-6"
     style="opacity:0.7;fill:url(#linearGradient7);fill-opacity:1;stroke-width:0.381882;stroke-linecap:round"
     d="m 11.999523,5 c 0,0 -2.9999998,1.3875555 -2.9999998,3.1111111 V 8.8888888 C 8.9995232,10.612445 11.999523,12 11.999523,12 c 0,0 3,-1.387555 3,-3.1111112 V 8.1111111 c 0,-1.7235556 -3,-3.1111111 -3,-3.1111111 z" />
  <path
     id="rect1-3"
     style="opacity:0.7;fill:url(#linearGradient13);fill-opacity:1;stroke-width:0.381882;stroke-linecap:round"
     d="m 11.999523,13 c 0,0 -2.9999998,1.387556 -2.9999998,3.111111 v 0.777778 C 8.9995232,18.612445 11.999523,20 11.999523,20 c 0,0 3,-1.387555 3,-3.111111 v -0.777778 c 0,-1.723555 -3,-3.111111 -3,-3.111111 z"
     sodipodi:nodetypes="csscssc" />
  <g
     id="g15"
     transform="matrix(0.375,0,0,0.375,4.4995232,5)">
    <path
       id="rect1-1"
       style="opacity:0.7;fill:url(#linearGradient9);stroke-width:1.01835;stroke-linecap:round"
       d="m 37.320508,9.9999997 c 0,0 -7.204422,-5.0781288 -11.184803,-2.7800548 L 24.339504,8.256982 c -3.980381,2.298074 -3.184803,11.076351 -3.184803,11.076351 0,0 7.204422,5.078129 11.184803,2.780055 l 1.796201,-1.037037 C 38.116086,18.778277 37.320508,9.9999997 37.320508,9.9999997 Z"
       sodipodi:nodetypes="csscssc" />
    <path
       id="rect1-3-2"
       style="opacity:0.7;fill:url(#linearGradient15);stroke-width:1.01835;stroke-linecap:round"
       d="m 18.845299,20.666667 c 0,0 -7.204421,-5.078129 -11.1848029,-2.780055 L 5.8642953,18.923649 C 1.8839142,21.221723 2.6794919,30 2.6794919,30 c 0,0 7.2044223,5.078129 11.1848031,2.780055 l 1.796201,-1.037037 c 3.980382,-2.298074 3.184803,-11.076351 3.184803,-11.076351 z" />
  </g>
  <g
     id="g16"
     transform="matrix(0.375,0,0,0.375,4.4995232,5)">
    <path
       id="rect1-1-0"
       style="opacity:0.7;fill:url(#linearGradient5);stroke-width:1.01835;stroke-linecap:round"
       d="m 2.679492,9.9999999 c 0,0 7.2044222,-5.0781291 11.184803,-2.7800551 l 1.796201,1.0370371 c 3.980382,2.2980741 3.184803,11.0763511 3.184803,11.0763511 0,0 -7.204421,5.078129 -11.1848029,2.780055 L 5.8642953,21.076351 C 1.8839142,18.778277 2.679492,9.9999999 2.679492,9.9999999 Z" />
    <path
       id="rect1-3-2-6"
       style="opacity:0.7;fill:url(#linearGradient11);stroke-width:1.01835;stroke-linecap:round"
       d="m 21.154701,20.666667 c 0,0 7.204422,-5.078129 11.184803,-2.780055 l 1.796201,1.037037 C 38.116086,21.221723 37.320508,30 37.320508,30 c 0,0 -7.204422,5.078129 -11.184803,2.780055 L 24.339504,31.743018 C 20.359123,29.444944 21.154701,20.666667 21.154701,20.666667 Z"
       sodipodi:nodetypes="csscssc" />
  </g>
</svg>
