<?xml version="1.0" encoding="UTF-8" standalone="no"?>
<!-- Created with Inkscape (http://www.inkscape.org/) -->

<svg
   width="24"
   height="24"
   viewBox="0 0 24 24.000002"
   version="1.1"
   id="svg1"
   inkscape:version="1.4.2 (ebf0e940d0, 2025-05-08)"
   sodipodi:docname="obsstudio.svg"
   xmlns:inkscape="http://www.inkscape.org/namespaces/inkscape"
   xmlns:sodipodi="http://sodipodi.sourceforge.net/DTD/sodipodi-0.dtd"
   xmlns:xlink="http://www.w3.org/1999/xlink"
   xmlns="http://www.w3.org/2000/svg"
   xmlns:svg="http://www.w3.org/2000/svg">
  <sodipodi:namedview
     id="namedview1"
     pagecolor="#ffffff"
     bordercolor="#000000"
     borderopacity="0.25"
     inkscape:showpageshadow="2"
     inkscape:pageopacity="0.0"
     inkscape:pagecheckerboard="0"
     inkscape:deskcolor="#d1d1d1"
     inkscape:document-units="px"
     inkscape:zoom="33.125"
     inkscape:cx="12"
     inkscape:cy="12"
     inkscape:window-width="1920"
     inkscape:window-height="1010"
     inkscape:window-x="0"
     inkscape:window-y="0"
     inkscape:window-maximized="1"
     inkscape:current-layer="svg1" />
  <defs
     id="defs1">
    <linearGradient
       inkscape:collect="always"
       xlink:href="#4852"
       id="linearGradient4"
       x1="16"
       y1="30"
       x2="16"
       y2="2"
       gradientUnits="userSpaceOnUse"
       gradientTransform="matrix(0.71428571,0,0,0.71428571,0.57142857,0.57142857)" />
    <linearGradient
       inkscape:collect="always"
       id="4852">
      <stop
         style="stop-color:#272727;stop-opacity:1;"
         offset="0"
         id="stop14555" />
      <stop
         style="stop-color:#5d5d5d;stop-opacity:1;"
         offset="1"
         id="stop14557" />
    </linearGradient>
  </defs>
  <rect
     style="opacity:0.2;fill:#000000;stroke-width:1.75"
     id="rect1"
     width="20"
     height="20"
     x="2"
     y="2.5"
     ry="4" />
  <rect
     style="fill:url(#linearGradient4);stroke-width:0.714286"
     id="rect2"
     width="20"
     height="20"
     x="2"
     y="2"
     ry="4" />
  <path
     d="m 8.8599119,18.622067 c 0.95103,-0.29175 2.0921001,-1.0927 2.6270001,-1.8438 l 0.17655,-0.24794 -0.22099,-0.66864 c -0.80723,-2.4424 0.65844,-4.9052 3.1714,-5.3291 1.8265,-0.30808 3.7428,0.80916 4.4035,2.5673 0.15729,0.41853 0.16209,0.42293 0.11092,0.1016 -0.15135,-0.95045 -0.62189,-1.8267 -1.3869,-2.5829 -0.79829,-0.78902 -1.7254,-1.236399 -2.8836,-1.391499 -0.35549,-0.04761 -0.39237,-0.03413 -0.52608,0.192229 -0.20615,0.34898 -0.80584,0.93281 -1.249,1.2159 -1.1936,0.76262 -3.0336,0.76294 -4.2301001,8.35e-4 -1.3517,-0.86102 -2.1162,-2.5099998 -1.8681,-4.0290998 0.13545,-0.82926 0.50057,-1.565 1.0826,-2.1814 0.42178,-0.44671 0.45033,-0.49596 0.20658,-0.35638 -0.41039,0.235 -1.371,1.2788 -1.6437,1.786 -0.31429,0.58457 -0.5695,1.6191 -0.56796,2.3024 0.001,0.5878601 0.15523,1.3683998 0.38118,1.9330998 0.13171,0.32916 0.14843,0.33954 0.6363,0.39473 0.27556,0.03117 0.71106,0.12895 0.96777,0.21727 2.2699001,0.78096 3.3409001,3.3988 2.2782001,5.5687 -0.7243301,1.479 -2.4012001,2.4314 -3.9686001,2.2538 -0.63795,-0.07228 -0.5703,0.01414 0.13702,0.17502 0.62683,0.14258 1.7698,0.10488 2.366,-0.07804 z"
     id="path362"
     style="fill:#ffffff;enable-background:new" />
</svg>
