<?xml version="1.0" encoding="UTF-8" standalone="no"?>
<!-- Created with Inkscape (http://www.inkscape.org/) -->

<svg
   width="24"
   height="24"
   viewBox="0 0 24 24.000002"
   version="1.1"
   id="svg1"
   inkscape:version="1.4.2 (ebf0e940d0, 2025-05-08)"
   sodipodi:docname="office-address-book.svg"
   xmlns:inkscape="http://www.inkscape.org/namespaces/inkscape"
   xmlns:sodipodi="http://sodipodi.sourceforge.net/DTD/sodipodi-0.dtd"
   xmlns:xlink="http://www.w3.org/1999/xlink"
   xmlns="http://www.w3.org/2000/svg"
   xmlns:svg="http://www.w3.org/2000/svg">
  <sodipodi:namedview
     id="namedview1"
     pagecolor="#ffffff"
     bordercolor="#000000"
     borderopacity="0.25"
     inkscape:showpageshadow="2"
     inkscape:pageopacity="0.0"
     inkscape:pagecheckerboard="0"
     inkscape:deskcolor="#d1d1d1"
     inkscape:document-units="px"
     inkscape:zoom="33.125"
     inkscape:cx="12"
     inkscape:cy="12"
     inkscape:window-width="1920"
     inkscape:window-height="1010"
     inkscape:window-x="0"
     inkscape:window-y="0"
     inkscape:window-maximized="1"
     inkscape:current-layer="svg1" />
  <defs
     id="defs1">
    <linearGradient
       inkscape:collect="always"
       xlink:href="#linearGradient3"
       id="linearGradient4"
       x1="16"
       y1="30"
       x2="16"
       y2="2"
       gradientUnits="userSpaceOnUse"
       gradientTransform="matrix(0.71428571,0,0,0.71428571,0.5714286,0.5714286)" />
    <linearGradient
       inkscape:collect="always"
       id="linearGradient3">
      <stop
         style="stop-color:#cc883b;stop-opacity:1;"
         offset="0"
         id="stop1" />
      <stop
         style="stop-color:#e8c69e;stop-opacity:1;"
         offset="1"
         id="stop2" />
    </linearGradient>
  </defs>
  <rect
     style="opacity:0.2;fill:#000000;stroke-width:1.75"
     id="rect1"
     width="20"
     height="20"
     x="2"
     y="2.5"
     ry="4" />
  <rect
     style="fill:url(#linearGradient4);stroke-width:0.714286"
     id="rect2"
     width="20"
     height="20"
     x="2"
     y="2"
     ry="4" />
  <path
     id="rect396"
     style="opacity:0.6;fill:#ffffff;stroke-width:1.02698"
     d="M 14.5,12 C 10.996333,14.182633 10,14.275339 10,15.5 v 0.375 C 10,16.498245 10.501755,17 11.125,17 h 6.75 C 18.498245,17 19,16.498245 19,15.875 V 15.5 C 19,14.275339 18.003667,14.182633 14.5,12 Z"
     sodipodi:nodetypes="cssssssc" />
  <path
     id="path234"
     style="fill:#ffffff;stroke-width:0.810101"
     d="m 14.5,6 c -1.656853,0 -3,1.0670031 -3,3 0,1.932997 1.343147,4 3,4 1.656854,0 3,-2.067003 3,-4 0,-1.9329977 -1.343146,-3 -3,-3 z" />
  <path
     id="rect3"
     style="opacity:0.3;fill:#000000"
     d="M 6,2 C 3.784,2 2,3.784 2,6 v 12 c 0,2.216 1.784,4 4,4 H 7 V 2 Z" />
</svg>
