<?xml version="1.0" encoding="UTF-8" standalone="no"?>
<!-- Created with Inkscape (http://www.inkscape.org/) -->

<svg
   width="24"
   height="24"
   viewBox="0 0 24 24.000002"
   version="1.1"
   id="svg1"
   inkscape:version="1.4 (e7c3feb100, 2024-10-09)"
   sodipodi:docname="okular.svg"
   xmlns:inkscape="http://www.inkscape.org/namespaces/inkscape"
   xmlns:sodipodi="http://sodipodi.sourceforge.net/DTD/sodipodi-0.dtd"
   xmlns:xlink="http://www.w3.org/1999/xlink"
   xmlns="http://www.w3.org/2000/svg"
   xmlns:svg="http://www.w3.org/2000/svg">
  <sodipodi:namedview
     id="namedview1"
     pagecolor="#ffffff"
     bordercolor="#000000"
     borderopacity="0.25"
     inkscape:showpageshadow="2"
     inkscape:pageopacity="0.0"
     inkscape:pagecheckerboard="0"
     inkscape:deskcolor="#d1d1d1"
     inkscape:document-units="px"
     inkscape:zoom="33.666667"
     inkscape:cx="11.985149"
     inkscape:cy="12"
     inkscape:window-width="1920"
     inkscape:window-height="1011"
     inkscape:window-x="0"
     inkscape:window-y="0"
     inkscape:window-maximized="1"
     inkscape:current-layer="svg1" />
  <defs
     id="defs1">
    <linearGradient
       inkscape:collect="always"
       id="linearGradient1606">
      <stop
         style="stop-color:#eaebed;stop-opacity:1;"
         offset="0"
         id="stop1602" />
      <stop
         style="stop-color:#f9fafa;stop-opacity:1;"
         offset="1"
         id="stop1604" />
    </linearGradient>
    <linearGradient
       inkscape:collect="always"
       xlink:href="#linearGradient1606"
       id="linearGradient4"
       x1="16"
       y1="30"
       x2="16"
       y2="2"
       gradientUnits="userSpaceOnUse"
       gradientTransform="matrix(0.71428571,0,0,0.71428571,0.57142857,0.57142857)" />
    <linearGradient
       inkscape:collect="always"
       xlink:href="#linearGradient2338"
       id="linearGradient3859"
       x1="12"
       y1="22"
       x2="12"
       y2="2"
       gradientUnits="userSpaceOnUse" />
    <linearGradient
       inkscape:collect="always"
       id="linearGradient2338">
      <stop
         style="stop-color:#218ed4;stop-opacity:1;"
         offset="0"
         id="stop2334" />
      <stop
         style="stop-color:#3ecdf1;stop-opacity:1;"
         offset="1"
         id="stop2336" />
    </linearGradient>
  </defs>
  <rect
     style="opacity:0.2;fill:#000000;stroke-width:1.75"
     id="rect1"
     width="20"
     height="20"
     x="2"
     y="2.5"
     ry="4" />
  <rect
     style="fill:url(#linearGradient4);stroke-width:0.714286"
     id="rect2"
     width="20"
     height="20"
     x="2"
     y="2"
     ry="4" />
  <path
     id="path3183"
     style="fill:url(#linearGradient3859);fill-opacity:1"
     d="M 12.542969,2 V 2.00391 C 11.277983,3.1592081 10.207112,4.6947405 9.3300781,6.4394531 7.9758523,9.1334545 7.6536801,11.407875 8.375,13.273438 c 0.7213109,1.86556 2.376867,3.035908 4.958984,3.513671 2.714092,0.502184 5.229179,0.117996 7.548828,-1.160156 C 21.234426,15.433206 21.496912,15.283318 22,14.900391 V 12 h -0.0039 c -0.838586,1.117226 -1.850162,2.023099 -2.833985,2.712891 -1.740561,1.220337 -3.537959,1.657462 -5.402343,1.3125 -1.773676,-0.328178 -2.815102,-1.300512 -3.1211,-2.916016 C 10.344705,11.487852 10.824475,9.4313943 12.080078,6.9335938 13.101625,4.9013914 14.364041,3.1936871 15.699219,2 Z" />
</svg>
