<?xml version="1.0" encoding="UTF-8" standalone="no"?>
<!-- Created with Inkscape (http://www.inkscape.org/) -->

<svg
   width="24"
   height="24"
   viewBox="0 0 24 24.000002"
   version="1.1"
   id="svg1"
   inkscape:version="1.4.2 (ebf0e940d0, 2025-05-08)"
   sodipodi:docname="org.gnome.Connections.svg"
   xmlns:inkscape="http://www.inkscape.org/namespaces/inkscape"
   xmlns:sodipodi="http://sodipodi.sourceforge.net/DTD/sodipodi-0.dtd"
   xmlns:xlink="http://www.w3.org/1999/xlink"
   xmlns="http://www.w3.org/2000/svg"
   xmlns:svg="http://www.w3.org/2000/svg">
  <sodipodi:namedview
     id="namedview1"
     pagecolor="#ffffff"
     bordercolor="#000000"
     borderopacity="0.25"
     inkscape:showpageshadow="2"
     inkscape:pageopacity="0.0"
     inkscape:pagecheckerboard="0"
     inkscape:deskcolor="#d1d1d1"
     inkscape:document-units="px"
     inkscape:zoom="33.125"
     inkscape:cx="12"
     inkscape:cy="12"
     inkscape:window-width="1920"
     inkscape:window-height="1010"
     inkscape:window-x="0"
     inkscape:window-y="0"
     inkscape:window-maximized="1"
     inkscape:current-layer="svg1" />
  <defs
     id="defs1">
    <linearGradient
       inkscape:collect="always"
       xlink:href="#linearGradient3147"
       id="linearGradient4"
       x1="16"
       y1="30"
       x2="16"
       y2="2"
       gradientUnits="userSpaceOnUse"
       gradientTransform="matrix(0.71428571,0,0,0.71428571,0.57142857,0.57142857)" />
    <linearGradient
       inkscape:collect="always"
       id="linearGradient3147">
      <stop
         style="stop-color:#0091f9;stop-opacity:1;"
         offset="0"
         id="stop3143" />
      <stop
         style="stop-color:#41bbff;stop-opacity:1;"
         offset="1"
         id="stop3145" />
    </linearGradient>
  </defs>
  <rect
     style="opacity:0.2;fill:#000000;stroke-width:1.75"
     id="rect1"
     width="20"
     height="20"
     x="2"
     y="2.5"
     ry="4" />
  <rect
     style="fill:url(#linearGradient4);stroke-width:0.714286"
     id="rect2"
     width="20"
     height="20"
     x="2"
     y="2"
     ry="4" />
  <path
     id="path457"
     style="fill:#98d6fe;fill-opacity:1;stroke-width:0.5"
     d="M 7.2597656,3.5 C 6.5394087,3.5 5.9550781,4.2538366 5.9550781,4.9902344 L 5,5 C 4.7238576,5 4.5,5.2238576 4.5,5.5 V 6 h -1 C 2.6295161,6.0099834 2.5086844,6.0506857 2,6.8007812 V 18 c 0,1.657106 0.9978878,3.073028 2.4277344,3.681641 0.139767,-0.07642 0.2628976,-0.17389 0.3613281,-0.285157 C 5.2387209,20.86585 5.4900304,20.195461 5.5,19.5 v -4.142578 c 2.28e-5,-0.736398 -0.7796426,-1.333986 -1.5,-1.333984 -0.7203571,0 -1.5,-0.495372 -1.5,-1.232422 0,-0.736398 0.7796429,-1.333985 1.5,-1.333985 0.7203574,0 1.5,-0.596936 1.5,-1.333984 C 5.5,9.3866486 5.8870642,8.7910156 6.6074219,8.7910156 7.3277782,8.7910156 8,8.1940805 8,7.4570312 V 5.4765625 c 0,-0.3789421 0.2132957,-0.6875 0.5839844,-0.6875 C 8.955946,4.7662755 9.2390899,4.4407912 9.2167969,4.0605469 9.0716996,3.6672399 8.7170166,3.5227302 8.3320312,3.5019531 8.3125687,3.5085617 7.4767371,3.539845 7.2597656,3.5 Z M 8.3320312,3.50195 V 3.5 c -0.00205,-4.166e-4 -0.00951,0 -0.023437,0 0.00795,3.233e-4 0.015511,0.00153 0.023437,0.00195 z M 16.160156,6.7070312 C 15.519415,6.7070312 15,7.2375688 15,7.8925781 V 8.4003906 C 15,9.055401 14.478634,9.5859375 13.837891,9.5859375 13.067217,9.6445374 12.442677,10.330654 12.5,11.119141 v 2.072265 C 12.5,13.863996 13.082296,14.5 13.740234,14.5 14.442887,14.5 14.5,15.073593 14.5,15.626953 v 1.453125 c 0,0.7377 0.528369,1.419922 1.25,1.419922 0.720994,-6.5e-4 1.250636,-0.682873 1.25,-1.419922 v -2.251953 c 0,-0.540414 0.211429,-1.057907 0.585938,-1.439453 0.373871,-0.381546 0.881511,-0.594401 1.410156,-0.59375 l 0.693359,0.0039 c 0.307632,6.5e-4 0.604439,-0.123676 0.822266,-0.345703 0.217191,-0.222024 0.339844,-0.523408 0.339843,-0.837891 V 7.8925781 c 0,-0.6550093 -0.520731,-1.1855463 -1.162109,-1.1855469 z" />
  <path
     d="m 18.000196,10.5 v 7.05664 c 0,0.371802 -0.189588,0.726456 -0.500976,1.00586 -0.311388,0.279403 -0.736289,0.4375 -1,0.4375 h -5.531251 c -0.395951,0 -0.9767917,-0.06055 -1.3945307,-0.189453 -0.20887,-0.06445 -0.3738391,-0.148198 -0.451172,-0.207032 -0.07733,-0.05883 -0.05521,-0.05478 -0.05176,-0.0332 -0.09934,-0.621056 -0.10948,-1.092795 -0.125,-1.503907 -0.01552,-0.411111 0.0034,-0.804456 -0.262695,-1.24414 -0.2661506,-0.439688 -0.77797,-0.652769 -1.2939436,-0.732426 -0.5159735,-0.07966 -1.1554224,-0.08984 -2.0888675,-0.08984 v 1.5 c 0.9165536,0 1.5275371,0.02104 1.859375,0.07227 0.3318385,0.05123 0.265137,0.06848 0.2402345,0.02734 -0.024905,-0.04114 0.03208,0.131572 0.046875,0.523438 0.014795,0.391866 0.02789,0.960469 0.143555,1.683594 0.069069,0.431821 0.338601,0.77309 0.624023,0.990234 0.2854225,0.217144 0.5981145,0.347893 0.9169925,0.446289 0.6377551,0.196791 1.3102748,0.256835 1.8369138,0.256835 h 5.531251 c 0.737238,0 1.438105,-0.315357 2.001953,-0.821289 0.563848,-0.505932 0.999023,-1.248437 0.999023,-2.122071 V 10.5 Z"
     style="color:#000000;opacity:0.3;fill:#000000;stroke-width:0.5;-inkscape-stroke:none"
     id="path793"
     sodipodi:nodetypes="csssssscscsccsssssssssscc" />
  <path
     d="m 4.5000002,13.9995 c -0.8285214,0 -1.5,0.672455 -1.5,1.500976 0,0.828522 0.6714786,1.5 1.5,1.5 0.828522,0 1.4999999,-0.671478 1.4999999,-1.5 0,-0.828521 -0.6714779,-1.500976 -1.4999999,-1.500976 z m 14.2500008,0.001 c -0.414552,0 -0.75,0.335449 -0.75,0.75 0,0.41455 0.335448,0.75 0.75,0.75 0.41455,0 0.75,-0.33545 0.75,-0.75 0,-0.414551 -0.33545,-0.75 -0.75,-0.75 z m -11.5000008,1 c -0.4145515,0 -0.75,0.335449 -0.75,0.75 0,0.41455 0.3354485,0.75 0.75,0.75 0.4145505,0 0.75,-0.33545 0.75,-0.75 0,-0.414551 -0.3354495,-0.75 -0.75,-0.75 z m 11.5000008,2 c -0.414552,0 -0.75,0.335449 -0.75,0.75 0,0.41455 0.335448,0.75 0.75,0.75 0.41455,0 0.75,-0.33545 0.75,-0.75 0,-0.414551 -0.33545,-0.75 -0.75,-0.75 z m -10.5000008,0.5 c -0.4145515,0 -0.75,0.335449 -0.75,0.75 0,0.41455 0.3354485,0.75 0.75,0.75 0.4145511,0 0.75,-0.33545 0.75,-0.75 0,-0.414551 -0.3354489,-0.75 -0.75,-0.75 z m 2.4999998,1.5 c -0.414551,0 -0.75,0.335449 -0.75,0.75 0,0.41455 0.335449,0.75 0.75,0.75 0.414551,0 0.75,-0.33545 0.75,-0.75 0,-0.414551 -0.335449,-0.75 -0.75,-0.75 z m 3,0 c -0.414551,0 -0.75,0.335449 -0.75,0.75 0,0.41455 0.335449,0.75 0.75,0.75 0.414551,0 0.750001,-0.33545 0.750001,-0.75 0,-0.414551 -0.33545,-0.75 -0.750001,-0.75 z m 3.000001,0 c -0.414552,0 -0.75,0.335449 -0.75,0.75 0,0.41455 0.335448,0.75 0.75,0.75 0.41455,0 0.75,-0.33545 0.75,-0.75 0,-0.414551 -0.33545,-0.75 -0.75,-0.75 z"
     style="fill:#ffffff;stroke-width:0.5"
     id="path823" />
  <rect
     style="fill:#3a325a;fill-opacity:1;stroke-width:0.5"
     id="rect675"
     width="13"
     height="11"
     x="9"
     y="2"
     ry="2" />
  <path
     d="m 12.75,4 1.99939,5.8773929 1.304505,-1.094447 0.847961,0.996447 c 0.220885,0.2598001 0.615661,0.2953171 0.88086,0.07893 0.264525,-0.217047 0.300781,-0.602472 0.07989,-0.862271 L 17.003236,7.9857874 18.25,6.9386964 Z"
     style="fill:#ffffff;stroke-width:0.5"
     id="path3196" />
</svg>
