<?xml version="1.0" encoding="UTF-8" standalone="no"?>
<!-- Created with Inkscape (http://www.inkscape.org/) -->

<svg
   width="24"
   height="24"
   viewBox="0 0 24 24.000002"
   version="1.1"
   id="svg1"
   inkscape:version="1.4.2 (ebf0e940d0, 2025-05-08)"
   sodipodi:docname="preferences-desktop-emoticons.svg"
   xmlns:inkscape="http://www.inkscape.org/namespaces/inkscape"
   xmlns:sodipodi="http://sodipodi.sourceforge.net/DTD/sodipodi-0.dtd"
   xmlns:xlink="http://www.w3.org/1999/xlink"
   xmlns="http://www.w3.org/2000/svg"
   xmlns:svg="http://www.w3.org/2000/svg">
  <sodipodi:namedview
     id="namedview1"
     pagecolor="#ffffff"
     bordercolor="#000000"
     borderopacity="0.25"
     inkscape:showpageshadow="2"
     inkscape:pageopacity="0.0"
     inkscape:pagecheckerboard="0"
     inkscape:deskcolor="#d1d1d1"
     inkscape:document-units="px"
     inkscape:zoom="32.75"
     inkscape:cx="11.984733"
     inkscape:cy="12"
     inkscape:window-width="1920"
     inkscape:window-height="1011"
     inkscape:window-x="0"
     inkscape:window-y="0"
     inkscape:window-maximized="1"
     inkscape:current-layer="svg1" />
  <defs
     id="defs1">
    <linearGradient
       inkscape:collect="always"
       id="linearGradient1606">
      <stop
         style="stop-color:#eaebed;stop-opacity:1;"
         offset="0"
         id="stop1602" />
      <stop
         style="stop-color:#f9fafa;stop-opacity:1;"
         offset="1"
         id="stop1604" />
    </linearGradient>
    <linearGradient
       inkscape:collect="always"
       xlink:href="#linearGradient1606"
       id="linearGradient4"
       x1="16"
       y1="30"
       x2="16"
       y2="2"
       gradientUnits="userSpaceOnUse"
       gradientTransform="matrix(0.71428571,0,0,0.71428571,0.57142859,0.57142857)" />
    <linearGradient
       inkscape:collect="always"
       id="linearGradient2083">
      <stop
         style="stop-color:#ffde75;stop-opacity:1;"
         offset="0"
         id="stop2079" />
      <stop
         style="stop-color:#ffecab;stop-opacity:1;"
         offset="1"
         id="stop2081" />
    </linearGradient>
    <linearGradient
       inkscape:collect="always"
       xlink:href="#linearGradient2083"
       id="linearGradient2"
       x1="11"
       y1="21"
       x2="11"
       y2="1"
       gradientUnits="userSpaceOnUse"
       gradientTransform="translate(1,1)" />
  </defs>
  <rect
     style="opacity:0.2;fill:#000000;stroke-width:1.75"
     id="rect1"
     width="20"
     height="20"
     x="2"
     y="2.5"
     ry="4" />
  <rect
     style="fill:url(#linearGradient4);stroke-width:0.714286"
     id="rect2"
     width="20"
     height="20"
     x="2"
     y="2"
     ry="4" />
  <circle
     style="fill:url(#linearGradient2)"
     id="path1"
     cx="12"
     cy="12"
     r="8" />
  <path
     id="rect344"
     style="fill:#8c6d31;fill-opacity:1;stroke-width:4;stroke-linecap:round;stroke-linejoin:round"
     d="M 8,7 C 7.4460006,7 7,7.4460006 7,8 v 1 c 0,0.5539994 0.4460006,1 1,1 0.5539994,0 1,-0.4460006 1,-1 V 8 C 9,7.4460006 8.5539994,7 8,7 Z m 8,0 c -0.553999,0 -1,0.4460006 -1,1 v 1 c 0,0.5539994 0.446001,1 1,1 0.553999,0 1,-0.4460006 1,-1 V 8 C 17,7.4460006 16.553999,7 16,7 Z m -8,7 c -3e-7,1.656854 1.7908608,3 4,3 2.209139,0 4,-1.343146 4,-3 h -1 c 0,1.104569 -1.343145,2 -3,2 -1.656854,0 -3.0000003,-0.895431 -3,-2 z"
     sodipodi:nodetypes="sssssssssssssscsccscc" />
</svg>
