<?xml version="1.0" encoding="UTF-8" standalone="no"?>
<!-- Created with Inkscape (http://www.inkscape.org/) -->

<svg
   width="24"
   height="24"
   viewBox="0 0 24 24.000002"
   version="1.1"
   id="svg1"
   inkscape:version="1.4.2 (ebf0e940d0, 2025-05-08)"
   sodipodi:docname="preferences-desktop-notification-bell.svg"
   xmlns:inkscape="http://www.inkscape.org/namespaces/inkscape"
   xmlns:sodipodi="http://sodipodi.sourceforge.net/DTD/sodipodi-0.dtd"
   xmlns:xlink="http://www.w3.org/1999/xlink"
   xmlns="http://www.w3.org/2000/svg"
   xmlns:svg="http://www.w3.org/2000/svg">
  <sodipodi:namedview
     id="namedview1"
     pagecolor="#ffffff"
     bordercolor="#000000"
     borderopacity="0.25"
     inkscape:showpageshadow="2"
     inkscape:pageopacity="0.0"
     inkscape:pagecheckerboard="0"
     inkscape:deskcolor="#d1d1d1"
     inkscape:document-units="px"
     inkscape:zoom="32.75"
     inkscape:cx="11.984733"
     inkscape:cy="12"
     inkscape:window-width="1920"
     inkscape:window-height="1011"
     inkscape:window-x="0"
     inkscape:window-y="0"
     inkscape:window-maximized="1"
     inkscape:current-layer="svg1" />
  <defs
     id="defs1">
    <linearGradient
       inkscape:collect="always"
       xlink:href="#linearGradient868"
       id="linearGradient4"
       x1="16"
       y1="30"
       x2="16"
       y2="2"
       gradientUnits="userSpaceOnUse"
       gradientTransform="matrix(0.71428571,0,0,0.71428571,0.57142857,0.57142857)" />
    <linearGradient
       inkscape:collect="always"
       id="linearGradient868">
      <stop
         style="stop-color:#ff9e1d;stop-opacity:1;"
         offset="0"
         id="stop864" />
      <stop
         style="stop-color:#ffe32b;stop-opacity:1;"
         offset="1"
         id="stop866" />
    </linearGradient>
  </defs>
  <rect
     style="opacity:0.2;fill:#000000;stroke-width:1.75"
     id="rect1"
     width="20"
     height="20"
     x="2"
     y="2.5"
     ry="4" />
  <rect
     style="fill:url(#linearGradient4);stroke-width:0.714286"
     id="rect2"
     width="20"
     height="20"
     x="2"
     y="2"
     ry="4" />
  <path
     d="m 12.00004,5 c -0.554,0 -1,0.44602 -1,1 -2.3e-4,0.0111 -10e-6,0.0204 -3e-5,0.0312 -1.72799,0.44814 -3,1.96882 -3,3.96881 0,2.00524 6.9e-4,6.00001 -1.78125,6.00001 -0.11871,0 -0.21873,0.11154 -0.21875,0.24999 L 6,17.00002 18.00001,17 v -0.75 c 3e-5,-0.1385 -0.10051,-0.24982 -0.21875,-0.25 -1.78891,10e-6 -1.78125,-3.99511 -1.78125,-5.99999 0,-2 -1.27186,-3.52073 -3,-3.96876 3.4e-4,-0.0108 -2e-5,-0.0205 4e-5,-0.0312 0,-0.55401 -0.44602,-0.99999 -1.00001,-0.99999 z m -1.71875,13.00001 c 0.34604,0.59689 0.97915,1 1.71875,1 0.7396,0 1.3727,-0.40311 1.71875,-1.00001 z"
     style="color:#000000;display:inline;overflow:visible;visibility:visible;fill:#ffffff;fill-opacity:1;fill-rule:nonzero;stroke:none;stroke-width:4;marker:none;enable-background:accumulate"
     id="path478"
     sodipodi:nodetypes="cccsscccccscccccscc" />
</svg>
