<?xml version="1.0" encoding="UTF-8" standalone="no"?>
<!-- Created with Inkscape (http://www.inkscape.org/) -->

<svg
   width="24"
   height="24"
   viewBox="0 0 24 24.000002"
   version="1.1"
   id="svg1"
   inkscape:version="1.4.2 (ebf0e940d0, 2025-05-08)"
   sodipodi:docname="software-properties.svg"
   xmlns:inkscape="http://www.inkscape.org/namespaces/inkscape"
   xmlns:sodipodi="http://sodipodi.sourceforge.net/DTD/sodipodi-0.dtd"
   xmlns:xlink="http://www.w3.org/1999/xlink"
   xmlns="http://www.w3.org/2000/svg"
   xmlns:svg="http://www.w3.org/2000/svg">
  <sodipodi:namedview
     id="namedview1"
     pagecolor="#ffffff"
     bordercolor="#000000"
     borderopacity="0.25"
     inkscape:showpageshadow="2"
     inkscape:pageopacity="0.0"
     inkscape:pagecheckerboard="0"
     inkscape:deskcolor="#d1d1d1"
     inkscape:document-units="px"
     inkscape:zoom="33.125"
     inkscape:cx="12"
     inkscape:cy="12"
     inkscape:window-width="1920"
     inkscape:window-height="1010"
     inkscape:window-x="0"
     inkscape:window-y="0"
     inkscape:window-maximized="1"
     inkscape:current-layer="svg1" />
  <defs
     id="defs1">
    <linearGradient
       inkscape:collect="always"
       xlink:href="#linearGradient29166"
       id="linearGradient4"
       x1="16"
       y1="30"
       x2="16"
       y2="2"
       gradientUnits="userSpaceOnUse"
       gradientTransform="matrix(0.71428571,0,0,0.71428571,0.57142857,0.57142857)" />
    <linearGradient
       inkscape:collect="always"
       xlink:href="#linearGradient29166"
       id="linearGradient27618"
       x1="8"
       y1="18"
       x2="8"
       y2="-1.9999998"
       gradientUnits="userSpaceOnUse"
       gradientTransform="translate(4,3.9999998)" />
    <linearGradient
       inkscape:collect="always"
       id="linearGradient29166">
      <stop
         style="stop-color:#49525d;stop-opacity:1;"
         offset="0"
         id="stop29162" />
      <stop
         style="stop-color:#6a7a85;stop-opacity:1;"
         offset="1"
         id="stop29164" />
    </linearGradient>
  </defs>
  <rect
     style="opacity:0.2;fill:#000000;stroke-width:1.75"
     id="rect1"
     width="20"
     height="20"
     x="2"
     y="2.5"
     ry="4" />
  <rect
     style="fill:url(#linearGradient4);stroke-width:0.714286"
     id="rect2"
     width="20"
     height="20"
     x="2"
     y="2"
     ry="4" />
  <path
     id="rect465"
     style="opacity:0.6;fill:#ffffff;stroke-linecap:round;stroke-linejoin:round"
     d="m 13.754904,5.1501598 -1.402496,2.370277 a 4.5,4.5 0 0 1 1.369668,0.3221053 4.5,4.5 0 0 1 1.198506,0.7353249 L 15.602664,5.9155267 Z M 10.245283,5.1508914 8.3977213,5.9161767 9.0822455,8.5864752 A 4.5,4.5 0 0 1 11.649438,7.5231096 Z m 7.83854,3.2468297 -2.662643,0.6813533 a 4.5,4.5 0 0 1 1.063366,2.5671916 l 2.364563,-1.400983 z M 8.5832798,9.0816606 5.9155267,8.3973365 5.1501598,10.245096 7.5204363,11.647592 A 4.5,4.5 0 0 1 7.8425421,10.277925 4.5,4.5 0 0 1 8.5832798,9.0816606 Z m 7.9016972,3.2729904 a 4.5,4.5 0 0 1 -0.327519,1.367425 4.5,4.5 0 0 1 -0.740739,1.196263 l 2.667754,0.684325 0.765367,-1.84776 z m -8.9618673,-0.0041 -2.3722183,1.404155 0.7652847,1.847562 2.6702995,-0.684525 A 4.5,4.5 0 0 1 7.5231097,12.350562 Z m 7.3946443,3.062963 a 4.5,4.5 0 0 1 -2.567192,1.063365 l 1.404154,2.372218 1.847563,-0.765284 z m -5.8360935,0.0032 -0.684324,2.667753 1.8477595,0.765367 1.402496,-2.370276 a 4.5,4.5 0 0 1 -1.369667,-0.3221 4.5,4.5 0 0 1 -1.1962645,-0.740738 z" />
  <path
     id="path632"
     style="fill:#ffffff;stroke-linecap:round;stroke-linejoin:round"
     d="m 12,7 c -2.7614237,0 -5,2.2385763 -5,5 0,2.761424 2.2385763,5 5,5 2.761424,0 5,-2.238576 5,-5 0,-2.7614237 -2.238576,-5 -5,-5 z" />
  <path
     id="rect26374"
     style="fill:url(#linearGradient27618);fill-opacity:1;stroke-width:2;stroke-linecap:round;stroke-linejoin:round"
     d="M 11,8.9999998 V 13 h -1 l 2,2 2,-2 H 13 V 8.9999998 Z" />
</svg>
