<?xml version="1.0" encoding="UTF-8" standalone="no"?>
<!-- Created with Inkscape (http://www.inkscape.org/) -->

<svg
   width="24"
   height="24"
   viewBox="0 0 24 24.000002"
   version="1.1"
   id="svg1"
   inkscape:version="1.4.2 (ebf0e940d0, 2025-05-08)"
   sodipodi:docname="thermal-monitor.svg"
   xmlns:inkscape="http://www.inkscape.org/namespaces/inkscape"
   xmlns:sodipodi="http://sodipodi.sourceforge.net/DTD/sodipodi-0.dtd"
   xmlns:xlink="http://www.w3.org/1999/xlink"
   xmlns="http://www.w3.org/2000/svg"
   xmlns:svg="http://www.w3.org/2000/svg">
  <sodipodi:namedview
     id="namedview1"
     pagecolor="#ffffff"
     bordercolor="#000000"
     borderopacity="0.25"
     inkscape:showpageshadow="2"
     inkscape:pageopacity="0.0"
     inkscape:pagecheckerboard="0"
     inkscape:deskcolor="#d1d1d1"
     inkscape:document-units="px"
     inkscape:zoom="33.125"
     inkscape:cx="12"
     inkscape:cy="12"
     inkscape:window-width="1920"
     inkscape:window-height="1010"
     inkscape:window-x="0"
     inkscape:window-y="0"
     inkscape:window-maximized="1"
     inkscape:current-layer="svg1" />
  <defs
     id="defs1">
    <linearGradient
       inkscape:collect="always"
       xlink:href="#linearGradient1144"
       id="linearGradient4"
       x1="16"
       y1="30"
       x2="16"
       y2="2"
       gradientUnits="userSpaceOnUse"
       gradientTransform="matrix(0.71428571,0,0,0.71428571,0.57142857,0.57142857)" />
    <linearGradient
       inkscape:collect="always"
       id="linearGradient1144">
      <stop
         style="stop-color:#adb2b9;stop-opacity:1;"
         offset="0"
         id="stop1140" />
      <stop
         style="stop-color:#e0e2e4;stop-opacity:1;"
         offset="1"
         id="stop1142" />
    </linearGradient>
  </defs>
  <rect
     style="opacity:0.2;fill:#000000;stroke-width:1.75"
     id="rect1"
     width="20"
     height="20"
     x="2"
     y="2.5"
     ry="4" />
  <rect
     style="fill:url(#linearGradient4);stroke-width:0.714286"
     id="rect2"
     width="20"
     height="20"
     x="2"
     y="2"
     ry="4" />
  <path
     id="path20"
     style="fill:#666666;fill-opacity:1;fill-rule:evenodd"
     d="m 12,5 c -1.107998,0 -2,0.8920025 -2,2 v 4.5 c 0,0.0135 0.0034,0.02556 0.0039,0.03906 C 8.7657758,12.252034 8.0019353,13.571262 8,15 c 0,2.209137 1.7908632,4 4,4 2.209137,0 4,-1.790863 4,-4 C 15.9988,13.570565 15.234826,12.250431 13.996094,11.537109 13.996094,11.524109 14,11.512 14,11.5 V 7 C 14,5.8920025 13.107998,5 12,5 Z m 0,1 c 0.553998,0 1,0.4460015 1,1 v 5.175781 c 1.197184,0.423267 1.998218,1.554416 2,2.824219 0,1.656852 -1.343148,3 -3,3 -1.656852,0 -3,-1.343148 -3,-3 0.00178,-1.269803 0.8028166,-2.400952 2,-2.824219 V 7 c 0,-0.5539985 0.446002,-1 1,-1 z" />
  <path
     id="path22"
     style="fill:#f75f5f"
     d="m 11,10 v 2.173828 C 9.8025017,12.596828 9.0015,13.730002 9,15 c 0,1.656796 1.343203,3 3,3 1.656796,0 3,-1.343204 3,-3 -0.0018,-1.269798 -0.802802,-2.401019 -2,-2.824219 V 10 Z" />
</svg>
