<?xml version="1.0" encoding="UTF-8" standalone="no"?>
<!-- Created with Inkscape (http://www.inkscape.org/) -->

<svg
   width="24"
   height="24"
   viewBox="0 0 24 24.000002"
   version="1.1"
   id="svg1"
   inkscape:version="1.4.2 (ebf0e940d0, 2025-05-08)"
   sodipodi:docname="webapp-manager.svg"
   xmlns:inkscape="http://www.inkscape.org/namespaces/inkscape"
   xmlns:sodipodi="http://sodipodi.sourceforge.net/DTD/sodipodi-0.dtd"
   xmlns:xlink="http://www.w3.org/1999/xlink"
   xmlns="http://www.w3.org/2000/svg"
   xmlns:svg="http://www.w3.org/2000/svg">
  <sodipodi:namedview
     id="namedview1"
     pagecolor="#ffffff"
     bordercolor="#000000"
     borderopacity="0.25"
     inkscape:showpageshadow="2"
     inkscape:pageopacity="0.0"
     inkscape:pagecheckerboard="0"
     inkscape:deskcolor="#d1d1d1"
     inkscape:document-units="px"
     inkscape:zoom="32.75"
     inkscape:cx="11.984733"
     inkscape:cy="12"
     inkscape:window-width="1920"
     inkscape:window-height="1011"
     inkscape:window-x="0"
     inkscape:window-y="0"
     inkscape:window-maximized="1"
     inkscape:current-layer="svg1" />
  <defs
     id="defs1">
    <linearGradient
       inkscape:collect="always"
       xlink:href="#linearGradient2632"
       id="linearGradient4"
       x1="16"
       y1="30"
       x2="16"
       y2="2"
       gradientUnits="userSpaceOnUse"
       gradientTransform="matrix(0.71428571,0,0,0.71428571,0.57142857,0.57142857)" />
    <linearGradient
       inkscape:collect="always"
       id="linearGradient2632">
      <stop
         style="stop-color:#515e6f;stop-opacity:1;"
         offset="0"
         id="stop2628" />
      <stop
         style="stop-color:#7a899c;stop-opacity:1;"
         offset="1"
         id="stop2630" />
    </linearGradient>
  </defs>
  <rect
     style="opacity:0.2;fill:#000000;stroke-width:1.75"
     id="rect1"
     width="20"
     height="20"
     x="2"
     y="2.5"
     ry="4" />
  <rect
     style="fill:url(#linearGradient4);stroke-width:0.714286"
     id="rect2"
     width="20"
     height="20"
     x="2"
     y="2"
     ry="4" />
  <path
     style="fill:#2bb563"
     d="m 7.0003281,20 h 4.9999999 v 2 H 7.0003281 Z"
     id="path6" />
  <path
     id="path7"
     style="fill:#5057eb"
     d="M 2.53125,20 C 3.2209,21.197322 4.5135749,22 6,22 h 1 v -2 z" />
  <path
     id="path8"
     style="fill:#ffb73f"
     d="m 17,20 v 2 h 1 c 1.486425,0 2.7791,-0.802678 3.46875,-2 z" />
  <path
     style="fill:#e8475b"
     d="m 12.000328,20 h 5 v 2 h -5 z"
     id="path9" />
  <path
     d="M 12.75,8.0000002 C 11.733905,8.0018221 10.777138,8.4787603 10.164063,9.2890627 9.8052466,9.0996774 9.4057284,9.0004682 9.0000001,9.0000002 c -1.3807119,0 -2.5,1.1192878 -2.5,2.4999998 4.428e-4,0.172653 0.01877,0.344796 0.054687,0.513672 -0.8843153,0.09932 -1.5532942,0.846454 -1.554687,1.736328 0,0.966498 0.7835017,1.75 1.75,1.75 0.3455904,-3.03e-4 0.6833539,-0.102924 0.970703,-0.294922 C 7.5825084,14.914023 7.5000001,14.591895 7.5000001,14.25 c 0,-1.181754 0.9324647,-2.134177 2.09375,-2.21875 C 9.8282884,10.610496 11.015106,9.5000002 12.5,9.5000002 c 6.51e-4,1.3e-6 0.0013,1.3e-6 0.002,0 0.909554,10e-4 1.711172,0.4701953 2.275391,1.1660158 C 15.015072,10.592066 15.249625,10.50065 15.5,10.5 c 0.143446,0 0.284026,0.01516 0.419922,0.03906 C 15.587315,9.0553971 14.27049,8.0006393 12.75,8.0000002 Z M 12.5,10 c -1.380712,0 -2.5,1.119288 -2.5,2.5 6.2e-4,0.0072 0.0013,0.01433 0.002,0.02148 C 9.918597,12.50826 9.8343927,12.50108 9.75,12.5 8.7835017,12.5 8,13.283502 8,14.25 8,15.216498 8.7835017,16 9.75,16 H 17.5 C 18.328427,16 19,15.328427 19,14.5 19,13.671573 18.328427,13 17.5,13 c 0,-1.104569 -0.895431,-2 -2,-2 -0.300505,0.0011 -0.59691,0.06982 -0.867188,0.201172 C 14.179919,10.456316 13.371735,10.001157 12.5,10 Z"
     style="fill:#ffffff"
     id="path10620" />
</svg>
