<?xml version="1.0" encoding="UTF-8" standalone="no"?>
<!-- Created with Inkscape (http://www.inkscape.org/) -->

<svg
   width="24"
   height="24"
   viewBox="0 0 24 24.000002"
   version="1.1"
   id="svg1"
   inkscape:version="1.4 (e7c3feb100, 2024-10-09)"
   sodipodi:docname="xorg.svg"
   xmlns:inkscape="http://www.inkscape.org/namespaces/inkscape"
   xmlns:sodipodi="http://sodipodi.sourceforge.net/DTD/sodipodi-0.dtd"
   xmlns:xlink="http://www.w3.org/1999/xlink"
   xmlns="http://www.w3.org/2000/svg"
   xmlns:svg="http://www.w3.org/2000/svg">
  <sodipodi:namedview
     id="namedview1"
     pagecolor="#ffffff"
     bordercolor="#000000"
     borderopacity="0.25"
     inkscape:showpageshadow="2"
     inkscape:pageopacity="0.0"
     inkscape:pagecheckerboard="0"
     inkscape:deskcolor="#d1d1d1"
     inkscape:document-units="px"
     inkscape:zoom="32.75"
     inkscape:cx="12.015267"
     inkscape:cy="12"
     inkscape:window-width="1920"
     inkscape:window-height="1011"
     inkscape:window-x="0"
     inkscape:window-y="0"
     inkscape:window-maximized="1"
     inkscape:current-layer="svg1" />
  <defs
     id="defs1">
    <linearGradient
       inkscape:collect="always"
       xlink:href="#linearGradient1144"
       id="linearGradient4"
       x1="16"
       y1="30"
       x2="16"
       y2="2"
       gradientUnits="userSpaceOnUse"
       gradientTransform="matrix(0.71428571,0,0,0.71428571,0.57142857,0.57142857)" />
    <linearGradient
       inkscape:collect="always"
       xlink:href="#linearGradient3678"
       id="linearGradient3680"
       x1="11.2"
       y1="21.507999"
       x2="52.799999"
       y2="48.809299"
       gradientUnits="userSpaceOnUse"
       gradientTransform="matrix(0.40291121,0,0,0.40291121,-0.8876048,-1.6658131)" />
    <linearGradient
       inkscape:collect="always"
       id="linearGradient3678">
      <stop
         style="stop-color:#ec6e28;stop-opacity:1;"
         offset="0"
         id="stop3674" />
      <stop
         style="stop-color:#f3bf21;stop-opacity:1;"
         offset="1"
         id="stop3676" />
    </linearGradient>
    <linearGradient
       inkscape:collect="always"
       id="linearGradient1144">
      <stop
         style="stop-color:#adb2b9;stop-opacity:1;"
         offset="0"
         id="stop1140" />
      <stop
         style="stop-color:#e0e2e4;stop-opacity:1;"
         offset="1"
         id="stop1142" />
    </linearGradient>
  </defs>
  <rect
     style="opacity:0.2;fill:#000000;stroke-width:1.75"
     id="rect1"
     width="20"
     height="20"
     x="2"
     y="2.5"
     ry="4" />
  <rect
     style="fill:url(#linearGradient4);stroke-width:0.714286"
     id="rect2"
     width="20"
     height="20"
     x="2"
     y="2"
     ry="4" />
  <path
     d="M 5.5000002,5 10.5,11.841797 6.0000002,18 h 1 L 12.75,10.131836 9.0000002,5 Z M 17,5 11.25,12.868164 15,18 h 3.5 L 13.5,11.158203 18,5 Z"
     style="fill:#373a3d;stroke-width:1.01925"
     id="path1543" />
  <path
     id="path3649"
     style="fill:url(#linearGradient3680);fill-opacity:1;stroke-width:0.402911"
     d="m 12.004883,7 c -0.409076,0 -0.845895,0.03116 -1.239258,0.06836 0.700822,0.903003 1.282752,1.668151 1.952149,2.537109 C 12.342219,8.806699 11.569332,8.04037 11.835938,7.646485 12.100448,7.256789 12.587812,7.3222659 12.625,7.3222659 c 0.780438,0 1.53198,0.08725 2.234375,0.248047 l 0.164063,-0.223633 C 14.086388,7.1083569 13.069212,6.9999999 12.004883,7 Z m 4.227538,0.729492 -0.151367,0.212891 c 2.164275,0.8375311 3.627929,2.437335 3.627929,4.269531 0,2.69906 -3.173411,4.888672 -7.083983,4.888672 -3.9105708,0 -7.0859378,-2.189612 -7.0859378,-4.888672 0,-1.379265 0.829299,-2.6262379 2.16211,-3.5156249 l -0.519532,-0.710937 c -2.150434,0.997948 -3.55664,2.6417409 -3.55664,4.5029299 0,3.04266 3.754798,5.511718 8.3808598,5.511718 4.625535,0 8.379882,-2.467627 8.379882,-5.509765 0,-2.029139 -1.669013,-3.8037889 -4.153321,-4.760743 z" />
</svg>
