<?xml version="1.0" encoding="UTF-8" standalone="no"?>
<!-- Created with Inkscape (http://www.inkscape.org/) -->

<svg
   width="24"
   height="24"
   viewBox="0 0 24 24.000002"
   version="1.1"
   id="svg1"
   inkscape:version="1.4 (e7c3feb100, 2024-10-09)"
   sodipodi:docname="youtube.svg"
   xmlns:inkscape="http://www.inkscape.org/namespaces/inkscape"
   xmlns:sodipodi="http://sodipodi.sourceforge.net/DTD/sodipodi-0.dtd"
   xmlns="http://www.w3.org/2000/svg"
   xmlns:svg="http://www.w3.org/2000/svg">
  <sodipodi:namedview
     id="namedview1"
     pagecolor="#ffffff"
     bordercolor="#000000"
     borderopacity="0.25"
     inkscape:showpageshadow="2"
     inkscape:pageopacity="0.0"
     inkscape:pagecheckerboard="0"
     inkscape:deskcolor="#d1d1d1"
     inkscape:document-units="px"
     inkscape:zoom="32.75"
     inkscape:cx="12.015267"
     inkscape:cy="12"
     inkscape:window-width="1920"
     inkscape:window-height="1011"
     inkscape:window-x="0"
     inkscape:window-y="0"
     inkscape:window-maximized="1"
     inkscape:current-layer="svg1" />
  <defs
     id="defs1" />
  <rect
     style="opacity:0.2;fill:#000000;stroke-width:1.75"
     id="rect1"
     width="20"
     height="20"
     x="2"
     y="2.5"
     ry="4" />
  <rect
     style="fill:#fafafa;fill-opacity:1;stroke-width:0.714286"
     id="rect2"
     width="20"
     height="20"
     x="2"
     y="2"
     ry="4" />
  <path
     id="path1633"
     style="fill:#ff0000;fill-opacity:1;stroke-width:0.109398"
     d="m 12.249614,7 c 0,0 -4.684638,9e-4 -5.758408,0.2656236 C 5.91476,7.4138586 5.440465,7.8576136 5.282225,8.4081976 4.999654,9.4140726 5,12.000347 5,12.000347 c 0,0 -3.46e-4,2.597116 0.282225,3.592405 0.158241,0.550583 0.621233,0.983599 1.208981,1.131832 1.085072,0.275294 5.758408,0.275389 5.758408,0.275389 0,0 4.184524,-8.99e-4 5.258295,-0.265624 0.587749,-0.148235 1.050741,-0.581248 1.208982,-1.131832 0.282571,-1.005876 0.2832,-4.091791 0.2832,-4.091791 0,0 0.01056,-2.0966534 -0.2832,-3.1025284 C 18.55865,7.8576136 18.095658,7.4236226 17.507909,7.2753886 16.434138,7.000097 12.249614,7 12.249614,7 Z"
     sodipodi:nodetypes="ccccccccccccc" />
  <path
     d="m 10.000001,9 5,2.999981 -5,3.000019 z"
     style="fill:#ffffff;stroke-width:0.133984"
     id="path351" />
</svg>
