<?xml version="1.0" encoding="UTF-8" standalone="no"?>
<!-- Created with Inkscape (http://www.inkscape.org/) -->

<svg
   width="256"
   height="256"
   viewBox="0 0 256 256"
   version="1.1"
   id="svg5"
   xmlns:xlink="http://www.w3.org/1999/xlink"
   xmlns="http://www.w3.org/2000/svg"
   xmlns:svg="http://www.w3.org/2000/svg">
  <defs
     id="defs2">
    <linearGradient
       id="linearGradient3155">
      <stop
         style="stop-color:#60a53e;stop-opacity:1;"
         offset="0"
         id="stop3151" />
      <stop
         style="stop-color:#49883d;stop-opacity:1;"
         offset="1"
         id="stop3153" />
    </linearGradient>
    <linearGradient
       id="linearGradient3147">
      <stop
         style="stop-color:#38b053;stop-opacity:1;"
         offset="0"
         id="stop3143" />
      <stop
         style="stop-color:#6ec555;stop-opacity:1;"
         offset="1"
         id="stop3145" />
    </linearGradient>
    <linearGradient
       xlink:href="#linearGradient3147"
       id="linearGradient3149"
       x1="56"
       y1="55"
       x2="32"
       y2="13"
       gradientUnits="userSpaceOnUse"
       gradientTransform="matrix(4,0,0,4,3.0584644e-7,3.9999996)" />
    <linearGradient
       xlink:href="#linearGradient3155"
       id="linearGradient3157"
       x1="16"
       y1="7"
       x2="16"
       y2="24"
       gradientUnits="userSpaceOnUse"
       gradientTransform="matrix(4,0,0,4,3.0584644e-7,3.9999996)" />
  </defs>
  <path
     d="m 32,33 c -8.863992,0 -16,7.136008 -16,16 v 160 c 0,8.864 7.136008,16 16,16 h 192 c 8.864,0 16,-7.136 16,-16 V 73 c 0,-8.863992 -7.136,-16 -16,-16 H 128 L 112,41 c -5.4342,-5.280768 -7.13601,-8 -16,-8 z"
     style="opacity:0.3;fill:#000000;stroke-width:8"
     id="path1016" />
  <path
     id="rect184"
     style="fill:url(#linearGradient3157);fill-opacity:1;stroke-width:8"
     d="m 32,32 c -8.863992,0 -16,7.136006 -16,16 v 160 c 0,8.864 7.136008,16 16,16 h 192 c 8.864,0 16,-7.136 16,-16 V 72 c 0,-8.863992 -7.136,-16 -16,-16 H 128 L 112,40 c -5.50953,-5.034684 -7.13601,-8 -16,-8 z" />
  <path
     id="rect1043"
     style="fill:url(#linearGradient3149);fill-opacity:1;stroke-width:8"
     d="m 128,56 -16,16 c -5.33445,4.911808 -7.13601,8 -16,8 H 32 c -8.836548,0 -16,7.163448 -16,16 v 112 c 0,8.86398 7.136026,16 16,16 h 192 c 8.86398,0 16,-7.13602 16,-16 V 72 c 0,-8.863976 -7.13602,-16 -16,-16 z" />
  <path
     id="path3081"
     style="opacity:0.2;fill:#ffffff;stroke-width:8"
     d="m 128,56 -16,16 c -5.33442,4.911795 -7.13604,8 -16,8 H 32 c -8.836521,0 -16,7.163473 -16,16 v 1 c 0,-8.836531 7.163479,-16 16,-16 h 64 c 8.86396,0 10.66558,-3.088205 16,-8 l 16,-16 h 96 c 8.86395,0 16,7.136054 16,16 v -1 c 0,-8.863951 -7.13605,-16 -16,-16 z" />
  <path
     id="rect1841"
     style="opacity:0.4;fill:#000000;stroke-width:12;stroke-linecap:round;stroke-linejoin:round"
     d="M 31.980496,225.0831 H 223.98049 c 8.864,0 16,-7.136 16,-16 v -16 H 15.980496 v 16 c 0,8.864 7.136,16 16,16 z" />
  <path
     id="path3081-5"
     style="opacity:0.2;fill:#ffffff;stroke-width:8"
     d="m 31.980496,225.0831 c -8.836538,0 -16,-7.16346 -16,-16 v -1 c 0,8.83654 7.163462,16 16,16 H 223.98049 c 8.86396,0 16,-7.13603 16,-16 v 1 c 0,8.86397 -7.13604,16 -16,16 z" />
</svg>
