<?xml version="1.0" encoding="UTF-8" standalone="no"?>
<!-- Created with Inkscape (http://www.inkscape.org/) -->

<svg
   width="64"
   height="64"
   viewBox="0 0 64 64.000004"
   version="1.1"
   id="svg1"
   inkscape:version="1.4.2 (ebf0e940d0, 2025-05-08)"
   sodipodi:docname="cider.svg"
   xmlns:inkscape="http://www.inkscape.org/namespaces/inkscape"
   xmlns:sodipodi="http://sodipodi.sourceforge.net/DTD/sodipodi-0.dtd"
   xmlns:xlink="http://www.w3.org/1999/xlink"
   xmlns="http://www.w3.org/2000/svg"
   xmlns:svg="http://www.w3.org/2000/svg">
  <sodipodi:namedview
     id="namedview1"
     pagecolor="#ffffff"
     bordercolor="#000000"
     borderopacity="0.25"
     inkscape:showpageshadow="2"
     inkscape:pageopacity="0.0"
     inkscape:pagecheckerboard="0"
     inkscape:deskcolor="#d1d1d1"
     inkscape:document-units="px"
     inkscape:zoom="12.28125"
     inkscape:cx="31.959288"
     inkscape:cy="32"
     inkscape:window-width="1920"
     inkscape:window-height="1011"
     inkscape:window-x="0"
     inkscape:window-y="0"
     inkscape:window-maximized="1"
     inkscape:current-layer="svg1" />
  <defs
     id="defs1">
    <linearGradient
       inkscape:collect="always"
       xlink:href="#4852"
       id="linearGradient4"
       x1="16"
       y1="30"
       x2="16"
       y2="2"
       gradientUnits="userSpaceOnUse"
       gradientTransform="scale(2)" />
    <linearGradient
       inkscape:collect="always"
       id="4852">
      <stop
         style="stop-color:#272727;stop-opacity:1;"
         offset="0"
         id="stop14555" />
      <stop
         style="stop-color:#5d5d5d;stop-opacity:1;"
         offset="1"
         id="stop14557" />
    </linearGradient>
    <linearGradient
       inkscape:collect="always"
       xlink:href="#linearGradient1"
       id="linearGradient3"
       x1="8"
       y1="22"
       x2="8"
       y2="-6"
       gradientUnits="userSpaceOnUse"
       gradientTransform="matrix(2,0,0,2,16,16)" />
    <linearGradient
       id="linearGradient1"
       inkscape:collect="always">
      <stop
         style="stop-color:#f50057;stop-opacity:1;"
         offset="0"
         id="stop1" />
      <stop
         style="stop-color:#ff6299;stop-opacity:1;"
         offset="1"
         id="stop2" />
    </linearGradient>
  </defs>
  <rect
     style="opacity:0.2;fill:#000000;stroke-width:3.5"
     id="rect1"
     width="56"
     height="56"
     x="4"
     y="5"
     ry="12" />
  <rect
     style="fill:url(#linearGradient4);stroke-width:2"
     id="rect2"
     width="56"
     height="56"
     x="4"
     y="4"
     ry="12" />
  <circle
     style="fill:url(#linearGradient3);fill-opacity:1;stroke-width:2;stroke-linecap:round"
     id="path287"
     cx="32"
     cy="32"
     r="20" />
  <path
     d="m 32,20 c -6.627418,0 -12,5.372582 -12,12 0,6.627416 5.372582,12 12,12 6.627416,0 12,-5.372584 12,-12 0,-6.627418 -5.372584,-12 -12,-12 z m -0.0196,2 H 32 c 5.522848,0 10,4.477152 10,10 0,5.522848 -4.477152,10 -10,10 -5.522848,0 -10,-4.477152 -10,-10 -10e-6,-5.515228 4.46525,-9.989228 9.980468,-10 z m -2.9179,4.871094 C 28.465886,26.907982 28.000694,27.402248 28,28 v 4 4 c -0.0012,0.880818 0.959482,1.425724 1.714844,0.972656 L 33,35 36.285156,33.027344 c 0.773156,-0.466698 0.773156,-1.58799 0,-2.054688 L 33,29 29.714844,27.027344 c -0.19668,-0.11678 -0.424106,-0.17124 -0.652344,-0.15626 z"
     style="fill:#212121;stroke-width:2"
     id="path1" />
</svg>
