<?xml version="1.0" encoding="UTF-8" standalone="no"?>
<!-- Created with Inkscape (http://www.inkscape.org/) -->

<svg
   width="64"
   height="64"
   viewBox="0 0 64 64.000004"
   version="1.1"
   id="svg1"
   inkscape:version="1.4.2 (ebf0e940d0, 2025-05-08)"
   sodipodi:docname="cpu-x.svg"
   xmlns:inkscape="http://www.inkscape.org/namespaces/inkscape"
   xmlns:sodipodi="http://sodipodi.sourceforge.net/DTD/sodipodi-0.dtd"
   xmlns:xlink="http://www.w3.org/1999/xlink"
   xmlns="http://www.w3.org/2000/svg"
   xmlns:svg="http://www.w3.org/2000/svg">
  <sodipodi:namedview
     id="namedview1"
     pagecolor="#ffffff"
     bordercolor="#000000"
     borderopacity="0.25"
     inkscape:showpageshadow="2"
     inkscape:pageopacity="0.0"
     inkscape:pagecheckerboard="0"
     inkscape:deskcolor="#d1d1d1"
     inkscape:document-units="px"
     inkscape:zoom="12.4375"
     inkscape:cx="31.959799"
     inkscape:cy="32"
     inkscape:window-width="1920"
     inkscape:window-height="1011"
     inkscape:window-x="0"
     inkscape:window-y="0"
     inkscape:window-maximized="1"
     inkscape:current-layer="svg1"
     showguides="false" />
  <defs
     id="defs1">
    <linearGradient
       inkscape:collect="always"
       xlink:href="#4852"
       id="linearGradient4"
       x1="16"
       y1="30"
       x2="16"
       y2="2"
       gradientUnits="userSpaceOnUse"
       gradientTransform="scale(2)" />
    <linearGradient
       inkscape:collect="always"
       id="4852">
      <stop
         style="stop-color:#272727;stop-opacity:1;"
         offset="0"
         id="stop14555" />
      <stop
         style="stop-color:#5d5d5d;stop-opacity:1;"
         offset="1"
         id="stop14557" />
    </linearGradient>
    <linearGradient
       inkscape:collect="always"
       xlink:href="#linearGradient1993"
       id="linearGradient6"
       x1="11"
       y1="4"
       x2="11"
       y2="18"
       gradientUnits="userSpaceOnUse"
       gradientTransform="matrix(2.8571426,0,0,2.8571426,0.5714292,0.5714292)" />
    <linearGradient
       inkscape:collect="always"
       id="linearGradient1993">
      <stop
         style="stop-color:#e9e9e9;stop-opacity:1;"
         offset="0"
         id="stop1989" />
      <stop
         style="stop-color:#d0d0d0;stop-opacity:1;"
         offset="1"
         id="stop1991" />
    </linearGradient>
  </defs>
  <rect
     style="opacity:0.2;fill:#000000;stroke-width:3.5"
     id="rect1"
     width="56"
     height="56"
     x="4"
     y="5"
     ry="12" />
  <rect
     style="fill:url(#linearGradient4);stroke-width:2"
     id="rect2"
     width="56"
     height="56"
     x="4"
     y="4"
     ry="12" />
  <rect
     style="opacity:0.2;fill:#000000;stroke-width:5.71428"
     id="rect3"
     width="40"
     height="40"
     x="12"
     y="13"
     ry="8" />
  <rect
     style="fill:url(#linearGradient6);stroke-width:5.71428"
     id="rect4"
     width="40"
     height="40"
     x="12"
     y="12"
     ry="8" />
  <path
     d="m 33.522218,38.150726 c -2.24032,1.040148 -4.324618,1.032148 -5.724818,0.928132 -1.668238,-0.12002 -3.01163,-0.576086 -3.601714,-0.97614 -0.363652,-0.243634 -0.858124,-0.15162 -1.104558,0.212032 -0.246036,0.364052 -0.15082,0.860122 0.21283,1.104156 0.948536,0.644096 2.626774,1.120164 4.381426,1.248184 0.296042,0.02 0.620088,0.036 0.972138,0.036 1.524218,0 3.464496,-0.14802 5.536792,-1.112162 0.396056,-0.18402 0.56808,-0.656094 0.384054,-1.056152 -0.18402,-0.396056 -0.660094,-0.56768 -1.05615,-0.384054 z m 8.841262,-1.179772 c 0.07602,-6.908988 0.784112,-19.965652 -12.441776,-18.910702 -13.059866,1.05215 -9.596972,14.84612 -9.7918,19.46678 -0.17242,2.443954 -0.98374,5.432384 -2.129904,8.47282 h 3.530104 c 0.362852,-1.288186 0.62969,-2.564368 0.744506,-3.77654 0.212832,0.14802 0.440464,0.292042 0.683698,0.42806 0.395256,0.232034 0.734506,0.544074 1.094556,0.872122 0.84052,0.764112 1.793856,1.632232 3.656524,1.740252 0.12402,0.008 0.252036,0.012 0.372052,0.012 1.88427,0 3.172454,-0.824118 4.208602,-1.488214 0.49607,-0.316044 0.924132,-0.588084 1.32819,-0.720102 1.148164,-0.360052 2.148306,-0.940134 2.896412,-1.67624 0.11602,-0.11602 0.224032,-0.232032 0.328048,-0.35605 0.41606,1.528214 0.98814,3.24846 1.620232,4.964706 H 46 c -1.808258,-2.7964 -3.676526,-5.532788 -3.63652,-9.028892 z m -20.969396,-3.756538 -4e-4,-0.004 c -0.12962,-2.252322 0.949336,-4.148592 2.409946,-4.236606 1.460608,-0.08402 2.749592,1.67624 2.87761,3.932562 h 0.004 c 0.004,0.12002 0.008,0.240034 0.008,0.360052 -0.464066,0.11602 -0.880126,0.28404 -1.25418,0.48407 -0.0016,-0.02 -0.0028,-0.036 -0.0044,-0.052 v 0 c -0.12522,-1.280184 -0.808516,-2.248322 -1.527418,-2.160308 -0.718102,0.08802 -1.199372,1.19617 -1.074554,2.476352 v 0 c 0.0544,0.56008 0.215232,1.060152 0.438864,1.436206 -0.056,0.044 -0.213232,0.16002 -0.394058,0.292042 -0.13602,0.10002 -0.301242,0.220032 -0.50087,0.368052 -0.543678,-0.716102 -0.916132,-1.740248 -0.982942,-2.896414 z m 14.796514,5.5724 c -0.052,1.19217 -1.61223,2.312334 -3.048434,2.760398 l -0.012,0.004 c -0.596086,0.19602 -1.132162,0.536076 -1.696242,0.900128 -0.948136,0.604086 -1.932276,1.236176 -3.34848,1.236176 -0.09602,0 -0.19202,-0.004 -0.28404,-0.012 -1.300186,-0.07602 -1.907072,-0.628088 -2.675982,-1.328192 -0.406458,-0.372054 -0.826118,-0.752108 -1.366596,-1.072154 l -0.0116,-0.004 c -1.168168,-0.66009 -1.893072,-1.480216 -1.939478,-2.192314 -0.0228,-0.35605 0.13522,-0.664098 0.470068,-0.91613 0.728104,-0.543682 1.216172,-0.899734 1.538618,-1.135766 0.358852,-0.264038 0.467268,-0.34405 0.54688,-0.42006 0.0576,-0.052 0.11922,-0.11202 0.18602,-0.18002 0.668896,-0.648094 1.787856,-1.736248 3.5041,-1.736248 1.05215,0 2.212316,0.404058 3.448492,1.20017 0.584084,0.380056 1.092156,0.55608 1.736248,0.776112 0.440064,0.15202 0.940136,0.324046 1.612232,0.612088 l 0.012,0.004 c 0.62409,0.260036 1.364196,0.727708 1.32819,1.503818 z M 35.84655,35.986812 c -0.12002,-0.06 -0.244036,-0.11602 -0.376054,-0.17202 -0.604086,-0.260038 -1.088156,-0.432062 -1.492214,-0.572082 0.224032,-0.436062 0.360052,-0.98014 0.372054,-1.568224 v 0 c 0.032,-1.432204 -0.688098,-2.59237 -1.61223,-2.59637 -0.920132,-0.004 -1.692242,1.156164 -1.724246,2.58837 v 0 0.14002 c -0.568082,-0.260038 -1.128162,-0.448064 -1.67224,-0.568082 -0.004,-0.052 -0.008,-0.10802 -0.008,-0.16002 v 0 c -0.052,-2.612374 1.54822,-4.768682 3.57651,-4.82469 2.02829,-0.056 3.71253,2.016288 3.768538,4.62466 v 0 c 0.02,1.18017 -0.292042,2.268324 -0.832118,3.108444 z"
     style="opacity:0.4;fill:#000000;stroke-width:4.00058"
     id="path364" />
</svg>
