<?xml version="1.0" encoding="UTF-8" standalone="no"?>
<!-- Created with Inkscape (http://www.inkscape.org/) -->

<svg
   width="64"
   height="64"
   viewBox="0 0 64 64.000004"
   version="1.1"
   id="svg1"
   inkscape:version="1.4.2 (ebf0e940d0, 2025-05-08)"
   sodipodi:docname="desktop-environment-gnome.svg"
   xmlns:inkscape="http://www.inkscape.org/namespaces/inkscape"
   xmlns:sodipodi="http://sodipodi.sourceforge.net/DTD/sodipodi-0.dtd"
   xmlns:xlink="http://www.w3.org/1999/xlink"
   xmlns="http://www.w3.org/2000/svg"
   xmlns:svg="http://www.w3.org/2000/svg">
  <sodipodi:namedview
     id="namedview1"
     pagecolor="#ffffff"
     bordercolor="#000000"
     borderopacity="0.25"
     inkscape:showpageshadow="2"
     inkscape:pageopacity="0.0"
     inkscape:pagecheckerboard="0"
     inkscape:deskcolor="#d1d1d1"
     inkscape:document-units="px"
     inkscape:zoom="12.4375"
     inkscape:cx="31.959799"
     inkscape:cy="32"
     inkscape:window-width="1920"
     inkscape:window-height="1011"
     inkscape:window-x="0"
     inkscape:window-y="0"
     inkscape:window-maximized="1"
     inkscape:current-layer="svg1" />
  <defs
     id="defs1">
    <linearGradient
       inkscape:collect="always"
       xlink:href="#4852"
       id="linearGradient4"
       x1="16"
       y1="30"
       x2="16"
       y2="2"
       gradientUnits="userSpaceOnUse"
       gradientTransform="scale(2)" />
    <linearGradient
       inkscape:collect="always"
       id="4852">
      <stop
         style="stop-color:#272727;stop-opacity:1;"
         offset="0"
         id="stop14555" />
      <stop
         style="stop-color:#5d5d5d;stop-opacity:1;"
         offset="1"
         id="stop14557" />
    </linearGradient>
    <linearGradient
       inkscape:collect="always"
       id="linearGradient1453">
      <stop
         style="stop-color:#3d7fca;stop-opacity:1;"
         offset="0"
         id="stop1449" />
      <stop
         style="stop-color:#8baee9;stop-opacity:1;"
         offset="1"
         id="stop1451" />
    </linearGradient>
    <linearGradient
       inkscape:collect="always"
       xlink:href="#linearGradient1453"
       id="linearGradient2"
       x1="16"
       y1="30"
       x2="16"
       y2="2"
       gradientUnits="userSpaceOnUse"
       gradientTransform="scale(2)" />
  </defs>
  <rect
     style="opacity:0.2;fill:#000000;stroke-width:3.5"
     id="rect1"
     width="56"
     height="56"
     x="4"
     y="5"
     ry="12" />
  <rect
     style="fill:url(#linearGradient4);stroke-width:2"
     id="rect2"
     width="56"
     height="56"
     x="4"
     y="4"
     ry="12" />
  <path
     d="m 46.33482,10 c -8.885684,0 -10.549474,14 -5.550782,14 4.997978,0 14.436836,-14 5.550782,-14 z m -15.10547,2.03125 c -5.08204,0.68043 -3.291952,9.794456 -0.585936,9.964844 2.704916,0.1704 5.66981,-10.645271 0.585936,-9.964844 z m -8.191406,3.980468 c -0.25958,0.02252 -0.538632,0.0794 -0.835938,0.17968 -4.75778,1.605108 -0.723938,8.23438 1.941408,7.789062 2.50077,-0.41683 2.788286,-8.306612 -1.10547,-7.96875 z M 16.780132,22 c -0.42469,-0.0098 -0.882106,0.08584 -1.371094,0.316406 -3.910134,1.844776 1.316672,6.304438 3.617188,5.613282 C 21.039182,27.324668 19.752966,22.068316 16.780132,22 Z m 18.578126,2.003906 C 28.615614,23.879966 19.72276,27.553758 18.205914,34.933594 16.563112,42.919852 24.970984,54 33.74107,54 38.055498,54 43.028792,49.767756 43.95982,44.40625 44.27214,42.610498 42.710938,41.981052 40.889506,42 c -2.325472,0.0242 -5.07357,1.143094 -4.890624,2.660156 0.266384,2.210126 -1.10402,3.358552 -2.640624,3.394532 -2.097924,-0.26401 -3.126342,-1.521652 -3.402344,-3.421876 -0.37571,-4.989818 14.24156,-8.54408 13.042968,-16.28125 -0.438384,-2.829864 -3.59504,-4.273298 -7.640624,-4.347656 z"
     style="fill:url(#linearGradient2);stroke-width:2"
     id="path5913" />
</svg>
