<?xml version="1.0" encoding="UTF-8" standalone="no"?>
<!-- Created with Inkscape (http://www.inkscape.org/) -->

<svg
   width="64"
   height="64"
   viewBox="0 0 64 64.000004"
   version="1.1"
   id="svg1"
   inkscape:version="1.4.2 (ebf0e940d0, 2025-05-08)"
   sodipodi:docname="io.missioncenter.MissionCenter.svg"
   xmlns:inkscape="http://www.inkscape.org/namespaces/inkscape"
   xmlns:sodipodi="http://sodipodi.sourceforge.net/DTD/sodipodi-0.dtd"
   xmlns:xlink="http://www.w3.org/1999/xlink"
   xmlns="http://www.w3.org/2000/svg"
   xmlns:svg="http://www.w3.org/2000/svg">
  <sodipodi:namedview
     id="namedview1"
     pagecolor="#ffffff"
     bordercolor="#000000"
     borderopacity="0.25"
     inkscape:showpageshadow="2"
     inkscape:pageopacity="0.0"
     inkscape:pagecheckerboard="0"
     inkscape:deskcolor="#d1d1d1"
     inkscape:document-units="px"
     inkscape:zoom="12.28125"
     inkscape:cx="31.959288"
     inkscape:cy="32"
     inkscape:window-width="1920"
     inkscape:window-height="1011"
     inkscape:window-x="0"
     inkscape:window-y="0"
     inkscape:window-maximized="1"
     inkscape:current-layer="svg1" />
  <defs
     id="defs1">
    <linearGradient
       inkscape:collect="always"
       xlink:href="#4852"
       id="linearGradient4"
       x1="16"
       y1="30"
       x2="16"
       y2="2"
       gradientUnits="userSpaceOnUse"
       gradientTransform="scale(2)" />
    <linearGradient
       inkscape:collect="always"
       id="4852">
      <stop
         style="stop-color:#272727;stop-opacity:1;"
         offset="0"
         id="stop14555" />
      <stop
         style="stop-color:#5d5d5d;stop-opacity:1;"
         offset="1"
         id="stop14557" />
    </linearGradient>
    <linearGradient
       inkscape:collect="always"
       xlink:href="#linearGradient3147"
       id="linearGradient7416"
       x1="14"
       y1="46"
       x2="14"
       y2="18"
       gradientUnits="userSpaceOnUse"
       gradientTransform="matrix(2,0,0,2,4,-32)" />
    <linearGradient
       inkscape:collect="always"
       id="linearGradient3147">
      <stop
         style="stop-color:#0091f9;stop-opacity:1;"
         offset="0"
         id="stop3143" />
      <stop
         style="stop-color:#41bbff;stop-opacity:1;"
         offset="1"
         id="stop3145" />
    </linearGradient>
  </defs>
  <rect
     style="opacity:0.2;fill:#000000;stroke-width:3.5"
     id="rect1"
     width="56"
     height="56"
     x="4"
     y="5"
     ry="12" />
  <rect
     style="fill:url(#linearGradient4);stroke-width:2"
     id="rect2"
     width="56"
     height="52"
     x="4"
     y="4"
     ry="12" />
  <path
     id="rect7384"
     style="fill:url(#linearGradient7416);fill-opacity:1;stroke-width:4.73286;stroke-linecap:round;stroke-linejoin:round"
     d="M 18,20 C 10.923143,20 4,29.279576 4,34 v 4 10 c 0,6.648 5.352,12 12,12 h 32 c 6.534206,0 11.817176,-5.170728 11.996094,-11.660156 -0.0037,-4.396014 -0.01128,-8.3572 -0.02344,-8.371094 C 58.272292,38.055398 54.940116,33.964512 50,34 46.071284,34.02822 42.000152,37.97158 38,38 34.000004,38.02842 32.03501,35.290356 30,32 27.057082,26.582368 23.999994,20 18,20 Z" />
  <path
     id="rect10286"
     style="fill:#e7f3fa;stroke-width:2;stroke-linecap:round;stroke-linejoin:round;fill-opacity:1"
     d="m 14,16 v 3 h 1 v -2 h 2 v -1 z m 6,0 v 1 h 2 v 2 h 1 v -3 z m -6,6 v 3 h 3 v -1 h -2 v -2 z m 8,0 v 2 h -2 v 1 h 3 v -3 z m 24,8 v 3 h 1 v -2 h 2 v -1 z m 6,0 v 1 h 2 v 2 h 1 v -3 z m -6,6 v 3 h 3 v -1 h -2 v -2 z m 8,0 v 2 h -2 v 1 h 3 v -3 z" />
</svg>
