<?xml version="1.0" encoding="UTF-8" standalone="no"?>
<!-- Created with Inkscape (http://www.inkscape.org/) -->

<svg
   width="64"
   height="64"
   viewBox="0 0 64 64.000004"
   version="1.1"
   id="svg1"
   inkscape:version="1.4.2 (ebf0e940d0, 2025-05-08)"
   sodipodi:docname="kmines.svg"
   xmlns:inkscape="http://www.inkscape.org/namespaces/inkscape"
   xmlns:sodipodi="http://sodipodi.sourceforge.net/DTD/sodipodi-0.dtd"
   xmlns:xlink="http://www.w3.org/1999/xlink"
   xmlns="http://www.w3.org/2000/svg"
   xmlns:svg="http://www.w3.org/2000/svg">
  <sodipodi:namedview
     id="namedview1"
     pagecolor="#ffffff"
     bordercolor="#000000"
     borderopacity="0.25"
     inkscape:showpageshadow="2"
     inkscape:pageopacity="0.0"
     inkscape:pagecheckerboard="0"
     inkscape:deskcolor="#d1d1d1"
     inkscape:document-units="px"
     inkscape:zoom="12.421875"
     inkscape:cx="32"
     inkscape:cy="32"
     inkscape:window-width="1920"
     inkscape:window-height="1010"
     inkscape:window-x="0"
     inkscape:window-y="0"
     inkscape:window-maximized="1"
     inkscape:current-layer="svg1" />
  <defs
     id="defs1">
    <linearGradient
       id="linearGradient5"
       inkscape:collect="always">
      <stop
         style="stop-color:#cfcfcf;stop-opacity:1;"
         offset="0"
         id="stop4" />
      <stop
         style="stop-color:#f8f8f8;stop-opacity:1;"
         offset="1"
         id="stop5" />
    </linearGradient>
    <linearGradient
       inkscape:collect="always"
       xlink:href="#4852"
       id="linearGradient4"
       x1="16"
       y1="30"
       x2="16"
       y2="2"
       gradientUnits="userSpaceOnUse"
       gradientTransform="scale(2)" />
    <linearGradient
       inkscape:collect="always"
       id="4852">
      <stop
         style="stop-color:#272727;stop-opacity:1;"
         offset="0"
         id="stop14555" />
      <stop
         style="stop-color:#5d5d5d;stop-opacity:1;"
         offset="1"
         id="stop14557" />
    </linearGradient>
    <linearGradient
       inkscape:collect="always"
       xlink:href="#linearGradient5"
       id="linearGradient15762"
       x1="32"
       y1="52"
       x2="32"
       y2="12"
       gradientUnits="userSpaceOnUse"
       gradientTransform="translate(4.09e-4)" />
  </defs>
  <rect
     style="opacity:0.2;fill:#000000;stroke-width:3.5"
     id="rect1"
     width="56"
     height="56"
     x="4"
     y="5"
     ry="12" />
  <rect
     style="fill:url(#linearGradient4);stroke-width:2"
     id="rect2"
     width="56"
     height="56"
     x="4"
     y="4"
     ry="12" />
  <path
     id="path2634"
     style="fill:url(#linearGradient15762);stroke-width:4;stroke-linecap:round;stroke-linejoin:round"
     d="m 32.00041,12 c -1.107994,0 -2,0.892006 -2,2 v 4 c 0,1.107994 0.892006,2 2,2 1.107992,0 1.999998,-0.892006 1.999998,-2 v -4 c 0,-1.107994 -0.892006,-2 -1.999998,-2 z m 3.999998,4.511718 V 18 c 0,2.215986 -1.784014,4 -3.999998,4 -2.215986,0 -4,-1.784014 -4,-4 v -1.460938 c -2.801618,0.730442 -5.354492,2.207398 -7.382812,4.273438 l 1.257812,0.722656 C 23.794508,22.64315 24.448246,25.080902 23.340254,27 22.23226,28.919098 19.794508,29.572834 17.87541,28.464844 L 16.598066,27.726562 C 16.206796,29.11752 16.00575,30.55507 16.00041,32 c 0.0054,1.44493 0.206386,2.88248 0.597656,4.273438 L 17.87541,35.535156 C 18.475126,35.18891 19.125436,35.017408 19.76994,35 c 1.417914,-0.0383 2.808568,0.68062 3.570314,2 1.107992,1.919098 0.454254,4.356848 -1.464844,5.464844 L 20.617598,43.1875 c 2.02832,2.06604 4.581194,3.542996 7.382812,4.273438 V 46 c 0,-2.215986 1.784014,-4 4,-4 2.215984,0 3.999998,1.784014 3.999998,4 v 1.460938 C 38.802026,46.730496 41.3549,45.25354 43.38322,43.1875 L 42.125408,42.464844 C 40.206312,41.356848 39.552574,38.919098 40.660564,37 c 0.761748,-1.31938 2.152398,-2.0383 3.570314,-2 0.644502,0.0174 1.294814,0.1889 1.89453,0.535156 l 1.277344,0.738282 C 47.794022,34.88248 47.99507,33.44493 48.000408,32 c -0.0018,-1.445792 -0.19762,-2.884674 -0.585938,-4.277344 l -1.289062,0.742188 C 44.206312,29.572834 41.76856,28.919098 40.660564,27 c -1.10799,-1.919098 -0.454252,-4.35685 1.464844,-5.464844 l 1.289062,-0.742188 c -2.03681,-2.073344 -4.59991,-3.554684 -7.414062,-4.28125 z M 16.273846,21.003906 C 15.63391,21.048646 15.026342,21.40028 14.680096,22 c -0.553998,0.959554 -0.229082,2.180378 0.73047,2.734376 l 3.464844,2 C 19.83496,27.288372 21.055786,26.959552 21.609786,26 22.16378,25.040448 21.834962,23.819624 20.87541,23.265624 l -3.464844,-2 c -0.35983,-0.207746 -0.752756,-0.288558 -1.13672,-0.261718 z m 31.167968,0 c -0.29046,0.0217 -0.585594,0.1059 -0.855468,0.261718 l -3.460938,2 c -0.959552,0.554 -1.288372,1.774824 -0.734374,2.734376 0.554,0.959552 1.774824,1.288372 2.734374,0.734376 l 3.460938,-2 C 49.545898,24.180378 49.874722,22.959554 49.32072,22 c -0.346246,-0.59972 -0.953808,-0.951358 -1.59375,-0.996094 -0.096,-0.0066 -0.18834,-0.0072 -0.285156,0 z M 32.00041,26 c 3.313698,0 5.999998,2.6863 5.999998,6 0,3.3137 -2.6863,6 -5.999998,6 -3.3137,0 -6,-2.6863 -6,-6 0,-3.3137 2.6863,-6 6,-6 z m 0,2 c -2.209134,0 -4,1.790866 -4,4 0,2.209134 1.790866,4 4,4 2.209132,0 3.999998,-1.790866 3.999998,-4 0,-2.209134 -1.790866,-4 -3.999998,-4 z m -12.273438,9.003906 c -0.29046,0.0217 -0.58169,0.1059 -0.851562,0.261718 l -3.464844,2 c -0.959552,0.554 -1.284468,1.774824 -0.73047,2.734376 0.553996,0.959552 1.770918,1.288372 2.73047,0.734376 l 3.464844,-2 c 0.959552,-0.554 1.288372,-1.774824 0.734376,-2.734376 -0.34625,-0.59972 -0.953814,-0.95136 -1.593754,-0.996094 -0.09598,-0.0066 -0.19224,-0.0072 -0.28906,0 z m 24.257812,0 C 43.344848,37.048646 42.737282,37.40028 42.391034,38 c -0.553996,0.959552 -0.225176,2.180376 0.734374,2.734376 l 3.460938,2 c 0.959552,0.553996 2.18038,0.225176 2.734374,-0.734376 0.554002,-0.959552 0.225178,-2.180376 -0.734374,-2.734376 l -3.460938,-2 c -0.35983,-0.207746 -0.756662,-0.288558 -1.140624,-0.261718 z M 32.00041,44 c -1.107994,0 -2,0.892008 -2,2 v 4 c 0,1.107994 0.892006,2 2,2 1.107992,0 1.999998,-0.892006 1.999998,-2 v -4 c 0,-1.107992 -0.892006,-2 -1.999998,-2 z" />
</svg>
