<?xml version="1.0" encoding="UTF-8" standalone="no"?>
<!-- Created with Inkscape (http://www.inkscape.org/) -->

<svg
   width="64"
   height="64"
   viewBox="0 0 64 64.000004"
   version="1.1"
   id="svg1"
   inkscape:version="1.4.2 (ebf0e940d0, 2025-05-08)"
   sodipodi:docname="libreoffice-draw.svg"
   xmlns:inkscape="http://www.inkscape.org/namespaces/inkscape"
   xmlns:sodipodi="http://sodipodi.sourceforge.net/DTD/sodipodi-0.dtd"
   xmlns:xlink="http://www.w3.org/1999/xlink"
   xmlns="http://www.w3.org/2000/svg"
   xmlns:svg="http://www.w3.org/2000/svg">
  <sodipodi:namedview
     id="namedview1"
     pagecolor="#ffffff"
     bordercolor="#000000"
     borderopacity="0.25"
     inkscape:showpageshadow="2"
     inkscape:pageopacity="0.0"
     inkscape:pagecheckerboard="0"
     inkscape:deskcolor="#d1d1d1"
     inkscape:document-units="px"
     inkscape:zoom="12.28125"
     inkscape:cx="32.040712"
     inkscape:cy="32"
     inkscape:window-width="1920"
     inkscape:window-height="1011"
     inkscape:window-x="0"
     inkscape:window-y="0"
     inkscape:window-maximized="1"
     inkscape:current-layer="svg1" />
  <defs
     id="defs1">
    <linearGradient
       inkscape:collect="always"
       xlink:href="#4852"
       id="linearGradient4"
       x1="16"
       y1="30"
       x2="16"
       y2="2"
       gradientUnits="userSpaceOnUse"
       gradientTransform="scale(2)" />
    <linearGradient
       inkscape:collect="always"
       id="4852">
      <stop
         style="stop-color:#272727;stop-opacity:1;"
         offset="0"
         id="stop14555" />
      <stop
         style="stop-color:#5d5d5d;stop-opacity:1;"
         offset="1"
         id="stop14557" />
    </linearGradient>
  </defs>
  <rect
     style="opacity:0.2;fill:#000000;stroke-width:3.5"
     id="rect1"
     width="56"
     height="56"
     x="4"
     y="5"
     ry="12" />
  <rect
     style="fill:url(#linearGradient4);stroke-width:2"
     id="rect2"
     width="56"
     height="56"
     x="4"
     y="4"
     ry="12" />
  <path
     id="rect292"
     style="fill:#ffffff;stroke-width:2;stroke-linecap:round;stroke-linejoin:round"
     d="m 36.000001,24.000001 c -1.107998,0 -2,0.892002 -2,2 v 10 c 0,1.107998 0.892002,2 2,2 h 10 c 1.107998,0 2,-0.892002 2,-2 v -10 c 0,-1.107998 -0.892002,-2 -2,-2 z m 0,2 h 10 v 10 h -10 z"
     sodipodi:nodetypes="sssssssssccccc" />
  <circle
     style="fill:#ffffff;stroke-width:1.6;stroke-linecap:round;stroke-linejoin:round"
     id="path452"
     cx="24"
     cy="28"
     r="8" />
  <path
     id="path2642"
     style="color:#000000;fill:#fde9b6;fill-opacity:1;stroke:none;stroke-width:2;stroke-linecap:round;stroke-linejoin:round;-inkscape-stroke:none"
     d="m 30.000001,28.000001 c -0.329378,-1.3e-5 -0.637642,0.162155 -0.824218,0.433594 l -9.000001,14 c -0.455866,0.663559 0.01916,1.566328 0.824219,1.566406 h 18 c 0.805061,-7.9e-5 1.280083,-0.902847 0.824218,-1.566406 l -9,-14 c -0.186576,-0.271439 -0.49484,-0.433607 -0.824218,-0.433594 z"
     sodipodi:nodetypes="cccccccc" />
</svg>
