<?xml version="1.0" encoding="UTF-8" standalone="no"?>
<!-- Created with Inkscape (http://www.inkscape.org/) -->

<svg
   width="64"
   height="64"
   viewBox="0 0 64 64.000004"
   version="1.1"
   id="svg1"
   inkscape:version="1.4.2 (ebf0e940d0, 2025-05-08)"
   sodipodi:docname="lutris.svg"
   xmlns:inkscape="http://www.inkscape.org/namespaces/inkscape"
   xmlns:sodipodi="http://sodipodi.sourceforge.net/DTD/sodipodi-0.dtd"
   xmlns:xlink="http://www.w3.org/1999/xlink"
   xmlns="http://www.w3.org/2000/svg"
   xmlns:svg="http://www.w3.org/2000/svg">
  <sodipodi:namedview
     id="namedview1"
     pagecolor="#ffffff"
     bordercolor="#000000"
     borderopacity="0.25"
     inkscape:showpageshadow="2"
     inkscape:pageopacity="0.0"
     inkscape:pagecheckerboard="0"
     inkscape:deskcolor="#d1d1d1"
     inkscape:document-units="px"
     inkscape:zoom="12.4375"
     inkscape:cx="31.959799"
     inkscape:cy="32"
     inkscape:window-width="1920"
     inkscape:window-height="1011"
     inkscape:window-x="0"
     inkscape:window-y="0"
     inkscape:window-maximized="1"
     inkscape:current-layer="svg1" />
  <defs
     id="defs1">
    <linearGradient
       inkscape:collect="always"
       xlink:href="#4852"
       id="linearGradient4"
       x1="16"
       y1="30"
       x2="16"
       y2="2"
       gradientUnits="userSpaceOnUse"
       gradientTransform="scale(2)" />
    <linearGradient
       inkscape:collect="always"
       id="4852">
      <stop
         style="stop-color:#272727;stop-opacity:1;"
         offset="0"
         id="stop14555" />
      <stop
         style="stop-color:#5d5d5d;stop-opacity:1;"
         offset="1"
         id="stop14557" />
    </linearGradient>
    <radialGradient
       inkscape:collect="always"
       xlink:href="#linearGradient6438"
       id="radialGradient6442"
       cx="8.75"
       cy="8.75"
       fx="8.75"
       fy="8.75"
       r="4.5"
       gradientUnits="userSpaceOnUse"
       gradientTransform="matrix(3.3332727,-0.02007768,0.03011705,4.9999993,5.570344,-9.5740973)" />
    <linearGradient
       inkscape:collect="always"
       id="linearGradient6438">
      <stop
         style="stop-color:#ffba00;stop-opacity:1;"
         offset="0"
         id="stop6434" />
      <stop
         style="stop-color:#ff7f02;stop-opacity:1;"
         offset="1"
         id="stop6436" />
    </linearGradient>
    <linearGradient
       inkscape:collect="always"
       xlink:href="#linearGradient2743"
       id="linearGradient19938"
       x1="10"
       y1="10"
       x2="10.00338"
       y2="23.738506"
       gradientUnits="userSpaceOnUse"
       gradientTransform="matrix(1.9999998,0,0,1.9999998,2.8834403e-6,2.2178338e-4)" />
    <linearGradient
       inkscape:collect="always"
       id="linearGradient2743">
      <stop
         style="stop-color:#794d3b;stop-opacity:1;"
         offset="0"
         id="stop2739" />
      <stop
         style="stop-color:#5e3c2e;stop-opacity:1;"
         offset="1"
         id="stop2741" />
    </linearGradient>
    <linearGradient
       inkscape:collect="always"
       xlink:href="#linearGradient4978"
       id="linearGradient19954"
       x1="16.892727"
       y1="16.459864"
       x2="16.892727"
       y2="10.459863"
       gradientUnits="userSpaceOnUse"
       gradientTransform="matrix(1.9999998,0,0,1.9999998,2.8834403e-6,2.2178338e-4)" />
    <linearGradient
       inkscape:collect="always"
       id="linearGradient4978">
      <stop
         style="stop-color:#e5dfdd;stop-opacity:1;"
         offset="0"
         id="stop4974" />
      <stop
         style="stop-color:#ffffff;stop-opacity:1;"
         offset="1"
         id="stop4976" />
    </linearGradient>
    <linearGradient
       inkscape:collect="always"
       xlink:href="#linearGradient2743"
       id="linearGradient19946"
       x1="10.00338"
       y1="9.7385073"
       x2="10.00338"
       y2="23.738506"
       gradientUnits="userSpaceOnUse"
       gradientTransform="matrix(1.9999998,0,0,1.9999998,2.8834403e-6,2.2178338e-4)" />
  </defs>
  <rect
     style="opacity:0.2;fill:#000000;stroke-width:3.5"
     id="rect1"
     width="56"
     height="56"
     x="4"
     y="5"
     ry="12" />
  <rect
     style="fill:url(#linearGradient4);stroke-width:2"
     id="rect2"
     width="56"
     height="56"
     x="4"
     y="4"
     ry="12" />
  <circle
     style="fill:url(#radialGradient6442);fill-opacity:1;stroke-width:13.3334;stroke-linecap:round;stroke-linejoin:round"
     id="path681"
     cx="35"
     cy="34.000221"
     r="14.999999" />
  <path
     d="m 31.365696,12.001112 c -10.462973,-0.0094 -19.083894,8.607009 -19.358937,19.476122 -0.279739,11.04164 8.158097,20.226476 18.845281,20.515164 5.206616,0.140546 9.98483,-1.856599 13.550472,-5.218634 0.380723,-0.317648 0.587877,-0.515614 0.587877,-0.515614 0,0 3.866616,-4.058186 4.074131,-7.408034 -0.986616,1.629958 -1.891637,3.261954 -4.347562,4.470604 -1.126321,0.521731 -2.158693,0.965628 -3.199145,1.316378 -0.06661,0.01717 -0.133515,0.03269 -0.201172,0.04883 -0.492814,0.117657 -1.009325,0.21643 -1.550745,0.291004 -0.06564,0.0091 -0.13299,0.01717 -0.199212,0.02541 -0.561521,0.07121 -1.141317,0.123051 -1.740196,0.148445 -0.06166,0.0026 -0.125556,0.0018 -0.187495,0.004 -0.590814,0.02022 -1.195071,0.01859 -1.808556,-0.0061 -0.04004,-0.0016 -0.07903,-1.73e-4 -0.119131,-0.002 -0.623879,-0.02766 -1.256539,-0.08424 -1.890582,-0.158202 -0.09046,-0.01071 -0.180949,-0.01798 -0.271478,-0.02931 -0.617198,-0.0784 -1.23415,-0.18204 -1.847612,-0.304679 -0.09909,-0.02 -0.198021,-0.03957 -0.296871,-0.06054 -0.600331,-0.127394 -1.195277,-0.276925 -1.779255,-0.447254 -0.187232,-0.05461 -0.373767,-0.110849 -0.558581,-0.16994 -0.139677,-0.04463 -0.279851,-0.08758 -0.417958,-0.134747 -0.197374,-0.06741 -0.390178,-0.140283 -0.583974,-0.212887 -0.15804,-0.05919 -0.31723,-0.11701 -0.472644,-0.179677 -0.180101,-0.07265 -0.355059,-0.151192 -0.531241,-0.228511 -0.149333,-0.06554 -0.301002,-0.128404 -0.447254,-0.197273 -0.318406,-0.149939 -0.6314,-0.306767 -0.93356,-0.472662 -0.240468,-0.133031 -0.469323,-0.272289 -0.68748,-0.41796 -0.501008,-0.334533 -0.938275,-0.703248 -1.330051,-1.08982 -2.039646,-2.081438 -1.944949,-4.528824 -1.837848,-6.115095 0.134929,-1.992529 1.805452,-6.364179 7.302569,-8.67949 3.39644,-1.199241 7.390917,-2.037964 10.730226,-0.962869 2.511905,0.566757 4.318164,1.390881 6.706883,2.234323 0,0 -0.0196,0.04158 0.640608,0.205075 4.645561,0.735889 4.124099,-3.0912 4.124099,-3.0912 l -0.364134,-0.895606 v 0 c -0.08055,-0.471952 0.272958,-0.844162 0.272958,-0.844162 0,0 -0.286346,-1.055321 -0.238087,-1.752769 0.04893,-0.697126 0.0095,-1.590719 -0.142566,-2.865172 -0.152,-1.274543 -0.988527,-1.782164 -1.259733,-1.980277 -0.271822,-0.197777 -1.5384,-1.152602 -2.751889,-1.62887 -1.214232,-0.476271 -2.441438,-0.828246 -3.953038,-0.615218 -0.167838,0.02374 -0.326697,0.0494 -0.492174,0.07422 -0.02931,-0.0095 -0.05228,-0.02 -0.08398,-0.02931 -0.576412,-0.17118 -0.984147,-1.10396 -1.455046,-1.092678 -0.03604,8.64e-4 -0.07249,0.004 -0.109394,0.0078 -0.03632,0.0038 -0.07402,0.0086 -0.111313,0.0156 h -0.002 c -0.03806,0.0072 -0.0759,0.01661 -0.115232,0.02734 -0.04293,0.0116 -0.0843,0.02692 -0.123031,0.04492 -0.275573,0.128101 -0.444392,0.610264 -0.548773,0.92652 -2.417814,-1.222102 -5.121214,-1.940278 -7.988101,-2.017532 -0.16697,-0.0046 -0.331958,-0.0076 -0.498036,-0.0078 z m -5.671745,10.751712 c -0.675168,0.49027 -3.327236,2.439571 -4.939341,5.156135 1.612105,-2.716562 2.38427,-3.443695 4.939341,-5.156135 z m 17.038676,21.517092 c -0.354935,0.132283 -0.740222,0.24422 -1.136689,0.347648 0.396245,-0.103353 0.781992,-0.215462 1.136689,-0.347648 z"
     style="fill:url(#linearGradient19938);fill-opacity:1;stroke-width:2"
     id="path13418"
     sodipodi:nodetypes="cccccccccccccscccccscscssccsccccccccsccscccccsccccccccccccccc" />
  <path
     id="path24683"
     style="opacity:0.2;fill:#ffffff;fill-opacity:1;stroke-width:2"
     d="m 31.367188,12.000008 c -10.462955,-0.0094 -19.08433,8.60747 -19.359376,19.476562 -0.0077,0.30433 -0.0052,0.607042 0.002,0.908204 0.321343,-10.825503 8.922125,-19.394139 19.355422,-19.384766 0.166078,2e-4 0.331077,0.0032 0.498047,0.0078 2.866881,0.07725 5.570473,0.795479 7.988281,2.017579 0.104381,-0.316256 0.273257,-0.797681 0.548829,-0.925782 0.03873,-0.018 0.08012,-0.03332 0.123047,-0.04492 0.03933,-0.01073 0.07717,-0.02014 0.115234,-0.02734 h 0.002 c 0.03729,-0.007 0.07501,-0.01182 0.111328,-0.01563 0.0369,-0.0038 0.07334,-0.0069 0.109375,-0.0078 0.470898,-0.01128 0.878667,0.920617 1.455078,1.091797 0.0317,0.0093 0.05467,0.0198 0.08398,0.0293 0.165476,-0.02482 0.324349,-0.05048 0.492187,-0.07422 1.511597,-0.213028 2.738895,0.138965 3.953125,0.615235 1.213487,0.476267 2.480132,1.43113 2.751953,1.628906 0.271206,0.198113 1.107767,0.705928 1.259766,1.980469 0.07967,0.667665 0.127107,1.2258 0.148437,1.710937 0.03442,-0.674995 -0.0048,-1.521942 -0.146484,-2.708984 -0.152,-1.274541 -0.990513,-1.78236 -1.261719,-1.980469 -0.271823,-0.197778 -1.536514,-1.152644 -2.75,-1.628906 -1.214231,-0.476271 -2.441528,-0.830216 -3.953125,-0.617188 -0.167838,0.02374 -0.32671,0.0494 -0.492187,0.07422 -0.02931,-0.0095 -0.05422,-0.01799 -0.08594,-0.02734 -0.576411,-0.171179 -0.982231,-1.105032 -1.453125,-1.09375 -0.03604,8.64e-4 -0.07247,0.004 -0.109375,0.0078 -0.03632,0.0038 -0.07595,0.0086 -0.113281,0.01563 -0.03804,0.0072 -0.07784,0.0166 -0.117187,0.02734 -0.04293,0.0116 -0.08232,0.02888 -0.121094,0.04687 -0.275574,0.128101 -0.4464,0.609526 -0.550782,0.925782 -2.417899,-1.222103 -5.121439,-1.94227 -7.988321,-2.019524 -0.166969,-0.0046 -0.330017,-0.0076 -0.496093,-0.0078 z m 19.648437,9.685547 c -0.0014,0.09326 -0.0057,0.180621 -0.0098,0.267578 0.01131,0.24987 0.0142,0.477141 0.01172,0.689453 0.0066,0.06895 0.0107,0.137852 0.01953,0.207031 0.01448,-0.09366 0.02656,-0.186897 0.03516,-0.294921 0.03802,0.243125 0.05628,0.399924 0.06641,0.482421 0.05442,-0.08737 0.09961,-0.142578 0.09961,-0.142578 0,0 -0.1644,-0.609914 -0.222656,-1.208984 z" />
  <path
     d="m 39.804249,18.021091 c -2.092864,-0.0026 -4.361729,0.609905 -6.018795,1.186194 -3.142459,1.112004 -6.545012,1.726535 -9.091226,3.546171 -0.67517,0.490271 -3.106723,2.438356 -4.718828,5.154921 -4.455132,7.876612 -0.08137,16.669438 5.679864,18.56981 6.334129,2.368832 13.110888,2.623608 20.73708,-4.116079 -0.656416,0.525337 -1.850386,1.311271 -3.660222,1.907311 C 38.418074,45.877187 30.79732,45.360742 25.680347,42.551316 21.563771,40.274189 21.89147,36.921324 22.026,34.928797 c 0.134929,-1.992527 1.605153,-6.364927 7.102268,-8.680234 3.39644,-1.19924 7.390206,-2.037907 10.729517,-0.96281 2.511905,0.566758 4.31746,1.592762 6.706175,2.436206 0,0 -0.0198,0.04095 0.640271,0.204461 4.645563,0.735791 4.795765,-3.352934 4.795765,-3.352934 L 51.867532,23.828569 51.463118,22.817848 51.27039,22.384814 51.154148,22.150137 c 0,0 -0.03352,-0.295473 -0.08047,-0.595691 -0.08899,1.12218 -0.535826,1.446418 -0.535826,1.446418 -3.610658,-0.684567 -4.256012,-3.227202 -8.063016,-4.533919 -0.804616,-0.31644 -1.719299,-0.444717 -2.670602,-0.445854 z m 6.588095,24.341017 c 0.420558,-0.33657 0.624303,-0.566546 0.624366,-0.566394 -0.208849,0.195131 -0.416784,0.382947 -0.624366,0.566394 z"
     style="fill:url(#linearGradient19954);fill-opacity:1;stroke-width:2"
     id="path13484" />
  <path
     d="m 19.654836,27.298533 -0.0217,0.178424 c 1.452867,-0.07362 5.034353,0.241212 6.355232,1.167652 1.024065,0.691352 1.946566,1.723105 3.259566,1.256326 0.897658,-0.314808 0.947535,-0.847893 0.603442,-1.724463 -0.29057,-0.712731 -0.770893,-1.943481 -1.364846,-2.415351 -0.855633,-0.677105 -3.0676,-0.440661 -3.178576,-1.856612 -0.08339,-0.669305 0.318046,-1.416518 0.692018,-1.904334 -6.91e-4,0 -6.064115,1.320515 -6.345165,5.298342 z"
     style="fill:url(#linearGradient19946);fill-opacity:1;stroke-width:2"
     id="path13451" />
  <path
     d="m 51.60358,21.536052 c -0.042,0.551022 -0.392685,0.964647 -0.782741,0.922891 -0.389731,-0.04069 -0.671436,-0.519616 -0.628424,-1.071709 0.04234,-0.550307 0.392351,-0.963574 0.782085,-0.922531 0.389727,0.04208 0.671434,0.520686 0.62908,1.071349 z m -4.920515,-0.107517 c -0.510161,0.650951 -1.452652,0.763004 -2.105571,0.251834 -0.652917,-0.51379 -0.769857,-1.45668 -0.259324,-2.10801 0.509057,-0.64983 1.452285,-0.762258 2.104837,-0.250339 0.653287,0.513042 0.768749,1.455561 0.260058,2.106515 z m 3.8548,1.572331 c 0,0 -0.172828,0.544923 -0.984277,0.592742 -0.811143,0.04844 -0.670852,1.176492 0.03253,1.808062 0.703693,0.631893 1.254022,0.80519 1.72304,0.320279 0.468386,-0.483948 1.61878,-1.286889 -0.771289,-2.721083 z"
     style="fill:#3f3f3f;stroke-width:2"
     id="path13517" />
</svg>
