<?xml version="1.0" encoding="UTF-8" standalone="no"?>
<!-- Created with Inkscape (http://www.inkscape.org/) -->

<svg
   width="64"
   height="64"
   viewBox="0 0 64 64.000004"
   version="1.1"
   id="svg1"
   inkscape:version="1.4.2 (ebf0e940d0, 2025-05-08)"
   sodipodi:docname="mintinstall.svg"
   xmlns:inkscape="http://www.inkscape.org/namespaces/inkscape"
   xmlns:sodipodi="http://sodipodi.sourceforge.net/DTD/sodipodi-0.dtd"
   xmlns:xlink="http://www.w3.org/1999/xlink"
   xmlns="http://www.w3.org/2000/svg"
   xmlns:svg="http://www.w3.org/2000/svg">
  <sodipodi:namedview
     id="namedview1"
     pagecolor="#ffffff"
     bordercolor="#000000"
     borderopacity="0.25"
     inkscape:showpageshadow="2"
     inkscape:pageopacity="0.0"
     inkscape:pagecheckerboard="0"
     inkscape:deskcolor="#d1d1d1"
     inkscape:document-units="px"
     inkscape:zoom="12.625"
     inkscape:cx="31.960396"
     inkscape:cy="32"
     inkscape:window-width="1920"
     inkscape:window-height="1011"
     inkscape:window-x="0"
     inkscape:window-y="0"
     inkscape:window-maximized="1"
     inkscape:current-layer="svg1" />
  <defs
     id="defs1">
    <linearGradient
       inkscape:collect="always"
       xlink:href="#4852"
       id="linearGradient4"
       x1="16"
       y1="30"
       x2="16"
       y2="2"
       gradientUnits="userSpaceOnUse"
       gradientTransform="scale(2)" />
    <linearGradient
       inkscape:collect="always"
       id="4852">
      <stop
         style="stop-color:#272727;stop-opacity:1;"
         offset="0"
         id="stop14555" />
      <stop
         style="stop-color:#5d5d5d;stop-opacity:1;"
         offset="1"
         id="stop14557" />
    </linearGradient>
    <linearGradient
       inkscape:collect="always"
       id="linearGradient2030">
      <stop
         style="stop-color:#4c7523;stop-opacity:1;"
         offset="0"
         id="stop2026" />
      <stop
         style="stop-color:#87cf3e;stop-opacity:1;"
         offset="1"
         id="stop2028" />
    </linearGradient>
    <linearGradient
       inkscape:collect="always"
       xlink:href="#linearGradient2030"
       id="linearGradient2"
       x1="16"
       y1="30"
       x2="16"
       y2="2"
       gradientUnits="userSpaceOnUse"
       gradientTransform="scale(2)" />
  </defs>
  <rect
     style="opacity:0.2;fill:#000000;stroke-width:3.5"
     id="rect1"
     width="56"
     height="56"
     x="4"
     y="5"
     ry="12" />
  <rect
     style="fill:url(#linearGradient4);stroke-width:2"
     id="rect2"
     width="56"
     height="56"
     x="4"
     y="4"
     ry="12" />
  <path
     id="rect4212"
     style="fill:url(#linearGradient2);stroke-width:4.78092;stroke-linecap:round;stroke-linejoin:round"
     d="m 18,24 v 20 c 0,4.431988 3.568012,8 8,8 h 12 c 4.431988,0 8,-3.568012 8,-8 v -8 c 0,-3.313704 -2.686296,-6 -6,-6 -1.536396,0 -2.938566,0.577608 -4,1.527344 C 34.938566,30.577608 33.536396,30 32,30 c -3.313704,0 -6,2.686296 -6,6 v 8 h 4 v -8 c 0,-1.104566 0.895434,-2 2,-2 1.104566,0 2,0.895434 2,2 v 8 h 4 v -8 c 0,-1.104566 0.895434,-2 2,-2 1.104566,0 2,0.895434 2,2 v 8 c 0,2.215994 -1.784006,4 -4,4 H 26 c -2.215994,0 -4,-1.784006 -4,-4 V 24 Z" />
  <path
     style="color:#000000;fill:#ececec;stroke:none;stroke-width:2;stroke-linecap:round;stroke-linejoin:round;-inkscape-stroke:none"
     d="M 32,20 C 26.489002,20 22,15.510998 22,10 a 1,1 0 0 1 1,-1 1,1 0 0 1 1,1 c 0,4.430118 3.569882,8 8,8 4.430118,0 8,-3.569882 8,-8 a 1,1 0 0 1 1,-1 1,1 0 0 1 1,1 c 0,5.510998 -4.489002,10 -10,10 z"
     id="path6892" />
</svg>
