<?xml version="1.0" encoding="UTF-8" standalone="no"?>
<!-- Created with Inkscape (http://www.inkscape.org/) -->

<svg
   width="64"
   height="64"
   viewBox="0 0 64 64.000004"
   version="1.1"
   id="svg1"
   inkscape:version="1.4.2 (ebf0e940d0, 2025-05-08)"
   sodipodi:docname="plasma.svg"
   xmlns:inkscape="http://www.inkscape.org/namespaces/inkscape"
   xmlns:sodipodi="http://sodipodi.sourceforge.net/DTD/sodipodi-0.dtd"
   xmlns:xlink="http://www.w3.org/1999/xlink"
   xmlns="http://www.w3.org/2000/svg"
   xmlns:svg="http://www.w3.org/2000/svg">
  <sodipodi:namedview
     id="namedview1"
     pagecolor="#ffffff"
     bordercolor="#000000"
     borderopacity="0.25"
     inkscape:showpageshadow="2"
     inkscape:pageopacity="0.0"
     inkscape:pagecheckerboard="0"
     inkscape:deskcolor="#d1d1d1"
     inkscape:document-units="px"
     inkscape:zoom="12.421875"
     inkscape:cx="32"
     inkscape:cy="32.040252"
     inkscape:window-width="1920"
     inkscape:window-height="1011"
     inkscape:window-x="0"
     inkscape:window-y="0"
     inkscape:window-maximized="1"
     inkscape:current-layer="svg1" />
  <defs
     id="defs1">
    <linearGradient
       inkscape:collect="always"
       id="linearGradient3201">
      <stop
         style="stop-color:#3daee9;stop-opacity:1;"
         offset="0"
         id="stop3197" />
      <stop
         style="stop-color:#5fd3ff;stop-opacity:1;"
         offset="1"
         id="stop3199" />
    </linearGradient>
    <linearGradient
       inkscape:collect="always"
       xlink:href="#linearGradient3201"
       id="linearGradient2"
       x1="32"
       y1="60"
       x2="32"
       y2="4"
       gradientUnits="userSpaceOnUse" />
    <linearGradient
       inkscape:collect="always"
       xlink:href="#4852"
       id="linearGradient4"
       x1="16"
       y1="30"
       x2="16"
       y2="2"
       gradientUnits="userSpaceOnUse"
       gradientTransform="scale(2)" />
    <linearGradient
       inkscape:collect="always"
       id="4852">
      <stop
         style="stop-color:#272727;stop-opacity:1;"
         offset="0"
         id="stop14555" />
      <stop
         style="stop-color:#5d5d5d;stop-opacity:1;"
         offset="1"
         id="stop14557" />
    </linearGradient>
  </defs>
  <rect
     style="opacity:0.2;fill:#000000;stroke-width:3.5"
     id="rect1"
     width="56"
     height="56"
     x="4"
     y="5"
     ry="12" />
  <rect
     style="fill:url(#linearGradient4);stroke-width:2"
     id="rect2"
     width="56"
     height="56"
     x="4"
     y="4"
     ry="12" />
  <path
     id="path360"
     style="fill:url(#linearGradient2);stroke-width:2"
     d="m 22,12 c -1.661998,0 -3,1.338002 -3,3 0,1.661998 1.338002,3 3,3 1.661998,0 3,-1.338002 3,-3 0,-1.661998 -1.338002,-3 -3,-3 z M 37.714844,12 32,17.599609 40.572266,26 32,34.400391 37.714844,40 52,26 Z M 15.5,28 C 13.561016,28 12,29.560988 12,31.5 12,33.438984 13.561016,35 15.5,35 17.439012,35 19,33.438984 19,31.5 19,29.560988 17.439012,28 15.5,28 Z M 27,42 c -2.769997,0 -5,2.230003 -5,5 0,2.769997 2.230003,5 5,5 2.769997,0 5,-2.230003 5,-5 0,-2.769997 -2.230003,-5 -5,-5 z" />
</svg>
