<?xml version="1.0" encoding="UTF-8" standalone="no"?>
<!-- Created with Inkscape (http://www.inkscape.org/) -->

<svg
   width="64"
   height="64"
   viewBox="0 0 64 64.000004"
   version="1.1"
   id="svg1"
   inkscape:version="1.4.2 (ebf0e940d0, 2025-05-08)"
   sodipodi:docname="preferences-system-bluetooth.svg"
   xmlns:inkscape="http://www.inkscape.org/namespaces/inkscape"
   xmlns:sodipodi="http://sodipodi.sourceforge.net/DTD/sodipodi-0.dtd"
   xmlns:xlink="http://www.w3.org/1999/xlink"
   xmlns="http://www.w3.org/2000/svg"
   xmlns:svg="http://www.w3.org/2000/svg">
  <sodipodi:namedview
     id="namedview1"
     pagecolor="#ffffff"
     bordercolor="#000000"
     borderopacity="0.25"
     inkscape:showpageshadow="2"
     inkscape:pageopacity="0.0"
     inkscape:pagecheckerboard="0"
     inkscape:deskcolor="#d1d1d1"
     inkscape:document-units="px"
     inkscape:zoom="12.625"
     inkscape:cx="31.960396"
     inkscape:cy="32"
     inkscape:window-width="1920"
     inkscape:window-height="1011"
     inkscape:window-x="0"
     inkscape:window-y="0"
     inkscape:window-maximized="1"
     inkscape:current-layer="svg1" />
  <defs
     id="defs1">
    <linearGradient
       inkscape:collect="always"
       id="linearGradient1818">
      <stop
         style="stop-color:#017cd9;stop-opacity:1;"
         offset="0"
         id="stop1814" />
      <stop
         style="stop-color:#3fa3e8;stop-opacity:1;"
         offset="1"
         id="stop1816" />
    </linearGradient>
    <linearGradient
       inkscape:collect="always"
       xlink:href="#linearGradient1818"
       id="linearGradient2"
       x1="32"
       y1="60"
       x2="32"
       y2="4"
       gradientUnits="userSpaceOnUse" />
    <linearGradient
       inkscape:collect="always"
       xlink:href="#4852"
       id="linearGradient4"
       x1="16"
       y1="30"
       x2="16"
       y2="2"
       gradientUnits="userSpaceOnUse"
       gradientTransform="scale(2)" />
    <linearGradient
       inkscape:collect="always"
       id="4852">
      <stop
         style="stop-color:#272727;stop-opacity:1;"
         offset="0"
         id="stop14555" />
      <stop
         style="stop-color:#5d5d5d;stop-opacity:1;"
         offset="1"
         id="stop14557" />
    </linearGradient>
  </defs>
  <rect
     style="opacity:0.2;fill:#000000;stroke-width:3.5"
     id="rect1"
     width="56"
     height="56"
     x="4"
     y="5"
     ry="12" />
  <rect
     style="fill:url(#linearGradient4);stroke-width:2"
     id="rect2"
     width="56"
     height="56"
     x="4"
     y="4"
     ry="12" />
  <path
     d="m 30.644652,14.06366 c -0.38808,0.14754 -0.64462,0.51954 -0.64462,0.93472 v 14.656404 l -8.382166,-7.442938 c -0.43428,-0.3412 -1.06292,-0.26578 -1.40414,0.1685 -0.341217,0.43428 -0.265777,1.06292 0.1685,1.40414 l 9.362766,8.213338 -9.362766,8.214042 c -0.434277,0.3412 -0.509717,0.9698 -0.1685,1.404 0.34122,0.4344 0.96986,0.5098 1.40414,0.1686 l 8.382166,-7.443442 V 48.9977 c 0,0.4152 0.25654,0.7872 0.64462,0.9348 0.38808,0.1476 0.82696,0.04 1.1028,-0.2704 l 9.998634,-8.998634 c 0.18318,-0.206 0.27316,-0.4786 0.24862,-0.7534 -0.02454,-0.2746 -0.1614,-0.527 -0.37822,-0.6972 l -8.634234,-7.215042 8.634234,-7.212318 c 0.21682,-0.17036 0.35368,-0.4227 0.37822,-0.69734 0.02454,-0.27466 -0.06544,-0.54724 -0.24862,-0.75334 L 31.747452,14.33394 c -0.308578,-0.277786 -0.71472,-0.4179 -1.1028,-0.27036 z m 1.35538,19.706004 7.144854,6.359242 -7.144854,6.238634 z m 0,-3.5436 V 17.62846 l 7.144854,6.240886 z"
     id="path346"
     sodipodi:nodetypes="csccsccccccssccccccscscccccccccc"
     style="fill:url(#linearGradient2);stroke-width:2" />
</svg>
