<?xml version="1.0" encoding="UTF-8" standalone="no"?>
<!-- Created with Inkscape (http://www.inkscape.org/) -->

<svg
   width="64"
   height="64"
   viewBox="0 0 64 64.000004"
   version="1.1"
   id="svg1"
   inkscape:version="1.4.2 (ebf0e940d0, 2025-05-08)"
   sodipodi:docname="preferences-desktop-screensaver.svg"
   xmlns:inkscape="http://www.inkscape.org/namespaces/inkscape"
   xmlns:sodipodi="http://sodipodi.sourceforge.net/DTD/sodipodi-0.dtd"
   xmlns:xlink="http://www.w3.org/1999/xlink"
   xmlns="http://www.w3.org/2000/svg"
   xmlns:svg="http://www.w3.org/2000/svg">
  <sodipodi:namedview
     id="namedview1"
     pagecolor="#ffffff"
     bordercolor="#000000"
     borderopacity="0.25"
     inkscape:showpageshadow="2"
     inkscape:pageopacity="0.0"
     inkscape:pagecheckerboard="0"
     inkscape:deskcolor="#d1d1d1"
     inkscape:document-units="px"
     inkscape:zoom="12.28125"
     inkscape:cx="31.959288"
     inkscape:cy="32"
     inkscape:window-width="1920"
     inkscape:window-height="1011"
     inkscape:window-x="0"
     inkscape:window-y="0"
     inkscape:window-maximized="1"
     inkscape:current-layer="svg1" />
  <defs
     id="defs1">
    <linearGradient
       inkscape:collect="always"
       xlink:href="#4852"
       id="linearGradient4"
       x1="16"
       y1="30"
       x2="16"
       y2="2"
       gradientUnits="userSpaceOnUse"
       gradientTransform="scale(2)" />
    <linearGradient
       inkscape:collect="always"
       id="4852">
      <stop
         style="stop-color:#272727;stop-opacity:1;"
         offset="0"
         id="stop14555" />
      <stop
         style="stop-color:#5d5d5d;stop-opacity:1;"
         offset="1"
         id="stop14557" />
    </linearGradient>
  </defs>
  <rect
     style="opacity:0.2;fill:#000000;stroke-width:3.5"
     id="rect1"
     width="56"
     height="56"
     x="4"
     y="5"
     ry="12" />
  <rect
     style="fill:url(#linearGradient4);stroke-width:2"
     id="rect2"
     width="56"
     height="56"
     x="4"
     y="4"
     ry="12" />
  <path
     d="M 39.1,23.200002 38.578442,21.62156 37,21.100002 38.578442,20.578444 39.1,19 39.621558,20.578444 41.2,21.100002 39.621558,21.62156 Z m -10,0.04 L 28.05688,20.08312 24.9,19.040002 28.05688,17.996882 29.1,14.84 30.143118,17.996882 33.3,19.040002 30.143118,20.08312 Z m -12.2,4.86 L 15.161467,22.838534 9.9,21.100002 15.161467,19.361468 16.9,14.1 18.638532,19.361468 23.9,21.100002 18.638532,22.838534 Z m 25.293722,-3.300078 c 1.561594,1.89222 2.50861,4.310714 2.50861,6.955706 0,6.045478 -4.900896,10.946626 -10.946628,10.946626 -2.644992,0 -5.063436,-0.94699 -6.955704,-2.508584 1.32363,5.64203 6.383412,9.80633 12.428892,9.80633 C 46.28212,50.000002 52,44.28212 52,37.228894 52,31.18316 47.8357,26.123504 42.193672,24.800002 Z"
     style="fill:#ffffff;stroke-width:2"
     id="path1" />
</svg>
