<?xml version="1.0" encoding="UTF-8" standalone="no"?>
<!-- Created with Inkscape (http://www.inkscape.org/) -->

<svg
   width="64"
   height="64"
   viewBox="0 0 64 64.000004"
   version="1.1"
   id="svg1"
   inkscape:version="1.4.2 (ebf0e940d0, 2025-05-08)"
   sodipodi:docname="preferences-desktop-keyboard.svg"
   xmlns:inkscape="http://www.inkscape.org/namespaces/inkscape"
   xmlns:sodipodi="http://sodipodi.sourceforge.net/DTD/sodipodi-0.dtd"
   xmlns:xlink="http://www.w3.org/1999/xlink"
   xmlns="http://www.w3.org/2000/svg"
   xmlns:svg="http://www.w3.org/2000/svg">
  <sodipodi:namedview
     id="namedview1"
     pagecolor="#ffffff"
     bordercolor="#000000"
     borderopacity="0.25"
     inkscape:showpageshadow="2"
     inkscape:pageopacity="0.0"
     inkscape:pagecheckerboard="0"
     inkscape:deskcolor="#d1d1d1"
     inkscape:document-units="px"
     inkscape:zoom="12.421875"
     inkscape:cx="32"
     inkscape:cy="32"
     inkscape:window-width="1920"
     inkscape:window-height="1010"
     inkscape:window-x="0"
     inkscape:window-y="0"
     inkscape:window-maximized="1"
     inkscape:current-layer="svg1" />
  <defs
     id="defs1">
    <linearGradient
       inkscape:collect="always"
       xlink:href="#4852"
       id="linearGradient4"
       x1="16"
       y1="30"
       x2="16"
       y2="2"
       gradientUnits="userSpaceOnUse"
       gradientTransform="scale(2)" />
    <linearGradient
       inkscape:collect="always"
       id="4852">
      <stop
         style="stop-color:#272727;stop-opacity:1;"
         offset="0"
         id="stop14555" />
      <stop
         style="stop-color:#5d5d5d;stop-opacity:1;"
         offset="1"
         id="stop14557" />
    </linearGradient>
  </defs>
  <rect
     style="opacity:0.2;fill:#000000;stroke-width:3.5"
     id="rect1"
     width="56"
     height="56"
     x="4"
     y="5"
     ry="12" />
  <rect
     style="fill:url(#linearGradient4);stroke-width:2"
     id="rect2"
     width="56"
     height="56"
     x="4"
     y="4"
     ry="12" />
  <path
     id="path1728"
     style="fill:#a1a1a1;fill-opacity:1;stroke-width:2;stroke-linecap:round;stroke-linejoin:round"
     d="M 12 16 C 10.892001 16 10 16.892002 10 18 L 10 22 C 10 23.107998 10.892001 24 12 24 L 16 24 C 17.107998 24 18 23.107998 18 22 L 18 18 C 18 16.892002 17.107998 16 16 16 L 12 16 z M 24 16 C 22.892002 16 22 16.892002 22 18 L 22 22 C 22 23.107998 22.892002 24 24 24 L 28 24 C 29.108 24 30 23.107998 30 22 L 30 18 C 30 16.892002 29.108 16 28 16 L 24 16 z M 36 16 C 34.892 16 34 16.892002 34 18 L 34 22 C 34 23.107998 34.892 24 36 24 L 40 24 C 41.107998 24 42 23.107998 42 22 L 42 18 C 42 16.892002 41.107998 16 40 16 L 36 16 z M 48 16 C 46.892 16 46 16.892002 46 18 L 46 22 C 46 23.107998 46.892 24 48 24 L 52 24 C 53.107998 24 54 23.107998 54 22 L 54 18 C 54 16.892002 53.107998 16 52 16 L 48 16 z M 12 28 C 10.892001 28 10 28.892 10 30 L 10 34 C 10 35.107998 10.892001 36 12 36 L 16 36 C 17.107998 36 18 35.107998 18 34 L 18 30 C 18 28.892 17.107998 28 16 28 L 12 28 z M 24 28 C 22.892002 28 22 28.892 22 30 L 22 34 C 22 35.107998 22.892002 36 24 36 L 28 36 C 29.108 36 30 35.107998 30 34 L 30 30 C 30 28.892 29.108 28 28 28 L 24 28 z M 36 28 C 34.892 28 34 28.892 34 30 L 34 34 C 34 35.107998 34.892 36 36 36 L 40 36 C 41.107998 36 42 35.107998 42 34 L 42 30 C 42 28.892 41.107998 28 40 28 L 36 28 z M 48 28 C 46.892 28 46 28.892 46 30 L 46 34 C 46 35.107998 46.892 36 48 36 L 52 36 C 53.107998 36 54 35.107998 54 34 L 54 30 C 54 28.892 53.107998 28 52 28 L 48 28 z M 20 40 C 18.892 40 18 40.892 18 42 L 18 46 C 18 47.107998 18.892 48 20 48 L 44 48 C 45.107998 48 46 47.107998 46 46 L 46 42 C 46 40.892 45.107998 40 44 40 L 20 40 z " />
</svg>
