<?xml version="1.0" encoding="UTF-8" standalone="no"?>
<!-- Created with Inkscape (http://www.inkscape.org/) -->

<svg
   width="64"
   height="64"
   viewBox="0 0 64 64.000005"
   version="1.1"
   id="svg1"
   inkscape:version="1.4.2 (ebf0e940d0, 2025-05-08)"
   sodipodi:docname="preferences-desktop-notification-bell.svg"
   xmlns:inkscape="http://www.inkscape.org/namespaces/inkscape"
   xmlns:sodipodi="http://sodipodi.sourceforge.net/DTD/sodipodi-0.dtd"
   xmlns:xlink="http://www.w3.org/1999/xlink"
   xmlns="http://www.w3.org/2000/svg"
   xmlns:svg="http://www.w3.org/2000/svg">
  <sodipodi:namedview
     id="namedview1"
     pagecolor="#ffffff"
     bordercolor="#000000"
     borderopacity="0.25"
     inkscape:showpageshadow="2"
     inkscape:pageopacity="0.0"
     inkscape:pagecheckerboard="0"
     inkscape:deskcolor="#d1d1d1"
     inkscape:document-units="px"
     inkscape:zoom="12.28125"
     inkscape:cx="31.959288"
     inkscape:cy="32"
     inkscape:window-width="1920"
     inkscape:window-height="1011"
     inkscape:window-x="0"
     inkscape:window-y="0"
     inkscape:window-maximized="1"
     inkscape:current-layer="svg1" />
  <defs
     id="defs1">
    <linearGradient
       inkscape:collect="always"
       xlink:href="#4852"
       id="linearGradient4"
       x1="16"
       y1="30"
       x2="16"
       y2="2"
       gradientUnits="userSpaceOnUse"
       gradientTransform="scale(2)" />
    <linearGradient
       inkscape:collect="always"
       id="linearGradient868">
      <stop
         style="stop-color:#ff9e1d;stop-opacity:1;"
         offset="0"
         id="stop864" />
      <stop
         style="stop-color:#ffe32b;stop-opacity:1;"
         offset="1"
         id="stop866" />
    </linearGradient>
    <linearGradient
       inkscape:collect="always"
       id="4852">
      <stop
         style="stop-color:#272727;stop-opacity:1;"
         offset="0"
         id="stop14555" />
      <stop
         style="stop-color:#5d5d5d;stop-opacity:1;"
         offset="1"
         id="stop14557" />
    </linearGradient>
    <linearGradient
       inkscape:collect="always"
       xlink:href="#linearGradient868"
       id="linearGradient2"
       x1="32"
       y1="60"
       x2="32"
       y2="4"
       gradientUnits="userSpaceOnUse" />
  </defs>
  <rect
     style="opacity:0.2;fill:#000000;stroke-width:1.75"
     id="rect1"
     width="56"
     height="56"
     x="4"
     y="5"
     ry="12" />
  <rect
     style="fill:url(#linearGradient4);stroke-width:2"
     id="rect2"
     width="56"
     height="56"
     x="4"
     y="4"
     ry="12" />
  <path
     d="m 32.00016,14 c -1.38504,0 -2.49998,1.11505 -2.5,2.499996 -5.8e-4,0.02762 -4.8e-4,0.05126 -1.2e-4,0.078 -4.31998,1.120306 -7.5,4.922008 -7.5,9.921996 0,5.013102 0.0017,15.000016 -4.45314,15.000018 -0.29678,4e-6 -0.54682,0.278842 -0.5469,0.624986 v 1.875006 l 30,-1e-5 V 42.124994 C 47,41.77877 46.74864,41.500474 46.45312,41.49999 41.98086,41.500002 42,31.512214 42,26.500016 c 0,-5.000012 -3.17958,-8.801866 -7.5,-9.921888 8.6e-4,-0.02692 4.2e-4,-0.0515 1.4e-4,-0.078 0,-1.385002 -1.1151,-2.49996 -2.50002,-2.499988 z M 27.7033,46.500008 c 0.86508,1.492234 2.44786,2.499996 4.29686,2.499996 1.84902,4e-6 3.43178,-1.007758 4.29688,-2.50001 z"
     style="color:#000000;display:inline;overflow:visible;visibility:visible;fill:url(#linearGradient2);fill-opacity:1;fill-rule:nonzero;stroke:none;stroke-width:8;marker:none;enable-background:accumulate"
     id="path6057"
     sodipodi:nodetypes="cccsscccscscccccscc" />
</svg>
