<?xml version="1.0" encoding="UTF-8" standalone="no"?>
<!-- Created with Inkscape (http://www.inkscape.org/) -->

<svg
   width="64"
   height="64"
   viewBox="0 0 64 64.000004"
   version="1.1"
   id="svg1"
   inkscape:version="1.4.2 (ebf0e940d0, 2025-05-08)"
   sodipodi:docname="preferences-system.svg"
   xmlns:inkscape="http://www.inkscape.org/namespaces/inkscape"
   xmlns:sodipodi="http://sodipodi.sourceforge.net/DTD/sodipodi-0.dtd"
   xmlns:xlink="http://www.w3.org/1999/xlink"
   xmlns="http://www.w3.org/2000/svg"
   xmlns:svg="http://www.w3.org/2000/svg">
  <sodipodi:namedview
     id="namedview1"
     pagecolor="#ffffff"
     bordercolor="#000000"
     borderopacity="0.25"
     inkscape:showpageshadow="2"
     inkscape:pageopacity="0.0"
     inkscape:pagecheckerboard="0"
     inkscape:deskcolor="#d1d1d1"
     inkscape:document-units="px"
     inkscape:zoom="12.421875"
     inkscape:cx="32"
     inkscape:cy="31.959748"
     inkscape:window-width="1920"
     inkscape:window-height="1011"
     inkscape:window-x="0"
     inkscape:window-y="0"
     inkscape:window-maximized="1"
     inkscape:current-layer="svg1" />
  <defs
     id="defs1">
    <linearGradient
       inkscape:collect="always"
       xlink:href="#linearGradient2116"
       id="linearGradient3"
       x1="16"
       y1="30"
       x2="16"
       y2="2"
       gradientUnits="userSpaceOnUse"
       gradientTransform="scale(2)" />
    <linearGradient
       inkscape:collect="always"
       xlink:href="#4852"
       id="linearGradient4"
       x1="16"
       y1="30"
       x2="16"
       y2="2"
       gradientUnits="userSpaceOnUse"
       gradientTransform="scale(2)" />
    <linearGradient
       inkscape:collect="always"
       id="4852">
      <stop
         style="stop-color:#272727;stop-opacity:1;"
         offset="0"
         id="stop14555" />
      <stop
         style="stop-color:#5d5d5d;stop-opacity:1;"
         offset="1"
         id="stop14557" />
    </linearGradient>
    <linearGradient
       inkscape:collect="always"
       id="linearGradient2116">
      <stop
         style="stop-color:#657481;stop-opacity:1;"
         offset="0"
         id="stop2112" />
      <stop
         style="stop-color:#9ba6b0;stop-opacity:1;"
         offset="1"
         id="stop2114" />
    </linearGradient>
  </defs>
  <rect
     style="opacity:0.2;fill:#000000;stroke-width:3.5"
     id="rect1"
     width="56"
     height="56"
     x="4"
     y="5"
     ry="12" />
  <rect
     style="fill:url(#linearGradient4);stroke-width:2"
     id="rect2"
     width="56"
     height="56"
     x="4"
     y="4"
     ry="12" />
  <path
     id="rect1-2"
     style="opacity:1;fill:url(#linearGradient3);stroke-width:2"
     d="m 38.097656,10.820312 c -0.834872,0.02523 -1.572864,0.985997 -2.03125,1.800782 l -1.976562,3.511718 c 0.531336,0.07036 1.064624,0.16682 1.59375,0.29297 0.443148,0.10566 0.884906,0.233398 1.324218,0.378906 C 36.57377,16.661748 36.133164,16.531686 35.683594,16.425782 34.501216,16.14725 33.267414,16 32,16 c -0.789176,0 -1.561736,0.06932 -2.320312,0.17968 0.07898,-0.0116 0.15516,-0.03638 0.234374,-0.04688 l -1.980468,-3.511706 c -0.373498,-0.663899 -0.93578,-1.42315 -1.582032,-1.695313 -0.293752,-0.12371 -0.601982,-0.148123 -0.921874,-0.01563 l -3.695312,1.53125 c -1.02366,0.424013 -0.86118,1.913486 -0.5625,2.980469 l 1.085936,3.882813 c 0.250628,-0.19194 0.50475,-0.374434 0.765626,-0.550782 0.577196,-0.390178 1.183772,-0.73178 1.804686,-1.042968 -0.62284,0.313292 -1.23169,0.653988 -1.804686,1.042968 -1.520476,1.03218 -2.840826,2.328018 -3.925782,3.808594 0.0716,-0.09808 0.12948,-0.208576 0.203126,-0.304688 l -3.878907,-1.085936 c -1.066983,-0.29868 -2.556456,-0.46116 -2.980469,0.5625 l -1.53125,3.695312 c -0.424013,1.023658 0.745271,1.960628 1.710938,2.503906 l 3.511718,1.976562 c 0.07036,-0.531354 0.1668,-1.064606 0.29297,-1.59375 0.10566,-0.44314 0.2334,-0.884916 0.378906,-1.324218 -0.14294,0.434026 -0.273004,0.874666 -0.378906,1.324218 C 16.147242,29.4988 16,30.732568 16,32 c 0,0.789502 0.06924,1.561438 0.17968,2.320312 -0.0116,-0.07886 -0.03638,-0.15528 -0.04688,-0.234374 l -3.511718,1.980468 c -0.96567,0.543352 -2.134952,1.48025 -1.710938,2.503906 l 1.53125,3.695312 c 0.424013,1.02366 1.913483,0.861178 2.980469,0.5625 l 3.882813,-1.085936 c -0.19116,-0.249612 -0.375084,-0.50194 -0.550782,-0.76172 -0.38959,-0.576028 -0.728156,-1.181172 -1.039062,-1.80078 0.312934,0.621316 0.650784,1.229112 1.039062,1.80078 1.028972,1.514972 2.322468,2.831486 3.796876,3.914064 -0.09424,-0.06892 -0.200554,-0.1245 -0.29297,-0.19532 l -1.085936,3.878906 c -0.298682,1.066984 -0.46116,2.556458 0.5625,2.98047 l 3.695312,1.53125 c 1.023658,0.424014 1.960628,-0.745272 2.503906,-1.710938 l 1.976562,-3.511718 C 29.377012,47.7966 28.843414,47.700998 28.3125,47.574218 29.496524,47.853574 30.730654,48 32,48 c 0.785936,0 1.556898,-0.06632 2.3125,-0.17578 -0.0761,0.0112 -0.15024,0.03284 -0.226562,0.04296 l 1.980468,3.511718 c 0.543278,0.965672 1.480248,2.134954 2.503906,1.710938 l 3.695312,-1.53125 c 1.02366,-0.42401 0.861184,-1.913486 0.5625,-2.98047 l -1.085936,-3.882812 c -0.240476,0.18416 -0.48445,0.361432 -0.734376,0.53125 -0.575696,0.391172 -1.181294,0.734456 -1.80078,1.046876 0.622186,-0.31482 1.228588,-0.65644 1.80078,-1.046876 1.504302,-1.02646 2.810482,-2.314674 3.88672,-3.78125 -0.06954,0.09512 -0.12386,0.203608 -0.19532,0.296876 l 3.878906,1.085936 c 1.066984,0.29868 2.556458,0.461162 2.98047,-0.5625 l 1.53125,-3.695312 C 53.513852,37.546646 52.34457,36.60967 51.3789,36.066398 l -3.511718,-1.976562 c -0.07038,0.531572 -0.16674,1.06439 -0.29297,1.59375 -0.10658,0.446938 -0.23569,0.89291 -0.382812,1.335938 0.14442,-0.437416 0.27603,-0.882736 0.382812,-1.335938 C 47.852856,34.501002 48,33.267666 48,32 c 0,-0.789142 -0.06934,-1.561768 -0.17968,-2.320312 0.0116,0.07898 0.03638,0.15518 0.04688,0.234374 l 3.511718,-1.980468 c 0.96567,-0.543272 2.134952,-1.480248 1.710938,-2.503906 l -1.53125,-3.695312 c -0.1325,-0.319892 -0.368874,-0.524294 -0.664062,-0.644532 -0.649418,-0.264522 -1.582856,-0.12332 -2.316408,0.08204 l -3.882812,1.085936 c 0.19202,0.250736 0.374362,0.504632 0.550782,0.765626 0.395748,0.585466 0.744142,1.201654 1.058594,1.83203 -0.316788,-0.632944 -0.663768,-1.25039 -1.058594,-1.83203 -1.030736,-1.518428 -2.32278,-2.837686 -3.800782,-3.921876 0.09572,0.06996 0.203038,0.12732 0.296876,0.19922 l 1.085936,-3.878906 c 0.29868,-1.066984 0.46116,-2.556455 -0.5625,-2.980469 l -3.695312,-1.53125 c -0.15994,-0.06625 -0.31805,-0.09452 -0.472656,-0.08984 z m -8.914062,5.453126 c -0.543394,0.0968 -1.07864,0.220906 -1.601562,0.371094 0.526742,-0.15206 1.060412,-0.27349 1.601562,-0.371094 z m -2.339844,0.605468 c -0.445004,0.15174 -0.878304,0.32283 -1.304688,0.51172 0.427622,-0.18904 0.86212,-0.360522 1.304688,-0.51172 z m 10.828126,0.17188 c 0.15006,0.05704 0.29991,0.10612 0.449218,0.16796 0.03382,0.014 0.064,0.03266 0.09766,0.04688 -0.18028,-0.0762 -0.363294,-0.14514 -0.546874,-0.214844 z m 2.273436,1.0625 c 0.12412,0.0707 0.237756,0.15292 0.359376,0.226562 -0.12102,-0.07374 -0.23628,-0.15596 -0.359376,-0.226562 z m -21.605468,5.582032 c -0.07374,0.121 -0.15598,0.236284 -0.226562,0.359376 0.0707,-0.12412 0.15292,-0.237756 0.226562,-0.359376 z M 32,24 c 4.41827,0 8,3.581732 8,8 0,4.41827 -3.58173,8 -8,8 -4.418268,0 -8,-3.58173 -8,-8 0,-4.418268 3.581732,-8 8,-8 z m 14.59375,1.5 c 0.1983,0.445372 0.377996,0.897726 0.535156,1.359376 C 46.971386,26.396032 46.791486,25.943152 46.59375,25.5 Z m -29.328124,0.28125 c -0.0762,0.18028 -0.14514,0.363302 -0.214844,0.546874 0.05704,-0.15004 0.10612,-0.299914 0.16796,-0.449218 0.014,-0.0338 0.03266,-0.064 0.04688,-0.09766 z m 30.085936,1.792968 c 0.15348,0.53062 0.276792,1.068032 0.375,1.613282 -0.09758,-0.548346 -0.223088,-1.085786 -0.375,-1.613282 z m -31.078124,7.234376 c 0.0973,0.547468 0.219622,1.086586 0.371094,1.613282 -0.153,-0.529836 -0.273212,-1.06888 -0.371094,-1.613282 z m 0.61328,2.371094 c 0.14598,0.425776 0.312154,0.84129 0.492188,1.25 -0.18044,-0.410586 -0.34658,-0.825674 -0.492188,-1.25 z m 30.07422,0.460936 c -0.06064,0.1605 -0.11356,0.320818 -0.17968,0.48047 -0.0136,0.03272 -0.03314,0.06118 -0.04688,0.09374 0.08,-0.18944 0.15372,-0.381144 0.226562,-0.57422 z m -1.078126,2.308594 c -0.06518,0.11434 -0.13936,0.219818 -0.20703,0.332032 0.06776,-0.11162 0.14196,-0.218644 0.20703,-0.332032 z M 23.738282,45.6875 c 0.10192,0.06166 0.1974,0.13198 0.30078,0.1914 -0.1041,-0.05944 -0.19844,-0.12988 -0.30078,-0.1914 z m 14.722656,0.917968 c -0.41633,0.1841 -0.83509,0.355666 -1.265626,0.503908 0.431282,-0.14838 0.851906,-0.320574 1.265626,-0.503908 z m -12.664062,0.13672 c 0.06676,0.02812 0.1359,0.05088 0.203124,0.07812 -0.03994,-0.0162 -0.0812,-0.02254 -0.1211,-0.03906 -0.02836,-0.0118 -0.05378,-0.02718 -0.08202,-0.03906 z m 10.61328,0.617188 c -0.499398,0.1438 -1.007112,0.256668 -1.519532,0.351562 0.51581,-0.09442 1.022284,-0.208942 1.519532,-0.351562 z" />
  <path
     id="path285"
     style="opacity:0.3;fill:#ffffff;stroke-width:3.2;stroke-linecap:round;stroke-linejoin:round"
     d="m 32,16 c -8.836538,0 -16,7.163462 -16,16 0,8.836538 7.163462,16 16,16 8.836538,0 16,-7.163462 16,-16 0,-8.836538 -7.163462,-16 -16,-16 z m 0,8 c 4.41827,0 8,3.581732 8,8 0,4.41827 -3.58173,8 -8,8 -4.418268,0 -8,-3.58173 -8,-8 0,-4.418268 3.581732,-8 8,-8 z" />
</svg>
