<?xml version="1.0" encoding="UTF-8" standalone="no"?>
<!-- Created with Inkscape (http://www.inkscape.org/) -->

<svg
   width="64"
   height="64"
   viewBox="0 0 64 64.000004"
   version="1.1"
   id="svg1"
   inkscape:version="1.4.2 (ebf0e940d0, 2025-05-08)"
   sodipodi:docname="preferences-desktop-theme.svg"
   xmlns:inkscape="http://www.inkscape.org/namespaces/inkscape"
   xmlns:sodipodi="http://sodipodi.sourceforge.net/DTD/sodipodi-0.dtd"
   xmlns:xlink="http://www.w3.org/1999/xlink"
   xmlns="http://www.w3.org/2000/svg"
   xmlns:svg="http://www.w3.org/2000/svg">
  <sodipodi:namedview
     id="namedview1"
     pagecolor="#ffffff"
     bordercolor="#000000"
     borderopacity="0.25"
     inkscape:showpageshadow="2"
     inkscape:pageopacity="0.0"
     inkscape:pagecheckerboard="0"
     inkscape:deskcolor="#d1d1d1"
     inkscape:document-units="px"
     inkscape:zoom="12.421875"
     inkscape:cx="32"
     inkscape:cy="32"
     inkscape:window-width="1920"
     inkscape:window-height="1010"
     inkscape:window-x="0"
     inkscape:window-y="0"
     inkscape:window-maximized="1"
     inkscape:current-layer="svg1" />
  <defs
     id="defs1">
    <linearGradient
       inkscape:collect="always"
       id="linearGradient1690">
      <stop
         style="stop-color:#eb7b51;stop-opacity:1;"
         offset="0"
         id="stop1686" />
      <stop
         style="stop-color:#ee5b85;stop-opacity:1;"
         offset="0.30000001"
         id="stop1692" />
      <stop
         style="stop-color:#c05fe9;stop-opacity:1;"
         offset="0.68692034"
         id="stop1694" />
      <stop
         style="stop-color:#2f95f5;stop-opacity:1;"
         offset="1"
         id="stop1696" />
    </linearGradient>
    <linearGradient
       inkscape:collect="always"
       xlink:href="#linearGradient1690"
       id="linearGradient2"
       x1="4"
       y1="60"
       x2="60"
       y2="4"
       gradientUnits="userSpaceOnUse" />
    <linearGradient
       inkscape:collect="always"
       xlink:href="#4852"
       id="linearGradient4"
       x1="30"
       y1="2"
       x2="2"
       y2="30"
       gradientUnits="userSpaceOnUse"
       gradientTransform="scale(2)" />
    <linearGradient
       inkscape:collect="always"
       id="4852">
      <stop
         style="stop-color:#272727;stop-opacity:1;"
         offset="0"
         id="stop14555" />
      <stop
         style="stop-color:#5d5d5d;stop-opacity:1;"
         offset="1"
         id="stop14557" />
    </linearGradient>
  </defs>
  <rect
     style="opacity:0.2;fill:#000000;stroke-width:3.5"
     id="rect1"
     width="56"
     height="56"
     x="4"
     y="5"
     ry="12" />
  <rect
     style="fill:url(#linearGradient4);stroke-width:2"
     id="rect2"
     width="56"
     height="56"
     x="4"
     y="4"
     ry="12" />
  <path
     id="rect820"
     style="opacity:1;fill:url(#linearGradient2);stroke-width:8;stroke-linecap:round;stroke-linejoin:round"
     d="M 21 12 C 18.784 12 17 13.784 17 16 L 17 34 C 17 36.215994 18.784006 38 21 38 L 25 38 C 26.656854 38 28 39.343146 28 41 L 28 48 C 28 50.215996 29.784004 52 32 52 C 34.215996 52 36 50.215996 36 48 L 36 41 C 36 39.343146 37.343146 38 39 38 L 43 38 C 45.215994 38 47 36.215994 47 34 L 47 16 C 47 13.784 45.216 12 43 12 L 21 12 z " />
  <path
     id="rect236"
     style="fill:#ffffff;stroke-width:8;stroke-linecap:round;stroke-linejoin:round;opacity:0.5"
     d="m 17,30 v 4 c 0,2.215994 1.784006,4 4,4 h 4 a 3,3 0 0 1 3,3 v 7 c 0,2.215996 1.784004,4 4,4 2.215996,0 4,-1.784004 4,-4 v -7 a 3,3 0 0 1 3,-3 h 4 c 2.215994,0 4,-1.784006 4,-4 v -4 z" />
</svg>
