<?xml version="1.0" encoding="UTF-8" standalone="no"?>
<!-- Created with Inkscape (http://www.inkscape.org/) -->

<svg
   width="64"
   height="64"
   viewBox="0 0 64 64.000004"
   version="1.1"
   id="svg1"
   inkscape:version="1.4.2 (ebf0e940d0, 2025-05-08)"
   sodipodi:docname="preferences-desktop-color.svg"
   xmlns:inkscape="http://www.inkscape.org/namespaces/inkscape"
   xmlns:sodipodi="http://sodipodi.sourceforge.net/DTD/sodipodi-0.dtd"
   xmlns:xlink="http://www.w3.org/1999/xlink"
   xmlns="http://www.w3.org/2000/svg"
   xmlns:svg="http://www.w3.org/2000/svg">
  <sodipodi:namedview
     id="namedview1"
     pagecolor="#ffffff"
     bordercolor="#000000"
     borderopacity="0.25"
     inkscape:showpageshadow="2"
     inkscape:pageopacity="0.0"
     inkscape:pagecheckerboard="0"
     inkscape:deskcolor="#d1d1d1"
     inkscape:document-units="px"
     inkscape:zoom="12.421875"
     inkscape:cx="32"
     inkscape:cy="32"
     inkscape:window-width="1920"
     inkscape:window-height="1010"
     inkscape:window-x="0"
     inkscape:window-y="0"
     inkscape:window-maximized="1"
     inkscape:current-layer="svg1" />
  <defs
     id="defs1">
    <linearGradient
       inkscape:collect="always"
       xlink:href="#4852"
       id="linearGradient4"
       x1="16"
       y1="30"
       x2="16"
       y2="2"
       gradientUnits="userSpaceOnUse"
       gradientTransform="scale(2)" />
    <linearGradient
       inkscape:collect="always"
       id="4852">
      <stop
         style="stop-color:#272727;stop-opacity:1;"
         offset="0"
         id="stop14555" />
      <stop
         style="stop-color:#5d5d5d;stop-opacity:1;"
         offset="1"
         id="stop14557" />
    </linearGradient>
    <radialGradient
       inkscape:collect="always"
       xlink:href="#linearGradient10051"
       id="radialGradient1174"
       cx="14.852401"
       cy="30.071783"
       fx="14.852401"
       fy="30.071783"
       r="14"
       gradientUnits="userSpaceOnUse"
       gradientTransform="matrix(-1.7142856,-1.7142855,1.6162442,-1.6162442,33.568658,85.288472)" />
    <linearGradient
       inkscape:collect="always"
       id="linearGradient10051">
      <stop
         style="stop-color:#aa3ad4;stop-opacity:1"
         offset="0"
         id="stop10047" />
      <stop
         style="stop-color:#aa3ad4;stop-opacity:0"
         offset="1"
         id="stop10049" />
    </linearGradient>
    <radialGradient
       inkscape:collect="always"
       xlink:href="#linearGradient1603"
       id="radialGradient1208"
       gradientUnits="userSpaceOnUse"
       gradientTransform="matrix(1.7142856,-1.7142855,-1.6162442,-1.6162442,30.431342,85.288472)"
       cx="14.852401"
       cy="30.071783"
       fx="14.852401"
       fy="30.071783"
       r="14" />
    <linearGradient
       inkscape:collect="always"
       id="linearGradient1603">
      <stop
         style="stop-color:#ff910c;stop-opacity:1;"
         offset="0"
         id="stop1599" />
      <stop
         style="stop-color:#ff910c;stop-opacity:0;"
         offset="1"
         id="stop1601" />
    </linearGradient>
    <radialGradient
       inkscape:collect="always"
       xlink:href="#linearGradient5569"
       id="radialGradient1243"
       gradientUnits="userSpaceOnUse"
       gradientTransform="matrix(1.7142856,1.7142855,-1.6162442,1.6162442,30.431342,-21.288472)"
       cx="15.190269"
       cy="30.646524"
       fx="15.190269"
       fy="30.646524"
       r="14" />
    <linearGradient
       inkscape:collect="always"
       id="linearGradient5569">
      <stop
         style="stop-color:#f5cc24;stop-opacity:1;"
         offset="0"
         id="stop5565" />
      <stop
         style="stop-color:#f5cc24;stop-opacity:0.00045133"
         offset="1"
         id="stop5567" />
    </linearGradient>
    <radialGradient
       inkscape:collect="always"
       xlink:href="#linearGradient3954"
       id="radialGradient1278"
       gradientUnits="userSpaceOnUse"
       gradientTransform="matrix(-1.7142856,1.7142855,1.6162442,1.6162442,33.568658,-21.288472)"
       cx="15.190269"
       cy="30.646524"
       fx="15.190269"
       fy="30.646524"
       r="14" />
    <linearGradient
       inkscape:collect="always"
       id="linearGradient3954">
      <stop
         style="stop-color:#24c2f5;stop-opacity:1;"
         offset="0"
         id="stop3950" />
      <stop
         style="stop-color:#24c2f5;stop-opacity:0;"
         offset="1"
         id="stop3952" />
    </linearGradient>
    <radialGradient
       inkscape:collect="always"
       xlink:href="#linearGradient7221"
       id="radialGradient1313"
       gradientUnits="userSpaceOnUse"
       gradientTransform="matrix(2.2857142,0,0,-2.2857142,-4.571426,68.571428)"
       cx="16"
       cy="28.250002"
       fx="16"
       fy="28.250002"
       r="14" />
    <linearGradient
       inkscape:collect="always"
       id="linearGradient7221">
      <stop
         style="stop-color:#f43434;stop-opacity:1;"
         offset="0"
         id="stop7217" />
      <stop
         style="stop-color:#f43434;stop-opacity:0;"
         offset="1"
         id="stop7219" />
    </linearGradient>
    <radialGradient
       inkscape:collect="always"
       xlink:href="#linearGradient15132"
       id="radialGradient1348"
       gradientUnits="userSpaceOnUse"
       gradientTransform="matrix(0,2.2857142,-2.2857142,0,68.571428,-4.5714287)"
       cx="16"
       cy="28.250002"
       fx="16"
       fy="28.250002"
       r="14" />
    <linearGradient
       inkscape:collect="always"
       id="linearGradient15132">
      <stop
         style="stop-color:#f5e224;stop-opacity:1;"
         offset="0"
         id="stop15128" />
      <stop
         style="stop-color:#f5e224;stop-opacity:0;"
         offset="1"
         id="stop15130" />
    </linearGradient>
    <radialGradient
       inkscape:collect="always"
       xlink:href="#linearGradient12059"
       id="radialGradient991"
       cx="16"
       cy="28.250002"
       fx="16"
       fy="28.250002"
       r="14"
       gradientUnits="userSpaceOnUse"
       gradientTransform="matrix(2.2857142,0,0,2.2857142,-4.571426,-4.5714275)" />
    <linearGradient
       inkscape:collect="always"
       id="linearGradient12059">
      <stop
         style="stop-color:#47c12a;stop-opacity:1;"
         offset="0"
         id="stop12055" />
      <stop
         style="stop-color:#47c12a;stop-opacity:0;"
         offset="1"
         id="stop12057" />
    </linearGradient>
  </defs>
  <rect
     style="opacity:0.2;fill:#000000;stroke-width:3.5"
     id="rect1"
     width="56"
     height="56"
     x="4"
     y="5"
     ry="12" />
  <rect
     style="fill:url(#linearGradient4);stroke-width:2"
     id="rect2"
     width="56"
     height="56"
     x="4"
     y="4"
     ry="12" />
  <path
     id="path416"
     style="fill:#ffffff;fill-opacity:1;stroke-width:2.53566;stroke-linecap:round;stroke-linejoin:round"
     d="m 32,12.000001 c 0,0 -11.890796,19.324259 -12,27.999999 0,6.62741 5.372588,12 12,12 6.62741,0 12,-5.37259 12,-12 C 43.9952,30.732876 32,12.000001 32,12.000001 Z m 7.78125,26.164061 C 39.924878,38.76553 39.998286,39.381624 40,40 c 0,4.418278 -3.581722,8 -8,8 -0.601678,-0.0082 -1.200518,-0.08414 -1.785156,-0.226562 4.866328,-0.921962 8.666264,-4.738964 9.566406,-9.609376 z"
     sodipodi:nodetypes="ccsccccccc" />
  <path
     id="path371"
     style="fill:url(#radialGradient1174);fill-opacity:1;stroke-width:2;stroke-linecap:round;stroke-linejoin:round"
     d="m 32,12 c 0,0 -11.890796,19.32426 -12,28 0,6.62741 5.372588,12 12,12 6.62741,0 12,-5.37259 12,-12 C 43.9952,30.732876 32,12 32,12 Z m 7.78125,26.164062 C 39.924878,38.76553 39.998286,39.381624 40,40 c 0,4.418278 -3.581722,8 -8,8 -0.601678,-0.0082 -1.200518,-0.08414 -1.785156,-0.226562 4.866328,-0.921963 8.666264,-4.738964 9.566406,-9.609376 z" />
  <path
     id="path1184"
     style="fill:url(#radialGradient1208);fill-opacity:1;stroke-width:2;stroke-linecap:round;stroke-linejoin:round"
     d="m 32,12 c 0,0 -11.890796,19.32426 -12,28 0,6.62741 5.372588,12 12,12 6.62741,0 12,-5.37259 12,-12 C 43.9952,30.732876 32,12 32,12 Z m 7.78125,26.164062 C 39.924878,38.76553 39.998286,39.381624 40,40 c 0,4.418278 -3.581722,8 -8,8 -0.601678,-0.0082 -1.200518,-0.08414 -1.785156,-0.226562 4.866328,-0.921963 8.666264,-4.738964 9.566406,-9.609376 z" />
  <path
     id="path1219"
     style="fill:url(#radialGradient1243);fill-opacity:1;stroke-width:2;stroke-linecap:round;stroke-linejoin:round"
     d="m 32,12 c 0,0 -11.890796,19.32426 -12,28 0,6.62741 5.372588,12 12,12 6.62741,0 12,-5.37259 12,-12 C 43.9952,30.732876 32,12 32,12 Z m 7.78125,26.164062 C 39.924878,38.76553 39.998286,39.381624 40,40 c 0,4.418278 -3.581722,8 -8,8 -0.601678,-0.0082 -1.200518,-0.08414 -1.785156,-0.226562 4.866328,-0.921963 8.666264,-4.738964 9.566406,-9.609376 z" />
  <path
     id="path1254"
     style="fill:url(#radialGradient1278);fill-opacity:1;stroke-width:2;stroke-linecap:round;stroke-linejoin:round"
     d="m 32,12 c 0,0 -11.890796,19.32426 -12,28 0,6.62741 5.372588,12 12,12 6.62741,0 12,-5.37259 12,-12 C 43.9952,30.732876 32,12 32,12 Z m 7.78125,26.164062 C 39.924878,38.76553 39.998286,39.381624 40,40 c 0,4.418278 -3.581722,8 -8,8 -0.601678,-0.0082 -1.200518,-0.08414 -1.785156,-0.226562 4.866328,-0.921963 8.666264,-4.738964 9.566406,-9.609376 z" />
  <path
     id="path1289"
     style="fill:url(#radialGradient1313);fill-opacity:1;stroke-width:2;stroke-linecap:round;stroke-linejoin:round"
     d="m 32,12 c 0,0 -11.890796,19.32426 -12,28 0,6.62741 5.372588,12 12,12 6.62741,0 12,-5.37259 12,-12 C 43.9952,30.732876 32,12 32,12 Z m 7.78125,26.164062 C 39.924878,38.76553 39.998286,39.381624 40,40 c 0,4.418278 -3.581722,8 -8,8 -0.601678,-0.0082 -1.200518,-0.08414 -1.785156,-0.226562 4.866328,-0.921963 8.666264,-4.738964 9.566406,-9.609376 z" />
  <path
     id="path1324"
     style="fill:url(#radialGradient1348);fill-opacity:1;stroke-width:2;stroke-linecap:round;stroke-linejoin:round"
     d="m 32,12 c 0,0 -11.890796,19.32426 -12,28 0,6.62741 5.372588,12 12,12 6.62741,0 12,-5.37259 12,-12 C 43.9952,30.732876 32,12 32,12 Z m 7.78125,26.164062 C 39.924878,38.76553 39.998286,39.381624 40,40 c 0,4.418278 -3.581722,8 -8,8 -0.601678,-0.0082 -1.200518,-0.08414 -1.785156,-0.226562 4.866328,-0.921963 8.666264,-4.738964 9.566406,-9.609376 z" />
  <path
     id="path404"
     style="fill:url(#radialGradient991);fill-opacity:1;stroke-width:2;stroke-linecap:round;stroke-linejoin:round"
     d="m 32,12 c 0,0 -11.890796,19.32426 -12,28 0,6.62741 5.372588,12 12,12 6.62741,0 12,-5.37259 12,-12 C 43.9952,30.732876 32,12 32,12 Z m 7.78125,26.164062 C 39.924878,38.76553 39.998286,39.381624 40,40 c 0,4.418278 -3.581722,8 -8,8 -0.601678,-0.0082 -1.200518,-0.08414 -1.785156,-0.226562 4.866328,-0.921963 8.666264,-4.738964 9.566406,-9.609376 z" />
</svg>
