<?xml version="1.0" encoding="UTF-8" standalone="no"?>
<!-- Created with Inkscape (http://www.inkscape.org/) -->

<svg
   width="64"
   height="64"
   viewBox="0 0 64 64.000004"
   version="1.1"
   id="svg1"
   inkscape:version="1.4.2 (ebf0e940d0, 2025-05-08)"
   sodipodi:docname="sysprof.svg"
   xmlns:inkscape="http://www.inkscape.org/namespaces/inkscape"
   xmlns:sodipodi="http://sodipodi.sourceforge.net/DTD/sodipodi-0.dtd"
   xmlns:xlink="http://www.w3.org/1999/xlink"
   xmlns="http://www.w3.org/2000/svg"
   xmlns:svg="http://www.w3.org/2000/svg">
  <sodipodi:namedview
     id="namedview1"
     pagecolor="#ffffff"
     bordercolor="#000000"
     borderopacity="0.25"
     inkscape:showpageshadow="2"
     inkscape:pageopacity="0.0"
     inkscape:pagecheckerboard="0"
     inkscape:deskcolor="#d1d1d1"
     inkscape:document-units="px"
     inkscape:zoom="12.28125"
     inkscape:cx="31.959288"
     inkscape:cy="32"
     inkscape:window-width="1920"
     inkscape:window-height="1011"
     inkscape:window-x="0"
     inkscape:window-y="0"
     inkscape:window-maximized="1"
     inkscape:current-layer="svg1" />
  <defs
     id="defs1">
    <linearGradient
       inkscape:collect="always"
       xlink:href="#4852"
       id="linearGradient4"
       x1="16"
       y1="30"
       x2="16"
       y2="2"
       gradientUnits="userSpaceOnUse"
       gradientTransform="scale(2)" />
    <linearGradient
       inkscape:collect="always"
       id="4852">
      <stop
         style="stop-color:#272727;stop-opacity:1;"
         offset="0"
         id="stop14555" />
      <stop
         style="stop-color:#5d5d5d;stop-opacity:1;"
         offset="1"
         id="stop14557" />
    </linearGradient>
  </defs>
  <rect
     style="opacity:0.2;fill:#000000;stroke-width:3.5"
     id="rect1"
     width="56"
     height="56"
     x="4"
     y="5"
     ry="12" />
  <rect
     style="fill:url(#linearGradient4);stroke-width:2"
     id="rect2"
     width="56"
     height="56"
     x="4"
     y="4"
     ry="12" />
  <path
     id="path1468"
     style="opacity:0.6;fill:#ffffff;fill-opacity:1;stroke-width:4.23298;stroke-linecap:round;stroke-linejoin:round"
     d="m 32,13 a 19,19 0 0 0 -12.486328,4.685547 l -2.390625,-2.392578 c -0.391737,-0.391737 -1.022326,-0.391737 -1.414063,0 l -1.416015,1.416016 c -0.391737,0.391736 -0.391737,1.022325 0,1.414062 l 2.529297,2.529297 A 19,19 0 0 0 13,32 19,19 0 0 0 32,51 19,19 0 0 0 51,32 19,19 0 0 0 32,13 Z" />
  <circle
     style="opacity:0.6;fill:#ffffff;stroke-width:4;stroke-linecap:round;stroke-linejoin:round"
     id="path291"
     cx="32"
     cy="32"
     r="19" />
  <rect
     style="fill:#b3b3b3;fill-opacity:1;stroke-width:4;stroke-linecap:round;stroke-linejoin:round"
     id="rect451"
     width="4"
     height="18"
     x="41.928085"
     y="-3.9178185"
     ry="2"
     transform="rotate(30)" />
  <circle
     style="fill:#666666;fill-opacity:1;stroke-width:3;stroke-linecap:round;stroke-linejoin:round"
     id="path2027"
     cx="32"
     cy="32"
     r="3" />
</svg>
