<?xml version="1.0" encoding="UTF-8" standalone="no"?>
<!-- Created with Inkscape (http://www.inkscape.org/) -->

<svg
   width="64"
   height="64"
   viewBox="0 0 64 64.000004"
   version="1.1"
   id="svg1"
   inkscape:version="1.4.2 (ebf0e940d0, 2025-05-08)"
   sodipodi:docname="virt-manager.svg"
   xmlns:inkscape="http://www.inkscape.org/namespaces/inkscape"
   xmlns:sodipodi="http://sodipodi.sourceforge.net/DTD/sodipodi-0.dtd"
   xmlns:xlink="http://www.w3.org/1999/xlink"
   xmlns="http://www.w3.org/2000/svg"
   xmlns:svg="http://www.w3.org/2000/svg">
  <sodipodi:namedview
     id="namedview1"
     pagecolor="#ffffff"
     bordercolor="#000000"
     borderopacity="0.25"
     inkscape:showpageshadow="2"
     inkscape:pageopacity="0.0"
     inkscape:pagecheckerboard="0"
     inkscape:deskcolor="#d1d1d1"
     inkscape:document-units="px"
     inkscape:zoom="12.625"
     inkscape:cx="31.960396"
     inkscape:cy="32"
     inkscape:window-width="1920"
     inkscape:window-height="1011"
     inkscape:window-x="0"
     inkscape:window-y="0"
     inkscape:window-maximized="1"
     inkscape:current-layer="svg1" />
  <defs
     id="defs1">
    <linearGradient
       inkscape:collect="always"
       xlink:href="#4852"
       id="linearGradient4"
       x1="16"
       y1="30"
       x2="16"
       y2="2"
       gradientUnits="userSpaceOnUse"
       gradientTransform="scale(2)" />
    <linearGradient
       inkscape:collect="always"
       id="4852">
      <stop
         style="stop-color:#272727;stop-opacity:1;"
         offset="0"
         id="stop14555" />
      <stop
         style="stop-color:#5d5d5d;stop-opacity:1;"
         offset="1"
         id="stop14557" />
    </linearGradient>
  </defs>
  <rect
     style="opacity:0.2;fill:#000000;stroke-width:3.5"
     id="rect1"
     width="56"
     height="56"
     x="4"
     y="5"
     ry="12" />
  <rect
     style="fill:url(#linearGradient4);stroke-width:2"
     id="rect2"
     width="56"
     height="56"
     x="4"
     y="4"
     ry="12" />
  <path
     style="fill:#ececec;stroke-width:2"
     d="M 37.6,40 44,24 h 4.8 l 6.4,16 H 50.4 L 46.399352,30.4 42.4,40 h -4.799678 z"
     id="path3" />
  <path
     style="fill:#909198;stroke-width:2"
     d="M 32.8,40 39.2,24 H 44 l 6.4,16 H 45.6 L 41.599352,30.4 37.6,40 h -4.799678 z"
     id="path5" />
  <path
     style="fill:#ececec;stroke-width:2"
     d="M 24.8,40 31.2,24 H 36 l 6.4,16 H 37.6 L 33.599352,30.4 29.6,40 h -4.799678 z"
     id="path7" />
  <path
     style="fill:#909198;stroke-width:2"
     d="m 20,40 6.4,-16 h 4.8 l 6.4,16 H 32.8 L 28.799352,30.4 24.8,40 h -4.799678 z"
     id="path9" />
  <path
     style="fill:#a53655;stroke-width:2"
     d="m 8.8,24 6.4,16 H 20 L 26.4,24 H 21.6 L 17.599352,33.6 13.6,24 H 8.800323 Z"
     id="path11" />
</svg>
