<?xml version="1.0" encoding="UTF-8" standalone="no"?>
<!-- Created with Inkscape (http://www.inkscape.org/) -->

<svg
   width="64"
   height="64"
   viewBox="0 0 64 64.000005"
   version="1.1"
   id="svg1"
   inkscape:version="1.4.2 (ebf0e940d0, 2025-05-08)"
   sodipodi:docname="vlc.svg"
   xmlns:inkscape="http://www.inkscape.org/namespaces/inkscape"
   xmlns:sodipodi="http://sodipodi.sourceforge.net/DTD/sodipodi-0.dtd"
   xmlns:xlink="http://www.w3.org/1999/xlink"
   xmlns="http://www.w3.org/2000/svg"
   xmlns:svg="http://www.w3.org/2000/svg">
  <sodipodi:namedview
     id="namedview1"
     pagecolor="#ffffff"
     bordercolor="#000000"
     borderopacity="0.25"
     inkscape:showpageshadow="2"
     inkscape:pageopacity="0.0"
     inkscape:pagecheckerboard="0"
     inkscape:deskcolor="#d1d1d1"
     inkscape:document-units="px"
     inkscape:zoom="12.421875"
     inkscape:cx="32"
     inkscape:cy="32"
     inkscape:window-width="1920"
     inkscape:window-height="1010"
     inkscape:window-x="0"
     inkscape:window-y="0"
     inkscape:window-maximized="1"
     inkscape:current-layer="svg1" />
  <defs
     id="defs1">
    <linearGradient
       inkscape:collect="always"
       xlink:href="#4852"
       id="linearGradient4"
       x1="16"
       y1="30"
       x2="16"
       y2="2"
       gradientUnits="userSpaceOnUse"
       gradientTransform="scale(2)" />
    <linearGradient
       inkscape:collect="always"
       id="4852">
      <stop
         style="stop-color:#272727;stop-opacity:1;"
         offset="0"
         id="stop14555" />
      <stop
         style="stop-color:#5d5d5d;stop-opacity:1;"
         offset="1"
         id="stop14557" />
    </linearGradient>
    <linearGradient
       inkscape:collect="always"
       xlink:href="#linearGradient1382"
       id="linearGradient2"
       x1="128"
       y1="240"
       x2="128"
       y2="16"
       gradientUnits="userSpaceOnUse"
       gradientTransform="scale(0.25)" />
    <linearGradient
       inkscape:collect="always"
       id="linearGradient1382">
      <stop
         style="stop-color:#ff650f;stop-opacity:1;"
         offset="0"
         id="stop1378" />
      <stop
         style="stop-color:#ffb54f;stop-opacity:1;"
         offset="1"
         id="stop1380" />
    </linearGradient>
  </defs>
  <rect
     style="opacity:0.2;fill:#000000;stroke-width:3.5"
     id="rect1"
     width="56"
     height="56"
     x="4"
     y="5"
     ry="12" />
  <rect
     style="fill:url(#linearGradient4);stroke-width:2"
     id="rect2"
     width="56"
     height="56"
     x="4"
     y="4"
     ry="12" />
  <path
     d="m 32.003838,12.000466 c -0.907993,-0.01012 -1.835401,0.14412 -2.750001,0.511719 -0.566797,0.227799 -0.994767,0.703064 -1.167967,1.289062 l -1.839845,6.214845 c 1.356547,0.983654 3.600972,1.46855 5.7539,1.484142 2.22228,0.016 4.353872,-0.468802 5.753912,-1.484142 l -1.839842,-6.214845 c -0.182,-0.620198 -0.65363,-1.114019 -1.265625,-1.324219 -0.846,-0.291798 -1.736532,-0.466562 -2.644532,-0.476562 z m -8.125,16.011719 -2.367188,7.99609 c 3.217645,1.79068 6.895715,2.51429 10.488275,2.491957 3.65714,-0.02275 7.228752,-0.822287 10.48829,-2.491957 l -2.36719,-7.99609 c -5.49718,2.18639 -10.120205,2.74859 -16.242187,0 z m 18.609377,7.99609 1.421872,4.8125 c 0.2563,0.8666 -0.10112,1.796492 -0.871092,2.269532 -3.13759,1.925975 -7.056283,2.871978 -11.03907,2.910158 -3.98239,0.038 -8.059827,-0.824263 -11.140617,-2.972658 -0.705472,-0.49226 -1.017237,-1.381992 -0.773438,-2.207032 l 1.42578,-4.8125 h -2.503905 c -0.806736,1.92e-4 -1.537216,0.48583 -1.847656,1.23047 L 12.163995,49.23093 c -0.548698,1.316005 0.417556,2.769535 1.84375,2.769535 H 49.99212 c 1.426275,-5e-4 2.392385,-1.452895 1.84375,-2.769535 L 46.839775,37.238745 c -0.31046,-0.74462 -1.04098,-1.23027 -1.847655,-1.23047 z"
     id="path3767"
     style="fill:url(#linearGradient2);stroke-width:2"
     sodipodi:nodetypes="ccccsccccccscccccccccccccsccccc" />
</svg>
