<?xml version="1.0" encoding="UTF-8" standalone="no"?>
<!-- Created with Inkscape (http://www.inkscape.org/) -->

<svg
   width="64"
   height="64"
   viewBox="0 0 64 64.000004"
   version="1.1"
   id="svg1"
   inkscape:version="1.4.2 (ebf0e940d0, 2025-05-08)"
   sodipodi:docname="webapp-manager.svg"
   xmlns:inkscape="http://www.inkscape.org/namespaces/inkscape"
   xmlns:sodipodi="http://sodipodi.sourceforge.net/DTD/sodipodi-0.dtd"
   xmlns:xlink="http://www.w3.org/1999/xlink"
   xmlns="http://www.w3.org/2000/svg"
   xmlns:svg="http://www.w3.org/2000/svg">
  <sodipodi:namedview
     id="namedview1"
     pagecolor="#ffffff"
     bordercolor="#000000"
     borderopacity="0.25"
     inkscape:showpageshadow="2"
     inkscape:pageopacity="0.0"
     inkscape:pagecheckerboard="0"
     inkscape:deskcolor="#d1d1d1"
     inkscape:document-units="px"
     inkscape:zoom="12.28125"
     inkscape:cx="31.959288"
     inkscape:cy="32"
     inkscape:window-width="1920"
     inkscape:window-height="1011"
     inkscape:window-x="0"
     inkscape:window-y="0"
     inkscape:window-maximized="1"
     inkscape:current-layer="svg1" />
  <defs
     id="defs1">
    <linearGradient
       inkscape:collect="always"
       xlink:href="#4852"
       id="linearGradient4"
       x1="16"
       y1="30"
       x2="16"
       y2="2"
       gradientUnits="userSpaceOnUse"
       gradientTransform="scale(2)" />
    <linearGradient
       inkscape:collect="always"
       id="4852">
      <stop
         style="stop-color:#272727;stop-opacity:1;"
         offset="0"
         id="stop14555" />
      <stop
         style="stop-color:#5d5d5d;stop-opacity:1;"
         offset="1"
         id="stop14557" />
    </linearGradient>
  </defs>
  <rect
     style="opacity:0.2;fill:#000000;stroke-width:3.5"
     id="rect1"
     width="56"
     height="56"
     x="4"
     y="5"
     ry="12" />
  <rect
     style="fill:url(#linearGradient4);stroke-width:2"
     id="rect2"
     width="56"
     height="56"
     x="4"
     y="4"
     ry="12" />
  <path
     style="fill:#2bb563;stroke-width:2"
     d="m 18,56 v 4 h 14 v -4 z"
     id="path7" />
  <path
     id="path8"
     style="fill:#5057eb;stroke-width:2"
     d="m 7.042374,56 c 2.194384,2.457472 5.388006,4 8.957032,4 h 2 v -4 z" />
  <path
     id="path9"
     style="fill:#ffb73f;stroke-width:2"
     d="m 45.999406,56 v 4 h 2 c 3.569026,0 6.762648,-1.542528 8.957032,-4 z" />
  <path
     style="fill:#e8475b;stroke-width:2"
     d="m 32,56 v 4 h 14 v -4 z"
     id="path10" />
  <path
     d="m 34.667374,20 c -2.710502,0.004 -5.263014,1.275966 -6.898436,3.4375 -0.956178,-0.504166 -2.02061,-0.768264 -3.101564,-0.769532 -3.68139,-7.33e-4 -6.66653,2.982674 -6.667968,6.664064 0.0022,0.459628 0.05196,0.917792 0.14844,1.367186 -2.360198,0.263728 -4.145902,2.257932 -4.14844,4.632814 -7.33e-4,2.578346 2.089624,4.668688 4.66797,4.667968 0.611562,-0.0019 1.216784,-0.12402 1.781248,-0.359376 -0.275496,-0.72246 -0.449218,-1.492808 -0.449218,-2.308592 0,-2.604962 1.573682,-4.770942 3.792968,-5.835938 0.625538,-0.341164 1.31414,-0.571034 2.046876,-0.675782 0.500482,-2.170222 1.800916,-4.0283 3.566406,-5.261718 C 30.690262,24.5956 32.258976,24 33.999406,24 c 0.0013,2e-6 0.0026,2e-6 0.004,0 0.053,5.6e-5 0.10352,0.0104 0.15626,0.0118 0.03862,-5.1e-4 0.07452,-0.0118 0.11328,-0.0118 2.462546,0.0026 4.620636,1.212744 6.265624,2.964844 0.4764,-0.15324 0.954406,-0.29557 1.457032,-0.296876 0.0013,2e-6 0.0026,2e-6 0.004,0 0.099,0 0.19142,0.02222 0.289062,0.02734 0.05424,-0.0038 0.10524,-0.0272 0.16016,-0.02734 h 0.004 c 0.222914,0 0.434994,0.03896 0.652344,0.0586 C 42.201482,22.79341 38.70294,20.004294 34.667374,20 Z m -0.39453,6 c -3.76693,-0.0011 -6.82105,2.984748 -6.820314,6.667968 0.0012,0.0182 0.0026,0.03646 0.004,0.05468 -0.226228,-0.03424 -0.454682,-0.05252 -0.683594,-0.05468 -2.635234,-3.84e-4 -4.77206,2.08748 -4.77353,4.664064 -7.33e-4,2.578108 2.136736,4.668352 4.773438,4.667968 h 21.136718 c 2.25893,-5.76e-4 4.089844,-1.791268 4.089844,-4 0,-2.208732 -1.830914,-3.999424 -4.089844,-4 -7.33e-4,-2.94596 -2.444118,-5.333376 -5.457032,-5.332032 -0.818548,0.0015 -1.626266,0.18302 -2.36328,0.53125 C 38.853174,27.214538 36.649378,26.002376 34.272844,26 Z"
     style="fill:#ffffff;stroke-width:2"
     id="path3207" />
</svg>
