<?xml version="1.0" encoding="UTF-8" standalone="no"?>
<!-- Created with Inkscape (http://www.inkscape.org/) -->

<svg
   width="64"
   height="64"
   viewBox="0 0 64 64.000004"
   version="1.1"
   id="svg1"
   inkscape:version="1.4.2 (ebf0e940d0, 2025-05-08)"
   sodipodi:docname="youtube-dl.svg"
   xmlns:inkscape="http://www.inkscape.org/namespaces/inkscape"
   xmlns:sodipodi="http://sodipodi.sourceforge.net/DTD/sodipodi-0.dtd"
   xmlns:xlink="http://www.w3.org/1999/xlink"
   xmlns="http://www.w3.org/2000/svg"
   xmlns:svg="http://www.w3.org/2000/svg">
  <sodipodi:namedview
     id="namedview1"
     pagecolor="#ffffff"
     bordercolor="#000000"
     borderopacity="0.25"
     inkscape:showpageshadow="2"
     inkscape:pageopacity="0.0"
     inkscape:pagecheckerboard="0"
     inkscape:deskcolor="#d1d1d1"
     inkscape:document-units="px"
     inkscape:zoom="12.28125"
     inkscape:cx="32.040712"
     inkscape:cy="31.959288"
     inkscape:window-width="1920"
     inkscape:window-height="1010"
     inkscape:window-x="0"
     inkscape:window-y="0"
     inkscape:window-maximized="1"
     inkscape:current-layer="svg1" />
  <defs
     id="defs1">
    <linearGradient
       inkscape:collect="always"
       xlink:href="#4852"
       id="linearGradient4"
       x1="16"
       y1="30"
       x2="16"
       y2="2"
       gradientUnits="userSpaceOnUse"
       gradientTransform="scale(2)" />
    <linearGradient
       inkscape:collect="always"
       id="4852">
      <stop
         style="stop-color:#272727;stop-opacity:1;"
         offset="0"
         id="stop14555" />
      <stop
         style="stop-color:#5d5d5d;stop-opacity:1;"
         offset="1"
         id="stop14557" />
    </linearGradient>
  </defs>
  <rect
     style="opacity:0.2;fill:#000000;stroke-width:3.5"
     id="rect1"
     width="56"
     height="56"
     x="4"
     y="5"
     ry="12" />
  <rect
     style="fill:url(#linearGradient4);stroke-width:2"
     id="rect2"
     width="56"
     height="56"
     x="4"
     y="4"
     ry="12" />
  <path
     id="path1633"
     style="fill:#ff0000;fill-opacity:1;stroke-width:0.317904"
     d="M 32 19 C 32 19 20.49615 19.016499 17.357422 19.78125 C 15.672421 20.209473 14.286768 21.409418 13.824219 23 C 12.998236 25.905877 13 31.984375 13 31.984375 C 13 31.984375 12.998268 38.058303 13.824219 40.933594 C 14.28677 42.524176 15.639382 43.79052 17.357422 44.21875 C 20.529187 45.014044 32 45 32 45 C 32 45 43.497992 44.983401 46.636719 44.21875 C 48.354764 43.790527 49.709323 42.55347 50.171875 40.962891 C 50.997856 38.057008 51 32.015625 51 32.015625 C 51 32.015625 51.030627 25.905877 50.171875 23 C 49.709323 21.409418 48.354764 20.209485 46.636719 19.78125 C 43.497992 18.985959 32 19 32 19 z M 30 24 L 34 24 L 34 33 L 39 33 L 32 40 L 25 33 L 30 33 L 30 24 z " />
</svg>
