<?xml version="1.0" encoding="UTF-8" standalone="no"?>
<!-- Created with Inkscape (http://www.inkscape.org/) -->

<svg
   width="256"
   height="256"
   viewBox="0 0 256 256.00002"
   version="1.1"
   id="svg1"
   inkscape:version="1.4 (e7c3feb100, 2024-10-09)"
   sodipodi:docname="accessories-dictionary.svg"
   xmlns:inkscape="http://www.inkscape.org/namespaces/inkscape"
   xmlns:sodipodi="http://sodipodi.sourceforge.net/DTD/sodipodi-0.dtd"
   xmlns:xlink="http://www.w3.org/1999/xlink"
   xmlns="http://www.w3.org/2000/svg"
   xmlns:svg="http://www.w3.org/2000/svg">
  <sodipodi:namedview
     id="namedview1"
     pagecolor="#ffffff"
     bordercolor="#000000"
     borderopacity="0.25"
     inkscape:showpageshadow="2"
     inkscape:pageopacity="0.0"
     inkscape:pagecheckerboard="0"
     inkscape:deskcolor="#d1d1d1"
     inkscape:document-units="px"
     inkscape:zoom="3.15625"
     inkscape:cx="128.15842"
     inkscape:cy="128"
     inkscape:window-width="1920"
     inkscape:window-height="1011"
     inkscape:window-x="0"
     inkscape:window-y="0"
     inkscape:window-maximized="1"
     inkscape:current-layer="svg1" />
  <defs
     id="defs1">
    <linearGradient
       inkscape:collect="always"
       xlink:href="#linearGradient1242"
       id="linearGradient4"
       x1="16"
       y1="30"
       x2="16"
       y2="2"
       gradientUnits="userSpaceOnUse"
       gradientTransform="scale(8)" />
    <linearGradient
       inkscape:collect="always"
       id="linearGradient1242">
      <stop
         style="stop-color:#b35c35;stop-opacity:1;"
         offset="0"
         id="stop1238" />
      <stop
         style="stop-color:#d3a482;stop-opacity:1;"
         offset="1"
         id="stop1240" />
    </linearGradient>
  </defs>
  <rect
     style="opacity:0.2;fill:#000000;stroke-width:14"
     id="rect1"
     width="224"
     height="224"
     x="16"
     y="17"
     ry="48" />
  <rect
     style="fill:url(#linearGradient4);stroke-width:8"
     id="rect2"
     width="224"
     height="224"
     x="16"
     y="16"
     ry="48" />
  <path
     d="M 113.73438,88 88.437504,163.26562 80,164.85938 V 168 h 24 v -3.14062 L 96.859376,163.26562 102.73438,144 h 28.45312 l 7.375,19.26562 L 128,164.85938 V 168 h 32 v -3.14062 L 150.57813,163.26562 124.25,88 Z m 2.59375,14.10938 13.14062,34 H 106.01562 Z M 183.3125,112 c -4.86525,0 -10.90459,0.668 -17.3125,2 v 12 h 3.73438 l 2.01562,-6.98438 c 3.28306,-1.78862 7.31012,-2.67187 11.26562,-2.67187 2.92708,0 5.0687,0.8744 6.45313,2.625 1.42397,1.75056 2.35938,4.46479 2.35938,8.15625 v 8.76562 l -10.18751,0.21872 c -6.01236,0.11416 -9.39808,0.91602 -12.56249,2.17188 -3.16439,1.21788 -5.48959,2.99992 -6.95313,5.35937 -1.42398,2.32155 -2.125,5.28214 -2.125,8.85942 0,10.6558 4.76412,15.5 14.29687,15.5 7.00123,0 13.36574,-2.16163 17.875,-6.5 l 0.92188,6.5 H 208 v -2.59376 l -4,-1.4375 v -37.35937 c -0.034,-4.94723 -1.59686,-8.61809 -4.48438,-11.01563 C 196.66767,113.1962 189.40399,112 183.3125,112 Z M 192,140.07813 v 18.5 c -1.97775,0.91336 -3.5535,1.68798 -5.53125,2.29687 -1.9382,0.57064 -3.06025,0.84375 -5.75,0.84375 -5.65636,0 -8.48437,-2.78649 -8.48437,-9.48437 0,-4.18623 0.93779,-7.18012 2.79687,-8.96876 1.89864,-1.78852 4.29337,-2.76272 9.59375,-2.95312 z"
     style="fill:#ffffff;stroke-width:4"
     id="path619" />
  <path
     id="rect3"
     style="opacity:0.5;fill:#000000;stroke-width:8"
     d="M 64,16 C 37.408,16 16,37.408 16,64 v 128 c 0,26.592 21.408,48 48,48 z" />
</svg>
