<?xml version="1.0" encoding="UTF-8" standalone="no"?>
<!-- Created with Inkscape (http://www.inkscape.org/) -->

<svg
   width="256"
   height="256"
   viewBox="0 0 256 256.00002"
   version="1.1"
   id="svg1"
   inkscape:version="1.4.2 (ebf0e940d0, 2025-05-08)"
   sodipodi:docname="akregator.svg"
   xmlns:inkscape="http://www.inkscape.org/namespaces/inkscape"
   xmlns:sodipodi="http://sodipodi.sourceforge.net/DTD/sodipodi-0.dtd"
   xmlns:xlink="http://www.w3.org/1999/xlink"
   xmlns="http://www.w3.org/2000/svg"
   xmlns:svg="http://www.w3.org/2000/svg">
  <sodipodi:namedview
     id="namedview1"
     pagecolor="#ffffff"
     bordercolor="#000000"
     borderopacity="0.25"
     inkscape:showpageshadow="2"
     inkscape:pageopacity="0.0"
     inkscape:pagecheckerboard="0"
     inkscape:deskcolor="#d1d1d1"
     inkscape:document-units="px"
     inkscape:zoom="3.109375"
     inkscape:cx="127.8392"
     inkscape:cy="128"
     inkscape:window-width="1920"
     inkscape:window-height="1011"
     inkscape:window-x="0"
     inkscape:window-y="0"
     inkscape:window-maximized="1"
     inkscape:current-layer="svg1" />
  <defs
     id="defs1">
    <linearGradient
       inkscape:collect="always"
       xlink:href="#linearGradient1428"
       id="linearGradient4"
       x1="16"
       y1="30"
       x2="16"
       y2="2"
       gradientUnits="userSpaceOnUse"
       gradientTransform="scale(8)" />
    <linearGradient
       inkscape:collect="always"
       id="linearGradient1428">
      <stop
         style="stop-color:#ffbb75;stop-opacity:1;"
         offset="0"
         id="stop1424" />
      <stop
         style="stop-color:#f68200;stop-opacity:1;"
         offset="1"
         id="stop1426" />
    </linearGradient>
  </defs>
  <rect
     style="opacity:0.2;fill:#000000;stroke-width:14"
     id="rect1"
     width="224"
     height="224"
     x="16"
     y="17"
     ry="48" />
  <rect
     style="fill:url(#linearGradient4);stroke-width:8"
     id="rect2"
     width="224"
     height="224"
     x="16"
     y="16"
     ry="48" />
  <path
     id="path1148"
     style="color:#000000;fill:#ffffff;stroke:none;stroke-width:8;stroke-linecap:round;-inkscape-stroke:none"
     d="M 68,48 A 12,12 0 0 0 56,60 12,12 0 0 0 68,72 c 64.20704,0 116,51.79296 116,116 a 12,12 0 0 0 12,12 12,12 0 0 0 12,-12 C 208,110.82242 145.17758,48 68,48 Z m 0,56 a 12,12 0 0 0 -12,12 12,12 0 0 0 12,12 c 33.27915,0 60,26.72085 60,60 a 12,12 0 0 0 12,12 12,12 0 0 0 12,-12 c 0,-46.24969 -37.75031,-84 -84,-84 z m 4,56 c -13.255176,0 -24,10.74403 -24,24 0,13.25596 10.744824,24 24,24 13.255976,0 24,-10.74404 24,-24 0,-13.25597 -10.744024,-24 -24,-24 z" />
</svg>
