<?xml version="1.0" encoding="UTF-8" standalone="no"?>
<!-- Created with Inkscape (http://www.inkscape.org/) -->

<svg
   width="256"
   height="256"
   viewBox="0 0 256 256.00002"
   version="1.1"
   id="svg1"
   inkscape:version="1.4 (e7c3feb100, 2024-10-09)"
   sodipodi:docname="applications-all.svg"
   xmlns:inkscape="http://www.inkscape.org/namespaces/inkscape"
   xmlns:sodipodi="http://sodipodi.sourceforge.net/DTD/sodipodi-0.dtd"
   xmlns:xlink="http://www.w3.org/1999/xlink"
   xmlns="http://www.w3.org/2000/svg"
   xmlns:svg="http://www.w3.org/2000/svg">
  <sodipodi:namedview
     id="namedview1"
     pagecolor="#ffffff"
     bordercolor="#000000"
     borderopacity="0.25"
     inkscape:showpageshadow="2"
     inkscape:pageopacity="0.0"
     inkscape:pagecheckerboard="0"
     inkscape:deskcolor="#d1d1d1"
     inkscape:document-units="px"
     inkscape:zoom="3.15625"
     inkscape:cx="128.15842"
     inkscape:cy="128"
     inkscape:window-width="1920"
     inkscape:window-height="1011"
     inkscape:window-x="0"
     inkscape:window-y="0"
     inkscape:window-maximized="1"
     inkscape:current-layer="svg1" />
  <defs
     id="defs1">
    <linearGradient
       inkscape:collect="always"
       xlink:href="#linearGradient3147"
       id="linearGradient4"
       x1="16"
       y1="30"
       x2="16"
       y2="2"
       gradientUnits="userSpaceOnUse"
       gradientTransform="scale(8)" />
    <linearGradient
       inkscape:collect="always"
       id="linearGradient3147">
      <stop
         style="stop-color:#0091f9;stop-opacity:1;"
         offset="0"
         id="stop3143" />
      <stop
         style="stop-color:#41bbff;stop-opacity:1;"
         offset="1"
         id="stop3145" />
    </linearGradient>
  </defs>
  <rect
     style="opacity:0.2;fill:#000000;stroke-width:14"
     id="rect1"
     width="224"
     height="224"
     x="16"
     y="17"
     ry="48" />
  <rect
     style="fill:url(#linearGradient4);stroke-width:8"
     id="rect2"
     width="224"
     height="224"
     x="16"
     y="16"
     ry="48" />
  <path
     id="path433"
     style="fill:#ffffff;fill-opacity:1;stroke-width:144;stroke-linecap:round;stroke-linejoin:round"
     d="m 72,56 c -8.836552,0 -16,7.163448 -16,16 0,8.836552 7.163448,16 16,16 8.836528,0 16,-7.163448 16,-16 0,-8.836552 -7.163472,-16 -16,-16 z m 56,0 c -8.83656,0 -16,7.163448 -16,16 0,8.836552 7.16344,16 16,16 8.83654,0 16,-7.163448 16,-16 0,-8.836552 -7.16346,-16 -16,-16 z m 56,0 c -8.83654,0 -16,7.163448 -16,16 0,8.836552 7.16346,16 16,16 8.83654,0 16,-7.163448 16,-16 0,-8.836552 -7.16346,-16 -16,-16 z M 72,112 c -8.836552,0 -16,7.16346 -16,16 0,8.83654 7.163448,16 16,16 8.836528,0 16,-7.16346 16,-16 0,-8.83654 -7.163472,-16 -16,-16 z m 56,0 c -8.83656,0 -16,7.16346 -16,16 0,8.83654 7.16344,16 16,16 8.83654,0 16,-7.16346 16,-16 0,-8.83654 -7.16346,-16 -16,-16 z m 56,0 c -8.83654,0 -16,7.16346 -16,16 0,8.83654 7.16346,16 16,16 8.83654,0 16,-7.16346 16,-16 0,-8.83654 -7.16346,-16 -16,-16 z M 72,168 c -8.836552,0 -16,7.16346 -16,16 0,8.83654 7.163448,16 16,16 8.836528,0 16,-7.16346 16,-16 0,-8.83654 -7.163472,-16 -16,-16 z m 56,0 c -8.83656,0 -16,7.16346 -16,16 0,8.83654 7.16344,16 16,16 8.83656,0 16,-7.16346 16,-16 0,-8.83654 -7.16344,-16 -16,-16 z m 56,0 c -8.83654,0 -16,7.16346 -16,16 0,8.83654 7.16346,16 16,16 8.83654,0 16,-7.16346 16,-16 0,-8.83654 -7.16346,-16 -16,-16 z"
     sodipodi:nodetypes="sssssssssssssssssssssssssssssssssssssssssssss" />
</svg>
