<?xml version="1.0" encoding="UTF-8" standalone="no"?>
<!-- Created with Inkscape (http://www.inkscape.org/) -->

<svg
   width="256"
   height="256"
   viewBox="0 0 256 256.00002"
   version="1.1"
   id="svg1"
   inkscape:version="1.4 (e7c3feb100, 2024-10-09)"
   sodipodi:docname="applications-office.svg"
   xmlns:inkscape="http://www.inkscape.org/namespaces/inkscape"
   xmlns:sodipodi="http://sodipodi.sourceforge.net/DTD/sodipodi-0.dtd"
   xmlns:xlink="http://www.w3.org/1999/xlink"
   xmlns="http://www.w3.org/2000/svg"
   xmlns:svg="http://www.w3.org/2000/svg">
  <sodipodi:namedview
     id="namedview1"
     pagecolor="#ffffff"
     bordercolor="#000000"
     borderopacity="0.25"
     inkscape:showpageshadow="2"
     inkscape:pageopacity="0.0"
     inkscape:pagecheckerboard="0"
     inkscape:deskcolor="#d1d1d1"
     inkscape:document-units="px"
     inkscape:zoom="3.0703125"
     inkscape:cx="128.48855"
     inkscape:cy="128"
     inkscape:window-width="1920"
     inkscape:window-height="1011"
     inkscape:window-x="0"
     inkscape:window-y="0"
     inkscape:window-maximized="1"
     inkscape:current-layer="svg1" />
  <defs
     id="defs1">
    <linearGradient
       inkscape:collect="always"
       id="linearGradient1606">
      <stop
         style="stop-color:#eaebed;stop-opacity:1;"
         offset="0"
         id="stop1602" />
      <stop
         style="stop-color:#f9fafa;stop-opacity:1;"
         offset="1"
         id="stop1604" />
    </linearGradient>
    <linearGradient
       inkscape:collect="always"
       xlink:href="#linearGradient1606"
       id="linearGradient4"
       x1="16"
       y1="30"
       x2="16"
       y2="2"
       gradientUnits="userSpaceOnUse"
       gradientTransform="scale(7.9999998)" />
  </defs>
  <rect
     style="opacity:0.2;fill:#000000;stroke-width:14"
     id="rect1"
     width="224"
     height="224"
     x="16"
     y="17"
     ry="48" />
  <rect
     style="fill:url(#linearGradient4);stroke-width:8"
     id="rect2"
     width="224"
     height="224"
     x="16"
     y="16"
     ry="48" />
  <path
     id="rect950"
     style="fill:#666666;stroke-width:8.55232;stroke-linecap:round"
     d="m 196.56854,65.088312 c -10.93468,-10.93468 -28.6633,-10.93468 -39.59798,0 L 81.573592,140.48528 c -7.81048,7.81048 -7.81048,20.47379 0,28.28427 7.81048,7.81048 20.473788,7.81048 28.284268,0 l 72.56855,-72.568542 -5.65686,-5.656848 -72.56854,72.56854 c -4.68629,4.68628 -12.284274,4.68628 -16.970562,0 -4.686288,-4.68629 -4.686288,-12.28428 0,-16.97056 L 162.62742,70.745168 c 7.81048,-7.810488 20.47378,-7.810488 28.28427,0 7.81049,7.81048 7.81049,20.473784 0,28.284272 l -83.88226,83.88225 c -10.934678,10.93468 -28.663294,10.93468 -39.597974,0 -10.93468,-10.93468 -10.93468,-28.6633 0,-39.59798 L 142.82842,67.916736 137.17157,62.259888 61.7746,137.65686 c -14.058872,14.05887 -14.058872,36.85281 0,50.91168 14.058872,14.05888 36.852816,14.05888 50.91169,0 l 83.88225,-83.88225 c 10.93468,-10.934682 10.93468,-28.663298 0,-39.597978 z"
     sodipodi:nodetypes="sssssccsssssssssccsssss" />
</svg>
