<?xml version="1.0" encoding="UTF-8" standalone="no"?>
<!-- Created with Inkscape (http://www.inkscape.org/) -->

<svg
   width="256"
   height="256"
   viewBox="0 0 256 256.00002"
   version="1.1"
   id="svg1"
   inkscape:version="1.4.2 (ebf0e940d0, 2025-05-08)"
   sodipodi:docname="cpu-x.svg"
   xmlns:inkscape="http://www.inkscape.org/namespaces/inkscape"
   xmlns:sodipodi="http://sodipodi.sourceforge.net/DTD/sodipodi-0.dtd"
   xmlns:xlink="http://www.w3.org/1999/xlink"
   xmlns="http://www.w3.org/2000/svg"
   xmlns:svg="http://www.w3.org/2000/svg">
  <sodipodi:namedview
     id="namedview1"
     pagecolor="#ffffff"
     bordercolor="#000000"
     borderopacity="0.25"
     inkscape:showpageshadow="2"
     inkscape:pageopacity="0.0"
     inkscape:pagecheckerboard="0"
     inkscape:deskcolor="#d1d1d1"
     inkscape:document-units="px"
     inkscape:zoom="3.109375"
     inkscape:cx="127.8392"
     inkscape:cy="128"
     inkscape:window-width="1920"
     inkscape:window-height="1011"
     inkscape:window-x="0"
     inkscape:window-y="0"
     inkscape:window-maximized="1"
     inkscape:current-layer="svg1"
     showguides="false" />
  <defs
     id="defs1">
    <linearGradient
       inkscape:collect="always"
       xlink:href="#linearGradient1940"
       id="linearGradient4"
       x1="16"
       y1="30"
       x2="16"
       y2="2"
       gradientUnits="userSpaceOnUse"
       gradientTransform="scale(7.9999998)" />
    <linearGradient
       inkscape:collect="always"
       id="linearGradient1993">
      <stop
         style="stop-color:#e9e9e9;stop-opacity:1;"
         offset="0"
         id="stop1989" />
      <stop
         style="stop-color:#d0d0d0;stop-opacity:1;"
         offset="1"
         id="stop1991" />
    </linearGradient>
    <linearGradient
       inkscape:collect="always"
       id="linearGradient1940">
      <stop
         style="stop-color:#28b013;stop-opacity:1;"
         offset="0"
         id="stop1936" />
      <stop
         style="stop-color:#4ac265;stop-opacity:1;"
         offset="1"
         id="stop1938" />
    </linearGradient>
    <linearGradient
       inkscape:collect="always"
       xlink:href="#linearGradient1993"
       id="linearGradient6"
       x1="11"
       y1="4"
       x2="11"
       y2="18"
       gradientUnits="userSpaceOnUse"
       gradientTransform="matrix(11.42857,0,0,11.42857,2.2857166,2.2857166)" />
  </defs>
  <rect
     style="opacity:0.2;fill:#000000;stroke-width:19.6"
     id="rect1"
     width="224"
     height="224"
     x="16"
     y="17"
     ry="48" />
  <rect
     style="fill:url(#linearGradient4);stroke-width:8"
     id="rect2"
     width="224"
     height="224"
     x="16"
     y="16"
     ry="48" />
  <rect
     style="opacity:0.2;fill:#000000;stroke-width:22.8572"
     id="rect3"
     width="160"
     height="160"
     x="48"
     y="49"
     ry="32" />
  <rect
     style="opacity:1;fill:url(#linearGradient6);stroke-width:22.8572"
     id="rect4"
     width="160"
     height="160"
     x="48"
     y="48"
     ry="32" />
  <path
     d="m 134.08887,152.6029 c -8.96128,4.1606 -17.29847,4.1286 -22.89927,3.71253 -6.67295,-0.48008 -12.04652,-2.30434 -14.406856,-3.90456 -1.454608,-0.97453 -3.432496,-0.60648 -4.418232,0.84813 -0.984144,1.45621 -0.60328,3.44049 0.85132,4.41662 3.794144,2.57639 10.507098,4.48066 17.525708,4.99274 1.18416,0.08 2.48035,0.144 3.88855,0.144 6.09687,0 13.85798,-0.59208 22.14717,-4.44865 1.58422,-0.73608 2.27232,-2.62437 1.53621,-4.22461 -0.73608,-1.58422 -2.64037,-2.27072 -4.2246,-1.53621 z m 35.36505,-4.71908 c 0.30408,-27.63596 3.13645,-79.862612 -49.7671,-75.642812 -52.239468,4.2086 -38.387892,59.384482 -39.167204,77.867122 -0.68968,9.77581 -3.93496,21.72953 -8.519616,33.89128 h 14.120416 c 1.451408,-5.15275 2.51876,-10.25747 2.978024,-15.10616 0.851328,0.59208 1.761856,1.16817 2.734792,1.71224 1.581024,0.92813 2.938024,2.17629 4.378224,3.48849 3.36208,3.05644 7.175424,6.52892 14.626094,6.961 0.49608,0.032 1.00815,0.048 1.48821,0.048 7.53708,0 12.68982,-3.29647 16.83441,-5.95285 1.98428,-1.26418 3.69653,-2.35234 5.31276,-2.88041 4.59265,-1.44021 8.59322,-3.76054 11.58565,-6.70496 0.46408,-0.46408 0.89612,-0.92813 1.31219,-1.4242 1.66424,6.11286 3.95256,12.99384 6.48093,19.85882 H 184 c -7.23303,-11.1856 -14.7061,-22.13115 -14.54608,-36.11556 z m -83.877584,-15.02616 -0.0016,-0.016 c -0.51848,-9.00928 3.797344,-16.59436 9.639784,-16.94642 5.84243,-0.33608 10.99837,6.70496 11.51044,15.73025 h 0.016 c 0.016,0.48008 0.032,0.96013 0.032,1.44021 -1.85626,0.46408 -3.5205,1.13616 -5.01672,1.93628 -0.006,-0.08 -0.0112,-0.144 -0.0176,-0.208 v 0 c -0.50088,-5.12074 -3.234064,-8.99329 -6.109672,-8.64124 -2.872408,0.35208 -4.797488,4.78468 -4.298216,9.90541 v 0 c 0.2176,2.24032 0.860928,4.24061 1.755456,5.74483 -0.224,0.176 -0.852928,0.64008 -1.576232,1.16816 -0.54408,0.40008 -1.204968,0.88013 -2.00348,1.47221 -2.174712,-2.86441 -3.664528,-6.96099 -3.931768,-11.58565 z m 59.186054,22.2896 c -0.208,4.76868 -6.44892,9.24934 -12.19373,11.0416 l -0.048,0.016 c -2.38435,0.78408 -4.52865,2.1443 -6.78497,3.60051 -3.79255,2.41634 -7.72911,4.9447 -13.39392,4.9447 -0.38408,0 -0.76808,-0.016 -1.13616,-0.048 -5.20075,-0.30408 -7.62829,-2.51235 -10.70393,-5.31277 -1.625832,-1.48821 -3.304472,-3.00843 -5.466384,-4.28861 l -0.0464,-0.016 c -4.672672,-2.64036 -7.572288,-5.92087 -7.757912,-8.76926 -0.0912,-1.4242 0.54088,-2.65639 1.880272,-3.66452 2.912416,-2.17473 4.864688,-3.59893 6.154472,-4.54306 1.435408,-1.05615 1.869072,-1.3762 2.18752,-1.68024 0.2304,-0.208 0.47688,-0.44808 0.74408,-0.72008 2.675582,-2.59238 7.151422,-6.94499 14.016402,-6.94499 4.2086,0 8.84926,1.61623 13.79397,4.80068 2.33633,1.52022 4.36862,2.22432 6.94499,3.10444 1.76025,0.60808 3.76054,1.29619 6.44893,2.44836 l 0.048,0.016 c 2.49636,1.04014 5.45678,2.91083 5.31276,6.01527 z m -1.37619,-11.20001 c -0.48008,-0.24 -0.97614,-0.46408 -1.50422,-0.68808 -2.41634,-1.04015 -4.35262,-1.72825 -5.96885,-2.28833 0.89613,-1.74425 1.44021,-3.92056 1.48821,-6.2729 v 0 c 0.128,-5.72881 -2.75239,-10.36948 -6.44892,-10.38548 -3.68052,-0.016 -6.76896,4.62466 -6.89698,10.35348 v 0 0.56008 c -2.27233,-1.04015 -4.51265,-1.79225 -6.68896,-2.27232 -0.016,-0.208 -0.032,-0.43208 -0.032,-0.64008 v 0 c -0.208,-10.4495 6.19288,-19.07473 14.30604,-19.29876 8.11316,-0.224 14.85012,8.06515 15.07415,18.49864 v 0 c 0.08,4.72068 -1.16817,9.07329 -3.32847,12.43377 z"
     style="opacity:0.4;fill:#000000;stroke-width:16.0023"
     id="path364" />
</svg>
