<?xml version="1.0" encoding="UTF-8" standalone="no"?>
<!-- Created with Inkscape (http://www.inkscape.org/) -->

<svg
   width="256"
   height="256"
   viewBox="0 0 256 256.00002"
   version="1.1"
   id="svg1"
   inkscape:version="1.4.2 (ebf0e940d0, 2025-05-08)"
   sodipodi:docname="deepin-feedback.svg"
   xmlns:inkscape="http://www.inkscape.org/namespaces/inkscape"
   xmlns:sodipodi="http://sodipodi.sourceforge.net/DTD/sodipodi-0.dtd"
   xmlns:xlink="http://www.w3.org/1999/xlink"
   xmlns="http://www.w3.org/2000/svg"
   xmlns:svg="http://www.w3.org/2000/svg">
  <sodipodi:namedview
     id="namedview1"
     pagecolor="#ffffff"
     bordercolor="#000000"
     borderopacity="0.25"
     inkscape:showpageshadow="2"
     inkscape:pageopacity="0.0"
     inkscape:pagecheckerboard="0"
     inkscape:deskcolor="#d1d1d1"
     inkscape:document-units="px"
     inkscape:zoom="3.109375"
     inkscape:cx="127.8392"
     inkscape:cy="128"
     inkscape:window-width="1920"
     inkscape:window-height="1011"
     inkscape:window-x="0"
     inkscape:window-y="0"
     inkscape:window-maximized="1"
     inkscape:current-layer="svg1" />
  <defs
     id="defs1">
    <linearGradient
       inkscape:collect="always"
       xlink:href="#linearGradient3"
       id="linearGradient4"
       x1="16"
       y1="30"
       x2="16"
       y2="2"
       gradientUnits="userSpaceOnUse"
       gradientTransform="scale(8)" />
    <linearGradient
       inkscape:collect="always"
       xlink:href="#linearGradient3"
       id="linearGradient5"
       x1="8"
       y1="14.5"
       x2="8"
       y2="0.5"
       gradientUnits="userSpaceOnUse"
       gradientTransform="matrix(16,0,0,16,0,8)" />
    <linearGradient
       inkscape:collect="always"
       id="linearGradient3">
      <stop
         style="stop-color:#4cca3d;stop-opacity:1;"
         offset="0"
         id="stop1" />
      <stop
         style="stop-color:#a5d785;stop-opacity:1;"
         offset="1"
         id="stop2" />
    </linearGradient>
  </defs>
  <rect
     style="opacity:0.2;fill:#000000;stroke-width:14"
     id="rect1"
     width="224"
     height="224"
     x="16"
     y="17"
     ry="48" />
  <rect
     style="fill:url(#linearGradient4);stroke-width:8"
     id="rect2"
     width="224"
     height="224"
     x="16"
     y="16"
     ry="48" />
  <path
     id="path1"
     style="fill:#ffffff;stroke-width:32"
     d="m 112,56 c -35.456,0 -64,28.544 -64,64 0,24.1647 13.26838,45.10464 32.937504,56 C 76.003488,199.119 72,208 72,208 c 0,0 16.726624,-4.70488 40,-24 h 32 c 35.456,0 64,-28.544 64,-64 0,-35.456 -28.544,-64 -64,-64 z" />
  <path
     id="rect3"
     style="fill:url(#linearGradient5);stroke-width:32"
     d="m 84,96 a 4,4 0 0 0 -4,4 4,4 0 0 0 4,4 h 88 a 4,4 0 0 0 4,-4 4,4 0 0 0 -4,-4 z m 0,24 a 4,4 0 0 0 -4,4 4,4 0 0 0 4,4 h 56 a 4,4 0 0 0 4,-4 4,4 0 0 0 -4,-4 z" />
</svg>
