<?xml version="1.0" encoding="UTF-8" standalone="no"?>
<!-- Created with Inkscape (http://www.inkscape.org/) -->

<svg
   width="256"
   height="256"
   viewBox="0 0 256 256.00002"
   version="1.1"
   id="svg1"
   inkscape:version="1.4.2 (ebf0e940d0, 2025-05-08)"
   sodipodi:docname="desktop-environment-xfce.svg"
   xmlns:inkscape="http://www.inkscape.org/namespaces/inkscape"
   xmlns:sodipodi="http://sodipodi.sourceforge.net/DTD/sodipodi-0.dtd"
   xmlns:xlink="http://www.w3.org/1999/xlink"
   xmlns="http://www.w3.org/2000/svg"
   xmlns:svg="http://www.w3.org/2000/svg">
  <sodipodi:namedview
     id="namedview1"
     pagecolor="#ffffff"
     bordercolor="#000000"
     borderopacity="0.25"
     inkscape:showpageshadow="2"
     inkscape:pageopacity="0.0"
     inkscape:pagecheckerboard="0"
     inkscape:deskcolor="#d1d1d1"
     inkscape:document-units="px"
     inkscape:zoom="3.0703125"
     inkscape:cx="127.83715"
     inkscape:cy="128"
     inkscape:window-width="1920"
     inkscape:window-height="1011"
     inkscape:window-x="0"
     inkscape:window-y="0"
     inkscape:window-maximized="1"
     inkscape:current-layer="svg1" />
  <defs
     id="defs1">
    <linearGradient
       inkscape:collect="always"
       xlink:href="#linearGradient2"
       id="linearGradient4"
       x1="16"
       y1="30"
       x2="16"
       y2="2"
       gradientUnits="userSpaceOnUse"
       gradientTransform="scale(8)" />
    <linearGradient
       inkscape:collect="always"
       id="linearGradient2">
      <stop
         style="stop-color:#26448e;stop-opacity:1;"
         offset="0"
         id="stop1" />
      <stop
         style="stop-color:#6074be;stop-opacity:1;"
         offset="1"
         id="stop2" />
    </linearGradient>
  </defs>
  <rect
     style="opacity:0.2;fill:#000000;stroke-width:14"
     id="rect1"
     width="224"
     height="224"
     x="16"
     y="17"
     ry="48" />
  <rect
     style="fill:url(#linearGradient4);stroke-width:8"
     id="rect2"
     width="224"
     height="224"
     x="16"
     y="16"
     ry="48" />
  <path
     style="fill:#f9f9f9;stroke-width:8"
     d="m 30.008412,79.598076 c -0.40832,0.800096 -0.816644,1.594672 -1.208412,2.394756 6.207604,3.448684 24.096556,12.437296 32.58856,17.762044 10.73226,6.571794 25.238752,19.980214 26.380944,22.237024 -11.162656,19.43947 -6.097236,36.6442 -7.416016,38.47613 -0.949072,1.52845 -9.722492,11.16266 -6.89734,12.58626 2.80308,1.40155 7.261528,-0.80008 7.9347,-1.23048 1.401548,-0.86078 2.847228,-2.11335 2.240268,0.36416 -1.186348,5.06541 -6.571792,17.24337 0.860784,14.65547 0.904928,-0.51872 12.867672,-13.70639 14.313364,-14.15885 23.798586,6.2076 50.416796,3.36038 55.344256,1.05391 2.56582,0.17104 9.82733,4.73985 13.96574,6.91942 4.13841,2.15748 15.41143,7.565 12.07311,-2.26234 -1.03736,-3.10656 -8.44787,-11.03574 -7.24497,-11.55442 2.64858,-1.05392 9.20382,2.73686 11.72548,3.44867 7.54292,2.11334 8.55822,-0.81665 3.7963,-7.26152 -4.70123,-6.44488 -5.40752,-5.45166 -6.89734,-8.42579 -1.16428,-2.39476 0,-5.04334 0.86078,-5.68893 1.52846,-1.16427 24.0524,-13.66778 29.33304,-18.45178 7.82434,-7.11253 0,-15.99079 -1.92024,-17.24334 -16.22808,-11.68134 -32.89204,-9.18175 -33.10724,-11.03575 -0.1104,-2.11334 -0.0656,-8.210596 -0.34768,-10.323948 -1.61674,-14.313368 -8.23267,-10.710192 -9.1376,-10.710192 -6.61594,1.03736 -4.18255,11.162664 -1.37946,20.69203 0.2152,2.43339 -2.30648,1.3574 -3.7963,-1.20841 -5.08749,-13.645708 -7.2229,-13.408436 -8.62445,-13.816764 -1.35739,-0.30352 -6.14138,2.60996 -6.05861,8.127832 0.0224,1.572592 1.89814,9.076902 1.89814,11.383372 -3.12312,2.73687 -3.27761,8.94448 -6.55523,11.2068 -9.54592,1.98092 -32.48371,-4.71778 -35.34749,-5.02127 -9.915628,-1.85399 -14.247152,5.5841 -15.84182,3.79631 C 78.67606,101.56474 59.015872,90.61728 50.501796,88.719124 47.202108,88.007324 36.06152,83.090892 32.050028,80.61336 31.404436,80.227116 30.67056,79.945696 29.958752,79.576 M 206.91694,92.509904 c -3.10656,3.33832 -2.5658,15.819746 -1.92022,15.714896 3.16728,-0.6456 2.8693,-16.719148 1.92022,-15.714896 m 8.98862,1.898148 c -0.36416,-1.015284 -8.53614,10.456368 -7.09046,14.677548 0.6456,1.83192 8.18852,-11.466144 7.09046,-14.677548 M 173.4676,113.91373 c 0.1104,-0.1104 0.23728,0.0448 0.36416,0.17104 0.94907,3.1452 2.00298,6.14139 8.25474,6.89734 0.73392,0.0883 -3.47076,2.54375 -6.3566,1.03737 -2.63203,-1.59468 -2.86929,-7.39396 -2.26232,-8.10577 m 16.2115,15.84182 c 0.57936,-0.0883 0.99324,-0.0656 1.40154,0 1.52846,0.38624 -11.09092,6.96356 -12.0731,6.05863 -0.60144,-0.57936 6.72628,-5.32475 10.69364,-6.05863 m 3.27762,4.16047 c 1.31326,0.1104 -7.30566,9.03276 -8.27682,8.10576 -0.71184,-0.6456 5.58408,-8.32095 8.27682,-8.10576"
     id="path3" />
</svg>
