<?xml version="1.0" encoding="UTF-8" standalone="no"?>
<!-- Created with Inkscape (http://www.inkscape.org/) -->

<svg
   width="256"
   height="256"
   viewBox="0 0 256 256.00002"
   version="1.1"
   id="svg1"
   inkscape:version="1.4.2 (ebf0e940d0, 2025-05-08)"
   sodipodi:docname="falkon.svg"
   xmlns:inkscape="http://www.inkscape.org/namespaces/inkscape"
   xmlns:sodipodi="http://sodipodi.sourceforge.net/DTD/sodipodi-0.dtd"
   xmlns:xlink="http://www.w3.org/1999/xlink"
   xmlns="http://www.w3.org/2000/svg"
   xmlns:svg="http://www.w3.org/2000/svg">
  <sodipodi:namedview
     id="namedview1"
     pagecolor="#ffffff"
     bordercolor="#000000"
     borderopacity="0.25"
     inkscape:showpageshadow="2"
     inkscape:pageopacity="0.0"
     inkscape:pagecheckerboard="0"
     inkscape:deskcolor="#d1d1d1"
     inkscape:document-units="px"
     inkscape:zoom="3.109375"
     inkscape:cx="127.8392"
     inkscape:cy="128"
     inkscape:window-width="1920"
     inkscape:window-height="1011"
     inkscape:window-x="0"
     inkscape:window-y="0"
     inkscape:window-maximized="1"
     inkscape:current-layer="svg1" />
  <defs
     id="defs1">
    <linearGradient
       inkscape:collect="always"
       xlink:href="#linearGradient1956"
       id="linearGradient4"
       x1="16"
       y1="2"
       x2="16"
       y2="30"
       gradientUnits="userSpaceOnUse"
       gradientTransform="scale(8)" />
    <linearGradient
       inkscape:collect="always"
       id="linearGradient1956">
      <stop
         style="stop-color:#c371e0;stop-opacity:1;"
         offset="0"
         id="stop1952" />
      <stop
         style="stop-color:#86ceff;stop-opacity:1;"
         offset="1"
         id="stop1954" />
    </linearGradient>
    <linearGradient
       inkscape:collect="always"
       xlink:href="#linearGradient2032"
       id="linearGradient1971"
       x1="9.0001297"
       y1="30.000113"
       x2="19.925432"
       y2="8.4997234"
       gradientUnits="userSpaceOnUse"
       gradientTransform="scale(8)" />
    <linearGradient
       inkscape:collect="always"
       id="linearGradient2032">
      <stop
         style="stop-color:#ffffff;stop-opacity:1;"
         offset="0"
         id="stop2028" />
      <stop
         style="stop-color:#ffffff;stop-opacity:1;"
         offset="0.83691782"
         id="stop2036" />
      <stop
         style="stop-color:#e4e4e4;stop-opacity:1;"
         offset="1"
         id="stop2030" />
    </linearGradient>
    <linearGradient
       inkscape:collect="always"
       xlink:href="#linearGradient2008"
       id="linearGradient1959"
       x1="7.1299038"
       y1="29.678165"
       x2="24.810287"
       y2="15.946776"
       gradientUnits="userSpaceOnUse"
       gradientTransform="scale(8)" />
    <linearGradient
       inkscape:collect="always"
       id="linearGradient2008">
      <stop
         style="stop-color:#ffa639;stop-opacity:1;"
         offset="0"
         id="stop2004" />
      <stop
         style="stop-color:#ffd36a;stop-opacity:1;"
         offset="1"
         id="stop2006" />
    </linearGradient>
    <linearGradient
       inkscape:collect="always"
       xlink:href="#linearGradient2008"
       id="linearGradient1963"
       x1="8.2659512"
       y1="8.1620264"
       x2="13.778124"
       y2="9.1727571"
       gradientUnits="userSpaceOnUse"
       gradientTransform="scale(8)" />
    <linearGradient
       inkscape:collect="always"
       xlink:href="#linearGradient2008"
       id="linearGradient1961"
       x1="5.0110002"
       y1="19.255386"
       x2="18.251289"
       y2="13.67368"
       gradientUnits="userSpaceOnUse"
       gradientTransform="scale(8)" />
  </defs>
  <rect
     style="opacity:0.2;fill:#000000;stroke-width:14"
     id="rect1"
     width="224"
     height="224"
     x="16"
     y="17"
     ry="48" />
  <rect
     style="fill:url(#linearGradient4);stroke-width:8"
     id="rect2"
     width="224"
     height="224"
     x="16"
     y="16"
     ry="48" />
  <path
     id="path316"
     style="fill:url(#linearGradient1971);fill-opacity:1;fill-rule:evenodd;stroke-width:8"
     d="m 113.90625,56 c -13.84187,-0.04816 -29.73001,1.825504 -47.78125,9.296872 24.759104,1.927808 35.38155,5.387816 35.98438,8.015632 -42.81732,-7.35864 -60.628904,53.585456 -62.015628,80.734366 0,0 18.86962,-24.2869 23.906248,-26.04687 1.551904,-0.54232 1.941712,0.50504 3.812504,0 -4.973488,6.53421 -8.826736,13.17943 -12.093752,20.01562 -8.463752,19.60488 -7.909996,44.7353 -7.875,58.07814 0.0044,1.67158 0.15932,3.06392 0.25,4.59374 5.206044,5.88344 1.1495,-2.16746 7.468748,2.5 1.330328,-1.54698 2.694068,-3.1112 3.171876,-4 C 57.904436,211.04904 61.451572,227.0409 72,240 h 120 c 10.81772,0 20.77154,-3.53788 28.78124,-9.53124 -36.84476,-22.09394 -54.32055,-56.66367 -53.57811,-73.07814 0.52888,-11.69281 6.97925,-22.21852 28.62499,-28.20312 C 206.15564,127.96889 216.3217,127.49225 228,128 226.05478,112.92505 212.25506,97.144176 189.15624,92.281248 185.19546,90.395152 161.77812,56.166668 113.90625,56 Z" />
  <path
     d="m 152.00104,89.200304 c 0,0 21.23457,-7.41864 24,14.644676 -20.93825,1.92702 -24,-14.644676 -24,-14.644676 z"
     style="fill:#232629;fill-opacity:1;fill-rule:evenodd;stroke-width:8"
     id="path463" />
  <path
     d="m 57.039232,237.42532 c 0,0 34.770808,-105.00394 141.443068,-109.03068 0,0 -89.42504,-14.8672 -150.559452,81.97496 -0.33896,13.70088 9.116384,27.05572 9.116384,27.05572 z"
     style="fill:url(#linearGradient1959);fill-opacity:1;fill-rule:evenodd;stroke-width:8"
     id="path1101" />
  <path
     d="m 66.21348,65.30132 c 0,0 26.60616,1.547408 36.10529,8.080736 3.96616,-0.815936 7.33376,-3.53148 7.90622,-7.229968 -3.4034,-1.408512 -34.555358,-3.9455 -44.01151,-0.850768 z"
     style="fill:url(#linearGradient1963);fill-opacity:1;fill-rule:evenodd;stroke-width:8"
     id="path1045" />
  <path
     d="m 40.330012,154.17767 c 0,0 38.433428,-40.00853 105.680298,-44.78823 0,0 -96.667214,4.13726 -104.352222,29.98685 -2.13654,6.21588 -1.328076,14.80138 -1.328076,14.80138 z"
     style="fill:url(#linearGradient1961);fill-opacity:1;fill-rule:evenodd;stroke-width:8"
     id="path1073" />
</svg>
