<?xml version="1.0" encoding="UTF-8" standalone="no"?>
<!-- Created with Inkscape (http://www.inkscape.org/) -->

<svg
   width="256"
   height="256"
   viewBox="0 0 256 256.00002"
   version="1.1"
   id="svg1"
   inkscape:version="1.4.2 (ebf0e940d0, 2025-05-08)"
   sodipodi:docname="gimp.svg"
   xmlns:inkscape="http://www.inkscape.org/namespaces/inkscape"
   xmlns:sodipodi="http://sodipodi.sourceforge.net/DTD/sodipodi-0.dtd"
   xmlns:xlink="http://www.w3.org/1999/xlink"
   xmlns="http://www.w3.org/2000/svg"
   xmlns:svg="http://www.w3.org/2000/svg">
  <sodipodi:namedview
     id="namedview1"
     pagecolor="#ffffff"
     bordercolor="#000000"
     borderopacity="0.25"
     inkscape:showpageshadow="2"
     inkscape:pageopacity="0.0"
     inkscape:pagecheckerboard="0"
     inkscape:deskcolor="#d1d1d1"
     inkscape:document-units="px"
     inkscape:zoom="3.0703125"
     inkscape:cx="127.83715"
     inkscape:cy="128"
     inkscape:window-width="1920"
     inkscape:window-height="1011"
     inkscape:window-x="0"
     inkscape:window-y="0"
     inkscape:window-maximized="1"
     inkscape:current-layer="svg1" />
  <defs
     id="defs1">
    <linearGradient
       inkscape:collect="always"
       xlink:href="#linearGradient3"
       id="linearGradient4"
       x1="16"
       y1="30"
       x2="16"
       y2="2"
       gradientUnits="userSpaceOnUse"
       gradientTransform="scale(8)" />
    <linearGradient
       inkscape:collect="always"
       id="linearGradient3">
      <stop
         style="stop-color:#cfc6be;stop-opacity:1;"
         offset="0"
         id="stop1" />
      <stop
         style="stop-color:#f0ecec;stop-opacity:1;"
         offset="1"
         id="stop2" />
    </linearGradient>
  </defs>
  <rect
     style="opacity:0.2;fill:#000000;stroke-width:14"
     id="rect1"
     width="224"
     height="224"
     x="16"
     y="17"
     ry="48" />
  <rect
     style="fill:url(#linearGradient4);stroke-width:8"
     id="rect2"
     width="224"
     height="224"
     x="16"
     y="16"
     ry="48" />
  <path
     style="fill:#8c8073;fill-opacity:1;fill-rule:evenodd;stroke-width:4"
     d="m 202.42232,48.053764 c -1.39068,-0.2212 -2.64008,0.56372 -3.3912,1.4572 -0.75108,0.89392 -1.27224,2.0014 -1.72608,3.39712 -0.78488,2.41524 -3.6674,11.38024 -14.06159,20.24092 -10.39416,8.86112 -28.31856,22.05304 -59.38468,22.8524 -18.89028,0.2212 -31.918082,-9.49568 -39.450722,-24.40128 -1.87988,-3.71988 -4.61856,-10.65208 -4.61856,-6.2412 v 6.81992 l -0.096,35.296356 0.1916,0.46464 c 0,0 1.69228,3.75924 -0.096,8.824 -1.7882,5.0652 -8.8404,12.45668 -24.59972,17.18676 l -1.9266,0.57256 0.366,2.0288 c 0.87412,4.91488 4.35844,9.95224 9.50228,15.1094 5.1438,5.15672 12.03092,10.374 20.0506,15.0908 16.03936,9.43364 36.582842,16.88844 56.542762,17.2368 19.95988,0.3492 39.48884,-6.63068 52.41055,-25.9626 12.92172,-19.33152 19.2236,-56.22584 14.06156,-104.277836 h -0.008 c -0.164,-1.31924 -0.45504,-2.44572 -0.97628,-3.43292 -0.5212,-0.9868 -1.39896,-2.00584 -2.78964,-2.226 z"
     id="path9412" />
  <path
     style="fill:#ffffff;fill-rule:evenodd;stroke-width:4"
     d="m 97.995928,92.001404 c -5.44256,0 -10.91248,1.79916 -15.07688,5.50088 -4.16436,3.701716 -6.91904,9.342956 -6.91904,16.503076 0,7.16012 2.75468,12.79344 6.91904,16.49516 4.1644,3.70172 9.63432,5.50088 15.07688,5.50088 5.442562,0 10.912482,-1.79916 15.076882,-5.50088 4.16436,-3.70172 6.9272,-9.33504 6.9272,-16.49516 0,-7.16012 -2.76284,-12.80136 -6.9272,-16.503076 -4.1644,-3.70172 -9.63432,-5.50088 -15.076882,-5.50088 z"
     id="path9420" />
  <path
     style="fill:#3f3f3f;fill-rule:evenodd;stroke-width:4"
     d="m 102.00001,108.0014 c -2.450362,0 -4.927562,0.81 -6.835962,2.5064 -1.90836,1.6964 -3.16404,4.3092 -3.16404,7.4936 0,3.1844 1.25568,5.7972 3.16404,7.4936 1.9084,1.6964 4.3856,2.5064 6.835962,2.5064 2.45036,0 4.92756,-0.81 6.83592,-2.5064 1.9084,-1.6964 3.16408,-4.3092 3.16408,-7.4936 0,-3.1844 -1.25568,-5.7972 -3.16408,-7.4936 -1.90836,-1.6964 -4.38556,-2.5064 -6.83592,-2.5064 z"
     id="path9422" />
  <path
     id="path9424"
     style="opacity:1;fill:#333333;fill-opacity:1;fill-rule:evenodd;stroke-width:4"
     d="m 144,144 c 0,0 0.61472,3.12323 2.82812,5.96875 -5.23268,4.02184 -15.57704,5.29696 -27.35156,6.02344 -7.08788,0.4294 -14.90516,0 -23.47656,0 V 156 c 13.35764,4.69472 24.82328,8.20019 33.82812,7.99219 8.45976,-0.19672 14.7468,-3.80313 18.39844,-8.82813 0.50772,1.97872 1.76424,3.84873 3.77344,8.82813 0.90252,-5.66952 5.56575,-8.39689 2.11719,-12.82813 C 150.65867,146.72042 144,144 144,144 Z"
     sodipodi:nodetypes="cccccccccc" />
  <path
     style="fill:#3f3f3f;fill-rule:evenodd;stroke-width:4"
     d="m 57.895888,104.0014 c -1.06496,0 -2.10928,0.0652 -3.1244,0.2252 -2.70704,0.42464 -5.21344,1.44212 -7.37428,2.98564 -8.643396,6.1746 -10.919716,20.16824 -0.2436,34.82184 10.67616,14.65404 24.80116,16.92816 33.44456,10.7536 8.6434,-6.17456 10.92812,-20.1682 0.252,-34.82184 -7.00624,-9.61652 -15.49972,-13.89916 -22.95428,-13.96372 z"
     id="path9428" />
  <path
     style="fill:#ffffff;fill-rule:evenodd;stroke-width:4"
     d="m 133.99593,92.001404 c -5.44256,0 -10.91248,1.79916 -15.07688,5.50088 -4.16436,3.701716 -6.91904,9.342956 -6.91904,16.503076 0,7.16012 2.75468,12.79344 6.91904,16.49516 4.1644,3.70172 9.63432,5.50088 15.07688,5.50088 5.44256,0 10.91248,-1.79916 15.07688,-5.50088 4.16436,-3.70172 6.9272,-9.33504 6.9272,-16.49516 0,-7.16012 -2.76284,-12.80136 -6.9272,-16.503076 -4.1644,-3.70172 -9.63432,-5.50088 -15.07688,-5.50088 z"
     id="path9430" />
  <path
     style="fill:#3f3f3f;fill-rule:evenodd;stroke-width:4"
     d="m 138.00001,108.0014 c -2.45036,0 -4.92756,0.81 -6.83596,2.5064 -1.90836,1.6964 -3.16404,4.3092 -3.16404,7.4936 0,3.1844 1.25568,5.7972 3.16404,7.4936 1.9084,1.6964 4.3856,2.5064 6.83596,2.5064 2.45036,0 4.92756,-0.81 6.83592,-2.5064 1.9084,-1.6964 3.16408,-4.3092 3.16408,-7.4936 0,-3.1844 -1.25568,-5.7972 -3.16408,-7.4936 -1.90836,-1.6964 -4.38556,-2.5064 -6.83592,-2.5064 z"
     id="path9432" />
  <path
     style="fill:#ff9a0c;stroke-width:4"
     d="m 183.87109,181.60176 3.70559,-7.37952 c -13.78531,-10.08532 -39.52075,-20.31936 -39.52075,-20.31936 l -4.055,2.22912 c 0,0 23.366,20.72416 39.87016,25.46976 z"
     id="path9438" />
  <path
     style="fill:#8a8a8a;stroke-width:4"
     d="m 184,168.00012 -1.93227,1.27076 c -1.78976,0.97964 -3.24176,2.64468 -4.41952,4.57036 -1.34764,3.16568 -1.87984,5.14528 -1.6482,8.2382 l 2.8,-0.47944 c 0,0 14.61967,4.19416 21.54047,6.4 l 0.80956,-1.55956 2.84996,-5.5162 -20,-10.24576 z"
     id="path9440" />
  <path
     style="fill:#3f3f3f;stroke-width:4"
     d="m 224,208 c -4.98796,-16.20632 -6.75708,-29.07412 -19.7922,-27.92908 -10.50452,0.92276 -11.23992,15.32932 -0.3852,19.3048 10.45668,3.8296 20.17728,8.62428 20.17728,8.62428 z"
     id="path9442" />
</svg>
