<?xml version="1.0" encoding="UTF-8" standalone="no"?>
<!-- Created with Inkscape (http://www.inkscape.org/) -->

<svg
   width="256"
   height="256"
   viewBox="0 0 256 256.00002"
   version="1.1"
   id="svg1"
   inkscape:version="1.4 (e7c3feb100, 2024-10-09)"
   sodipodi:docname="google-chrome-beta.svg"
   xmlns:inkscape="http://www.inkscape.org/namespaces/inkscape"
   xmlns:sodipodi="http://sodipodi.sourceforge.net/DTD/sodipodi-0.dtd"
   xmlns:xlink="http://www.w3.org/1999/xlink"
   xmlns="http://www.w3.org/2000/svg"
   xmlns:svg="http://www.w3.org/2000/svg">
  <sodipodi:namedview
     id="namedview1"
     pagecolor="#ffffff"
     bordercolor="#000000"
     borderopacity="0.25"
     inkscape:showpageshadow="2"
     inkscape:pageopacity="0.0"
     inkscape:pagecheckerboard="0"
     inkscape:deskcolor="#d1d1d1"
     inkscape:document-units="px"
     inkscape:zoom="3.0703125"
     inkscape:cx="128.16285"
     inkscape:cy="128"
     inkscape:window-width="1920"
     inkscape:window-height="1011"
     inkscape:window-x="0"
     inkscape:window-y="0"
     inkscape:window-maximized="1"
     inkscape:current-layer="svg1" />
  <defs
     id="defs1">
    <linearGradient
       inkscape:collect="always"
       id="linearGradient1606">
      <stop
         style="stop-color:#eaebed;stop-opacity:1;"
         offset="0"
         id="stop1602" />
      <stop
         style="stop-color:#f9fafa;stop-opacity:1;"
         offset="1"
         id="stop1604" />
    </linearGradient>
    <linearGradient
       inkscape:collect="always"
       xlink:href="#linearGradient1606"
       id="linearGradient4"
       x1="16"
       y1="30"
       x2="16"
       y2="2"
       gradientUnits="userSpaceOnUse"
       gradientTransform="scale(8)" />
    <linearGradient
       inkscape:collect="always"
       xlink:href="#linearGradient12495"
       id="linearGradient12497"
       x1="3.7041574"
       y1="5.15939"
       x2="8.9958239"
       y2="5.15939"
       gradientUnits="userSpaceOnUse" />
    <linearGradient
       inkscape:collect="always"
       id="linearGradient12495">
      <stop
         style="stop-color:#db3328;stop-opacity:1;"
         offset="0"
         id="stop12491" />
      <stop
         style="stop-color:#e53d30;stop-opacity:1"
         offset="1"
         id="stop12493" />
    </linearGradient>
    <linearGradient
       inkscape:collect="always"
       xlink:href="#linearGradient13171"
       id="linearGradient13173"
       x1="4.4023013"
       y1="4.2994838"
       x2="5.9898009"
       y2="7.474484"
       gradientUnits="userSpaceOnUse" />
    <linearGradient
       inkscape:collect="always"
       id="linearGradient13171">
      <stop
         style="stop-color:#32a651;stop-opacity:1;"
         offset="0"
         id="stop13167" />
      <stop
         style="stop-color:#279847;stop-opacity:1"
         offset="1"
         id="stop13169" />
    </linearGradient>
  </defs>
  <rect
     style="opacity:0.2;fill:#000000;stroke-width:14"
     id="rect1"
     width="224"
     height="224"
     x="16"
     y="17"
     ry="48" />
  <rect
     style="fill:url(#linearGradient4);stroke-width:8"
     id="rect2"
     width="224"
     height="224"
     x="16"
     y="16"
     ry="48" />
  <g
     id="g13900"
     transform="matrix(17.786011,0,0,17.786011,15.058826,15.058826)">
    <path
       d="m 6.3499908,1.8520833 c -1.6648002,0 -3.1172325,0.9051142 -3.8949803,2.2495046 L 2.6017322,6.7248018 4.4023011,7.4744838 6.3499908,6.3500302 V 4.1010567 H 10.244704 C 9.4668234,2.7569983 8.014591,1.8520833 6.3499908,1.8520833 Z"
       style="fill:url(#linearGradient12497);fill-opacity:1;stroke-width:0.0175699"
       id="path1309" />
    <path
       d="m 1.8521097,6.3500302 c 0,2.4841174 2.013697,4.4978798 4.4978805,4.4978798 L 8.322717,9.7933342 8.2976798,7.4744838 6.3499902,6.3500302 4.4023011,7.4744838 2.4550101,4.1015879 C 2.0722656,4.7632044 1.8520833,5.5305796 1.8520833,6.3499639"
       style="fill:url(#linearGradient13173);fill-opacity:1;stroke-width:0.0175699"
       id="path1449"
       sodipodi:nodetypes="cccccccc" />
    <path
       d="m 6.3500375,6.3500302 1.947689,1.1244536 -1.947689,3.3734262 c 2.4841163,0 4.4978795,-2.0137624 4.4978795,-4.4978798 0,-0.819517 -0.220254,-1.5871712 -0.603213,-2.2489735 H 6.3499908 Z"
       style="fill:#fbbf12;stroke-width:0.0175699"
       id="path1829" />
    <path
       d="m 8.5990112,6.3500302 c 0,1.2420585 -1.0069151,2.2489734 -2.2489737,2.2489734 -1.242059,0 -2.2489739,-1.0069149 -2.2489739,-2.2489734 0,-1.2420588 1.0069149,-2.2489735 2.2489739,-2.2489735 1.2420586,0 2.2489737,1.0069147 2.2489737,2.2489735"
       style="fill:#ffffff;stroke-width:0.0175699"
       id="path2229" />
    <path
       d="m 8.1492041,6.3500006 c 0,0.9936381 -0.8055294,1.7991654 -1.7991667,1.7991654 -0.9936381,0 -1.7991668,-0.8055273 -1.7991668,-1.7991654 0,-0.9936377 0.8055287,-1.7991663 1.7991668,-1.7991663 0.9936373,0 1.7991667,0.8055286 1.7991667,1.7991663"
       style="fill:#4688f4;fill-opacity:1;stroke-width:0.0172995"
       id="path2029" />
  </g>
  <path
     id="path520"
     style="fill:#414342;fill-opacity:1;stroke-width:8;stroke-linecap:round;stroke-linejoin:round"
     d="m 51.784,152 a 80,79.99994 0 0 0 76.21875,56 80,79.99994 0 0 0 76.21875,-56 z" />
  <path
     id="path727"
     style="font-size:4px;font-family:'Google Sans';-inkscape-font-specification:'Google Sans';text-align:center;text-anchor:middle;fill:#ffffff;stroke-width:1.50206;stroke-linecap:round;stroke-linejoin:round"
     d="m 90.49936,160 v 28.16598 h 10.66312 c 1.49521,0 2.88381,-0.33624 4.16918,-1.01828 1.31159,-0.682 2.35175,-1.61761 3.11247,-2.82428 0.78696,-1.2329 1.1912,-2.60931 1.1912,-4.13076 0,-1.54768 -0.45304,-2.8997 -1.34491,-4.0539 -0.89188,-1.1542 -2.04178,-1.96786 -3.45831,-2.44002 v -0.15368 c 1.18044,-0.55088 2.10383,-1.34013 2.78587,-2.36318 0.70824,-1.02304 1.0567,-2.22874 1.0567,-3.5928 0,-1.44274 -0.36064,-2.72678 -1.09514,-3.88098 -0.73448,-1.1542 -1.73805,-2.07243 -2.99719,-2.72823 C 103.34946,160.32403 102.04103,160 100.62451,160 Z m 46.86005,2.44003 v 5.66778 h -3.49674 v 3.03561 h 3.49674 v 11.75825 c 0,0.94435 0.14112,1.7458 0.40344,2.4016 0.26232,0.65576 0.64736,1.23075 1.17197,1.72915 0.47216,0.44592 1.04712,0.7944 1.72916,1.05672 0.70824,0.26232 1.47314,0.40344 2.28632,0.40344 0.6296,0 1.14355,-0.0368 1.53703,-0.11528 0.41968,-0.0784 0.83613,-0.21984 1.22961,-0.40344 v -3.26618 c -0.70824,0.44592 -1.44874,0.6724 -2.20947,0.6724 -0.94434,0 -1.67265,-0.28744 -2.17104,-0.86457 -0.41976,-0.52464 -0.634,-1.33829 -0.634,-2.44003 v -10.9321 h 4.88005 v -3.03561 h -4.88005 v -5.66778 z m -43.555442,0.74928 h 6.974252 c 0.91811,0 1.71956,0.22648 2.4016,0.67248 0.70824,0.44592 1.24663,1.02089 1.61387,1.72915 0.39352,0.682 0.5764,1.36672 0.5764,2.07499 0,0.73448 -0.18288,1.46278 -0.5764,2.17105 -0.39344,0.682 -0.95623,1.24478 -1.69072,1.69072 -0.70824,0.44592 -1.53411,0.6724 -2.47846,0.6724 h -6.820542 z m 28.531012,4.28446 c -1.94115,0 -3.64162,0.4896 -5.1106,1.46017 -1.46898,0.97058 -2.60669,2.27382 -3.41988,3.9002 -0.78696,1.62638 -1.1912,3.4 -1.1912,5.34116 0,2.01985 0.42864,3.84928 1.26805,5.47565 0.86565,1.60015 2.05214,2.8476 3.57359,3.76571 1.52144,0.91814 3.23411,1.38334 5.14903,1.38334 2.09855,0 3.89139,-0.47744 5.36037,-1.42174 1.49522,-0.94436 2.66951,-2.2162 3.53516,-3.84256 l -2.82429,-1.38333 c -1.39028,2.41333 -3.36603,3.61202 -5.93675,3.61202 -1.10174,0 -2.16628,-0.26312 -3.18933,-0.78776 -0.99681,-0.52464 -1.82265,-1.29468 -2.47845,-2.34397 -0.65576,-1.04927 -1.03565,-2.34031 -1.11434,-3.86176 h 15.86978 c 0.0784,-0.28856 0.11528,-0.6248 0.11528,-1.01828 0,-1.99362 -0.40424,-3.77427 -1.1912,-5.32195 -0.76072,-1.54769 -1.86185,-2.74637 -3.30461,-3.61201 -1.44274,-0.89188 -3.14321,-1.3449 -5.11061,-1.34489 z m 34.39094,0 c -1.67883,0 -3.22078,0.33624 -4.61107,1.01828 -1.36407,0.682 -2.4408,1.63682 -3.22775,2.84349 l 2.53608,1.88286 c 0.55088,-0.86566 1.28434,-1.52596 2.22869,-1.99814 0.94435,-0.4984 1.98451,-0.74928 3.11247,-0.74928 1.60016,0 2.92779,0.446 3.97706,1.36411 1.04927,0.89189 1.57545,2.09758 1.57545,3.59279 v 1.21041 c -0.55088,-0.34104 -1.35233,-0.64064 -2.4016,-0.903 -1.02304,-0.26232 -2.13636,-0.38424 -3.34303,-0.38424 -2.43956,0 -4.47111,0.59936 -6.07125,1.806 -1.60015,1.18045 -2.4016,2.83213 -2.4016,4.95691 0,1.28536 0.33104,2.43526 0.96064,3.4583 0.6296,0.99681 1.51637,1.78608 2.67057,2.36318 1.15421,0.57712 2.46965,0.86457 3.93864,0.86457 1.44276,0 2.72678,-0.33624 3.88098,-1.01827 1.15421,-0.68208 2.03585,-1.50788 2.61294,-2.47846 h 0.15368 v 2.86271 h 3.18933 v -12.69967 c 0,-2.46581 -0.78928,-4.40497 -2.36317,-5.82149 -1.54768,-1.44275 -3.68897,-2.17105 -6.41708,-2.17105 z m -34.42936,3.03561 c 1.36406,0 2.48957,0.28744 3.38146,0.86459 0.91811,0.57712 1.59764,1.27399 2.01734,2.11341 0.41968,0.83942 0.6392,1.69667 0.69168,2.53608 h -12.23857 c 0.34104,-1.6526 1.05712,-2.98023 2.13263,-3.97704 1.10173,-1.02305 2.44156,-1.53704 4.01546,-1.53704 z m -28.492592,4.84164 h 7.396932 c 0.99681,0 1.87143,0.23872 2.63216,0.71088 0.76072,0.44592 1.36708,1.04529 1.78678,1.80601 0.41968,0.73448 0.6148,1.49937 0.6148,2.28633 0,0.78696 -0.19512,1.54482 -0.6148,2.30554 -0.39344,0.73448 -0.96842,1.35304 -1.72915,1.82521 -0.73448,0.47216 -1.59174,0.69168 -2.53609,0.69168 h -7.550632 z m 63.267782,2.70902 c 1.02304,0 2.00223,0.14112 2.92035,0.40344 0.91811,0.26232 1.69518,0.59856 2.32475,1.01828 0,1.1542 -0.28744,2.21874 -0.86458,3.18933 -0.57712,0.97057 -1.35417,1.72843 -2.32474,2.30553 -0.97059,0.57712 -2.02294,0.88379 -3.15091,0.88379 -1.28536,0 -2.3499,-0.35544 -3.18933,-1.03747 -0.83942,-0.68208 -1.24883,-1.56885 -1.24883,-2.6706 0,-1.20666 0.446,-2.19804 1.36411,-2.95876 0.94435,-0.76072 2.33295,-1.13356 4.16918,-1.13356 z" />
</svg>
