<?xml version="1.0" encoding="UTF-8" standalone="no"?>
<!-- Created with Inkscape (http://www.inkscape.org/) -->

<svg
   width="256"
   height="256"
   viewBox="0 0 256 256.00002"
   version="1.1"
   id="svg1"
   inkscape:version="1.4.2 (ebf0e940d0, 2025-05-08)"
   sodipodi:docname="google-drive.svg"
   xmlns:inkscape="http://www.inkscape.org/namespaces/inkscape"
   xmlns:sodipodi="http://sodipodi.sourceforge.net/DTD/sodipodi-0.dtd"
   xmlns="http://www.w3.org/2000/svg"
   xmlns:svg="http://www.w3.org/2000/svg">
  <sodipodi:namedview
     id="namedview1"
     pagecolor="#ffffff"
     bordercolor="#000000"
     borderopacity="0.25"
     inkscape:showpageshadow="2"
     inkscape:pageopacity="0.0"
     inkscape:pagecheckerboard="0"
     inkscape:deskcolor="#d1d1d1"
     inkscape:document-units="px"
     inkscape:zoom="3.109375"
     inkscape:cx="127.8392"
     inkscape:cy="128"
     inkscape:window-width="1920"
     inkscape:window-height="1011"
     inkscape:window-x="0"
     inkscape:window-y="0"
     inkscape:window-maximized="1"
     inkscape:current-layer="svg1"
     showguides="false" />
  <defs
     id="defs1" />
  <rect
     style="opacity:0.2;fill:#000000;stroke-width:14"
     id="rect1"
     width="224"
     height="224"
     x="16"
     y="17"
     ry="48" />
  <rect
     style="fill:#fafafa;fill-opacity:1;stroke-width:8"
     id="rect2"
     width="224"
     height="224"
     x="16"
     y="16"
     ry="48" />
  <g
     id="g1"
     transform="scale(8)">
    <path
       inkscape:connector-curvature="0"
       d="m 19.699887,19.142037 h -7.39977 l -2.9406743,1.880965 -0.2093828,3.571494 c 0.3092786,0.1833 0.6643727,0.274916 1.0309261,0.274916 h 11.638029 c 0.366553,0 0.721647,-0.1031 1.030929,-0.274916 l -0.56388,-3.76772 z"
       id="path10-4"
       style="fill:#2684fc;stroke-width:0.229094"
       sodipodi:nodetypes="ccccssccc" />
    <path
       inkscape:connector-curvature="0"
       d="m 7.5120299,22.315 0.8820157,1.523482 c 0.183276,0.32073 0.4467326,0.572734 0.7560143,0.756014 L 12.300117,19.142037 H 6.0000023 c 0,0.355102 0.09164,0.71019 0.2749168,1.030924 z"
       id="path2-0"
       style="fill:#0066da;stroke-width:0.229094" />
    <path
       inkscape:connector-curvature="0"
       d="M 16.000001,12.727376 12.849943,7.2749146 C 12.540665,7.4581778 12.277209,7.7101967 12.093931,8.0309273 L 6.2749163,18.111109 A 2.075601,2.075601 0 0 0 6.0000061,19.142037 H 12.30012 Z"
       id="path4-3"
       style="fill:#00ac47;stroke-width:0.229094" />
    <path
       inkscape:connector-curvature="0"
       d="m 22.849944,24.594496 c 0.30928,-0.18326 0.572734,-0.43528 0.756014,-0.756014 l 0.36655,-0.63001 1.752578,-3.035509 c 0.18328,-0.32073 0.274916,-0.675826 0.274916,-1.030924 h -6.300575 l 1.340664,2.634591 z"
       id="path6-0"
       style="fill:#ea4335;stroke-width:0.229094" />
    <path
       inkscape:connector-curvature="0"
       d="M 16.000001,12.727376 19.150057,7.2749146 C 18.840778,7.0916392 18.485682,7 18.11913,7 h -4.238259 c -0.366553,0 -0.721648,0.103098 -1.030928,0.2749154 z"
       id="path8-4"
       style="fill:#00832d;stroke-width:0.229094" />
    <path
       inkscape:connector-curvature="0"
       d="M 22.815578,13.071019 19.906069,8.0309273 C 19.722805,7.7101943 19.459336,7.45819 19.150057,7.2749146 l -3.150056,5.4524614 3.699886,6.414661 h 6.288659 c 0,-0.3551 -0.09164,-0.710195 -0.274908,-1.030928 z"
       id="path12"
       style="fill:#ffba00;stroke-width:0.229094" />
  </g>
</svg>
