<?xml version="1.0" encoding="UTF-8" standalone="no"?>
<!-- Created with Inkscape (http://www.inkscape.org/) -->

<svg
   width="256"
   height="256"
   viewBox="0 0 256 256.00002"
   version="1.1"
   id="svg1"
   inkscape:version="1.4.2 (ebf0e940d0, 2025-05-08)"
   sodipodi:docname="io.github.seadve.Mousai.svg"
   xmlns:inkscape="http://www.inkscape.org/namespaces/inkscape"
   xmlns:sodipodi="http://sodipodi.sourceforge.net/DTD/sodipodi-0.dtd"
   xmlns:xlink="http://www.w3.org/1999/xlink"
   xmlns="http://www.w3.org/2000/svg"
   xmlns:svg="http://www.w3.org/2000/svg">
  <sodipodi:namedview
     id="namedview1"
     pagecolor="#ffffff"
     bordercolor="#000000"
     borderopacity="0.25"
     inkscape:showpageshadow="2"
     inkscape:pageopacity="0.0"
     inkscape:pagecheckerboard="0"
     inkscape:deskcolor="#d1d1d1"
     inkscape:document-units="px"
     inkscape:zoom="3.109375"
     inkscape:cx="127.8392"
     inkscape:cy="128"
     inkscape:window-width="1920"
     inkscape:window-height="1011"
     inkscape:window-x="0"
     inkscape:window-y="0"
     inkscape:window-maximized="1"
     inkscape:current-layer="svg1" />
  <defs
     id="defs1">
    <linearGradient
       inkscape:collect="always"
       xlink:href="#linearGradient1612"
       id="linearGradient4"
       x1="9.6488552"
       y1="15.099236"
       x2="30"
       y2="6.3155217"
       gradientUnits="userSpaceOnUse"
       gradientTransform="scale(8)" />
    <linearGradient
       inkscape:collect="always"
       id="linearGradient1612">
      <stop
         style="stop-color:#6b97df;stop-opacity:1;"
         offset="0"
         id="stop1608" />
      <stop
         style="stop-color:#c25298;stop-opacity:1;"
         offset="1"
         id="stop1610" />
    </linearGradient>
    <linearGradient
       inkscape:collect="always"
       id="linearGradient7676">
      <stop
         style="stop-color:#6b97df;stop-opacity:0;"
         offset="0"
         id="stop7672" />
      <stop
         style="stop-color:#e5565c;stop-opacity:1;"
         offset="1"
         id="stop7674" />
    </linearGradient>
    <linearGradient
       inkscape:collect="always"
       xlink:href="#linearGradient7676"
       id="linearGradient5"
       x1="9.653944"
       y1="16"
       x2="30"
       y2="26.015266"
       gradientUnits="userSpaceOnUse"
       gradientTransform="scale(8)" />
  </defs>
  <rect
     style="opacity:0.2;fill:#000000;stroke-width:14"
     id="rect1"
     width="224"
     height="224"
     x="16"
     y="17"
     ry="48" />
  <rect
     style="fill:url(#linearGradient4);stroke-width:8"
     id="rect2"
     width="224"
     height="224"
     x="16"
     y="16"
     ry="48" />
  <rect
     style="fill:url(#linearGradient5);stroke-width:8;stroke-linecap:round"
     id="rect3"
     width="224"
     height="224"
     x="16"
     y="16"
     ry="48" />
  <path
     d="m 96,64 v 68.3125 C 91.13784,129.49506 85.619472,128.0077 80,128 c -17.673104,0 -32,14.32689 -32,32 0,17.6731 14.326896,32 32,32 17.67312,0 32,-14.3269 32,-32 V 80 h 64 v 52.3125 c -4.86216,-2.81744 -10.38053,-4.3048 -16,-4.3125 -17.6731,0 -32,14.32689 -32,32 0,17.6731 14.3269,32 32,32 17.6731,0 32,-14.3269 32,-32 V 64 M 80,144 c 8.83656,0 16,7.16345 16,16 0,8.83656 -7.16344,16 -16,16 -8.83656,0 -16,-7.16344 -16,-16 0,-8.83655 7.16344,-16 16,-16 z m 80,0 c 8.83656,0 16,7.16345 16,16 0,8.83656 -7.16344,16 -16,16 -8.83656,0 -16,-7.16344 -16,-16 0,-8.83655 7.16344,-16 16,-16 z"
     style="fill:#ffffff;stroke-width:16"
     id="path463" />
</svg>
