<?xml version="1.0" encoding="UTF-8" standalone="no"?>
<!-- Created with Inkscape (http://www.inkscape.org/) -->

<svg
   width="256"
   height="256"
   viewBox="0 0 256 256.00002"
   version="1.1"
   id="svg1"
   inkscape:version="1.4.2 (ebf0e940d0, 2025-05-08)"
   sodipodi:docname="kmix.svg"
   xmlns:inkscape="http://www.inkscape.org/namespaces/inkscape"
   xmlns:sodipodi="http://sodipodi.sourceforge.net/DTD/sodipodi-0.dtd"
   xmlns:xlink="http://www.w3.org/1999/xlink"
   xmlns="http://www.w3.org/2000/svg"
   xmlns:svg="http://www.w3.org/2000/svg">
  <sodipodi:namedview
     id="namedview1"
     pagecolor="#ffffff"
     bordercolor="#000000"
     borderopacity="0.25"
     inkscape:showpageshadow="2"
     inkscape:pageopacity="0.0"
     inkscape:pagecheckerboard="0"
     inkscape:deskcolor="#d1d1d1"
     inkscape:document-units="px"
     inkscape:zoom="3.109375"
     inkscape:cx="127.8392"
     inkscape:cy="128"
     inkscape:window-width="1920"
     inkscape:window-height="1011"
     inkscape:window-x="0"
     inkscape:window-y="0"
     inkscape:window-maximized="1"
     inkscape:current-layer="svg1" />
  <defs
     id="defs1">
    <linearGradient
       inkscape:collect="always"
       xlink:href="#linearGradient6542"
       id="linearGradient4"
       x1="16"
       y1="2"
       x2="16"
       y2="30"
       gradientUnits="userSpaceOnUse"
       gradientTransform="scale(8)" />
    <linearGradient
       inkscape:collect="always"
       id="linearGradient6542">
      <stop
         style="stop-color:#9aafb9;stop-opacity:1;"
         offset="0"
         id="stop6538" />
      <stop
         style="stop-color:#688492;stop-opacity:1;"
         offset="1"
         id="stop6540" />
    </linearGradient>
  </defs>
  <rect
     style="opacity:0.2;fill:#000000;stroke-width:14"
     id="rect1"
     width="224"
     height="224"
     x="16"
     y="17"
     ry="48" />
  <rect
     style="fill:url(#linearGradient4);stroke-width:8"
     id="rect2"
     width="224"
     height="224"
     x="16"
     y="16"
     ry="48" />
  <path
     d="m 120,67.994336 -32,28 H 64 c -8.863968,0 -16,7.136034 -16,16.000004 v 32 c 0,8.86395 7.136032,16 16,16 h 24 l 32,28 z"
     style="fill:#ffffff;stroke-width:16;stroke-linecap:round"
     id="path1" />
  <path
     d="m 170.51562,65.13496 c -0.51784,-0.0648 -1.04332,-0.028 -1.54687,0.10936 -1.0272,0.27144 -1.90418,0.940464 -2.4375,1.859376 -1.10696,1.915424 -0.44888,4.365656 1.46875,5.468752 19.80718,11.43568 32,32.550512 32,55.421872 0,22.87137 -12.1928,43.9862 -32,55.42187 -1.91765,1.10309 -2.57571,3.55333 -1.46875,5.46875 1.10309,1.91766 3.55333,2.57572 5.46875,1.46876 22.27128,-12.85834 36,-36.64272 36,-62.35938 0,-25.71666 -13.72872,-49.50104 -36,-62.359376 -0.45704,-0.26288 -0.96147,-0.4328 -1.48438,-0.5 z m -23.04687,23.218752 c -1.61189,-0.12568 -3.14097,0.73128 -3.875,2.171872 -0.99927,1.967648 -0.21616,4.372848 1.75,5.375 C 157.41291,102.05013 165,114.43318 165,127.97871 c 0,13.54554 -7.58709,25.92858 -19.65625,32.07812 -1.96619,1.00215 -2.74928,3.40735 -1.75,5.37501 1.00215,1.96618 3.40735,2.74927 5.375,1.75 C 163.70378,159.67396 173,144.51622 173,127.97871 c 0,-16.53751 -9.29622,-31.695254 -24.03125,-39.203126 -0.46752,-0.2376 -0.97718,-0.38088 -1.5,-0.42184 z"
     style="opacity:0.5;fill:#ffffff;stroke-width:16;stroke-linecap:round"
     id="path2" />
</svg>
