<?xml version="1.0" encoding="UTF-8" standalone="no"?>
<!-- Created with Inkscape (http://www.inkscape.org/) -->

<svg
   width="256"
   height="256"
   viewBox="0 0 256 256.00002"
   version="1.1"
   id="svg1"
   inkscape:version="1.4.2 (ebf0e940d0, 2025-05-08)"
   sodipodi:docname="kolourpaint.svg"
   xmlns:inkscape="http://www.inkscape.org/namespaces/inkscape"
   xmlns:sodipodi="http://sodipodi.sourceforge.net/DTD/sodipodi-0.dtd"
   xmlns:xlink="http://www.w3.org/1999/xlink"
   xmlns="http://www.w3.org/2000/svg"
   xmlns:svg="http://www.w3.org/2000/svg">
  <sodipodi:namedview
     id="namedview1"
     pagecolor="#ffffff"
     bordercolor="#000000"
     borderopacity="0.25"
     inkscape:showpageshadow="2"
     inkscape:pageopacity="0.0"
     inkscape:pagecheckerboard="0"
     inkscape:deskcolor="#d1d1d1"
     inkscape:document-units="px"
     inkscape:zoom="3.109375"
     inkscape:cx="127.8392"
     inkscape:cy="128"
     inkscape:window-width="1920"
     inkscape:window-height="1011"
     inkscape:window-x="0"
     inkscape:window-y="0"
     inkscape:window-maximized="1"
     inkscape:current-layer="svg1"
     showguides="false" />
  <defs
     id="defs1">
    <linearGradient
       inkscape:collect="always"
       xlink:href="#linearGradient4681"
       id="linearGradient4"
       x1="16"
       y1="30"
       x2="16"
       y2="2"
       gradientUnits="userSpaceOnUse"
       gradientTransform="scale(8)" />
    <linearGradient
       inkscape:collect="always"
       id="linearGradient4681">
      <stop
         style="stop-color:#ff5651;stop-opacity:1;"
         offset="0"
         id="stop4677" />
      <stop
         style="stop-color:#ff8b75;stop-opacity:1;"
         offset="1"
         id="stop4679" />
    </linearGradient>
  </defs>
  <rect
     style="opacity:0.2;fill:#000000;stroke-width:14"
     id="rect1"
     width="224"
     height="224"
     x="16"
     y="17"
     ry="48" />
  <rect
     style="fill:url(#linearGradient4);stroke-width:8"
     id="rect2"
     width="224"
     height="224"
     x="16"
     y="16"
     ry="48" />
  <rect
     style="opacity:0.2;fill:#ffffff;stroke-width:8"
     id="rect6239"
     width="32"
     height="32"
     x="84"
     y="68" />
  <rect
     style="opacity:0.3;fill:#ffffff;stroke-width:8"
     id="rect6241"
     width="32"
     height="32"
     x="132"
     y="68" />
  <rect
     style="opacity:0.5;fill:#ffffff;stroke-width:8"
     id="rect6243"
     width="32"
     height="32"
     x="164"
     y="100" />
  <path
     id="path4033"
     style="fill:#ffffff;stroke-width:8"
     d="m 128,48 c -44.443152,0 -80,35.556848 -80,80 0,44.44315 35.556848,80 80,80 7.11103,0 13.32813,-6.21766 13.32813,-13.32812 0,-3.55552 -0.88024,-6.22416 -3.54688,-8.89064 -1.776,-2.6679 -3.5625,-5.33454 -3.5625,-8.89062 0,-7.11103 6.23327,-13.34375 13.34375,-13.34375 h 16 C 188.45046,163.55487 208,144.01458 208,119.125 208,80.01384 172.44794,48.015624 128,48.015624 Z m -28,24 c 6.3999,0 12,5.599928 12,12 0,6.399904 -5.59994,12 -12,12 -6.399984,0 -12,-5.600016 -12,-12 0,-6.4 5.600016,-12 12,-12 z m 48,0 c 6.3999,0 12,5.599928 12,12 0,6.399904 -5.59994,12 -12,12 -6.3999,0 -12,-5.599936 -12,-12 0,-6.39992 5.59994,-12 12,-12 z m -72,32 c 6.399904,0 12,5.59993 12,12 0,6.3999 -5.599936,12 -12,12 -6.399912,0 -12,-5.59994 -12,-12 0,-6.39991 5.599928,-12 12,-12 z m 104,0 c 6.3999,0 12,5.59993 12,12 0,6.3999 -5.59994,12 -12,12 -6.39998,0 -12,-5.60162 -12,-12 0,-6.39999 5.60002,-12 12,-12 z" />
</svg>
