<?xml version="1.0" encoding="UTF-8" standalone="no"?>
<!-- Created with Inkscape (http://www.inkscape.org/) -->

<svg
   width="256"
   height="256"
   viewBox="0 0 256 256.00002"
   version="1.1"
   id="svg1"
   inkscape:version="1.4.2 (ebf0e940d0, 2025-05-08)"
   sodipodi:docname="kontact.svg"
   xmlns:inkscape="http://www.inkscape.org/namespaces/inkscape"
   xmlns:sodipodi="http://sodipodi.sourceforge.net/DTD/sodipodi-0.dtd"
   xmlns:xlink="http://www.w3.org/1999/xlink"
   xmlns="http://www.w3.org/2000/svg"
   xmlns:svg="http://www.w3.org/2000/svg">
  <sodipodi:namedview
     id="namedview1"
     pagecolor="#ffffff"
     bordercolor="#000000"
     borderopacity="0.25"
     inkscape:showpageshadow="2"
     inkscape:pageopacity="0.0"
     inkscape:pagecheckerboard="0"
     inkscape:deskcolor="#d1d1d1"
     inkscape:document-units="px"
     inkscape:zoom="3.109375"
     inkscape:cx="127.8392"
     inkscape:cy="128"
     inkscape:window-width="1920"
     inkscape:window-height="1011"
     inkscape:window-x="0"
     inkscape:window-y="0"
     inkscape:window-maximized="1"
     inkscape:current-layer="svg1" />
  <defs
     id="defs1">
    <linearGradient
       inkscape:collect="always"
       xlink:href="#linearGradient1511"
       id="linearGradient4"
       x1="16"
       y1="30"
       x2="16"
       y2="2"
       gradientUnits="userSpaceOnUse"
       gradientTransform="scale(7.9999998)" />
    <linearGradient
       inkscape:collect="always"
       id="linearGradient1511">
      <stop
         style="stop-color:#ffb251;stop-opacity:1;"
         offset="0"
         id="stop1507" />
      <stop
         style="stop-color:#ffde75;stop-opacity:1;"
         offset="1"
         id="stop1509" />
    </linearGradient>
  </defs>
  <rect
     style="opacity:0.2;fill:#000000;stroke-width:14"
     id="rect1"
     width="224"
     height="224"
     x="16"
     y="17"
     ry="48" />
  <rect
     style="fill:url(#linearGradient4);stroke-width:8"
     id="rect2"
     width="224"
     height="224"
     x="16"
     y="16"
     ry="48" />
  <path
     d="m 165.48264,163.81261 c -3.82232,0 -7.5013,-0.95557 -11.03695,-2.86672 -3.53565,-2.00673 -6.02016,-5.16016 -7.45353,-9.46027 h -0.14304 c -0.86017,2.29339 -2.15026,4.20455 -3.87029,5.73348 -1.72004,1.52894 -3.6312,2.77119 -5.73348,3.72677 -2.00671,0.9556 -4.06121,1.6245 -6.16349,2.00671 -2.10228,0.38216 -4.01344,0.57328 -5.73348,0.57328 -9.17357,0 -16.14931,-2.58007 -20.92721,-7.74021 -4.777994,-5.16009 -7.166986,-12.08804 -7.166986,-20.78382 v -11.1803 c 0,-8.79133 2.293392,-15.71929 6.880166,-20.78387 4.68235,-5.16013 11.03696,-7.740194 19.06383,-7.740194 5.35126,0 9.60359,0.812244 12.757,2.436728 3.15342,1.624492 5.39903,3.583436 6.73684,5.876826 v -7.45354 h 13.47369 v 45.15117 c 0,4.01344 0.81225,6.97575 2.43674,8.8869 1.62449,1.8156 3.96566,2.7234 7.02352,2.7234 2.38895,0 4.49122,-0.43 6.30683,-1.29002 1.8156,-0.95561 3.34453,-2.43676 4.58678,-4.44344 1.24224,-2.10228 2.19782,-4.77791 2.86672,-8.02687 0.66888,-3.34454 1.00336,-7.40576 1.00336,-12.18365 v -1.57664 c 0,-8.02687 -1.19448,-15.19372 -3.58343,-21.50056 -2.29337,-6.306868 -5.73344,-11.658132 -10.32022,-16.053804 -4.58679,-4.491224 -10.22472,-7.883536 -16.91379,-10.176928 -6.68906,-2.388952 -14.38148,-3.583424 -23.07726,-3.583424 -7.45353,0 -14.28593,1.194472 -20.4972,3.583424 -6.211272,2.388952 -11.56252,5.876824 -16.053752,10.463608 -4.395672,4.491224 -7.83576,10.033592 -10.320272,16.627094 -2.484504,6.59351 -3.72676,14.04703 -3.72676,22.36059 v 2.43673 c 0,8.88691 1.19448,16.77043 3.583432,23.65063 2.484504,6.78461 6.020152,12.47031 10.606944,17.0571 4.586776,4.68234 10.176918,8.21799 16.770428,10.60694 6.68907,2.48452 14.19037,3.72677 22.50392,3.72677 7.16685,0 14.28592,-0.81225 21.35723,-2.43673 7.07129,-1.52893 13.56923,-3.82232 19.49383,-6.8802 l 4.01344,10.03359 c -6.02015,3.24898 -12.80478,5.7335 -20.35386,7.45354 -7.45353,1.8156 -15.4804,2.7234 -24.08063,2.7234 -10.32026,0 -19.54161,-1.52892 -27.66405,-4.58678 C 94.005224,187.84546 87.125048,183.44978 81.48712,177.7163 75.849192,171.98282 71.501304,165.05487 68.443448,156.93243 65.481152,148.81 64,139.73198 64,129.69839 v -2.72341 c 0,-9.17357 1.433376,-17.63045 4.300112,-25.37065 2.962304,-7.835756 7.11908,-14.572596 12.470328,-20.210524 5.446808,-5.637928 11.992528,-10.0336 19.63718,-13.187016 7.7402,-3.248968 16.43598,-4.873456 26.08734,-4.873456 10.60694,0 19.97163,1.528928 28.09406,4.586794 8.12244,2.962294 14.95484,7.166848 20.4972,12.613656 5.54237,5.446808 9.74692,11.94476 12.61366,19.493836 C 190.56664,107.5767 192,115.89026 192,124.96826 v 1.86337 c 0,4.20455 -0.43,8.50466 -1.29002,12.90034 -0.76448,4.30012 -2.15008,8.26578 -4.15678,11.89699 -2.00672,3.53565 -4.73014,6.45017 -8.17022,8.74356 -3.34453,2.2934 -7.64464,3.4401 -12.90034,3.44009 z m -54.03807,-31.10414 c 0,5.44681 1.19447,9.7947 3.58342,13.04366 2.38895,3.15342 6.1635,4.73013 11.32363,4.73013 2.00672,0 3.91788,-0.23888 5.73348,-0.71672 1.91116,-0.47784 3.58342,-1.29005 5.0168,-2.43673 1.52892,-1.1467 2.7234,-2.67564 3.58343,-4.5868 0.86002,-1.91114 1.29003,-4.30009 1.29003,-7.16684 v -12.61365 c 0,-1.91114 -0.28664,-3.72675 -0.86004,-5.44681 -0.47784,-1.81561 -1.33783,-3.39231 -2.58006,-4.73012 -1.24226,-1.43337 -2.86675,-2.5323 -4.87346,-3.29675 -2.00671,-0.86002 -4.44344,-1.29003 -7.31018,-1.29003 -4.68235,0 -8.36134,1.29003 -11.03696,3.8701 -2.58006,2.58006 -3.87009,7.26241 -3.87009,14.04702 z"
     style="font-weight:bold;font-size:4.74057px;line-height:1.25;font-family:'나눔스퀘어';-inkscape-font-specification:'나눔스퀘어 Bold';fill:#4d4d4d;fill-opacity:1;stroke-width:3.58344"
     id="path6805"
     sodipodi:nodetypes="scccscsscsscsscccscscccsscccsscssscccsccccssscsscccscsssscccsscsccssscccscss" />
</svg>
