<?xml version="1.0" encoding="UTF-8" standalone="no"?>
<!-- Created with Inkscape (http://www.inkscape.org/) -->

<svg
   width="256"
   height="256"
   viewBox="0 0 256 256.00002"
   version="1.1"
   id="svg1"
   inkscape:version="1.4 (e7c3feb100, 2024-10-09)"
   sodipodi:docname="libreoffice-impress.svg"
   xmlns:inkscape="http://www.inkscape.org/namespaces/inkscape"
   xmlns:sodipodi="http://sodipodi.sourceforge.net/DTD/sodipodi-0.dtd"
   xmlns:xlink="http://www.w3.org/1999/xlink"
   xmlns="http://www.w3.org/2000/svg"
   xmlns:svg="http://www.w3.org/2000/svg">
  <sodipodi:namedview
     id="namedview1"
     pagecolor="#ffffff"
     bordercolor="#000000"
     borderopacity="0.25"
     inkscape:showpageshadow="2"
     inkscape:pageopacity="0.0"
     inkscape:pagecheckerboard="0"
     inkscape:deskcolor="#d1d1d1"
     inkscape:document-units="px"
     inkscape:zoom="3.0703125"
     inkscape:cx="128.16285"
     inkscape:cy="128"
     inkscape:window-width="1920"
     inkscape:window-height="1011"
     inkscape:window-x="0"
     inkscape:window-y="0"
     inkscape:window-maximized="1"
     inkscape:current-layer="svg1" />
  <defs
     id="defs1">
    <linearGradient
       inkscape:collect="always"
       xlink:href="#linearGradient2879"
       id="linearGradient4"
       x1="16"
       y1="30"
       x2="16"
       y2="2"
       gradientUnits="userSpaceOnUse"
       gradientTransform="scale(8)" />
    <linearGradient
       inkscape:collect="always"
       id="linearGradient2879">
      <stop
         style="stop-color:#d75112;stop-opacity:1;"
         offset="0"
         id="stop2875" />
      <stop
         style="stop-color:#f47700;stop-opacity:1;"
         offset="1"
         id="stop2877" />
    </linearGradient>
  </defs>
  <rect
     style="opacity:0.2;fill:#000000;stroke-width:14"
     id="rect1"
     width="224"
     height="224"
     x="16"
     y="17"
     ry="48" />
  <rect
     style="fill:url(#linearGradient4);stroke-width:8"
     id="rect2"
     width="224"
     height="224"
     x="16"
     y="16"
     ry="48" />
  <rect
     style="fill:#f7c195;fill-opacity:1;stroke-width:18.3303;stroke-linecap:round;stroke-linejoin:round"
     id="rect549"
     width="64"
     height="48"
     x="128"
     y="132"
     ry="8" />
  <path
     id="rect346"
     style="fill:#ffffff;stroke-width:7.99996;stroke-linecap:round;stroke-linejoin:round"
     d="m 68,84 c -2.215992,0 -4,1.784008 -4,4 0,2.215992 1.784008,4 4,4 h 120 c 2.216,0 4,-1.784008 4,-4 0,-2.215992 -1.784,-4 -4,-4 z m 16,16 c -2.215992,0 -4,1.78401 -4,4 0,2.21599 1.784008,4 4,4 h 88 c 2.21599,0 4,-1.78401 4,-4 0,-2.21599 -1.78401,-4 -4,-4 z m -16,32 c -2.20914,0 -4,1.79086 -4,4 0,2.20914 1.79086,4 4,4 2.20914,0 4,-1.79086 4,-4 0,-2.20914 -1.79086,-4 -4,-4 z m 16,0 c -2.215992,0 -4,1.78401 -4,4 0,2.21599 1.784008,4 4,4 h 32 c 2.21599,0 4,-1.78401 4,-4 0,-2.21599 -1.78401,-4 -4,-4 z m -16,16 c -2.20914,0 -4,1.79086 -4,4 0,2.20914 1.79086,4 4,4 2.20914,0 4,-1.79086 4,-4 0,-2.20914 -1.79086,-4 -4,-4 z m 16,0 c -2.215992,0 -4,1.78401 -4,4 0,2.21599 1.784008,4 4,4 h 32 c 2.21599,0 4,-1.78401 4,-4 0,-2.21599 -1.78401,-4 -4,-4 z m -16,16 c -2.20914,0 -4,1.79086 -4,4 0,2.20914 1.79086,4 4,4 2.20914,0 4,-1.79086 4,-4 0,-2.20914 -1.79086,-4 -4,-4 z m 16,0 c -2.215992,0 -4,1.78401 -4,4 0,2.21599 1.784008,4 4,4 h 32 c 2.21599,0 4,-1.78401 4,-4 0,-2.21599 -1.78401,-4 -4,-4 z"
     sodipodi:nodetypes="ssssssssssssssssssssssssssssssssssssssssssssssssss" />
  <path
     style="color:#000000;fill:#e35100;fill-opacity:1;stroke-width:4;stroke-linecap:round;stroke-linejoin:round;-inkscape-stroke:none"
     d="m 182.5,140.8755 c -1.72556,-1.38183 -4.24485,-1.10191 -5.625,0.625 L 165.45283,156 l -8.85937,-7.39062 c -1.68086,-1.40294 -4.17725,-1.19404 -5.60157,0.46874 l -14.03095,16.32156 c -1.4371,1.67834 -1.2412,4.20396 0.4375,5.64063 1.67833,1.43709 4.20396,1.2412 5.64062,-0.4375 l 11.46064,-13.32156 8.96876,7.47656 c 1.7207,1.43722 4.28642,1.17995 5.6875,-0.57031 l 13.96904,-17.687 c 1.38184,-1.72556 1.10192,-4.24485 -0.625,-5.625 z"
     id="path691"
     sodipodi:nodetypes="ccccccccccccc" />
</svg>
