<?xml version="1.0" encoding="UTF-8" standalone="no"?>
<!-- Created with Inkscape (http://www.inkscape.org/) -->

<svg
   width="256"
   height="256"
   viewBox="0 0 256 256.00002"
   version="1.1"
   id="svg1"
   inkscape:version="1.4.2 (ebf0e940d0, 2025-05-08)"
   sodipodi:docname="lollypop.svg"
   xmlns:inkscape="http://www.inkscape.org/namespaces/inkscape"
   xmlns:sodipodi="http://sodipodi.sourceforge.net/DTD/sodipodi-0.dtd"
   xmlns:xlink="http://www.w3.org/1999/xlink"
   xmlns="http://www.w3.org/2000/svg"
   xmlns:svg="http://www.w3.org/2000/svg">
  <sodipodi:namedview
     id="namedview1"
     pagecolor="#ffffff"
     bordercolor="#000000"
     borderopacity="0.25"
     inkscape:showpageshadow="2"
     inkscape:pageopacity="0.0"
     inkscape:pagecheckerboard="0"
     inkscape:deskcolor="#d1d1d1"
     inkscape:document-units="px"
     inkscape:zoom="3.0703125"
     inkscape:cx="127.83715"
     inkscape:cy="128"
     inkscape:window-width="1920"
     inkscape:window-height="1011"
     inkscape:window-x="0"
     inkscape:window-y="0"
     inkscape:window-maximized="1"
     inkscape:current-layer="svg1" />
  <defs
     id="defs1">
    <linearGradient
       inkscape:collect="always"
       id="linearGradient1606">
      <stop
         style="stop-color:#eaebed;stop-opacity:1;"
         offset="0"
         id="stop1602" />
      <stop
         style="stop-color:#f9fafa;stop-opacity:1;"
         offset="1"
         id="stop1604" />
    </linearGradient>
    <linearGradient
       inkscape:collect="always"
       xlink:href="#linearGradient1606"
       id="linearGradient4"
       x1="16"
       y1="30"
       x2="16"
       y2="2"
       gradientUnits="userSpaceOnUse"
       gradientTransform="matrix(7.99997,0,0,7.99997,1.384e-4,5.9e-5)" />
    <linearGradient
       inkscape:collect="always"
       id="linearGradient5215">
      <stop
         style="stop-color:#e64686;stop-opacity:1;"
         offset="0"
         id="stop5211" />
      <stop
         style="stop-color:#ec7e93;stop-opacity:1;"
         offset="1"
         id="stop5213" />
    </linearGradient>
    <linearGradient
       inkscape:collect="always"
       xlink:href="#linearGradient1606"
       id="linearGradient5279"
       x1="7.99999"
       y1="15.777744"
       x2="7.99999"
       y2="0.22222187"
       gradientUnits="userSpaceOnUse"
       gradientTransform="matrix(14.399977,0,0,14.399977,12.799988,12.800009)" />
    <linearGradient
       inkscape:collect="always"
       xlink:href="#linearGradient5215"
       id="linearGradient11784"
       x1="11"
       y1="21"
       x2="11"
       y2="1"
       gradientUnits="userSpaceOnUse"
       gradientTransform="matrix(11.199958,0,0,11.199958,4.80174,4.800041)" />
    <linearGradient
       inkscape:collect="always"
       xlink:href="#linearGradient5215"
       id="linearGradient6178"
       x1="8.2222185"
       y1="16.399132"
       x2="8.2222185"
       y2="-0.39916459"
       gradientUnits="userSpaceOnUse"
       gradientTransform="matrix(14.399938,0,0,13.334636,9.600222,21.322713)" />
  </defs>
  <rect
     style="opacity:0.2;fill:#000000;stroke-width:19.6"
     id="rect1"
     width="223.99963"
     height="223.99963"
     x="16.000061"
     y="17"
     ry="48" />
  <rect
     style="fill:url(#linearGradient4);stroke-width:7.99998"
     id="rect2"
     width="223.99916"
     height="223.99916"
     x="16.00008"
     y="16"
     ry="47.999924" />
  <path
     id="path10967"
     style="fill:url(#linearGradient11784);fill-opacity:1;stroke-width:26.5632;stroke-linecap:round;stroke-linejoin:round"
     d="m 96.62493,16 c -1.268742,8.204196 -2.237742,17.502598 -2.21875,27.999955 -0.11816,46.81007 33.57975,83.984485 33.5937,83.999865 0,0 7.0208,-61.789011 38.07807,-111.99982 z m 31.37495,111.99982 c 0,0 54.2809,-24.23772 111.99982,-23.51558 -0.048,-26.002375 -0.012,-10.280699 0,-40.484317 0,-0.1067 6.8e-4,-0.205972 0,-0.312504 -0.0598,-9.25545 -2.7214,-17.879466 -7.28124,-25.171829 -25.6609,4.627369 -33.27928,9.506369 -48.76554,18.390595 -40.60094,23.304528 -55.94906,71.081245 -55.95304,71.093635 z m 0,0 c 0,0 65.05248,37.8341 84.12486,107.62482 16.4759,-7.58074 27.86452,-24.2088 27.87496,-43.59368 v -0.0312 -35.99994 c -6.30372,-5.00326 -13.69068,-10.0649 -22.43746,-15.09377 -40.48252,-23.509 -89.54897,-12.90912 -89.56236,-12.90623 z m 0,0 c -0.004,0.10872 -2.47199,63.42822 -38.078068,111.99982 H 160.4842 c 1.24296,-8.15648 1.12847,-17.4439 1.10938,-27.99996 0.117,-46.79424 -33.55697,-83.95936 -33.5937,-83.99986 z m 0,0 c 0,0 -54.26466,24.25384 -111.984193,23.53121 -0.0158,10.79183 -0.0144,26.87625 -0.0156,40.46869 0,0.056 -1.88e-4,0.1162 0,0.1718 0.03032,8.97878 2.495392,17.35462 6.781238,24.5156 18.150336,-2.852 34.060183,-8.77818 49.265525,-17.5937 40.56787,-23.28682 55.92451,-71.00492 55.95303,-71.0936 z m 0,0 c 0,0 -62.429732,-39.537583 -87.452981,-105.93733 -13.671186,7.634044 -23.171022,21.760791 -24.406212,38.265565 0.024,14.93042 0.014,30.20277 -0.07816,39.734305 6.276456,4.95752 13.58447,9.97723 22.374964,15.03123 40.464107,23.497 89.503039,12.91905 89.562389,12.90623 z" />
  <circle
     style="fill:url(#linearGradient5279);fill-opacity:1;stroke-width:28.8;stroke-linecap:round;stroke-linejoin:round"
     id="path5271"
     cx="127.9998"
     cy="127.99982"
     r="71.999886" />
  <path
     d="m 100.56608,88.366581 c -2.50416,-1.33347 -4.56479,1.33346 -4.56623,4.000394 V 163.6286 c -2.4e-5,3.36033 3.718354,5.45921 6.69353,3.78037 l 31.5373,-17.81508 31.53876,-17.81507 c 2.97373,-1.68017 2.97373,-5.88057 0,-7.56207 l -31.53876,-17.81508 -31.5373,-17.815065 c -0.64776,-0.37336 -1.37895,-0.57336 -2.12658,-0.586718 z"
     style="fill:url(#linearGradient6178);fill-opacity:1;stroke-width:13.8571"
     id="path5776" />
</svg>
