<?xml version="1.0" encoding="UTF-8" standalone="no"?>
<!-- Created with Inkscape (http://www.inkscape.org/) -->

<svg
   width="256"
   height="256"
   viewBox="0 0 256 256.00002"
   version="1.1"
   id="svg1"
   inkscape:version="1.4.2 (ebf0e940d0, 2025-05-08)"
   sodipodi:docname="lunarclient.svg"
   xmlns:inkscape="http://www.inkscape.org/namespaces/inkscape"
   xmlns:sodipodi="http://sodipodi.sourceforge.net/DTD/sodipodi-0.dtd"
   xmlns:xlink="http://www.w3.org/1999/xlink"
   xmlns="http://www.w3.org/2000/svg"
   xmlns:svg="http://www.w3.org/2000/svg">
  <sodipodi:namedview
     id="namedview1"
     pagecolor="#ffffff"
     bordercolor="#000000"
     borderopacity="0.25"
     inkscape:showpageshadow="2"
     inkscape:pageopacity="0.0"
     inkscape:pagecheckerboard="0"
     inkscape:deskcolor="#d1d1d1"
     inkscape:document-units="px"
     inkscape:zoom="3.109375"
     inkscape:cx="127.8392"
     inkscape:cy="128"
     inkscape:window-width="1920"
     inkscape:window-height="1011"
     inkscape:window-x="0"
     inkscape:window-y="0"
     inkscape:window-maximized="1"
     inkscape:current-layer="svg1" />
  <defs
     id="defs1">
    <linearGradient
       inkscape:collect="always"
       xlink:href="#4852"
       id="linearGradient4"
       x1="16"
       y1="30"
       x2="16"
       y2="2"
       gradientUnits="userSpaceOnUse"
       gradientTransform="scale(7.9999998)" />
    <linearGradient
       inkscape:collect="always"
       id="4852">
      <stop
         style="stop-color:#272727;stop-opacity:1;"
         offset="0"
         id="stop14555" />
      <stop
         style="stop-color:#5d5d5d;stop-opacity:1;"
         offset="1"
         id="stop14557" />
    </linearGradient>
  </defs>
  <rect
     style="opacity:0.2;fill:#000000;stroke-width:14"
     id="rect1"
     width="224"
     height="224"
     x="16"
     y="17"
     ry="48" />
  <rect
     style="fill:url(#linearGradient4);stroke-width:8"
     id="rect2"
     width="224"
     height="224"
     x="16"
     y="16"
     ry="48" />
  <path
     d="m 128.57031,48.0036 c -0.93103,0.038 -1.84047,0.29192 -2.65625,0.742186 0,0 -17.75338,9.727992 -35.554684,20.187502 -8.900654,5.229752 -17.805286,10.633216 -24.625,15.179688 -3.409862,2.273234 -6.281398,4.31196 -8.507814,6.148438 -1.113208,0.918236 -2.06452,1.760432 -2.945314,2.765624 C 53.400464,94.032232 52,94.891328 52,98.402034 V 164.0036 h 12 v -63.70313 c 0.274,-0.25893 0.404706,-0.406212 0.859376,-0.781246 1.64544,-1.35725 4.30364,-3.270136 7.531248,-5.421872 6.455218,-4.303474 15.247614,-9.65013 24.046874,-14.820314 16.140152,-9.483464 29.749592,-16.946048 32.320312,-18.359374 2.54052,1.429062 15.79233,8.857286 31.54688,18.328126 8.59909,5.169338 17.19497,10.512008 23.5,14.812498 3.15251,2.150246 5.74833,4.061054 7.35155,5.414064 0.448,0.37808 0.57688,0.530648 0.84376,0.789058 v 63.74219 h 12 V 98.402034 c 0,-3.439312 -1.35554,-4.312402 -2.21876,-5.320312 -0.8632,-1.007906 -1.79222,-1.860888 -2.8828,-2.781248 -2.18116,-1.840722 -4.9931,-3.881522 -8.32812,-6.15625 -6.67005,-4.549456 -15.37714,-9.949094 -24.07813,-15.179688 -17.40198,-10.46119 -34.75781,-20.195312 -34.75781,-20.195312 -0.84174,-0.472704 -1.7851,-0.735344 -2.75,-0.765624 -0.13798,-0.0048 -0.27608,-0.0048 -0.41407,0 z m 1.42969,22 -1.41406,2.585936 L 126,74.0036 128.58594,75.417664 130,78.0036 131.41406,75.417664 134,74.0036 131.41406,72.589536 Z m -18.36719,9.632814 C 92.526954,87.302762 80.002522,105.81547 80,126.40203 c 6e-6,20.18863 11.897152,37.55643 29.03906,45.60157 H 44 v 2.66406 h 16 v 2.67188 H 44 v 2.66406 h 24 v 2.66406 H 52 v 2.67188 h 32 v 2.66406 H 68 v 2.66406 h 36 v 2.67188 h -8 v 2.66406 h 56 v -2.66406 h -8 v -2.67188 h 36 v -2.66406 h -16 v -2.66406 h 32 v -2.67188 h -16 v -2.66406 h 24 v -2.66406 h -16 v -2.67188 h 16 v -2.66406 h -52.16406 c 11.30083,-5.31636 20.48932,-14.74955 25.33593,-26.82813 -5.96728,2.3967 -12.34284,3.62304 -18.77343,3.625 -27.83506,1e-5 -50.39843,-22.56338 -50.39844,-50.398436 0.002,-6.430594 1.23612,-12.798344 3.63281,-18.76562 z M 166,94.0036 164.58594,96.589536 162,98.0036 164.58594,99.417664 166,102.0036 167.41406,99.417664 170,98.0036 167.41406,96.589536 Z m -44,2 -2.125,3.875 -3.875,2.125 3.875,2.125 2.125,3.875 2.125,-3.875 3.875,-2.125 -3.875,-2.125 z m -48,2 -1.414064,2.58594 L 70,102.0036 72.585936,103.41766 74,106.0036 75.414064,103.41766 78,102.0036 75.414064,100.58954 Z m 68,8 -1.41406,2.58594 -2.58594,1.41406 2.58594,1.41406 1.41406,2.58594 1.41406,-2.58594 2.58594,-1.41406 -2.58594,-1.41406 z m 32,8 -2.82813,5.17187 -5.17187,2.82813 5.17187,2.82812 2.82813,5.17188 2.82812,-5.17188 5.17188,-2.82812 -5.17188,-2.82813 z m -24,10 -2.125,3.875 -3.875,2.125 3.875,2.125 2.125,3.875 2.125,-3.875 3.875,-2.125 -3.875,-2.125 z m -72,22 -2.828126,5.17187 L 70,154.0036 75.171874,156.83173 78,162.0036 80.828122,156.83173 86,154.0036 80.828122,151.17547 Z"
     style="fill:#ffffff;stroke-width:4"
     id="path3007" />
</svg>
