<?xml version="1.0" encoding="UTF-8" standalone="no"?>
<!-- Created with Inkscape (http://www.inkscape.org/) -->

<svg
   width="256"
   height="256"
   viewBox="0 0 256 256.00002"
   version="1.1"
   id="svg1"
   inkscape:version="1.4.2 (ebf0e940d0, 2025-05-08)"
   sodipodi:docname="lutris.svg"
   xmlns:inkscape="http://www.inkscape.org/namespaces/inkscape"
   xmlns:sodipodi="http://sodipodi.sourceforge.net/DTD/sodipodi-0.dtd"
   xmlns:xlink="http://www.w3.org/1999/xlink"
   xmlns="http://www.w3.org/2000/svg"
   xmlns:svg="http://www.w3.org/2000/svg">
  <sodipodi:namedview
     id="namedview1"
     pagecolor="#ffffff"
     bordercolor="#000000"
     borderopacity="0.25"
     inkscape:showpageshadow="2"
     inkscape:pageopacity="0.0"
     inkscape:pagecheckerboard="0"
     inkscape:deskcolor="#d1d1d1"
     inkscape:document-units="px"
     inkscape:zoom="3.109375"
     inkscape:cx="127.8392"
     inkscape:cy="128"
     inkscape:window-width="1920"
     inkscape:window-height="1011"
     inkscape:window-x="0"
     inkscape:window-y="0"
     inkscape:window-maximized="1"
     inkscape:current-layer="svg1" />
  <defs
     id="defs1">
    <linearGradient
       inkscape:collect="always"
       id="linearGradient1606">
      <stop
         style="stop-color:#eaebed;stop-opacity:1;"
         offset="0"
         id="stop1602" />
      <stop
         style="stop-color:#f9fafa;stop-opacity:1;"
         offset="1"
         id="stop1604" />
    </linearGradient>
    <linearGradient
       inkscape:collect="always"
       xlink:href="#linearGradient1606"
       id="linearGradient4"
       x1="16"
       y1="30"
       x2="16"
       y2="2"
       gradientUnits="userSpaceOnUse"
       gradientTransform="scale(8)" />
    <radialGradient
       inkscape:collect="always"
       xlink:href="#linearGradient6438"
       id="radialGradient6442"
       cx="8.75"
       cy="8.75"
       fx="8.75"
       fy="8.75"
       r="4.5"
       gradientUnits="userSpaceOnUse"
       gradientTransform="matrix(13.333091,-0.08031072,0.1204682,19.999997,22.281376,-38.29642)" />
    <linearGradient
       inkscape:collect="always"
       id="linearGradient6438">
      <stop
         style="stop-color:#ffba00;stop-opacity:1;"
         offset="0"
         id="stop6434" />
      <stop
         style="stop-color:#ff7f02;stop-opacity:1;"
         offset="1"
         id="stop6436" />
    </linearGradient>
    <linearGradient
       inkscape:collect="always"
       xlink:href="#linearGradient2743"
       id="linearGradient19938"
       x1="10"
       y1="10"
       x2="10.00338"
       y2="23.738506"
       gradientUnits="userSpaceOnUse"
       gradientTransform="matrix(7.9999992,0,0,7.9999992,1.16e-5,8.564e-4)" />
    <linearGradient
       inkscape:collect="always"
       id="linearGradient2743">
      <stop
         style="stop-color:#794d3b;stop-opacity:1;"
         offset="0"
         id="stop2739" />
      <stop
         style="stop-color:#5e3c2e;stop-opacity:1;"
         offset="1"
         id="stop2741" />
    </linearGradient>
    <linearGradient
       inkscape:collect="always"
       xlink:href="#linearGradient4978"
       id="linearGradient19954"
       x1="16.892727"
       y1="16.459864"
       x2="16.892727"
       y2="10.459863"
       gradientUnits="userSpaceOnUse"
       gradientTransform="matrix(7.9999992,0,0,7.9999992,1.16e-5,8.564e-4)" />
    <linearGradient
       inkscape:collect="always"
       id="linearGradient4978">
      <stop
         style="stop-color:#e5dfdd;stop-opacity:1;"
         offset="0"
         id="stop4974" />
      <stop
         style="stop-color:#ffffff;stop-opacity:1;"
         offset="1"
         id="stop4976" />
    </linearGradient>
    <linearGradient
       inkscape:collect="always"
       xlink:href="#linearGradient2743"
       id="linearGradient19946"
       x1="10.00338"
       y1="9.7385073"
       x2="10.00338"
       y2="23.738506"
       gradientUnits="userSpaceOnUse"
       gradientTransform="matrix(7.9999992,0,0,7.9999992,1.16e-5,8.564e-4)" />
  </defs>
  <rect
     style="opacity:0.2;fill:#000000;stroke-width:14"
     id="rect1"
     width="224"
     height="224"
     x="16"
     y="17"
     ry="48" />
  <rect
     style="fill:url(#linearGradient4);stroke-width:8"
     id="rect2"
     width="224"
     height="224"
     x="16"
     y="16"
     ry="48" />
  <circle
     style="fill:url(#radialGradient6442);fill-opacity:1;stroke-width:53.3336;stroke-linecap:round;stroke-linejoin:round"
     id="path681"
     cx="140"
     cy="136.00085"
     r="59.999996" />
  <path
     d="m 125.46278,48.004416 c -41.851888,-0.0376 -76.335572,34.428036 -77.435744,77.904484 -1.118956,44.16656 32.632388,80.9059 75.381124,82.06066 20.82646,0.56218 39.93932,-7.4264 54.20189,-20.87454 1.52289,-1.27058 2.35151,-2.06246 2.35151,-2.06246 0,0 15.46646,-16.23274 16.29652,-29.63213 -3.94646,6.51983 -7.56654,13.04782 -17.39025,17.88242 -4.50528,2.08692 -8.63477,3.86251 -12.79658,5.26551 -0.26644,0.0687 -0.53406,0.13076 -0.80469,0.19532 -1.97125,0.47063 -4.0373,0.86572 -6.20298,1.16402 -0.26256,0.0364 -0.53196,0.0687 -0.79684,0.10164 -2.24609,0.28484 -4.56527,0.4922 -6.96079,0.59378 -0.24664,0.0104 -0.50222,0.007 -0.74998,0.016 -2.36325,0.0809 -4.78028,0.0744 -7.23422,-0.0244 -0.16016,-0.006 -0.31612,-7e-4 -0.47653,-0.008 -2.49551,-0.11064 -5.02615,-0.33696 -7.56232,-0.63281 -0.36184,-0.0428 -0.7238,-0.0719 -1.08592,-0.11724 -2.46879,-0.3136 -4.9366,-0.72816 -7.39044,-1.21872 -0.39636,-0.08 -0.79209,-0.15828 -1.18749,-0.24216 -2.40132,-0.50957 -4.78111,-1.1077 -7.11702,-1.78901 -0.74893,-0.21844 -1.49507,-0.4434 -2.23432,-0.67976 -0.55871,-0.17852 -1.11941,-0.35032 -1.67183,-0.53899 -0.7895,-0.26964 -1.56072,-0.56113 -2.3359,-0.85155 -0.63216,-0.23676 -1.26892,-0.46804 -1.89058,-0.71871 -0.7204,-0.2906 -1.42023,-0.60477 -2.12496,-0.91404 -0.59733,-0.26216 -1.20401,-0.51362 -1.78902,-0.78909 -1.27362,-0.59976 -2.5256,-1.22707 -3.73424,-1.89065 -0.96187,-0.53213 -1.87729,-1.08916 -2.749916,-1.67184 -2.004032,-1.33813 -3.7531,-2.81299 -5.320204,-4.35928 -8.158584,-8.32575 -7.779796,-18.1153 -7.351392,-24.46038 0.539716,-7.97012 7.221808,-25.45672 29.210272,-34.71796 13.58576,-4.79697 29.56367,-8.151858 42.92091,-3.85148 10.04762,2.26703 17.27265,5.56353 26.82753,8.93729 0,0 -0.0784,0.16632 2.56244,0.8203 18.58224,2.94356 16.49638,-12.364796 16.49638,-12.364796 l -1.45652,-3.582424 v 0 c -0.3222,-1.887808 1.09182,-3.376648 1.09182,-3.376648 0,0 -1.14538,-4.221284 -0.95234,-7.011076 0.1958,-2.788504 0.038,-6.362876 -0.57026,-11.460688 -0.608,-5.098172 -3.95412,-7.128656 -5.03894,-7.921108 -1.08728,-0.791108 -6.1536,-4.610408 -11.00756,-6.51548 -4.85692,-1.905084 -9.76575,-3.312984 -15.81215,-2.460872 -0.67135,0.09496 -1.30679,0.1976 -1.96869,0.29688 -0.11724,-0.038 -0.20912,-0.08 -0.33592,-0.11724 -2.30565,-0.68472 -3.93659,-4.41584 -5.82019,-4.370712 -0.14416,0.0034 -0.28996,0.016 -0.43757,0.0312 -0.14528,0.0152 -0.29608,0.0344 -0.44526,0.0624 h -0.008 c -0.15224,0.0288 -0.3036,0.06644 -0.46092,0.10936 -0.17172,0.0464 -0.3372,0.10768 -0.49213,0.17968 -1.10229,0.512404 -1.77757,2.441056 -2.19509,3.70608 -9.67126,-4.888408 -20.48486,-7.761112 -31.9524,-8.070128 -0.66788,-0.0184 -1.32784,-0.0304 -1.99215,-0.0312 z M 102.7758,91.011264 c -2.70067,1.96108 -13.30894,9.758286 -19.75736,20.624536 6.44842,-10.86624 9.53708,-13.774776 19.75736,-20.624536 z m 68.15471,86.068366 c -1.41974,0.52913 -2.96089,0.97688 -4.54676,1.39059 1.58498,-0.41341 3.12797,-0.86184 4.54676,-1.39059 z"
     style="fill:url(#linearGradient19938);fill-opacity:1;stroke-width:8"
     id="path13418"
     sodipodi:nodetypes="cccccccccccccscccccscscssccsccccccccsccscccccsccccccccccccccc" />
  <path
     id="path24683"
     style="opacity:0.2;fill:#ffffff;fill-opacity:1;stroke-width:8"
     d="m 125.46875,48 c -41.851818,-0.0376 -76.337318,34.42988 -77.437502,77.90625 -0.0308,1.21732 -0.0208,2.42817 0.008,3.63281 C 49.32462,86.237052 83.727748,51.962508 125.46094,52 c 0.66431,8e-4 1.3243,0.0128 1.99218,0.0312 11.46753,0.309 22.2819,3.181916 31.95313,8.070316 0.41752,-1.265024 1.09303,-3.190724 2.19531,-3.703128 0.15492,-0.072 0.32048,-0.13328 0.49219,-0.17968 0.15732,-0.04292 0.30868,-0.08056 0.46094,-0.10936 h 0.008 c 0.14916,-0.028 0.30004,-0.04728 0.44531,-0.06252 0.1476,-0.0152 0.29336,-0.0276 0.4375,-0.0312 1.88359,-0.04512 3.51467,3.682468 5.82031,4.367188 0.1268,0.0372 0.21868,0.0792 0.33592,0.1172 0.66191,-0.09928 1.2974,-0.20192 1.96875,-0.29688 6.04639,-0.852112 10.95558,0.55586 15.8125,2.46094 4.85394,1.905068 9.92052,5.72452 11.00782,6.515624 1.08482,0.792452 4.43106,2.823712 5.03906,7.921876 0.31868,2.67066 0.50842,4.9032 0.59374,6.843748 0.1376,-2.69998 -0.02,-6.087768 -0.58594,-10.835936 -0.608,-5.098164 -3.96204,-7.12944 -5.04686,-7.921876 -1.0873,-0.791112 -6.14606,-4.610576 -11,-6.515624 -4.85693,-1.905084 -9.76612,-3.320864 -15.81251,-2.468752 -0.67135,0.09496 -1.30684,0.1976 -1.96875,0.29688 -0.11724,-0.038 -0.21688,-0.07196 -0.34376,-0.10936 -2.30564,-0.684716 -3.92892,-4.420128 -5.8125,-4.375 -0.14416,0.0034 -0.28988,0.016 -0.4375,0.0312 -0.14528,0.0152 -0.3038,0.0344 -0.45312,0.06252 -0.15216,0.0288 -0.31136,0.0664 -0.46875,0.10936 -0.17172,0.0464 -0.32928,0.11552 -0.48437,0.18748 -1.1023,0.512404 -1.7856,2.438104 -2.20313,3.703128 -9.6716,-4.888412 -20.48576,-7.76908 -31.95329,-8.078096 -0.66787,-0.0184 -1.32006,-0.03045 -1.98437,-0.03125 z m 78.59375,38.742188 c -0.006,0.37304 -0.0228,0.722484 -0.0392,1.070312 0.0452,0.99948 0.0568,1.908564 0.0468,2.757812 0.0264,0.2758 0.0428,0.551408 0.0782,0.828124 0.058,-0.37464 0.1062,-0.747588 0.1406,-1.179684 0.152,0.9725 0.22512,1.599696 0.26564,1.929684 0.21768,-0.34948 0.39844,-0.570312 0.39844,-0.570312 0,0 -0.6576,-2.439656 -0.89062,-4.835936 z" />
  <path
     d="m 159.217,72.084332 c -8.37146,-0.0104 -17.44692,2.43962 -24.07518,4.744776 -12.56984,4.448016 -26.18005,6.90614 -36.364908,14.184684 -2.70068,1.961084 -12.426892,9.753428 -18.875312,20.619688 -17.820528,31.50644 -0.32548,66.67775 22.71946,74.27924 25.33651,9.47532 52.44355,10.49442 82.94832,-16.46432 -2.62567,2.10135 -7.40155,5.24508 -14.64089,7.62924 -17.25619,6.43108 -47.73921,4.3653 -68.2071,-6.87241 -16.466306,-9.10851 -15.15551,-22.51997 -14.61739,-30.49007 0.539716,-7.97011 6.420612,-25.45971 28.40907,-34.72094 13.58576,-4.79696 29.56083,-8.151628 42.91807,-3.85124 10.04762,2.26703 17.26984,6.37105 26.8247,9.74482 0,0 -0.0792,0.1638 2.56108,0.81785 18.58226,2.94316 19.18306,-13.411738 19.18306,-13.411738 l -0.52986,-2.979668 -1.61764,-4.042884 -0.77092,-1.732136 -0.46496,-0.938708 c 0,0 -0.134,-1.181892 -0.32188,-2.382764 -0.35596,4.48872 -2.14332,5.785672 -2.14332,5.785672 -14.44262,-2.738268 -17.02404,-12.908808 -32.25206,-18.135676 -3.21846,-1.26576 -6.87719,-1.778868 -10.6824,-1.783416 z m 26.35238,97.364068 c 1.68222,-1.34628 2.4972,-2.26618 2.49746,-2.26558 -0.8354,0.78053 -1.66714,1.53179 -2.49746,2.26558 z"
     style="fill:url(#linearGradient19954);fill-opacity:1;stroke-width:8"
     id="path13484" />
  <path
     d="m 78.619344,109.1941 -0.0868,0.7137 c 5.811468,-0.29448 20.137412,0.96484 25.420926,4.6706 4.09626,2.76541 7.78627,6.89242 13.03827,5.02531 3.59063,-1.25923 3.79014,-3.39157 2.41376,-6.89785 -1.16228,-2.85093 -3.08357,-7.77393 -5.45938,-9.66141 -3.42253,-2.70842 -12.2704,-1.76264 -12.7143,-7.426446 -0.33356,-2.67722 1.27218,-5.666072 2.76807,-7.617336 -0.003,0 -24.256462,5.28206 -25.380662,21.193372 z"
     style="fill:url(#linearGradient19946);fill-opacity:1;stroke-width:8"
     id="path13451" />
  <path
     d="m 206.41432,86.144176 c -0.168,2.204088 -1.57074,3.858588 -3.13096,3.691564 -1.55892,-0.16276 -2.68574,-2.078464 -2.5137,-4.286836 0.1694,-2.201228 1.5694,-3.854296 3.12834,-3.690124 1.5589,0.16832 2.68574,2.082744 2.51632,4.285396 z m -19.68206,-0.430068 c -2.04064,2.603804 -5.81061,3.052016 -8.42228,1.007336 -2.61167,-2.05516 -3.07943,-5.82672 -1.0373,-8.43204 2.03623,-2.59932 5.80914,-3.049032 8.41934,-1.001356 2.61316,2.052168 3.075,5.822244 1.04024,8.42606 z m 15.4192,6.289324 c 0,0 -0.69132,2.179692 -3.9371,2.370968 -3.24458,0.19376 -2.68342,4.705968 0.1302,7.23225 2.81476,2.52757 5.01608,3.22076 6.89216,1.28111 1.87354,-1.93579 6.47512,-5.147552 -3.08516,-10.884328 z"
     style="fill:#3f3f3f;stroke-width:8"
     id="path13517" />
</svg>
