<?xml version="1.0" encoding="UTF-8" standalone="no"?>
<!-- Created with Inkscape (http://www.inkscape.org/) -->

<svg
   width="256"
   height="256"
   viewBox="0 0 256 256.00002"
   version="1.1"
   id="svg1"
   inkscape:version="1.4 (e7c3feb100, 2024-10-09)"
   sodipodi:docname="minecraft.svg"
   xmlns:inkscape="http://www.inkscape.org/namespaces/inkscape"
   xmlns:sodipodi="http://sodipodi.sourceforge.net/DTD/sodipodi-0.dtd"
   xmlns:xlink="http://www.w3.org/1999/xlink"
   xmlns="http://www.w3.org/2000/svg"
   xmlns:svg="http://www.w3.org/2000/svg">
  <sodipodi:namedview
     id="namedview1"
     pagecolor="#ffffff"
     bordercolor="#000000"
     borderopacity="0.25"
     inkscape:showpageshadow="2"
     inkscape:pageopacity="0.0"
     inkscape:pagecheckerboard="0"
     inkscape:deskcolor="#d1d1d1"
     inkscape:document-units="px"
     inkscape:zoom="3.0703125"
     inkscape:cx="128.16285"
     inkscape:cy="128"
     inkscape:window-width="1920"
     inkscape:window-height="1011"
     inkscape:window-x="0"
     inkscape:window-y="0"
     inkscape:window-maximized="1"
     inkscape:current-layer="svg1" />
  <defs
     id="defs1">
    <linearGradient
       inkscape:collect="always"
       xlink:href="#linearGradient1149"
       id="linearGradient4"
       x1="16"
       y1="30"
       x2="16"
       y2="2"
       gradientUnits="userSpaceOnUse"
       gradientTransform="scale(8)" />
    <linearGradient
       inkscape:collect="always"
       id="linearGradient1149">
      <stop
         style="stop-color:#6ab12d;stop-opacity:1;"
         offset="0"
         id="stop1145" />
      <stop
         style="stop-color:#8dd27a;stop-opacity:1;"
         offset="1"
         id="stop1147" />
    </linearGradient>
  </defs>
  <rect
     style="opacity:0.2;fill:#000000;stroke-width:14"
     id="rect1"
     width="224"
     height="224"
     x="16"
     y="17"
     ry="48" />
  <rect
     style="fill:url(#linearGradient4);stroke-width:8"
     id="rect2"
     width="224"
     height="224"
     x="16"
     y="16"
     ry="48" />
  <path
     d="m 56,58 v 48 h 48 V 58 Z m 48,48 v 32 H 80 v 64 h 24 v -26 h 48 v 26 h 24 v -64 h -24 v -32 z m 48,0 h 48 V 58 h -48 z"
     style="opacity:0.2;fill:#ffffff;stroke-width:8"
     id="path536"
     sodipodi:nodetypes="ccccccccccccccccccccccc" />
  <path
     id="rect311"
     style="fill:#000000;stroke-width:8"
     d="m 56,56 v 48 h 48 V 56 Z m 48,50 v 24 H 80 v 70 h 24 v -26 h 48 v 26 h 24 v -70 h -24 v -24 z m 48,-2 h 48 V 56 h -48 z"
     sodipodi:nodetypes="ccccccccccccccccccccccc" />
  <path
     id="path564"
     style="opacity:0.3;fill:#000000;stroke-width:8"
     d="m 56,54 v 2 h 48 v -2 z m 96,0 v 2 h 48 v -2 z m -48,50 v 2 h 48 v -2 z m -24,24 v 2 h 24 v -2 z m 72,0 v 2 h 24 v -2 z"
     sodipodi:nodetypes="ccccccccccccccccccccccccc" />
</svg>
