<?xml version="1.0" encoding="UTF-8" standalone="no"?>
<!-- Created with Inkscape (http://www.inkscape.org/) -->

<svg
   width="256"
   height="256"
   viewBox="0 0 256 256.00002"
   version="1.1"
   id="svg1"
   inkscape:version="1.4.2 (ebf0e940d0, 2025-05-08)"
   sodipodi:docname="mpv.svg"
   xmlns:inkscape="http://www.inkscape.org/namespaces/inkscape"
   xmlns:sodipodi="http://sodipodi.sourceforge.net/DTD/sodipodi-0.dtd"
   xmlns:xlink="http://www.w3.org/1999/xlink"
   xmlns="http://www.w3.org/2000/svg"
   xmlns:svg="http://www.w3.org/2000/svg">
  <sodipodi:namedview
     id="namedview1"
     pagecolor="#ffffff"
     bordercolor="#000000"
     borderopacity="0.25"
     inkscape:showpageshadow="2"
     inkscape:pageopacity="0.0"
     inkscape:pagecheckerboard="0"
     inkscape:deskcolor="#d1d1d1"
     inkscape:document-units="px"
     inkscape:zoom="3.109375"
     inkscape:cx="127.8392"
     inkscape:cy="128"
     inkscape:window-width="1920"
     inkscape:window-height="1011"
     inkscape:window-x="0"
     inkscape:window-y="0"
     inkscape:window-maximized="1"
     inkscape:current-layer="svg1"
     showguides="false" />
  <defs
     id="defs1">
    <linearGradient
       inkscape:collect="always"
       xlink:href="#linearGradient6304"
       id="linearGradient4"
       x1="16"
       y1="30"
       x2="16"
       y2="2"
       gradientUnits="userSpaceOnUse"
       gradientTransform="scale(8)" />
    <linearGradient
       inkscape:collect="always"
       id="linearGradient6304">
      <stop
         style="stop-color:#8d348e;stop-opacity:1;"
         offset="0"
         id="stop6300" />
      <stop
         style="stop-color:#c275c3;stop-opacity:1;"
         offset="1"
         id="stop6302" />
    </linearGradient>
  </defs>
  <rect
     style="opacity:0.2;fill:#000000;stroke-width:14"
     id="rect1"
     width="224"
     height="224"
     x="16"
     y="17"
     ry="48" />
  <rect
     style="fill:url(#linearGradient4);stroke-width:8"
     id="rect2"
     width="224"
     height="224"
     x="16"
     y="16"
     ry="48" />
  <path
     id="path4648"
     style="fill:#ffffff;stroke-width:16;stroke-linejoin:round"
     d="m 128,48 c -44.182656,0 -80,35.81736 -80,80 0,44.18265 35.817344,80 80,80 44.18265,0 80,-35.81735 80,-80 0,-44.18264 -35.81735,-80 -80,-80 z m -24.54688,40.007808 c 1.30882,-0.048 2.67713,0.24424 3.96094,0.968752 l 56.5625,31.99219 c 5.36842,3.02971 5.36842,11.02496 0,14.05468 l -56.5625,31.99219 C 102.27875,169.91353 96.008776,166.0547 96,159.99218 V 96 c 0.0076,-4.546928 3.526656,-7.848168 7.45312,-7.992192 z" />
</svg>
