<?xml version="1.0" encoding="UTF-8" standalone="no"?>
<!-- Created with Inkscape (http://www.inkscape.org/) -->

<svg
   width="256"
   height="256"
   viewBox="0 0 256 256.00002"
   version="1.1"
   id="svg1"
   inkscape:version="1.4 (e7c3feb100, 2024-10-09)"
   sodipodi:docname="okular.svg"
   xmlns:inkscape="http://www.inkscape.org/namespaces/inkscape"
   xmlns:sodipodi="http://sodipodi.sourceforge.net/DTD/sodipodi-0.dtd"
   xmlns:xlink="http://www.w3.org/1999/xlink"
   xmlns="http://www.w3.org/2000/svg"
   xmlns:svg="http://www.w3.org/2000/svg">
  <sodipodi:namedview
     id="namedview1"
     pagecolor="#ffffff"
     bordercolor="#000000"
     borderopacity="0.25"
     inkscape:showpageshadow="2"
     inkscape:pageopacity="0.0"
     inkscape:pagecheckerboard="0"
     inkscape:deskcolor="#d1d1d1"
     inkscape:document-units="px"
     inkscape:zoom="3.15625"
     inkscape:cx="128.15842"
     inkscape:cy="128"
     inkscape:window-width="1920"
     inkscape:window-height="1011"
     inkscape:window-x="0"
     inkscape:window-y="0"
     inkscape:window-maximized="1"
     inkscape:current-layer="svg1" />
  <defs
     id="defs1">
    <linearGradient
       inkscape:collect="always"
       id="linearGradient1606">
      <stop
         style="stop-color:#eaebed;stop-opacity:1;"
         offset="0"
         id="stop1602" />
      <stop
         style="stop-color:#f9fafa;stop-opacity:1;"
         offset="1"
         id="stop1604" />
    </linearGradient>
    <linearGradient
       inkscape:collect="always"
       xlink:href="#linearGradient1606"
       id="linearGradient4"
       x1="16"
       y1="30"
       x2="16"
       y2="2"
       gradientUnits="userSpaceOnUse"
       gradientTransform="scale(8)" />
    <linearGradient
       inkscape:collect="always"
       xlink:href="#linearGradient2338"
       id="linearGradient2281"
       x1="16"
       y1="30"
       x2="16"
       y2="2"
       gradientUnits="userSpaceOnUse"
       gradientTransform="scale(8)" />
    <linearGradient
       inkscape:collect="always"
       id="linearGradient2338">
      <stop
         style="stop-color:#218ed4;stop-opacity:1;"
         offset="0"
         id="stop2334" />
      <stop
         style="stop-color:#3ecdf1;stop-opacity:1;"
         offset="1"
         id="stop2336" />
    </linearGradient>
  </defs>
  <rect
     style="opacity:0.2;fill:#000000;stroke-width:14"
     id="rect1"
     width="224"
     height="224"
     x="16"
     y="17"
     ry="48" />
  <rect
     style="fill:url(#linearGradient4);stroke-width:8"
     id="rect2"
     width="224"
     height="224"
     x="16"
     y="16"
     ry="48" />
  <path
     id="path1283"
     style="fill:url(#linearGradient2281);fill-opacity:1;stroke-width:8"
     d="m 144,16 v 0.03124 C 130.98871,28.354524 118.69281,44.733456 109.67187,63.343752 95.74268,92.0798 92.440072,116.35068 99.859376,136.25 c 7.419204,19.89934 24.441044,32.37258 51.000004,37.46875 27.91637,5.35661 53.79694,1.27426 77.65624,-12.35937 3.64972,-2.08555 8.05882,-4.49724 11.48438,-6.95313 v -31.73438 h -0.0312 c -8.62548,11.91709 -19.0369,21.57975 -29.15626,28.93751 -17.90292,13.01696 -36.40156,17.664 -55.57812,13.98437 -18.24351,-3.50056 -28.9464,-13.86167 -32.0938,-31.09375 -3.02365,-17.29628 1.91336,-39.23176 14.82813,-65.875 C 148.19205,47.534144 174.21626,18.010138 176,16 Z" />
</svg>
