<?xml version="1.0" encoding="UTF-8" standalone="no"?>
<!-- Created with Inkscape (http://www.inkscape.org/) -->

<svg
   width="256"
   height="256"
   viewBox="0 0 256 256.00002"
   version="1.1"
   id="svg1"
   xml:space="preserve"
   xmlns:xlink="http://www.w3.org/1999/xlink"
   xmlns="http://www.w3.org/2000/svg"
   xmlns:svg="http://www.w3.org/2000/svg"><defs
     id="defs1"><linearGradient
       id="linearGradient1606"><stop
         style="stop-color:#eaebed;stop-opacity:1;"
         offset="0"
         id="stop1602" /><stop
         style="stop-color:#f9fafa;stop-opacity:1;"
         offset="1"
         id="stop1604" /></linearGradient><linearGradient
       xlink:href="#linearGradient1606"
       id="linearGradient4"
       x1="16"
       y1="30"
       x2="16"
       y2="2"
       gradientUnits="userSpaceOnUse"
       gradientTransform="scale(8)" /><linearGradient
       id="paint0_linear"
       x1="35.9743"
       y1="78.659401"
       x2="35.9743"
       y2="29.030199"
       gradientUnits="userSpaceOnUse"><stop
         stop-color="#FCC2B1"
         id="stop3" /><stop
         offset="0.8848"
         stop-color="#D9420B"
         id="stop4" /></linearGradient><linearGradient
       id="paint1_linear"
       x1="35.9743"
       y1="57.171299"
       x2="35.9743"
       y2="24.531601"
       gradientUnits="userSpaceOnUse"><stop
         stop-color="#DEEDC9"
         id="stop5" /><stop
         offset="0.6606"
         stop-color="#8BBA25"
         id="stop6" /></linearGradient><linearGradient
       id="paint2_linear"
       x1="35.9743"
       y1="43.9547"
       x2="35.9743"
       y2="-0.46086201"
       gradientUnits="userSpaceOnUse"><stop
         stop-color="#C2EBFA"
         id="stop7" /><stop
         offset="1"
         stop-color="#26A8DE"
         id="stop8" /></linearGradient></defs><rect
     style="opacity:0.2;fill:#000000;stroke-width:14"
     id="rect1"
     width="224"
     height="224"
     x="16"
     y="17"
     ry="48" /><rect
     style="fill:url(#linearGradient4);stroke-width:8"
     id="rect2"
     width="224"
     height="224"
     x="16"
     y="16"
     ry="48" /><g
     style="fill:none"
     id="g1"
     transform="matrix(2.3047382,0,0,2.3047382,45.249485,45.910641)"><path
       fill-rule="evenodd"
       clip-rule="evenodd"
       d="M 31.5033,65.7742 1.89184,52.1805 c -2.522455,-1.1868 -2.522455,-3.0209 0,-4.0997 L 12.201,43.3337 31.3936,52.1805 c 2.5225,1.1867 6.5804,1.1867 8.9932,0 l 19.1926,-8.8468 10.3092,4.7471 c 2.5224,1.1867 2.5224,3.0208 0,4.0997 L 40.2771,65.7742 c -2.3031,1.0788 -6.361,1.0788 -8.7738,0 z"
       fill="url(#paint0_linear)"
       id="path1"
       style="fill:url(#paint0_linear)" /><path
       fill-rule="evenodd"
       clip-rule="evenodd"
       d="M 31.5033,49.0516 1.89184,35.4578 c -2.522455,-1.1867 -2.522455,-3.0208 0,-4.0997 L 11.9817,26.719 31.5033,35.6736 c 2.5225,1.1867 6.5803,1.1867 8.9931,0 l 19.5217,-8.9546 10.0898,4.6391 c 2.5225,1.1868 2.5225,3.0209 0,4.0997 L 40.4964,49.0516 c -2.5224,1.1867 -6.5803,1.1867 -8.9931,0 z"
       fill="url(#paint1_linear)"
       id="path2"
       style="fill:url(#paint1_linear)" /><path
       fill-rule="evenodd"
       clip-rule="evenodd"
       d="M 31.5033,32.7606 1.89184,19.1669 c -2.522455,-1.1868 -2.522455,-3.0209 0,-4.0997 L 31.5033,1.47344 c 2.5225,-1.186755 6.5803,-1.186755 8.9931,0 L 70.1079,15.0672 c 2.5225,1.1867 2.5225,3.0208 0,4.0997 L 40.4964,32.7606 c -2.5224,1.0789 -6.5803,1.0789 -8.9931,0 z"
       fill="url(#paint2_linear)"
       id="path3"
       style="fill:url(#paint2_linear)" /></g></svg>
