<?xml version="1.0" encoding="UTF-8" standalone="no"?>
<!-- Created with Inkscape (http://www.inkscape.org/) -->

<svg
   width="256"
   height="256"
   viewBox="0 0 256 256.00002"
   version="1.1"
   id="svg1"
   inkscape:version="1.4.2 (ebf0e940d0, 2025-05-08)"
   sodipodi:docname="org.xfce.terminal-settings.svg"
   xmlns:inkscape="http://www.inkscape.org/namespaces/inkscape"
   xmlns:sodipodi="http://sodipodi.sourceforge.net/DTD/sodipodi-0.dtd"
   xmlns:xlink="http://www.w3.org/1999/xlink"
   xmlns="http://www.w3.org/2000/svg"
   xmlns:svg="http://www.w3.org/2000/svg">
  <sodipodi:namedview
     id="namedview1"
     pagecolor="#ffffff"
     bordercolor="#000000"
     borderopacity="0.25"
     inkscape:showpageshadow="2"
     inkscape:pageopacity="0.0"
     inkscape:pagecheckerboard="0"
     inkscape:deskcolor="#d1d1d1"
     inkscape:document-units="px"
     inkscape:zoom="3.109375"
     inkscape:cx="127.8392"
     inkscape:cy="128"
     inkscape:window-width="1920"
     inkscape:window-height="1011"
     inkscape:window-x="0"
     inkscape:window-y="0"
     inkscape:window-maximized="1"
     inkscape:current-layer="svg1" />
  <defs
     id="defs1">
    <linearGradient
       inkscape:collect="always"
       xlink:href="#4852"
       id="linearGradient4"
       x1="16"
       y1="30"
       x2="16"
       y2="2"
       gradientUnits="userSpaceOnUse"
       gradientTransform="scale(8)" />
    <linearGradient
       inkscape:collect="always"
       id="4852">
      <stop
         style="stop-color:#272727;stop-opacity:1;"
         offset="0"
         id="stop14555" />
      <stop
         style="stop-color:#5d5d5d;stop-opacity:1;"
         offset="1"
         id="stop14557" />
    </linearGradient>
  </defs>
  <rect
     style="opacity:0.2;fill:#000000;stroke-width:14"
     id="rect1"
     width="224"
     height="224"
     x="16"
     y="17"
     ry="48" />
  <rect
     style="fill:url(#linearGradient4);stroke-width:8"
     id="rect2"
     width="224"
     height="224"
     x="16"
     y="16"
     ry="48" />
  <g
     id="g1"
     style="opacity:0.3"
     transform="scale(4)">
    <path
       id="path285"
       style="fill:#ffffff;stroke-width:3.2;stroke-linecap:round;stroke-linejoin:round"
       d="m 32.00017,16.00017 c -8.836538,0 -16,7.163462 -16,16 0,8.836538 7.163462,16 16,16 8.836538,0 16,-7.163462 16,-16 0,-8.836538 -7.163462,-16 -16,-16 z m 0,8 c 4.41827,0 8,3.581732 8,8 0,4.41827 -3.58173,8 -8,8 -4.418268,0 -8,-3.58173 -8,-8 0,-4.418268 3.581732,-8 8,-8 z" />
    <path
       id="rect1-2"
       style="opacity:0.5;fill:#f9f9f9;stroke-width:2"
       d="m 38.571446,10.909453 c -1.023658,-0.424013 -1.962168,0.744803 -2.50544,1.710474 l -1.97463,3.511651 c 1.355138,0.17942 2.708856,0.538568 4.031728,1.08652 1.322874,0.547952 2.534046,1.251224 3.619148,2.082576 l 1.08684,-3.879385 c 0.29868,-1.066984 0.461532,-2.557089 -0.562128,-2.981102 z m -12.217838,0.01714 c -0.293752,-0.12371 -0.60412,-0.147398 -0.924012,-0.0149 l -3.695124,1.530571 c -1.02366,0.424012 -0.860956,1.913466 -0.562276,2.980448 l 1.085048,3.882656 c 2.227032,-1.705536 4.874888,-2.802314 7.655642,-3.171058 L 27.93468,12.621613 C 27.561182,11.957715 26.99986,11.198763 26.353608,10.9266 Z m 24.54055,10.165029 C 50.24474,20.8271 49.311164,20.966842 48.577614,21.172182 L 44.69496,22.25723 c 1.705548,2.227032 2.802326,4.874888 3.171072,7.655644 l 3.512694,-1.978208 c 0.96567,-0.543272 2.133922,-1.481426 1.709908,-2.505084 l -1.530572,-3.695124 c -0.1325,-0.319892 -0.368716,-0.522606 -0.663904,-0.642844 z m -31.593484,1.16646 -3.879385,-1.08684 C 14.354306,20.872562 12.8642,20.70971 12.440187,21.73337 l -1.530734,3.695518 c -0.424013,1.023658 0.744807,1.962162 1.710474,2.50544 l 3.511651,1.974636 c 0.17942,-1.355138 0.538568,-2.708856 1.08652,-4.031728 0.547952,-1.322874 1.251224,-2.534046 2.082576,-3.619148 z m 28.568088,11.83329 c -0.17942,1.355136 -0.538568,2.708854 -1.08652,4.031726 -0.547952,1.322874 -1.251224,2.534046 -2.082576,3.619148 l 3.879386,1.08684 c 1.066982,0.29868 2.557088,0.461532 2.9811,-0.562128 L 53.090886,38.57144 C 53.5149,37.547782 52.346084,36.609272 51.380414,36.066 Z m -31.734452,-0.004 -3.512697,1.978206 c -0.965669,0.543352 -2.13392,1.48151 -1.709906,2.505166 l 1.530569,3.695124 c 0.424013,1.02366 1.913463,0.860952 2.980449,0.562274 l 3.882655,-1.085046 c -1.705548,-2.227034 -2.802326,-4.874888 -3.17107,-7.655642 z m 25.608786,10.607506 c -2.227034,1.705548 -4.874888,2.802326 -7.655644,3.171072 l 1.978208,3.512694 c 0.543278,0.965672 1.481426,2.133924 2.505084,1.709908 l 3.695124,-1.530572 c 1.02366,-0.42401 0.860956,-1.913464 0.562274,-2.980448 z m -19.485008,0.0048 -1.08684,3.879386 c -0.29868,1.066982 -0.461532,2.557088 0.562128,2.9811 l 3.695518,1.530734 c 1.023658,0.424014 1.962162,-0.744806 2.50544,-1.710472 l 1.974628,-3.511652 c -1.355136,-0.17942 -2.708854,-0.538568 -4.031726,-1.08652 -1.322874,-0.547952 -2.534046,-1.251224 -3.619148,-2.082576 z" />
  </g>
  <path
     d="m 48,56 v 7.999996 L 80,80 48,96 v 8 L 88,84 v -8 z m 40,48 v 8 h 40 v -8 z"
     style="fill:#ffffff;stroke-width:6.6762"
     id="path14734"
     sodipodi:nodetypes="ccccccccccccc" />
</svg>
