<?xml version="1.0" encoding="UTF-8" standalone="no"?>
<!-- Created with Inkscape (http://www.inkscape.org/) -->

<svg
   width="256"
   height="256"
   viewBox="0 0 256 256.00002"
   version="1.1"
   id="svg1"
   inkscape:version="1.4.2 (ebf0e940d0, 2025-05-08)"
   sodipodi:docname="org.gnome.Shell.Extensions.GSConnect.svg"
   xmlns:inkscape="http://www.inkscape.org/namespaces/inkscape"
   xmlns:sodipodi="http://sodipodi.sourceforge.net/DTD/sodipodi-0.dtd"
   xmlns:xlink="http://www.w3.org/1999/xlink"
   xmlns="http://www.w3.org/2000/svg"
   xmlns:svg="http://www.w3.org/2000/svg">
  <sodipodi:namedview
     id="namedview1"
     pagecolor="#ffffff"
     bordercolor="#000000"
     borderopacity="0.25"
     inkscape:showpageshadow="2"
     inkscape:pageopacity="0.0"
     inkscape:pagecheckerboard="0"
     inkscape:deskcolor="#d1d1d1"
     inkscape:document-units="px"
     inkscape:zoom="3.0703125"
     inkscape:cx="127.83715"
     inkscape:cy="128"
     inkscape:window-width="1920"
     inkscape:window-height="1011"
     inkscape:window-x="0"
     inkscape:window-y="0"
     inkscape:window-maximized="1"
     inkscape:current-layer="svg1" />
  <defs
     id="defs1">
    <linearGradient
       inkscape:collect="always"
       xlink:href="#linearGradient1453"
       id="linearGradient4"
       x1="16"
       y1="30"
       x2="16"
       y2="2"
       gradientUnits="userSpaceOnUse"
       gradientTransform="scale(8)" />
    <linearGradient
       inkscape:collect="always"
       id="linearGradient1453">
      <stop
         style="stop-color:#3d7fca;stop-opacity:1;"
         offset="0"
         id="stop1449" />
      <stop
         style="stop-color:#8baee9;stop-opacity:1;"
         offset="1"
         id="stop1451" />
    </linearGradient>
  </defs>
  <rect
     style="opacity:0.2;fill:#000000;stroke-width:14"
     id="rect1"
     width="224"
     height="224"
     x="16"
     y="17"
     ry="48" />
  <rect
     style="fill:url(#linearGradient4);stroke-width:8"
     id="rect2"
     width="224"
     height="224"
     x="16"
     y="16"
     ry="48" />
  <path
     id="rect634"
     style="fill:#ffffff;stroke-width:8;stroke-linejoin:round"
     d="m 92,40 c -8.863984,0 -16,7.136016 -16,16 v 144 c 0,8.86398 7.136016,16 16,16 h 72 c 8.86398,0 16,-7.13602 16,-16 V 56 c 0,-8.863984 -7.13602,-16 -16,-16 z m 20,156 h 32 c 2.21599,0 4,1.784 4,4 0,2.216 -1.78401,4 -4,4 h -32 c -2.21599,0 -4,-1.784 -4,-4 0,-2.216 1.78401,-4 4,-4 z" />
</svg>
