<?xml version="1.0" encoding="UTF-8" standalone="no"?>
<!-- Created with Inkscape (http://www.inkscape.org/) -->

<svg
   width="256"
   height="256"
   viewBox="0 0 256 256.00002"
   version="1.1"
   id="svg1"
   inkscape:version="1.4.2 (ebf0e940d0, 2025-05-08)"
   sodipodi:docname="org.gnome.Software.Work.svg"
   xmlns:inkscape="http://www.inkscape.org/namespaces/inkscape"
   xmlns:sodipodi="http://sodipodi.sourceforge.net/DTD/sodipodi-0.dtd"
   xmlns:xlink="http://www.w3.org/1999/xlink"
   xmlns="http://www.w3.org/2000/svg"
   xmlns:svg="http://www.w3.org/2000/svg">
  <sodipodi:namedview
     id="namedview1"
     pagecolor="#ffffff"
     bordercolor="#000000"
     borderopacity="0.25"
     inkscape:showpageshadow="2"
     inkscape:pageopacity="0.0"
     inkscape:pagecheckerboard="0"
     inkscape:deskcolor="#d1d1d1"
     inkscape:document-units="px"
     inkscape:zoom="3.0703125"
     inkscape:cx="127.83715"
     inkscape:cy="128"
     inkscape:window-width="1920"
     inkscape:window-height="1011"
     inkscape:window-x="0"
     inkscape:window-y="0"
     inkscape:window-maximized="1"
     inkscape:current-layer="svg1"
     showguides="false" />
  <defs
     id="defs1">
    <linearGradient
       inkscape:collect="always"
       xlink:href="#linearGradient3147"
       id="linearGradient4"
       x1="16"
       y1="30"
       x2="16"
       y2="2"
       gradientUnits="userSpaceOnUse"
       gradientTransform="scale(8)" />
    <linearGradient
       inkscape:collect="always"
       xlink:href="#linearGradient1606"
       id="linearGradient4-9"
       x1="8"
       y1="15"
       x2="8"
       y2="1"
       gradientUnits="userSpaceOnUse"
       gradientTransform="scale(16)" />
    <linearGradient
       inkscape:collect="always"
       id="linearGradient1606">
      <stop
         style="stop-color:#eaebed;stop-opacity:1;"
         offset="0"
         id="stop1602" />
      <stop
         style="stop-color:#f9fafa;stop-opacity:1;"
         offset="1"
         id="stop1604" />
    </linearGradient>
    <linearGradient
       inkscape:collect="always"
       id="linearGradient3147">
      <stop
         style="stop-color:#0091f9;stop-opacity:1;"
         offset="0"
         id="stop3143" />
      <stop
         style="stop-color:#41bbff;stop-opacity:1;"
         offset="1"
         id="stop3145" />
    </linearGradient>
  </defs>
  <rect
     style="opacity:0.2;fill:#000000;stroke-width:14"
     id="rect1"
     width="224"
     height="224"
     x="16"
     y="17"
     ry="48" />
  <rect
     style="fill:url(#linearGradient4);stroke-width:8"
     id="rect2"
     width="224"
     height="224"
     x="16"
     y="16"
     ry="48" />
  <rect
     style="fill:url(#linearGradient4-9);stroke-width:32"
     id="rect3"
     width="192"
     height="192"
     x="32"
     y="32"
     ry="32" />
  <path
     id="path4"
     style="color:#000000;fill:#c8c8c8;stroke-width:8;stroke-linecap:round;-inkscape-stroke:none"
     d="m 120,72 c -2.20914,0 -4,1.790864 -4,4 0,2.209136 1.79086,4 4,4 h 80 c 2.20914,0 4,-1.790864 4,-4 0,-2.209136 -1.79086,-4 -4,-4 z m 0,56 c -2.20914,0 -4,1.79086 -4,4 0,2.20914 1.79086,4 4,4 h 80 c 2.20914,0 4,-1.79086 4,-4 0,-2.20914 -1.79086,-4 -4,-4 z m 0,56 c -2.20914,0 -4,1.79086 -4,4 0,2.20914 1.79086,4 4,4 h 80 c 2.20914,0 4,-1.79086 4,-4 0,-2.20914 -1.79086,-4 -4,-4 z" />
  <path
     id="rect4"
     style="fill:#5f5f5f;fill-opacity:1;stroke-width:16"
     d="m 99.830088,49.5 c -1.151328,-0.0096 -2.29252,0.48264 -3.093752,1.437504 L 73.54884,78.546872 59.439464,64.437504 c -1.566952,-1.566952 -4.089304,-1.566952 -5.656256,0 -1.566944,1.566944 -1.566944,4.089296 0,5.656248 L 70.75196,87.062496 c 1.011888,1.011896 2.424416,1.373136 3.718752,1.078128 1.005776,-0.09712 1.983672,-0.58312 2.687496,-1.421872 L 102.86134,56.078128 c 1.42441,-1.69756 1.21317,-4.200584 -0.4844,-5.625 -0.74272,-0.6232 -1.6514,-0.945456 -2.546876,-0.953128 z m 0,56 c -1.151328,-0.01 -2.29252,0.48264 -3.093752,1.4375 L 73.54884,134.54687 59.439464,120.4375 c -1.566952,-1.56696 -4.089304,-1.56696 -5.656256,0 -1.566944,1.56695 -1.566944,4.0893 0,5.65625 L 70.75196,143.0625 c 1.011888,1.0119 2.424416,1.37313 3.718752,1.07812 1.005776,-0.0971 1.983672,-0.58312 2.687496,-1.42187 l 25.703132,-30.64062 c 1.42441,-1.69756 1.2132,-4.20058 -0.4844,-5.625 -0.74264,-0.6232 -1.6514,-0.94546 -2.546876,-0.95313 z m 0,56 c -1.151328,-0.01 -2.29252,0.48264 -3.093752,1.4375 L 73.54884,190.54688 59.439464,176.4375 c -1.566952,-1.56695 -4.089304,-1.56695 -5.656256,0 -1.566944,1.56695 -1.566944,4.0893 0,5.65625 L 70.75196,199.0625 c 1.011888,1.0119 2.424416,1.37314 3.718752,1.07812 1.005776,-0.0972 1.983672,-0.58312 2.687496,-1.42186 l 25.703132,-30.64063 c 1.42441,-1.69756 1.2132,-4.20058 -0.4844,-5.625 -0.74264,-0.6232 -1.6514,-0.94546 -2.546876,-0.95313 z" />
</svg>
