<?xml version="1.0" encoding="UTF-8" standalone="no"?>
<!-- Created with Inkscape (http://www.inkscape.org/) -->

<svg
   width="256"
   height="256"
   viewBox="0 0 256 256.00002"
   version="1.1"
   id="svg1"
   inkscape:version="1.4.2 (ebf0e940d0, 2025-05-08)"
   sodipodi:docname="plasma.svg"
   xmlns:inkscape="http://www.inkscape.org/namespaces/inkscape"
   xmlns:sodipodi="http://sodipodi.sourceforge.net/DTD/sodipodi-0.dtd"
   xmlns:xlink="http://www.w3.org/1999/xlink"
   xmlns="http://www.w3.org/2000/svg"
   xmlns:svg="http://www.w3.org/2000/svg">
  <sodipodi:namedview
     id="namedview1"
     pagecolor="#ffffff"
     bordercolor="#000000"
     borderopacity="0.25"
     inkscape:showpageshadow="2"
     inkscape:pageopacity="0.0"
     inkscape:pagecheckerboard="0"
     inkscape:deskcolor="#d1d1d1"
     inkscape:document-units="px"
     inkscape:zoom="3.1054688"
     inkscape:cx="128"
     inkscape:cy="128"
     inkscape:window-width="1920"
     inkscape:window-height="1010"
     inkscape:window-x="0"
     inkscape:window-y="0"
     inkscape:window-maximized="1"
     inkscape:current-layer="svg1" />
  <defs
     id="defs1">
    <linearGradient
       inkscape:collect="always"
       xlink:href="#linearGradient3201"
       id="linearGradient4"
       x1="16"
       y1="30"
       x2="16"
       y2="2"
       gradientUnits="userSpaceOnUse"
       gradientTransform="scale(8)" />
    <linearGradient
       inkscape:collect="always"
       id="linearGradient3201">
      <stop
         style="stop-color:#3daee9;stop-opacity:1;"
         offset="0"
         id="stop3197" />
      <stop
         style="stop-color:#5fd3ff;stop-opacity:1;"
         offset="1"
         id="stop3199" />
    </linearGradient>
  </defs>
  <rect
     style="opacity:0.2;fill:#000000;stroke-width:14"
     id="rect1"
     width="224"
     height="224"
     x="16"
     y="17"
     ry="48" />
  <rect
     style="fill:url(#linearGradient4);stroke-width:8"
     id="rect2"
     width="224"
     height="224"
     x="16"
     y="16"
     ry="48" />
  <path
     id="path360"
     style="fill:#ffffff;stroke-width:8"
     d="m 88,48 c -6.647992,0 -12,5.352008 -12,12 0,6.647992 5.352008,12 12,12 6.647992,0 12,-5.352008 12,-12 0,-6.647992 -5.352008,-12 -12,-12 z M 150.85938,48 128,70.398436 162.28906,104 128,137.60156 150.85938,160 208,104 Z M 62,112 c -7.755936,0 -14,6.24395 -14,14 0,7.75594 6.244064,14 14,14 7.756048,0 14,-6.24406 14,-14 0,-7.75605 -6.243952,-14 -14,-14 z m 46,56 c -11.079988,0 -20,8.92001 -20,20 0,11.07998 8.920012,20 20,20 11.07999,0 20,-8.92002 20,-20 0,-11.07999 -8.92001,-20 -20,-20 z" />
</svg>
