<?xml version="1.0" encoding="UTF-8" standalone="no"?>
<!-- Created with Inkscape (http://www.inkscape.org/) -->

<svg
   width="256"
   height="256"
   viewBox="0 0 256 256.00002"
   version="1.1"
   id="svg1"
   inkscape:version="1.4.2 (ebf0e940d0, 2025-05-08)"
   sodipodi:docname="preferences-desktop-font.svg"
   xmlns:inkscape="http://www.inkscape.org/namespaces/inkscape"
   xmlns:sodipodi="http://sodipodi.sourceforge.net/DTD/sodipodi-0.dtd"
   xmlns:xlink="http://www.w3.org/1999/xlink"
   xmlns="http://www.w3.org/2000/svg"
   xmlns:svg="http://www.w3.org/2000/svg">
  <sodipodi:namedview
     id="namedview1"
     pagecolor="#ffffff"
     bordercolor="#000000"
     borderopacity="0.25"
     inkscape:showpageshadow="2"
     inkscape:pageopacity="0.0"
     inkscape:pagecheckerboard="0"
     inkscape:deskcolor="#d1d1d1"
     inkscape:document-units="px"
     inkscape:zoom="3.1054688"
     inkscape:cx="128"
     inkscape:cy="128"
     inkscape:window-width="1920"
     inkscape:window-height="1010"
     inkscape:window-x="0"
     inkscape:window-y="0"
     inkscape:window-maximized="1"
     inkscape:current-layer="svg1" />
  <defs
     id="defs1">
    <linearGradient
       inkscape:collect="always"
       xlink:href="#linearGradient1144"
       id="linearGradient4"
       x1="16"
       y1="30"
       x2="16"
       y2="2"
       gradientUnits="userSpaceOnUse"
       gradientTransform="scale(8)" />
    <linearGradient
       inkscape:collect="always"
       id="linearGradient1144">
      <stop
         style="stop-color:#adb2b9;stop-opacity:1;"
         offset="0"
         id="stop1140" />
      <stop
         style="stop-color:#e0e2e4;stop-opacity:1;"
         offset="1"
         id="stop1142" />
    </linearGradient>
  </defs>
  <rect
     style="opacity:0.2;fill:#000000;stroke-width:14"
     id="rect1"
     width="224"
     height="224"
     x="16"
     y="17"
     ry="48" />
  <rect
     style="fill:url(#linearGradient4);stroke-width:8"
     id="rect2"
     width="224"
     height="224"
     x="16"
     y="16"
     ry="48" />
  <path
     d="M 85.784808,72 48,175.24415 h 13.400688 l 10.34004,-29.08997 h 41.498032 l 10.34004,29.08997 h 13.54775 L 99.332552,72 Z m 6.277544,16.681936 h 0.854784 L 109.31414,134.88584 H 75.665336 Z m 86.847148,8.134168 c -5.60899,0 -10.67724,0.89592 -15.19296,2.702192 -4.4682,1.758754 -8.05342,4.232494 -10.76284,7.417264 -2.70942,3.18476 -4.32086,6.84798 -4.84372,10.98342 h 12.83084 c 0.90331,-3.0897 2.85092,-5.58944 5.84557,-7.49079 2.99463,-1.94889 6.84742,-2.92278 11.55326,-2.92278 5.75159,0 10.09513,1.35305 13.04225,4.06249 2.9946,2.66189 4.49446,6.48868 4.49446,11.47973 v 6.27757 c -1.66368,0.048 -4.74896,0.19432 -9.26468,0.432 -4.5157,0.23768 -8.42049,0.47008 -11.70034,0.70768 -8.41348,0.61792 -15.37755,2.59174 -20.89146,5.9191 -5.4664,3.27984 -8.1985,8.91684 -8.1985,16.90252 0,4.89599 1.16347,9.14474 3.49263,12.75731 2.32917,3.56503 5.49241,6.29716 9.48525,8.1985 3.99284,1.85381 8.46637,2.81093 13.40989,2.85846 6.08433,-0.048 11.0486,-1.31498 14.89885,-3.78677 3.89778,-2.5193 6.6299,-5.38899 8.19852,-8.6213 h 0.56984 v 10.55144 h 12.12312 v -51.04765 c 0.0472,-10.69511 -2.92612,-17.92674 -8.91536,-21.68191 -5.98928,-3.802716 -12.71176,-5.698516 -20.17458,-5.698516 z m 16.96686,42.564206 v 7.76652 c 0,3.32737 -0.85328,6.44781 -2.56434,9.34739 -1.66366,2.89957 -4.11142,5.22652 -7.34372,6.98526 -3.2323,1.75877 -7.05909,2.63787 -11.47975,2.63787 -4.94351,0 -8.91709,-1.04254 -11.91173,-3.1342 -2.94708,-2.09147 -4.43772,-5.13396 -4.48526,-9.1268 0.048,-4.08789 1.63296,-7.20836 4.7702,-9.34737 3.18476,-2.13903 7.68428,-3.3973 13.48342,-3.77756 l 10.11944,-0.70776 c 5.18122,-0.38024 8.3185,-0.59584 9.41174,-0.64336 z"
     style="font-size:8.21007px;line-height:1.25;font-family:Pretendard;-inkscape-font-specification:Pretendard;fill:#4d4d4d;stroke-width:3.65062"
     id="path1940" />
</svg>
