<?xml version="1.0" encoding="UTF-8" standalone="no"?>
<!-- Created with Inkscape (http://www.inkscape.org/) -->

<svg
   width="256"
   height="256"
   viewBox="0 0 256 256.00002"
   version="1.1"
   id="svg1"
   inkscape:version="1.4.2 (ebf0e940d0, 2025-05-08)"
   sodipodi:docname="preferences-desktop-keyboard-shortcuts.svg"
   xmlns:inkscape="http://www.inkscape.org/namespaces/inkscape"
   xmlns:sodipodi="http://sodipodi.sourceforge.net/DTD/sodipodi-0.dtd"
   xmlns:xlink="http://www.w3.org/1999/xlink"
   xmlns="http://www.w3.org/2000/svg"
   xmlns:svg="http://www.w3.org/2000/svg">
  <sodipodi:namedview
     id="namedview1"
     pagecolor="#ffffff"
     bordercolor="#000000"
     borderopacity="0.25"
     inkscape:showpageshadow="2"
     inkscape:pageopacity="0.0"
     inkscape:pagecheckerboard="0"
     inkscape:deskcolor="#d1d1d1"
     inkscape:document-units="px"
     inkscape:zoom="3.1054688"
     inkscape:cx="128"
     inkscape:cy="128"
     inkscape:window-width="1920"
     inkscape:window-height="1010"
     inkscape:window-x="0"
     inkscape:window-y="0"
     inkscape:window-maximized="1"
     inkscape:current-layer="svg1" />
  <defs
     id="defs1">
    <linearGradient
       inkscape:collect="always"
       xlink:href="#linearGradient22024"
       id="linearGradient4"
       x1="16"
       y1="30"
       x2="16"
       y2="2"
       gradientUnits="userSpaceOnUse"
       gradientTransform="scale(8)" />
    <linearGradient
       inkscape:collect="always"
       id="linearGradient22024">
      <stop
         style="stop-color:#cdcdcd;stop-opacity:1;"
         offset="0"
         id="stop22020" />
      <stop
         style="stop-color:#eff0f1;stop-opacity:1;"
         offset="1"
         id="stop22022" />
    </linearGradient>
  </defs>
  <rect
     style="opacity:0.2;fill:#000000;stroke-width:14"
     id="rect1"
     width="224"
     height="224"
     x="16"
     y="17"
     ry="48" />
  <rect
     style="fill:url(#linearGradient4);stroke-width:8"
     id="rect2"
     width="224"
     height="224"
     x="16"
     y="16"
     ry="48" />
  <path
     d="m 48,64 c -4.431996,0 -8,3.568008 -8,8 v 16 c 0,4.431992 3.568004,8 8,8 h 16 c 4.431992,0 8,-3.568008 8,-8 V 72 c 0,-4.431992 -3.568008,-8 -8,-8 z m 48,0 c -4.431992,0 -8,3.568008 -8,8 v 16 c 0,4.431992 3.568008,8 8,8 h 16 c 4.432,0 8,-3.568008 8,-8 V 72 c 0,-4.431992 -3.568,-8 -8,-8 z m 48,0 c -4.432,0 -8,3.568008 -8,8 v 16 c 0,4.431992 3.568,8 8,8 h 16 c 4.43199,0 8,-3.568008 8,-8 V 72 c 0,-4.431992 -3.56801,-8 -8,-8 z m -96,48 c -4.431996,0 -8,3.568 -8,8 v 16 c 0,4.43199 3.568004,8 8,8 h 16 c 4.431992,0 8,-3.56801 8,-8 v -16 c 0,-4.432 -3.568008,-8 -8,-8 z m 48,0 c -4.431992,0 -8,3.568 -8,8 v 16 c 0,4.43199 3.568008,8 8,8 h 16 c 4.432,0 8,-3.56801 8,-8 v -16 c 0,-4.432 -3.568,-8 -8,-8 z m 96,0 c -4.432,0 -8,3.568 -8,8 v 16 c 0,4.43199 3.568,8 8,8 h 16 c 4.432,0 8,-3.56801 8,-8 v -16 c 0,-4.432 -3.568,-8 -8,-8 z M 80,160 c -4.432,0 -8,3.568 -8,8 v 16 c 0,4.432 3.568,8 8,8 h 96 c 4.43199,0 8,-3.568 8,-8 v -16 c 0,-4.432 -3.56801,-8 -8,-8 z"
     style="fill:#a1a1a1;fill-opacity:1;stroke-width:8;stroke-linecap:round;stroke-linejoin:round"
     id="path1728"
     sodipodi:nodetypes="sssssssssssssssssssssssssssssssssssssssssssssssssssssssssssssss" />
  <path
     d="m 192,64 c -4.432,0 -8,3.568008 -8,8 v 16 c 0,4.431992 3.568,8 8,8 h 16 c 4.432,0 8,-3.568008 8,-8 V 72 c 0,-4.431992 -3.568,-8 -8,-8 z m -48,48 c -4.432,0 -8,3.568 -8,8 v 16 c 0,4.43199 3.568,8 8,8 h 16 c 4.43199,0 8,-3.56801 8,-8 v -16 c 0,-4.432 -3.56801,-8 -8,-8 z"
     style="fill:#d98d49;fill-opacity:1;stroke-width:8;stroke-linecap:round;stroke-linejoin:round"
     id="path23709" />
</svg>
