<?xml version="1.0" encoding="UTF-8" standalone="no"?>
<!-- Created with Inkscape (http://www.inkscape.org/) -->

<svg
   width="256"
   height="256"
   viewBox="0 0 256 256.00002"
   version="1.1"
   id="svg1"
   inkscape:version="1.4.2 (ebf0e940d0, 2025-05-08)"
   sodipodi:docname="system-software-install.svg"
   xmlns:inkscape="http://www.inkscape.org/namespaces/inkscape"
   xmlns:sodipodi="http://sodipodi.sourceforge.net/DTD/sodipodi-0.dtd"
   xmlns:xlink="http://www.w3.org/1999/xlink"
   xmlns="http://www.w3.org/2000/svg"
   xmlns:svg="http://www.w3.org/2000/svg">
  <sodipodi:namedview
     id="namedview1"
     pagecolor="#ffffff"
     bordercolor="#000000"
     borderopacity="0.25"
     inkscape:showpageshadow="2"
     inkscape:pageopacity="0.0"
     inkscape:pagecheckerboard="0"
     inkscape:deskcolor="#d1d1d1"
     inkscape:document-units="px"
     inkscape:zoom="3.109375"
     inkscape:cx="127.8392"
     inkscape:cy="128"
     inkscape:window-width="1920"
     inkscape:window-height="1011"
     inkscape:window-x="0"
     inkscape:window-y="0"
     inkscape:window-maximized="1"
     inkscape:current-layer="svg1" />
  <defs
     id="defs1">
    <linearGradient
       inkscape:collect="always"
       xlink:href="#linearGradient3147"
       id="linearGradient4"
       x1="16"
       y1="30"
       x2="16"
       y2="2"
       gradientUnits="userSpaceOnUse"
       gradientTransform="scale(8)" />
    <linearGradient
       inkscape:collect="always"
       id="linearGradient3147">
      <stop
         style="stop-color:#0091f9;stop-opacity:1;"
         offset="0"
         id="stop3143" />
      <stop
         style="stop-color:#41bbff;stop-opacity:1;"
         offset="1"
         id="stop3145" />
    </linearGradient>
  </defs>
  <rect
     style="opacity:0.2;fill:#000000;stroke-width:14"
     id="rect1"
     width="224"
     height="224"
     x="16"
     y="17"
     ry="48" />
  <rect
     style="fill:url(#linearGradient4);stroke-width:8"
     id="rect2"
     width="224"
     height="224"
     x="16"
     y="16"
     ry="48" />
  <path
     style="color:#000000;fill:#ececec;stroke:none;stroke-width:8;stroke-linecap:round;stroke-linejoin:round;-inkscape-stroke:none"
     d="M 128,80 C 105.95601,80 88,62.043988 88,40 a 4,4 0 0 1 4,-4 4,4 0 0 1 4,4 c 0,17.720472 14.27953,32 32,32 17.72047,0 32,-14.279528 32,-32 a 4,4 0 0 1 4,-4 4,4 0 0 1 4,4 c 0,22.043988 -17.95601,40 -40,40 z"
     id="path6892" />
  <path
     id="rect7044"
     style="fill:#ffffff;stroke-width:4"
     d="m 128.00008,108 c -2.21599,0 -4,1.784 -4,4 v 82.34376 L 97.85946,168.19531 c -1.566948,-1.56694 -4.089312,-1.56694 -5.656252,0 -1.566944,1.56695 -1.566948,4.09712 0,5.66407 l 32.968752,32.96874 c 1.56695,1.56696 4.0893,1.56696 5.65625,0 l 32.96875,-32.96874 c 1.56694,-1.56695 1.56694,-4.09712 0,-5.66407 -1.56694,-1.56693 -4.0893,-1.56694 -5.65625,0 l -26.14063,26.14845 V 112 c 0,-2.216 -1.784,-4 -4,-4 z"
     sodipodi:nodetypes="ssccssssssccss" />
</svg>
