<?xml version="1.0" encoding="UTF-8" standalone="no"?>
<!-- Created with Inkscape (http://www.inkscape.org/) -->

<svg
   width="256"
   height="256"
   viewBox="0 0 256 256.00002"
   version="1.1"
   id="svg1"
   inkscape:version="1.4.2 (ebf0e940d0, 2025-05-08)"
   sodipodi:docname="system-help.svg"
   xmlns:inkscape="http://www.inkscape.org/namespaces/inkscape"
   xmlns:sodipodi="http://sodipodi.sourceforge.net/DTD/sodipodi-0.dtd"
   xmlns:xlink="http://www.w3.org/1999/xlink"
   xmlns="http://www.w3.org/2000/svg"
   xmlns:svg="http://www.w3.org/2000/svg">
  <sodipodi:namedview
     id="namedview1"
     pagecolor="#ffffff"
     bordercolor="#000000"
     borderopacity="0.25"
     inkscape:showpageshadow="2"
     inkscape:pageopacity="0.0"
     inkscape:pagecheckerboard="0"
     inkscape:deskcolor="#d1d1d1"
     inkscape:document-units="px"
     inkscape:zoom="3.1054688"
     inkscape:cx="128"
     inkscape:cy="128"
     inkscape:window-width="1920"
     inkscape:window-height="1010"
     inkscape:window-x="0"
     inkscape:window-y="0"
     inkscape:window-maximized="1"
     inkscape:current-layer="svg1"
     showguides="false" />
  <defs
     id="defs1">
    <linearGradient
       inkscape:collect="always"
       xlink:href="#linearGradient1625"
       id="linearGradient4"
       x1="16"
       y1="30"
       x2="16"
       y2="2"
       gradientUnits="userSpaceOnUse"
       gradientTransform="scale(8)" />
    <linearGradient
       inkscape:collect="always"
       id="linearGradient1625">
      <stop
         style="stop-color:#13a5c5;stop-opacity:1;"
         offset="0"
         id="stop1621" />
      <stop
         style="stop-color:#b1f6cb;stop-opacity:1;"
         offset="1"
         id="stop1623" />
    </linearGradient>
  </defs>
  <rect
     style="opacity:0.2;fill:#000000;stroke-width:14"
     id="rect1"
     width="224"
     height="224"
     x="16"
     y="17"
     ry="48" />
  <rect
     style="fill:url(#linearGradient4);stroke-width:8"
     id="rect2"
     width="224"
     height="224"
     x="16"
     y="16"
     ry="48" />
  <path
     id="path345"
     style="fill:#ffffff;stroke-width:16;stroke-linecap:round;stroke-linejoin:round"
     d="m 128,48 a 80,80 0 0 0 -80,80 80,80 0 0 0 80,80 80,80 0 0 0 80,-80 80,80 0 0 0 -80,-80 z M 96.437504,63.28125 116.29687,89.765624 c -6.06822,1.850344 -11.77912,5.154128 -16.578118,9.953128 -4.799,4.798998 -8.102784,10.509898 -9.953128,16.578118 L 63.28125,96.437504 c 3.408144,-6.98736 8.007098,-13.538352 13.8125,-19.343754 5.805402,-5.805402 12.356394,-10.404356 19.343754,-13.8125 z m 63.124996,0 c 6.98736,3.408144 13.53835,8.007098 19.34375,13.8125 5.80541,5.805402 10.40436,12.356394 13.8125,19.343754 l -26.48437,19.859366 c -1.85035,-6.06822 -5.15413,-11.77912 -9.95313,-16.578118 -4.799,-4.799 -10.5099,-8.102784 -16.57812,-9.953128 z M 128,96 c 17.67308,0 32,14.32692 32,32 0,17.67308 -14.32692,32 -32,32 -17.67308,0 -32,-14.32692 -32,-32 0,-17.67308 14.32692,-32 32,-32 z m -38.234376,43.70313 c 1.850344,6.06822 5.154128,11.77912 9.953128,16.57812 4.798998,4.799 10.509898,8.10278 16.578118,9.95313 L 96.437504,192.71875 C 89.450144,189.3106 82.899152,184.71166 77.09375,178.90625 71.288348,173.10085 66.6894,166.54986 63.28125,159.5625 Z m 76.468756,0 26.48437,19.85937 c -3.40815,6.98736 -8.00709,13.53835 -13.8125,19.34375 -5.8054,5.80541 -12.35639,10.40435 -19.34375,13.8125 l -19.85937,-26.48437 c 6.06822,-1.85035 11.77912,-5.15413 16.57812,-9.95313 4.799,-4.799 8.10278,-10.5099 9.95313,-16.57812 z" />
</svg>
