<?xml version="1.0" encoding="UTF-8" standalone="no"?>
<!-- Created with Inkscape (http://www.inkscape.org/) -->

<svg
   width="256"
   height="256"
   viewBox="0 0 256 256.00002"
   version="1.1"
   id="svg1"
   inkscape:version="1.4.2 (ebf0e940d0, 2025-05-08)"
   sodipodi:docname="telegram.svg"
   xmlns:inkscape="http://www.inkscape.org/namespaces/inkscape"
   xmlns:sodipodi="http://sodipodi.sourceforge.net/DTD/sodipodi-0.dtd"
   xmlns:xlink="http://www.w3.org/1999/xlink"
   xmlns="http://www.w3.org/2000/svg"
   xmlns:svg="http://www.w3.org/2000/svg">
  <sodipodi:namedview
     id="namedview1"
     pagecolor="#ffffff"
     bordercolor="#000000"
     borderopacity="0.25"
     inkscape:showpageshadow="2"
     inkscape:pageopacity="0.0"
     inkscape:pagecheckerboard="0"
     inkscape:deskcolor="#d1d1d1"
     inkscape:document-units="px"
     inkscape:zoom="3.015625"
     inkscape:cx="127.8342"
     inkscape:cy="128"
     inkscape:window-width="1920"
     inkscape:window-height="997"
     inkscape:window-x="0"
     inkscape:window-y="0"
     inkscape:window-maximized="1"
     inkscape:current-layer="svg1" />
  <defs
     id="defs1">
    <linearGradient
       inkscape:collect="always"
       xlink:href="#linearGradient1595"
       id="linearGradient4"
       x1="16"
       y1="30"
       x2="16"
       y2="2"
       gradientUnits="userSpaceOnUse"
       gradientTransform="scale(8)" />
    <linearGradient
       inkscape:collect="always"
       id="linearGradient1595">
      <stop
         style="stop-color:#1d9ad8;stop-opacity:1"
         offset="0"
         id="stop1591" />
      <stop
         style="stop-color:#3cacde;stop-opacity:1"
         offset="1"
         id="stop1593" />
    </linearGradient>
  </defs>
  <rect
     style="opacity:0.2;fill:#000000;stroke-width:14"
     id="rect1"
     width="224"
     height="224"
     x="16"
     y="17"
     ry="48" />
  <rect
     style="fill:url(#linearGradient4);stroke-width:8"
     id="rect2"
     width="224"
     height="224"
     x="16"
     y="16"
     ry="48" />
  <path
     id="path10"
     style="fill:#ffffff;stroke-width:8.5208"
     d="m 192.05432,69.33854 c -3.17806,0.09128 -6.93836,1.366672 -10.58805,2.594816 C 157.5881,79.997252 82.087912,112.679 61.424272,123.46172 c -5.086536,2.10853 -7.275048,5.69472 -3.573464,8.78896 3.186688,2.62284 14.848504,6.23483 24.25324,8.06909 8.017256,2.42568 14.233496,0.10112 19.984922,-3.14729 13.81531,-8.1856 54.98122,-34.23438 57.19204,-35.6915 2.21923,-1.44855 4.64469,1.24175 3.408,2.5446 -1.23667,1.31141 -30.38175,27.4542 -39.95334,39.27406 -5.07378,6.49705 -4.92808,9.96522 0.28176,14.06232 11.68921,9.16275 42.91327,30.0622 47.56353,31.32218 5.92083,1.61136 9.39622,0.2724 11.895,-4.57026 2.27812,-4.43136 15.39926,-80.10676 17.27122,-99.675092 1.27068,-12.115024 -2.39592,-15.252344 -7.69282,-15.100248 z" />
</svg>
