<?xml version="1.0" encoding="UTF-8" standalone="no"?>
<!-- Created with Inkscape (http://www.inkscape.org/) -->

<svg
   width="256"
   height="256"
   viewBox="0 0 256 256.00002"
   version="1.1"
   id="svg1"
   inkscape:version="1.4.2 (ebf0e940d0, 2025-05-08)"
   sodipodi:docname="thermal-monitor.svg"
   xmlns:inkscape="http://www.inkscape.org/namespaces/inkscape"
   xmlns:sodipodi="http://sodipodi.sourceforge.net/DTD/sodipodi-0.dtd"
   xmlns:xlink="http://www.w3.org/1999/xlink"
   xmlns="http://www.w3.org/2000/svg"
   xmlns:svg="http://www.w3.org/2000/svg">
  <sodipodi:namedview
     id="namedview1"
     pagecolor="#ffffff"
     bordercolor="#000000"
     borderopacity="0.25"
     inkscape:showpageshadow="2"
     inkscape:pageopacity="0.0"
     inkscape:pagecheckerboard="0"
     inkscape:deskcolor="#d1d1d1"
     inkscape:document-units="px"
     inkscape:zoom="3.1054688"
     inkscape:cx="128"
     inkscape:cy="128"
     inkscape:window-width="1920"
     inkscape:window-height="1010"
     inkscape:window-x="0"
     inkscape:window-y="0"
     inkscape:window-maximized="1"
     inkscape:current-layer="svg1" />
  <defs
     id="defs1">
    <linearGradient
       inkscape:collect="always"
       xlink:href="#linearGradient1144"
       id="linearGradient4"
       x1="16"
       y1="30"
       x2="16"
       y2="2"
       gradientUnits="userSpaceOnUse"
       gradientTransform="scale(8)" />
    <linearGradient
       inkscape:collect="always"
       id="linearGradient1144">
      <stop
         style="stop-color:#adb2b9;stop-opacity:1;"
         offset="0"
         id="stop1140" />
      <stop
         style="stop-color:#e0e2e4;stop-opacity:1;"
         offset="1"
         id="stop1142" />
    </linearGradient>
  </defs>
  <rect
     style="opacity:0.2;fill:#000000;stroke-width:14"
     id="rect1"
     width="224"
     height="224"
     x="16"
     y="17"
     ry="48" />
  <rect
     style="fill:url(#linearGradient4);stroke-width:8"
     id="rect2"
     width="224"
     height="224"
     x="16"
     y="16"
     ry="48" />
  <path
     id="path18"
     style="fill:#666666;fill-opacity:1;stroke-width:4"
     d="m 128,48 c -11.07998,0 -20,8.920024 -20,20 v 65.42188 C 95.643408,140.55593 88.022444,153.73187 88,168 c 0,22.09136 17.90864,40 40,40 22.09136,0 40,-17.90864 40,-40 -0.014,-14.27651 -7.63617,-27.46331 -20,-34.60156 V 68 c 0,-11.079976 -8.92002,-20 -20,-20 z m 0,12 c 4.63956,0 8,3.36044 8,8 v 72.32812 l 6,3.46094 c 8.669,5.00504 13.98736,14.20909 14,24.21875 C 155.99575,183.61011 143.6034,196 128,196 c -15.60073,0 -27.99151,-12.38585 -28,-27.98438 v -0.008 c 0.0184,-10.00374 5.33612,-19.19323 14,-24.19531 l 6,-3.46075 V 68 c 0,-4.63956 3.36044,-8 8,-8 z" />
  <path
     id="path20"
     style="fill:#f75f5f;stroke-width:4"
     d="m 120,104 v 36.35156 l -6,3.46094 c -8.66389,5.00208 -13.9816,14.19156 -14,24.19531 v 0.008 C 100.00849,183.61398 112.39926,196 128,196 c 15.60342,0 27.99575,-12.38987 28,-27.99219 -0.0128,-10.00967 -5.33099,-19.2137 -14,-24.21875 l -6,-3.46094 V 104 Z" />
</svg>
