<?xml version="1.0" encoding="UTF-8" standalone="no"?>
<!-- Created with Inkscape (http://www.inkscape.org/) -->

<svg
   width="256"
   height="256"
   viewBox="0 0 256 256.00002"
   version="1.1"
   id="svg1"
   inkscape:version="1.4.2 (ebf0e940d0, 2025-05-08)"
   sodipodi:docname="usb-creator.svg"
   xmlns:inkscape="http://www.inkscape.org/namespaces/inkscape"
   xmlns:sodipodi="http://sodipodi.sourceforge.net/DTD/sodipodi-0.dtd"
   xmlns:xlink="http://www.w3.org/1999/xlink"
   xmlns="http://www.w3.org/2000/svg"
   xmlns:svg="http://www.w3.org/2000/svg">
  <sodipodi:namedview
     id="namedview1"
     pagecolor="#ffffff"
     bordercolor="#000000"
     borderopacity="0.25"
     inkscape:showpageshadow="2"
     inkscape:pageopacity="0.0"
     inkscape:pagecheckerboard="0"
     inkscape:deskcolor="#d1d1d1"
     inkscape:document-units="px"
     inkscape:zoom="3.1054688"
     inkscape:cx="128"
     inkscape:cy="128"
     inkscape:window-width="1920"
     inkscape:window-height="1010"
     inkscape:window-x="0"
     inkscape:window-y="0"
     inkscape:window-maximized="1"
     inkscape:current-layer="svg1" />
  <defs
     id="defs1">
    <linearGradient
       inkscape:collect="always"
       xlink:href="#linearGradient918"
       id="linearGradient4"
       x1="16"
       y1="30"
       x2="16"
       y2="2"
       gradientUnits="userSpaceOnUse"
       gradientTransform="scale(8)" />
    <linearGradient
       inkscape:collect="always"
       id="linearGradient918">
      <stop
         style="stop-color:#828282;stop-opacity:1;"
         offset="0"
         id="stop914" />
      <stop
         style="stop-color:#c3c3c3;stop-opacity:1;"
         offset="1"
         id="stop916" />
    </linearGradient>
  </defs>
  <rect
     style="opacity:0.2;fill:#000000;stroke-width:14"
     id="rect1"
     width="224"
     height="224"
     x="16"
     y="17"
     ry="48" />
  <rect
     style="fill:url(#linearGradient4);stroke-width:8"
     id="rect2"
     width="224"
     height="224"
     x="16"
     y="16"
     ry="48" />
  <path
     d="m 128.4375,207.9998 c 8.83656,0 16,-7.16344 16,-16 0,-7.45276 -5.10276,-13.59632 -12,-15.375 v -4.625 -12.0002 l 26.5002,-26.1252 0.1248,-0.1248 v -0.1248 c 0.77004,-0.56824 1.38152,-1.66804 1.375,-2.625 v -11 -4 h 1.5 6.5 v -24 h -24 v 24 h 4.75 3.25 v 3.25 l -0.3748,7.625 v 1.5 l -1.125,1 -12.3752,13.3752 -6.125,5.5 v -7 -57.9998 -3.25 h 12 l -16,-32 -16,32 h 8.75 3.25 v 3.25 44.75 23.125 2 l -20,-11.5 v -13.62448 l 1.375,-0.625 c 4.61048,-2.02904 7.875,-6.51516 7.875,-11.875 0,-7.25216 -5.8728,-13.125 -13.125,-13.125 -7.25216,0 -13,5.87284 -13,13.125 0,5.35984 3.26488,9.84632 7.875,11.875 l 1,0.4996 v 16.12448 c -0.012,1.4082 0.78044,2.79588 2,3.5 l 26,14.875 v 1.375 8.25 4.625 c -6.89724,1.77868 -12,7.92224 -12,15.375 0,8.83656 7.16344,16 16,16 z"
     style="color:#bebebe;display:inline;overflow:visible;visibility:visible;fill:#ffffff;fill-opacity:1;fill-rule:nonzero;stroke:none;stroke-width:4;marker:none;enable-background:accumulate"
     id="path1056"
     sodipodi:nodetypes="sscccccccccccccccccccccccccccccccccccccsssccccccccss" />
</svg>
