<?xml version="1.0" encoding="UTF-8" standalone="no"?>
<!-- Created with Inkscape (http://www.inkscape.org/) -->

<svg
   width="256"
   height="256"
   viewBox="0 0 256 256.00002"
   version="1.1"
   id="svg1"
   inkscape:version="1.4 (e7c3feb100, 2024-10-09)"
   sodipodi:docname="visual-studio-code.svg"
   xmlns:inkscape="http://www.inkscape.org/namespaces/inkscape"
   xmlns:sodipodi="http://sodipodi.sourceforge.net/DTD/sodipodi-0.dtd"
   xmlns:xlink="http://www.w3.org/1999/xlink"
   xmlns="http://www.w3.org/2000/svg"
   xmlns:svg="http://www.w3.org/2000/svg">
  <sodipodi:namedview
     id="namedview1"
     pagecolor="#ffffff"
     bordercolor="#000000"
     borderopacity="0.25"
     inkscape:showpageshadow="2"
     inkscape:pageopacity="0.0"
     inkscape:pagecheckerboard="0"
     inkscape:deskcolor="#d1d1d1"
     inkscape:document-units="px"
     inkscape:zoom="3.15625"
     inkscape:cx="128.15842"
     inkscape:cy="128"
     inkscape:window-width="1920"
     inkscape:window-height="1011"
     inkscape:window-x="0"
     inkscape:window-y="0"
     inkscape:window-maximized="1"
     inkscape:current-layer="svg1" />
  <defs
     id="defs1">
    <linearGradient
       inkscape:collect="always"
       id="linearGradient1606">
      <stop
         style="stop-color:#eaebed;stop-opacity:1;"
         offset="0"
         id="stop1602" />
      <stop
         style="stop-color:#f9fafa;stop-opacity:1;"
         offset="1"
         id="stop1604" />
    </linearGradient>
    <linearGradient
       inkscape:collect="always"
       xlink:href="#linearGradient1606"
       id="linearGradient4"
       x1="16"
       y1="30"
       x2="16"
       y2="2"
       gradientUnits="userSpaceOnUse"
       gradientTransform="scale(8)" />
    <linearGradient
       inkscape:collect="always"
       xlink:href="#linearGradient2463"
       id="linearGradient2465"
       x1="25.999876"
       y1="6.0003786"
       x2="26"
       y2="25.999962"
       gradientUnits="userSpaceOnUse"
       gradientTransform="matrix(8,0,0,8,0.0027504,0)" />
    <linearGradient
       inkscape:collect="always"
       id="linearGradient2463">
      <stop
         style="stop-color:#ffffff;stop-opacity:1;"
         offset="0"
         id="stop2459" />
      <stop
         style="stop-color:#ffffff;stop-opacity:0;"
         offset="1"
         id="stop2461" />
    </linearGradient>
  </defs>
  <rect
     style="opacity:0.2;fill:#000000;stroke-width:14"
     id="rect1"
     width="224"
     height="224"
     x="16"
     y="17"
     ry="48" />
  <rect
     style="fill:url(#linearGradient4);stroke-width:8"
     id="rect2"
     width="224"
     height="224"
     x="16"
     y="16"
     ry="48" />
  <path
     d="M 202.34332,64.950424 169.39666,48.995096 c -3.81332,-1.846832 -8.37113,-1.067792 -11.3643,1.942476 L 50.176348,148.64803 c -2.901068,2.66051 -2.897712,7.25428 0.0076,9.91045 l 8.810032,8.05527 c 2.374912,2.17187 5.951532,2.33152 8.508532,0.38072 L 197.38578,69.089576 c 4.3573,-3.324752 10.61598,-0.19872 10.61598,5.302224 V 74.007 c 0,-3.861464 -2.19942,-7.381544 -5.65844,-9.056656 z"
     style="fill:#0072b0;stroke-width:8.00008"
     id="path3815" />
  <path
     d="m 202.34332,191.0527 -32.94666,15.9554 c -3.81332,1.84614 -8.37113,1.06734 -11.3643,-1.94246 L 50.176344,103.75459 c -2.901056,-2.66039 -2.897716,-7.254262 0.0076,-9.910382 l 8.8098,-8.055584 c 2.37492,-2.17152 5.951536,-2.331384 8.508536,-0.3804 L 197.38595,186.91324 c 4.35729,3.32463 10.61597,0.19872 10.61597,-5.3023 v 0.38528 c 0,3.86116 -2.1994,7.3812 -5.65842,9.05672 z"
     style="fill:#008eda;stroke-width:8.00008"
     id="path3843" />
  <path
     d="m 169.3989,207.00908 c -3.81456,1.84506 -8.37236,1.06562 -11.36556,-1.94504 3.68776,3.70908 9.99389,1.0818 9.99389,-4.16396 V 55.09958 c 0,-5.245792 -6.30613,-7.87294 -9.99389,-4.163592 2.99318,-3.01052 7.551,-3.790672 11.36556,-1.945468 l 32.94108,15.933408 c 3.46162,1.674224 5.66278,5.195592 5.66278,9.058744 V 182.01776 c 0,3.86305 -2.20122,7.38432 -5.66278,9.05856 z"
     style="fill:#1eacf8;stroke-width:8.00008"
     id="path3871" />
  <path
     d="m 164.91176,48.004868 c -1.01186,0.0172 -2.00822,0.19508 -2.96875,0.515624 -0.96053,0.32056 -1.88168,0.778936 -2.71875,1.390624 -0.16504,0.1206 -0.31016,0.2746 -0.46872,0.406248 -0.24352,0.20212 -0.49216,0.39712 -0.71872,0.625 L 95.677384,107.42674 67.505512,85.41112 C 64.94852,83.460136 61.3648,83.6146 58.989888,85.78608 l -8.812504,8.062496 c -2.905288,2.65612 -2.901056,7.245864 0,9.906244 l 24.328128,22.85938 -24.328128,22.03125 c -2.901072,2.66052 -2.905288,7.26571 0,9.92187 l 8.812504,8.04688 c 2.374904,2.17186 5.958632,2.34143 8.515624,0.39064 l 27.75,-20.92188 62.781248,58.98438 c 0.74832,0.75248 1.59221,1.3607 2.5,1.82812 2.72344,1.40286 5.99846,1.49318 8.85938,0.1094 l 32.9375,-15.92188 c 0.87568,-0.42352 1.66024,-0.97379 2.35936,-1.60936 0.34344,-0.3104 0.65736,-0.63168 0.95314,-0.98438 v -0.016 c 0.29512,-0.35272 0.58432,-0.72024 0.82812,-1.10938 v -0.016 c 0.49328,-0.79152 0.8657,-1.64108 1.125,-2.54688 0.1272,-0.43984 0.23008,-0.88524 0.29688,-1.34374 0.001,-0.0104 -0.001,-0.0208 0,-0.0312 0.0664,-0.46392 0.1086,-0.92899 0.1094,-1.40625 v -0.016 -0.39064 V 74.3944 74.00376 c 0,-0.0052 0,-0.0104 0,-0.016 0,-0.47248 -0.0456,-0.946768 -0.1094,-1.406248 -0.001,-0.0104 0.001,-0.0208 0,-0.0312 -0.0656,-0.458 -0.1708,-0.902176 -0.29688,-1.342656 -0.51528,-1.799992 -1.5252,-3.41628 -2.90626,-4.671832 -0.6992,-0.6356 -1.4836,-1.185816 -2.35936,-1.609376 L 169.39614,48.98924 c -0.4768,-0.23064 -0.9576,-0.41312 -1.45313,-0.562504 -0.99108,-0.29876 -2.01939,-0.438944 -3.03125,-0.421868 z m 3.10938,43.218748 v 72.750004 l -47.375,-37.03126 z"
     style="opacity:0.25;fill:url(#linearGradient2465);fill-opacity:1;stroke-width:8.00008"
     id="path1332" />
</svg>
