<?xml version="1.0" encoding="UTF-8" standalone="no"?>
<!-- Created with Inkscape (http://www.inkscape.org/) -->

<svg
   width="256"
   height="256"
   viewBox="0 0 256 256.00002"
   version="1.1"
   id="svg1"
   inkscape:version="1.4 (e7c3feb100, 2024-10-09)"
   sodipodi:docname="xorg.svg"
   xmlns:inkscape="http://www.inkscape.org/namespaces/inkscape"
   xmlns:sodipodi="http://sodipodi.sourceforge.net/DTD/sodipodi-0.dtd"
   xmlns:xlink="http://www.w3.org/1999/xlink"
   xmlns="http://www.w3.org/2000/svg"
   xmlns:svg="http://www.w3.org/2000/svg">
  <sodipodi:namedview
     id="namedview1"
     pagecolor="#ffffff"
     bordercolor="#000000"
     borderopacity="0.25"
     inkscape:showpageshadow="2"
     inkscape:pageopacity="0.0"
     inkscape:pagecheckerboard="0"
     inkscape:deskcolor="#d1d1d1"
     inkscape:document-units="px"
     inkscape:zoom="3.0703125"
     inkscape:cx="128.48855"
     inkscape:cy="128"
     inkscape:window-width="1920"
     inkscape:window-height="1011"
     inkscape:window-x="0"
     inkscape:window-y="0"
     inkscape:window-maximized="1"
     inkscape:current-layer="svg1" />
  <defs
     id="defs1">
    <linearGradient
       inkscape:collect="always"
       xlink:href="#linearGradient1144"
       id="linearGradient4"
       x1="16"
       y1="30"
       x2="16"
       y2="2"
       gradientUnits="userSpaceOnUse"
       gradientTransform="scale(7.9999998)" />
    <linearGradient
       inkscape:collect="always"
       xlink:href="#linearGradient3678"
       id="linearGradient3680"
       x1="11.2"
       y1="21.507999"
       x2="52.799999"
       y2="48.809299"
       gradientUnits="userSpaceOnUse"
       gradientTransform="matrix(4.230769,0,0,4.230769,-7.384616,-10.995385)" />
    <linearGradient
       inkscape:collect="always"
       id="linearGradient3678">
      <stop
         style="stop-color:#ec6e28;stop-opacity:1;"
         offset="0"
         id="stop3674" />
      <stop
         style="stop-color:#f3bf21;stop-opacity:1;"
         offset="1"
         id="stop3676" />
    </linearGradient>
    <linearGradient
       inkscape:collect="always"
       id="linearGradient1144">
      <stop
         style="stop-color:#adb2b9;stop-opacity:1;"
         offset="0"
         id="stop1140" />
      <stop
         style="stop-color:#e0e2e4;stop-opacity:1;"
         offset="1"
         id="stop1142" />
    </linearGradient>
  </defs>
  <rect
     style="opacity:0.2;fill:#000000;stroke-width:14"
     id="rect1"
     width="224"
     height="224"
     x="16"
     y="17"
     ry="48" />
  <rect
     style="fill:url(#linearGradient4);stroke-width:8"
     id="rect2"
     width="224"
     height="224"
     x="16"
     y="16"
     ry="48" />
  <path
     id="rect2346"
     style="fill:#373a3d;fill-opacity:1;stroke-width:13.0639"
     d="M 56,56 112,133.54687 64,200 h 8 L 116,139.07813 136,111.39062 96,56 Z M 184,56 120,144.60938 160,200 h 40 L 144,122.45313 192,56 Z" />
  <path
     id="path3649"
     style="fill:url(#linearGradient3680);fill-opacity:1;stroke-width:4.23074"
     d="m 128,80 c -4.29549,0 -8.88514,0.32824 -13.01562,0.71872 7.35899,9.481992 13.45538,17.516136 20.48437,26.64062 -3.9435,-8.387476 -12.0495,-16.442124 -9.25,-20.578124 2.77749,-4.091992 7.89075,-3.406248 8.28125,-3.406248 8.19499,0 16.09326,0.92088 23.46875,2.609376 l 1.71875,-2.343752 C 149.84802,81.138152 139.176,80 128,80 Z m 44.39062,7.656248 -1.59375,2.25 c 22.72599,8.794496 38.09375,25.573522 38.09375,44.812502 0,28.34147 -33.32766,51.34375 -74.39062,51.34375 -41.06296,0 -74.40625,-22.98666 -74.40625,-51.32812 0,-14.25453 8.453042,-27.16108 22.062498,-36.468756 L 77.281248,90.375 C 54.7368,100.8569 40,118.11573 40,137.64062 40,169.59009 79.424048,195.5 128,195.5 c 48.57046,0 88,-25.9154 88,-57.85938 0,-21.30697 -17.5229,-39.935884 -43.60938,-49.984372 z" />
</svg>
