<?xml version="1.0" encoding="UTF-8" standalone="no"?>
<!-- Created with Inkscape (http://www.inkscape.org/) -->

<svg
   width="256"
   height="256"
   viewBox="0 0 256 256.00002"
   version="1.1"
   id="svg1"
   inkscape:version="1.4.2 (ebf0e940d0, 2025-05-08)"
   sodipodi:docname="yast-control-center.svg"
   xmlns:inkscape="http://www.inkscape.org/namespaces/inkscape"
   xmlns:sodipodi="http://sodipodi.sourceforge.net/DTD/sodipodi-0.dtd"
   xmlns:xlink="http://www.w3.org/1999/xlink"
   xmlns="http://www.w3.org/2000/svg"
   xmlns:svg="http://www.w3.org/2000/svg">
  <sodipodi:namedview
     id="namedview1"
     pagecolor="#ffffff"
     bordercolor="#000000"
     borderopacity="0.25"
     inkscape:showpageshadow="2"
     inkscape:pageopacity="0.0"
     inkscape:pagecheckerboard="0"
     inkscape:deskcolor="#d1d1d1"
     inkscape:document-units="px"
     inkscape:zoom="3.0703125"
     inkscape:cx="127.83715"
     inkscape:cy="128"
     inkscape:window-width="1920"
     inkscape:window-height="1011"
     inkscape:window-x="0"
     inkscape:window-y="0"
     inkscape:window-maximized="1"
     inkscape:current-layer="svg1" />
  <defs
     id="defs1">
    <linearGradient
       inkscape:collect="always"
       id="linearGradient1606">
      <stop
         style="stop-color:#eaebed;stop-opacity:1;"
         offset="0"
         id="stop1602" />
      <stop
         style="stop-color:#f9fafa;stop-opacity:1;"
         offset="1"
         id="stop1604" />
    </linearGradient>
    <linearGradient
       inkscape:collect="always"
       xlink:href="#linearGradient1606"
       id="linearGradient4"
       x1="16"
       y1="30"
       x2="16"
       y2="2"
       gradientUnits="userSpaceOnUse"
       gradientTransform="scale(8)" />
    <linearGradient
       inkscape:collect="always"
       xlink:href="#linearGradient920"
       id="linearGradient4-4"
       x1="8"
       y1="14.0625"
       x2="8"
       y2="0"
       gradientUnits="userSpaceOnUse"
       gradientTransform="matrix(14.4,0,0,16,12.8,16)" />
    <linearGradient
       inkscape:collect="always"
       id="linearGradient920">
      <stop
         style="stop-color:#82bf39;stop-opacity:1;"
         offset="0"
         id="stop916" />
      <stop
         style="stop-color:#bada82;stop-opacity:1;"
         offset="1"
         id="stop918" />
    </linearGradient>
  </defs>
  <rect
     style="opacity:0.2;fill:#000000;stroke-width:14"
     id="rect1"
     width="224"
     height="224"
     x="16"
     y="17"
     ry="48" />
  <rect
     style="fill:url(#linearGradient4);stroke-width:8"
     id="rect2"
     width="224"
     height="224"
     x="16"
     y="16"
     ry="48" />
  <rect
     style="fill:url(#linearGradient4-4);stroke-width:15.179"
     id="rect3"
     width="144"
     height="16"
     x="56"
     y="80"
     ry="8" />
  <rect
     style="opacity:0.4;fill:#000000;stroke-width:15.179"
     id="rect4"
     width="144"
     height="16"
     x="56"
     y="160"
     ry="8" />
  <path
     id="path1"
     style="opacity:0.2;fill:#000000;stroke-width:8.66664"
     d="m 176,62 c -14.3594,0 -26,11.6406 -26,26 0,14.3594 11.6406,26 26,26 14.3594,0 26,-11.6406 26,-26 0,-14.3594 -11.6406,-26 -26,-26 z m -96,80 c -14.359404,0 -26,11.6406 -26,26 0,14.3594 11.640596,26 26,26 14.359404,0 26,-11.6406 26,-26 0,-14.3594 -11.640596,-26 -26,-26 z" />
  <path
     id="path2"
     style="fill:#f9f9f9;fill-opacity:1;stroke-width:48;stroke-linecap:round;stroke-linejoin:round"
     d="m 176,64 c -13.25484,0 -24,10.745172 -24,24 0,13.25484 10.74516,24 24,24 13.25482,0 24,-10.74516 24,-24 0,-13.254828 -10.74518,-24 -24,-24 z m -96,80 c -13.25484,0 -24,10.74517 -24,24 0,13.25484 10.74516,24 24,24 13.254824,0 24,-10.74516 24,-24 0,-13.25483 -10.745176,-24 -24,-24 z" />
</svg>
