<?xml version="1.0" encoding="UTF-8" standalone="no"?>
<!-- Created with Inkscape (http://www.inkscape.org/) -->

<svg
   width="256"
   height="256"
   viewBox="0 0 256 256.00002"
   version="1.1"
   id="svg1"
   inkscape:version="1.4 (e7c3feb100, 2024-10-09)"
   sodipodi:docname="youtube-music.svg"
   xmlns:inkscape="http://www.inkscape.org/namespaces/inkscape"
   xmlns:sodipodi="http://sodipodi.sourceforge.net/DTD/sodipodi-0.dtd"
   xmlns="http://www.w3.org/2000/svg"
   xmlns:svg="http://www.w3.org/2000/svg">
  <sodipodi:namedview
     id="namedview1"
     pagecolor="#ffffff"
     bordercolor="#000000"
     borderopacity="0.25"
     inkscape:showpageshadow="2"
     inkscape:pageopacity="0.0"
     inkscape:pagecheckerboard="0"
     inkscape:deskcolor="#d1d1d1"
     inkscape:document-units="px"
     inkscape:zoom="3.15625"
     inkscape:cx="127.84158"
     inkscape:cy="128"
     inkscape:window-width="1920"
     inkscape:window-height="1011"
     inkscape:window-x="0"
     inkscape:window-y="0"
     inkscape:window-maximized="1"
     inkscape:current-layer="svg1" />
  <defs
     id="defs1" />
  <rect
     style="opacity:0.2;fill:#000000;stroke-width:14"
     id="rect1"
     width="224"
     height="224"
     x="16"
     y="17"
     ry="48" />
  <rect
     style="fill:#fafafa;fill-opacity:1;stroke-width:8"
     id="rect2"
     width="224"
     height="224"
     x="16"
     y="16"
     ry="48" />
  <circle
     style="fill:#ff0000;fill-opacity:1;stroke-width:10;stroke-linecap:round"
     id="path233"
     cx="128"
     cy="128"
     r="80" />
  <path
     d="M 112,103.99999 152,127.99983 112,152 Z"
     style="fill:#ffffff;stroke-width:1.18914"
     id="path301" />
  <path
     id="path288"
     style="fill:#ffffff;stroke-width:9.33336;stroke-linecap:round"
     d="m 128,72 a 56,56 0 0 0 -56,56 56,56 0 0 0 56,56 56,56 0 0 0 56,-56 56,56 0 0 0 -56,-56 z m 0,8 a 48,48 0 0 1 48,48 48,48 0 0 1 -48,48 48,48 0 0 1 -48,-48 48,48 0 0 1 48,-48 z" />
</svg>
