<?xml version="1.0" encoding="UTF-8" standalone="no"?>
<!-- Created with Inkscape (http://www.inkscape.org/) -->

<svg
   width="64"
   height="64"
   viewBox="0 0 64 64.000004"
   version="1.1"
   id="svg1"
   inkscape:version="1.4 (e7c3feb100, 2024-10-09)"
   sodipodi:docname="accessories-dictionary.svg"
   xmlns:inkscape="http://www.inkscape.org/namespaces/inkscape"
   xmlns:sodipodi="http://sodipodi.sourceforge.net/DTD/sodipodi-0.dtd"
   xmlns:xlink="http://www.w3.org/1999/xlink"
   xmlns="http://www.w3.org/2000/svg"
   xmlns:svg="http://www.w3.org/2000/svg">
  <sodipodi:namedview
     id="namedview1"
     pagecolor="#ffffff"
     bordercolor="#000000"
     borderopacity="0.25"
     inkscape:showpageshadow="2"
     inkscape:pageopacity="0.0"
     inkscape:pagecheckerboard="0"
     inkscape:deskcolor="#d1d1d1"
     inkscape:document-units="px"
     inkscape:zoom="12.625"
     inkscape:cx="31.960396"
     inkscape:cy="32"
     inkscape:window-width="1920"
     inkscape:window-height="1011"
     inkscape:window-x="0"
     inkscape:window-y="0"
     inkscape:window-maximized="1"
     inkscape:current-layer="svg1" />
  <defs
     id="defs1">
    <linearGradient
       inkscape:collect="always"
       xlink:href="#linearGradient1242"
       id="linearGradient4"
       x1="16"
       y1="30"
       x2="16"
       y2="2"
       gradientUnits="userSpaceOnUse"
       gradientTransform="scale(2)" />
    <linearGradient
       inkscape:collect="always"
       id="linearGradient1242">
      <stop
         style="stop-color:#b35c35;stop-opacity:1;"
         offset="0"
         id="stop1238" />
      <stop
         style="stop-color:#d3a482;stop-opacity:1;"
         offset="1"
         id="stop1240" />
    </linearGradient>
  </defs>
  <rect
     style="opacity:0.2;fill:#000000;stroke-width:3.5"
     id="rect1"
     width="56"
     height="56"
     x="4"
     y="5"
     ry="12" />
  <rect
     style="fill:url(#linearGradient4);stroke-width:2"
     id="rect2"
     width="56"
     height="56"
     x="4"
     y="4"
     ry="12" />
  <path
     d="M 28.433594,22 22.109376,40.816406 20,41.214844 V 42 h 6 V 41.214844 L 24.214844,40.816406 25.683594,36 h 7.113282 L 34.640624,40.816406 32,41.214844 V 42 h 8 V 41.214844 L 37.644532,40.816406 31.0625,22 Z m 0.648438,3.527344 3.285156,8.5 H 26.503906 Z M 45.828124,28 C 44.611812,28 43.101978,28.167 41.5,28.5 v 3 h 0.933594 L 42.9375,29.753906 c 0.820764,-0.447156 1.82753,-0.667968 2.816406,-0.667968 0.731768,0 1.267174,0.2186 1.613282,0.65625 0.355992,0.43764 0.589844,1.116196 0.589844,2.039062 v 2.191406 l -2.546876,0.05468 c -1.50309,0.02854 -2.349522,0.229004 -3.140624,0.542968 -0.791098,0.304472 -1.372396,0.749982 -1.738282,1.339844 C 40.175256,36.490534 40,37.230682 40,38.125002 c 0,2.66395 1.19103,3.875 3.574218,3.875 1.750308,0 3.341434,-0.540406 4.46875,-1.625 l 0.23047,1.625 H 52 v -0.64844 L 51,40.992188 V 31.652344 C 50.991514,30.415538 50.600784,29.497822 49.878906,28.898438 49.166918,28.29905 47.350998,28 45.828124,28 Z M 48,35.019532 v 4.625 c -0.494438,0.22834 -0.888374,0.421996 -1.382812,0.574218 -0.48455,0.14266 -0.765064,0.210938 -1.4375,0.210938 -1.41409,0 -2.121094,-0.696624 -2.121094,-2.371094 0,-1.046556 0.234448,-1.795028 0.699218,-2.242188 0.47466,-0.447132 1.073344,-0.690682 2.398438,-0.738282 z"
     style="fill:#ffffff;stroke-width:1"
     id="path619" />
  <path
     id="rect3"
     style="opacity:0.5;fill:#000000;stroke-width:2"
     d="M 16,4 C 9.352,4 4,9.352 4,16 v 32 c 0,6.648 5.352,12 12,12 z" />
</svg>
