<?xml version="1.0" encoding="UTF-8" standalone="no"?>
<!-- Created with Inkscape (http://www.inkscape.org/) -->

<svg
   width="64"
   height="64"
   viewBox="0 0 64 64.000004"
   version="1.1"
   id="svg1"
   inkscape:version="1.4.2 (ebf0e940d0, 2025-05-08)"
   sodipodi:docname="accessories-camera.svg"
   xmlns:inkscape="http://www.inkscape.org/namespaces/inkscape"
   xmlns:sodipodi="http://sodipodi.sourceforge.net/DTD/sodipodi-0.dtd"
   xmlns:xlink="http://www.w3.org/1999/xlink"
   xmlns="http://www.w3.org/2000/svg"
   xmlns:svg="http://www.w3.org/2000/svg">
  <sodipodi:namedview
     id="namedview1"
     pagecolor="#ffffff"
     bordercolor="#000000"
     borderopacity="0.25"
     inkscape:showpageshadow="2"
     inkscape:pageopacity="0.0"
     inkscape:pagecheckerboard="0"
     inkscape:deskcolor="#d1d1d1"
     inkscape:document-units="px"
     inkscape:zoom="12.625"
     inkscape:cx="31.960396"
     inkscape:cy="32"
     inkscape:window-width="1920"
     inkscape:window-height="1011"
     inkscape:window-x="0"
     inkscape:window-y="0"
     inkscape:window-maximized="1"
     inkscape:current-layer="svg1" />
  <defs
     id="defs1">
    <linearGradient
       inkscape:collect="always"
       xlink:href="#linearGradient1217"
       id="linearGradient4"
       x1="16"
       y1="30"
       x2="16"
       y2="2"
       gradientUnits="userSpaceOnUse"
       gradientTransform="scale(2)" />
    <linearGradient
       inkscape:collect="always"
       id="linearGradient1217">
      <stop
         style="stop-color:#96a3ad;stop-opacity:1;"
         offset="0"
         id="stop1213" />
      <stop
         style="stop-color:#c4c8cd;stop-opacity:1;"
         offset="1"
         id="stop1215" />
    </linearGradient>
    <linearGradient
       id="linearGradient4-8"
       inkscape:collect="always">
      <stop
         style="stop-color:#3a3a3a;stop-opacity:1;"
         offset="0"
         id="stop4" />
      <stop
         style="stop-color:#4d4d4d;stop-opacity:1;"
         offset="1"
         id="stop5" />
    </linearGradient>
    <linearGradient
       inkscape:collect="always"
       xlink:href="#linearGradient4-8"
       id="linearGradient6"
       x1="16"
       y1="29.5"
       x2="16"
       y2="1.5"
       gradientUnits="userSpaceOnUse"
       gradientTransform="matrix(2,0,0,2,0,1)" />
  </defs>
  <rect
     style="opacity:0.2;fill:#000000;stroke-width:3.5"
     id="rect1"
     width="56"
     height="56"
     x="4"
     y="5"
     ry="12" />
  <rect
     style="fill:url(#linearGradient4);stroke-width:2"
     id="rect2"
     width="56"
     height="56"
     x="4"
     y="4"
     ry="12" />
  <rect
     style="opacity:1;fill:#eeaf4f;stroke-width:4"
     id="rect3"
     width="8"
     height="8"
     x="42"
     y="23"
     ry="2" />
  <path
     id="path669"
     style="opacity:1;fill:url(#linearGradient6);stroke-width:9.9048;stroke-linecap:round;stroke-linejoin:round"
     d="m 28,15 c -2.215994,0 -2.660278,0.990414 -4,3 l -2,3 h -5 c -2.761424,0 -5,2.238576 -5,5 v 18 c 0,2.761424 2.238576,5 5,5 h 30 c 2.761424,0 5,-2.238576 5,-5 V 26 c 0,-2.761424 -2.238576,-5 -5,-5 h -5 l -2,-3 c -1.22921,-1.843818 -1.784006,-3 -4,-3 z m 4,10 c 5.522848,0 10,4.477152 10,10 0,5.522848 -4.477152,10 -10,10 -5.522848,0 -10,-4.477152 -10,-10 0,-5.522848 4.477152,-10 10,-10 z m 14,0 c 1.10457,0 2,0.89543 2,2 0,1.10457 -0.89543,2 -2,2 -1.10457,0 -2,-0.89543 -2,-2 0,-1.10457 0.89543,-2 2,-2 z m -14,2 c -4.418266,0 -8,3.581736 -8,8 0,4.41827 3.581734,8 8,8 4.41827,0 8,-3.58173 8,-8 0,-4.418264 -3.58173,-8 -8,-8 z" />
</svg>
