<?xml version="1.0" encoding="UTF-8" standalone="no"?>
<!-- Created with Inkscape (http://www.inkscape.org/) -->

<svg
   width="64"
   height="64"
   viewBox="0 0 64 64.000004"
   version="1.1"
   id="svg1"
   inkscape:version="1.4.2 (ebf0e940d0, 2025-05-08)"
   sodipodi:docname="applications-development.svg"
   xmlns:inkscape="http://www.inkscape.org/namespaces/inkscape"
   xmlns:sodipodi="http://sodipodi.sourceforge.net/DTD/sodipodi-0.dtd"
   xmlns:xlink="http://www.w3.org/1999/xlink"
   xmlns="http://www.w3.org/2000/svg"
   xmlns:svg="http://www.w3.org/2000/svg">
  <sodipodi:namedview
     id="namedview1"
     pagecolor="#ffffff"
     bordercolor="#000000"
     borderopacity="0.25"
     inkscape:showpageshadow="2"
     inkscape:pageopacity="0.0"
     inkscape:pagecheckerboard="0"
     inkscape:deskcolor="#d1d1d1"
     inkscape:document-units="px"
     inkscape:zoom="12.421875"
     inkscape:cx="32"
     inkscape:cy="32"
     inkscape:window-width="1920"
     inkscape:window-height="1010"
     inkscape:window-x="0"
     inkscape:window-y="0"
     inkscape:window-maximized="1"
     inkscape:current-layer="svg1" />
  <defs
     id="defs1">
    <linearGradient
       inkscape:collect="always"
       xlink:href="#linearGradient3147"
       id="linearGradient4"
       x1="16"
       y1="30"
       x2="16"
       y2="2"
       gradientUnits="userSpaceOnUse"
       gradientTransform="scale(2)" />
    <linearGradient
       inkscape:collect="always"
       id="linearGradient3147">
      <stop
         style="stop-color:#0091f9;stop-opacity:1;"
         offset="0"
         id="stop3143" />
      <stop
         style="stop-color:#41bbff;stop-opacity:1;"
         offset="1"
         id="stop3145" />
    </linearGradient>
  </defs>
  <rect
     style="opacity:0.2;fill:#000000;stroke-width:3.5"
     id="rect1"
     width="56"
     height="56"
     x="4"
     y="5"
     ry="12" />
  <rect
     style="fill:url(#linearGradient4);stroke-width:2"
     id="rect2"
     width="56"
     height="56"
     x="4"
     y="4"
     ry="12" />
  <path
     d="m 30.271062,19.962283 c -1.056284,-0.07343 -2.098592,0.274939 -2.898442,0.968749 -1.669188,1.44574 -1.851036,3.970612 -0.406252,5.640628 l 18.000006,21.999996 c 1.44574,1.669184 3.970612,1.851032 5.640624,0.406248 1.669184,-1.445742 1.851032,-3.970614 0.406248,-5.640626 l -18,-21.999996 c -0.695008,-0.804544 -1.681712,-1.299304 -2.742184,-1.374999 z"
     style="color:#000000;fill:#ddf3fe;fill-opacity:1;stroke-width:4;stroke-linecap:round;stroke-linejoin:round;-inkscape-stroke:none"
     id="path381"
     sodipodi:nodetypes="cccccccc" />
  <path
     d="m 36.724186,14.048221 c -6.56902,0.02328 -9.911918,1.903032 -11.24219,3.21875 -1.702762,1.684118 -3.477312,3.443111 -3.921876,3.882813 -0.962428,0.951892 3.72e-4,3.657638 -1.406252,5.19531 -0.476917,0.4717 -1.067773,0.751596 -1.609373,0.875 l -0.531252,-0.531248 c -0.973072,-0.973076 -2.542548,-0.973076 -3.515624,0 l -1.757812,1.757812 c -0.973076,0.973072 -0.973076,2.542552 0,3.515624 l 5.273436,5.265624 c 0.973076,0.973076 2.534741,0.973076 3.507813,0 l 1.757814,-1.757812 c 0.973074,-0.97307 0.973074,-2.534734 0,-3.507812 L 22.677308,31.36072 c 0.0248,-0.592688 0.406176,-1.365892 1.179686,-2.085936 1.77679,-1.83056 3.666666,-1.905016 4.554692,-0.953124 0.37016,0.29288 1.554688,1.695312 1.554688,1.695312 l 5.679684,-5.625 -1.35156,-1.6875 c -1.702752,-1.684122 0.07032,-3.390626 0.07032,-3.390626 4.812132,-4.686244 11.554688,-3.359375 11.554688,-3.359375 l 0.07032,-0.9375 c -3.631796,-0.705359 -6.695156,-0.977867 -9.26564,-0.96875 z"
     style="fill:#ffffff;stroke-width:4"
     id="path465" />
</svg>
