<?xml version="1.0" encoding="UTF-8" standalone="no"?>
<!-- Created with Inkscape (http://www.inkscape.org/) -->

<svg
   width="64"
   height="64"
   viewBox="0 0 64 64.000004"
   version="1.1"
   id="svg1"
   inkscape:version="1.4 (e7c3feb100, 2024-10-09)"
   sodipodi:docname="applications-office.svg"
   xmlns:inkscape="http://www.inkscape.org/namespaces/inkscape"
   xmlns:sodipodi="http://sodipodi.sourceforge.net/DTD/sodipodi-0.dtd"
   xmlns:xlink="http://www.w3.org/1999/xlink"
   xmlns="http://www.w3.org/2000/svg"
   xmlns:svg="http://www.w3.org/2000/svg">
  <sodipodi:namedview
     id="namedview1"
     pagecolor="#ffffff"
     bordercolor="#000000"
     borderopacity="0.25"
     inkscape:showpageshadow="2"
     inkscape:pageopacity="0.0"
     inkscape:pagecheckerboard="0"
     inkscape:deskcolor="#d1d1d1"
     inkscape:document-units="px"
     inkscape:zoom="12.28125"
     inkscape:cx="32.040712"
     inkscape:cy="32"
     inkscape:window-width="1920"
     inkscape:window-height="1011"
     inkscape:window-x="0"
     inkscape:window-y="0"
     inkscape:window-maximized="1"
     inkscape:current-layer="svg1" />
  <defs
     id="defs1">
    <linearGradient
       inkscape:collect="always"
       id="linearGradient1606">
      <stop
         style="stop-color:#eaebed;stop-opacity:1;"
         offset="0"
         id="stop1602" />
      <stop
         style="stop-color:#f9fafa;stop-opacity:1;"
         offset="1"
         id="stop1604" />
    </linearGradient>
    <linearGradient
       inkscape:collect="always"
       xlink:href="#linearGradient1606"
       id="linearGradient4"
       x1="16"
       y1="30"
       x2="16"
       y2="2"
       gradientUnits="userSpaceOnUse"
       gradientTransform="scale(2)" />
  </defs>
  <rect
     style="opacity:0.2;fill:#000000;stroke-width:3.5"
     id="rect1"
     width="56"
     height="56"
     x="4"
     y="5"
     ry="12" />
  <rect
     style="fill:url(#linearGradient4);stroke-width:2"
     id="rect2"
     width="56"
     height="56"
     x="4"
     y="4"
     ry="12" />
  <path
     id="rect950"
     style="fill:#666666;stroke-width:2.13808;stroke-linecap:round"
     d="m 49.142136,16.272078 c -2.73367,-2.73367 -7.165826,-2.73367 -9.899496,0 L 20.393398,35.12132 c -1.95262,1.95262 -1.95262,5.118448 0,7.071068 1.95262,1.95262 5.118448,1.95262 7.071068,0 L 45.606602,24.050252 44.192388,22.63604 26.050252,40.778174 c -1.171572,1.171572 -3.071068,1.171572 -4.24264,0 -1.171572,-1.171572 -1.171572,-3.071068 0,-4.24264 L 40.656854,17.686292 c 1.952622,-1.952622 5.118446,-1.952622 7.071068,0 1.952622,1.95262 1.952622,5.118446 0,7.071068 L 26.757358,45.727922 c -2.73367,2.73367 -7.165824,2.73367 -9.899494,0 -2.73367,-2.73367 -2.73367,-7.165824 0,-9.899494 L 35.707106,16.979184 34.292892,15.564972 15.44365,34.414214 c -3.514718,3.514718 -3.514718,9.213204 0,12.727922 3.514718,3.514718 9.213204,3.514718 12.727922,0 L 49.142136,26.171572 c 2.73367,-2.73367 2.73367,-7.165824 0,-9.899494 z"
     sodipodi:nodetypes="sssssccsssssssssccsssss" />
</svg>
