<?xml version="1.0" encoding="UTF-8" standalone="no"?>
<!-- Created with Inkscape (http://www.inkscape.org/) -->

<svg
   width="64"
   height="64"
   viewBox="0 0 64 64.000004"
   version="1.1"
   id="svg1"
   inkscape:version="1.4 (e7c3feb100, 2024-10-09)"
   sodipodi:docname="blender.svg"
   xmlns:inkscape="http://www.inkscape.org/namespaces/inkscape"
   xmlns:sodipodi="http://sodipodi.sourceforge.net/DTD/sodipodi-0.dtd"
   xmlns:xlink="http://www.w3.org/1999/xlink"
   xmlns="http://www.w3.org/2000/svg"
   xmlns:svg="http://www.w3.org/2000/svg">
  <sodipodi:namedview
     id="namedview1"
     pagecolor="#ffffff"
     bordercolor="#000000"
     borderopacity="0.25"
     inkscape:showpageshadow="2"
     inkscape:pageopacity="0.0"
     inkscape:pagecheckerboard="0"
     inkscape:deskcolor="#d1d1d1"
     inkscape:document-units="px"
     inkscape:zoom="12.625"
     inkscape:cx="31.960396"
     inkscape:cy="32"
     inkscape:window-width="1920"
     inkscape:window-height="1011"
     inkscape:window-x="0"
     inkscape:window-y="0"
     inkscape:window-maximized="1"
     inkscape:current-layer="svg1" />
  <defs
     id="defs1">
    <linearGradient
       id="linearGradient3"
       inkscape:collect="always">
      <stop
         style="stop-color:#f8dabe;stop-opacity:1;"
         offset="0"
         id="stop3" />
      <stop
         style="stop-color:#faf5eb;stop-opacity:1;"
         offset="1"
         id="stop4" />
    </linearGradient>
    <linearGradient
       inkscape:collect="always"
       xlink:href="#linearGradient3"
       id="linearGradient4"
       x1="16"
       y1="30"
       x2="16"
       y2="2"
       gradientUnits="userSpaceOnUse"
       gradientTransform="scale(2)" />
    <linearGradient
       inkscape:collect="always"
       xlink:href="#linearGradient1428"
       id="linearGradient2"
       x1="52.13266"
       y1="12.251"
       x2="52.13266"
       y2="52.000057"
       gradientUnits="userSpaceOnUse" />
    <linearGradient
       inkscape:collect="always"
       id="linearGradient1428">
      <stop
         style="stop-color:#ffbb75;stop-opacity:1;"
         offset="0"
         id="stop1424" />
      <stop
         style="stop-color:#f68200;stop-opacity:1;"
         offset="1"
         id="stop1426" />
    </linearGradient>
  </defs>
  <rect
     style="opacity:0.2;fill:#000000;stroke-width:3.5"
     id="rect1"
     width="56"
     height="56"
     x="4"
     y="5"
     ry="12" />
  <rect
     style="fill:url(#linearGradient4);stroke-width:2"
     id="rect2"
     width="56"
     height="56"
     x="4"
     y="4"
     ry="12" />
  <path
     id="path1790"
     style="opacity:1;fill:url(#linearGradient2);stroke-width:2.72728;stroke-linecap:square;stroke-linejoin:round"
     d="m 32.768666,12.251 c -0.511236,0 -1.022324,0.1942 -1.414062,0.585938 -0.783472,0.783473 -0.783472,2.044651 0,2.828124 l 6.348376,6.350594 c -0.18998,-0.0088 -0.380126,-0.014 -0.570312,-0.0156 H 15.999856 c -1.108,0 -2.000001,0.892002 -2.000001,2 0,1.107998 0.892001,2 2.000001,2 h 10.972656 c -0.1421,0.13786 -0.281444,0.278506 -0.417968,0.421876 l -0.02734,-0.02734 -13.940599,13.941402 c -0.783473,0.783474 -0.783473,2.044652 0,2.828124 0.783474,0.783474 2.044698,0.78352 2.828125,0 l 6.76091,-6.761714 c -0.0184,0.19892 -0.03262,0.398168 -0.04298,0.597652 0,8.284272 6.715728,15 15,15 8.284272,0 15,-6.715728 15,-15 -6.02e-4,-3.978018 -1.581348,-7.792886 -4.394532,-10.605468 L 34.18273,12.836938 C 33.790994,12.445201 33.279906,12.251 32.768666,12.251 Z"
     sodipodi:nodetypes="sscccsssccccssccscccs" />
  <circle
     style="fill:#ffffff;stroke-width:5.50004;stroke-linecap:square;stroke-linejoin:round"
     id="path629"
     cx="36.999859"
     cy="37.000027"
     r="11" />
  <circle
     style="fill:#28aee7;fill-opacity:1;stroke-width:5.00004;stroke-linecap:square;stroke-linejoin:round"
     id="path632"
     cx="36.999859"
     cy="37.000027"
     r="5" />
</svg>
