<?xml version="1.0" encoding="UTF-8" standalone="no"?>
<!-- Created with Inkscape (http://www.inkscape.org/) -->

<svg
   width="64"
   height="64"
   viewBox="0 0 64 64.000004"
   version="1.1"
   id="svg1"
   inkscape:version="1.4 (e7c3feb100, 2024-10-09)"
   sodipodi:docname="calls-app.svg"
   xmlns:inkscape="http://www.inkscape.org/namespaces/inkscape"
   xmlns:sodipodi="http://sodipodi.sourceforge.net/DTD/sodipodi-0.dtd"
   xmlns:xlink="http://www.w3.org/1999/xlink"
   xmlns="http://www.w3.org/2000/svg"
   xmlns:svg="http://www.w3.org/2000/svg">
  <sodipodi:namedview
     id="namedview1"
     pagecolor="#ffffff"
     bordercolor="#000000"
     borderopacity="0.25"
     inkscape:showpageshadow="2"
     inkscape:pageopacity="0.0"
     inkscape:pagecheckerboard="0"
     inkscape:deskcolor="#d1d1d1"
     inkscape:document-units="px"
     inkscape:zoom="12.625"
     inkscape:cx="31.960396"
     inkscape:cy="32"
     inkscape:window-width="1920"
     inkscape:window-height="1011"
     inkscape:window-x="0"
     inkscape:window-y="0"
     inkscape:window-maximized="1"
     inkscape:current-layer="svg1" />
  <defs
     id="defs1">
    <linearGradient
       inkscape:collect="always"
       xlink:href="#linearGradient1717"
       id="linearGradient4"
       x1="16"
       y1="30"
       x2="16"
       y2="2"
       gradientUnits="userSpaceOnUse"
       gradientTransform="scale(2)" />
    <linearGradient
       inkscape:collect="always"
       id="linearGradient1717">
      <stop
         style="stop-color:#4ca90b;stop-opacity:1;"
         offset="0"
         id="stop1713" />
      <stop
         style="stop-color:#9ad77b;stop-opacity:1;"
         offset="1"
         id="stop1715" />
    </linearGradient>
  </defs>
  <rect
     style="opacity:0.2;fill:#000000;stroke-width:3.5"
     id="rect1"
     width="56"
     height="56"
     x="4"
     y="5"
     ry="12" />
  <rect
     style="fill:url(#linearGradient4);stroke-width:2"
     id="rect2"
     width="56"
     height="56"
     x="4"
     y="4"
     ry="12" />
  <path
     id="path1"
     style="opacity:0.5;fill:#ffffff;stroke-width:2"
     d="m 19.835938,13.878906 c -0.511238,0 -1.022327,0.1942 -1.414063,0.585938 l -2.828125,2.828125 1.777344,6.082031 6.710938,2.402344 2.828124,-2.828126 c 0.783472,-0.783474 0.783472,-2.04465 0,-2.828124 L 21.25,14.464844 c -0.391736,-0.391736 -0.902824,-0.585938 -1.414062,-0.585938 z m 22.628906,22.625 c -0.511238,0 -1.022326,0.1942 -1.414062,0.585938 L 38.222656,39.917968 40,46 l 6.710938,2.402344 2.828124,-2.828126 c 0.783472,-0.783474 0.783472,-2.04465 0,-2.828124 l -5.660156,-5.65625 C 43.48717,36.698108 42.976082,36.503906 42.464844,36.503906 Z" />
  <path
     id="rect788"
     style="fill:#ffffff;stroke-width:2"
     d="m 15.597656,17.289062 c -3.133889,3.133888 -1.872706,9.4437 2.828125,14.144532 l 14.140625,14.140624 c 4.700834,4.700832 11.010644,5.962016 14.144532,2.828126 l -8.488282,-8.484376 c -0.78347,0.78347 -2.044654,0.78347 -2.828124,0 l -11.3125,-11.3125 c -0.78347,-0.78347 -0.78347,-2.044654 0,-2.828124 z" />
</svg>
