<?xml version="1.0" encoding="UTF-8" standalone="no"?>
<!-- Created with Inkscape (http://www.inkscape.org/) -->

<svg
   width="64"
   height="64"
   viewBox="0 0 64 64.000004"
   version="1.1"
   id="svg1"
   inkscape:version="1.4.2 (ebf0e940d0, 2025-05-08)"
   sodipodi:docname="desktop-environment-xfce.svg"
   xmlns:inkscape="http://www.inkscape.org/namespaces/inkscape"
   xmlns:sodipodi="http://sodipodi.sourceforge.net/DTD/sodipodi-0.dtd"
   xmlns:xlink="http://www.w3.org/1999/xlink"
   xmlns="http://www.w3.org/2000/svg"
   xmlns:svg="http://www.w3.org/2000/svg">
  <sodipodi:namedview
     id="namedview1"
     pagecolor="#ffffff"
     bordercolor="#000000"
     borderopacity="0.25"
     inkscape:showpageshadow="2"
     inkscape:pageopacity="0.0"
     inkscape:pagecheckerboard="0"
     inkscape:deskcolor="#d1d1d1"
     inkscape:document-units="px"
     inkscape:zoom="12.28125"
     inkscape:cx="31.959288"
     inkscape:cy="32"
     inkscape:window-width="1920"
     inkscape:window-height="1011"
     inkscape:window-x="0"
     inkscape:window-y="0"
     inkscape:window-maximized="1"
     inkscape:current-layer="svg1" />
  <defs
     id="defs1">
    <linearGradient
       inkscape:collect="always"
       xlink:href="#linearGradient2"
       id="linearGradient4"
       x1="16"
       y1="30"
       x2="16"
       y2="2"
       gradientUnits="userSpaceOnUse"
       gradientTransform="scale(2)" />
    <linearGradient
       inkscape:collect="always"
       id="linearGradient2">
      <stop
         style="stop-color:#26448e;stop-opacity:1;"
         offset="0"
         id="stop1" />
      <stop
         style="stop-color:#6074be;stop-opacity:1;"
         offset="1"
         id="stop2" />
    </linearGradient>
  </defs>
  <rect
     style="opacity:0.2;fill:#000000;stroke-width:3.5"
     id="rect1"
     width="56"
     height="56"
     x="4"
     y="5"
     ry="12" />
  <rect
     style="fill:url(#linearGradient4);stroke-width:2"
     id="rect2"
     width="56"
     height="56"
     x="4"
     y="4"
     ry="12" />
  <path
     style="fill:#f9f9f9;stroke-width:2"
     d="M 7.5021033,19.899519 C 7.4000227,20.099543 7.297942,20.298187 7.2,20.498208 c 1.551901,0.862171 6.024139,3.109324 8.14714,4.440511 2.683065,1.642948 6.309688,4.995053 6.595236,5.559257 -2.790664,4.859867 -1.524309,9.161048 -1.854004,9.619032 -0.237268,0.382113 -2.430623,2.790664 -1.724335,3.146565 0.70077,0.350387 1.815382,-0.200021 1.983675,-0.30762 0.350387,-0.215196 0.711807,-0.528337 0.560067,0.09104 -0.296587,1.266351 -1.642948,4.310839 0.215196,3.663867 0.226232,-0.12968 3.216918,-3.426597 3.578341,-3.539713 5.949647,1.5519 12.6042,0.840096 13.836064,0.263477 0.641455,0.04276 2.456833,1.184964 3.491436,1.729855 1.034601,0.53937 3.852856,1.89125 3.018276,-0.565583 -0.25934,-0.776641 -2.111967,-2.758935 -1.811243,-2.888607 0.662147,-0.263478 2.300955,0.684216 2.931371,0.862168 1.885733,0.528336 2.139556,-0.204162 0.949073,-1.81538 -1.175305,-1.61122 -1.351877,-1.362914 -1.724333,-2.106448 -0.291069,-0.59869 0,-1.260834 0.215196,-1.422232 0.382115,-0.291068 6.013103,-3.416944 7.333255,-4.612944 1.956085,-1.778132 0,-3.997698 -0.480056,-4.310836 -4.057018,-2.920334 -8.223011,-2.295436 -8.27681,-2.758938 -0.0276,-0.528334 -0.0164,-2.052648 -0.08692,-2.580986 -0.404185,-3.578342 -2.058168,-2.677548 -2.2844,-2.677548 -1.653984,0.25934 -1.045637,2.790666 -0.344866,5.173008 0.0538,0.608346 -0.576619,0.33935 -0.949075,-0.302104 -1.271871,-3.411426 -1.805724,-3.352108 -2.156111,-3.45419 -0.339348,-0.07588 -1.535345,0.65249 -1.514653,2.031958 0.0056,0.393148 0.474536,2.269226 0.474536,2.845844 -0.78078,0.684216 -0.819404,2.236118 -1.638808,2.8017 -2.38648,0.495228 -8.120929,-1.179446 -8.836873,-1.255318 C 24.367468,27.664544 23.284587,29.524068 22.88592,29.07712 19.669015,25.391184 14.753968,22.65432 12.625449,22.179781 11.800527,22.001831 9.01538,20.772723 8.012507,20.15334 7.8511087,20.056779 7.66764,19.986424 7.489688,19.894 m 44.239548,3.233476 c -0.77664,0.83458 -0.641452,3.954936 -0.480055,3.928725 0.791816,-0.1614 0.717324,-4.179788 0.480055,-3.928725 m 2.247156,0.474537 c -0.09104,-0.253821 -2.134039,2.614092 -1.772619,3.669387 0.1614,0.457981 2.047131,-2.866536 1.772619,-3.669387 M 43.3669,28.478433 c 0.0276,-0.0276 0.05932,0.0112 0.09104,0.04276 0.237268,0.786299 0.500744,1.535348 2.063684,1.724335 0.18348,0.02208 -0.867688,0.635936 -1.589148,0.259341 -0.658008,-0.398668 -0.717324,-1.848488 -0.565581,-2.02644 m 4.052877,3.960455 c 0.14484,-0.02208 0.248304,-0.0164 0.350385,0 0.382114,0.09656 -2.772732,1.740888 -3.018277,1.514656 -0.15036,-0.14484 1.681572,-1.331187 2.673408,-1.514656 m 0.819405,1.040117 c 0.328315,0.0276 -1.826414,2.258191 -2.069202,2.026439 -0.17796,-0.1614 1.396022,-2.080236 2.069202,-2.026439"
     id="path3" />
</svg>
