<?xml version="1.0" encoding="UTF-8" standalone="no"?>
<!-- Created with Inkscape (http://www.inkscape.org/) -->

<svg
   width="64"
   height="64"
   viewBox="0 0 64 64.000004"
   version="1.1"
   id="svg1"
   inkscape:version="1.4.2 (ebf0e940d0, 2025-05-08)"
   sodipodi:docname="devhelp.svg"
   xmlns:inkscape="http://www.inkscape.org/namespaces/inkscape"
   xmlns:sodipodi="http://sodipodi.sourceforge.net/DTD/sodipodi-0.dtd"
   xmlns:xlink="http://www.w3.org/1999/xlink"
   xmlns="http://www.w3.org/2000/svg"
   xmlns:svg="http://www.w3.org/2000/svg">
  <sodipodi:namedview
     id="namedview1"
     pagecolor="#ffffff"
     bordercolor="#000000"
     borderopacity="0.25"
     inkscape:showpageshadow="2"
     inkscape:pageopacity="0.0"
     inkscape:pagecheckerboard="0"
     inkscape:deskcolor="#d1d1d1"
     inkscape:document-units="px"
     inkscape:zoom="12.28125"
     inkscape:cx="31.959288"
     inkscape:cy="32"
     inkscape:window-width="1920"
     inkscape:window-height="1011"
     inkscape:window-x="0"
     inkscape:window-y="0"
     inkscape:window-maximized="1"
     inkscape:current-layer="svg1" />
  <defs
     id="defs1">
    <linearGradient
       inkscape:collect="always"
       xlink:href="#linearGradient5312"
       id="linearGradient4"
       x1="16"
       y1="30"
       x2="16"
       y2="2"
       gradientUnits="userSpaceOnUse"
       gradientTransform="matrix(2.0000012,0,0,2.0000012,-2.2e-6,-2.2e-6)" />
    <linearGradient
       inkscape:collect="always"
       id="linearGradient5312">
      <stop
         style="stop-color:#c72222;stop-opacity:1;"
         offset="0"
         id="stop5308" />
      <stop
         style="stop-color:#cf5b5b;stop-opacity:1;"
         offset="1"
         id="stop5310" />
    </linearGradient>
  </defs>
  <rect
     style="opacity:0.2;fill:#000000;stroke-width:3.5"
     id="rect1"
     width="56"
     height="56"
     x="4"
     y="5"
     ry="12" />
  <rect
     style="fill:url(#linearGradient4);stroke-width:2"
     id="rect2"
     width="56"
     height="56"
     x="4"
     y="4"
     ry="12" />
  <path
     id="path1650"
     style="color:#000000;font-style:normal;font-variant:normal;font-weight:600;font-stretch:normal;font-size:19px;line-height:125%;font-family:'Open Sans';-inkscape-font-specification:'Open Sans Semi-Bold';text-align:start;letter-spacing:0px;word-spacing:0px;writing-mode:lr-tb;text-anchor:start;clip-rule:nonzero;display:inline;overflow:visible;visibility:visible;isolation:auto;mix-blend-mode:normal;color-interpolation:sRGB;color-interpolation-filters:linearRGB;solid-color:#000000;solid-opacity:1;fill:#ffffff;fill-opacity:1;fill-rule:nonzero;stroke:none;stroke-width:2;stroke-linecap:butt;stroke-linejoin:miter;stroke-miterlimit:4;stroke-dasharray:none;stroke-dashoffset:0;stroke-opacity:1;marker:none;color-rendering:auto;image-rendering:auto;shape-rendering:auto;text-rendering:auto;enable-background:accumulate"
     d="m 34,18 c -1.797438,2.2e-5 -3.784648,0.320008 -4.6875,0.875 C 28.41792,19.422522 28,20.2675 28,21.4375 V 29 c 0.0078,1.379323 -3.296938,2.062 -4,2.0625 v 2 c 2.203301,0 4,0.729988 4,2.125 v 7.1875 c 0,1.28251 0.4134,2.242488 1.25,2.8125 0.84487,0.577503 2.8366,0.859994 4.75,0.875 V 44 C 33.047436,43.985 31.04743,43.815 30.625,43.5 30.202554,43.184998 30,42.740006 30,42.125 V 34.75 c 0,-0.613602 -0.228176,-2.417489 -2.125,-2.6875 v -0.125 C 29.771824,31.645004 30,30.19046 30,29.3125 V 21.937501 C 30,21.322504 30.202566,20.932517 30.625,20.625 31.055714,20.31001 33.05572,20.100014 34,20.0625 Z m 6,0 v 2.0625 c 0.94428,0.03752 2.944286,0.24751 3.375,0.5625 C 43.797434,20.932517 44,21.322504 44,21.937501 V 29.3125 c 0,0.87796 0.228175,2.332504 2.125,2.625 v 0.125 C 44.228175,32.332511 44,34.136398 44,34.75 v 7.375 C 44,42.740006 43.797446,43.184998 43.375,43.5 42.95257,43.815 40.952564,43.985 40,44 v 2.0625 c 1.913402,-0.015 3.90513,-0.297497 4.75,-0.875 C 45.5866,44.617488 46,43.65751 46,42.375 v -7.1875 c 0,-1.395012 1.7967,-2.124996 4,-2.125 v -2 C 49.296938,31.062 45.9922,30.379323 46,29 V 21.4375 C 46,20.2675 45.58208,19.422522 44.687501,18.875 43.784648,18.320008 41.797438,18.000018 40,18 Z" />
  <path
     id="rect3"
     style="opacity:0.5;fill:#000000;stroke-width:2"
     d="M 16,4 C 9.352,4 4,9.352 4,16 v 32 c 0,6.648 5.352,12 12,12 z" />
</svg>
