<?xml version="1.0" encoding="UTF-8" standalone="no"?>
<!-- Created with Inkscape (http://www.inkscape.org/) -->

<svg
   width="64"
   height="64"
   viewBox="0 0 64 64.000004"
   version="1.1"
   id="svg1"
   inkscape:version="1.4.2 (ebf0e940d0, 2025-05-08)"
   sodipodi:docname="emacs.svg"
   xmlns:inkscape="http://www.inkscape.org/namespaces/inkscape"
   xmlns:sodipodi="http://sodipodi.sourceforge.net/DTD/sodipodi-0.dtd"
   xmlns:xlink="http://www.w3.org/1999/xlink"
   xmlns="http://www.w3.org/2000/svg"
   xmlns:svg="http://www.w3.org/2000/svg">
  <sodipodi:namedview
     id="namedview1"
     pagecolor="#ffffff"
     bordercolor="#000000"
     borderopacity="0.25"
     inkscape:showpageshadow="2"
     inkscape:pageopacity="0.0"
     inkscape:pagecheckerboard="0"
     inkscape:deskcolor="#d1d1d1"
     inkscape:document-units="px"
     inkscape:zoom="12.421875"
     inkscape:cx="32"
     inkscape:cy="32"
     inkscape:window-width="1920"
     inkscape:window-height="1010"
     inkscape:window-x="0"
     inkscape:window-y="0"
     inkscape:window-maximized="1"
     inkscape:current-layer="svg1" />
  <defs
     id="defs1">
    <linearGradient
       inkscape:collect="always"
       xlink:href="#linearGradient1312"
       id="linearGradient4"
       x1="16"
       y1="30"
       x2="16"
       y2="2"
       gradientUnits="userSpaceOnUse"
       gradientTransform="scale(2)" />
    <linearGradient
       inkscape:collect="always"
       id="linearGradient1312">
      <stop
         style="stop-color:#9d4dcd;stop-opacity:1;"
         offset="0"
         id="stop1308" />
      <stop
         style="stop-color:#b589df;stop-opacity:1;"
         offset="1"
         id="stop1310" />
    </linearGradient>
  </defs>
  <rect
     style="opacity:0.2;fill:#000000;stroke-width:3.5"
     id="rect1"
     width="56"
     height="56"
     x="4"
     y="5"
     ry="12" />
  <rect
     style="fill:url(#linearGradient4);stroke-width:2"
     id="rect2"
     width="56"
     height="56"
     x="4"
     y="4"
     ry="12" />
  <path
     d="m 19.611804,48.38513 c 0,0 2.145968,0.62311 5.002326,0.979346 1.156824,0.14428 5.558318,0.64847 8.933068,0.63527 0,0 4.109938,0.0038 6.378706,-0.317636 2.373964,-0.337234 3.718744,-0.767588 4.467132,-1.626456 0.0196,-0.204756 0.361276,-0.872306 -0.56151,-1.515978 -2.359966,-1.647974 -5.40792,-2.095968 -11.333432,-3.503946 -6.550704,-1.647976 -8.508274,-3.223954 -9.48626,-4.363936 -0.927586,-1.144784 0.174,-3.520348 5.45232,-4.68593 2.67236,-0.650392 12.627412,-0.76999 12.627412,-0.76999 -2.855958,-2.267166 -8.218278,-6.326306 -9.313862,-7.189492 -0.961106,-0.75711 -2.509962,-1.918932 -2.67636,-2.957156 -0.224596,-1.010666 1.36626,-1.497298 2.208568,-1.553418 2.713758,-0.18716 6.419504,0.131 9.713454,0.786068 1.655776,0.329276 1.946452,0.280756 1.946452,0.280756 2.358166,0.11232 4.192338,-1.122944 4.09874,-3.724544 -0.0188,-2.638962 -2.657162,-4.75513 -5.577118,-4.847529 -2.74996,-0.08708 -9.526258,0.393034 -9.526258,0.393034 7.898282,1.628297 9.189464,2.043769 9.601456,2.994555 0.243998,0.561792 -0.405994,1.119984 -2.58196,1.010986 -2.369966,-0.1188 -7.225894,-0.69259 -7.225894,-0.69259 -4.62193,-0.71119 -7.841884,-1.38498 -9.245862,0.449194 -0.917068,1.198302 0.13104,2.65776 0.542752,3.518548 1.834172,3.200552 5.005926,5.39632 7.018296,6.943496 0.757268,0.582232 3.069354,1.871614 3.069354,1.871614 -7.186694,-1.965172 -12.91381,-0.860948 -16.544954,1.048104 -4.173539,2.470562 -3.45975,6.6395 3.162952,10.537044 3.911742,2.302164 5.859114,3.407948 12.263818,4.194336 3.743544,0.596912 4.301136,0.841148 4.272738,1.152744 -0.04016,0.438714 -4.430736,0.60495 -5.637518,0.68819 -3.070354,0.211756 -11.011036,0.264676 -11.050636,0.264676 z"
     style="fill:#ffffff;stroke-width:3.99994"
     id="path397"
     sodipodi:nodetypes="cscccccccccccccccccccccccccccccc" />
</svg>
