<?xml version="1.0" encoding="UTF-8" standalone="no"?>
<!-- Created with Inkscape (http://www.inkscape.org/) -->

<svg
   width="64"
   height="64"
   viewBox="0 0 64 64.000004"
   version="1.1"
   id="svg1"
   inkscape:version="1.4 (e7c3feb100, 2024-10-09)"
   sodipodi:docname="firewall-config.svg"
   xmlns:inkscape="http://www.inkscape.org/namespaces/inkscape"
   xmlns:sodipodi="http://sodipodi.sourceforge.net/DTD/sodipodi-0.dtd"
   xmlns:xlink="http://www.w3.org/1999/xlink"
   xmlns="http://www.w3.org/2000/svg"
   xmlns:svg="http://www.w3.org/2000/svg">
  <sodipodi:namedview
     id="namedview1"
     pagecolor="#ffffff"
     bordercolor="#000000"
     borderopacity="0.25"
     inkscape:showpageshadow="2"
     inkscape:pageopacity="0.0"
     inkscape:pagecheckerboard="0"
     inkscape:deskcolor="#d1d1d1"
     inkscape:document-units="px"
     inkscape:zoom="12.28125"
     inkscape:cx="32.040712"
     inkscape:cy="32"
     inkscape:window-width="1920"
     inkscape:window-height="1011"
     inkscape:window-x="0"
     inkscape:window-y="0"
     inkscape:window-maximized="1"
     inkscape:current-layer="svg1" />
  <defs
     id="defs1">
    <linearGradient
       inkscape:collect="always"
       xlink:href="#linearGradient918"
       id="linearGradient4"
       x1="16"
       y1="30"
       x2="16"
       y2="2"
       gradientUnits="userSpaceOnUse"
       gradientTransform="scale(2)" />
    <linearGradient
       inkscape:collect="always"
       id="linearGradient918">
      <stop
         style="stop-color:#923b26;stop-opacity:1;"
         offset="0"
         id="stop914" />
      <stop
         style="stop-color:#c17b6e;stop-opacity:1;"
         offset="1"
         id="stop916" />
    </linearGradient>
  </defs>
  <rect
     style="opacity:0.2;fill:#000000;stroke-width:3.5"
     id="rect1"
     width="56"
     height="56"
     x="4"
     y="5"
     ry="12" />
  <rect
     style="fill:url(#linearGradient4);stroke-width:2"
     id="rect2"
     width="56"
     height="56"
     x="4"
     y="4"
     ry="12" />
  <path
     id="rect3865"
     style="opacity:0.5;fill:#ffffff;stroke-width:0.881914;stroke-linecap:square;stroke-linejoin:round"
     d="M 23 4 L 23 10 L 5.6074219 10 C 5.2427552 10.632246 4.9373676 11.300978 4.6914062 12 L 15 12 L 15 24 L 4 24 L 4 26 L 7 26 L 7 38 L 4 38 L 4 40 L 15 40 L 15 52 L 4.6914062 52 C 4.9373676 52.699022 5.2427552 53.367754 5.6074219 54 L 23 54 L 23 60 L 25 60 L 25 54 L 39 54 L 39 60 L 41 60 L 41 54 L 58.392578 54 C 58.757245 53.367754 59.062632 52.699022 59.308594 52 L 49 52 L 49 40 L 60 40 L 60 38 L 57 38 L 57 26 L 60 26 L 60 24 L 49 24 L 49 12 L 59.308594 12 C 59.062632 11.300978 58.757245 10.632246 58.392578 10 L 41 10 L 41 4 L 39 4 L 39 10 L 25 10 L 25 4 L 23 4 z M 17 12 L 31 12 L 31 24 L 17 24 L 17 12 z M 33 12 L 47 12 L 47 24 L 33 24 L 33 12 z M 9 26 L 23 26 L 23 38 L 9 38 L 9 26 z M 25 26 L 39 26 L 39 38 L 25 38 L 25 26 z M 41 26 L 55 26 L 55 38 L 41 38 L 41 26 z M 17 40 L 31 40 L 31 52 L 17 52 L 17 40 z M 33 40 L 47 40 L 47 52 L 33 52 L 33 40 z " />
</svg>
