<?xml version="1.0" encoding="UTF-8" standalone="no"?>
<!-- Created with Inkscape (http://www.inkscape.org/) -->

<svg
   width="64"
   height="64"
   viewBox="0 0 64 64.000004"
   version="1.1"
   id="svg1"
   inkscape:version="1.4.2 (ebf0e940d0, 2025-05-08)"
   sodipodi:docname="garrysmod.svg"
   xmlns:inkscape="http://www.inkscape.org/namespaces/inkscape"
   xmlns:sodipodi="http://sodipodi.sourceforge.net/DTD/sodipodi-0.dtd"
   xmlns="http://www.w3.org/2000/svg"
   xmlns:svg="http://www.w3.org/2000/svg">
  <sodipodi:namedview
     id="namedview1"
     pagecolor="#ffffff"
     bordercolor="#000000"
     borderopacity="0.25"
     inkscape:showpageshadow="2"
     inkscape:pageopacity="0.0"
     inkscape:pagecheckerboard="0"
     inkscape:deskcolor="#d1d1d1"
     inkscape:document-units="px"
     inkscape:zoom="12.28125"
     inkscape:cx="31.959288"
     inkscape:cy="32"
     inkscape:window-width="1920"
     inkscape:window-height="1011"
     inkscape:window-x="0"
     inkscape:window-y="0"
     inkscape:window-maximized="1"
     inkscape:current-layer="svg1" />
  <defs
     id="defs1" />
  <rect
     style="opacity:0.2;fill:#000000;stroke-width:3.5"
     id="rect1"
     width="56"
     height="56"
     x="4"
     y="5"
     ry="12" />
  <rect
     style="fill:#1295f0;fill-opacity:1;stroke-width:2"
     id="rect2"
     width="56"
     height="56"
     x="4"
     y="4"
     ry="12" />
  <path
     d="m 31.00025,14 c -4.446862,0 -11.004551,2.786843 -11.000184,9.0003 4.62e-4,0.65698 0,8 0,8 -0.02047,3.91564 4.708078,9.000132 11.234186,9.000132 3.222054,0 5.81794,-1.397328 6.766114,-4.000066 v 6 c 0,2.595608 -3.113064,4.629774 -5.648094,4.656144 -3.612926,-0.05496 -6.362484,-2.26863 -6.352106,-4.656044 h -6.0001 c -0.01594,5.00692 5.148196,10.040484 12.144802,10.000134 4.1308,-0.02382 7.395124,-1.598068 9.543158,-4.613278 1.610028,-2.330038 2.31204,-3.43809 2.31204,-8.28017 V 14.59481 h -6.0001 v 2.199237 c 0,-2e-4 -2.106036,-2.793247 -7.000118,-2.793247 z m 0.886734,6.0001 c 3.63206,0 6.114102,2.284038 6.114102,7.094118 0,4.76208 -2.40804,6.906114 -6.0401,6.906114 -3.63006,0 -5.9601,-2.096034 -5.9601,-6.906114 0,-4.85808 2.33204,-7.094118 5.886098,-7.094118 z"
     style="fill:#ffffff;stroke-width:2.00004"
     id="path353"
     sodipodi:nodetypes="cssscscccscscccccsssss" />
</svg>
