<?xml version="1.0" encoding="UTF-8" standalone="no"?>
<!-- Created with Inkscape (http://www.inkscape.org/) -->

<svg
   width="64"
   height="64"
   viewBox="0 0 64 64.000004"
   version="1.1"
   id="svg1"
   inkscape:version="1.4.2 (ebf0e940d0, 2025-05-08)"
   sodipodi:docname="gimp.svg"
   xmlns:inkscape="http://www.inkscape.org/namespaces/inkscape"
   xmlns:sodipodi="http://sodipodi.sourceforge.net/DTD/sodipodi-0.dtd"
   xmlns:xlink="http://www.w3.org/1999/xlink"
   xmlns="http://www.w3.org/2000/svg"
   xmlns:svg="http://www.w3.org/2000/svg">
  <sodipodi:namedview
     id="namedview1"
     pagecolor="#ffffff"
     bordercolor="#000000"
     borderopacity="0.25"
     inkscape:showpageshadow="2"
     inkscape:pageopacity="0.0"
     inkscape:pagecheckerboard="0"
     inkscape:deskcolor="#d1d1d1"
     inkscape:document-units="px"
     inkscape:zoom="12.28125"
     inkscape:cx="31.959288"
     inkscape:cy="32"
     inkscape:window-width="1920"
     inkscape:window-height="1011"
     inkscape:window-x="0"
     inkscape:window-y="0"
     inkscape:window-maximized="1"
     inkscape:current-layer="svg1" />
  <defs
     id="defs1">
    <linearGradient
       inkscape:collect="always"
       xlink:href="#linearGradient3"
       id="linearGradient4"
       x1="16"
       y1="30"
       x2="16"
       y2="2"
       gradientUnits="userSpaceOnUse"
       gradientTransform="scale(2)" />
    <linearGradient
       inkscape:collect="always"
       id="linearGradient3">
      <stop
         style="stop-color:#cfc6be;stop-opacity:1;"
         offset="0"
         id="stop1" />
      <stop
         style="stop-color:#f0ecec;stop-opacity:1;"
         offset="1"
         id="stop2" />
    </linearGradient>
  </defs>
  <rect
     style="opacity:0.2;fill:#000000;stroke-width:3.5"
     id="rect1"
     width="56"
     height="56"
     x="4"
     y="5"
     ry="12" />
  <rect
     style="fill:url(#linearGradient4);stroke-width:2"
     id="rect2"
     width="56"
     height="56"
     x="4"
     y="4"
     ry="12" />
  <path
     style="fill:#8c8073;fill-rule:evenodd;fill-opacity:1"
     d="m 50.605582,12.013441 c -0.34767,-0.0553 -0.66002,0.14093 -0.8478,0.3643 -0.18777,0.22348 -0.31806,0.50035 -0.43152,0.84928 -0.19622,0.60381 -0.91685,2.84506 -3.5154,5.06023 -2.59854,2.21528 -7.07964,5.51326 -14.84617,5.7131 -4.72257,0.0553 -7.97952,-2.37392 -9.86268,-6.10032 -0.46997,-0.92997 -1.15464,-2.66302 -1.15464,-1.5603 v 1.70498 l -0.024,8.82409 0.0479,0.11616 c 0,0 0.42307,0.93981 -0.024,2.206 -0.44705,1.2663 -2.2101,3.11417 -6.14993,4.29669 l -0.48165,0.14314 0.0915,0.5072 c 0.21853,1.22872 1.08961,2.48806 2.37557,3.77735 1.28595,1.28918 3.00773,2.5935 5.01265,3.7727 4.00984,2.35841 9.14571,4.22211 14.13569,4.3092 4.98997,0.0873 9.87221,-1.65767 13.10264,-6.49065 3.23043,-4.83288 4.8059,-14.05646 3.51539,-26.06946 h -0.002 c -0.041,-0.32981 -0.11376,-0.61143 -0.24407,-0.85823 -0.1303,-0.2467 -0.34974,-0.50146 -0.69741,-0.5565 z"
     id="path9412" />
  <path
     style="fill:#ffffff;fill-rule:evenodd"
     d="m 24.498982,23.000351 c -1.36064,0 -2.72812,0.44979 -3.76922,1.37522 -1.04109,0.92543 -1.72976,2.33574 -1.72976,4.12577 0,1.79003 0.68867,3.19836 1.72976,4.12379 1.0411,0.92543 2.40858,1.37522 3.76922,1.37522 1.36064,0 2.72812,-0.44979 3.76922,-1.37522 1.04109,-0.92543 1.7318,-2.33376 1.7318,-4.12379 0,-1.79003 -0.69071,-3.20034 -1.7318,-4.12577 -1.0411,-0.92543 -2.40858,-1.37522 -3.76922,-1.37522 z"
     id="path9420" />
  <path
     style="fill:#3f3f3f;fill-rule:evenodd"
     d="m 25.500002,27.000351 c -0.61259,0 -1.23189,0.2025 -1.70899,0.6266 -0.47709,0.4241 -0.79101,1.0773 -0.79101,1.8734 0,0.7961 0.31392,1.4493 0.79101,1.8734 0.4771,0.4241 1.0964,0.6266 1.70899,0.6266 0.61259,0 1.23189,-0.2025 1.70898,-0.6266 0.4771,-0.4241 0.79102,-1.0773 0.79102,-1.8734 0,-0.7961 -0.31392,-1.4493 -0.79102,-1.8734 -0.47709,-0.4241 -1.09639,-0.6266 -1.70898,-0.6266 z"
     id="path9422" />
  <path
     id="path9424"
     style="opacity:1;fill:#333333;fill-opacity:1;fill-rule:evenodd"
     d="m 36,36 c 0,0 0.153681,0.780808 0.707031,1.492188 -1.30817,1.005459 -3.89426,1.324239 -6.83789,1.505859 -1.77197,0.10735 -3.726291,0 -5.869141,0 V 39 c 3.33941,1.17368 6.205821,2.050047 8.457031,1.998047 2.11494,-0.04918 3.6867,-0.950781 4.59961,-2.207031 0.12693,0.49468 0.441059,0.962181 0.943359,2.207031 0.22563,-1.41738 1.391437,-2.099221 0.529297,-3.207031 C 37.664667,36.680106 36,36 36,36 Z"
     sodipodi:nodetypes="cccccccccc" />
  <path
     style="fill:#3f3f3f;fill-rule:evenodd"
     d="m 14.473972,26.000351 c -0.26624,0 -0.52732,0.0163 -0.7811,0.0563 -0.67676,0.10616 -1.30336,0.36053 -1.84357,0.74641 -2.1608495,1.54365 -2.7299295,5.04206 -0.0609,8.70546 2.66904,3.66351 6.20029,4.23204 8.36114,2.6884 2.16085,-1.54364 2.73203,-5.04205 0.063,-8.70546 -1.75156,-2.40413 -3.87493,-3.47479 -5.73857,-3.49093 z"
     id="path9428" />
  <path
     style="fill:#ffffff;fill-rule:evenodd"
     d="m 33.498982,23.000351 c -1.36064,0 -2.72812,0.44979 -3.76922,1.37522 -1.04109,0.92543 -1.72976,2.33574 -1.72976,4.12577 0,1.79003 0.68867,3.19836 1.72976,4.12379 1.0411,0.92543 2.40858,1.37522 3.76922,1.37522 1.36064,0 2.72812,-0.44979 3.76922,-1.37522 1.04109,-0.92543 1.7318,-2.33376 1.7318,-4.12379 0,-1.79003 -0.69071,-3.20034 -1.7318,-4.12577 -1.0411,-0.92543 -2.40858,-1.37522 -3.76922,-1.37522 z"
     id="path9430" />
  <path
     style="fill:#3f3f3f;fill-rule:evenodd"
     d="m 34.500002,27.000351 c -0.61259,0 -1.23189,0.2025 -1.70899,0.6266 -0.47709,0.4241 -0.79101,1.0773 -0.79101,1.8734 0,0.7961 0.31392,1.4493 0.79101,1.8734 0.4771,0.4241 1.0964,0.6266 1.70899,0.6266 0.61259,0 1.23189,-0.2025 1.70898,-0.6266 0.4771,-0.4241 0.79102,-1.0773 0.79102,-1.8734 0,-0.7961 -0.31392,-1.4493 -0.79102,-1.8734 -0.47709,-0.4241 -1.09639,-0.6266 -1.70898,-0.6266 z"
     id="path9432" />
  <path
     style="fill:#ff9a0c"
     d="m 45.967772,45.400441 0.9264,-1.84488 c -3.44633,-2.52133 -9.88019,-5.07984 -9.88019,-5.07984 l -1.01375,0.55728 c 0,0 5.8415,5.18104 9.96754,6.36744 z"
     id="path9438" />
  <path
     style="fill:#8a8a8a"
     d="m 46.000002,42.000031 -0.48307,0.31769 c -0.44744,0.24491 -0.81044,0.66117 -1.10488,1.14259 -0.33691,0.79142 -0.46996,1.28632 -0.41205,2.05955 l 0.7,-0.11986 c 0,0 3.65492,1.04854 5.38512,1.6 l 0.20239,-0.38989 0.71249,-1.37905 -5,-2.56144 z"
     id="path9440" />
  <path
     style="fill:#3f3f3f"
     d="m 56.000002,52.000001 c -1.24699,-4.05158 -1.68927,-7.26853 -4.94805,-6.98227 -2.62613,0.23069 -2.80998,3.83233 -0.0963,4.8262 2.61417,0.9574 5.04432,2.15607 5.04432,2.15607 z"
     id="path9442" />
</svg>
