<?xml version="1.0" encoding="UTF-8" standalone="no"?>
<!-- Created with Inkscape (http://www.inkscape.org/) -->

<svg
   width="64"
   height="64"
   viewBox="0 0 64 64.000004"
   version="1.1"
   id="svg1"
   inkscape:version="1.4.2 (ebf0e940d0, 2025-05-08)"
   sodipodi:docname="gnome-todo.svg"
   xmlns:inkscape="http://www.inkscape.org/namespaces/inkscape"
   xmlns:sodipodi="http://sodipodi.sourceforge.net/DTD/sodipodi-0.dtd"
   xmlns:xlink="http://www.w3.org/1999/xlink"
   xmlns="http://www.w3.org/2000/svg"
   xmlns:svg="http://www.w3.org/2000/svg">
  <sodipodi:namedview
     id="namedview1"
     pagecolor="#ffffff"
     bordercolor="#000000"
     borderopacity="0.25"
     inkscape:showpageshadow="2"
     inkscape:pageopacity="0.0"
     inkscape:pagecheckerboard="0"
     inkscape:deskcolor="#d1d1d1"
     inkscape:document-units="px"
     inkscape:zoom="12.28125"
     inkscape:cx="31.959288"
     inkscape:cy="32"
     inkscape:window-width="1920"
     inkscape:window-height="1011"
     inkscape:window-x="0"
     inkscape:window-y="0"
     inkscape:window-maximized="1"
     inkscape:current-layer="svg1" />
  <defs
     id="defs1">
    <linearGradient
       inkscape:collect="always"
       xlink:href="#linearGradient6"
       id="linearGradient4"
       x1="16"
       y1="30"
       x2="16"
       y2="2"
       gradientUnits="userSpaceOnUse"
       gradientTransform="scale(2)" />
    <linearGradient
       inkscape:collect="always"
       xlink:href="#linearGradient1606"
       id="linearGradient4-9"
       x1="8"
       y1="15"
       x2="8"
       y2="1"
       gradientUnits="userSpaceOnUse"
       gradientTransform="scale(4)" />
    <linearGradient
       inkscape:collect="always"
       id="linearGradient1606">
      <stop
         style="stop-color:#eaebed;stop-opacity:1;"
         offset="0"
         id="stop1602" />
      <stop
         style="stop-color:#f9fafa;stop-opacity:1;"
         offset="1"
         id="stop1604" />
    </linearGradient>
    <linearGradient
       inkscape:collect="always"
       id="linearGradient6">
      <stop
         style="stop-color:#b18646;stop-opacity:1;"
         offset="0"
         id="stop5" />
      <stop
         style="stop-color:#d9b37c;stop-opacity:1;"
         offset="1"
         id="stop6" />
    </linearGradient>
  </defs>
  <rect
     style="opacity:0.2;fill:#000000;stroke-width:3.5"
     id="rect1"
     width="56"
     height="56"
     x="4"
     y="5"
     ry="12" />
  <rect
     style="fill:url(#linearGradient4);stroke-width:2"
     id="rect2"
     width="56"
     height="56"
     x="4"
     y="4"
     ry="12" />
  <rect
     style="fill:url(#linearGradient4-9);stroke-width:8"
     id="rect3"
     width="48"
     height="48"
     x="8"
     y="8"
     ry="8" />
  <path
     id="path4"
     style="color:#000000;fill:#c8c8c8;stroke-width:2;stroke-linecap:round;-inkscape-stroke:none"
     d="m 30,18 c -0.552284,0 -1,0.447716 -1,1 0,0.552284 0.447716,1 1,1 h 20 c 0.552284,0 1,-0.447716 1,-1 0,-0.552284 -0.447716,-1 -1,-1 z m 0,14 c -0.552284,0 -1,0.447716 -1,1 0,0.552284 0.447716,1 1,1 h 20 c 0.552284,0 1,-0.447716 1,-1 0,-0.552284 -0.447716,-1 -1,-1 z m 0,14 c -0.552284,0 -1,0.447716 -1,1 0,0.552284 0.447716,1 1,1 h 20 c 0.552284,0 1,-0.447716 1,-1 0,-0.552284 -0.447716,-1 -1,-1 z" />
  <path
     id="rect4"
     style="fill:#5f5f5f;fill-opacity:1;stroke-width:4"
     d="m 24.957522,12.375 c -0.287832,-0.0024 -0.57313,0.12066 -0.773438,0.359376 l -5.796874,6.902342 -3.527344,-3.527342 c -0.391738,-0.391738 -1.022326,-0.391738 -1.414064,0 -0.391736,0.391736 -0.391736,1.022324 0,1.414062 l 4.242188,4.242186 c 0.252972,0.252974 0.606104,0.343284 0.929688,0.269532 0.251444,-0.02428 0.495918,-0.14578 0.671874,-0.355468 l 6.425782,-7.660156 c 0.356104,-0.42439 0.303294,-1.050146 -0.1211,-1.40625 -0.18568,-0.1558 -0.41285,-0.236364 -0.636718,-0.238282 z m 0,14 c -0.287832,-0.0024 -0.57313,0.12066 -0.773438,0.359376 l -5.796874,6.902342 -3.527344,-3.527342 c -0.391738,-0.39174 -1.022326,-0.39174 -1.414064,0 -0.391736,0.391736 -0.391736,1.022324 0,1.414062 l 4.242188,4.242186 c 0.252972,0.252976 0.606104,0.343284 0.929688,0.269532 0.251444,-0.02428 0.495918,-0.14578 0.671874,-0.355468 l 6.425782,-7.660156 c 0.356104,-0.42439 0.3033,-1.050144 -0.1211,-1.40625 -0.18566,-0.1558 -0.41285,-0.236364 -0.636718,-0.238282 z m 0,14 c -0.287832,-0.0024 -0.57313,0.12066 -0.773438,0.359376 l -5.796874,6.902342 -3.527344,-3.527342 c -0.391738,-0.391738 -1.022326,-0.391738 -1.414064,0 -0.391736,0.391736 -0.391736,1.022324 0,1.414062 l 4.242188,4.242186 c 0.252972,0.252976 0.606104,0.343284 0.929688,0.269532 0.251444,-0.02428 0.495918,-0.14578 0.671874,-0.355468 l 6.425782,-7.660156 c 0.356104,-0.42439 0.3033,-1.050144 -0.1211,-1.40625 -0.18566,-0.1558 -0.41285,-0.236364 -0.636718,-0.238282 z" />
</svg>
