<?xml version="1.0" encoding="UTF-8" standalone="no"?>
<!-- Created with Inkscape (http://www.inkscape.org/) -->

<svg
   width="64"
   height="64"
   viewBox="0 0 64 64.000004"
   version="1.1"
   id="svg1"
   inkscape:version="1.4.2 (ebf0e940d0, 2025-05-08)"
   sodipodi:docname="gnome-contacts.svg"
   xmlns:inkscape="http://www.inkscape.org/namespaces/inkscape"
   xmlns:sodipodi="http://sodipodi.sourceforge.net/DTD/sodipodi-0.dtd"
   xmlns:xlink="http://www.w3.org/1999/xlink"
   xmlns="http://www.w3.org/2000/svg"
   xmlns:svg="http://www.w3.org/2000/svg">
  <sodipodi:namedview
     id="namedview1"
     pagecolor="#ffffff"
     bordercolor="#000000"
     borderopacity="0.25"
     inkscape:showpageshadow="2"
     inkscape:pageopacity="0.0"
     inkscape:pagecheckerboard="0"
     inkscape:deskcolor="#d1d1d1"
     inkscape:document-units="px"
     inkscape:zoom="12.3125"
     inkscape:cx="31.959391"
     inkscape:cy="32"
     inkscape:window-width="1920"
     inkscape:window-height="1011"
     inkscape:window-x="0"
     inkscape:window-y="0"
     inkscape:window-maximized="1"
     inkscape:current-layer="svg1" />
  <defs
     id="defs1">
    <linearGradient
       inkscape:collect="always"
       xlink:href="#linearGradient8443"
       id="linearGradient4"
       x1="16"
       y1="30"
       x2="16"
       y2="2"
       gradientUnits="userSpaceOnUse"
       gradientTransform="scale(2)" />
    <linearGradient
       inkscape:collect="always"
       id="linearGradient8443">
      <stop
         style="stop-color:#3465c4;stop-opacity:1;"
         offset="0"
         id="stop8439" />
      <stop
         style="stop-color:#68b4f7;stop-opacity:1;"
         offset="1"
         id="stop8441" />
    </linearGradient>
  </defs>
  <rect
     style="opacity:0.2;fill:#000000;stroke-width:3.5"
     id="rect1"
     width="56"
     height="56"
     x="4"
     y="5"
     ry="12" />
  <rect
     style="fill:url(#linearGradient4);stroke-width:2"
     id="rect2"
     width="56"
     height="56"
     x="4"
     y="4"
     ry="12" />
  <path
     id="rect294"
     style="fill:#8ace64;fill-opacity:1;stroke-width:3.57772;stroke-linecap:round;stroke-linejoin:round"
     d="M 52,4.6796876 V 27 h 8 V 16 C 60,10.755857 56.669702,6.3200548 52,4.6796876 Z" />
  <path
     id="rect956"
     style="fill:#f44d4d;fill-opacity:1;stroke-width:1.7127;stroke-linecap:round;stroke-linejoin:round"
     d="m 52,23 v 22 h 8 V 23 Z"
     sodipodi:nodetypes="ccccc" />
  <path
     id="rect1736"
     style="fill:#ffbc42;fill-opacity:1;stroke-width:3.0984;stroke-linecap:round;stroke-linejoin:round"
     inkscape:label="rect1736"
     d="M 52,41 V 59.320312 C 56.669702,57.679946 60,53.244144 60,48 v -7 z" />
  <path
     id="rect4024"
     style="opacity:0.2;fill:#000000;fill-opacity:1;stroke-width:2.0656;stroke-linecap:round;stroke-linejoin:round"
     d="m 52,23 v 1 h 8 v -1 z m 0,18 v 1 h 8 v -1 z" />
  <path
     d="m 36.199328,39.979842 c -0.836132,0 -1.64091,-0.209032 -2.414334,-0.627094 -0.773422,-0.438972 -1.31691,-1.128786 -1.630458,-2.069434 h -0.03128 c -0.18816,0.501678 -0.470372,0.919744 -0.846628,1.2542 -0.376258,0.334452 -0.794324,0.606194 -1.254198,0.81523 -0.438968,0.209038 -0.88839,0.355358 -1.348264,0.438966 -0.459872,0.0836 -0.87794,0.1254 -1.254198,0.1254 -2.006718,0 -3.53266,-0.564392 -4.577828,-1.693172 -1.045198,-1.128766 -1.567788,-2.644256 -1.567788,-4.546456 v -2.445688 c 0,-1.923104 0.50168,-3.438598 1.505038,-4.546472 1.024262,-1.128782 2.414332,-1.693168 4.170212,-1.693168 1.170588,0 2.100782,0.17768 2.790592,0.533034 0.68981,0.355356 1.18104,0.783876 1.473686,1.285552 v -1.630458 h 2.94737 V 35.0571 c 0,0.87794 0.17768,1.525946 0.533036,1.944008 0.355354,0.397162 0.867488,0.595746 1.536392,0.595746 0.522586,0 0.982458,-0.09406 1.37962,-0.282194 0.397164,-0.209038 0.731618,-0.53304 1.00336,-0.972004 0.27174,-0.459872 0.480774,-1.045166 0.627096,-1.755876 0.14632,-0.731618 0.219484,-1.62001 0.219484,-2.665172 v -0.34489 c 0,-1.75588 -0.261292,-3.323628 -0.783874,-4.703246 -0.50167,-1.379632 -1.254188,-2.550222 -2.257544,-3.511774 -1.003362,-0.982454 -2.23666,-1.724522 -3.69989,-2.226204 -1.463234,-0.522582 -3.14595,-0.783872 -5.048154,-0.783872 -1.630458,0 -3.125046,0.26129 -4.48376,0.783872 -1.358716,0.522584 -2.529304,1.285558 -3.51176,2.288914 -0.961554,0.982458 -1.714072,2.194848 -2.25756,3.637178 -0.543482,1.442328 -0.815226,3.07279 -0.815226,4.891378 V 32.486 c 0,1.94401 0.261292,3.668532 0.783874,5.173574 0.543484,1.484134 1.31691,2.72788 2.32027,3.731242 1.003356,1.024264 2.2262,1.797684 3.668532,2.32027 1.463232,0.543486 3.104142,0.815228 4.922728,0.815228 1.56775,0 3.12505,-0.17768 4.671896,-0.533036 1.546844,-0.334452 2.96827,-0.83613 4.264276,-1.50504 l 0.877938,2.194846 c -1.316906,0.710716 -2.801042,1.254204 -4.452406,1.630464 -1.630458,0.39716 -3.386338,0.595746 -5.267636,0.595746 -2.257558,0 -4.274728,-0.334454 -6.051514,-1.003358 -1.776782,-0.668908 -3.28182,-1.630462 -4.515116,-2.88466 C 16.592016,41.767078 15.640915,40.251588 14.972009,38.474804 14.324002,36.698024 14,34.712204 14,32.517358 V 31.92161 c 0,-2.006718 0.31355,-3.856662 0.94065,-5.549826 0.648004,-1.714076 1.557298,-3.187758 2.727884,-4.421056 1.19149,-1.233294 2.623368,-2.19485 4.29563,-2.884658 C 23.657334,18.355358 25.55954,18 27.670772,18 c 2.320272,0 4.368794,0.334454 6.145576,1.003362 1.776782,0.648002 3.27137,1.567748 4.483764,2.759238 1.212392,1.19149 2.132138,2.612916 2.759238,4.264276 C 41.68645,27.678236 42,29.496828 42,31.482642 v 0.40761 C 42,32.81 41.90594,33.75065 41.717808,34.7122 c -0.16722,0.940652 -0.47033,1.808144 -0.909298,2.602472 -0.43897,0.77342 -1.034714,1.410974 -1.787234,1.912652 -0.731616,0.50168 -1.672266,0.75252 -2.821948,0.752518 z M 24.3785,33.175812 c 0,1.191488 0.261292,2.14259 0.783874,2.853302 0.522582,0.68981 1.348262,1.034716 2.477044,1.034716 0.43897,0 0.857032,-0.05228 1.254198,-0.15678 0.418066,-0.10452 0.783872,-0.2822 1.097428,-0.533036 0.334448,-0.25084 0.595742,-0.585296 0.783872,-1.003362 0.18812,-0.418062 0.282192,-0.940646 0.282192,-1.56775 v -2.759234 c 0,-0.41806 -0.0627,-0.815226 -0.18814,-1.191488 -0.10452,-0.397162 -0.292646,-0.742068 -0.564384,-1.034714 -0.271744,-0.313552 -0.627102,-0.553938 -1.066072,-0.721164 -0.438968,-0.18814 -0.972004,-0.282194 -1.599102,-0.282194 -1.024262,0 -1.829042,0.282194 -2.414334,0.846584 -0.564388,0.56439 -0.846582,1.588654 -0.846582,3.072786 z"
     style="font-weight:bold;font-size:4.74057px;line-height:1.25;font-family:'나눔스퀘어';-inkscape-font-specification:'나눔스퀘어 Bold';fill:#ffffff;stroke-width:0.78388"
     id="path6805"
     sodipodi:nodetypes="scccscsscsscsscccscscccsscccsscssscccsccccssscsscccscsssscccsscsccssscccscss" />
</svg>
