<?xml version="1.0" encoding="UTF-8" standalone="no"?>
<!-- Created with Inkscape (http://www.inkscape.org/) -->

<svg
   width="64"
   height="64"
   viewBox="0 0 64 64.000004"
   version="1.1"
   id="svg1"
   inkscape:version="1.4 (e7c3feb100, 2024-10-09)"
   sodipodi:docname="google-chrome-beta.svg"
   xmlns:inkscape="http://www.inkscape.org/namespaces/inkscape"
   xmlns:sodipodi="http://sodipodi.sourceforge.net/DTD/sodipodi-0.dtd"
   xmlns:xlink="http://www.w3.org/1999/xlink"
   xmlns="http://www.w3.org/2000/svg"
   xmlns:svg="http://www.w3.org/2000/svg">
  <sodipodi:namedview
     id="namedview1"
     pagecolor="#ffffff"
     bordercolor="#000000"
     borderopacity="0.25"
     inkscape:showpageshadow="2"
     inkscape:pageopacity="0.0"
     inkscape:pagecheckerboard="0"
     inkscape:deskcolor="#d1d1d1"
     inkscape:document-units="px"
     inkscape:zoom="12.28125"
     inkscape:cx="32.040712"
     inkscape:cy="32"
     inkscape:window-width="1920"
     inkscape:window-height="1011"
     inkscape:window-x="0"
     inkscape:window-y="0"
     inkscape:window-maximized="1"
     inkscape:current-layer="svg1" />
  <defs
     id="defs1">
    <linearGradient
       inkscape:collect="always"
       id="linearGradient1606">
      <stop
         style="stop-color:#eaebed;stop-opacity:1;"
         offset="0"
         id="stop1602" />
      <stop
         style="stop-color:#f9fafa;stop-opacity:1;"
         offset="1"
         id="stop1604" />
    </linearGradient>
    <linearGradient
       inkscape:collect="always"
       xlink:href="#linearGradient1606"
       id="linearGradient4"
       x1="16"
       y1="30"
       x2="16"
       y2="2"
       gradientUnits="userSpaceOnUse"
       gradientTransform="scale(2)" />
    <linearGradient
       inkscape:collect="always"
       xlink:href="#linearGradient12495"
       id="linearGradient12497"
       x1="3.7041574"
       y1="5.15939"
       x2="8.9958239"
       y2="5.15939"
       gradientUnits="userSpaceOnUse" />
    <linearGradient
       inkscape:collect="always"
       id="linearGradient12495">
      <stop
         style="stop-color:#db3328;stop-opacity:1;"
         offset="0"
         id="stop12491" />
      <stop
         style="stop-color:#e53d30;stop-opacity:1"
         offset="1"
         id="stop12493" />
    </linearGradient>
    <linearGradient
       inkscape:collect="always"
       xlink:href="#linearGradient13171"
       id="linearGradient13173"
       x1="4.4023013"
       y1="4.2994838"
       x2="5.9898009"
       y2="7.474484"
       gradientUnits="userSpaceOnUse" />
    <linearGradient
       inkscape:collect="always"
       id="linearGradient13171">
      <stop
         style="stop-color:#32a651;stop-opacity:1;"
         offset="0"
         id="stop13167" />
      <stop
         style="stop-color:#279847;stop-opacity:1"
         offset="1"
         id="stop13169" />
    </linearGradient>
  </defs>
  <rect
     style="opacity:0.2;fill:#000000;stroke-width:3.5"
     id="rect1"
     width="56"
     height="56"
     x="4"
     y="5"
     ry="12" />
  <rect
     style="fill:url(#linearGradient4);stroke-width:2"
     id="rect2"
     width="56"
     height="56"
     x="4"
     y="4"
     ry="12" />
  <g
     id="g13900"
     transform="matrix(4.4465028,0,0,4.4465028,3.7647064,3.7647064)">
    <path
       d="m 6.3499908,1.8520833 c -1.6648002,0 -3.1172325,0.9051142 -3.8949803,2.2495046 L 2.6017322,6.7248018 4.4023011,7.4744838 6.3499908,6.3500302 V 4.1010567 H 10.244704 C 9.4668234,2.7569983 8.014591,1.8520833 6.3499908,1.8520833 Z"
       style="fill:url(#linearGradient12497);fill-opacity:1;stroke-width:0.0175699"
       id="path1309" />
    <path
       d="m 1.8521097,6.3500302 c 0,2.4841174 2.013697,4.4978798 4.4978805,4.4978798 L 8.322717,9.7933342 8.2976798,7.4744838 6.3499902,6.3500302 4.4023011,7.4744838 2.4550101,4.1015879 C 2.0722656,4.7632044 1.8520833,5.5305796 1.8520833,6.3499639"
       style="fill:url(#linearGradient13173);fill-opacity:1;stroke-width:0.0175699"
       id="path1449"
       sodipodi:nodetypes="cccccccc" />
    <path
       d="m 6.3500375,6.3500302 1.947689,1.1244536 -1.947689,3.3734262 c 2.4841163,0 4.4978795,-2.0137624 4.4978795,-4.4978798 0,-0.819517 -0.220254,-1.5871712 -0.603213,-2.2489735 H 6.3499908 Z"
       style="fill:#fbbf12;stroke-width:0.0175699"
       id="path1829" />
    <path
       d="m 8.5990112,6.3500302 c 0,1.2420585 -1.0069151,2.2489734 -2.2489737,2.2489734 -1.242059,0 -2.2489739,-1.0069149 -2.2489739,-2.2489734 0,-1.2420588 1.0069149,-2.2489735 2.2489739,-2.2489735 1.2420586,0 2.2489737,1.0069147 2.2489737,2.2489735"
       style="fill:#ffffff;stroke-width:0.0175699"
       id="path2229" />
    <path
       d="m 8.1492041,6.3500006 c 0,0.9936381 -0.8055294,1.7991654 -1.7991667,1.7991654 -0.9936381,0 -1.7991668,-0.8055273 -1.7991668,-1.7991654 0,-0.9936377 0.8055287,-1.7991663 1.7991668,-1.7991663 0.9936373,0 1.7991667,0.8055286 1.7991667,1.7991663"
       style="fill:#4688f4;fill-opacity:1;stroke-width:0.0172995"
       id="path2029" />
  </g>
  <path
     id="path520"
     style="fill:#414342;fill-opacity:1;stroke-width:2;stroke-linecap:round;stroke-linejoin:round"
     d="M 12.946,38 A 20,19.999985 0 0 0 32.000688,52 20,19.999985 0 0 0 51.055376,38 Z" />
  <path
     id="path727"
     style="font-size:4px;font-family:'Google Sans';-inkscape-font-specification:'Google Sans';text-align:center;text-anchor:middle;fill:#ffffff;stroke-width:0.375516;stroke-linecap:round;stroke-linejoin:round"
     d="m 22.62484,40 v 7.041494 h 2.66578 c 0.373802,0 0.720952,-0.08406 1.042294,-0.254568 0.327898,-0.1705 0.587938,-0.404404 0.778118,-0.706072 0.19674,-0.308224 0.2978,-0.652326 0.2978,-1.032688 0,-0.38692 -0.11326,-0.724926 -0.336226,-1.013476 -0.222972,-0.28855 -0.510446,-0.491964 -0.864578,-0.610006 v -0.03842 c 0.29511,-0.13772 0.525958,-0.335032 0.696468,-0.590794 0.17706,-0.25576 0.264174,-0.557184 0.264174,-0.8982 0,-0.360686 -0.09016,-0.681696 -0.273784,-0.970246 -0.18362,-0.28855 -0.434514,-0.518106 -0.749298,-0.682056 C 25.837364,40.081008 25.510258,40 25.156128,40 Z m 11.715012,0.610008 v 1.416944 h -0.874184 v 0.758904 h 0.874184 v 2.939562 c 0,0.236086 0.03528,0.43645 0.10086,0.6004 0.06558,0.16394 0.16184,0.307686 0.292994,0.432288 0.11804,0.11148 0.26178,0.1986 0.432288,0.264178 0.17706,0.06558 0.368286,0.10086 0.57158,0.10086 0.1574,0 0.285888,-0.0092 0.384258,-0.02882 0.10492,-0.0196 0.209034,-0.05496 0.307404,-0.10086 V 46.17692 c -0.17706,0.11148 -0.362186,0.1681 -0.552368,0.1681 -0.236086,0 -0.418162,-0.07186 -0.54276,-0.216142 -0.10494,-0.13116 -0.1585,-0.334572 -0.1585,-0.610008 v -2.733024 h 1.220012 v -0.758904 h -1.220012 v -1.416944 z m -10.88886,0.18732 h 1.743562 c 0.229528,0 0.429892,0.05662 0.600402,0.16812 0.17706,0.11148 0.311656,0.255222 0.403466,0.432288 0.09838,0.1705 0.1441,0.34168 0.1441,0.518746 0,0.18362 -0.04572,0.365696 -0.1441,0.542762 -0.09836,0.1705 -0.239056,0.311196 -0.42268,0.422682 -0.17706,0.11148 -0.383526,0.1681 -0.619614,0.1681 h -1.705136 z m 7.132754,1.071114 c -0.485288,0 -0.910406,0.1224 -1.27765,0.365042 -0.367246,0.242646 -0.651674,0.568456 -0.85497,0.975052 -0.19674,0.406594 -0.2978,0.85 -0.2978,1.33529 0,0.504962 0.10716,0.96232 0.317012,1.368912 0.216412,0.400036 0.513034,0.7119 0.893396,0.941428 C 29.744096,47.0837 30.172262,47.2 30.650992,47.2 c 0.524638,0 0.972848,-0.11936 1.340094,-0.355436 0.373804,-0.236088 0.667376,-0.554048 0.88379,-0.96064 l -0.706074,-0.345832 c -0.34757,0.603334 -0.841506,0.903006 -1.484188,0.903006 -0.275434,0 -0.54157,-0.06578 -0.797332,-0.19694 -0.249202,-0.13116 -0.455662,-0.32367 -0.619612,-0.585992 -0.16394,-0.262318 -0.258912,-0.585078 -0.278586,-0.965442 h 3.967446 c 0.0196,-0.07214 0.02882,-0.1562 0.02882,-0.254568 0,-0.498406 -0.10106,-0.943568 -0.2978,-1.330488 -0.19018,-0.386922 -0.465462,-0.686592 -0.826152,-0.903004 -0.360686,-0.222968 -0.785804,-0.336224 -1.277652,-0.336222 z m 8.597734,0 c -0.419708,0 -0.805196,0.08406 -1.152768,0.25457 -0.341016,0.1705 -0.6102,0.409206 -0.806938,0.710874 l 0.63402,0.470714 c 0.13772,-0.216414 0.321086,-0.38149 0.557174,-0.499534 0.236086,-0.1246 0.496126,-0.18732 0.778118,-0.18732 0.400038,0 0.731946,0.1115 0.994264,0.341026 0.262318,0.222972 0.393862,0.524396 0.393862,0.898198 v 0.302602 c -0.13772,-0.08526 -0.338082,-0.16016 -0.6004,-0.22575 -0.25576,-0.06558 -0.53409,-0.09606 -0.835758,-0.09606 -0.60989,0 -1.117776,0.14984 -1.517812,0.4515 -0.400036,0.295112 -0.6004,0.708032 -0.6004,1.239228 0,0.32134 0.08276,0.608814 0.24016,0.864576 0.1574,0.249202 0.379094,0.44652 0.667644,0.590794 0.288552,0.14428 0.617412,0.216142 0.984658,0.216142 0.36069,0 0.681696,-0.08406 0.970246,-0.254568 0.288552,-0.17052 0.508962,-0.37697 0.653236,-0.619614 h 0.03842 v 0.715678 h 0.797332 V 43.86658 c 0,-0.616452 -0.19732,-1.101242 -0.590794,-1.455372 -0.38692,-0.360688 -0.922242,-0.542762 -1.60427,-0.542762 z m -8.60734,0.758904 c 0.341016,0 0.622392,0.07186 0.845364,0.216146 0.229528,0.14428 0.39941,0.318498 0.504336,0.528352 0.10492,0.209856 0.1598,0.424168 0.17292,0.634022 h -3.059642 c 0.08526,-0.413152 0.26428,-0.745058 0.533156,-0.994262 0.275434,-0.255762 0.61039,-0.384258 1.003866,-0.384258 z m -7.123148,1.21041 h 1.849232 c 0.249204,0 0.467858,0.05968 0.65804,0.17772 0.19018,0.11148 0.34177,0.261322 0.446696,0.451502 0.10492,0.18362 0.1537,0.374842 0.1537,0.571582 0,0.19674 -0.04878,0.386204 -0.1537,0.576384 -0.09836,0.18362 -0.242106,0.33826 -0.432288,0.456304 -0.18362,0.11804 -0.397934,0.17292 -0.634022,0.17292 h -1.887658 z m 15.816946,0.677254 c 0.25576,0 0.500558,0.03528 0.730086,0.10086 0.229528,0.06558 0.423796,0.14964 0.581188,0.25457 0,0.28855 -0.07186,0.554686 -0.216144,0.797332 -0.14428,0.242644 -0.338544,0.432108 -0.581186,0.576382 -0.242646,0.14428 -0.505734,0.220948 -0.787728,0.220948 -0.321338,0 -0.587474,-0.08886 -0.797332,-0.259368 -0.209854,-0.17052 -0.312208,-0.392212 -0.312208,-0.667648 0,-0.301666 0.1115,-0.549512 0.341028,-0.739692 0.236088,-0.19018 0.583238,-0.283388 1.042296,-0.283388 z" />
</svg>
