<?xml version="1.0" encoding="UTF-8" standalone="no"?>
<!-- Created with Inkscape (http://www.inkscape.org/) -->

<svg
   width="64"
   height="64"
   viewBox="0 0 64 64.000004"
   version="1.1"
   id="svg1"
   inkscape:version="1.4.2 (ebf0e940d0, 2025-05-08)"
   sodipodi:docname="google-sheets.svg"
   xmlns:inkscape="http://www.inkscape.org/namespaces/inkscape"
   xmlns:sodipodi="http://sodipodi.sourceforge.net/DTD/sodipodi-0.dtd"
   xmlns="http://www.w3.org/2000/svg"
   xmlns:svg="http://www.w3.org/2000/svg">
  <sodipodi:namedview
     id="namedview1"
     pagecolor="#ffffff"
     bordercolor="#000000"
     borderopacity="0.25"
     inkscape:showpageshadow="2"
     inkscape:pageopacity="0.0"
     inkscape:pagecheckerboard="0"
     inkscape:deskcolor="#d1d1d1"
     inkscape:document-units="px"
     inkscape:zoom="12.4375"
     inkscape:cx="31.959799"
     inkscape:cy="32"
     inkscape:window-width="1920"
     inkscape:window-height="1011"
     inkscape:window-x="0"
     inkscape:window-y="0"
     inkscape:window-maximized="1"
     inkscape:current-layer="svg1" />
  <defs
     id="defs1" />
  <rect
     style="opacity:0.2;fill:#000000;stroke-width:3.5"
     id="rect1"
     width="56"
     height="56"
     x="4"
     y="5"
     ry="12" />
  <rect
     style="fill:#fafafa;fill-opacity:1;stroke-width:2"
     id="rect2"
     width="56"
     height="56"
     x="4"
     y="4"
     ry="12" />
  <path
     d="m 20,12 c -1.661998,0 -3,1.338002 -3,3 v 34 c 0,1.661998 1.338002,3 3,3 h 24 c 1.661998,0 3,-1.338002 3,-3 V 22 l -8,-2 -2,-8 z"
     style="fill:#34a853;fill-opacity:1;stroke-width:0.999999;stroke-linecap:square;stroke-linejoin:bevel"
     id="path1151" />
  <path
     d="m 37,12 10,9.999999 H 37 Z"
     style="fill:#188038;fill-opacity:1;stroke-width:0.577351;stroke-linecap:square;stroke-linejoin:bevel"
     id="path1123" />
  <path
     id="rect1220"
     style="fill:#ffffff;stroke-width:1.22474;stroke-linecap:square;stroke-linejoin:bevel"
     d="M 23,29 V 41 H 41 V 29 Z m 2,2 h 6 v 3 h -6 z m 8,0 h 6 v 3 h -6 z m -8,5 h 6 v 3 h -6 z m 8,0 h 6 v 3 h -6 z"
     sodipodi:nodetypes="ccccccccccccccccccccccccc" />
</svg>
