<?xml version="1.0" encoding="UTF-8" standalone="no"?>
<!-- Created with Inkscape (http://www.inkscape.org/) -->

<svg
   width="64"
   height="64"
   viewBox="0 0 64 64.000004"
   version="1.1"
   id="svg1"
   inkscape:version="1.4.2 (ebf0e940d0, 2025-05-08)"
   sodipodi:docname="io.bassi.Amberol.svg"
   xmlns:inkscape="http://www.inkscape.org/namespaces/inkscape"
   xmlns:sodipodi="http://sodipodi.sourceforge.net/DTD/sodipodi-0.dtd"
   xmlns:xlink="http://www.w3.org/1999/xlink"
   xmlns="http://www.w3.org/2000/svg"
   xmlns:svg="http://www.w3.org/2000/svg">
  <sodipodi:namedview
     id="namedview1"
     pagecolor="#ffffff"
     bordercolor="#000000"
     borderopacity="0.25"
     inkscape:showpageshadow="2"
     inkscape:pageopacity="0.0"
     inkscape:pagecheckerboard="0"
     inkscape:deskcolor="#d1d1d1"
     inkscape:document-units="px"
     inkscape:zoom="12.625"
     inkscape:cx="31.960396"
     inkscape:cy="32"
     inkscape:window-width="1920"
     inkscape:window-height="1011"
     inkscape:window-x="0"
     inkscape:window-y="0"
     inkscape:window-maximized="1"
     inkscape:current-layer="svg1" />
  <defs
     id="defs1">
    <linearGradient
       inkscape:collect="always"
       xlink:href="#linearGradient4-1"
       id="linearGradient4"
       x1="16"
       y1="30"
       x2="16"
       y2="2"
       gradientUnits="userSpaceOnUse"
       gradientTransform="scale(2)" />
    <linearGradient
       id="linearGradient4-1"
       inkscape:collect="always">
      <stop
         style="stop-color:#38c4f2;stop-opacity:1;"
         offset="0"
         id="stop4" />
      <stop
         style="stop-color:#1872f6;stop-opacity:1;"
         offset="1"
         id="stop5" />
    </linearGradient>
  </defs>
  <rect
     style="opacity:0.2;fill:#000000;stroke-width:3.5"
     id="rect1"
     width="56"
     height="56"
     x="4"
     y="5"
     ry="12" />
  <rect
     style="fill:url(#linearGradient4);stroke-width:2"
     id="rect2"
     width="56"
     height="56"
     x="4"
     y="4"
     ry="11.999999" />
  <path
     id="path4648"
     style="fill:#ffffff;stroke-width:4.00001;stroke-linejoin:round"
     d="M 32,12 C 20.954336,12 12,20.954341 12,32 12,43.045662 20.954336,52.000001 32,52.000001 43.045662,52.000001 52.000001,43.045662 52.000001,32 52.000001,20.954341 43.045662,12 32,12 Z m -6.136721,10.001952 c 0.327206,-0.01193 0.669283,0.06106 0.990238,0.242188 l 14.140624,7.998047 c 1.342103,0.757427 1.342103,2.756242 0,3.513671 l -14.140624,7.998049 c -1.283829,0.724475 -2.851323,-0.24024 -2.853516,-1.75586 V 24.000001 c 0.0019,-1.136732 0.881664,-1.962043 1.863278,-1.998049 z" />
</svg>
