<?xml version="1.0" encoding="UTF-8" standalone="no"?>
<!-- Created with Inkscape (http://www.inkscape.org/) -->

<svg
   width="64"
   height="64"
   viewBox="0 0 64 64.000004"
   version="1.1"
   id="svg1"
   inkscape:version="1.4.2 (ebf0e940d0, 2025-05-08)"
   sodipodi:docname="io.github.seadve.Mousai.svg"
   xmlns:inkscape="http://www.inkscape.org/namespaces/inkscape"
   xmlns:sodipodi="http://sodipodi.sourceforge.net/DTD/sodipodi-0.dtd"
   xmlns:xlink="http://www.w3.org/1999/xlink"
   xmlns="http://www.w3.org/2000/svg"
   xmlns:svg="http://www.w3.org/2000/svg">
  <sodipodi:namedview
     id="namedview1"
     pagecolor="#ffffff"
     bordercolor="#000000"
     borderopacity="0.25"
     inkscape:showpageshadow="2"
     inkscape:pageopacity="0.0"
     inkscape:pagecheckerboard="0"
     inkscape:deskcolor="#d1d1d1"
     inkscape:document-units="px"
     inkscape:zoom="12.4375"
     inkscape:cx="31.959799"
     inkscape:cy="32"
     inkscape:window-width="1920"
     inkscape:window-height="1011"
     inkscape:window-x="0"
     inkscape:window-y="0"
     inkscape:window-maximized="1"
     inkscape:current-layer="svg1" />
  <defs
     id="defs1">
    <linearGradient
       inkscape:collect="always"
       xlink:href="#linearGradient1612"
       id="linearGradient4"
       x1="9.6488552"
       y1="15.099236"
       x2="30"
       y2="6.3155217"
       gradientUnits="userSpaceOnUse"
       gradientTransform="scale(2)" />
    <linearGradient
       inkscape:collect="always"
       id="linearGradient1612">
      <stop
         style="stop-color:#6b97df;stop-opacity:1;"
         offset="0"
         id="stop1608" />
      <stop
         style="stop-color:#c25298;stop-opacity:1;"
         offset="1"
         id="stop1610" />
    </linearGradient>
    <linearGradient
       inkscape:collect="always"
       id="linearGradient7676">
      <stop
         style="stop-color:#6b97df;stop-opacity:0;"
         offset="0"
         id="stop7672" />
      <stop
         style="stop-color:#e5565c;stop-opacity:1;"
         offset="1"
         id="stop7674" />
    </linearGradient>
    <linearGradient
       inkscape:collect="always"
       xlink:href="#linearGradient7676"
       id="linearGradient5"
       x1="9.653944"
       y1="16"
       x2="30"
       y2="26.015266"
       gradientUnits="userSpaceOnUse"
       gradientTransform="scale(2)" />
  </defs>
  <rect
     style="opacity:0.2;fill:#000000;stroke-width:3.5"
     id="rect1"
     width="56"
     height="56"
     x="4"
     y="5"
     ry="12" />
  <rect
     style="fill:url(#linearGradient4);stroke-width:2"
     id="rect2"
     width="56"
     height="56"
     x="4"
     y="4"
     ry="12" />
  <rect
     style="fill:url(#linearGradient5);stroke-width:2;stroke-linecap:round"
     id="rect3"
     width="56"
     height="56"
     x="4"
     y="4"
     ry="12" />
  <path
     d="M 24,16 V 33.078126 C 22.78446,32.373766 21.404868,32.001924 20,32 c -4.418276,0 -8,3.581722 -8,8 0,4.418276 3.581724,8 8,8 4.41828,0 8,-3.581724 8,-8 V 20 H 44 V 33.078126 C 42.78446,32.373766 41.404868,32.001924 40,32 c -4.418276,0 -8,3.581722 -8,8 0,4.418276 3.581724,8 8,8 4.418276,0 8,-3.581724 8,-8 V 16 M 20,36 c 2.20914,0 4,1.790862 4,4 0,2.20914 -1.79086,4 -4,4 -2.20914,0 -4,-1.79086 -4,-4 0,-2.209138 1.79086,-4 4,-4 z m 20,0 c 2.20914,0 4,1.790862 4,4 0,2.20914 -1.79086,4 -4,4 -2.20914,0 -4,-1.79086 -4,-4 0,-2.209138 1.79086,-4 4,-4 z"
     style="fill:#ffffff;stroke-width:4"
     id="path463" />
</svg>
