<?xml version="1.0" encoding="UTF-8" standalone="no"?>
<!-- Created with Inkscape (http://www.inkscape.org/) -->

<svg
   width="64"
   height="64"
   viewBox="0 0 64 64.000004"
   version="1.1"
   id="svg1"
   inkscape:version="1.4.2 (ebf0e940d0, 2025-05-08)"
   sodipodi:docname="java.svg"
   xmlns:inkscape="http://www.inkscape.org/namespaces/inkscape"
   xmlns:sodipodi="http://sodipodi.sourceforge.net/DTD/sodipodi-0.dtd"
   xmlns:xlink="http://www.w3.org/1999/xlink"
   xmlns="http://www.w3.org/2000/svg"
   xmlns:svg="http://www.w3.org/2000/svg">
  <sodipodi:namedview
     id="namedview1"
     pagecolor="#ffffff"
     bordercolor="#000000"
     borderopacity="0.25"
     inkscape:showpageshadow="2"
     inkscape:pageopacity="0.0"
     inkscape:pagecheckerboard="0"
     inkscape:deskcolor="#d1d1d1"
     inkscape:document-units="px"
     inkscape:zoom="12.421875"
     inkscape:cx="32"
     inkscape:cy="32"
     inkscape:window-width="1920"
     inkscape:window-height="1010"
     inkscape:window-x="0"
     inkscape:window-y="0"
     inkscape:window-maximized="1"
     inkscape:current-layer="svg1" />
  <defs
     id="defs1">
    <linearGradient
       inkscape:collect="always"
       id="linearGradient1606">
      <stop
         style="stop-color:#eaebed;stop-opacity:1;"
         offset="0"
         id="stop1602" />
      <stop
         style="stop-color:#f9fafa;stop-opacity:1;"
         offset="1"
         id="stop1604" />
    </linearGradient>
    <linearGradient
       inkscape:collect="always"
       xlink:href="#linearGradient1606"
       id="linearGradient4"
       x1="16"
       y1="30"
       x2="16"
       y2="2"
       gradientUnits="userSpaceOnUse"
       gradientTransform="scale(2)" />
  </defs>
  <rect
     style="opacity:0.2;fill:#000000;stroke-width:3.5"
     id="rect1"
     width="56"
     height="56"
     x="4"
     y="5"
     ry="12" />
  <rect
     style="fill:url(#linearGradient4);stroke-width:2"
     id="rect2"
     width="56"
     height="56"
     x="4"
     y="4"
     ry="12" />
  <path
     d="m 42.855492,33.632636 c -0.456642,8.98e-4 -0.94005,0.08536 -1.437488,0.26953 -0.398826,0.14874 -0.60937,0.492184 -0.60937,0.492184 0,0 0.254232,-0.10686 0.8164,-0.230468 2.298928,-0.50481 5.591842,3.241674 -1.531238,7.140568 -0.033,0.0929 -0.14462,0.19922 -0.14454,0.19922 8.471206,-2.346142 6.62461,-7.878346 2.906226,-7.871032 z M 27.246244,34.01154 c -0.90814,0.02504 -3.033098,0.232804 -5.50386,1.492174 -3.897316,1.985408 9.636382,2.891196 16.644394,0.949212 0.728496,-0.52385 1.734362,-0.976554 1.734362,-0.976554 0,0 -2.866748,0.536522 -5.72261,0.789054 -3.495296,0.308988 -7.242774,0.370836 -9.124926,0.10546 -4.456266,-0.62769 2.441388,-2.35545 2.441388,-2.35545 0,0 -0.16604,-0.0122 -0.468748,-0.004 z m -1.136708,4.542932 c -6.428128,2.248054 3.577448,4.800228 12.562398,2.031234 -0.954638,-0.354554 -1.55858,-1.003898 -1.55858,-1.003898 -4.392818,0.890774 -6.930388,0.861316 -10.14445,0.511714 -2.484856,-0.270558 -0.859368,-1.53905 -0.859368,-1.53905 z m 0.910148,4.378872 c -5.837194,1.71847 3.547856,5.269086 10.98038,1.914046 -1.2173,-0.498434 -2.089828,-1.07421 -2.089828,-1.07421 -3.314372,0.660094 -4.850806,0.713462 -7.85931,0.35156 -2.48297,-0.30001 -1.031242,-1.191396 -1.031242,-1.191396 z m -4.054654,2.90232 c -2.621366,0.0852 -7.750812,2.569418 -3.062474,3.371066 15.152392,2.587824 27.62168,-1.166782 23.691212,-3.035132 0,0 1.07589,0.935256 -1.179678,1.656236 -4.288996,1.368744 -17.85688,1.78156 -21.624824,0.05468 -1.353494,-0.621158 1.185394,-1.482194 1.98436,-1.664048 0.833094,-0.1899 1.308582,-0.15626 1.308582,-0.15626 -0.235376,-0.17464 -0.63174,-0.24234 -1.117178,-0.22656 z m 23.034968,2.37498 c 0,0 -0.476172,1.291216 -5.648392,2.316388 -5.835114,1.157434 -13.03668,1.023724 -17.304546,0.281248 0,0 0.874474,0.761798 5.367144,1.066398 6.83574,0.460474 17.337458,-0.255712 17.585794,-3.664034 z"
     style="fill:#5a87b6;fill-opacity:1;stroke-width:0.667296"
     id="path4299" />
  <path
     d="m 35.800864,12 c 1.590778,6.604118 -5.61134,8.598166 -8.210872,12.710834 -1.770206,2.801804 0.866668,5.81412 4.464808,9.234302 -1.40311,-3.34189 -6.1597,-6.265094 0.004,-11.39444 C 39.74464,16.158914 35.800864,12 35.800864,12 Z m 4.753866,8.167902 c 8.4e-5,0 -12.996106,3.420948 -6.789008,10.956942 1.83229,2.222266 -0.480464,4.222626 -0.480464,4.222626 0,0 4.650578,-2.531196 2.515606,-5.699176 -1.99475,-2.952974 -3.525406,-4.421186 4.753866,-9.480392 z"
     style="fill:#ff9955;stroke-width:0.667296"
     id="path4332" />
</svg>
