<?xml version="1.0" encoding="UTF-8" standalone="no"?>
<!-- Created with Inkscape (http://www.inkscape.org/) -->

<svg
   width="64"
   height="64"
   viewBox="0 0 64 64.000006"
   version="1.1"
   id="svg1"
   inkscape:version="1.4.2 (ebf0e940d0, 2025-05-08)"
   sodipodi:docname="jockey.svg"
   xmlns:inkscape="http://www.inkscape.org/namespaces/inkscape"
   xmlns:sodipodi="http://sodipodi.sourceforge.net/DTD/sodipodi-0.dtd"
   xmlns:xlink="http://www.w3.org/1999/xlink"
   xmlns="http://www.w3.org/2000/svg"
   xmlns:svg="http://www.w3.org/2000/svg">
  <sodipodi:namedview
     id="namedview1"
     pagecolor="#ffffff"
     bordercolor="#000000"
     borderopacity="0.25"
     inkscape:showpageshadow="2"
     inkscape:pageopacity="0.0"
     inkscape:pagecheckerboard="0"
     inkscape:deskcolor="#d1d1d1"
     inkscape:document-units="px"
     inkscape:zoom="12.4375"
     inkscape:cx="31.959799"
     inkscape:cy="32"
     inkscape:window-width="1920"
     inkscape:window-height="1011"
     inkscape:window-x="0"
     inkscape:window-y="0"
     inkscape:window-maximized="1"
     inkscape:current-layer="svg1"
     showguides="false" />
  <defs
     id="defs1">
    <linearGradient
       inkscape:collect="always"
       xlink:href="#linearGradient1940"
       id="linearGradient4"
       x1="16"
       y1="30"
       x2="16"
       y2="2"
       gradientUnits="userSpaceOnUse"
       gradientTransform="scale(2)" />
    <linearGradient
       inkscape:collect="always"
       id="linearGradient1940">
      <stop
         style="stop-color:#28b013;stop-opacity:1;"
         offset="0"
         id="stop1936" />
      <stop
         style="stop-color:#4ac265;stop-opacity:1;"
         offset="1"
         id="stop1938" />
    </linearGradient>
    <linearGradient
       inkscape:collect="always"
       xlink:href="#linearGradient981"
       id="linearGradient6"
       x1="11"
       y1="4"
       x2="11"
       y2="18"
       gradientUnits="userSpaceOnUse"
       gradientTransform="matrix(2.4285712,0,0,2.4285712,5.2857148,5.2857148)" />
    <linearGradient
       inkscape:collect="always"
       id="linearGradient981">
      <stop
         style="stop-color:#858585;stop-opacity:1;"
         offset="0"
         id="stop977" />
      <stop
         style="stop-color:#595959;stop-opacity:1;"
         offset="1"
         id="stop979" />
    </linearGradient>
  </defs>
  <rect
     style="opacity:0.2;fill:#000000;stroke-width:4.9"
     id="rect1"
     width="56"
     height="56"
     x="4"
     y="5"
     ry="12" />
  <rect
     style="fill:url(#linearGradient4);stroke-width:2"
     id="rect2"
     width="56"
     height="56"
     x="4"
     y="4"
     ry="12" />
  <path
     id="rect7545"
     style="fill:#f2f2f2;stroke-width:4.23623;stroke-linecap:round;stroke-linejoin:round"
     d="m 25,11 c -0.553998,0 -1,0.446002 -1,1 V 24 H 12 c -0.553998,0 -1,0.446002 -1,1 0,0.553999 0.446002,1 1,1 h 12 v 5 H 12 c -0.553998,0 -1,0.446002 -1,1 0,0.553998 0.446002,1 1,1 h 12 v 5 H 12 c -0.553998,0 -1,0.446002 -1,1 0,0.553998 0.446002,1 1,1 h 12 v 12 c 0,0.553998 0.446002,1 1,1 0.553998,0 1,-0.446002 1,-1 V 40 h 5 v 12 c 0,0.553998 0.446002,1 1,1 0.553998,0 1,-0.446002 1,-1 V 40 h 5 v 12 c 0,0.553998 0.446002,1 1,1 0.553998,0 1,-0.446002 1,-1 V 40 h 12 c 0.553998,0 1,-0.446002 1,-1 0,-0.553998 -0.446002,-1 -1,-1 H 40 v -5 h 12 c 0.553998,0 1,-0.446002 1,-1 0,-0.553998 -0.446002,-1 -1,-1 H 40 v -5 h 12 c 0.553998,0 1,-0.446001 1,-1 0,-0.553998 -0.446002,-1 -1,-1 H 40 V 12 c 0,-0.553998 -0.446002,-1 -1,-1 -0.553998,0 -1,0.446002 -1,1 V 24 H 33 V 12 c 0,-0.553998 -0.446002,-1 -1,-1 -0.553998,0 -1,0.446002 -1,1 V 24 H 26 V 12 c 0,-0.553998 -0.446002,-1 -1,-1 z m 1,15 h 5 v 5 h -5 z m 7,0 h 5 v 5 h -5 z m -7,7 h 5 v 5 h -5 z m 7,0 h 5 v 5 h -5 z" />
  <rect
     style="opacity:0.2;fill:#000000;stroke-width:4.85714"
     id="rect3"
     width="34"
     height="34"
     x="15"
     y="16"
     ry="6" />
  <rect
     style="opacity:1;fill:url(#linearGradient6);stroke-width:4.85714"
     id="rect4"
     width="34"
     height="34"
     x="15"
     y="15"
     ry="6" />
</svg>
