<?xml version="1.0" encoding="UTF-8" standalone="no"?>
<!-- Created with Inkscape (http://www.inkscape.org/) -->

<svg
   width="64"
   height="64"
   viewBox="0 0 64 64.000004"
   version="1.1"
   id="svg1"
   inkscape:version="1.4.2 (ebf0e940d0, 2025-05-08)"
   sodipodi:docname="konqueror.svg"
   xmlns:inkscape="http://www.inkscape.org/namespaces/inkscape"
   xmlns:sodipodi="http://sodipodi.sourceforge.net/DTD/sodipodi-0.dtd"
   xmlns:xlink="http://www.w3.org/1999/xlink"
   xmlns="http://www.w3.org/2000/svg"
   xmlns:svg="http://www.w3.org/2000/svg">
  <sodipodi:namedview
     id="namedview1"
     pagecolor="#ffffff"
     bordercolor="#000000"
     borderopacity="0.25"
     inkscape:showpageshadow="2"
     inkscape:pageopacity="0.0"
     inkscape:pagecheckerboard="0"
     inkscape:deskcolor="#d1d1d1"
     inkscape:document-units="px"
     inkscape:zoom="12.4375"
     inkscape:cx="31.959799"
     inkscape:cy="32"
     inkscape:window-width="1920"
     inkscape:window-height="1011"
     inkscape:window-x="0"
     inkscape:window-y="0"
     inkscape:window-maximized="1"
     inkscape:current-layer="svg1" />
  <defs
     id="defs1">
    <linearGradient
       inkscape:collect="always"
       xlink:href="#linearGradient1871"
       id="linearGradient4"
       x1="16"
       y1="30"
       x2="16"
       y2="2"
       gradientUnits="userSpaceOnUse"
       gradientTransform="scale(2)" />
    <linearGradient
       inkscape:collect="always"
       id="linearGradient1871">
      <stop
         style="stop-color:#3daee9;stop-opacity:1;"
         offset="0"
         id="stop1867" />
      <stop
         style="stop-color:#76c6ee;stop-opacity:1;"
         offset="1"
         id="stop1869" />
    </linearGradient>
  </defs>
  <rect
     style="opacity:0.2;fill:#000000;stroke-width:3.5"
     id="rect1"
     width="56"
     height="56"
     x="4"
     y="5"
     ry="12" />
  <rect
     style="fill:url(#linearGradient4);stroke-width:2"
     id="rect2"
     width="56"
     height="56"
     x="4"
     y="4"
     ry="12" />
  <circle
     style="fill:#3daee9;fill-opacity:1;stroke-width:1.45455;stroke-linecap:round"
     id="path1"
     cx="32"
     cy="32"
     r="16" />
  <path
     id="path3699"
     style="opacity:0.6;fill:#ffffff;stroke-width:2;stroke-linecap:round;stroke-linejoin:round"
     d="m 38.571992,10.91 c -0.759362,1.108376 -2.812002,3.441382 -4.14386,4.77791 l -0.590468,1.425518 c 1.31113,0.1626 2.623414,0.498948 3.903304,1.029096 1.27989,0.530148 2.445656,1.22023 3.487732,2.03237 l 0.59047,-1.425516 c 0.0034,-1.886834 0.20155,-4.987954 0.44834,-6.308644 z m -13.14185,0.0023 -3.695124,1.53057 c 0.24679,1.32069 0.44499,4.421138 0.448294,6.30797 l 0.58982,1.42395 c 2.138926,-1.665396 4.700188,-2.726304 7.390244,-3.061148 l -0.589818,-1.42395 c -1.331854,-1.336528 -3.384054,-3.669024 -4.143416,-4.7774 z m 26.128466,10.822766 c -1.320688,0.24679 -4.421136,0.44499 -6.307968,0.448294 l -1.42395,0.58982 c 1.665388,2.138926 2.7263,4.700188 3.061142,7.390246 l 1.423948,-0.58982 c 1.336528,-1.331854 3.669022,-3.384056 4.7774,-4.143416 z m -32.80923,0.447236 c -1.886834,-0.0034 -4.987954,-0.20155 -6.308644,-0.44834 L 10.91,25.42944 c 1.108376,0.759362 3.441382,2.812002 4.77791,4.14386 l 1.425518,0.590468 c 0.1626,-1.31113 0.498948,-2.623412 1.029096,-3.903304 0.530148,-1.279888 1.22023,-2.445656 2.03237,-3.487732 z m 28.138628,11.655402 c -0.1626,1.31113 -0.49895,2.623414 -1.029098,3.903304 -0.530148,1.27989 -1.22023,2.445656 -2.03237,3.487732 l 1.425516,0.59047 c 1.886834,0.0034 4.987956,0.20155 6.308644,0.44834 l 1.530734,-3.695518 c -1.108372,-0.75936 -3.441382,-2.812002 -4.77791,-4.14386 z m -29.774404,3.92e-4 -1.42395,0.589818 c -1.336528,1.331854 -3.669024,3.384056 -4.777399,4.143416 l 1.530571,3.695124 c 1.32069,-0.246792 4.421138,-0.444988 6.307968,-0.448296 l 1.42395,-0.589816 c -1.665388,-2.138928 -2.726298,-4.70019 -3.06114,-7.390246 z m 24.1147,9.988634 c -2.138928,1.66539 -4.70019,2.7263 -7.390248,3.061142 l 0.58982,1.423948 c 1.331854,1.336528 3.384056,3.669022 4.143416,4.7774 l 3.695124,-1.530572 C 42.019622,50.23792 41.821426,47.137472 41.818118,45.25064 Z m -18.45557,-1.52e-4 -0.59047,1.425516 c -0.0034,1.886834 -0.20155,4.987956 -0.44834,6.308644 l 3.695518,1.530734 c 0.759362,-1.108374 2.812002,-3.441382 4.14386,-4.77791 l 0.590468,-1.425516 c -1.31113,-0.1626 -2.623412,-0.498948 -3.903304,-1.029098 -1.279888,-0.530146 -2.445656,-1.22023 -3.487732,-2.03237 z" />
  <path
     id="path285"
     style="fill:#ffffff;stroke-width:3.6;stroke-linecap:round;stroke-linejoin:round"
     d="m 32.000716,14.000716 c -9.941096,0 -18,8.058904 -18,18 0,9.941096 8.058904,18 18,18 9.941096,0 18,-8.058904 18,-18 0,-9.941096 -8.058904,-18 -18,-18 z m 0,4 a 14,14 0 0 1 14,14 14,14 0 0 1 -14,14 14,14 0 0 1 -14,-14 14,14 0 0 1 14,-14 z" />
  <path
     d="m 31.993806,18.000716 c -1.016616,0 -2.005232,0.112 -2.958308,0.315524 L 27.793806,20.800606 25.917802,19.3942 c -3.364306,1.617476 -5.970462,4.53044 -7.177694,8.108918 l 2.753694,-1.101652 2.1,1.59925 0.7,-2.299222 9.1,-4.899812 -0.554616,-2.772968 c -0.28,-0.0162 -0.561074,-0.02688 -0.845384,-0.02688 m 10.367544,4.597204 -0.56754,1.702552 0.7,0.699972 -2.8,4.199842 1.40091,4.799312 4.641704,0.68201 c 0.16694,-0.867962 0.257376,-1.762852 0.257376,-2.681434 0,-2.397136 -0.599844,-4.647818 -1.653074,-6.617436 l -1.146916,-0.382292 0.41677,-0.83566 C 43.235808,23.610192 42.809348,23.094364 42.361348,22.599 m -24.089696,6.60236 c -0.154,0.76674 -0.242312,1.559326 -0.267092,2.366986 l 4.889232,1.832854 -0.7,-2.099922 -1.4,-1.300562 z m 4.622154,4.19984 3.5,8.399676 v 3.036806 c 1.714462,0.745204 3.60554,1.163034 5.6,1.163034 0.13894,0 0.275688,-0.0054 0.414614,-0.0098 l 4.485386,-7.9902 -11.2,-5.999466 z"
     style="fill:#97e286;fill-opacity:1;stroke-width:2.8"
     id="path677"
     sodipodi:nodetypes="cccccccccccccccccscccccccccccccscccc" />
</svg>
