<?xml version="1.0" encoding="UTF-8" standalone="no"?>
<!-- Created with Inkscape (http://www.inkscape.org/) -->

<svg
   width="64"
   height="64"
   viewBox="0 0 64 64.000004"
   version="1.1"
   id="svg1"
   inkscape:version="1.4 (e7c3feb100, 2024-10-09)"
   sodipodi:docname="libreoffice-writer.svg"
   xmlns:inkscape="http://www.inkscape.org/namespaces/inkscape"
   xmlns:sodipodi="http://sodipodi.sourceforge.net/DTD/sodipodi-0.dtd"
   xmlns:xlink="http://www.w3.org/1999/xlink"
   xmlns="http://www.w3.org/2000/svg"
   xmlns:svg="http://www.w3.org/2000/svg">
  <sodipodi:namedview
     id="namedview1"
     pagecolor="#ffffff"
     bordercolor="#000000"
     borderopacity="0.25"
     inkscape:showpageshadow="2"
     inkscape:pageopacity="0.0"
     inkscape:pagecheckerboard="0"
     inkscape:deskcolor="#d1d1d1"
     inkscape:document-units="px"
     inkscape:zoom="12.28125"
     inkscape:cx="32.040712"
     inkscape:cy="32"
     inkscape:window-width="1920"
     inkscape:window-height="1011"
     inkscape:window-x="0"
     inkscape:window-y="0"
     inkscape:window-maximized="1"
     inkscape:current-layer="svg1" />
  <defs
     id="defs1">
    <linearGradient
       inkscape:collect="always"
       xlink:href="#linearGradient976"
       id="linearGradient4"
       x1="16"
       y1="30"
       x2="16"
       y2="2"
       gradientUnits="userSpaceOnUse"
       gradientTransform="scale(2)" />
    <linearGradient
       inkscape:collect="always"
       id="linearGradient976">
      <stop
         style="stop-color:#086bc8;stop-opacity:1;"
         offset="0"
         id="stop972" />
      <stop
         style="stop-color:#1ca3fa;stop-opacity:1;"
         offset="1"
         id="stop974" />
    </linearGradient>
  </defs>
  <rect
     style="opacity:0.2;fill:#000000;stroke-width:3.5"
     id="rect1"
     width="56"
     height="56"
     x="4"
     y="5"
     ry="12" />
  <rect
     style="fill:url(#linearGradient4);stroke-width:2"
     id="rect2"
     width="56"
     height="56"
     x="4"
     y="4"
     ry="12" />
  <path
     id="rect4373"
     style="fill:#ffffff;stroke-width:2"
     d="m 17,20 c -0.553999,0 -1,0.446 -1,1 0,0.554 0.446001,1 1,1 h 12 c 0.554,0 1,-0.446 1,-1 0,-0.554 -0.446,-1 -1,-1 z m 0,4 c -0.553999,0 -1,0.446 -1,1 0,0.554 0.446001,1 1,1 h 12 c 0.554,0 1,-0.446 1,-1 0,-0.554 -0.446,-1 -1,-1 z m 0,4 c -0.553999,0 -1,0.446 -1,1 0,0.554 0.446001,1 1,1 h 12 c 0.554,0 1,-0.446 1,-1 0,-0.554 -0.446,-1 -1,-1 z m 0,6 c -0.553999,0 -1,0.446 -1,1 0,0.554 0.446001,1 1,1 h 30 c 0.554,0 1,-0.446 1,-1 0,-0.554 -0.446,-1 -1,-1 z m 0,4 c -0.553999,0 -1,0.446 -1,1 0,0.554 0.446001,1 1,1 h 30 c 0.554,0 1,-0.446 1,-1 0,-0.554 -0.446,-1 -1,-1 z m 0,4 c -0.553999,0 -1,0.446 -1,1 0,0.554 0.446001,1 1,1 h 12 c 0.554,0 1,-0.446 1,-1 0,-0.554 -0.446,-1 -1,-1 z" />
  <path
     id="rect4649"
     style="fill:#7ad2f9;fill-opacity:1;stroke-width:2"
     d="m 36,20 c -1.107998,0 -2,0.892002 -2,2 v 6 c 0,1.107998 0.892002,2 2,2 h 10 c 1.107998,0 2,-0.892002 2,-2 v -6 c 0,-1.107998 -0.892002,-2 -2,-2 z m 2,3 6,5 h -8 z m 7,-1 c 0.552284,0 1,0.447716 1,1 0,0.552284 -0.447716,1 -1,1 -0.552284,0 -1,-0.447716 -1,-1 0,-0.552284 0.447716,-1 1,-1 z"
     sodipodi:nodetypes="sssssssssccccsssss" />
</svg>
