<?xml version="1.0" encoding="UTF-8" standalone="no"?>
<!-- Created with Inkscape (http://www.inkscape.org/) -->

<svg
   width="64"
   height="64"
   viewBox="0 0 64 64.000004"
   version="1.1"
   id="svg1"
   inkscape:version="1.4.2 (ebf0e940d0, 2025-05-08)"
   sodipodi:docname="libreoffice-base.svg"
   xmlns:inkscape="http://www.inkscape.org/namespaces/inkscape"
   xmlns:sodipodi="http://sodipodi.sourceforge.net/DTD/sodipodi-0.dtd"
   xmlns:xlink="http://www.w3.org/1999/xlink"
   xmlns="http://www.w3.org/2000/svg"
   xmlns:svg="http://www.w3.org/2000/svg">
  <sodipodi:namedview
     id="namedview1"
     pagecolor="#ffffff"
     bordercolor="#000000"
     borderopacity="0.25"
     inkscape:showpageshadow="2"
     inkscape:pageopacity="0.0"
     inkscape:pagecheckerboard="0"
     inkscape:deskcolor="#d1d1d1"
     inkscape:document-units="px"
     inkscape:zoom="12.421875"
     inkscape:cx="32"
     inkscape:cy="32"
     inkscape:window-width="1920"
     inkscape:window-height="1010"
     inkscape:window-x="0"
     inkscape:window-y="0"
     inkscape:window-maximized="1"
     inkscape:current-layer="svg1" />
  <defs
     id="defs1">
    <linearGradient
       inkscape:collect="always"
       xlink:href="#linearGradient1370"
       id="linearGradient4"
       x1="16"
       y1="30"
       x2="16"
       y2="2"
       gradientUnits="userSpaceOnUse"
       gradientTransform="scale(2)" />
    <linearGradient
       inkscape:collect="always"
       id="linearGradient1370">
      <stop
         style="stop-color:#8a0ac2;stop-opacity:1;"
         offset="0"
         id="stop1366" />
      <stop
         style="stop-color:#d378e5;stop-opacity:1;"
         offset="1"
         id="stop1368" />
    </linearGradient>
  </defs>
  <rect
     style="opacity:0.2;fill:#000000;stroke-width:3.5"
     id="rect1"
     width="56"
     height="56"
     x="4"
     y="5"
     ry="12" />
  <rect
     style="fill:url(#linearGradient4);stroke-width:2"
     id="rect2"
     width="56"
     height="56"
     x="4"
     y="4"
     ry="12" />
  <path
     id="path525"
     style="fill:#e88ff7;fill-opacity:1;stroke-width:1.93649;stroke-linecap:round;stroke-linejoin:round"
     d="M 23.5,20 C 19.357877,20 16,20.807828 16,22 v 3 c 0,1.192172 3.357877,2 7.5,2 4.142123,0 7.5,-0.807828 7.5,-2 v -3 c 0,-1.192172 -3.357877,-2 -7.5,-2 z M 16,27 v 4 c 0,1.192171 3.357881,2 7.5,2 4.142119,0 7.5,-0.807829 7.5,-2 v -4 c 0,1.192171 -3.357881,2 -7.5,2 C 19.357881,29 16,28.192171 16,27 Z m 0,6 v 4 c 0,1.192171 3.357881,2 7.5,2 4.142119,0 7.5,-0.807829 7.5,-2 v -4 c 0,1.192171 -3.357881,2 -7.5,2 C 19.357881,35 16,34.192171 16,33 Z m 0,6 v 4 c 0,1.192171 3.357881,2 7.5,2 4.142119,0 7.5,-0.807829 7.5,-2 v -4 c 0,1.192171 -3.357881,2 -7.5,2 C 19.357881,41 16,40.192171 16,39 Z" />
  <path
     id="rect523"
     style="fill:#ffffff"
     d="m 36,24 c -1.107999,0 -2,0.892001 -2,2 v 16 c 0,1.107999 0.892001,2 2,2 h 10 c 1.107999,0 2,-0.892001 2,-2 V 26 c 0,-1.107999 -0.892001,-2 -2,-2 z m 0,2 h 4 v 4 h -4 z m 6,0 h 4 v 4 h -4 z m -6,6 h 4 v 4 h -4 z m 6,0 h 4 v 4 h -4 z m -6,6 h 4 v 4 h -4 z m 6,0 h 4 v 4 h -4 z"
     sodipodi:nodetypes="ssssssssscccccccccccccccccccccccccccccc" />
</svg>
