<?xml version="1.0" encoding="UTF-8" standalone="no"?>
<!-- Created with Inkscape (http://www.inkscape.org/) -->

<svg
   width="64"
   height="64"
   viewBox="0 0 64 64.000006"
   version="1.1"
   id="svg1"
   inkscape:version="1.4.2 (ebf0e940d0, 2025-05-08)"
   sodipodi:docname="lollypop.svg"
   xmlns:inkscape="http://www.inkscape.org/namespaces/inkscape"
   xmlns:sodipodi="http://sodipodi.sourceforge.net/DTD/sodipodi-0.dtd"
   xmlns:xlink="http://www.w3.org/1999/xlink"
   xmlns="http://www.w3.org/2000/svg"
   xmlns:svg="http://www.w3.org/2000/svg">
  <sodipodi:namedview
     id="namedview1"
     pagecolor="#ffffff"
     bordercolor="#000000"
     borderopacity="0.25"
     inkscape:showpageshadow="2"
     inkscape:pageopacity="0.0"
     inkscape:pagecheckerboard="0"
     inkscape:deskcolor="#d1d1d1"
     inkscape:document-units="px"
     inkscape:zoom="12.28125"
     inkscape:cx="32.040712"
     inkscape:cy="32"
     inkscape:window-width="1920"
     inkscape:window-height="1011"
     inkscape:window-x="0"
     inkscape:window-y="0"
     inkscape:window-maximized="1"
     inkscape:current-layer="svg1" />
  <defs
     id="defs1">
    <linearGradient
       inkscape:collect="always"
       id="linearGradient1606">
      <stop
         style="stop-color:#eaebed;stop-opacity:1;"
         offset="0"
         id="stop1602" />
      <stop
         style="stop-color:#f9fafa;stop-opacity:1;"
         offset="1"
         id="stop1604" />
    </linearGradient>
    <linearGradient
       inkscape:collect="always"
       xlink:href="#linearGradient1606"
       id="linearGradient4"
       x1="16"
       y1="30"
       x2="16"
       y2="2"
       gradientUnits="userSpaceOnUse"
       gradientTransform="matrix(1.9999925,0,0,1.9999925,3.71e-5,1.5e-5)" />
    <linearGradient
       inkscape:collect="always"
       id="linearGradient5215">
      <stop
         style="stop-color:#e64686;stop-opacity:1;"
         offset="0"
         id="stop5211" />
      <stop
         style="stop-color:#ec7e93;stop-opacity:1;"
         offset="1"
         id="stop5213" />
    </linearGradient>
    <linearGradient
       inkscape:collect="always"
       xlink:href="#linearGradient1606"
       id="linearGradient5279"
       x1="7.99999"
       y1="15.777743"
       x2="7.99999"
       y2="0.22222188"
       gradientUnits="userSpaceOnUse"
       gradientTransform="matrix(3.5999943,0,0,3.5999943,3.1999995,3.2000025)" />
    <linearGradient
       inkscape:collect="always"
       xlink:href="#linearGradient5215"
       id="linearGradient11784"
       x1="11"
       y1="21"
       x2="11"
       y2="1"
       gradientUnits="userSpaceOnUse"
       gradientTransform="matrix(2.7999895,0,0,2.7999895,1.2004375,1.2000105)" />
    <linearGradient
       inkscape:collect="always"
       xlink:href="#linearGradient5215"
       id="linearGradient6178"
       x1="8.2222185"
       y1="16.399132"
       x2="8.2222185"
       y2="-0.39916459"
       gradientUnits="userSpaceOnUse"
       gradientTransform="matrix(3.5999847,0,0,3.3336591,2.4000582,5.3306788)" />
  </defs>
  <rect
     style="opacity:0.2;fill:#000000;stroke-width:4.9"
     id="rect1"
     width="56"
     height="56"
     x="4.0000253"
     y="4.9999952"
     ry="12.00002" />
  <rect
     style="fill:url(#linearGradient4);stroke-width:1.99999"
     id="rect2"
     width="55.99979"
     height="55.99979"
     x="4.0000219"
     y="4"
     ry="11.999981" />
  <path
     id="path10967"
     style="fill:url(#linearGradient11784);fill-opacity:1;stroke-width:6.64079;stroke-linecap:round;stroke-linejoin:round"
     d="m 24.156234,4 c -0.317185,2.0510491 -0.559435,4.375649 -0.554687,6.999989 -0.02954,11.702517 8.394937,20.99612 8.398425,20.999966 0,0 1.755199,-15.447253 9.519517,-27.999955 z m 7.843738,27.999955 c 0,0 13.570224,-6.05943 27.999955,-5.878896 -0.012,-6.500593 -0.0032,-2.570174 0,-10.121078 0,-0.02667 1.72e-4,-0.05149 0,-0.07813 -0.01495,-2.313863 -0.680351,-4.469867 -1.820309,-6.292958 -6.415224,1.156842 -8.319823,2.376592 -12.191387,4.597649 -10.150235,5.826132 -13.987265,17.770311 -13.988259,17.773409 z m 0,0 c 0,0 16.263122,9.458525 21.031216,26.906207 4.118971,-1.895187 6.966129,-6.0522 6.968739,-10.89842 v -0.0078 -8.999986 C 58.423995,37.74914 56.577257,36.48373 54.39056,35.226512 44.269932,29.349261 32.00332,31.999233 31.999972,31.999955 Z m 0,0 c -0.0011,0.02718 -0.617997,15.857055 -9.519517,27.999955 h 17.640598 c 0.310738,-2.039122 0.282116,-4.360975 0.277344,-6.999988 0.02925,-11.698562 -8.389243,-20.989843 -8.398425,-20.999967 z m 0,0 c 0,0 -13.566165,6.063461 -27.9960479,5.882803 -0.00396,2.697958 -0.00358,6.719061 -0.0039,10.117172 0,0.014 -4.72e-5,0.02904 0,0.04296 0.00758,2.244698 0.6238482,4.338654 1.6953097,6.128898 C 10.232918,53.45879 14.210379,51.977245 18.011714,49.773364 28.153682,43.95165 31.992842,32.022125 31.999972,31.999955 Z m 0,0 c 0,0 -15.607433,-9.884396 -21.863245,-26.4843325 -3.4177966,1.9085109 -5.7927553,5.4401975 -6.101553,9.5663905 0.006,3.732606 0.00348,7.550693 -0.01954,9.933577 1.5691141,1.23938 3.3961177,2.494306 5.593741,3.757808 10.116027,5.874249 22.375759,3.229761 22.390597,3.226557 z" />
  <circle
     style="fill:url(#linearGradient5279);fill-opacity:1;stroke-width:7.2;stroke-linecap:round;stroke-linejoin:round"
     id="path5271"
     cx="31.999954"
     cy="31.999954"
     r="17.999971" />
  <path
     d="m 25.141521,22.091645 c -0.626039,-0.333368 -1.141197,0.333365 -1.141557,1.000098 v 17.815406 c -6e-6,0.840083 0.929589,1.364802 1.673382,0.945093 l 7.884325,-4.45377 7.88469,-4.453767 c 0.743432,-0.420043 0.743432,-1.470143 0,-1.890518 l -7.88469,-4.45377 -7.884325,-4.453766 c -0.16194,-0.09334 -0.344736,-0.14334 -0.531645,-0.14668 z"
     style="fill:url(#linearGradient6178);fill-opacity:1;stroke-width:3.46427"
     id="path5776" />
</svg>
