<?xml version="1.0" encoding="UTF-8" standalone="no"?>
<!-- Created with Inkscape (http://www.inkscape.org/) -->

<svg
   width="64"
   height="64"
   viewBox="0 0 64 64.000004"
   version="1.1"
   id="svg1"
   inkscape:version="1.4.2 (ebf0e940d0, 2025-05-08)"
   sodipodi:docname="mpv.svg"
   xmlns:inkscape="http://www.inkscape.org/namespaces/inkscape"
   xmlns:sodipodi="http://sodipodi.sourceforge.net/DTD/sodipodi-0.dtd"
   xmlns:xlink="http://www.w3.org/1999/xlink"
   xmlns="http://www.w3.org/2000/svg"
   xmlns:svg="http://www.w3.org/2000/svg">
  <sodipodi:namedview
     id="namedview1"
     pagecolor="#ffffff"
     bordercolor="#000000"
     borderopacity="0.25"
     inkscape:showpageshadow="2"
     inkscape:pageopacity="0.0"
     inkscape:pagecheckerboard="0"
     inkscape:deskcolor="#d1d1d1"
     inkscape:document-units="px"
     inkscape:zoom="12.4375"
     inkscape:cx="31.959799"
     inkscape:cy="32"
     inkscape:window-width="1920"
     inkscape:window-height="1011"
     inkscape:window-x="0"
     inkscape:window-y="0"
     inkscape:window-maximized="1"
     inkscape:current-layer="svg1" />
  <defs
     id="defs1">
    <linearGradient
       inkscape:collect="always"
       xlink:href="#linearGradient6304"
       id="linearGradient4"
       x1="16"
       y1="30"
       x2="16"
       y2="2"
       gradientUnits="userSpaceOnUse"
       gradientTransform="scale(2)" />
    <linearGradient
       inkscape:collect="always"
       id="linearGradient6304">
      <stop
         style="stop-color:#8d348e;stop-opacity:1;"
         offset="0"
         id="stop6300" />
      <stop
         style="stop-color:#c275c3;stop-opacity:1;"
         offset="1"
         id="stop6302" />
    </linearGradient>
  </defs>
  <rect
     style="opacity:0.2;fill:#000000;stroke-width:3.5"
     id="rect1"
     width="56"
     height="56"
     x="4"
     y="5"
     ry="12" />
  <rect
     style="fill:url(#linearGradient4);stroke-width:2"
     id="rect2"
     width="56"
     height="56"
     x="4"
     y="4"
     ry="12" />
  <path
     id="path4648"
     style="fill:#ffffff;stroke-width:4;stroke-linejoin:round"
     d="M 32,12 C 20.954336,12 12,20.95434 12,32 12,43.045662 20.954336,52 32,52 43.045662,52 52,43.045662 52,32 52,20.95434 43.045662,12 32,12 Z m -6.13672,10.001952 c 0.327204,-0.012 0.669282,0.06106 0.990236,0.242188 l 14.140624,7.998048 c 1.342104,0.757426 1.342104,2.75624 0,3.51367 L 26.853516,41.753906 C 25.569688,42.478382 24.002194,41.513676 24,39.998046 V 24 c 0.0019,-1.136732 0.881664,-1.962042 1.86328,-1.998048 z" />
</svg>
