<?xml version="1.0" encoding="UTF-8" standalone="no"?>
<!-- Created with Inkscape (http://www.inkscape.org/) -->

<svg
   width="64"
   height="64"
   viewBox="0 0 64 64.000004"
   version="1.1"
   id="svg1"
   inkscape:version="1.4 (e7c3feb100, 2024-10-09)"
   sodipodi:docname="multimedia-audio-player.svg"
   xmlns:inkscape="http://www.inkscape.org/namespaces/inkscape"
   xmlns:sodipodi="http://sodipodi.sourceforge.net/DTD/sodipodi-0.dtd"
   xmlns:xlink="http://www.w3.org/1999/xlink"
   xmlns="http://www.w3.org/2000/svg"
   xmlns:svg="http://www.w3.org/2000/svg">
  <sodipodi:namedview
     id="namedview1"
     pagecolor="#ffffff"
     bordercolor="#000000"
     borderopacity="0.25"
     inkscape:showpageshadow="2"
     inkscape:pageopacity="0.0"
     inkscape:pagecheckerboard="0"
     inkscape:deskcolor="#d1d1d1"
     inkscape:document-units="px"
     inkscape:zoom="12.625"
     inkscape:cx="31.960396"
     inkscape:cy="32"
     inkscape:window-width="1920"
     inkscape:window-height="1011"
     inkscape:window-x="0"
     inkscape:window-y="0"
     inkscape:window-maximized="1"
     inkscape:current-layer="svg1" />
  <defs
     id="defs1">
    <linearGradient
       inkscape:collect="always"
       xlink:href="#linearGradient7048"
       id="linearGradient4"
       x1="16"
       y1="30"
       x2="16"
       y2="2"
       gradientUnits="userSpaceOnUse"
       gradientTransform="scale(2)" />
    <linearGradient
       inkscape:collect="always"
       id="linearGradient7048">
      <stop
         style="stop-color:#f65555;stop-opacity:1;"
         offset="0"
         id="stop7044" />
      <stop
         style="stop-color:#ed6ca7;stop-opacity:1;"
         offset="1"
         id="stop7046" />
    </linearGradient>
  </defs>
  <rect
     style="opacity:0.2;fill:#000000;stroke-width:3.5"
     id="rect1"
     width="56"
     height="56"
     x="4"
     y="5"
     ry="12" />
  <rect
     style="fill:url(#linearGradient4);stroke-width:2"
     id="rect2"
     width="56"
     height="56"
     x="4"
     y="4"
     ry="12" />
  <path
     id="path5172"
     style="fill:#ffffff;stroke-width:1.5;stroke-linecap:round;stroke-linejoin:round"
     d="M 48,12 24,16.999742 V 39.529296 C 22.900168,38.544866 21.476054,38.000394 20,38 c -3.313708,0 -6,2.686292 -6,6 0,3.313708 2.686292,6 6,6 3.313708,0 6,-2.686292 6,-6 V 22 L 46,18 V 36.529296 C 44.900168,35.544866 43.476054,35.000394 42,35 c -3.313708,0 -6,2.686292 -6,6 0,3.313708 2.686292,6 6,6 3.313708,0 6,-2.686292 6,-6 z"
     sodipodi:nodetypes="ccccsssccccsscc" />
</svg>
