<?xml version="1.0" encoding="UTF-8" standalone="no"?>
<!-- Created with Inkscape (http://www.inkscape.org/) -->

<svg
   width="64"
   height="64"
   viewBox="0 0 64 64.000004"
   version="1.1"
   id="svg1"
   inkscape:version="1.4.2 (ebf0e940d0, 2025-05-08)"
   sodipodi:docname="office-address-book.svg"
   xmlns:inkscape="http://www.inkscape.org/namespaces/inkscape"
   xmlns:sodipodi="http://sodipodi.sourceforge.net/DTD/sodipodi-0.dtd"
   xmlns:xlink="http://www.w3.org/1999/xlink"
   xmlns="http://www.w3.org/2000/svg"
   xmlns:svg="http://www.w3.org/2000/svg">
  <sodipodi:namedview
     id="namedview1"
     pagecolor="#ffffff"
     bordercolor="#000000"
     borderopacity="0.25"
     inkscape:showpageshadow="2"
     inkscape:pageopacity="0.0"
     inkscape:pagecheckerboard="0"
     inkscape:deskcolor="#d1d1d1"
     inkscape:document-units="px"
     inkscape:zoom="12.421875"
     inkscape:cx="32"
     inkscape:cy="32"
     inkscape:window-width="1920"
     inkscape:window-height="1010"
     inkscape:window-x="0"
     inkscape:window-y="0"
     inkscape:window-maximized="1"
     inkscape:current-layer="svg1" />
  <defs
     id="defs1">
    <linearGradient
       inkscape:collect="always"
       xlink:href="#linearGradient3"
       id="linearGradient4"
       x1="16"
       y1="30"
       x2="16"
       y2="2"
       gradientUnits="userSpaceOnUse"
       gradientTransform="scale(2)" />
    <linearGradient
       inkscape:collect="always"
       id="linearGradient3">
      <stop
         style="stop-color:#cc883b;stop-opacity:1;"
         offset="0"
         id="stop1" />
      <stop
         style="stop-color:#e8c69e;stop-opacity:1;"
         offset="1"
         id="stop2" />
    </linearGradient>
  </defs>
  <rect
     style="opacity:0.2;fill:#000000;stroke-width:3.5"
     id="rect1"
     width="56"
     height="56"
     x="4"
     y="5"
     ry="12" />
  <rect
     style="fill:url(#linearGradient4);stroke-width:2"
     id="rect2"
     width="56"
     height="56"
     x="4"
     y="4"
     ry="12" />
  <path
     id="rect396"
     style="opacity:0.6;fill:#ffffff;stroke-width:3.65148"
     d="M 37,30 C 24.54252,37.760476 22,39.645652 22,44 v 2 c 0,2.215984 1.784016,4 4,4 h 22 c 2.215984,0 4,-1.784016 4,-4 V 44 C 52,39.645652 49.45748,37.760476 37,30 Z" />
  <path
     id="path234"
     style="fill:#ffffff;stroke-width:2.48746"
     d="m 37,14 c -4.970562,0 -9,2.924867 -9,9 0,6.075134 4.029438,13 9,13 4.970562,0 9,-6.924866 9,-13 0,-6.075133 -4.029438,-9 -9,-9 z" />
  <path
     id="rect3"
     style="opacity:0.3;fill:#000000;stroke-width:2"
     d="M 16,4 C 9.352,4 4,9.352 4,16 v 32 c 0,6.648 5.352,12 12,12 z" />
</svg>
