<?xml version="1.0" encoding="UTF-8" standalone="no"?>
<!-- Created with Inkscape (http://www.inkscape.org/) -->

<svg
   width="64"
   height="64"
   viewBox="0 0 64 64.000004"
   version="1.1"
   id="svg1"
   inkscape:version="1.4 (e7c3feb100, 2024-10-09)"
   sodipodi:docname="okular.svg"
   xmlns:inkscape="http://www.inkscape.org/namespaces/inkscape"
   xmlns:sodipodi="http://sodipodi.sourceforge.net/DTD/sodipodi-0.dtd"
   xmlns:xlink="http://www.w3.org/1999/xlink"
   xmlns="http://www.w3.org/2000/svg"
   xmlns:svg="http://www.w3.org/2000/svg">
  <sodipodi:namedview
     id="namedview1"
     pagecolor="#ffffff"
     bordercolor="#000000"
     borderopacity="0.25"
     inkscape:showpageshadow="2"
     inkscape:pageopacity="0.0"
     inkscape:pagecheckerboard="0"
     inkscape:deskcolor="#d1d1d1"
     inkscape:document-units="px"
     inkscape:zoom="12.625"
     inkscape:cx="31.960396"
     inkscape:cy="32"
     inkscape:window-width="1920"
     inkscape:window-height="1011"
     inkscape:window-x="0"
     inkscape:window-y="0"
     inkscape:window-maximized="1"
     inkscape:current-layer="svg1" />
  <defs
     id="defs1">
    <linearGradient
       inkscape:collect="always"
       id="linearGradient1606">
      <stop
         style="stop-color:#eaebed;stop-opacity:1;"
         offset="0"
         id="stop1602" />
      <stop
         style="stop-color:#f9fafa;stop-opacity:1;"
         offset="1"
         id="stop1604" />
    </linearGradient>
    <linearGradient
       inkscape:collect="always"
       xlink:href="#linearGradient1606"
       id="linearGradient4"
       x1="16"
       y1="30"
       x2="16"
       y2="2"
       gradientUnits="userSpaceOnUse"
       gradientTransform="scale(2)" />
    <linearGradient
       inkscape:collect="always"
       xlink:href="#linearGradient2338"
       id="linearGradient2281"
       x1="16"
       y1="30"
       x2="16"
       y2="2"
       gradientUnits="userSpaceOnUse"
       gradientTransform="scale(2)" />
    <linearGradient
       inkscape:collect="always"
       id="linearGradient2338">
      <stop
         style="stop-color:#218ed4;stop-opacity:1;"
         offset="0"
         id="stop2334" />
      <stop
         style="stop-color:#3ecdf1;stop-opacity:1;"
         offset="1"
         id="stop2336" />
    </linearGradient>
  </defs>
  <rect
     style="opacity:0.2;fill:#000000;stroke-width:3.5"
     id="rect1"
     width="56"
     height="56"
     x="4"
     y="5"
     ry="12" />
  <rect
     style="fill:url(#linearGradient4);stroke-width:2"
     id="rect2"
     width="56"
     height="56"
     x="4"
     y="4"
     ry="12" />
  <path
     id="path1283"
     style="fill:url(#linearGradient2281);fill-opacity:1;stroke-width:2"
     d="m 36,4 v 0.00781 c -3.252822,3.080821 -6.326798,7.175554 -8.582032,11.828128 -3.482298,7.184012 -4.30795,13.251732 -2.453124,18.226562 1.8548,4.974836 6.11026,8.093146 12.75,9.367188 6.979094,1.339152 13.449236,0.318564 19.414062,-3.089844 C 58.041334,39.818458 59.143608,39.215536 60,38.601562 v -7.933594 h -0.0078 c -2.15637,2.979272 -4.759224,5.394936 -7.289064,7.234376 -4.475732,3.254242 -9.100392,4.416 -13.89453,3.496094 -4.560878,-0.87514 -7.2366,-3.465418 -8.02345,-7.773438 -0.755914,-4.32407 0.47834,-9.80794 3.707032,-16.46875 C 37.048012,11.883536 43.554064,4.5025346 44,4 Z" />
</svg>
