<?xml version="1.0" encoding="UTF-8" standalone="no"?>
<!-- Created with Inkscape (http://www.inkscape.org/) -->

<svg
   width="64"
   height="64"
   viewBox="0 0 64 64.000004"
   version="1.1"
   id="svg1"
   inkscape:version="1.4.2 (ebf0e940d0, 2025-05-08)"
   sodipodi:docname="org.gnome.Connections.svg"
   xmlns:inkscape="http://www.inkscape.org/namespaces/inkscape"
   xmlns:sodipodi="http://sodipodi.sourceforge.net/DTD/sodipodi-0.dtd"
   xmlns:xlink="http://www.w3.org/1999/xlink"
   xmlns="http://www.w3.org/2000/svg"
   xmlns:svg="http://www.w3.org/2000/svg">
  <sodipodi:namedview
     id="namedview1"
     pagecolor="#ffffff"
     bordercolor="#000000"
     borderopacity="0.25"
     inkscape:showpageshadow="2"
     inkscape:pageopacity="0.0"
     inkscape:pagecheckerboard="0"
     inkscape:deskcolor="#d1d1d1"
     inkscape:document-units="px"
     inkscape:zoom="12.421875"
     inkscape:cx="32"
     inkscape:cy="32"
     inkscape:window-width="1920"
     inkscape:window-height="1010"
     inkscape:window-x="0"
     inkscape:window-y="0"
     inkscape:window-maximized="1"
     inkscape:current-layer="svg1" />
  <defs
     id="defs1">
    <linearGradient
       inkscape:collect="always"
       xlink:href="#linearGradient3147"
       id="linearGradient4"
       x1="16"
       y1="30"
       x2="16"
       y2="2"
       gradientUnits="userSpaceOnUse"
       gradientTransform="scale(2)" />
    <linearGradient
       inkscape:collect="always"
       id="linearGradient3147">
      <stop
         style="stop-color:#0091f9;stop-opacity:1;"
         offset="0"
         id="stop3143" />
      <stop
         style="stop-color:#41bbff;stop-opacity:1;"
         offset="1"
         id="stop3145" />
    </linearGradient>
  </defs>
  <rect
     style="opacity:0.2;fill:#000000;stroke-width:3.5"
     id="rect1"
     width="56"
     height="56"
     x="4"
     y="5"
     ry="12" />
  <rect
     style="fill:url(#linearGradient4);stroke-width:2"
     id="rect2"
     width="56"
     height="56"
     x="4"
     y="4"
     ry="12" />
  <path
     id="path338"
     style="fill:#98d6fe;fill-opacity:1;stroke-width:2"
     d="M 18 10 C 16.142884 10 13.929687 12.101531 13.929688 14 L 10.921875 14 L 10.589844 14 L 7.078125 14 C 6.4811292 14 6 14.446001 6 15 C 6 15.554 6.4811292 16 7.078125 16 L 9.0898438 16 L 10 16 L 10 18 L 6 18 C 4.3741754 18.004 4.2611783 19.118205 4.1445312 20.667969 C 4.0472822 22.276115 4 24.08619 4 26 L 4 48 C 4 52.605098 6.5674308 56.588368 10.355469 58.601562 C 10.952816 58.421161 11.409839 58.187476 11.605469 58.066406 C 13.061905 56.937548 13.918856 55.202039 13.929688 53.359375 L 13.929688 41.722656 C 13.929744 39.824186 11.130552 38.285156 9.2734375 38.285156 C 7.4163227 38.285156 5.9609373 36.032961 5.9609375 34.132812 C 5.9609375 32.234344 7.4163227 30.257814 9.2734375 30.257812 C 11.130552 30.257812 13.929687 29.157959 13.929688 27.257812 C 13.929688 25.359344 14.006178 23.902344 15.863281 23.902344 C 17.720396 23.902344 20.050781 22.361088 20.050781 20.460938 L 20.050781 15.644531 C 20.050781 14.667599 20.599034 13.875 21.554688 13.875 C 22.51362 13.81625 23.998281 13.999992 23.925781 11.625 C 23.998281 10.000007 22.000439 10.041309 20.984375 10 L 18 10 z M 43.648438 17.179688 C 41.854362 17.179688 40.398437 18.66988 40.398438 20.503906 L 40.398438 21.917969 C 40.398438 23.751995 39.544072 25.242187 37.75 25.242188 C 35.592112 25.406267 33.839496 27.327396 34 29.535156 L 34 35.332031 C 34 37.215279 35.028868 39.800781 36.871094 39.800781 C 38.838518 39.800781 40 41.407619 40 42.957031 L 40 46.226562 C 40 48.292122 40.877873 50 42.898438 50 C 44.917217 49.99818 46.001782 48.290298 46 46.226562 L 46 39.921875 C 46 38.408709 46.588099 36.15817 47.636719 35.089844 C 48.683567 34.02151 50.10573 32.021614 51.585938 32.023438 L 53.53125 32.039062 C 54.39262 32.040863 55.222113 31.691989 55.832031 31.070312 C 56.440157 30.448654 56.78125 29.603212 56.78125 28.722656 L 56.78125 20.503906 C 56.78125 18.66988 55.327106 17.179688 53.53125 17.179688 L 43.648438 17.179688 z " />
  <path
     d="m 47.99972,33.4 v 14.160156 c 0,1.055254 -0.584908,2.192514 -1.519532,3.070312 -0.934622,0.8778 -2.184212,1.371094 -2.882812,1.371094 H 28.710658 c -1.039954,0 -2.408342,-0.227494 -3.35547,-0.621094 -0.947128,-0.3936 -1.225666,-0.7922 -1.253906,-0.96875 -0.28142,-1.759446 -0.338506,-3.139412 -0.421874,-4.359374 -0.08336,-1.219962 -0.12454,-2.38231 -0.867188,-3.570314 -0.74265,-1.188002 -2.12149,-1.860282 -3.613282,-2.140624 -1.491792,-0.280342 -3.33233,-0.339844 -5.960938,-0.339844 v 4 c 2.551388,0 4.2654,0.08964 5.222658,0.269532 0.957256,0.1799 0.927854,0.279108 0.960936,0.33203 0.03308,0.05292 0.19284,0.600534 0.269532,1.722656 0.07668,1.122124 0.13646,2.71449 0.457032,4.71875 0.339222,2.120824 2.06362,3.359 3.671874,4.027344 1.608254,0.668346 3.347326,0.929688 4.890626,0.929688 h 14.886718 c 2.104058,0 4.05472,-0.985892 5.621094,-2.457032 1.566374,-1.47114 2.78125,-3.55241 2.78125,-5.984374 V 33.4 Z"
     style="color:#000000;opacity:0.3;fill:#000000;stroke-width:2;-inkscape-stroke:none"
     id="path1202" />
  <path
     d="m 10,38 c -2.2093908,0 -4,1.79115 -4,4 0,2.208854 1.7906092,4 4,4 2.209392,0 4.000001,-1.791146 4.000001,-4 0,-2.20885 -1.790609,-4 -4.000001,-4 z m 40,0 c -1.10547,0 -2,0.894534 -2,2 0,1.105466 0.89453,2 2,2 1.105464,0 2,-0.894534 2,-2 0,-1.105466 -0.894536,-2 -2,-2 z m -31.999998,2 c -1.105472,0 -2,0.894534 -2,2 0,1.105466 0.894528,2 2,2 1.105466,0 2,-0.894534 2,-2 0,-1.105466 -0.894534,-2 -2,-2 z M 50,46 c -1.10547,0 -2,0.894534 -2,2 0,1.105466 0.89453,2 2,2 1.105464,0 2,-0.894534 2,-2 0,-1.105466 -0.894536,-2 -2,-2 z m -27.999998,2 c -1.105472,0 -2,0.894534 -2,2 0,1.105466 0.894528,2 2,2 1.105466,0 2,-0.894534 2,-2 0,-1.105466 -0.894534,-2 -2,-2 z M 28,52 c -1.10547,0 -2,0.894534 -2,2 0,1.105466 0.89453,2 2,2 1.105466,0 2,-0.894534 2,-2 0,-1.105466 -0.894534,-2 -2,-2 z m 8,0 c -1.10547,0 -2,0.894534 -2,2 0,1.105466 0.89453,2 2,2 1.105464,0 2,-0.894534 2,-2 0,-1.105466 -0.894536,-2 -2,-2 z m 8,0 c -1.10547,0 -2,0.894534 -2,2 0,1.105466 0.89453,2 2,2 1.105464,0 2,-0.894534 2,-2 0,-1.105466 -0.894536,-2 -2,-2 z"
     style="fill:#ffffff;stroke-width:2"
     id="path1231" />
  <rect
     style="fill:#3a325a;fill-opacity:1;stroke-width:4"
     id="rect675"
     width="36"
     height="30"
     x="24"
     y="4"
     ry="4" />
  <path
     d="m 34.6,10 5.089354,15.67305 3.32056,-2.918526 2.158448,2.657192 c 0.562256,0.692798 1.567138,0.78751 2.242188,0.21047 0.673338,-0.578792 0.765622,-1.606592 0.203364,-2.299392 L 45.426416,20.628768 48.6,17.836524 Z"
     style="fill:#ffffff;stroke-width:2"
     id="path1170" />
</svg>
