<?xml version="1.0" encoding="UTF-8" standalone="no"?>
<!-- Created with Inkscape (http://www.inkscape.org/) -->

<svg
   width="256"
   height="256"
   viewBox="0 0 256 256.00002"
   version="1.1"
   id="svg1"
   xml:space="preserve"
   xmlns:xlink="http://www.w3.org/1999/xlink"
   xmlns="http://www.w3.org/2000/svg"
   xmlns:svg="http://www.w3.org/2000/svg"><defs
     id="defs1"><linearGradient
       xlink:href="#linearGradient1273"
       id="linearGradient4"
       x1="16"
       y1="30"
       x2="16"
       y2="2"
       gradientUnits="userSpaceOnUse"
       gradientTransform="scale(8)" /><linearGradient
       id="linearGradient1273"><stop
         style="stop-color:#a1a1a1;stop-opacity:1;"
         offset="0"
         id="stop1269" /><stop
         style="stop-color:#dedede;stop-opacity:1;"
         offset="1"
         id="stop1271" /></linearGradient><linearGradient
       id="a"
       y1="41"
       y2="7"
       x2="0"
       gradientUnits="userSpaceOnUse"><stop
         stop-color="#728790"
         id="stop1" /><stop
         offset="1"
         stop-color="#85969e"
         id="stop2" /></linearGradient><linearGradient
       id="b"
       y1="36"
       y2="12"
       x2="0"
       gradientUnits="userSpaceOnUse"><stop
         stop-color="#06a370"
         id="stop3" /><stop
         offset="1"
         stop-color="#22d1b0"
         id="stop4" /></linearGradient><linearGradient
       id="c"
       y1="44"
       y2="4"
       x2="0"
       gradientUnits="userSpaceOnUse"><stop
         stop-color="#2a2c2f"
         id="stop5" /><stop
         offset="1"
         stop-color="#424649"
         id="stop6" /></linearGradient><linearGradient
       id="d"
       y1="15"
       x1="15"
       y2="44"
       x2="44"
       gradientUnits="userSpaceOnUse"><stop
         stop-color="#020303"
         id="stop7" /><stop
         offset="1"
         stop-color="#424649"
         stop-opacity="0"
         id="stop8" /></linearGradient></defs><rect
     style="opacity:0.2;fill:#000000;stroke-width:14"
     id="rect1"
     width="224"
     height="224"
     x="16"
     y="17"
     ry="48" /><rect
     style="fill:url(#linearGradient4);stroke-width:8"
     id="rect2"
     width="224"
     height="224"
     x="16"
     y="16"
     ry="48" /><g
     id="g1"
     transform="matrix(4.4279898,0,0,4.4279898,20.246884,21.239695)"><g
       stroke-opacity="0.55"
       stroke-width="2.8"
       id="g9"
       style="display:inline"><path
         fill="url(#c)"
         d="M 24,4 C 12.92,4 4,12.92 4,24 h 7 c 0,-7.202 5.798,-13 13,-13 z m 13,20 c 0,7.202 -5.798,13 -13,13 v 7 c 11.08,0 20,-8.92 20,-20 z"
         id="path8"
         style="fill:url(#c)" /><path
         fill="url(#a)"
         d="M 24,7 C 14.582,7 7,14.582 7,24 c 0,9.418 7.582,17 17,17 9.418,0 17,-7.582 17,-17 H 34 C 34,29.54 29.54,34 24,34 18.46,34 14,29.54 14,24 14,18.46 18.46,14 24,14 Z"
         id="path9"
         style="display:inline;fill:url(#a)" /></g><path
       opacity="0.2"
       fill="url(#d)"
       fill-rule="evenodd"
       d="m 22,15 -7,7 2.68,10 -1.68,1 10.801,10.801 c 8.829,-1.227 15.773,-8.171 17,-17 L 41,24 h -5 c 0,-3.597 -1.575,-6.804 -4.066,-9 z m 2,2 c 3.878,0 7,3.122 7,7 0,3.878 -3.122,7 -7,7 -3.878,0 -7,-3.122 -7,-7 0,-3.878 3.122,-7 7,-7"
       id="path10"
       style="fill:url(#d)" /><g
       stroke-opacity="0.55"
       stroke-width="2.8"
       id="g14"><path
         fill="url(#b)"
         d="m 24,12 c -6.648,0 -12,5.352 -12,12 0,6.648 5.352,12 12,12 6.648,0 12,-5.352 12,-12 0,-6.648 -5.352,-12 -12,-12 m 0,5 c 3.878,0 7,3.122 7,7 0,3.878 -3.122,7 -7,7 -3.878,0 -7,-3.122 -7,-7 0,-3.878 3.122,-7 7,-7"
         id="path11"
         style="fill:url(#b)" /><g
         fill-opacity="0.118"
         id="g13"><path
           d="m 4.03,23 c -0.016,0.332 -0.025,0.664 -0.025,1 h 3 v -1 h -2 z m 39.949,1 c -0.518,10.611 -9.23,19 -19.975,19 v 1 c 11.08,0 20,-8.92 20,-20 z"
           id="path12" /><path
           d="m 7,24 c 0,9.418 7.582,17 17,17 9.418,0 17,-7.582 17,-17 H 40.949 C 40.432,32.946 33.08,40 24,40 14.92,40 7.583,32.94 7.064,24 Z"
           id="path13" /></g></g></g></svg>
