<?xml version="1.0" encoding="UTF-8" standalone="no"?>
<!-- Created with Inkscape (http://www.inkscape.org/) -->

<svg
   width="64"
   height="64"
   viewBox="0 0 64 64.000004"
   version="1.1"
   id="svg1"
   inkscape:version="1.4.2 (ebf0e940d0, 2025-05-08)"
   sodipodi:docname="polari.svg"
   xmlns:inkscape="http://www.inkscape.org/namespaces/inkscape"
   xmlns:sodipodi="http://sodipodi.sourceforge.net/DTD/sodipodi-0.dtd"
   xmlns:xlink="http://www.w3.org/1999/xlink"
   xmlns="http://www.w3.org/2000/svg"
   xmlns:svg="http://www.w3.org/2000/svg">
  <sodipodi:namedview
     id="namedview1"
     pagecolor="#ffffff"
     bordercolor="#000000"
     borderopacity="0.25"
     inkscape:showpageshadow="2"
     inkscape:pageopacity="0.0"
     inkscape:pagecheckerboard="0"
     inkscape:deskcolor="#d1d1d1"
     inkscape:document-units="px"
     inkscape:zoom="12.625"
     inkscape:cx="31.960396"
     inkscape:cy="32"
     inkscape:window-width="1920"
     inkscape:window-height="1011"
     inkscape:window-x="0"
     inkscape:window-y="0"
     inkscape:window-maximized="1"
     inkscape:current-layer="svg1" />
  <defs
     id="defs1">
    <linearGradient
       inkscape:collect="always"
       xlink:href="#linearGradient2742"
       id="linearGradient4"
       x1="16"
       y1="30"
       x2="16"
       y2="2"
       gradientUnits="userSpaceOnUse"
       gradientTransform="scale(2)" />
    <linearGradient
       inkscape:collect="always"
       id="linearGradient2742">
      <stop
         style="stop-color:#1ccd6b;stop-opacity:1;"
         offset="0"
         id="stop2738" />
      <stop
         style="stop-color:#8be65c;stop-opacity:1;"
         offset="1"
         id="stop2740" />
    </linearGradient>
  </defs>
  <rect
     style="opacity:0.2;fill:#000000;stroke-width:3.5"
     id="rect1"
     width="56"
     height="56"
     x="4"
     y="5"
     ry="12" />
  <rect
     style="fill:url(#linearGradient4);stroke-width:2"
     id="rect2"
     width="56"
     height="56"
     x="4"
     y="4"
     ry="12" />
  <path
     id="path1"
     style="fill:#ffffff;stroke-width:8"
     d="m 28,14 c -8.864,0 -16,7.136 -16,16 0,6.041176 3.317096,11.27616 8.234376,14 C 19.000874,49.779748 18,52 18,52 c 0,0 4.181656,-1.17622 10,-6 h 8 C 44.864,46 52,38.864 52,30 52,21.136 44.864,14 36,14 Z"
     sodipodi:nodetypes="sscccssss" />
  <path
     d="m 30,21 h 2 l -0.890624,4 h 4 L 36,21 h 2 l -0.890624,4 H 40 v 2 h -3.332032 l -1.335936,6 H 40 v 2 H 34.890624 L 34,39 h -2 l 0.890624,-4 h -4 L 28,39 h -2 l 0.890624,-4 H 24 v -2 h 3.332032 l 1.335936,-6 H 24 v -2 h 5.109376 z m 0.667968,6 -1.335936,6 h 4 l 1.335936,-6 z"
     style="fill:#3bbd1e;fill-opacity:1;stroke-width:8;stroke-linecap:round;stroke-linejoin:round"
     id="path1-2" />
</svg>
