<?xml version="1.0" encoding="UTF-8" standalone="no"?>
<!-- Created with Inkscape (http://www.inkscape.org/) -->

<svg
   width="64"
   height="64"
   viewBox="0 0 64 64.000004"
   version="1.1"
   id="svg1"
   inkscape:version="1.4.2 (ebf0e940d0, 2025-05-08)"
   sodipodi:docname="preferences-desktop-theme-applications.svg"
   xmlns:inkscape="http://www.inkscape.org/namespaces/inkscape"
   xmlns:sodipodi="http://sodipodi.sourceforge.net/DTD/sodipodi-0.dtd"
   xmlns:xlink="http://www.w3.org/1999/xlink"
   xmlns="http://www.w3.org/2000/svg"
   xmlns:svg="http://www.w3.org/2000/svg">
  <sodipodi:namedview
     id="namedview1"
     pagecolor="#ffffff"
     bordercolor="#000000"
     borderopacity="0.25"
     inkscape:showpageshadow="2"
     inkscape:pageopacity="0.0"
     inkscape:pagecheckerboard="0"
     inkscape:deskcolor="#d1d1d1"
     inkscape:document-units="px"
     inkscape:zoom="12.28125"
     inkscape:cx="31.959288"
     inkscape:cy="32"
     inkscape:window-width="1920"
     inkscape:window-height="1009"
     inkscape:window-x="0"
     inkscape:window-y="0"
     inkscape:window-maximized="1"
     inkscape:current-layer="svg1" />
  <defs
     id="defs1">
    <linearGradient
       inkscape:collect="always"
       id="linearGradient1606">
      <stop
         style="stop-color:#eaebed;stop-opacity:1;"
         offset="0"
         id="stop1602" />
      <stop
         style="stop-color:#f9fafa;stop-opacity:1;"
         offset="1"
         id="stop1604" />
    </linearGradient>
    <linearGradient
       inkscape:collect="always"
       xlink:href="#linearGradient1606"
       id="linearGradient4"
       x1="16"
       y1="30"
       x2="16"
       y2="2"
       gradientUnits="userSpaceOnUse"
       gradientTransform="scale(2)" />
  </defs>
  <rect
     style="opacity:0.2;fill:#000000;stroke-width:3.5"
     id="rect1"
     width="56"
     height="56"
     x="4"
     y="5"
     ry="12" />
  <rect
     style="fill:url(#linearGradient4);stroke-width:2"
     id="rect2"
     width="56"
     height="56"
     x="4"
     y="4"
     ry="12" />
  <rect
     style="fill:#000000;stroke-width:3.79474;opacity:0.4"
     id="rect3"
     width="36"
     height="4"
     x="14"
     y="20"
     ry="2" />
  <rect
     style="opacity:0.4;fill:#000000;stroke-width:3.79474"
     id="rect4"
     width="36"
     height="4"
     x="14"
     y="40"
     ry="2" />
  <path
     id="path1"
     style="opacity:0.2;fill:#000000;stroke-width:2.33333"
     d="M 44 15 C 40.134007 15 37 18.134008 37 22 C 37 25.865993 40.134007 29 44 29 C 47.865993 29 51 25.865993 51 22 C 51 18.134008 47.865993 15 44 15 z M 20 35 C 16.134007 35 13 38.134008 13 42 C 13 45.865993 16.134007 49 20 49 C 23.865993 49 27 45.865993 27 42 C 27 38.134008 23.865993 35 20 35 z " />
  <path
     id="path2"
     style="fill:#f9f9f9;fill-opacity:1;stroke-width:12;stroke-linecap:round;stroke-linejoin:round"
     d="m 44,16 c -3.31371,0 -6,2.686293 -6,6 0,3.31371 2.68629,6 6,6 3.313706,0 6,-2.68629 6,-6 0,-3.313707 -2.686294,-6 -6,-6 z M 20,36 c -3.31371,0 -6,2.686292 -6,6 0,3.31371 2.68629,6 6,6 3.313706,0 6,-2.68629 6,-6 0,-3.313708 -2.686294,-6 -6,-6 z" />
</svg>
