<?xml version="1.0" encoding="UTF-8" standalone="no"?>
<!-- Created with Inkscape (http://www.inkscape.org/) -->

<svg
   width="64"
   height="64"
   viewBox="0 0 64 64.000004"
   version="1.1"
   id="svg1"
   inkscape:version="1.4.2 (ebf0e940d0, 2025-05-08)"
   sodipodi:docname="preferences-desktop-default-applications.svg"
   xmlns:inkscape="http://www.inkscape.org/namespaces/inkscape"
   xmlns:sodipodi="http://sodipodi.sourceforge.net/DTD/sodipodi-0.dtd"
   xmlns:xlink="http://www.w3.org/1999/xlink"
   xmlns="http://www.w3.org/2000/svg"
   xmlns:svg="http://www.w3.org/2000/svg">
  <sodipodi:namedview
     id="namedview1"
     pagecolor="#ffffff"
     bordercolor="#000000"
     borderopacity="0.25"
     inkscape:showpageshadow="2"
     inkscape:pageopacity="0.0"
     inkscape:pagecheckerboard="0"
     inkscape:deskcolor="#d1d1d1"
     inkscape:document-units="px"
     inkscape:zoom="12.4375"
     inkscape:cx="31.959799"
     inkscape:cy="32"
     inkscape:window-width="1920"
     inkscape:window-height="1011"
     inkscape:window-x="0"
     inkscape:window-y="0"
     inkscape:window-maximized="1"
     inkscape:current-layer="svg1" />
  <defs
     id="defs1">
    <linearGradient
       inkscape:collect="always"
       xlink:href="#linearGradient1511"
       id="linearGradient4"
       x1="16"
       y1="30"
       x2="16"
       y2="2"
       gradientUnits="userSpaceOnUse"
       gradientTransform="scale(2)" />
    <linearGradient
       inkscape:collect="always"
       id="linearGradient1511">
      <stop
         style="stop-color:#ffde75;stop-opacity:1;"
         offset="0"
         id="stop1507" />
      <stop
         style="stop-color:#ffb251;stop-opacity:1;"
         offset="1"
         id="stop1509" />
    </linearGradient>
  </defs>
  <rect
     style="opacity:0.2;fill:#000000;stroke-width:3.5"
     id="rect1"
     width="56"
     height="56"
     x="4"
     y="5"
     ry="12" />
  <rect
     style="fill:url(#linearGradient4);stroke-width:2"
     id="rect2"
     width="56"
     height="56"
     x="4"
     y="4"
     ry="12" />
  <path
     id="path1032"
     style="color:#000000;fill:#ffffff;stroke:none;stroke-width:5.26388;stroke-linecap:round;stroke-linejoin:round;paint-order:stroke fill markers"
     d="M 31.927308,12.85107 A 2.0007878,2.0007878 0 0 0 30.13772,13.9764 l -5.040544,10.34679 -11.401784,1.71144 a 2.0007878,2.0007878 0 0 0 -1.094072,3.407252 l 8.283684,8.010164 -1.898996,11.362716 a 2.0007878,2.0007878 0 0 0 2.922732,2.094364 l 10.167048,-5.407836 10.221756,5.321872 a 2.0007878,2.0007878 0 0 0 2.891472,-2.117808 l -2.000588,-11.3549 8.213348,-8.072684 A 2.0007878,2.0007878 0 0 0 50.28426,25.87052 L 38.866848,24.260672 33.732528,13.952956 a 2.0007878,2.0007878 0 0 0 -1.80522,-1.101886 z" />
</svg>
