<?xml version="1.0" encoding="UTF-8" standalone="no"?>
<!-- Created with Inkscape (http://www.inkscape.org/) -->

<svg
   width="64"
   height="64"
   viewBox="0 0 64 64.000004"
   version="1.1"
   id="svg1"
   inkscape:version="1.4.2 (ebf0e940d0, 2025-05-08)"
   sodipodi:docname="preferences-desktop-gaming.svg"
   xmlns:inkscape="http://www.inkscape.org/namespaces/inkscape"
   xmlns:sodipodi="http://sodipodi.sourceforge.net/DTD/sodipodi-0.dtd"
   xmlns:xlink="http://www.w3.org/1999/xlink"
   xmlns="http://www.w3.org/2000/svg"
   xmlns:svg="http://www.w3.org/2000/svg">
  <sodipodi:namedview
     id="namedview1"
     pagecolor="#ffffff"
     bordercolor="#000000"
     borderopacity="0.25"
     inkscape:showpageshadow="2"
     inkscape:pageopacity="0.0"
     inkscape:pagecheckerboard="0"
     inkscape:deskcolor="#d1d1d1"
     inkscape:document-units="px"
     inkscape:zoom="12.421875"
     inkscape:cx="32"
     inkscape:cy="32"
     inkscape:window-width="1920"
     inkscape:window-height="1010"
     inkscape:window-x="0"
     inkscape:window-y="0"
     inkscape:window-maximized="1"
     inkscape:current-layer="svg1" />
  <defs
     id="defs1">
    <linearGradient
       inkscape:collect="always"
       xlink:href="#linearGradient1144"
       id="linearGradient4"
       x1="16"
       y1="30"
       x2="16"
       y2="2"
       gradientUnits="userSpaceOnUse"
       gradientTransform="scale(2)" />
    <linearGradient
       inkscape:collect="always"
       id="linearGradient1144">
      <stop
         style="stop-color:#adb2b9;stop-opacity:1;"
         offset="0"
         id="stop1140" />
      <stop
         style="stop-color:#e0e2e4;stop-opacity:1;"
         offset="1"
         id="stop1142" />
    </linearGradient>
  </defs>
  <rect
     style="opacity:0.2;fill:#000000;stroke-width:3.5"
     id="rect1"
     width="56"
     height="56"
     x="4"
     y="5"
     ry="12" />
  <rect
     style="fill:url(#linearGradient4);stroke-width:2"
     id="rect2"
     width="56"
     height="56"
     x="4"
     y="4"
     ry="12" />
  <rect
     style="fill:#ffffff;fill-opacity:1;stroke-width:2"
     id="rect1696"
     width="32"
     height="15.113123"
     x="16"
     y="22.425974" />
  <path
     id="path375"
     style="fill:#4d4d4d;fill-opacity:1;stroke-width:3.70808"
     d="m 21,18 c -2.57234,0 -4.578987,1.453694 -6.085938,5.359376 C 11.731755,31.601318 10,37.981358 10,41.847656 c 0,2.97363 1.026958,4.850416 3.207031,5.953126 0.255493,0.1296 0.539022,0.1997 0.824219,0.19922 0.453999,9.34e-4 0.895062,-0.1681 1.234375,-0.476562 L 20.964844,42.375 C 21.986078,41.448724 22.87392,40 25.367188,40 h 13.265624 c 2.493268,0 3.379058,1.448198 4.402344,2.375 l 5.69922,5.148438 c 0.565842,0.512842 1.380888,0.620132 2.058592,0.277344 C 52.972526,46.698576 54,44.815574 54,41.839844 54,37.97407 52.266706,31.599742 49.085938,23.359376 47.578992,19.453694 45.571824,18 43,18 c -1.202994,0 -3.067986,0.319346 -4.082032,0.85547 -4.352444,2.293106 -9.384288,2.34194 -13.828124,0 C 24.072204,18.319352 22.202478,18 21,18 Z m 0,6 h 2 c 0.554,0 1,0.446 1,1 v 3 h 3 c 0.554,0 1,0.446 1,1 v 2 c 0,0.554 -0.446,1 -1,1 h -3 v 3 c 0,0.554 -0.446,1 -1,1 h -2 c -0.554,0 -1,-0.446 -1,-1 v -3 h -3 c -0.553998,0 -1,-0.446 -1,-1 v -2 c 0,-0.554 0.446002,-1 1,-1 h 3 v -3 c 0,-0.554 0.446,-1 1,-1 z m 21,0 c 1.104568,0 2,0.895432 2,2 0,1.104568 -0.895432,2 -2,2 -1.104568,0 -2,-0.895432 -2,-2 0,-1.104568 0.895432,-2 2,-2 z m -4,4 c 1.104568,0 2,0.895432 2,2 0,1.104568 -0.895432,2 -2,2 -1.104568,0 -2,-0.895432 -2,-2 0,-1.104568 0.895432,-2 2,-2 z m 8,0 c 1.104568,0 2,0.895432 2,2 0,1.104568 -0.895432,2 -2,2 -1.104568,0 -2,-0.895432 -2,-2 0,-1.104568 0.895432,-2 2,-2 z m -4,4 c 1.104568,0 2,0.895432 2,2 0,1.104568 -0.895432,2 -2,2 -1.104568,0 -2,-0.895432 -2,-2 0,-1.104568 0.895432,-2 2,-2 z" />
</svg>
