<?xml version="1.0" encoding="UTF-8" standalone="no"?>
<!-- Created with Inkscape (http://www.inkscape.org/) -->

<svg
   width="64"
   height="64"
   viewBox="0 0 64 64.000004"
   version="1.1"
   id="svg1"
   inkscape:version="1.4.2 (ebf0e940d0, 2025-05-08)"
   sodipodi:docname="seahorse.svg"
   xmlns:inkscape="http://www.inkscape.org/namespaces/inkscape"
   xmlns:sodipodi="http://sodipodi.sourceforge.net/DTD/sodipodi-0.dtd"
   xmlns:xlink="http://www.w3.org/1999/xlink"
   xmlns="http://www.w3.org/2000/svg"
   xmlns:svg="http://www.w3.org/2000/svg">
  <sodipodi:namedview
     id="namedview1"
     pagecolor="#ffffff"
     bordercolor="#000000"
     borderopacity="0.25"
     inkscape:showpageshadow="2"
     inkscape:pageopacity="0.0"
     inkscape:pagecheckerboard="0"
     inkscape:deskcolor="#d1d1d1"
     inkscape:document-units="px"
     inkscape:zoom="12.28125"
     inkscape:cx="31.959288"
     inkscape:cy="32"
     inkscape:window-width="1920"
     inkscape:window-height="1011"
     inkscape:window-x="0"
     inkscape:window-y="0"
     inkscape:window-maximized="1"
     inkscape:current-layer="svg1" />
  <defs
     id="defs1">
    <linearGradient
       inkscape:collect="always"
       xlink:href="#linearGradient6154"
       id="linearGradient4"
       x1="16"
       y1="30"
       x2="16"
       y2="2"
       gradientUnits="userSpaceOnUse"
       gradientTransform="scale(2)" />
    <linearGradient
       inkscape:collect="always"
       id="linearGradient6154">
      <stop
         style="stop-color:#4cb35a;stop-opacity:1;"
         offset="0"
         id="stop6150" />
      <stop
         style="stop-color:#73d091;stop-opacity:1;"
         offset="1"
         id="stop6152" />
    </linearGradient>
  </defs>
  <rect
     style="opacity:0.2;fill:#000000;stroke-width:3.5"
     id="rect1"
     width="56"
     height="56"
     x="4"
     y="5"
     ry="12" />
  <rect
     style="fill:url(#linearGradient4);stroke-width:2"
     id="rect2"
     width="56"
     height="56"
     x="4"
     y="4"
     ry="12" />
  <rect
     style="opacity:0.5;fill:#ffffff;fill-opacity:1;stroke-width:2;stroke-linecap:round;stroke-linejoin:round;paint-order:stroke fill markers"
     id="rect5470"
     width="40"
     height="30"
     x="12"
     y="18"
     ry="4" />
  <rect
     style="opacity:0.5;fill:#000000;stroke-width:2.9277;stroke-linecap:round;stroke-linejoin:round;paint-order:stroke fill markers"
     id="rect5731"
     width="40"
     height="6"
     x="12"
     y="24" />
  <path
     d="m 27,10 c -6.075126,0 -11,4.924874 -11,11.000002 0,4.274074 2.439152,7.97589 6,9.796876 v 20.023436 l 2,1.179688 h 2.75 l 3.253906,-3.535156 -0.75,-0.785156 0.75,-0.785156 -1.5,-1.57422 1.5,-1.570312 -0.75,-0.785156 0.75,-0.785156 -1.125,-1.179688 1.125,-1.179688 v -1.17578 l -0.75,-0.789064 0.75,-0.785156 V 34.031252 L 32,33.968752 v -3.171874 c 3.560848,-1.820986 6,-5.522802 6,-9.796876 C 38,14.924874 33.075126,10 27,10 Z m 0,4.03125 c 1.65682,0 2.999956,1.336138 3,2.984374 C 29.999956,18.663862 28.65682,20 27,20 c -1.65682,0 -2.999954,-1.336138 -3,-2.984376 4.6e-5,-1.648236 1.34318,-2.984374 3,-2.984374 z"
     style="fill:#ffffff;fill-opacity:1;stroke-width:2"
     id="path5092" />
</svg>
