<?xml version="1.0" encoding="UTF-8" standalone="no"?>
<!-- Created with Inkscape (http://www.inkscape.org/) -->

<svg
   width="64"
   height="64"
   viewBox="0 0 64 64.000004"
   version="1.1"
   id="svg1"
   inkscape:version="1.4.2 (ebf0e940d0, 2025-05-08)"
   sodipodi:docname="vlc.svg"
   xmlns:inkscape="http://www.inkscape.org/namespaces/inkscape"
   xmlns:sodipodi="http://sodipodi.sourceforge.net/DTD/sodipodi-0.dtd"
   xmlns:xlink="http://www.w3.org/1999/xlink"
   xmlns="http://www.w3.org/2000/svg"
   xmlns:svg="http://www.w3.org/2000/svg">
  <sodipodi:namedview
     id="namedview1"
     pagecolor="#ffffff"
     bordercolor="#000000"
     borderopacity="0.25"
     inkscape:showpageshadow="2"
     inkscape:pageopacity="0.0"
     inkscape:pagecheckerboard="0"
     inkscape:deskcolor="#d1d1d1"
     inkscape:document-units="px"
     inkscape:zoom="12.421875"
     inkscape:cx="32"
     inkscape:cy="32"
     inkscape:window-width="1920"
     inkscape:window-height="1010"
     inkscape:window-x="0"
     inkscape:window-y="0"
     inkscape:window-maximized="1"
     inkscape:current-layer="svg1"
     showguides="true" />
  <defs
     id="defs1">
    <linearGradient
       inkscape:collect="always"
       xlink:href="#linearGradient1382"
       id="linearGradient4"
       x1="16"
       y1="30"
       x2="16"
       y2="2"
       gradientUnits="userSpaceOnUse"
       gradientTransform="scale(2)" />
    <linearGradient
       inkscape:collect="always"
       id="linearGradient1382">
      <stop
         style="stop-color:#ff650f;stop-opacity:1;"
         offset="0"
         id="stop1378" />
      <stop
         style="stop-color:#ffb54f;stop-opacity:1;"
         offset="1"
         id="stop1380" />
    </linearGradient>
  </defs>
  <rect
     style="opacity:0.2;fill:#000000;stroke-width:3.5"
     id="rect1"
     width="56"
     height="56"
     x="4"
     y="5"
     ry="12" />
  <rect
     style="fill:url(#linearGradient4);stroke-width:2"
     id="rect2"
     width="56"
     height="56"
     x="4"
     y="4"
     ry="12" />
  <path
     d="m 32.003838,12.000466 c -0.907994,-0.01012 -1.8354,0.14412 -2.75,0.511719 -0.566798,0.227799 -0.994768,0.703064 -1.167968,1.289062 l -1.839844,6.214845 c 1.356546,0.983654 3.600972,1.46855 5.753898,1.484142 2.22228,0.016 4.353874,-0.468802 5.753914,-1.484142 l -1.839844,-6.214845 c -0.182,-0.620198 -0.65363,-1.114019 -1.265624,-1.324219 -0.846,-0.291798 -1.736532,-0.466562 -2.644532,-0.476562 z m -8.125,16.01172 -2.367188,7.99609 c 3.217646,1.79068 6.895716,2.51429 10.488274,2.491956 3.657142,-0.02274 7.228754,-0.822288 10.48829,-2.491956 l -2.367188,-7.996092 c -5.497182,2.186392 -10.120206,2.748592 -16.242188,2e-6 z m 18.609376,7.99609 1.421874,4.8125 c 0.2563,0.8666 -0.10112,1.796492 -0.871094,2.269532 -3.137588,1.925974 -7.056282,2.871976 -11.03907,2.910156 -3.98239,0.038 -8.059826,-0.824262 -11.140616,-2.972656 -0.705472,-0.49226 -1.017237,-1.381992 -0.773438,-2.207032 l 1.42578,-4.8125 h -2.503905 c -0.806736,1.92e-4 -1.537216,0.48583 -1.847656,1.23047 l -4.996094,11.992186 c -0.548698,1.316002 0.417556,2.769532 1.84375,2.769532 H 49.99212 c 1.426274,-4.5e-4 2.392384,-1.452892 1.84375,-2.769532 L 46.839776,37.238746 c -0.31046,-0.74462 -1.040982,-1.23027 -1.847656,-1.23047 z"
     id="path3767"
     style="fill:#ffffff;stroke-width:2"
     sodipodi:nodetypes="ccccsccccccscccccccccccccsccccc" />
</svg>
