<?xml version="1.0" encoding="UTF-8" standalone="no"?>
<!-- Created with Inkscape (http://www.inkscape.org/) -->

<svg
   width="64"
   height="64"
   viewBox="0 0 64 64.000004"
   version="1.1"
   id="svg1"
   inkscape:version="1.4 (e7c3feb100, 2024-10-09)"
   sodipodi:docname="youtube-dl.svg"
   xmlns:inkscape="http://www.inkscape.org/namespaces/inkscape"
   xmlns:sodipodi="http://sodipodi.sourceforge.net/DTD/sodipodi-0.dtd"
   xmlns="http://www.w3.org/2000/svg"
   xmlns:svg="http://www.w3.org/2000/svg">
  <sodipodi:namedview
     id="namedview1"
     pagecolor="#ffffff"
     bordercolor="#000000"
     borderopacity="0.25"
     inkscape:showpageshadow="2"
     inkscape:pageopacity="0.0"
     inkscape:pagecheckerboard="0"
     inkscape:deskcolor="#d1d1d1"
     inkscape:document-units="px"
     inkscape:zoom="12.28125"
     inkscape:cx="32.040712"
     inkscape:cy="32"
     inkscape:window-width="1920"
     inkscape:window-height="1011"
     inkscape:window-x="0"
     inkscape:window-y="0"
     inkscape:window-maximized="1"
     inkscape:current-layer="svg1" />
  <defs
     id="defs1" />
  <rect
     style="opacity:0.2;fill:#000000;stroke-width:3.5"
     id="rect1"
     width="56"
     height="56"
     x="4"
     y="5"
     ry="12" />
  <rect
     style="fill:#fafafa;fill-opacity:1;stroke-width:2"
     id="rect2"
     width="56"
     height="56"
     x="4"
     y="4"
     ry="12" />
  <path
     id="path1633"
     style="fill:#ff0000;fill-opacity:1;stroke-width:0.317904"
     d="m 31.999936,19.000018 c 0,0 -11.502933,0.01601 -14.641661,0.780761 -1.685001,0.428223 -3.071075,1.628792 -3.533624,3.219374 C 12.998668,25.90603 13,31.985207 13,31.985207 c 0,0 -0.0013,6.072789 0.824651,8.94808 0.462551,1.590582 1.815584,2.85774 3.533624,3.28597 3.171765,0.795294 14.641661,0.780761 14.641661,0.780761 0,0 11.498808,-0.01611 14.637535,-0.780761 1.718045,-0.428223 3.071077,-1.665766 3.533629,-3.256345 0.825981,-2.905883 0.828772,-8.948083 0.828772,-8.948083 0,0 0.02998,-6.109069 -0.828772,-9.014946 -0.462552,-1.590582 -1.815584,-2.79087 -3.533629,-3.219105 -3.138727,-0.795291 -14.637535,-0.78076 -14.637535,-0.78076 z"
     sodipodi:nodetypes="ccccccccccccc" />
  <path
     id="rect1087"
     style="fill:#ffffff;stroke-width:0.90438"
     d="m 30,24 h 4 v 9 h 5 l -7,7 -7,-7 h 5 z"
     sodipodi:nodetypes="cccccccc" />
</svg>
