<?xml version="1.0" encoding="UTF-8" standalone="no"?>
<!-- Created with Inkscape (http://www.inkscape.org/) -->

<svg
   width="64"
   height="64"
   viewBox="0 0 64 64.000004"
   version="1.1"
   id="svg1"
   inkscape:version="1.4.2 (ebf0e940d0, 2025-05-08)"
   sodipodi:docname="zanshin.svg"
   xmlns:inkscape="http://www.inkscape.org/namespaces/inkscape"
   xmlns:sodipodi="http://sodipodi.sourceforge.net/DTD/sodipodi-0.dtd"
   xmlns:xlink="http://www.w3.org/1999/xlink"
   xmlns="http://www.w3.org/2000/svg"
   xmlns:svg="http://www.w3.org/2000/svg">
  <sodipodi:namedview
     id="namedview1"
     pagecolor="#ffffff"
     bordercolor="#000000"
     borderopacity="0.25"
     inkscape:showpageshadow="2"
     inkscape:pageopacity="0.0"
     inkscape:pagecheckerboard="0"
     inkscape:deskcolor="#d1d1d1"
     inkscape:document-units="px"
     inkscape:zoom="12.625"
     inkscape:cx="31.960396"
     inkscape:cy="32"
     inkscape:window-width="1920"
     inkscape:window-height="1011"
     inkscape:window-x="0"
     inkscape:window-y="0"
     inkscape:window-maximized="1"
     inkscape:current-layer="svg1" />
  <defs
     id="defs1">
    <linearGradient
       inkscape:collect="always"
       xlink:href="#linearGradient11-0"
       id="linearGradient4"
       x1="16"
       y1="30"
       x2="16"
       y2="2"
       gradientUnits="userSpaceOnUse"
       gradientTransform="scale(2)" />
    <linearGradient
       inkscape:collect="always"
       xlink:href="#linearGradient3"
       id="linearGradient14"
       x1="16"
       y1="26"
       x2="16"
       y2="18"
       gradientUnits="userSpaceOnUse"
       gradientTransform="matrix(2,0,0,2,7.628e-4,0)" />
    <linearGradient
       id="linearGradient3"
       inkscape:collect="always">
      <stop
         style="stop-color:#c7c7c7;stop-opacity:1;"
         offset="0"
         id="stop4" />
      <stop
         style="stop-color:#e8e8e8;stop-opacity:1;"
         offset="1"
         id="stop5" />
    </linearGradient>
    <radialGradient
       inkscape:collect="always"
       xlink:href="#linearGradient2"
       id="radialGradient13"
       cx="16"
       cy="22"
       fx="16"
       fy="22"
       r="9.0957031"
       gradientTransform="matrix(2,0,0,0.87953607,7.628e-4,24.650206)"
       gradientUnits="userSpaceOnUse" />
    <linearGradient
       id="linearGradient2"
       inkscape:collect="always">
      <stop
         style="stop-color:#1b4a75;stop-opacity:1;"
         offset="0"
         id="stop2" />
      <stop
         style="stop-color:#363636;stop-opacity:1;"
         offset="1"
         id="stop3" />
    </linearGradient>
    <linearGradient
       inkscape:collect="always"
       xlink:href="#linearGradient7"
       id="linearGradient11"
       x1="16"
       y1="6"
       x2="16"
       y2="25"
       gradientUnits="userSpaceOnUse" />
    <linearGradient
       id="linearGradient7"
       inkscape:collect="always">
      <stop
         style="stop-color:#4c74c3;stop-opacity:1;"
         offset="0"
         id="stop7" />
      <stop
         style="stop-color:#2894c2;stop-opacity:1"
         offset="1"
         id="stop8" />
    </linearGradient>
    <linearGradient
       inkscape:collect="always"
       xlink:href="#linearGradient7"
       id="linearGradient1"
       gradientUnits="userSpaceOnUse"
       x1="16"
       y1="6"
       x2="16"
       y2="25" />
    <linearGradient
       inkscape:collect="always"
       xlink:href="#linearGradient7"
       id="linearGradient5"
       gradientUnits="userSpaceOnUse"
       x1="16"
       y1="6"
       x2="16"
       y2="25" />
    <linearGradient
       inkscape:collect="always"
       xlink:href="#linearGradient7"
       id="linearGradient6"
       gradientUnits="userSpaceOnUse"
       x1="16"
       y1="6"
       x2="16"
       y2="25" />
    <linearGradient
       inkscape:collect="always"
       id="linearGradient11-0">
      <stop
         style="stop-color:#bfe4fa;stop-opacity:1;"
         offset="0"
         id="stop10" />
      <stop
         style="stop-color:#d9f0fd;stop-opacity:1;"
         offset="1"
         id="stop11" />
    </linearGradient>
  </defs>
  <rect
     style="opacity:0.2;fill:#000000;stroke-width:3.5"
     id="rect1"
     width="56"
     height="56"
     x="4"
     y="5"
     ry="12" />
  <rect
     style="fill:url(#linearGradient4);stroke-width:2"
     id="rect2"
     width="56"
     height="56"
     x="4"
     y="4"
     ry="12" />
  <path
     style="baseline-shift:baseline;display:inline;overflow:visible;vector-effect:none;fill:url(#linearGradient14);stroke:none;stroke-width:2;stroke-linecap:round;stroke-linejoin:round;enable-background:accumulate;stop-color:#000000"
     d="m 20.000762,36 h 24 c 2.216,0 3.008976,2.017952 4,4 l 4,8 c 0.991024,1.982052 -1.784,4 -4,4 h -32 c -2.216,0 -4.991025,-2.017948 -4,-4 l 4,-8 c 0.991026,-1.982048 1.784,-4 4,-4 z"
     id="path1" />
  <path
     style="baseline-shift:baseline;display:inline;overflow:visible;vector-effect:none;fill:url(#radialGradient13);stroke-width:2;stroke-linecap:round;stroke-linejoin:round;enable-background:accumulate;stop-color:#000000"
     d="m 20.000762,38 h 24 c 0.500914,0 0.532192,0.04896 0.894532,0.503906 0.362338,0.454946 0.7949,1.347616 1.316406,2.390626 l 3.980468,7.95703 c -0.0188,0.04638 -0.10222,0.204274 -0.316406,0.394532 C 49.42619,49.645428 48.501678,50 48.000762,50 h -32 c -0.500914,0 -1.425426,-0.354572 -1.875,-0.753906 -0.214192,-0.19026 -0.29765,-0.348142 -0.316406,-0.394532 l 3.98047,-7.95703 c 0.521506,-1.04301 0.954066,-1.93568 1.316406,-2.390626 C 19.468572,38.048962 19.499848,38 20.000762,38 Z"
     id="path2"
     sodipodi:nodetypes="sssccssssccss" />
  <g
     id="g2"
     style="fill:url(#linearGradient11)"
     transform="matrix(2,0,0,2,7.628e-4,0)">
    <path
       id="path398"
       style="opacity:0.8;fill:url(#linearGradient1);stroke-width:4;stroke-linecap:round;stroke-linejoin:round"
       d="m 16,16 c -0.135614,0.699234 -0.314197,3.370411 -2,4 -1.200966,0.44852 -4.9983856,1.016659 -5,2.5 -0.00178,1.633349 2.224208,2.5 7,2.5 4.775792,0 7.0018,-0.866651 7,-2.5 -0.0016,-1.483341 -3.799034,-2.05148 -5,-2.5 -1.685803,-0.629589 -1.864386,-3.300766 -2,-4 z" />
    <circle
       style="opacity:1;fill:url(#linearGradient5);stroke-width:4;stroke-linecap:round;stroke-linejoin:round"
       id="path452"
       cx="16"
       cy="8"
       r="2" />
    <circle
       style="opacity:0.8;fill:url(#linearGradient6);stroke-width:3;stroke-linecap:round;stroke-linejoin:round"
       id="path626"
       cx="16"
       cy="13.5"
       r="1.5" />
  </g>
</svg>
