<?xml version="1.0" encoding="UTF-8" standalone="no"?>
<!-- Created with Inkscape (http://www.inkscape.org/) -->

<svg
   width="22"
   height="22"
   viewBox="0 0 22 22"
   version="1.1"
   id="svg5"
   inkscape:version="1.4.2 (ebf0e940d0, 2025-05-08)"
   sodipodi:docname="audio-card.svg"
   xmlns:inkscape="http://www.inkscape.org/namespaces/inkscape"
   xmlns:sodipodi="http://sodipodi.sourceforge.net/DTD/sodipodi-0.dtd"
   xmlns:xlink="http://www.w3.org/1999/xlink"
   xmlns="http://www.w3.org/2000/svg"
   xmlns:svg="http://www.w3.org/2000/svg">
  <sodipodi:namedview
     id="namedview7"
     pagecolor="#ffffff"
     bordercolor="#000000"
     borderopacity="0.25"
     inkscape:showpageshadow="2"
     inkscape:pageopacity="0.0"
     inkscape:pagecheckerboard="0"
     inkscape:deskcolor="#d1d1d1"
     inkscape:document-units="px"
     showgrid="false"
     inkscape:zoom="35.727273"
     inkscape:cx="10.986005"
     inkscape:cy="11"
     inkscape:window-width="1920"
     inkscape:window-height="1011"
     inkscape:window-x="0"
     inkscape:window-y="0"
     inkscape:window-maximized="1"
     inkscape:current-layer="svg5"
     showguides="false" />
  <defs
     id="defs2">
    <linearGradient
       inkscape:collect="always"
       xlink:href="#linearGradient981"
       id="linearGradient1190"
       x1="8.5714283"
       y1="16.571428"
       x2="1.4285715"
       y2="9.4285717"
       gradientUnits="userSpaceOnUse"
       gradientTransform="matrix(1.4,0,0,1.4,4,-7.2)" />
    <linearGradient
       inkscape:collect="always"
       id="linearGradient1940">
      <stop
         style="stop-color:#28b013;stop-opacity:1;"
         offset="0"
         id="stop1936" />
      <stop
         style="stop-color:#4ac265;stop-opacity:1;"
         offset="1"
         id="stop1938" />
    </linearGradient>
    <linearGradient
       inkscape:collect="always"
       id="linearGradient981">
      <stop
         style="stop-color:#858585;stop-opacity:1;"
         offset="0"
         id="stop977" />
      <stop
         style="stop-color:#595959;stop-opacity:1;"
         offset="1"
         id="stop979" />
    </linearGradient>
    <linearGradient
       inkscape:collect="always"
       xlink:href="#linearGradient1940"
       id="linearGradient4"
       x1="16"
       y1="30"
       x2="16"
       y2="2"
       gradientUnits="userSpaceOnUse"
       gradientTransform="matrix(0.71428571,0,0,0.71428571,-0.428571,-0.4285714)" />
    <linearGradient
       inkscape:collect="always"
       xlink:href="#linearGradient981"
       id="linearGradient6"
       x1="11"
       y1="6"
       x2="11"
       y2="16"
       gradientUnits="userSpaceOnUse" />
  </defs>
  <rect
     style="opacity:0.2;fill:#000000;stroke-width:1.75"
     id="rect1"
     width="20"
     height="20"
     x="1"
     y="1.5"
     ry="4" />
  <rect
     style="fill:url(#linearGradient4);stroke-width:0.714286"
     id="rect2"
     width="20"
     height="20"
     x="1"
     y="1"
     ry="4" />
  <path
     id="rect10194"
     style="fill:#f2f2f2;stroke-width:4;stroke-linecap:round;stroke-linejoin:round"
     d="M 9 4 L 9 9 L 4 9 L 4 10 L 9 10 L 9 12 L 4 12 L 4 13 L 9 13 L 9 18 L 10 18 L 10 13 L 12 13 L 12 18 L 13 18 L 13 13 L 18 13 L 18 12 L 13 12 L 13 10 L 18 10 L 18 9 L 13 9 L 13 4 L 12 4 L 12 9 L 10 9 L 10 4 L 9 4 z M 10 10 L 12 10 L 12 12 L 10 12 L 10 10 z " />
  <path
     id="rect368"
     style="fill:url(#linearGradient1190);fill-opacity:1;stroke-width:2.8;stroke-linecap:round;stroke-linejoin:round"
     d="M 9,6 C 6.6701792,6 6,6.827314 6,9 v 4 c 0,2.172686 0.6701792,3 3,3 h 4 c 2.329821,0 3,-0.827314 3,-3 V 9 C 16,6.6701793 15.172686,6 13,6 Z"
     sodipodi:nodetypes="sssssssss" />
  <rect
     style="fill:#000000;opacity:0.2"
     id="rect3"
     width="10"
     height="10"
     x="6"
     y="6.5"
     ry="2" />
  <rect
     style="fill:url(#linearGradient6)"
     id="rect4"
     width="10"
     height="10"
     x="6"
     y="6"
     ry="2" />
</svg>
