<?xml version="1.0" encoding="UTF-8" standalone="no"?>
<!-- Created with Inkscape (http://www.inkscape.org/) -->

<svg
   width="48"
   height="48"
   viewBox="0 0 48 48.000003"
   version="1.1"
   id="svg1"
   inkscape:version="1.4 (e7c3feb100, 2024-10-09)"
   sodipodi:docname="applications-all.svg"
   xmlns:inkscape="http://www.inkscape.org/namespaces/inkscape"
   xmlns:sodipodi="http://sodipodi.sourceforge.net/DTD/sodipodi-0.dtd"
   xmlns:xlink="http://www.w3.org/1999/xlink"
   xmlns="http://www.w3.org/2000/svg"
   xmlns:svg="http://www.w3.org/2000/svg">
  <sodipodi:namedview
     id="namedview1"
     pagecolor="#ffffff"
     bordercolor="#000000"
     borderopacity="0.25"
     inkscape:showpageshadow="2"
     inkscape:pageopacity="0.0"
     inkscape:pagecheckerboard="0"
     inkscape:deskcolor="#d1d1d1"
     inkscape:document-units="px"
     inkscape:zoom="16.833333"
     inkscape:cx="23.970297"
     inkscape:cy="24"
     inkscape:window-width="1920"
     inkscape:window-height="1011"
     inkscape:window-x="0"
     inkscape:window-y="0"
     inkscape:window-maximized="1"
     inkscape:current-layer="svg1" />
  <defs
     id="defs1">
    <linearGradient
       inkscape:collect="always"
       xlink:href="#linearGradient3147"
       id="linearGradient4"
       x1="16"
       y1="30"
       x2="16"
       y2="2"
       gradientUnits="userSpaceOnUse"
       gradientTransform="scale(1.5)" />
    <linearGradient
       inkscape:collect="always"
       id="linearGradient3147">
      <stop
         style="stop-color:#0091f9;stop-opacity:1;"
         offset="0"
         id="stop3143" />
      <stop
         style="stop-color:#41bbff;stop-opacity:1;"
         offset="1"
         id="stop3145" />
    </linearGradient>
  </defs>
  <rect
     style="opacity:0.2;fill:#000000;stroke-width:2.625"
     id="rect1"
     width="42"
     height="42"
     x="3"
     y="4"
     ry="9" />
  <rect
     style="fill:url(#linearGradient4);stroke-width:1.5"
     id="rect2"
     width="42"
     height="42"
     x="3"
     y="3"
     ry="9" />
  <path
     id="path433"
     style="fill:#ffffff;fill-opacity:1;stroke-width:27;stroke-linecap:round;stroke-linejoin:round"
     d="m 13,10 c -1.656853,0 -3,1.343147 -3,3 0,1.656853 1.343147,3 3,3 1.656849,0 3,-1.343147 3,-3 0,-1.656853 -1.343151,-3 -3,-3 z m 11,0 c -1.656855,0 -3,1.343147 -3,3 0,1.656853 1.343145,3 3,3 1.656852,0 3,-1.343147 3,-3 0,-1.656853 -1.343148,-3 -3,-3 z m 11,0 c -1.656852,0 -3,1.343147 -3,3 0,1.656853 1.343148,3 3,3 1.656852,0 3,-1.343147 3,-3 0,-1.656853 -1.343148,-3 -3,-3 z M 13,21 c -1.656853,0 -3,1.343148 -3,3 0,1.656852 1.343147,3 3,3 1.656849,0 3,-1.343148 3,-3 0,-1.656852 -1.343151,-3 -3,-3 z m 11,0 c -1.656855,0 -3,1.343148 -3,3 0,1.656852 1.343145,3 3,3 1.656852,0 3,-1.343148 3,-3 0,-1.656852 -1.343148,-3 -3,-3 z m 11,0 c -1.656852,0 -3,1.343148 -3,3 0,1.656852 1.343148,3 3,3 1.656852,0 3,-1.343148 3,-3 0,-1.656852 -1.343148,-3 -3,-3 z M 13,32 c -1.656853,0 -3,1.343148 -3,3 0,1.656852 1.343147,3 3,3 1.656849,0 3,-1.343148 3,-3 0,-1.656852 -1.343151,-3 -3,-3 z m 11,0 c -1.656855,0 -3,1.343148 -3,3 0,1.656852 1.343145,3 3,3 1.656855,0 3,-1.343148 3,-3 0,-1.656852 -1.343145,-3 -3,-3 z m 11,0 c -1.656852,0 -3,1.343148 -3,3 0,1.656852 1.343148,3 3,3 1.656852,0 3,-1.343148 3,-3 0,-1.656852 -1.343148,-3 -3,-3 z"
     sodipodi:nodetypes="sssssssssssssssssssssssssssssssssssssssssssss" />
</svg>
