<?xml version="1.0" encoding="UTF-8" standalone="no"?>
<!-- Created with Inkscape (http://www.inkscape.org/) -->

<svg
   width="48"
   height="48"
   viewBox="0 0 48 48.000003"
   version="1.1"
   id="svg1"
   inkscape:version="1.4.2 (ebf0e940d0, 2025-05-08)"
   sodipodi:docname="applications-games.svg"
   xmlns:inkscape="http://www.inkscape.org/namespaces/inkscape"
   xmlns:sodipodi="http://sodipodi.sourceforge.net/DTD/sodipodi-0.dtd"
   xmlns:xlink="http://www.w3.org/1999/xlink"
   xmlns="http://www.w3.org/2000/svg"
   xmlns:svg="http://www.w3.org/2000/svg">
  <sodipodi:namedview
     id="namedview1"
     pagecolor="#ffffff"
     bordercolor="#000000"
     borderopacity="0.25"
     inkscape:showpageshadow="2"
     inkscape:pageopacity="0.0"
     inkscape:pagecheckerboard="0"
     inkscape:deskcolor="#d1d1d1"
     inkscape:document-units="px"
     inkscape:zoom="16.833333"
     inkscape:cx="23.970297"
     inkscape:cy="24"
     inkscape:window-width="1920"
     inkscape:window-height="1011"
     inkscape:window-x="0"
     inkscape:window-y="0"
     inkscape:window-maximized="1"
     inkscape:current-layer="svg1" />
  <defs
     id="defs1">
    <linearGradient
       inkscape:collect="always"
       xlink:href="#linearGradient1144"
       id="linearGradient4"
       x1="16"
       y1="30"
       x2="16"
       y2="2"
       gradientUnits="userSpaceOnUse"
       gradientTransform="scale(1.5)" />
    <linearGradient
       inkscape:collect="always"
       id="linearGradient1144">
      <stop
         style="stop-color:#adb2b9;stop-opacity:1;"
         offset="0"
         id="stop1140" />
      <stop
         style="stop-color:#e0e2e4;stop-opacity:1;"
         offset="1"
         id="stop1142" />
    </linearGradient>
    <linearGradient
       inkscape:collect="always"
       id="linearGradient1331">
      <stop
         style="stop-color:#e4940d;stop-opacity:1;"
         offset="0"
         id="stop1327" />
      <stop
         style="stop-color:#e4ad0d;stop-opacity:1;"
         offset="1"
         id="stop1329" />
    </linearGradient>
    <linearGradient
       inkscape:collect="always"
       id="linearGradient1199">
      <stop
         style="stop-color:#2d7be6;stop-opacity:1;"
         offset="0"
         id="stop1195" />
      <stop
         style="stop-color:#5897ed;stop-opacity:1;"
         offset="1"
         id="stop1197" />
    </linearGradient>
    <linearGradient
       inkscape:collect="always"
       id="linearGradient1139">
      <stop
         style="stop-color:#d43b3b;stop-opacity:1;"
         offset="0"
         id="stop1135" />
      <stop
         style="stop-color:#cb6060;stop-opacity:1;"
         offset="1"
         id="stop1137" />
    </linearGradient>
    <linearGradient
       inkscape:collect="always"
       id="linearGradient1339">
      <stop
         style="stop-color:#6ac326;stop-opacity:1;"
         offset="0"
         id="stop1335" />
      <stop
         style="stop-color:#b0d839;stop-opacity:1;"
         offset="1"
         id="stop1337" />
    </linearGradient>
    <linearGradient
       inkscape:collect="always"
       id="linearGradient1401">
      <stop
         style="stop-color:#9f9f9f;stop-opacity:1;"
         offset="0"
         id="stop1397" />
      <stop
         style="stop-color:#d0d0d0;stop-opacity:1;"
         offset="1"
         id="stop1399" />
    </linearGradient>
    <linearGradient
       inkscape:collect="always"
       xlink:href="#linearGradient1401"
       id="linearGradient6"
       x1="16.5"
       y1="26"
       x2="16.5"
       y2="17"
       gradientUnits="userSpaceOnUse" />
    <linearGradient
       inkscape:collect="always"
       xlink:href="#linearGradient1199"
       id="linearGradient9"
       x1="28.5"
       y1="23"
       x2="28.5"
       y2="20"
       gradientUnits="userSpaceOnUse" />
    <linearGradient
       inkscape:collect="always"
       xlink:href="#linearGradient1331"
       id="linearGradient13"
       x1="31.5"
       y1="20"
       x2="31.5"
       y2="17"
       gradientUnits="userSpaceOnUse" />
    <linearGradient
       inkscape:collect="always"
       xlink:href="#linearGradient1139"
       id="linearGradient17"
       x1="34.5"
       y1="23"
       x2="34.5"
       y2="20"
       gradientUnits="userSpaceOnUse" />
    <linearGradient
       inkscape:collect="always"
       xlink:href="#linearGradient1339"
       id="linearGradient19"
       x1="31.5"
       y1="26"
       x2="31.5"
       y2="23"
       gradientUnits="userSpaceOnUse" />
  </defs>
  <rect
     style="opacity:0.2;fill:#000000;stroke-width:2.625"
     id="rect1"
     width="42"
     height="42"
     x="3"
     y="4"
     ry="9" />
  <rect
     style="fill:url(#linearGradient4);stroke-width:1.5"
     id="rect2"
     width="42"
     height="42"
     x="3"
     y="3"
     ry="9" />
  <path
     id="path375"
     style="fill:#4d4d4d;fill-opacity:1;stroke-width:2.708"
     d="M 16 13 C 14.129209 13 12.670183 14.065523 11.574219 16.929688 C 9.2598168 22.973771 8 27.653 8 30.488281 C 8 32.668941 8.7465253 34.044862 10.332031 34.853516 C 10.517843 34.948546 10.724225 35.000352 10.931641 35 C 11.261821 35.000686 11.583303 34.876595 11.830078 34.650391 L 16 30.5 C 16.742716 29.820731 17.362497 29 19.175781 29 L 28.824219 29 C 30.637503 29 31.255792 29.820346 32 30.5 L 36.169922 34.650391 C 36.581443 35.026474 37.175093 35.104892 37.667969 34.853516 C 39.253101 34.045232 40 32.664622 40 30.482422 C 40 27.647524 38.739065 22.972614 36.425781 16.929688 C 35.329821 14.065524 33.870415 13 32 13 C 31.125096 13 29.768737 13.233797 29.03125 13.626953 C 25.86584 15.308562 22.206487 15.344374 18.974609 13.626953 C 18.234509 13.233801 16.874528 13 16 13 z " />
  <path
     d="m 16,17 h 1 c 0.553997,0 1,0.446003 1,1 v 2 h 2 c 0.553997,0 1,0.446003 1,1 v 1 c 0,0.553997 -0.446003,1 -1,1 h -2 v 2 c 0,0.553997 -0.446003,1 -1,1 h -1 c -0.553997,0 -1,-0.446003 -1,-1 v -2 h -2 c -0.553997,0 -1,-0.446003 -1,-1 v -1 c 0,-0.553997 0.446003,-1 1,-1 h 2 v -2 c 0,-0.553997 0.446003,-1 1,-1 z"
     style="fill:url(#linearGradient6);fill-opacity:1;stroke-width:2.708"
     id="path1" />
  <circle
     style="fill:url(#linearGradient13);stroke-width:2"
     id="path2"
     cx="31.5"
     cy="18.5"
     r="1.5" />
  <circle
     style="fill:url(#linearGradient9);stroke-width:2"
     id="path3"
     cx="28.5"
     cy="21.5"
     r="1.5" />
  <circle
     style="fill:url(#linearGradient17);stroke-width:2"
     id="path4"
     cx="34.5"
     cy="21.5"
     r="1.5" />
  <circle
     style="fill:url(#linearGradient19);stroke-width:2"
     id="path5"
     cx="31.5"
     cy="24.5"
     r="1.5" />
</svg>
