<?xml version="1.0" encoding="UTF-8" standalone="no"?>
<!-- Created with Inkscape (http://www.inkscape.org/) -->

<svg
   width="48"
   height="48"
   viewBox="0 0 48 48.000004"
   version="1.1"
   id="svg1"
   inkscape:version="1.4 (e7c3feb100, 2024-10-09)"
   sodipodi:docname="ark.svg"
   xmlns:inkscape="http://www.inkscape.org/namespaces/inkscape"
   xmlns:sodipodi="http://sodipodi.sourceforge.net/DTD/sodipodi-0.dtd"
   xmlns:xlink="http://www.w3.org/1999/xlink"
   xmlns="http://www.w3.org/2000/svg"
   xmlns:svg="http://www.w3.org/2000/svg">
  <sodipodi:namedview
     id="namedview1"
     pagecolor="#ffffff"
     bordercolor="#000000"
     borderopacity="0.25"
     inkscape:showpageshadow="2"
     inkscape:pageopacity="0.0"
     inkscape:pagecheckerboard="0"
     inkscape:deskcolor="#d1d1d1"
     inkscape:document-units="px"
     inkscape:zoom="16.375"
     inkscape:cx="24.030534"
     inkscape:cy="24"
     inkscape:window-width="1920"
     inkscape:window-height="1011"
     inkscape:window-x="0"
     inkscape:window-y="0"
     inkscape:window-maximized="1"
     inkscape:current-layer="svg1" />
  <defs
     id="defs1">
    <linearGradient
       inkscape:collect="always"
       xlink:href="#linearGradient2014"
       id="linearGradient4"
       x1="16"
       y1="30"
       x2="16"
       y2="2"
       gradientUnits="userSpaceOnUse"
       gradientTransform="scale(1.5)" />
    <linearGradient
       inkscape:collect="always"
       xlink:href="#linearGradient2014"
       id="linearGradient6816"
       x1="21"
       y1="37"
       x2="21"
       y2="-5"
       gradientUnits="userSpaceOnUse"
       gradientTransform="translate(2.9999996,8.0000002)" />
    <linearGradient
       inkscape:collect="always"
       id="linearGradient2014">
      <stop
         style="stop-color:#d09552;stop-opacity:1;"
         offset="0"
         id="stop2010" />
      <stop
         style="stop-color:#f7dcb2;stop-opacity:1;"
         offset="1"
         id="stop2012" />
    </linearGradient>
  </defs>
  <rect
     style="opacity:0.2;fill:#000000;stroke-width:3.675"
     id="rect1"
     width="42"
     height="42"
     x="3"
     y="4"
     ry="9" />
  <rect
     style="fill:url(#linearGradient4);stroke-width:1.5"
     id="rect2"
     width="42"
     height="42"
     x="3"
     y="3"
     ry="9" />
  <rect
     style="opacity:0.6;fill:#ffffff;stroke-width:3;stroke-linecap:round;stroke-linejoin:round"
     id="rect954"
     width="15"
     height="18"
     x="9"
     y="11"
     ry="3" />
  <path
     id="rect346"
     style="fill:#ffffff;stroke-width:3;stroke-linecap:round;stroke-linejoin:round"
     d="m 12,16 c -1.661998,0 -3,1.338002 -3,3 v 1 1 12 c 0,2.215998 1.784002,4 4,4 h 22 c 2.215998,0 4,-1.784002 4,-4 V 20 c 0,-2.215998 -1.784002,-4 -4,-4 H 18 13 Z" />
  <path
     id="rect6665"
     style="fill:url(#linearGradient6816);fill-opacity:1;stroke-width:2;stroke-linecap:round;stroke-linejoin:round"
     d="m 9,24 v 2 h 2 v -2 z m 2,2 v 2 h 2 v -2 z m 2,0 h 2 v -2 h -2 z m 2,0 v 2 h 2 v -2 z m 2,0 h 2 v -2 h -2 z m 2,0 v 2 h 2 v -2 z m 2,0 h 2 v -2 h -2 z m 2,0 v 2 h 2 v -2 z m 2,0 h 2 v -2 h -2 z m 2,0 v 2 h 2 v -2 z m 2,0 h 2 v -2 h -2 z m 2,0 v 2 h 2 v -2 z m 2,0 h 2 v -2 h -2 z m 2,0 v 2 h 2 v -2 z m 2,0 h 2 v -2 h -2 z" />
</svg>
