<?xml version="1.0" encoding="UTF-8" standalone="no"?>
<!-- Created with Inkscape (http://www.inkscape.org/) -->

<svg
   width="48"
   height="48"
   viewBox="0 0 48 48.000004"
   version="1.1"
   id="svg1"
   inkscape:version="1.4.2 (ebf0e940d0, 2025-05-08)"
   sodipodi:docname="audacity.svg"
   xmlns:inkscape="http://www.inkscape.org/namespaces/inkscape"
   xmlns:sodipodi="http://sodipodi.sourceforge.net/DTD/sodipodi-0.dtd"
   xmlns:xlink="http://www.w3.org/1999/xlink"
   xmlns="http://www.w3.org/2000/svg"
   xmlns:svg="http://www.w3.org/2000/svg">
  <sodipodi:namedview
     id="namedview1"
     pagecolor="#ffffff"
     bordercolor="#000000"
     borderopacity="0.25"
     inkscape:showpageshadow="2"
     inkscape:pageopacity="0.0"
     inkscape:pagecheckerboard="0"
     inkscape:deskcolor="#d1d1d1"
     inkscape:document-units="px"
     inkscape:zoom="16.5625"
     inkscape:cx="24"
     inkscape:cy="24"
     inkscape:window-width="1920"
     inkscape:window-height="1010"
     inkscape:window-x="0"
     inkscape:window-y="0"
     inkscape:window-maximized="1"
     inkscape:current-layer="svg1" />
  <defs
     id="defs1">
    <linearGradient
       inkscape:collect="always"
       xlink:href="#linearGradient1161"
       id="linearGradient4"
       x1="16"
       y1="30"
       x2="16"
       y2="2"
       gradientUnits="userSpaceOnUse"
       gradientTransform="scale(1.5)" />
    <linearGradient
       inkscape:collect="always"
       xlink:href="#linearGradient3010"
       id="linearGradient7704"
       x1="12"
       y1="30.000244"
       x2="36"
       y2="30.000244"
       gradientUnits="userSpaceOnUse" />
    <linearGradient
       inkscape:collect="always"
       id="linearGradient3010">
      <stop
         style="stop-color:#f2c204;stop-opacity:1;"
         offset="0"
         id="stop3006" />
      <stop
         style="stop-color:#f26c04;stop-opacity:1;"
         offset="1"
         id="stop3008" />
    </linearGradient>
    <linearGradient
       inkscape:collect="always"
       id="linearGradient1161">
      <stop
         style="stop-color:#1d49bf;stop-opacity:1;"
         offset="0"
         id="stop1157" />
      <stop
         style="stop-color:#689ddc;stop-opacity:1;"
         offset="1"
         id="stop1159" />
    </linearGradient>
  </defs>
  <rect
     style="opacity:0.2;fill:#000000;stroke-width:3.675"
     id="rect1"
     width="42"
     height="42"
     x="3"
     y="4"
     ry="9" />
  <rect
     style="fill:url(#linearGradient4);stroke-width:1.5"
     id="rect2"
     width="42"
     height="42"
     x="3"
     y="3"
     ry="9" />
  <path
     style="color:#000000;fill:url(#linearGradient7704);fill-opacity:1;stroke:none;stroke-linecap:square;stroke-linejoin:round;-inkscape-stroke:none"
     d="m 24.017578,21 a 1.0001,1.0001 0 0 0 -0.988281,0.757812 l -2.794922,11.183594 -1.246094,-8.09375 A 1.0001,1.0001 0 0 0 17.105469,24.552734 L 15.382813,28 H 13 12 v 2 h 1 3 a 1.0001,1.0001 0 0 0 0.894531,-0.552734 l 0.595703,-1.189454 1.521485,9.894532 a 1.0001,1.0001 0 0 0 1.958984,0.08984 l 2.955078,-11.816406 2.095703,9.783203 a 1.0001,1.0001 0 0 0 1.949219,0.0332 l 2.25,-9 0.851563,2.128907 A 1.0001,1.0001 0 0 0 32,30 h 3 1 v -2 h -1 -2.322266 l -1.75,-4.371094 a 1.0001,1.0001 0 0 0 -1.898437,0.128906 l -1.955078,7.816407 -2.095703,-9.783203 A 1.0001,1.0001 0 0 0 24.017578,21 Z"
     id="path7694" />
  <path
     id="rect344"
     style="fill:#ffffff;stroke-width:4.8;stroke-linecap:round;stroke-linejoin:round"
     d="M 24,9 C 17.352032,9 12,14.352032 12,21 v 12 h 2 V 21 c 0,-5.539973 4.460027,-10 10,-10 5.539973,0 10,4.460027 10,10 v 12 h 2 V 21 C 36,14.352032 30.647968,9 24,9 Z" />
  <path
     id="rect2893"
     style="fill:#ffffff;fill-opacity:1;stroke-width:2;stroke-linecap:round;stroke-linejoin:round"
     d="m 35,23 v 12 c 2.215998,0 4,-2.230003 4,-5 v -2 c 0,-2.769997 -1.784002,-5 -4,-5 z" />
  <path
     id="rect502"
     style="fill:#c4c4c4;fill-opacity:1;stroke-width:4;stroke-linecap:round;stroke-linejoin:round"
     d="m 34,23 c -0.553999,0 -1,0.446001 -1,1 v 10 c 0,0.553999 0.446001,1 1,1 h 1 V 23 Z" />
  <path
     id="rect2891"
     style="fill:#ffffff;fill-opacity:1;stroke-width:5;stroke-linecap:round;stroke-linejoin:round"
     d="m 13,23 c -2.215998,0 -4,2.230003 -4,5 v 2 c 0,2.769997 1.784002,5 4,5 z" />
  <path
     id="rect401"
     style="fill:#c4c4c4;fill-opacity:1;stroke-width:6.9282;stroke-linecap:round;stroke-linejoin:round"
     d="m 13,23 v 12 h 1 c 0.553999,0 1,-0.446001 1,-1 V 24 c 0,-0.553999 -0.446001,-1 -1,-1 z" />
</svg>
