<?xml version="1.0" encoding="UTF-8" standalone="no"?>
<!-- Created with Inkscape (http://www.inkscape.org/) -->

<svg
   width="48"
   height="48"
   viewBox="0 0 48 48.000004"
   version="1.1"
   id="svg1"
   inkscape:version="1.4 (e7c3feb100, 2024-10-09)"
   sodipodi:docname="blender.svg"
   xmlns:inkscape="http://www.inkscape.org/namespaces/inkscape"
   xmlns:sodipodi="http://sodipodi.sourceforge.net/DTD/sodipodi-0.dtd"
   xmlns:xlink="http://www.w3.org/1999/xlink"
   xmlns="http://www.w3.org/2000/svg"
   xmlns:svg="http://www.w3.org/2000/svg">
  <sodipodi:namedview
     id="namedview1"
     pagecolor="#ffffff"
     bordercolor="#000000"
     borderopacity="0.25"
     inkscape:showpageshadow="2"
     inkscape:pageopacity="0.0"
     inkscape:pagecheckerboard="0"
     inkscape:deskcolor="#d1d1d1"
     inkscape:document-units="px"
     inkscape:zoom="16.375"
     inkscape:cx="23.969466"
     inkscape:cy="24"
     inkscape:window-width="1920"
     inkscape:window-height="1011"
     inkscape:window-x="0"
     inkscape:window-y="0"
     inkscape:window-maximized="1"
     inkscape:current-layer="svg1" />
  <defs
     id="defs1">
    <linearGradient
       inkscape:collect="always"
       xlink:href="#linearGradient3"
       id="linearGradient4"
       x1="16"
       y1="30"
       x2="16"
       y2="2"
       gradientUnits="userSpaceOnUse"
       gradientTransform="scale(1.5)" />
    <linearGradient
       inkscape:collect="always"
       xlink:href="#linearGradient1428"
       id="linearGradient2"
       x1="38"
       y1="8.8203125"
       x2="38"
       y2="38"
       gradientUnits="userSpaceOnUse" />
    <linearGradient
       inkscape:collect="always"
       id="linearGradient1428">
      <stop
         style="stop-color:#ffbb75;stop-opacity:1;"
         offset="0"
         id="stop1424" />
      <stop
         style="stop-color:#f68200;stop-opacity:1;"
         offset="1"
         id="stop1426" />
    </linearGradient>
    <linearGradient
       id="linearGradient3"
       inkscape:collect="always">
      <stop
         style="stop-color:#f8dabe;stop-opacity:1;"
         offset="0"
         id="stop3" />
      <stop
         style="stop-color:#faf5eb;stop-opacity:1;"
         offset="1"
         id="stop4" />
    </linearGradient>
  </defs>
  <rect
     style="opacity:0.2;fill:#000000;stroke-width:3.675"
     id="rect1"
     width="42"
     height="42"
     x="3"
     y="4"
     ry="9" />
  <rect
     style="fill:url(#linearGradient4);stroke-width:1.5"
     id="rect2"
     width="42"
     height="42"
     x="3"
     y="3"
     ry="9" />
  <path
     id="path345"
     style="fill:url(#linearGradient2);stroke-width:0.916667;stroke-linecap:square;stroke-linejoin:round"
     d="m 23.757812,8.8203125 c -0.383428,-10e-8 -0.766744,0.147604 -1.060546,0.4414063 -0.587605,0.5876044 -0.587606,1.5334902 0,2.1210932 l 4.625,4.625 A 11,11 0 0 0 27,16 H 11.5 c -0.830998,0 -1.5,0.669002 -1.5,1.5 0,0.830998 0.669002,1.5 1.5,1.5 h 7.984375 a 11,11 0 0 0 -0.242187,0.242188 l -0.01953,-0.01953 -9.9609372,9.960938 c -0.5876038,0.587605 -0.5876045,1.533489 0,2.121094 0.5876044,0.587604 1.5334902,0.587605 2.1210932,0 L 16.02344,26.664064 A 11,11 0 0 0 16,27 11,11 0 0 0 27,38 11,11 0 0 0 38,27 11,11 0 0 0 34.779297,19.222656 L 24.818359,9.2617188 C 24.524557,8.967917 24.141241,8.8203126 23.757812,8.8203125 Z" />
  <circle
     style="fill:#ffffff;stroke-width:4.00003;stroke-linecap:square;stroke-linejoin:round"
     id="path629"
     cx="27"
     cy="27"
     r="8" />
  <circle
     style="fill:#28aee7;fill-opacity:1;stroke-width:4.00003;stroke-linecap:square;stroke-linejoin:round"
     id="path632"
     cx="27"
     cy="27"
     r="4" />
</svg>
