<?xml version="1.0" encoding="UTF-8" standalone="no"?>
<!-- Created with Inkscape (http://www.inkscape.org/) -->

<svg
   width="48"
   height="48"
   viewBox="0 0 48 48.000003"
   version="1.1"
   id="svg1"
   inkscape:version="1.4 (e7c3feb100, 2024-10-09)"
   sodipodi:docname="calls-app.svg"
   xmlns:inkscape="http://www.inkscape.org/namespaces/inkscape"
   xmlns:sodipodi="http://sodipodi.sourceforge.net/DTD/sodipodi-0.dtd"
   xmlns:xlink="http://www.w3.org/1999/xlink"
   xmlns="http://www.w3.org/2000/svg"
   xmlns:svg="http://www.w3.org/2000/svg">
  <sodipodi:namedview
     id="namedview1"
     pagecolor="#ffffff"
     bordercolor="#000000"
     borderopacity="0.25"
     inkscape:showpageshadow="2"
     inkscape:pageopacity="0.0"
     inkscape:pagecheckerboard="0"
     inkscape:deskcolor="#d1d1d1"
     inkscape:document-units="px"
     inkscape:zoom="16.833333"
     inkscape:cx="23.970297"
     inkscape:cy="24"
     inkscape:window-width="1920"
     inkscape:window-height="1011"
     inkscape:window-x="0"
     inkscape:window-y="0"
     inkscape:window-maximized="1"
     inkscape:current-layer="svg1" />
  <defs
     id="defs1">
    <linearGradient
       inkscape:collect="always"
       xlink:href="#linearGradient1717"
       id="linearGradient4"
       x1="16"
       y1="30"
       x2="16"
       y2="2"
       gradientUnits="userSpaceOnUse"
       gradientTransform="scale(1.5)" />
    <linearGradient
       inkscape:collect="always"
       id="linearGradient1717">
      <stop
         style="stop-color:#4ca90b;stop-opacity:1;"
         offset="0"
         id="stop1713" />
      <stop
         style="stop-color:#9ad77b;stop-opacity:1;"
         offset="1"
         id="stop1715" />
    </linearGradient>
  </defs>
  <rect
     style="opacity:0.2;fill:#000000;stroke-width:2.625"
     id="rect1"
     width="42"
     height="42"
     x="3"
     y="4"
     ry="9" />
  <rect
     style="fill:url(#linearGradient4);stroke-width:1.5"
     id="rect2"
     width="42"
     height="42"
     x="3"
     y="3"
     ry="9" />
  <path
     id="path1"
     style="opacity:0.5;fill:#ffffff;stroke-width:1.5"
     d="m 14.876953,10.40918 c -0.383428,0 -0.766745,0.14565 -1.060547,0.439453 l -2.121093,2.121094 1.333007,4.561523 5.033204,1.801758 2.121093,-2.121095 c 0.587604,-0.587605 0.587604,-1.533487 0,-2.121092 L 15.9375,10.848633 C 15.643698,10.554831 15.260382,10.40918 14.876953,10.40918 Z m 16.97168,16.968749 c -0.383429,0 -0.766745,0.145651 -1.060547,0.439454 L 28.666992,29.938476 30,34.5 l 5.033203,1.801758 2.121093,-2.121094 c 0.587604,-0.587606 0.587604,-1.533488 0,-2.121094 l -4.245117,-4.242187 c -0.293802,-0.293802 -0.677118,-0.439454 -1.060546,-0.439454 z" />
  <path
     id="rect788"
     style="fill:#ffffff;stroke-width:1.5"
     d="m 11.698242,12.966797 c -2.3504167,2.350416 -1.404529,7.082774 2.121094,10.608398 l 10.605468,10.605469 c 3.525626,3.525624 8.257984,4.471511 10.608399,2.121094 l -6.366211,-6.363282 c -0.587603,0.587603 -1.53349,0.587603 -2.121093,0 l -8.484375,-8.484375 c -0.587603,-0.587603 -0.587603,-1.53349 0,-2.121093 z" />
</svg>
