<?xml version="1.0" encoding="UTF-8" standalone="no"?>
<!-- Created with Inkscape (http://www.inkscape.org/) -->

<svg
   width="48"
   height="48"
   viewBox="0 0 48 48.000005"
   version="1.1"
   id="svg1"
   inkscape:version="1.4.2 (ebf0e940d0, 2025-05-08)"
   sodipodi:docname="cpu-x.svg"
   xmlns:inkscape="http://www.inkscape.org/namespaces/inkscape"
   xmlns:sodipodi="http://sodipodi.sourceforge.net/DTD/sodipodi-0.dtd"
   xmlns:xlink="http://www.w3.org/1999/xlink"
   xmlns="http://www.w3.org/2000/svg"
   xmlns:svg="http://www.w3.org/2000/svg">
  <sodipodi:namedview
     id="namedview1"
     pagecolor="#ffffff"
     bordercolor="#000000"
     borderopacity="0.25"
     inkscape:showpageshadow="2"
     inkscape:pageopacity="0.0"
     inkscape:pagecheckerboard="0"
     inkscape:deskcolor="#d1d1d1"
     inkscape:document-units="px"
     inkscape:zoom="16.583333"
     inkscape:cx="23.969849"
     inkscape:cy="24"
     inkscape:window-width="1920"
     inkscape:window-height="1011"
     inkscape:window-x="0"
     inkscape:window-y="0"
     inkscape:window-maximized="1"
     inkscape:current-layer="svg1"
     showguides="false" />
  <defs
     id="defs1">
    <linearGradient
       inkscape:collect="always"
       xlink:href="#linearGradient1940"
       id="linearGradient4"
       x1="16"
       y1="30"
       x2="16"
       y2="2"
       gradientUnits="userSpaceOnUse"
       gradientTransform="scale(1.5)" />
    <linearGradient
       inkscape:collect="always"
       id="linearGradient1993">
      <stop
         style="stop-color:#e9e9e9;stop-opacity:1;"
         offset="0"
         id="stop1989" />
      <stop
         style="stop-color:#d0d0d0;stop-opacity:1;"
         offset="1"
         id="stop1991" />
    </linearGradient>
    <linearGradient
       inkscape:collect="always"
       id="linearGradient1940">
      <stop
         style="stop-color:#28b013;stop-opacity:1;"
         offset="0"
         id="stop1936" />
      <stop
         style="stop-color:#4ac265;stop-opacity:1;"
         offset="1"
         id="stop1938" />
    </linearGradient>
    <linearGradient
       inkscape:collect="always"
       xlink:href="#linearGradient1993"
       id="linearGradient6"
       x1="11"
       y1="4"
       x2="11"
       y2="18"
       gradientUnits="userSpaceOnUse"
       gradientTransform="matrix(2.142857,0,0,2.142857,0.42857184,0.42857184)" />
  </defs>
  <rect
     style="opacity:0.2;fill:#000000;stroke-width:3.675"
     id="rect1"
     width="42"
     height="42"
     x="3"
     y="4"
     ry="9" />
  <rect
     style="fill:url(#linearGradient4);stroke-width:1.5"
     id="rect2"
     width="42"
     height="42"
     x="3"
     y="3"
     ry="9" />
  <rect
     style="opacity:0.2;fill:#000000;stroke-width:4.28571"
     id="rect3"
     width="30"
     height="30"
     x="9"
     y="10"
     ry="6" />
  <rect
     style="opacity:1;fill:url(#linearGradient6);stroke-width:4.28571"
     id="rect4"
     width="30"
     height="30"
     x="9"
     y="9"
     ry="6" />
  <path
     d="m 25.086,28.392071 c -1.6,0.746 -3.088,0.738 -4.088,0.666 -1.192,-0.086 -2.152,-0.414 -2.572,-0.698 -0.26,-0.176 -0.614,-0.108 -0.79,0.152 -0.176,0.26 -0.108,0.612 0.152,0.788 0.678,0.458 1.876,0.8 3.128,0.89 0.212,0.016 0.446,0.026 0.696,0.026 1.09,0 2.474,-0.104 3.954,-0.794 0.284,-0.132 0.408,-0.47 0.276,-0.754 -0.132,-0.284 -0.47,-0.408 -0.756,-0.276 z m 6.316,-0.842 c 0.054,-4.934 0.562,-14.2592 -8.886,-13.5072 -9.329,0.752 -6.856,10.6052 -6.994,13.9052 -0.124,1.746 -0.704,3.88 -1.522,6.052 h 2.522 c 0.258,-0.92 0.45,-1.83 0.532,-2.698 0.152,0.106 0.314,0.208 0.488,0.306 0.282,0.166 0.524,0.388 0.782,0.622 0.6,0.548 1.28,1.168 2.612,1.246 0.088,0.004 0.178,0.008 0.266,0.008 1.346,0 2.266,-0.59 3.006,-1.062 0.354,-0.228 0.66,-0.424 0.948,-0.518 0.818,-0.256 1.534,-0.67 2.068,-1.196 0.084,-0.082 0.162,-0.166 0.234,-0.252 0.298,1.09 0.706,2.318 1.158,3.544 H 34 c -1.292,-1.996 -2.626,-3.952 -2.598,-6.448 z m -14.978,-2.684 v 0 c -0.092,-1.612 0.678,-2.966 1.722,-3.026 1.042,-0.062 1.964,1.196 2.056,2.806 v 0 c 0.004,0.088 0.008,0.174 0.008,0.258 -0.332,0.084 -0.63,0.204 -0.896,0.344 -0.002,-0.012 -0.002,-0.024 -0.004,-0.034 v -0.002 c -0.088,-0.914 -0.576,-1.604 -1.09,-1.542 -0.514,0.062 -0.858,0.854 -0.768,1.768 v 0.002 c 0.038,0.398 0.154,0.754 0.314,1.024 -0.04,0.032 -0.152,0.114 -0.282,0.208 -0.098,0.07 -0.216,0.158 -0.358,0.262 -0.388,-0.51 -0.654,-1.242 -0.702,-2.068 z m 10.57,3.98 c -0.038,0.852 -1.152,1.654 -2.18,1.974 l -0.006,0.002 c -0.428,0.138 -0.808,0.384 -1.212,0.642 -0.68,0.434 -1.38,0.882 -2.394,0.882 -0.066,0 -0.134,-0.002 -0.202,-0.006 -0.928,-0.054 -1.362,-0.45 -1.91,-0.95 -0.29,-0.264 -0.59,-0.538 -0.978,-0.764 l -0.008,-0.004 c -0.834,-0.472 -1.352,-1.058 -1.384,-1.568 -0.016,-0.252 0.096,-0.472 0.336,-0.652 0.52,-0.39 0.868,-0.644 1.098,-0.814 0.256,-0.186 0.334,-0.242 0.392,-0.298 0.04,-0.038 0.084,-0.082 0.132,-0.128 0.478,-0.464 1.276,-1.24 2.504,-1.24 0.75,0 1.58,0.288 2.464,0.856 0.416,0.272 0.778,0.396 1.238,0.556 0.314,0.108 0.672,0.232 1.152,0.436 l 0.008,0.004 c 0.446,0.184 0.974,0.518 0.95,1.072 z m -0.246,-1.998 c -0.086,-0.044 -0.176,-0.084 -0.27,-0.124 -0.432,-0.184 -0.778,-0.31 -1.064,-0.41 0.158,-0.31 0.256,-0.698 0.266,-1.118 v 0 c 0.022,-1.024 -0.494,-1.854 -1.152,-1.856 -0.66,0 -1.21,0.828 -1.232,1.85 v 0 c -0.002,0.034 -0.002,0.068 -0.002,0.1 -0.404,-0.186 -0.804,-0.322 -1.194,-0.404 -0.002,-0.04 -0.004,-0.078 -0.004,-0.116 v -0.002 c -0.038,-1.862 1.106,-3.406 2.554,-3.444 1.448,-0.04 2.652,1.438 2.69,3.302 v 0.002 c 0.018,0.842 -0.208,1.618 -0.594,2.22 z"
     style="opacity:0.4;fill:#000000;stroke-width:2"
     id="path1322" />
</svg>
