<?xml version="1.0" encoding="UTF-8" standalone="no"?>
<!-- Created with Inkscape (http://www.inkscape.org/) -->

<svg
   width="48"
   height="48"
   viewBox="0 0 48 48.000003"
   version="1.1"
   id="svg1"
   inkscape:version="1.4.2 (ebf0e940d0, 2025-05-08)"
   sodipodi:docname="cs-applets.svg"
   xmlns:inkscape="http://www.inkscape.org/namespaces/inkscape"
   xmlns:sodipodi="http://sodipodi.sourceforge.net/DTD/sodipodi-0.dtd"
   xmlns:xlink="http://www.w3.org/1999/xlink"
   xmlns="http://www.w3.org/2000/svg"
   xmlns:svg="http://www.w3.org/2000/svg">
  <sodipodi:namedview
     id="namedview1"
     pagecolor="#ffffff"
     bordercolor="#000000"
     borderopacity="0.25"
     inkscape:showpageshadow="2"
     inkscape:pageopacity="0.0"
     inkscape:pagecheckerboard="0"
     inkscape:deskcolor="#d1d1d1"
     inkscape:document-units="px"
     inkscape:zoom="16.833333"
     inkscape:cx="23.970298"
     inkscape:cy="23.970298"
     inkscape:window-width="1920"
     inkscape:window-height="1010"
     inkscape:window-x="0"
     inkscape:window-y="0"
     inkscape:window-maximized="1"
     inkscape:current-layer="svg1" />
  <defs
     id="defs1">
    <linearGradient
       inkscape:collect="always"
       xlink:href="#linearGradient3147"
       id="linearGradient4"
       x1="16"
       y1="30"
       x2="16"
       y2="2"
       gradientUnits="userSpaceOnUse"
       gradientTransform="scale(1.5)" />
    <linearGradient
       inkscape:collect="always"
       id="linearGradient3147">
      <stop
         style="stop-color:#0091f9;stop-opacity:1;"
         offset="0"
         id="stop3143" />
      <stop
         style="stop-color:#41bbff;stop-opacity:1;"
         offset="1"
         id="stop3145" />
    </linearGradient>
  </defs>
  <rect
     style="opacity:0.2;fill:#000000;stroke-width:2.625"
     id="rect1"
     width="42"
     height="42"
     x="3"
     y="4"
     ry="9" />
  <rect
     style="fill:url(#linearGradient4);stroke-width:1.5"
     id="rect2"
     width="42"
     height="42"
     x="3"
     y="3"
     ry="9" />
  <rect
     style="opacity:0.5;fill:#ffffff;stroke-width:12;stroke-linecap:round;stroke-linejoin:round"
     id="rect1324"
     width="34"
     height="6"
     x="7"
     y="34"
     ry="2" />
  <path
     id="rect544"
     style="fill:#ffffff;stroke-width:3;stroke-linecap:round;stroke-linejoin:round"
     d="M 10.5,32 C 9.669,32 9,32.669001 9,33.5 v 3 c 0,0.830998 0.669,1.5 1.5,1.5 h 3 c 0.830999,0 1.5,-0.669002 1.5,-1.5 v -3 C 15,32.669001 14.330999,32 13.5,32 Z m 8,0 C 17.669001,32 17,32.669001 17,33.5 v 3 c 0,0.830998 0.669001,1.5 1.5,1.5 h 3 c 0.830998,0 1.5,-0.669002 1.5,-1.5 v -3 C 23,32.669001 22.330998,32 21.5,32 Z m 8,0 C 25.669001,32 25,32.669001 25,33.5 v 3 c 0,0.830998 0.669001,1.5 1.5,1.5 h 3 c 0.830998,0 1.5,-0.669002 1.5,-1.5 v -3 C 31,32.669001 30.330998,32 29.5,32 Z m 8,0 C 33.669001,32 33,32.669001 33,33.5 v 3 c 0,0.830998 0.669001,1.5 1.5,1.5 h 3 c 0.830998,0 1.5,-0.669002 1.5,-1.5 v -3 C 39,32.669001 38.330998,32 37.5,32 Z"
     sodipodi:nodetypes="ssssssssssssssssssssssssssssssssssss" />
</svg>
