<?xml version="1.0" encoding="UTF-8" standalone="no"?>
<!-- Created with Inkscape (http://www.inkscape.org/) -->

<svg
   width="48"
   height="48"
   viewBox="0 0 48 48.000003"
   version="1.1"
   id="svg1"
   inkscape:version="1.4.2 (ebf0e940d0, 2025-05-08)"
   sodipodi:docname="desktop-environment-xfce.svg"
   xmlns:inkscape="http://www.inkscape.org/namespaces/inkscape"
   xmlns:sodipodi="http://sodipodi.sourceforge.net/DTD/sodipodi-0.dtd"
   xmlns:xlink="http://www.w3.org/1999/xlink"
   xmlns="http://www.w3.org/2000/svg"
   xmlns:svg="http://www.w3.org/2000/svg">
  <sodipodi:namedview
     id="namedview1"
     pagecolor="#ffffff"
     bordercolor="#000000"
     borderopacity="0.25"
     inkscape:showpageshadow="2"
     inkscape:pageopacity="0.0"
     inkscape:pagecheckerboard="0"
     inkscape:deskcolor="#d1d1d1"
     inkscape:document-units="px"
     inkscape:zoom="16.375"
     inkscape:cx="23.969466"
     inkscape:cy="24"
     inkscape:window-width="1920"
     inkscape:window-height="1011"
     inkscape:window-x="0"
     inkscape:window-y="0"
     inkscape:window-maximized="1"
     inkscape:current-layer="svg1" />
  <defs
     id="defs1">
    <linearGradient
       inkscape:collect="always"
       xlink:href="#linearGradient2"
       id="linearGradient4"
       x1="16"
       y1="30"
       x2="16"
       y2="2"
       gradientUnits="userSpaceOnUse"
       gradientTransform="scale(1.5)" />
    <linearGradient
       inkscape:collect="always"
       id="linearGradient2">
      <stop
         style="stop-color:#26448e;stop-opacity:1;"
         offset="0"
         id="stop1" />
      <stop
         style="stop-color:#6074be;stop-opacity:1;"
         offset="1"
         id="stop2" />
    </linearGradient>
  </defs>
  <rect
     style="opacity:0.2;fill:#000000;stroke-width:2.625"
     id="rect1"
     width="42"
     height="42"
     x="3"
     y="4"
     ry="9" />
  <rect
     style="fill:url(#linearGradient4);stroke-width:1.5"
     id="rect2"
     width="42"
     height="42"
     x="3"
     y="3"
     ry="9" />
  <path
     style="fill:#f9f9f9;stroke-width:1.5"
     d="M 5.6265777,14.924639 C 5.5500172,15.074657 5.4734566,15.22364 5.4,15.373656 c 1.1639264,0.646628 4.5181037,2.331993 6.110355,3.330383 2.012299,1.232211 4.732266,3.74629 4.946427,4.169443 -2.092998,3.6449 -1.143232,6.870786 -1.390503,7.214274 -0.177951,0.286585 -1.822967,2.092998 -1.293251,2.359924 0.525577,0.26279 1.361536,-0.150016 1.487756,-0.230715 0.26279,-0.161397 0.533855,-0.396253 0.42005,0.06828 -0.22244,0.949763 -1.232211,3.233129 0.161397,2.7479 0.169674,-0.09726 2.412689,-2.569948 2.683756,-2.654785 4.462235,1.163925 9.45315,0.630072 10.377048,0.197608 0.481091,0.03207 1.842625,0.888723 2.618577,1.297391 0.775951,0.404528 2.889642,1.418438 2.263707,-0.424187 -0.194505,-0.582481 -1.583975,-2.069201 -1.358432,-2.166455 0.49661,-0.197609 1.725716,0.513162 2.198528,0.646626 1.4143,0.396252 1.604667,-0.153122 0.711805,-1.361535 -0.881479,-1.208415 -1.013908,-1.022186 -1.29325,-1.579836 -0.218302,-0.449018 0,-0.945626 0.161397,-1.066674 0.286586,-0.218301 4.509827,-2.562708 5.499941,-3.459708 1.467064,-1.333599 0,-2.998274 -0.360042,-3.233127 -3.042763,-2.190251 -6.167258,-1.721577 -6.207607,-2.069204 -0.0207,-0.39625 -0.0123,-1.539486 -0.06519,-1.935739 -0.303139,-2.683757 -1.543626,-2.008161 -1.7133,-2.008161 -1.240488,0.194505 -0.784228,2.092999 -0.25865,3.879756 0.04035,0.456259 -0.432464,0.254512 -0.711806,-0.226578 -0.953903,-2.55857 -1.354293,-2.514081 -1.617083,-2.590643 -0.254511,-0.05691 -1.151509,0.489368 -1.13599,1.523969 0.0042,0.294861 0.355902,1.701919 0.355902,2.134383 -0.585585,0.513162 -0.614553,1.677088 -1.229106,2.101275 -1.78986,0.371421 -6.090697,-0.884585 -6.627655,-0.941489 C 18.275601,20.748408 17.46344,22.143051 17.16444,21.80784 14.751761,19.043388 11.065476,16.99074 9.4690866,16.634836 8.8503951,16.501373 6.7615351,15.579542 6.0093801,15.115005 5.8883317,15.042584 5.7507298,14.989818 5.6172661,14.9205 m 33.1796609,2.425107 c -0.58248,0.625935 -0.481089,2.966202 -0.360041,2.946544 0.593862,-0.12105 0.537993,-3.134841 0.360041,-2.946544 m 1.685367,0.355903 c -0.06828,-0.190366 -1.600529,1.960569 -1.329464,2.75204 0.12105,0.343486 1.535348,-2.149902 1.329464,-2.75204 m -7.957119,3.657315 c 0.0207,-0.0207 0.04449,0.0084 0.06828,0.03207 0.177951,0.589724 0.375558,1.151511 1.547763,1.293251 0.13761,0.01656 -0.650766,0.476952 -1.191861,0.194506 -0.493506,-0.299001 -0.537993,-1.386366 -0.424186,-1.51983 m 3.039658,2.970341 c 0.10863,-0.01656 0.186228,-0.0123 0.262789,0 0.286585,0.07242 -2.079549,1.305666 -2.263708,1.135992 -0.11277,-0.10863 1.261179,-0.99839 2.005056,-1.135992 m 0.614554,0.780088 c 0.246236,0.0207 -1.369811,1.693643 -1.551902,1.519829 -0.13347,-0.12105 1.047017,-1.560177 1.551902,-1.519829"
     id="path3" />
</svg>
