<?xml version="1.0" encoding="UTF-8" standalone="no"?>
<!-- Created with Inkscape (http://www.inkscape.org/) -->

<svg
   width="48"
   height="48"
   viewBox="0 0 48 48.000004"
   version="1.1"
   id="svg1"
   inkscape:version="1.4.2 (ebf0e940d0, 2025-05-08)"
   sodipodi:docname="disk-usage-analyzer.svg"
   xmlns:inkscape="http://www.inkscape.org/namespaces/inkscape"
   xmlns:sodipodi="http://sodipodi.sourceforge.net/DTD/sodipodi-0.dtd"
   xmlns:xlink="http://www.w3.org/1999/xlink"
   xmlns="http://www.w3.org/2000/svg"
   xmlns:svg="http://www.w3.org/2000/svg">
  <sodipodi:namedview
     id="namedview1"
     pagecolor="#ffffff"
     bordercolor="#000000"
     borderopacity="0.25"
     inkscape:showpageshadow="2"
     inkscape:pageopacity="0.0"
     inkscape:pagecheckerboard="0"
     inkscape:deskcolor="#d1d1d1"
     inkscape:document-units="px"
     inkscape:zoom="16.375"
     inkscape:cx="23.969466"
     inkscape:cy="24"
     inkscape:window-width="1920"
     inkscape:window-height="1011"
     inkscape:window-x="0"
     inkscape:window-y="0"
     inkscape:window-maximized="1"
     inkscape:current-layer="svg1" />
  <defs
     id="defs1">
    <linearGradient
       inkscape:collect="always"
       xlink:href="#linearGradient1273"
       id="linearGradient4"
       x1="16"
       y1="30"
       x2="16"
       y2="2"
       gradientUnits="userSpaceOnUse"
       gradientTransform="scale(1.5)" />
    <linearGradient
       inkscape:collect="always"
       id="linearGradient1273">
      <stop
         style="stop-color:#a1a1a1;stop-opacity:1;"
         offset="0"
         id="stop1269" />
      <stop
         style="stop-color:#dedede;stop-opacity:1;"
         offset="1"
         id="stop1271" />
    </linearGradient>
    <linearGradient
       inkscape:collect="always"
       xlink:href="#linearGradient2059"
       id="linearGradient2061"
       x1="8"
       y1="16"
       x2="8"
       y2="7.9999995"
       gradientUnits="userSpaceOnUse"
       gradientTransform="matrix(1.875,0,0,1.875,8.999999,9.000001)" />
    <linearGradient
       inkscape:collect="always"
       id="linearGradient2059">
      <stop
         style="stop-color:#3171e2;stop-opacity:1;"
         offset="0"
         id="stop2055" />
      <stop
         style="stop-color:#319ce2;stop-opacity:1;"
         offset="1"
         id="stop2057" />
    </linearGradient>
    <linearGradient
       inkscape:collect="always"
       xlink:href="#linearGradient2051"
       id="linearGradient2053"
       x1="10.400001"
       y1="7.9999995"
       x2="8"
       y2="-4e-07"
       gradientUnits="userSpaceOnUse"
       gradientTransform="matrix(1.875,0,0,1.875,8.999999,9.000001)" />
    <linearGradient
       inkscape:collect="always"
       id="linearGradient2051">
      <stop
         style="stop-color:#c21b1b;stop-opacity:1;"
         offset="0"
         id="stop2047" />
      <stop
         style="stop-color:#e16767;stop-opacity:1;"
         offset="1"
         id="stop2049" />
    </linearGradient>
    <linearGradient
       inkscape:collect="always"
       xlink:href="#linearGradient1317"
       id="linearGradient1319"
       x1="8"
       y1="16"
       x2="2.3453126"
       y2="2.3453121"
       gradientUnits="userSpaceOnUse"
       gradientTransform="matrix(1.875,0,0,1.875,8.999999,9.000001)" />
    <linearGradient
       inkscape:collect="always"
       id="linearGradient1317">
      <stop
         style="stop-color:#ffa017;stop-opacity:1;"
         offset="0"
         id="stop1313" />
      <stop
         style="stop-color:#ffc017;stop-opacity:1;"
         offset="1"
         id="stop1315" />
    </linearGradient>
  </defs>
  <rect
     style="opacity:0.2;fill:#000000;stroke-width:2.625"
     id="rect1"
     width="42"
     height="42"
     x="3"
     y="4"
     ry="9" />
  <rect
     style="fill:url(#linearGradient4);stroke-width:1.5"
     id="rect2"
     width="42"
     height="42"
     x="3"
     y="3"
     ry="9" />
  <path
     id="path346"
     style="opacity:0.6;fill:#ffffff;stroke-width:2.85;stroke-linecap:round;stroke-linejoin:round;paint-order:stroke fill markers"
     d="M 24,9.75 C 16.12995,9.75 9.75,16.12995 9.75,24 9.75,31.870048 16.129951,38.25 24,38.25 31.870048,38.25 38.25,31.870048 38.25,24 38.25,16.12995 31.87005,9.75 24,9.75 Z"
     sodipodi:nodetypes="sssss" />
  <path
     id="path685"
     style="fill:url(#linearGradient2061);fill-opacity:1;stroke-width:1.875;stroke-linecap:round;stroke-linejoin:round;paint-order:stroke fill markers"
     d="M 29 24 A 5 5 0 0 1 24 29 L 24 39 C 32.284252 39 39 32.284252 39 24 L 29 24 z " />
  <path
     id="path619"
     style="fill:url(#linearGradient2053);fill-opacity:1;stroke-width:1.875;stroke-linecap:round;stroke-linejoin:round;paint-order:stroke fill markers"
     d="M 24 9 C 19.858402 9 16.112816 10.684264 13.398438 13.398438 L 20.464844 20.464844 A 5 5 0 0 1 24 19 A 5 5 0 0 1 29 24 L 39 24 C 39 15.715755 32.284245 9 24 9 z " />
  <path
     id="path652"
     style="fill:url(#linearGradient1319);fill-opacity:1;stroke-width:1.875;stroke-linecap:round;stroke-linejoin:round;paint-order:stroke fill markers"
     d="M 13.394531 13.394531 C 10.680066 16.108994 8.999999 19.857874 9 24 C 9 32.284252 15.715749 39 24 39 L 24 29 A 5 5 0 0 1 19 24 A 5 5 0 0 1 20.464844 20.464844 L 13.394531 13.394531 z " />
</svg>
