<?xml version="1.0" encoding="UTF-8" standalone="no"?>
<!-- Created with Inkscape (http://www.inkscape.org/) -->

<svg
   width="48"
   height="48"
   viewBox="0 0 48 48.000004"
   version="1.1"
   id="svg1"
   inkscape:version="1.4.2 (ebf0e940d0, 2025-05-08)"
   sodipodi:docname="gimp.svg"
   xmlns:inkscape="http://www.inkscape.org/namespaces/inkscape"
   xmlns:sodipodi="http://sodipodi.sourceforge.net/DTD/sodipodi-0.dtd"
   xmlns:xlink="http://www.w3.org/1999/xlink"
   xmlns="http://www.w3.org/2000/svg"
   xmlns:svg="http://www.w3.org/2000/svg">
  <sodipodi:namedview
     id="namedview1"
     pagecolor="#ffffff"
     bordercolor="#000000"
     borderopacity="0.25"
     inkscape:showpageshadow="2"
     inkscape:pageopacity="0.0"
     inkscape:pagecheckerboard="0"
     inkscape:deskcolor="#d1d1d1"
     inkscape:document-units="px"
     inkscape:zoom="16.375"
     inkscape:cx="23.969466"
     inkscape:cy="24"
     inkscape:window-width="1920"
     inkscape:window-height="1011"
     inkscape:window-x="0"
     inkscape:window-y="0"
     inkscape:window-maximized="1"
     inkscape:current-layer="svg1" />
  <defs
     id="defs1">
    <linearGradient
       inkscape:collect="always"
       xlink:href="#linearGradient3"
       id="linearGradient4"
       x1="16"
       y1="30"
       x2="16"
       y2="2"
       gradientUnits="userSpaceOnUse"
       gradientTransform="scale(1.5)" />
    <linearGradient
       inkscape:collect="always"
       id="linearGradient3">
      <stop
         style="stop-color:#cfc6be;stop-opacity:1;"
         offset="0"
         id="stop1" />
      <stop
         style="stop-color:#f0ecec;stop-opacity:1;"
         offset="1"
         id="stop2" />
    </linearGradient>
  </defs>
  <rect
     style="opacity:0.2;fill:#000000;stroke-width:3.675"
     id="rect1"
     width="42"
     height="42"
     x="3"
     y="4"
     ry="9" />
  <rect
     style="fill:url(#linearGradient4);stroke-width:1.5"
     id="rect2"
     width="42"
     height="42"
     x="3"
     y="3"
     ry="9" />
  <path
     style="fill:#8c8073;fill-rule:evenodd;fill-opacity:1"
     d="m 37.003986,11.023736 c -0.248336,-0.03947 -0.471442,0.100658 -0.605567,0.26021 -0.134123,0.159632 -0.227186,0.357395 -0.30823,0.606632 -0.140161,0.431289 -0.654894,2.032184 -2.510999,3.614447 -1.856103,1.582343 -5.056886,3.352619 -10.60441,3.495356 -3.373263,0.03947 -5.69966,-1.909712 -7.04477,-4.571422 -0.335693,-0.664263 -0.930007,-1.902158 -0.930007,-1.1145 v 1.217842 l -0.01713,6.80269 0.03425,0.08297 c 0,0 0.302197,0.671289 -0.01712,1.575711 -0.319323,0.904499 -1.473383,2.224409 -4.287546,3.069067 l -0.344037,0.102237 0.06538,0.36229 c 0.156093,0.877658 0.778291,1.777184 1.69683,2.698105 0.918538,0.920842 2.14838,1.8525 3.580468,2.694789 2.864175,1.68458 6.53265,3.01579 10.096919,3.078001 3.564268,0.06237 7.05158,-1.184053 9.359031,-4.636184 2.307452,-3.452053 3.432785,-9.740611 2.510997,-18.321323 h -0.0016 c -0.02927,-0.235576 -0.08123,-0.436734 -0.174304,-0.613023 -0.09307,-0.176211 -0.249816,-0.358185 -0.498153,-0.397501 z"
     id="path4350" />
  <path
     style="fill:#ffffff;fill-rule:evenodd"
     d="m 17.999258,18.00038 c -0.989559,0 -1.984089,0.327121 -2.741248,1.000161 -0.757159,0.673039 -1.258011,1.698719 -1.258011,3.00056 0,1.30184 0.500852,2.32608 1.258011,2.99912 0.757159,0.67304 1.751689,1.00016 2.741248,1.00016 0.989559,0 1.98409,-0.32712 2.741249,-1.00016 0.75716,-0.67304 1.259492,-1.69728 1.259492,-2.99912 0,-1.301841 -0.502332,-2.327521 -1.259492,-3.00056 -0.757159,-0.67304 -1.75169,-1.000161 -2.741249,-1.000161 z"
     id="path4358" />
  <path
     style="fill:#3f3f3f;fill-rule:evenodd"
     d="m 19,21.000381 c -0.490073,0 -0.98551,0.161999 -1.367188,0.50128 -0.381676,0.33928 -0.632813,0.861841 -0.632813,1.498721 0,0.636881 0.251137,1.15944 0.632813,1.498721 0.381678,0.339279 0.877115,0.501278 1.367188,0.501278 0.490073,0 0.98551,-0.161999 1.367189,-0.501278 C 20.748866,24.159822 21,23.637263 21,23.000382 21,22.363502 20.748866,21.840941 20.367189,21.501661 19.98551,21.16238 19.490073,21.000381 19,21.000381 Z"
     id="path4360" />
  <path
     style="opacity:1;fill:#333333;fill-rule:evenodd;fill-opacity:1"
     d="m 16.999999,29.001339 c 1.443724,0 2.75993,0.08588 3.953778,0 1.983235,-0.145295 3.726517,-0.0014 4.607879,-0.805804 -0.37281,-0.56911 -0.561657,-1.193396 -0.561657,-1.193396 0,0 1.206289,0.543361 1.788818,1.43209 0.580862,0.88625 -0.636802,1.43225 -0.788818,2.566152 -0.338419,-0.995883 -0.117611,-1.369398 -0.203131,-1.765145 -0.615065,1.005 -1.674478,1.725801 -3.099397,1.765145 -1.516729,0.04157 -3.44758,-1.058496 -5.697472,-1.997443 z"
     id="path4362" />
  <path
     style="fill:#3f3f3f;fill-rule:evenodd"
     d="m 10.982645,21.000385 c -0.17749,0 -0.351545,0.01125 -0.520734,0.039 -0.451172,0.0735 -0.868902,0.2496 -1.229044,0.51675 -1.4405667,1.068675 -1.8199541,3.49065 -0.04059,6.02685 1.77936,2.536275 4.133525,2.929876 5.574092,1.8612 1.440566,-1.068676 1.821354,-3.49065 0.04199,-6.02685 -1.167704,-1.664401 -2.583287,-2.405625 -3.825713,-2.4168 z"
     id="path4366" />
  <path
     style="fill:#ffffff;fill-rule:evenodd"
     d="m 24.999258,18.00038 c -0.989559,0 -1.984089,0.327121 -2.741248,1.000161 -0.757159,0.673039 -1.258011,1.698719 -1.258011,3.00056 0,1.30184 0.500852,2.32608 1.258011,2.99912 0.757159,0.67304 1.751689,1.00016 2.741248,1.00016 0.989559,0 1.98409,-0.32712 2.741249,-1.00016 0.75716,-0.67304 1.259492,-1.69728 1.259492,-2.99912 0,-1.301841 -0.502332,-2.327521 -1.259492,-3.00056 -0.757159,-0.67304 -1.75169,-1.000161 -2.741249,-1.000161 z"
     id="path4368" />
  <path
     style="fill:#3f3f3f;fill-rule:evenodd"
     d="m 26,21.000381 c -0.490073,0 -0.98551,0.161999 -1.367188,0.50128 -0.381676,0.33928 -0.632813,0.861841 -0.632813,1.498721 0,0.636881 0.251137,1.15944 0.632813,1.498721 0.381678,0.339279 0.877115,0.501278 1.367188,0.501278 0.490073,0 0.98551,-0.161999 1.367189,-0.501278 C 27.748866,24.159822 28,23.637263 28,23.000382 28,22.363502 27.748866,21.840941 27.367189,21.501661 26.98551,21.16238 26.490073,21.000381 26,21.000381 Z"
     id="path4370" />
  <path
     style="fill:#ff9a0c"
     d="m 31.977364,34.380635 0.648483,-1.291427 C 30.213388,31.324253 25.70964,29.533277 25.70964,29.533277 l -0.709639,0.390105 c 0,0 4.089101,3.626765 6.977363,4.457253 z"
     id="path4376" />
  <path
     style="fill:#8a8a8a"
     d="m 31.999923,32.000326 -0.338156,0.222383 c -0.313207,0.171438 -0.567312,0.462826 -0.773421,0.799823 -0.235844,0.553996 -0.328977,0.900433 -0.288439,1.441702 l 0.490005,-0.08391 c 0,0 2.558475,0.733985 3.769628,1.120012 l 0.141674,-0.272925 0.498748,-0.965347 -3.500039,-1.793026 z"
     id="path4378" />
  <path
     style="fill:#3f3f3f"
     d="m 38.999999,39.000381 c -0.890704,-2.893988 -1.206618,-5.191808 -3.534321,-4.987337 -1.875805,0.164776 -2.007129,2.737382 -0.06876,3.447285 1.867256,0.68386 3.603079,1.540052 3.603079,1.540052 z"
     id="path4380" />
</svg>
