<?xml version="1.0" encoding="UTF-8" standalone="no"?>
<!-- Created with Inkscape (http://www.inkscape.org/) -->

<svg
   width="48"
   height="48"
   viewBox="0 0 48 48.000003"
   version="1.1"
   id="svg1"
   inkscape:version="1.4.2 (ebf0e940d0, 2025-05-08)"
   sodipodi:docname="gnome-calendar.svg"
   xmlns:inkscape="http://www.inkscape.org/namespaces/inkscape"
   xmlns:sodipodi="http://sodipodi.sourceforge.net/DTD/sodipodi-0.dtd"
   xmlns:xlink="http://www.w3.org/1999/xlink"
   xmlns="http://www.w3.org/2000/svg"
   xmlns:svg="http://www.w3.org/2000/svg">
  <sodipodi:namedview
     id="namedview1"
     pagecolor="#ffffff"
     bordercolor="#000000"
     borderopacity="0.25"
     inkscape:showpageshadow="2"
     inkscape:pageopacity="0.0"
     inkscape:pagecheckerboard="0"
     inkscape:deskcolor="#d1d1d1"
     inkscape:document-units="px"
     inkscape:zoom="16.583333"
     inkscape:cx="23.96985"
     inkscape:cy="23.939699"
     inkscape:window-width="1920"
     inkscape:window-height="1011"
     inkscape:window-x="0"
     inkscape:window-y="0"
     inkscape:window-maximized="1"
     inkscape:current-layer="svg1" />
  <defs
     id="defs1">
    <linearGradient
       inkscape:collect="always"
       id="linearGradient1606">
      <stop
         style="stop-color:#eaebed;stop-opacity:1;"
         offset="0"
         id="stop1602" />
      <stop
         style="stop-color:#f9fafa;stop-opacity:1;"
         offset="1"
         id="stop1604" />
    </linearGradient>
    <linearGradient
       inkscape:collect="always"
       xlink:href="#linearGradient1606"
       id="linearGradient4"
       x1="16"
       y1="30"
       x2="16"
       y2="2"
       gradientUnits="userSpaceOnUse"
       gradientTransform="scale(1.5)" />
    <linearGradient
       inkscape:collect="always"
       xlink:href="#linearGradient7"
       id="linearGradient6"
       x1="16"
       y1="30"
       x2="16"
       y2="2"
       gradientUnits="userSpaceOnUse"
       gradientTransform="scale(1.5)" />
    <linearGradient
       inkscape:collect="always"
       xlink:href="#linearGradient7"
       id="linearGradient2"
       x1="16"
       y1="30.333334"
       x2="16"
       y2="2.3333333"
       gradientUnits="userSpaceOnUse"
       gradientTransform="matrix(1.5,0,0,1.5,0,-0.5)" />
    <linearGradient
       id="linearGradient7"
       inkscape:collect="always">
      <stop
         style="stop-color:#7d36a2;stop-opacity:1;"
         offset="0"
         id="stop5" />
      <stop
         style="stop-color:#bd62e7;stop-opacity:1;"
         offset="1"
         id="stop6" />
    </linearGradient>
  </defs>
  <rect
     style="opacity:0.2;fill:#000000;stroke-width:2.625"
     id="rect1"
     width="42"
     height="42"
     x="3"
     y="4"
     ry="9" />
  <path
     id="rect2"
     style="fill:url(#linearGradient4);stroke-width:1.5"
     d="m 3,12 v 24 c 0,4.986 4.014,9 9,9 h 24 c 4.986,0 9,-4.014 9,-9 V 12 Z" />
  <path
     id="path1"
     style="opacity:0.3;fill:#000000;stroke-width:1.5;stroke-linecap:round"
     d="M 23.5 17 C 22.671573 17 22 17.671573 22 18.5 C 22 19.328427 22.671573 20 23.5 20 C 24.328427 20 25 19.328427 25 18.5 C 25 17.671573 24.328427 17 23.5 17 z M 28.5 17 C 27.671573 17 27 17.671573 27 18.5 C 27 19.328427 27.671573 20 28.5 20 C 29.328427 20 30 19.328427 30 18.5 C 30 17.671573 29.328427 17 28.5 17 z M 33.5 17 C 32.671573 17 32 17.671573 32 18.5 C 32 19.328427 32.671573 20 33.5 20 C 34.328427 20 35 19.328427 35 18.5 C 35 17.671573 34.328427 17 33.5 17 z M 38.5 17 C 37.671573 17 37 17.671573 37 18.5 C 37 19.328427 37.671573 20 38.5 20 C 39.328427 20 40 19.328427 40 18.5 C 40 17.671573 39.328427 17 38.5 17 z M 8.5 22 C 7.6715729 22 7 22.671573 7 23.5 C 7 24.328427 7.6715729 25 8.5 25 C 9.328427 25 10 24.328427 10 23.5 C 10 22.671573 9.328427 22 8.5 22 z M 13.5 22 C 12.671573 22 12 22.671573 12 23.5 C 12 24.328427 12.671573 25 13.5 25 C 14.328427 25 15 24.328427 15 23.5 C 15 22.671573 14.328427 22 13.5 22 z M 18.5 22 C 17.671573 22 17 22.671573 17 23.5 C 17 24.328427 17.671573 25 18.5 25 C 19.328427 25 20 24.328427 20 23.5 C 20 22.671573 19.328427 22 18.5 22 z M 23.5 22 C 22.671573 22 22 22.671573 22 23.5 C 22 24.328427 22.671573 25 23.5 25 C 24.328427 25 25 24.328427 25 23.5 C 25 22.671573 24.328427 22 23.5 22 z M 33.5 22 C 32.671573 22 32 22.671573 32 23.5 C 32 24.328427 32.671573 25 33.5 25 C 34.328427 25 35 24.328427 35 23.5 C 35 22.671573 34.328427 22 33.5 22 z M 38.5 22 C 37.671573 22 37 22.671573 37 23.5 C 37 24.328427 37.671573 25 38.5 25 C 39.328427 25 40 24.328427 40 23.5 C 40 22.671573 39.328427 22 38.5 22 z M 8.5 27 C 7.6715729 27 7 27.671573 7 28.5 C 7 29.328427 7.6715729 30 8.5 30 C 9.328427 30 10 29.328427 10 28.5 C 10 27.671573 9.328427 27 8.5 27 z M 13.5 27 C 12.671573 27 12 27.671573 12 28.5 C 12 29.328427 12.671573 30 13.5 30 C 14.328427 30 15 29.328427 15 28.5 C 15 27.671573 14.328427 27 13.5 27 z M 18.5 27 C 17.671573 27 17 27.671573 17 28.5 C 17 29.328427 17.671573 30 18.5 30 C 19.328427 30 20 29.328427 20 28.5 C 20 27.671573 19.328427 27 18.5 27 z M 23.5 27 C 22.671573 27 22 27.671573 22 28.5 C 22 29.328427 22.671573 30 23.5 30 C 24.328427 30 25 29.328427 25 28.5 C 25 27.671573 24.328427 27 23.5 27 z M 28.5 27 C 27.671573 27 27 27.671573 27 28.5 C 27 29.328427 27.671573 30 28.5 30 C 29.328427 30 30 29.328427 30 28.5 C 30 27.671573 29.328427 27 28.5 27 z M 33.5 27 C 32.671573 27 32 27.671573 32 28.5 C 32 29.328427 32.671573 30 33.5 30 C 34.328427 30 35 29.328427 35 28.5 C 35 27.671573 34.328427 27 33.5 27 z M 38.5 27 C 37.671573 27 37 27.671573 37 28.5 C 37 29.328427 37.671573 30 38.5 30 C 39.328427 30 40 29.328427 40 28.5 C 40 27.671573 39.328427 27 38.5 27 z M 8.5 32 C 7.6715729 32 7 32.671573 7 33.5 C 7 34.328427 7.6715729 35 8.5 35 C 9.328427 35 10 34.328427 10 33.5 C 10 32.671573 9.328427 32 8.5 32 z M 13.5 32 C 12.671573 32 12 32.671573 12 33.5 C 12 34.328427 12.671573 35 13.5 35 C 14.328427 35 15 34.328427 15 33.5 C 15 32.671573 14.328427 32 13.5 32 z M 18.5 32 C 17.671573 32 17 32.671573 17 33.5 C 17 34.328427 17.671573 35 18.5 35 C 19.328427 35 20 34.328427 20 33.5 C 20 32.671573 19.328427 32 18.5 32 z M 23.5 32 C 22.671573 32 22 32.671573 22 33.5 C 22 34.328427 22.671573 35 23.5 35 C 24.328427 35 25 34.328427 25 33.5 C 25 32.671573 24.328427 32 23.5 32 z M 28.5 32 C 27.671573 32 27 32.671573 27 33.5 C 27 34.328427 27.671573 35 28.5 35 C 29.328427 35 30 34.328427 30 33.5 C 30 32.671573 29.328427 32 28.5 32 z M 33.5 32 C 32.671573 32 32 32.671573 32 33.5 C 32 34.328427 32.671573 35 33.5 35 C 34.328427 35 35 34.328427 35 33.5 C 35 32.671573 34.328427 32 33.5 32 z M 38.5 32 C 37.671573 32 37 32.671573 37 33.5 C 37 34.328427 37.671573 35 38.5 35 C 39.328427 35 40 34.328427 40 33.5 C 40 32.671573 39.328427 32 38.5 32 z M 8.5 37 C 7.6715729 37 7 37.671573 7 38.5 C 7 39.328427 7.6715729 40 8.5 40 C 9.328427 40 10 39.328427 10 38.5 C 10 37.671573 9.328427 37 8.5 37 z M 13.5 37 C 12.671573 37 12 37.671573 12 38.5 C 12 39.328427 12.671573 40 13.5 40 C 14.328427 40 15 39.328427 15 38.5 C 15 37.671573 14.328427 37 13.5 37 z M 18.5 37 C 17.671573 37 17 37.671573 17 38.5 C 17 39.328427 17.671573 40 18.5 40 C 19.328427 40 20 39.328427 20 38.5 C 20 37.671573 19.328427 37 18.5 37 z M 23.5 37 C 22.671573 37 22 37.671573 22 38.5 C 22 39.328427 22.671573 40 23.5 40 C 24.328427 40 25 39.328427 25 38.5 C 25 37.671573 24.328427 37 23.5 37 z " />
  <circle
     style="fill:url(#linearGradient2);stroke-width:1.5;stroke-linecap:round"
     id="path2"
     cx="28.500046"
     cy="23.5"
     r="1.5" />
  <path
     id="rect3"
     style="opacity:1;fill:url(#linearGradient6);stroke-width:1.5"
     d="M 12 3 C 7.014 3 3 7.014 3 12 L 3 13 L 45 13 L 45 12 C 45 7.014 40.986 3 36 3 L 12 3 z " />
</svg>
