<?xml version="1.0" encoding="UTF-8" standalone="no"?>
<!-- Created with Inkscape (http://www.inkscape.org/) -->

<svg
   width="48"
   height="48"
   viewBox="0 0 48 48.000004"
   version="1.1"
   id="svg1"
   inkscape:version="1.4 (e7c3feb100, 2024-10-09)"
   sodipodi:docname="google-chrome-beta.svg"
   xmlns:inkscape="http://www.inkscape.org/namespaces/inkscape"
   xmlns:sodipodi="http://sodipodi.sourceforge.net/DTD/sodipodi-0.dtd"
   xmlns:xlink="http://www.w3.org/1999/xlink"
   xmlns="http://www.w3.org/2000/svg"
   xmlns:svg="http://www.w3.org/2000/svg">
  <sodipodi:namedview
     id="namedview1"
     pagecolor="#ffffff"
     bordercolor="#000000"
     borderopacity="0.25"
     inkscape:showpageshadow="2"
     inkscape:pageopacity="0.0"
     inkscape:pagecheckerboard="0"
     inkscape:deskcolor="#d1d1d1"
     inkscape:document-units="px"
     inkscape:zoom="16.375"
     inkscape:cx="24.030534"
     inkscape:cy="24"
     inkscape:window-width="1920"
     inkscape:window-height="1011"
     inkscape:window-x="0"
     inkscape:window-y="0"
     inkscape:window-maximized="1"
     inkscape:current-layer="svg1" />
  <defs
     id="defs1">
    <linearGradient
       inkscape:collect="always"
       xlink:href="#linearGradient12495"
       id="linearGradient12497"
       x1="3.7041574"
       y1="5.15939"
       x2="8.9958239"
       y2="5.15939"
       gradientUnits="userSpaceOnUse" />
    <linearGradient
       inkscape:collect="always"
       id="linearGradient12495">
      <stop
         style="stop-color:#db3328;stop-opacity:1;"
         offset="0"
         id="stop12491" />
      <stop
         style="stop-color:#e53d30;stop-opacity:1"
         offset="1"
         id="stop12493" />
    </linearGradient>
    <linearGradient
       inkscape:collect="always"
       xlink:href="#linearGradient13171"
       id="linearGradient13173"
       x1="4.4023013"
       y1="4.2994838"
       x2="5.9898009"
       y2="7.474484"
       gradientUnits="userSpaceOnUse" />
    <linearGradient
       inkscape:collect="always"
       id="linearGradient13171">
      <stop
         style="stop-color:#32a651;stop-opacity:1;"
         offset="0"
         id="stop13167" />
      <stop
         style="stop-color:#279847;stop-opacity:1"
         offset="1"
         id="stop13169" />
    </linearGradient>
    <linearGradient
       inkscape:collect="always"
       xlink:href="#linearGradient1606"
       id="linearGradient4"
       x1="16"
       y1="30"
       x2="16"
       y2="2"
       gradientUnits="userSpaceOnUse"
       gradientTransform="scale(1.5)" />
    <linearGradient
       inkscape:collect="always"
       id="linearGradient1606">
      <stop
         style="stop-color:#eaebed;stop-opacity:1;"
         offset="0"
         id="stop1602" />
      <stop
         style="stop-color:#f9fafa;stop-opacity:1;"
         offset="1"
         id="stop1604" />
    </linearGradient>
  </defs>
  <rect
     style="opacity:0.2;fill:#000000;stroke-width:3.675"
     id="rect1"
     width="42"
     height="42"
     x="3"
     y="4"
     ry="9" />
  <rect
     style="fill:url(#linearGradient4);stroke-width:1.5"
     id="rect2"
     width="42"
     height="42"
     x="3"
     y="3"
     ry="9" />
  <g
     id="g13900"
     transform="matrix(3.3348771,0,0,3.3348771,2.8235295,2.8235422)">
    <path
       id="path1309"
       style="fill:url(#linearGradient12497);fill-opacity:1;stroke-width:0.0175699"
       d="M 6.3500002,1.8520796 C 4.0786338,1.8548845 2.165784,3.5506734 1.8907373,5.8053269 l 0.7109989,0.919496 1.9010727,1.1555196 1.8471913,-1.530346 V 4.1010381 L 10.176744,3.9885902 C 9.3578807,2.6610927 7.9097392,1.8525801 6.3500002,1.8520796 Z" />
    <path
       id="path1449"
       style="fill:url(#linearGradient13173);fill-opacity:1;stroke-width:0.0175699"
       d="M 2.2796197,4.4430672 A 4.4979167,4.4979167 0 0 0 1.8520834,6.3499965 4.4979167,4.4979167 0 0 0 6.3500002,10.847913 4.4979167,4.4979167 0 0 0 6.8929129,10.809259 L 8.3225242,9.7931285 8.2979262,7.4744757 6.3500002,6.3499965 4.277913,7.5593974 Z" />
    <path
       id="path1829"
       style="fill:#fbbf12;stroke-width:0.0175699"
       d="m 6.3500002,3.9511075 v 2.398889 l 1.947926,1.1244792 -2.1534948,3.3587963 a 4.4979167,4.4979167 0 0 0 0.2055688,0.01464 4.4979167,4.4979167 0 0 0 4.4979168,-4.4979165 4.4979167,4.4979167 0 0 0 -0.6946,-2.398889 z" />
    <path
       d="m 8.7488892,6.3499962 c 0,1.3248533 -1.0740354,2.3988886 -2.3988889,2.3988886 -1.3248539,0 -2.3988891,-1.0740353 -2.3988891,-2.3988886 0,-1.3248537 1.0740352,-2.3988887 2.3988891,-2.3988887 1.3248535,0 2.3988889,1.074035 2.3988889,2.3988887"
       style="fill:#ffffff;stroke-width:0.0187411"
       id="path2229" />
    <path
       d="m 8.149167,6.3499961 c 0,0.9936381 -0.8055295,1.7991654 -1.7991667,1.7991654 -0.9936382,0 -1.7991668,-0.8055273 -1.7991668,-1.7991654 0,-0.9936378 0.8055286,-1.7991663 1.7991668,-1.7991663 0.9936372,0 1.7991667,0.8055285 1.7991667,1.7991663"
       style="fill:#4688f4;fill-opacity:1;stroke-width:0.0172994"
       id="path2029" />
  </g>
  <path
     id="path520"
     style="fill:#414342;fill-opacity:1;stroke-width:1.40625;stroke-linecap:round;stroke-linejoin:round"
     d="M 9.5585937,28 A 15,15 0 0 0 24,39 15,15 0 0 0 38.441406,28 Z" />
  <path
     id="path727"
     style="font-size:4px;font-family:'Google Sans';-inkscape-font-specification:'Google Sans';text-align:center;text-anchor:middle;fill:#ffffff;stroke-width:0.280359;stroke-linecap:round;stroke-linejoin:round"
     d="m 17,30.000003 v 5.257168 h 1.990268 c 0.27908,0 0.538262,-0.06275 0.778175,-0.190057 0.244808,-0.127296 0.438954,-0.301929 0.58094,-0.527153 0.146887,-0.23012 0.22234,-0.487027 0.22234,-0.771004 0,-0.288875 -0.08457,-0.541228 -0.251026,-0.756659 -0.166471,-0.215431 -0.381099,-0.367302 -0.645494,-0.455431 v -0.02868 c 0.22033,-0.102827 0.392681,-0.250135 0.519984,-0.441086 0.132191,-0.19095 0.19723,-0.415993 0.19723,-0.670593 0,-0.269289 -0.06731,-0.508954 -0.204407,-0.724385 C 20.050921,30.476681 19.863602,30.305295 19.628586,30.18289 19.398466,30.06048 19.154249,30 18.889856,30 Z m 8.746413,0.455431 v 1.057888 h -0.652665 v 0.566598 h 0.652665 v 2.194673 c 0,0.17626 0.02635,0.325853 0.07531,0.448258 0.04896,0.122397 0.120828,0.229716 0.218748,0.322746 0.08813,0.08323 0.195446,0.148274 0.322748,0.197235 0.132191,0.04896 0.27496,0.07531 0.426738,0.07531 0.117516,0 0.213444,-0.0069 0.286888,-0.02152 0.07834,-0.01462 0.156065,-0.04104 0.229508,-0.07531 v -0.609624 c -0.132194,0.08323 -0.270409,0.125505 -0.412397,0.125505 -0.176262,0 -0.312199,-0.05365 -0.405225,-0.161372 -0.07835,-0.09793 -0.118337,-0.249791 -0.118337,-0.455431 v -2.040473 h 0.910858 V 31.51331 h -0.910859 v -1.057889 z m -8.129609,0.139851 h 1.301741 c 0.171364,0 0.320957,0.04227 0.44826,0.12552 0.132193,0.08323 0.232681,0.19055 0.301226,0.322746 0.07344,0.127296 0.107585,0.255098 0.107585,0.387295 0,0.13709 -0.03413,0.273028 -0.107585,0.405225 -0.07343,0.127295 -0.178479,0.232339 -0.315571,0.315574 -0.132193,0.08323 -0.286342,0.125503 -0.462604,0.125503 h -1.273051 z m 5.325305,0.799694 c -0.362316,0 -0.679708,0.09138 -0.953894,0.272541 -0.274183,0.181158 -0.486538,0.424409 -0.638317,0.727971 -0.146887,0.303563 -0.222339,0.634609 -0.222339,0.996926 0,0.377004 0.08001,0.718467 0.236683,1.022027 0.161571,0.298667 0.383028,0.531506 0.667007,0.702869 0.283977,0.171371 0.603647,0.258198 0.961065,0.258198 0.391693,0 0.726327,-0.0891 1.000513,-0.265365 0.279081,-0.176263 0.498262,-0.413652 0.659835,-0.717213 l -0.527153,-0.258197 c -0.259494,0.450448 -0.628267,0.674181 -1.108092,0.674181 -0.20564,0 -0.404336,-0.04911 -0.595288,-0.147034 -0.186053,-0.09792 -0.340197,-0.241652 -0.462602,-0.437501 -0.122396,-0.195845 -0.193302,-0.436817 -0.20799,-0.720797 h 2.962089 c 0.01463,-0.05386 0.02151,-0.11662 0.02151,-0.190062 0,-0.372109 -0.07545,-0.704465 -0.222337,-0.99334 -0.141985,-0.288875 -0.347509,-0.512608 -0.6168,-0.67418 -0.269288,-0.166468 -0.58668,-0.251025 -0.953894,-0.251024 z m 6.419057,0 c -0.313355,0 -0.60116,0.06275 -0.860657,0.190062 -0.254601,0.127297 -0.455574,0.305513 -0.602458,0.530738 l 0.47336,0.351434 c 0.102827,-0.161575 0.239721,-0.28482 0.415984,-0.372952 0.176262,-0.09302 0.370406,-0.139854 0.580942,-0.139854 0.298668,0 0.546468,0.08324 0.742316,0.254612 0.195846,0.16647 0.294056,0.391512 0.294056,0.670592 v 0.225922 c -0.102826,-0.06367 -0.252412,-0.119575 -0.448258,-0.168543 -0.190949,-0.04896 -0.398751,-0.07171 -0.623974,-0.07171 -0.455343,0 -0.834531,0.111869 -1.133196,0.337089 -0.298668,0.220331 -0.448259,0.528614 -0.448259,0.925205 0,0.239913 0.06179,0.454541 0.179302,0.645493 0.117515,0.186053 0.283032,0.33337 0.498463,0.441084 0.215432,0.107714 0.460959,0.161367 0.735145,0.161367 0.269288,0 0.508952,-0.06275 0.724384,-0.19006 0.215432,-0.127311 0.37999,-0.281445 0.487704,-0.462603 h 0.02869 V 35.25718 H 31 V 32.886787 C 31,32.426544 30.852681,32.064601 30.558914,31.800208 30.270041,31.530918 29.87037,31.39498 29.361169,31.39498 Z m -6.426229,0.566596 c 0.254603,0 0.464678,0.05365 0.631148,0.161374 0.171366,0.107721 0.298198,0.237791 0.376536,0.394468 0.07832,0.156679 0.119304,0.316683 0.129102,0.47336 h -2.284325 c 0.06366,-0.308458 0.197311,-0.55626 0.398053,-0.742314 0.20564,-0.190953 0.455717,-0.286888 0.749486,-0.286888 z m -5.318133,0.903692 h 1.380634 c 0.186055,0 0.349302,0.04454 0.491292,0.132685 0.141989,0.08324 0.255164,0.195102 0.333501,0.33709 0.07834,0.13709 0.114755,0.279857 0.114755,0.426744 0,0.146885 -0.03643,0.288339 -0.114755,0.430327 -0.07344,0.13709 -0.180755,0.252544 -0.322744,0.340675 -0.13709,0.08813 -0.297098,0.129102 -0.47336,0.129102 h -1.409323 z m 11.808911,0.505636 c 0.19095,0 0.373714,0.02634 0.54508,0.0753 0.171365,0.04896 0.316405,0.111721 0.433914,0.19006 0,0.215432 -0.05364,0.414128 -0.161372,0.595288 -0.107719,0.181157 -0.252757,0.322612 -0.433914,0.430325 -0.18116,0.107721 -0.377579,0.164961 -0.588116,0.164961 -0.239911,0 -0.438607,-0.06634 -0.595287,-0.193643 -0.156677,-0.127311 -0.233094,-0.292826 -0.233094,-0.498466 0,-0.225223 0.08325,-0.410264 0.254611,-0.552254 0.176262,-0.141988 0.435444,-0.211575 0.778178,-0.211575 z" />
</svg>
