<?xml version="1.0" encoding="UTF-8" standalone="no"?>
<!-- Created with Inkscape (http://www.inkscape.org/) -->

<svg
   width="48"
   height="48"
   viewBox="0 0 48 48.000004"
   version="1.1"
   id="svg1"
   inkscape:version="1.4.2 (ebf0e940d0, 2025-05-08)"
   sodipodi:docname="google-keep.svg"
   xmlns:inkscape="http://www.inkscape.org/namespaces/inkscape"
   xmlns:sodipodi="http://sodipodi.sourceforge.net/DTD/sodipodi-0.dtd"
   xmlns="http://www.w3.org/2000/svg"
   xmlns:svg="http://www.w3.org/2000/svg">
  <sodipodi:namedview
     id="namedview1"
     pagecolor="#ffffff"
     bordercolor="#000000"
     borderopacity="0.25"
     inkscape:showpageshadow="2"
     inkscape:pageopacity="0.0"
     inkscape:pagecheckerboard="0"
     inkscape:deskcolor="#d1d1d1"
     inkscape:document-units="px"
     inkscape:zoom="16.583333"
     inkscape:cx="23.969849"
     inkscape:cy="24"
     inkscape:window-width="1920"
     inkscape:window-height="1011"
     inkscape:window-x="0"
     inkscape:window-y="0"
     inkscape:window-maximized="1"
     inkscape:current-layer="svg1" />
  <defs
     id="defs1" />
  <rect
     style="opacity:0.2;fill:#000000;stroke-width:3.675"
     id="rect1"
     width="42"
     height="42"
     x="3"
     y="4"
     ry="9" />
  <rect
     style="fill:#fafafa;stroke-width:1.5;fill-opacity:1"
     id="rect2"
     width="42"
     height="42"
     x="3"
     y="3"
     ry="9" />
  <path
     id="path1151"
     style="fill:#fbbc04;fill-opacity:1;stroke-width:0.749999;stroke-linecap:square;stroke-linejoin:bevel"
     d="m 15,9 a 2,2 0 0 0 -2,2 v 26 a 2,2 0 0 0 2,2 h 18 a 2,2 0 0 0 2,-2 V 16 L 29.5,14.5 28,9 Z" />
  <path
     d="m 28,9 7,7 h -7 z"
     style="fill:#f29900;fill-opacity:1;stroke-width:0.404146;stroke-linecap:square;stroke-linejoin:bevel"
     id="path1123" />
  <path
     id="path1522"
     style="fill:#ffffff;fill-opacity:1;stroke-linecap:square;stroke-linejoin:bevel"
     d="m 24,21 c -2.209131,0 -4,1.790869 -4,4 0.0039,1.425135 0.647889,2.496022 2,4 h 4 c 1.352111,-1.503978 1.996086,-2.574865 2,-4 0,-2.209131 -1.790869,-4 -4,-4 z m -2,10 v 2 h 4 v -2 z" />
</svg>
