<?xml version="1.0" encoding="UTF-8" standalone="no"?>
<!-- Created with Inkscape (http://www.inkscape.org/) -->

<svg
   width="48"
   height="48"
   viewBox="0 0 48 48.000003"
   version="1.1"
   id="svg1"
   inkscape:version="1.4.2 (ebf0e940d0, 2025-05-08)"
   sodipodi:docname="io.bassi.Amberol.svg"
   xmlns:inkscape="http://www.inkscape.org/namespaces/inkscape"
   xmlns:sodipodi="http://sodipodi.sourceforge.net/DTD/sodipodi-0.dtd"
   xmlns:xlink="http://www.w3.org/1999/xlink"
   xmlns="http://www.w3.org/2000/svg"
   xmlns:svg="http://www.w3.org/2000/svg">
  <sodipodi:namedview
     id="namedview1"
     pagecolor="#ffffff"
     bordercolor="#000000"
     borderopacity="0.25"
     inkscape:showpageshadow="2"
     inkscape:pageopacity="0.0"
     inkscape:pagecheckerboard="0"
     inkscape:deskcolor="#d1d1d1"
     inkscape:document-units="px"
     inkscape:zoom="16.833333"
     inkscape:cx="23.970297"
     inkscape:cy="24"
     inkscape:window-width="1920"
     inkscape:window-height="1011"
     inkscape:window-x="0"
     inkscape:window-y="0"
     inkscape:window-maximized="1"
     inkscape:current-layer="svg1" />
  <defs
     id="defs1">
    <linearGradient
       inkscape:collect="always"
       xlink:href="#linearGradient4-8"
       id="linearGradient4"
       x1="16"
       y1="30"
       x2="16"
       y2="2"
       gradientUnits="userSpaceOnUse"
       gradientTransform="scale(1.5)" />
    <linearGradient
       id="linearGradient4-8"
       inkscape:collect="always">
      <stop
         style="stop-color:#38c4f2;stop-opacity:1;"
         offset="0"
         id="stop4" />
      <stop
         style="stop-color:#1872f6;stop-opacity:1;"
         offset="1"
         id="stop5" />
    </linearGradient>
  </defs>
  <rect
     style="opacity:0.2;fill:#000000;stroke-width:2.625"
     id="rect1"
     width="42"
     height="42"
     x="3"
     y="4"
     ry="9" />
  <rect
     style="fill:url(#linearGradient4);stroke-width:1.5"
     id="rect2"
     width="42"
     height="42"
     x="3"
     y="3"
     ry="9" />
  <path
     id="path4648"
     style="fill:#ffffff;stroke-width:3;stroke-linejoin:round"
     d="M 24,9 C 15.715744,9 9,15.715746 9,24 9,32.284256 15.715744,39 24,39 32.284256,39 39,32.284256 39,24 39,15.715746 32.284256,9 24,9 Z m -4.654297,7.576172 c 0.236314,-0.0089 0.483044,0.04512 0.714844,0.179687 l 10.212891,5.94336 c 0.969297,0.562695 0.969296,2.04863 0,2.611328 L 20.060547,31.251953 C 19.133338,31.790169 18.001584,31.071279 18,29.945312 V 18.0625 c 0.0013,-0.84448 0.636758,-1.45958 1.345703,-1.486328 z" />
</svg>
