<?xml version="1.0" encoding="UTF-8" standalone="no"?>
<!-- Created with Inkscape (http://www.inkscape.org/) -->

<svg
   width="48"
   height="48"
   viewBox="0 0 48 48.000004"
   version="1.1"
   id="svg1"
   inkscape:version="1.4.2 (ebf0e940d0, 2025-05-08)"
   sodipodi:docname="kakaotalk.svg"
   xmlns:inkscape="http://www.inkscape.org/namespaces/inkscape"
   xmlns:sodipodi="http://sodipodi.sourceforge.net/DTD/sodipodi-0.dtd"
   xmlns:xlink="http://www.w3.org/1999/xlink"
   xmlns="http://www.w3.org/2000/svg"
   xmlns:svg="http://www.w3.org/2000/svg">
  <sodipodi:namedview
     id="namedview1"
     pagecolor="#ffffff"
     bordercolor="#000000"
     borderopacity="0.25"
     inkscape:showpageshadow="2"
     inkscape:pageopacity="0.0"
     inkscape:pagecheckerboard="0"
     inkscape:deskcolor="#d1d1d1"
     inkscape:document-units="px"
     inkscape:zoom="16.583333"
     inkscape:cx="23.969849"
     inkscape:cy="24"
     inkscape:window-width="1920"
     inkscape:window-height="1011"
     inkscape:window-x="0"
     inkscape:window-y="0"
     inkscape:window-maximized="1"
     inkscape:current-layer="svg1" />
  <defs
     id="defs1">
    <linearGradient
       inkscape:collect="always"
       xlink:href="#linearGradient1511"
       id="linearGradient4"
       x1="16"
       y1="30"
       x2="16"
       y2="2"
       gradientUnits="userSpaceOnUse"
       gradientTransform="scale(1.5)" />
    <linearGradient
       inkscape:collect="always"
       id="linearGradient1511">
      <stop
         style="stop-color:#ffb251;stop-opacity:1;"
         offset="0"
         id="stop1507" />
      <stop
         style="stop-color:#ffde75;stop-opacity:1;"
         offset="1"
         id="stop1509" />
    </linearGradient>
  </defs>
  <rect
     style="opacity:0.2;fill:#000000;stroke-width:3.675"
     id="rect1"
     width="42"
     height="42"
     x="3"
     y="4"
     ry="9" />
  <rect
     style="fill:url(#linearGradient4);stroke-width:1.5"
     id="rect2"
     width="42"
     height="42"
     x="3"
     y="3"
     ry="9" />
  <path
     id="path14142"
     style="fill:#353535"
     d="M 24,8 A 17,13.909091 0 0 0 7,21.908203 17,13.909091 0 0 0 13.027344,32.519531 l -2.164063,7.935547 7.59961,-5.427734 A 17,13.909091 0 0 0 24,35.818359 17,13.909091 0 0 0 41,21.908203 17,13.909091 0 0 0 24,8 Z m -4.519531,9 c 0.0079,0.0016 0.01697,0.0059 0.02344,0.0059 0.01887,10e-5 0.03793,8.54e-4 0.05664,0.002 0.0013,7.4e-5 0.0026,-7.8e-5 0.0039,0 0.0072,5e-4 0.01429,0.0014 0.02148,0.002 0.02219,0.0018 0.04413,0.0044 0.06641,0.0078 0.01313,0.002 0.02606,0.0053 0.03906,0.0078 0.01896,0.0036 0.038,0.007 0.05664,0.01172 0.0058,0.0014 0.01178,0.0023 0.01758,0.0039 0.02075,0.0056 0.04047,0.01283 0.06055,0.01953 0.03099,0.01042 0.06054,0.02206 0.08984,0.03516 0.02969,0.01328 0.05809,0.02712 0.08594,0.04297 0.257646,0.146627 0.433388,0.399851 0.486328,0.685547 l 2.484375,8.013672 c 0.143387,0.535121 -0.171908,1.081224 -0.707031,1.224609 -0.535122,0.143386 -1.081225,-0.171908 -1.224609,-0.707031 l -0.681641,-2.34961 h -1.710937 l -0.681641,2.34961 c -0.143385,0.535123 -0.689488,0.850417 -1.224609,0.707031 -0.535125,-0.143385 -0.850419,-0.689488 -0.707032,-1.224609 l 2.480469,-8.00586 c 0.05114,-0.289307 0.22972,-0.545422 0.490234,-0.693359 0.02706,-0.01538 0.05516,-0.03002 0.08398,-0.04297 0.02742,-0.01232 0.05506,-0.0232 0.08398,-0.0332 0.0069,-0.0025 0.01449,-0.0036 0.02148,-0.0059 0.01573,-0.0051 0.03077,-0.01132 0.04688,-0.01563 0.0059,-0.0016 0.01168,-0.0024 0.01758,-0.0039 0.02736,-0.007 0.05401,-0.01298 0.08203,-0.01758 0.0039,-7e-4 0.0077,-0.0014 0.01172,-0.002 0.02198,-0.0033 0.04411,-0.0059 0.06641,-0.0078 0.0071,-6e-4 0.01438,-0.0015 0.02148,-0.002 0.0013,-8e-5 0.0026,7.6e-5 0.0039,0 0.0065,-3.99e-4 0.01867,0.0045 0.01953,-0.002 8.45e-4,-0.0064 0.0077,-0.0075 0.01563,-0.0059 z M 11,17.0059 h 4 c 0.553999,0 1,0.446001 1,1 0,0.554 -0.446001,1 -1,1 h -1 v 7 c 0,0.554 -0.446001,1 -1,1 -0.553999,0 -1,-0.446 -1,-1 v -7 h -1 c -0.553999,0 -1,-0.446 -1,-1 0,-0.553999 0.446001,-1 1,-1 z m 14,0 c 0.553998,0 1,0.446001 1,1 v 7 h 3 c 0.554,0 1,0.446001 1,1 0,0.554 -0.446,1 -1,1 h -4 c -0.553999,0 -1,-0.446 -1,-1 v -8 c 0,-0.553999 0.446001,-1 1,-1 z m 7,0 c 0.554,0 1,0.446001 1,1 v 3.212891 l 2.234375,-3.855469 c 0.356105,-0.424388 0.983815,-0.47915 1.408203,-0.123047 0.424387,0.356104 0.384055,0.921495 0.123047,1.410157 L 35,21.955119 36.765625,25.26176 c 0.356105,0.424388 0.30134,1.054051 -0.123047,1.410156 C 36.21819,27.02802 35.512146,27.0282 35.234375,26.548869 L 33,22.693359 v 3.3125 c 0,0.554 -0.446,1 -1,1 -0.554,0 -1,-0.446 -1,-1 v -8 c 0,-0.553999 0.446,-1 1,-1 z M 19.503906,20.500041 19,22.0059 h 1 z" />
</svg>
