<?xml version="1.0" encoding="UTF-8" standalone="no"?>
<!-- Created with Inkscape (http://www.inkscape.org/) -->

<svg
   width="48"
   height="48"
   viewBox="0 0 48 48.000004"
   version="1.1"
   id="svg1"
   inkscape:version="1.4.2 (ebf0e940d0, 2025-05-08)"
   sodipodi:docname="ktnef.svg"
   xmlns:inkscape="http://www.inkscape.org/namespaces/inkscape"
   xmlns:sodipodi="http://sodipodi.sourceforge.net/DTD/sodipodi-0.dtd"
   xmlns:xlink="http://www.w3.org/1999/xlink"
   xmlns="http://www.w3.org/2000/svg"
   xmlns:svg="http://www.w3.org/2000/svg">
  <sodipodi:namedview
     id="namedview1"
     pagecolor="#ffffff"
     bordercolor="#000000"
     borderopacity="0.25"
     inkscape:showpageshadow="2"
     inkscape:pageopacity="0.0"
     inkscape:pagecheckerboard="0"
     inkscape:deskcolor="#d1d1d1"
     inkscape:document-units="px"
     inkscape:zoom="16.375"
     inkscape:cx="24.030534"
     inkscape:cy="24.030534"
     inkscape:window-width="1920"
     inkscape:window-height="1010"
     inkscape:window-x="0"
     inkscape:window-y="0"
     inkscape:window-maximized="1"
     inkscape:current-layer="svg1" />
  <defs
     id="defs1">
    <linearGradient
       inkscape:collect="always"
       xlink:href="#linearGradient3788"
       id="linearGradient4"
       x1="16"
       y1="30"
       x2="16"
       y2="2"
       gradientUnits="userSpaceOnUse"
       gradientTransform="scale(1.5)" />
    <linearGradient
       inkscape:collect="always"
       id="linearGradient3788">
      <stop
         style="stop-color:#f98d00;stop-opacity:1;"
         offset="0"
         id="stop3784" />
      <stop
         style="stop-color:#ffcf41;stop-opacity:1;"
         offset="1"
         id="stop3786" />
    </linearGradient>
  </defs>
  <rect
     style="opacity:0.2;fill:#000000;stroke-width:3.675"
     id="rect1"
     width="42"
     height="42"
     x="3"
     y="4"
     ry="9" />
  <rect
     style="fill:url(#linearGradient4);stroke-width:1.5"
     id="rect2"
     width="42"
     height="42"
     x="3"
     y="3"
     ry="9" />
  <path
     id="path1945"
     style="fill:#ffffff;stroke-width:2;stroke-linecap:round"
     d="m 37.374368,12.039846 c -1.952619,-1.95262 -5.118447,-1.952621 -7.071068,0 L 14.746951,27.596195 c -1.171572,1.171572 -1.171572,3.07107 0,4.242641 1.171572,1.17157 3.07107,1.171571 4.242641,0 L 32.424621,18.403807 c 0.390524,-0.390525 0.390524,-1.023689 0,-1.414214 -0.390525,-0.390524 -1.023689,-0.390524 -1.414214,0 L 17.575378,30.424622 c -0.390523,0.390523 -1.02369,0.390523 -1.414213,0 -0.390525,-0.390523 -0.390524,-1.02369 0,-1.414213 l 15.556349,-15.55635 c 1.171572,-1.171571 3.07107,-1.17157 4.242641,0 1.171569,1.171572 1.171571,3.07107 0,4.242641 L 19.696699,33.960156 c -1.95262,1.95262 -5.11845,1.95262 -7.071068,0 -1.95262,-1.95262 -1.95262,-5.118448 0,-7.071068 L 23.232233,16.282487 c 0.390524,-0.390525 0.390524,-1.02369 0,-1.414214 -0.390525,-0.390524 -1.023689,-0.390524 -1.414214,0 L 11.211417,25.474875 c -2.7336664,2.733667 -2.7336678,7.165828 0,9.899495 2.733667,2.733667 7.165829,2.733666 9.899495,0 L 37.374368,19.110914 c 1.95262,-1.95262 1.95262,-5.118449 0,-7.071068 z"
     sodipodi:nodetypes="sssssssssssssssssssssssss" />
</svg>
