<?xml version="1.0" encoding="UTF-8" standalone="no"?>
<!-- Created with Inkscape (http://www.inkscape.org/) -->

<svg
   width="48"
   height="48"
   viewBox="0 0 48 48.000003"
   version="1.1"
   id="svg1"
   inkscape:version="1.4 (e7c3feb100, 2024-10-09)"
   sodipodi:docname="libreoffice-impress.svg"
   xmlns:inkscape="http://www.inkscape.org/namespaces/inkscape"
   xmlns:sodipodi="http://sodipodi.sourceforge.net/DTD/sodipodi-0.dtd"
   xmlns:xlink="http://www.w3.org/1999/xlink"
   xmlns="http://www.w3.org/2000/svg"
   xmlns:svg="http://www.w3.org/2000/svg">
  <sodipodi:namedview
     id="namedview1"
     pagecolor="#ffffff"
     bordercolor="#000000"
     borderopacity="0.25"
     inkscape:showpageshadow="2"
     inkscape:pageopacity="0.0"
     inkscape:pagecheckerboard="0"
     inkscape:deskcolor="#d1d1d1"
     inkscape:document-units="px"
     inkscape:zoom="16.375"
     inkscape:cx="24.030534"
     inkscape:cy="24"
     inkscape:window-width="1920"
     inkscape:window-height="1011"
     inkscape:window-x="0"
     inkscape:window-y="0"
     inkscape:window-maximized="1"
     inkscape:current-layer="svg1" />
  <defs
     id="defs1">
    <linearGradient
       inkscape:collect="always"
       xlink:href="#linearGradient2879"
       id="linearGradient4"
       x1="16"
       y1="30"
       x2="16"
       y2="2"
       gradientUnits="userSpaceOnUse"
       gradientTransform="scale(1.5)" />
    <linearGradient
       inkscape:collect="always"
       id="linearGradient2879">
      <stop
         style="stop-color:#d75112;stop-opacity:1;"
         offset="0"
         id="stop2875" />
      <stop
         style="stop-color:#f47700;stop-opacity:1;"
         offset="1"
         id="stop2877" />
    </linearGradient>
  </defs>
  <rect
     style="opacity:0.2;fill:#000000;stroke-width:2.625"
     id="rect1"
     width="42"
     height="42"
     x="3"
     y="4"
     ry="9" />
  <rect
     style="fill:url(#linearGradient4);stroke-width:1.5"
     id="rect2"
     width="42"
     height="42"
     x="3"
     y="3"
     ry="9" />
  <rect
     style="fill:#f7c195;fill-opacity:1;stroke-width:2.29129;stroke-linecap:round;stroke-linejoin:round"
     id="rect549"
     width="13"
     height="9"
     x="23"
     y="24"
     ry="0.99999994" />
  <path
     id="rect346"
     style="fill:#ffffff;stroke-width:0.999995;stroke-linecap:round;stroke-linejoin:round"
     d="m 12.5,15 c -0.276999,0 -0.5,0.223001 -0.5,0.5 0,0.276999 0.223001,0.5 0.5,0.5 h 22.999999 c 0.276999,0 0.5,-0.223001 0.5,-0.5 0,-0.276999 -0.223001,-0.5 -0.5,-0.5 z m 3.000001,3 C 15.223002,18 15,18.223001 15,18.5 15,18.776999 15.223002,19 15.500001,19 H 32.5 C 32.776999,19 33,18.776999 33,18.5 33,18.223001 32.776999,18 32.5,18 Z M 12.5,25 c -0.276143,0 -0.5,0.223857 -0.5,0.499999 0,0.276143 0.223857,0.5 0.5,0.5 0.276142,0 0.5,-0.223857 0.5,-0.5 C 13,25.223857 12.776142,25 12.5,25 Z m 2,0 c -0.276999,0 -0.5,0.223001 -0.5,0.499999 0,0.276999 0.223001,0.5 0.5,0.5 h 5.999999 c 0.276999,0 0.5,-0.223001 0.5,-0.5 0,-0.276998 -0.223001,-0.499999 -0.5,-0.499999 z m -2,2.999999 c -0.276143,0 -0.5,0.223858 -0.5,0.5 0,0.276143 0.223857,0.5 0.5,0.5 0.276142,0 0.5,-0.223857 0.5,-0.5 0,-0.276142 -0.223858,-0.5 -0.5,-0.5 z m 2,0 c -0.276999,0 -0.5,0.223001 -0.5,0.5 0,0.276999 0.223001,0.5 0.5,0.5 h 5.999999 c 0.276999,0 0.5,-0.223001 0.5,-0.5 0,-0.276999 -0.223001,-0.5 -0.5,-0.5 z M 12.5,31 C 12.223857,31 12,31.223858 12,31.5 12,31.776143 12.223857,32 12.5,32 12.776142,32 13,31.776143 13,31.5 13,31.223858 12.776142,31 12.5,31 Z m 2,0 c -0.276999,0 -0.5,0.223001 -0.5,0.5 0,0.276999 0.223001,0.5 0.5,0.5 h 5.999999 c 0.276999,0 0.5,-0.223001 0.5,-0.5 0,-0.276999 -0.223001,-0.5 -0.5,-0.5 z"
     sodipodi:nodetypes="ssssssssssssssssssssssssssssssssssssssssssssssssss" />
  <path
     style="color:#000000;fill:#e35100;fill-opacity:1;stroke-linecap:round;stroke-linejoin:round;-inkscape-stroke:none"
     d="m 34.625,25.218711 c -0.431391,-0.345458 -1.061213,-0.275478 -1.40625,0.15625 l -2.355965,3.12514 -2.214961,-1.847656 c -0.420215,-0.350735 -1.044312,-0.29851 -1.400391,0.117187 l -3.007199,3.580289 c -0.359273,0.419584 -0.3103,1.05099 0.109375,1.410157 0.419584,0.359273 1.05099,0.3103 1.410157,-0.109375 l 2.36462,-2.83029 2.242305,1.869141 c 0.430175,0.359305 1.071606,0.294987 1.421875,-0.142578 l 2.992684,-3.922015 c 0.345458,-0.431391 0.275478,-1.061213 -0.15625,-1.40625 z"
     id="path691"
     sodipodi:nodetypes="ccccccccccccc" />
</svg>
