<?xml version="1.0" encoding="UTF-8" standalone="no"?>
<!-- Created with Inkscape (http://www.inkscape.org/) -->

<svg
   width="48"
   height="48"
   viewBox="0 0 48 48.000004"
   version="1.1"
   id="svg1"
   inkscape:version="1.4 (e7c3feb100, 2024-10-09)"
   sodipodi:docname="libreoffice-draw.svg"
   xmlns:inkscape="http://www.inkscape.org/namespaces/inkscape"
   xmlns:sodipodi="http://sodipodi.sourceforge.net/DTD/sodipodi-0.dtd"
   xmlns:xlink="http://www.w3.org/1999/xlink"
   xmlns="http://www.w3.org/2000/svg"
   xmlns:svg="http://www.w3.org/2000/svg">
  <sodipodi:namedview
     id="namedview1"
     pagecolor="#ffffff"
     bordercolor="#000000"
     borderopacity="0.25"
     inkscape:showpageshadow="2"
     inkscape:pageopacity="0.0"
     inkscape:pagecheckerboard="0"
     inkscape:deskcolor="#d1d1d1"
     inkscape:document-units="px"
     inkscape:zoom="16.375"
     inkscape:cx="23.969466"
     inkscape:cy="24"
     inkscape:window-width="1920"
     inkscape:window-height="1011"
     inkscape:window-x="0"
     inkscape:window-y="0"
     inkscape:window-maximized="1"
     inkscape:current-layer="svg1" />
  <defs
     id="defs1">
    <linearGradient
       inkscape:collect="always"
       xlink:href="#linearGradient16449"
       id="linearGradient4"
       x1="16"
       y1="30"
       x2="16"
       y2="2"
       gradientUnits="userSpaceOnUse"
       gradientTransform="scale(1.5)" />
    <linearGradient
       inkscape:collect="always"
       id="linearGradient16449">
      <stop
         style="stop-color:#ee9b00;stop-opacity:1;"
         offset="0"
         id="stop16445" />
      <stop
         style="stop-color:#eece00;stop-opacity:1;"
         offset="1"
         id="stop16447" />
    </linearGradient>
  </defs>
  <rect
     style="opacity:0.2;fill:#000000;stroke-width:3.675"
     id="rect1"
     width="42"
     height="42"
     x="3"
     y="4"
     ry="9" />
  <rect
     style="fill:url(#linearGradient4);stroke-width:1.5"
     id="rect2"
     width="42"
     height="42"
     x="3"
     y="3"
     ry="9" />
  <path
     id="rect292"
     style="fill:#ffffff;stroke-width:1;stroke-linecap:round;stroke-linejoin:round"
     d="m 27,18.000002 c -0.553999,0 -1,0.446001 -1,1 v 7.999999 c 0,0.553999 0.446001,1 1,1 h 8 c 0.553999,0 1,-0.446001 1,-1 v -8 c 0,-0.553998 -0.446001,-1 -1,-1 z m 0,1 h 8 v 7.999999 h -8 z"
     sodipodi:nodetypes="sssssssssccccc" />
  <circle
     style="fill:#ffffff;stroke-width:1.2;stroke-linecap:round;stroke-linejoin:round"
     id="path452"
     cx="18"
     cy="21"
     r="6" />
  <path
     id="path2642"
     style="color:#000000;fill:#fde9b6;fill-opacity:1;stroke:none;stroke-width:1;stroke-linecap:round;stroke-linejoin:round;-inkscape-stroke:none"
     d="m 23,21.000001 c -0.164688,-6e-6 -0.318821,0.08108 -0.412108,0.216797 l -6.499947,11 c -0.227933,0.33178 0.0096,0.783164 0.41211,0.783203 l 12.99989,-3.99e-4 c 0.40253,-3.9e-5 0.640041,-0.451422 0.412109,-0.783203 L 23.41211,21.216798 C 23.31882,21.081079 23.16469,20.999995 23,21.000001 Z"
     sodipodi:nodetypes="cccccccc" />
</svg>
