<?xml version="1.0" encoding="UTF-8" standalone="no"?>
<!-- Created with Inkscape (http://www.inkscape.org/) -->

<svg
   width="48"
   height="48"
   viewBox="0 0 48 48.000004"
   version="1.1"
   id="svg1"
   inkscape:version="1.4 (e7c3feb100, 2024-10-09)"
   sodipodi:docname="minecraft.svg"
   xmlns:inkscape="http://www.inkscape.org/namespaces/inkscape"
   xmlns:sodipodi="http://sodipodi.sourceforge.net/DTD/sodipodi-0.dtd"
   xmlns:xlink="http://www.w3.org/1999/xlink"
   xmlns="http://www.w3.org/2000/svg"
   xmlns:svg="http://www.w3.org/2000/svg">
  <sodipodi:namedview
     id="namedview1"
     pagecolor="#ffffff"
     bordercolor="#000000"
     borderopacity="0.25"
     inkscape:showpageshadow="2"
     inkscape:pageopacity="0.0"
     inkscape:pagecheckerboard="0"
     inkscape:deskcolor="#d1d1d1"
     inkscape:document-units="px"
     inkscape:zoom="16.375"
     inkscape:cx="24.030534"
     inkscape:cy="24"
     inkscape:window-width="1920"
     inkscape:window-height="1011"
     inkscape:window-x="0"
     inkscape:window-y="0"
     inkscape:window-maximized="1"
     inkscape:current-layer="svg1" />
  <defs
     id="defs1">
    <linearGradient
       inkscape:collect="always"
       xlink:href="#linearGradient1149"
       id="linearGradient4"
       x1="16"
       y1="30"
       x2="16"
       y2="2"
       gradientUnits="userSpaceOnUse"
       gradientTransform="scale(1.5)" />
    <linearGradient
       inkscape:collect="always"
       id="linearGradient1149">
      <stop
         style="stop-color:#6ab12d;stop-opacity:1;"
         offset="0"
         id="stop1145" />
      <stop
         style="stop-color:#8dd27a;stop-opacity:1;"
         offset="1"
         id="stop1147" />
    </linearGradient>
  </defs>
  <rect
     style="opacity:0.2;fill:#000000;stroke-width:3.675"
     id="rect1"
     width="42"
     height="42"
     x="3"
     y="4"
     ry="9" />
  <rect
     style="fill:url(#linearGradient4);stroke-width:1.5"
     id="rect2"
     width="42"
     height="42"
     x="3"
     y="3"
     ry="9" />
  <path
     d="m 10,10 v 9 h 9 v -9 z m 18,0 v 9 h 9 v -9 z m -9,10 v 5 h -5 v 12 h 5 v -5 h 9 v 5 h 5 V 25 h -5 v -5 z"
     style="opacity:0.3;fill:#000000;stroke-width:1.125"
     id="path691" />
  <path
     d="m 10,12 v 9 h 9 v -9 z m 18,0 v 9 h 9 v -9 z m -9,10 v 5 h -5 v 12 h 5 v -5 h 9 v 5 h 5 V 27 h -5 v -5 z"
     style="opacity:0.2;fill:#ffffff;stroke-width:1.125"
     id="path719" />
  <path
     id="rect388"
     style="fill:#000000;stroke-width:1.125"
     d="m 10,11 v 9 h 9 v -9 z m 18,0 v 9 h 9 v -9 z m -9,10 v 5 h -5 v 12 h 5 v -5 h 9 v 5 h 5 V 26 h -5 v -5 z"
     sodipodi:nodetypes="ccccccccccccccccccccccc" />
</svg>
