<?xml version="1.0" encoding="UTF-8" standalone="no"?>
<!-- Created with Inkscape (http://www.inkscape.org/) -->

<svg
   width="48"
   height="48"
   viewBox="0 0 48 48.000003"
   version="1.1"
   id="svg1"
   inkscape:version="1.4 (e7c3feb100, 2024-10-09)"
   sodipodi:docname="naver-whale.svg"
   xmlns:inkscape="http://www.inkscape.org/namespaces/inkscape"
   xmlns:sodipodi="http://sodipodi.sourceforge.net/DTD/sodipodi-0.dtd"
   xmlns:xlink="http://www.w3.org/1999/xlink"
   xmlns="http://www.w3.org/2000/svg"
   xmlns:svg="http://www.w3.org/2000/svg">
  <sodipodi:namedview
     id="namedview1"
     pagecolor="#ffffff"
     bordercolor="#000000"
     borderopacity="0.25"
     inkscape:showpageshadow="2"
     inkscape:pageopacity="0.0"
     inkscape:pagecheckerboard="0"
     inkscape:deskcolor="#d1d1d1"
     inkscape:document-units="px"
     inkscape:zoom="16.833333"
     inkscape:cx="23.970297"
     inkscape:cy="24"
     inkscape:window-width="1920"
     inkscape:window-height="1011"
     inkscape:window-x="0"
     inkscape:window-y="0"
     inkscape:window-maximized="1"
     inkscape:current-layer="svg1" />
  <defs
     id="defs1">
    <linearGradient
       inkscape:collect="always"
       xlink:href="#linearGradient1969"
       id="linearGradient4"
       x1="16"
       y1="2"
       x2="16"
       y2="25"
       gradientUnits="userSpaceOnUse"
       gradientTransform="scale(1.5)" />
    <linearGradient
       inkscape:collect="always"
       id="linearGradient1969">
      <stop
         style="stop-color:#1b34a8;stop-opacity:1;"
         offset="0"
         id="stop1965" />
      <stop
         style="stop-color:#3683ae;stop-opacity:1"
         offset="1"
         id="stop1967" />
    </linearGradient>
    <linearGradient
       inkscape:collect="always"
       xlink:href="#linearGradient17511"
       id="linearGradient17513"
       x1="38.999996"
       y1="24.000418"
       x2="38.999996"
       y2="39.000496"
       gradientUnits="userSpaceOnUse"
       gradientTransform="matrix(1.0000002,0,0,0.9955314,7.78e-5,0.1737833)" />
    <linearGradient
       inkscape:collect="always"
       id="linearGradient17511">
      <stop
         style="stop-color:#e4e5e7;stop-opacity:1;"
         offset="0"
         id="stop17507" />
      <stop
         style="stop-color:#c1c1c5;stop-opacity:1;"
         offset="1"
         id="stop17509" />
    </linearGradient>
    <linearGradient
       inkscape:collect="always"
       xlink:href="#linearGradient15319"
       id="linearGradient15327"
       x1="9.0688782"
       y1="25.661974"
       x2="9"
       y2="38.999268"
       gradientUnits="userSpaceOnUse"
       gradientTransform="matrix(1.0000002,0,0,0.9955314,7.78e-5,0.1737833)" />
    <linearGradient
       inkscape:collect="always"
       id="linearGradient15319">
      <stop
         style="stop-color:#00dcb4;stop-opacity:1;"
         offset="0"
         id="stop15315" />
      <stop
         style="stop-color:#1f9ea2;stop-opacity:1;"
         offset="1"
         id="stop15317" />
    </linearGradient>
    <linearGradient
       inkscape:collect="always"
       xlink:href="#linearGradient10097"
       id="linearGradient15313"
       x1="9.0688782"
       y1="25.661974"
       x2="9.0184727"
       y2="38.999268"
       gradientUnits="userSpaceOnUse"
       gradientTransform="matrix(1.0000002,0,0,0.9955314,7.78e-5,0.1737833)" />
    <linearGradient
       inkscape:collect="always"
       id="linearGradient10097">
      <stop
         style="stop-color:#00dcb4;stop-opacity:1;"
         offset="0"
         id="stop10093" />
      <stop
         style="stop-color:#0baeb5;stop-opacity:1"
         offset="1"
         id="stop10095" />
    </linearGradient>
  </defs>
  <rect
     style="opacity:0.2;fill:#000000;stroke-width:2.625"
     id="rect1"
     width="42"
     height="42"
     x="3"
     y="4"
     ry="9" />
  <rect
     style="fill:url(#linearGradient4);stroke-width:1.5"
     id="rect2"
     width="42"
     height="42"
     x="3"
     y="3"
     ry="9" />
  <path
     d="M 39.000079,24.066952 C 39.000079,32.314247 32.284315,39 24,39 c -2.418712,0 -4.703718,-0.56991 -6.726912,-1.582198 0.630962,-3.221274 1.454721,-5.971722 2.40524,-8.32001 1.099236,-2.715703 3.748978,-2.354841 5.085135,-4.101063 2.140183,-2.797002 3.072288,-7.02532 5.13855,-8.044002 2.553901,-1.259092 6.17271,-1.762114 6.17271,-1.762114 l 0.163353,0.239392 c 0.158694,0.222453 0.311421,0.449418 0.457948,0.680664 1.459526,2.303385 2.304056,5.03165 2.304055,7.956283 z"
     style="fill:url(#linearGradient17513);fill-opacity:1;stroke-width:0.53452"
     id="path405" />
  <path
     id="path372"
     style="fill:url(#linearGradient15327);fill-opacity:1;stroke-width:0.53452"
     d="M 34.554688 14.996094 C 32.609046 14.996349 30.513828 15.561145 28.777344 16.378906 C 27.289818 17.079424 25.836674 18.291534 23.023438 20.515625 C 20.942142 22.161059 19.544677 22.726975 18.205078 22.988281 C 17.676434 23.091406 16.612602 23.068116 16.052734 22.941406 C 13.659625 22.399814 11.823206 20.613032 11.482422 18.173828 C 11.378268 17.428365 11.450819 16.421493 11.65625 15.75 C 11.69921 15.609585 11.726337 15.488022 11.716797 15.478516 C 11.688377 15.450226 11.095062 16.382677 10.8125 16.900391 C 9.962924 18.456989 9.4342541 20.009811 9.1425781 21.802734 C 8.9892951 22.74495 8.9514384 24.712287 9.0683594 25.720703 C 9.4700234 29.184853 11.056017 32.412236 13.525391 34.791016 L 13.925781 35.177734 L 13.595703 35.482422 C 12.296746 36.675586 10.650177 37.690873 9.0722656 38.271484 C 8.9836556 38.304084 8.9985673 38.319552 9.1757812 38.382812 C 9.8151422 38.610999 11.154712 38.878285 12.101562 38.966797 C 12.851683 39.036917 14.203807 38.987874 14.921875 38.865234 C 15.811766 38.713239 16.627057 38.486281 17.458984 38.158203 L 18.658203 37.607422 C 20.151627 36.839545 21.702513 35.56828 22.595703 34.380859 C 23.762429 32.829791 25.243587 29.776527 26.855469 25.591797 C 27.632688 23.573999 27.984718 22.741076 28.513672 21.685547 C 29.254102 20.208019 30.002512 19.089658 30.759766 18.328125 C 31.958978 17.122138 33.900108 15.817704 35.771484 15.316406 L 36.058594 15.199219 L 36.048828 15.189453 L 35.376953 15.025391 C 35.106638 15.006491 34.832635 14.996044 34.554688 14.996094 z M 24 23 C 24.552284 23 25 23.447716 25 24 C 25 24.552284 24.552284 25 24 25 C 23.447716 25 23 24.552284 23 24 C 23 23.447716 23.447716 23 24 23 z " />
  <path
     id="path5945"
     style="fill:url(#linearGradient15313);fill-opacity:1;stroke-width:0.53452"
     d="m 19.000081,28.048662 c -1.213864,3.720399 -3.730831,5.848042 -5.074219,7.128159 l -0.330078,0.305271 c -0.324738,0.298291 -0.671517,0.58551 -1.033203,0.857479 -0.361686,0.27197 -0.737423,0.52842 -1.123048,0.766092 -4.62e-4,2.85e-4 -0.0015,-2.85e-4 -0.002,0 -0.770816,0.474954 -1.576769,0.874569 -2.365235,1.164695 -0.02215,0.0081 -0.03858,0.0144 -0.04687,0.02137 -0.0083,0.0072 -0.0094,0.0135 -0.0019,0.02139 0.01482,0.01587 0.06374,0.03642 0.152343,0.06806 0.639362,0.228186 1.978934,0.496752 2.925782,0.585264 0.750121,0.07012 2.102245,0.02154 2.820313,-0.101115 0.889891,-0.151995 1.705183,-0.379683 2.53711,-0.70776 L 18.6583,37.607301 c 1.493427,-0.767877 3.046264,-2.040276 3.939453,-3.227699 0.92331,-1.227399 2.043868,-3.406068 3.269577,-6.330949 z" />
  <path
     d="m 25.125,11.25 c -0.207106,0 -0.375,0.167894 -0.375,0.375 0,0.207107 0.167894,0.375 0.375,0.375 0.207106,0 0.375,-0.167893 0.375,-0.375 0,-0.207106 -0.167894,-0.375 -0.375,-0.375 z m 4.3125,1.875 c -0.103545,0 -0.1875,0.08395 -0.1875,0.1875 0,0.10356 0.08396,0.1875 0.1875,0.1875 0.103545,0 0.1875,-0.08394 0.1875,-0.1875 0,-0.103545 -0.08396,-0.1875 -0.1875,-0.1875 z m -9.663575,2.742187 c -0.06236,-1.62e-4 -0.11295,0.05043 -0.1128,0.1128 -1.62e-4,0.06236 0.05043,0.112951 0.1128,0.1128 0.06236,1.62e-4 0.112951,-0.05043 0.1128,-0.1128 1.62e-4,-0.06236 -0.05043,-0.112949 -0.1128,-0.1128 z M 24.1875,16.125 C 24.083955,16.125 24,16.20895 24,16.3125 c 0,0.10356 0.08395,0.1875 0.1875,0.1875 0.103545,0 0.1875,-0.08394 0.1875,-0.1875 0,-0.103545 -0.08395,-0.1875 -0.1875,-0.1875 z m -4.574706,0.149415 c -0.06236,-1.63e-4 -0.11295,0.05043 -0.1128,0.112785 -1.62e-4,0.06236 0.05043,0.11295 0.1128,0.1128 0.06236,1.62e-4 0.11295,-0.05043 0.1128,-0.1128 1.62e-4,-0.06236 -0.05043,-0.11295 -0.1128,-0.112785 z M 15.9375,16.875 c -0.103545,0 -0.1875,0.08395 -0.1875,0.1875 0,0.10356 0.08395,0.1875 0.1875,0.1875 0.10356,0 0.1875,-0.08394 0.1875,-0.1875 0,-0.103545 -0.08394,-0.1875 -0.1875,-0.1875 z M 18.375,18 C 18.167894,18 18,18.167894 18,18.375 c 0,0.207106 0.167894,0.375 0.375,0.375 0.207106,0 0.375,-0.167894 0.375,-0.375 C 18.75,18.167894 18.582106,18 18.375,18 Z"
     style="fill:#ffffff;stroke-width:0.75"
     id="path19127" />
</svg>
