<?xml version="1.0" encoding="UTF-8" standalone="no"?>
<!-- Created with Inkscape (http://www.inkscape.org/) -->

<svg
   width="48"
   height="48"
   viewBox="0 0 48 48.000003"
   version="1.1"
   id="svg1"
   inkscape:version="1.4.2 (ebf0e940d0, 2025-05-08)"
   sodipodi:docname="nextcloud.svg"
   xmlns:inkscape="http://www.inkscape.org/namespaces/inkscape"
   xmlns:sodipodi="http://sodipodi.sourceforge.net/DTD/sodipodi-0.dtd"
   xmlns="http://www.w3.org/2000/svg"
   xmlns:svg="http://www.w3.org/2000/svg">
  <sodipodi:namedview
     id="namedview1"
     pagecolor="#ffffff"
     bordercolor="#000000"
     borderopacity="0.25"
     inkscape:showpageshadow="2"
     inkscape:pageopacity="0.0"
     inkscape:pagecheckerboard="0"
     inkscape:deskcolor="#d1d1d1"
     inkscape:document-units="px"
     inkscape:zoom="16.833333"
     inkscape:cx="24.029703"
     inkscape:cy="24"
     inkscape:window-width="1920"
     inkscape:window-height="1011"
     inkscape:window-x="0"
     inkscape:window-y="0"
     inkscape:window-maximized="1"
     inkscape:current-layer="svg1" />
  <defs
     id="defs1" />
  <rect
     style="opacity:0.2;fill:#000000;stroke-width:2.625"
     id="rect1"
     width="42"
     height="42"
     x="3"
     y="4"
     ry="9" />
  <rect
     style="fill:#0082c9;stroke-width:1.5;fill-opacity:1"
     id="rect2"
     width="42"
     height="42"
     x="3"
     y="3"
     ry="9" />
  <path
     id="path1338"
     style="fill:#ffffff;stroke-width:4.57143;stroke-linecap:round;stroke-linejoin:round"
     d="m 24,16 c -3.228867,0 -6.009545,1.913639 -7.273438,4.667969 C 15.811021,19.64489 14.480966,19 13,19 c -2.761418,0 -5,2.238583 -5,5 0,2.761417 2.238582,5 5,5 1.480966,0 2.811021,-0.64489 3.726562,-1.667969 C 17.990455,30.086361 20.771133,32 24,32 27.228867,32 30.009545,30.086361 31.273438,27.332031 32.188979,28.35511 33.519034,29 35,29 c 2.761417,0 5,-2.238583 5,-5 0,-2.761417 -2.238583,-5 -5,-5 -1.480966,0 -2.811021,0.64489 -3.726562,1.667969 C 30.009545,17.913639 27.228867,16 24,16 Z m 0,2 c 3.313702,0 6,2.686298 6,6 0,3.313702 -2.686298,6 -6,6 -3.313702,0 -6,-2.686298 -6,-6 0,-3.313702 2.686298,-6 6,-6 z m -11,3 c 1.65685,0 3,1.34315 3,3 0,1.65685 -1.34315,3 -3,3 -1.65685,0 -3,-1.34315 -3,-3 0,-1.65685 1.34315,-3 3,-3 z m 22,0 c 1.65685,0 3,1.34315 3,3 0,1.65685 -1.34315,3 -3,3 -1.65685,0 -3,-1.34315 -3,-3 0,-1.65685 1.34315,-3 3,-3 z" />
</svg>
