<?xml version="1.0" encoding="UTF-8" standalone="no"?>
<!-- Created with Inkscape (http://www.inkscape.org/) -->

<svg
   width="48"
   height="48"
   viewBox="0 0 48 48.000003"
   version="1.1"
   id="svg1"
   inkscape:version="1.4 (e7c3feb100, 2024-10-09)"
   sodipodi:docname="okular.svg"
   xmlns:inkscape="http://www.inkscape.org/namespaces/inkscape"
   xmlns:sodipodi="http://sodipodi.sourceforge.net/DTD/sodipodi-0.dtd"
   xmlns:xlink="http://www.w3.org/1999/xlink"
   xmlns="http://www.w3.org/2000/svg"
   xmlns:svg="http://www.w3.org/2000/svg">
  <sodipodi:namedview
     id="namedview1"
     pagecolor="#ffffff"
     bordercolor="#000000"
     borderopacity="0.25"
     inkscape:showpageshadow="2"
     inkscape:pageopacity="0.0"
     inkscape:pagecheckerboard="0"
     inkscape:deskcolor="#d1d1d1"
     inkscape:document-units="px"
     inkscape:zoom="16.833333"
     inkscape:cx="23.970297"
     inkscape:cy="24"
     inkscape:window-width="1920"
     inkscape:window-height="1011"
     inkscape:window-x="0"
     inkscape:window-y="0"
     inkscape:window-maximized="1"
     inkscape:current-layer="svg1" />
  <defs
     id="defs1">
    <linearGradient
       inkscape:collect="always"
       id="linearGradient1606">
      <stop
         style="stop-color:#eaebed;stop-opacity:1;"
         offset="0"
         id="stop1602" />
      <stop
         style="stop-color:#f9fafa;stop-opacity:1;"
         offset="1"
         id="stop1604" />
    </linearGradient>
    <linearGradient
       inkscape:collect="always"
       xlink:href="#linearGradient1606"
       id="linearGradient4"
       x1="16"
       y1="30"
       x2="16"
       y2="2"
       gradientUnits="userSpaceOnUse"
       gradientTransform="scale(1.5)" />
    <linearGradient
       inkscape:collect="always"
       xlink:href="#linearGradient2338"
       id="linearGradient2281"
       x1="16"
       y1="30"
       x2="16"
       y2="2"
       gradientUnits="userSpaceOnUse"
       gradientTransform="scale(1.5)" />
    <linearGradient
       inkscape:collect="always"
       id="linearGradient2338">
      <stop
         style="stop-color:#218ed4;stop-opacity:1;"
         offset="0"
         id="stop2334" />
      <stop
         style="stop-color:#3ecdf1;stop-opacity:1;"
         offset="1"
         id="stop2336" />
    </linearGradient>
  </defs>
  <rect
     style="opacity:0.2;fill:#000000;stroke-width:2.625"
     id="rect1"
     width="42"
     height="42"
     x="3"
     y="4"
     ry="9" />
  <rect
     style="fill:url(#linearGradient4);stroke-width:1.5"
     id="rect2"
     width="42"
     height="42"
     x="3"
     y="3"
     ry="9" />
  <path
     id="path1283"
     style="fill:url(#linearGradient2281);fill-opacity:1;stroke-width:1.5"
     d="m 27,3 v 0.00586 c -2.439617,2.310614 -4.745099,5.3816637 -6.436524,8.871094 -2.611724,5.38801 -3.230963,9.938799 -1.839843,13.669922 1.3911,3.731127 4.582695,6.069859 9.5625,7.025391 5.234321,1.004364 10.086927,0.238923 14.560546,-2.317383 C 43.531,29.863844 44.357706,29.411652 45,28.951171 v -5.950195 h -0.0059 c -1.617278,2.234454 -3.569418,4.046202 -5.466798,5.425782 -3.356799,2.440681 -6.825294,3.312 -10.420898,2.62207 -3.420608,-0.656355 -5.4274,-2.599063 -6.017537,-5.830078 -0.566936,-3.243052 0.358755,-7.355955 2.780274,-12.351562 C 27.786009,8.9126523 32.665548,3.3769009 33,3 Z" />
</svg>
