<?xml version="1.0" encoding="UTF-8" standalone="no"?>
<!-- Created with Inkscape (http://www.inkscape.org/) -->

<svg
   width="48"
   height="48"
   viewBox="0 0 48 48.000003"
   version="1.1"
   id="svg1"
   inkscape:version="1.4.2 (ebf0e940d0, 2025-05-08)"
   sodipodi:docname="org.gnome.Showtime.svg"
   xmlns:inkscape="http://www.inkscape.org/namespaces/inkscape"
   xmlns:sodipodi="http://sodipodi.sourceforge.net/DTD/sodipodi-0.dtd"
   xmlns:xlink="http://www.w3.org/1999/xlink"
   xmlns="http://www.w3.org/2000/svg"
   xmlns:svg="http://www.w3.org/2000/svg">
  <sodipodi:namedview
     id="namedview1"
     pagecolor="#ffffff"
     bordercolor="#000000"
     borderopacity="0.25"
     inkscape:showpageshadow="2"
     inkscape:pageopacity="0.0"
     inkscape:pagecheckerboard="0"
     inkscape:deskcolor="#d1d1d1"
     inkscape:document-units="px"
     inkscape:zoom="16.375"
     inkscape:cx="24"
     inkscape:cy="24"
     inkscape:window-width="1920"
     inkscape:window-height="1011"
     inkscape:window-x="0"
     inkscape:window-y="0"
     inkscape:window-maximized="1"
     inkscape:current-layer="svg1"
     showguides="false" />
  <defs
     id="defs1">
    <linearGradient
       inkscape:collect="always"
       xlink:href="#linearGradient11"
       id="linearGradient4"
       x1="16"
       y1="30"
       x2="16"
       y2="2"
       gradientUnits="userSpaceOnUse"
       gradientTransform="scale(1.5)" />
    <linearGradient
       inkscape:collect="always"
       id="linearGradient11">
      <stop
         style="stop-color:#3cbc5f;stop-opacity:1;"
         offset="0"
         id="stop8" />
      <stop
         style="stop-color:#e97b38;stop-opacity:1;"
         offset="0.49418557"
         id="stop10" />
      <stop
         style="stop-color:#bb69e5;stop-opacity:1;"
         offset="1"
         id="stop11" />
    </linearGradient>
  </defs>
  <rect
     style="opacity:0.2;fill:#000000;stroke-width:2.625"
     id="rect1"
     width="42"
     height="42"
     x="3"
     y="4"
     ry="9" />
  <rect
     style="fill:url(#linearGradient4);stroke-width:1.5"
     id="rect2"
     width="42"
     height="42"
     x="3"
     y="3"
     ry="9" />
  <path
     d="M 18.251517,13.270686 C 16.786928,12.473665 15.002638,13.532143 15,15.19955 v 17.600895 c 0.0025,1.667408 1.786928,2.725891 3.251517,1.928867 l 16.133579,-8.797005 c 1.531075,-0.833272 1.531075,-3.031347 0,-3.86462 z"
     style="color:#000000;fill:#ffffff;fill-opacity:1;stroke-width:3.52707;stroke-linecap:round;stroke-linejoin:round;stroke-miterlimit:1;opacity:0.6"
     id="path11025"
     sodipodi:nodetypes="ccccccc" />
  <path
     id="path1"
     style="fill:#ffffff;fill-opacity:1;stroke-linecap:round;stroke-linejoin:round;opacity:1"
     d="M 21 24 L 21 27 L 15 27 L 15 28 L 21 28 L 21 31 L 15 31 L 15 32 L 21 32 L 21 33.230469 L 24 31.59375 L 24 24 L 23 24 L 22 24 L 21 24 z M 22 25 L 23 25 L 23 26 L 22 26 L 22 25 z M 22 27 L 23 27 L 23 28 L 22 28 L 22 27 z M 22 29 L 23 29 L 23 30 L 22 30 L 22 29 z M 22 31 L 23 31 L 23 32 L 22 32 L 22 31 z " />
</svg>
