<?xml version="1.0" encoding="UTF-8" standalone="no"?>
<!-- Created with Inkscape (http://www.inkscape.org/) -->

<svg
   width="48"
   height="48"
   viewBox="0 0 48 48.000004"
   version="1.1"
   id="svg1"
   inkscape:version="1.4.2 (ebf0e940d0, 2025-05-08)"
   sodipodi:docname="org.xfce.terminal-settings.svg"
   xmlns:inkscape="http://www.inkscape.org/namespaces/inkscape"
   xmlns:sodipodi="http://sodipodi.sourceforge.net/DTD/sodipodi-0.dtd"
   xmlns:xlink="http://www.w3.org/1999/xlink"
   xmlns="http://www.w3.org/2000/svg"
   xmlns:svg="http://www.w3.org/2000/svg">
  <sodipodi:namedview
     id="namedview1"
     pagecolor="#ffffff"
     bordercolor="#000000"
     borderopacity="0.25"
     inkscape:showpageshadow="2"
     inkscape:pageopacity="0.0"
     inkscape:pagecheckerboard="0"
     inkscape:deskcolor="#d1d1d1"
     inkscape:document-units="px"
     inkscape:zoom="16.583333"
     inkscape:cx="23.969849"
     inkscape:cy="24"
     inkscape:window-width="1920"
     inkscape:window-height="1011"
     inkscape:window-x="0"
     inkscape:window-y="0"
     inkscape:window-maximized="1"
     inkscape:current-layer="svg1" />
  <defs
     id="defs1">
    <linearGradient
       inkscape:collect="always"
       xlink:href="#4852"
       id="linearGradient4"
       x1="16"
       y1="30"
       x2="16"
       y2="2"
       gradientUnits="userSpaceOnUse"
       gradientTransform="scale(1.5)" />
    <linearGradient
       inkscape:collect="always"
       id="4852">
      <stop
         style="stop-color:#272727;stop-opacity:1;"
         offset="0"
         id="stop14555" />
      <stop
         style="stop-color:#5d5d5d;stop-opacity:1;"
         offset="1"
         id="stop14557" />
    </linearGradient>
  </defs>
  <rect
     style="opacity:0.2;fill:#000000;stroke-width:3.675"
     id="rect1"
     width="42"
     height="42"
     x="3"
     y="4"
     ry="9" />
  <rect
     style="fill:url(#linearGradient4);stroke-width:1.5"
     id="rect2"
     width="42"
     height="42"
     x="3"
     y="3"
     ry="9" />
  <g
     id="g1"
     style="opacity:0.3">
    <path
       id="path285"
       style="fill:#ffffff;stroke-width:2.4;stroke-linecap:round;stroke-linejoin:round"
       d="m 24.000127,12.000127 c -6.627404,0 -12,5.372596 -12,12 0,6.627404 5.372596,12.000001 12,12.000001 6.627403,0 12,-5.372597 12,-12.000001 0,-6.627404 -5.372597,-12 -12,-12 z m 0,6 c 3.313702,0 6,2.686299 6,6 0,3.313702 -2.686298,6.000001 -6,6.000001 -3.313701,0 -6,-2.686299 -6,-6.000001 0,-3.313701 2.686299,-6 6,-6 z" />
    <path
       id="rect1-2"
       style="opacity:0.5;fill:#f9f9f9;stroke-width:1.5"
       d="M 28.928584,8.18209 C 28.16084,7.86408 27.456958,8.740692 27.049504,9.464945 l -1.480973,2.633738 c 1.016354,0.134571 2.031642,0.403926 3.023796,0.81489 0.992156,0.410964 1.900535,0.938418 2.714361,1.561932 l 0.815131,-2.909539 C 32.345829,10.765728 32.467967,9.64815 31.700223,9.33014 Z M 19.765205,8.19495 C 19.544891,8.10217 19.312115,8.084402 19.072196,8.18378 l -2.771343,1.147928 c -0.767745,0.318009 -0.645717,1.435099 -0.421707,2.235337 l 0.813786,2.91199 c 1.670274,-1.279152 3.656166,-2.101734 5.741732,-2.378292 L 20.951009,9.46621 C 20.670886,8.968286 20.249894,8.399072 19.765205,8.19495 Z m 18.405413,7.623771 c -0.487064,-0.198392 -1.187246,-0.09358 -1.737408,0.06042 l -2.911991,0.813786 c 1.279161,1.670274 2.101745,3.656166 2.378304,5.741733 l 2.634521,-1.483656 c 0.724252,-0.407454 1.600441,-1.11107 1.282431,-1.878813 l -1.147929,-2.771343 c -0.09938,-0.239919 -0.276537,-0.391954 -0.497928,-0.482132 z m -23.695113,0.874845 -2.909539,-0.81513 C 10.765729,15.654426 9.64815,15.532287 9.33014,16.300032 L 8.18209,19.07167 c -0.31801,0.767744 0.558605,1.471622 1.282855,1.87908 l 2.633738,1.480977 c 0.134571,-1.016353 0.403926,-2.031642 0.81489,-3.023796 0.410964,-0.992155 0.938418,-1.900534 1.561932,-2.714361 z m 21.426066,8.874967 c -0.134565,1.016353 -0.403926,2.031642 -0.81489,3.023796 -0.410964,0.992154 -0.938418,1.900535 -1.561932,2.71436 l 2.909539,0.815131 c 0.800237,0.22401 1.917816,0.346149 2.235825,-0.421596 l 1.148051,-2.771639 c 0.31801,-0.767744 -0.558602,-1.471626 -1.282854,-1.879079 z m -23.800839,-0.003 -2.634522,1.483655 C 8.741958,27.456701 7.865769,28.16032 8.18378,28.928063 l 1.147927,2.771342 c 0.31801,0.767746 1.435097,0.645715 2.235337,0.421706 L 14.479035,31.30732 C 13.199874,29.637046 12.37729,27.651155 12.100732,25.56559 Z m 19.206589,7.95563 c -1.670275,1.279161 -3.656166,2.101745 -5.741733,2.378304 l 1.483656,2.634521 c 0.407459,0.724254 1.11107,1.600443 1.878813,1.282431 L 31.6994,38.668485 c 0.767745,-0.318008 0.645717,-1.435098 0.421706,-2.235336 z m -14.613756,0.0036 -0.81513,2.90954 c -0.22401,0.800236 -0.346149,1.917816 0.421597,2.235824 l 2.771638,1.148051 c 0.767743,0.318011 1.471621,-0.558604 1.87908,-1.282854 L 22.431721,35.90158 C 21.415369,35.767015 20.40008,35.497654 19.407926,35.08669 18.415771,34.675726 17.507392,34.148272 16.693565,33.524758 Z" />
  </g>
  <path
     d="m 9,10 v 1.999999 l 6,3 -6,3 v 2 l 8,-4 v -2 z m 8,9.999999 v 2 h 8 v -2 z"
     style="fill:#ffffff;stroke-width:1.66905"
     id="path14734"
     sodipodi:nodetypes="ccccccccccccc" />
</svg>
