<?xml version="1.0" encoding="UTF-8" standalone="no"?>
<!-- Created with Inkscape (http://www.inkscape.org/) -->

<svg
   width="48"
   height="48"
   viewBox="0 0 48 48.000003"
   version="1.1"
   id="svg1"
   inkscape:version="1.4.2 (ebf0e940d0, 2025-05-08)"
   sodipodi:docname="org.gnome.Connections.svg"
   xmlns:inkscape="http://www.inkscape.org/namespaces/inkscape"
   xmlns:sodipodi="http://sodipodi.sourceforge.net/DTD/sodipodi-0.dtd"
   xmlns:xlink="http://www.w3.org/1999/xlink"
   xmlns="http://www.w3.org/2000/svg"
   xmlns:svg="http://www.w3.org/2000/svg">
  <sodipodi:namedview
     id="namedview1"
     pagecolor="#ffffff"
     bordercolor="#000000"
     borderopacity="0.25"
     inkscape:showpageshadow="2"
     inkscape:pageopacity="0.0"
     inkscape:pagecheckerboard="0"
     inkscape:deskcolor="#d1d1d1"
     inkscape:document-units="px"
     inkscape:zoom="16.5625"
     inkscape:cx="24"
     inkscape:cy="24"
     inkscape:window-width="1920"
     inkscape:window-height="1010"
     inkscape:window-x="0"
     inkscape:window-y="0"
     inkscape:window-maximized="1"
     inkscape:current-layer="svg1" />
  <defs
     id="defs1">
    <linearGradient
       inkscape:collect="always"
       xlink:href="#linearGradient3147"
       id="linearGradient4"
       x1="16"
       y1="30"
       x2="16"
       y2="2"
       gradientUnits="userSpaceOnUse"
       gradientTransform="scale(1.5)" />
    <linearGradient
       inkscape:collect="always"
       id="linearGradient3147">
      <stop
         style="stop-color:#0091f9;stop-opacity:1;"
         offset="0"
         id="stop3143" />
      <stop
         style="stop-color:#41bbff;stop-opacity:1;"
         offset="1"
         id="stop3145" />
    </linearGradient>
  </defs>
  <rect
     style="opacity:0.2;fill:#000000;stroke-width:2.625"
     id="rect1"
     width="42"
     height="42"
     x="3"
     y="4"
     ry="9" />
  <rect
     style="fill:url(#linearGradient4);stroke-width:1.5"
     id="rect2"
     width="42"
     height="42"
     x="3"
     y="3"
     ry="9" />
  <path
     id="path457"
     style="fill:#98d6fe;fill-opacity:1"
     d="M 14.519531 7 C 13.078816 7 11.910156 8.5057186 11.910156 9.9785156 L 10 9.9980469 L 10 10 L 9.9980469 10 C 9.4465219 10.001077 8.9999989 10.448477 9 11 L 9 12 L 7 12 C 5.1363471 12.019693 3.5332581 13.323874 3.1347656 15.144531 C 3.0429088 16.460699 3 17.900664 3 19.5 L 3 36 C 3 39.451707 4.9235517 42.438439 7.7617188 43.949219 C 8.2290463 43.860248 8.6003889 43.712868 8.7890625 43.589844 C 10.17124 42.464269 10.981395 40.78241 11 39 L 11 30.714844 C 11.000046 29.242046 9.438763 28.046875 7.9980469 28.046875 C 6.5573312 28.046875 5 27.054179 5 25.580078 C 5 24.107282 6.5573312 22.914064 7.9980469 22.914062 C 9.438763 22.914062 11 21.720192 11 20.246094 C 11 18.773296 11.774127 17.580078 13.214844 17.580078 C 14.655558 17.580078 16 16.386209 16 14.912109 L 16 10.951172 C 16 10.193287 16.424638 9.578125 17.166016 9.578125 C 17.90994 9.532551 18.478179 8.8796301 18.433594 8.1191406 C 18.143646 7.3331953 17.433273 7.0438171 16.664062 7.0019531 C 16.625304 7.0151657 14.953497 7.0796948 14.519531 7 z M 16.664062 7.0019531 C 16.659947 7.0011207 16.645023 7 16.617188 7 C 16.633092 7.0006466 16.648206 7.0010989 16.664062 7.0019531 z M 32.320312 13.414062 C 31.038828 13.414062 30 14.477089 30 15.787109 L 30 16.798828 C 30 18.10885 28.959219 19.171875 27.677734 19.171875 C 26.136385 19.289073 24.885354 20.661308 25 22.238281 L 25 26.380859 C 25 27.72604 26.162637 29 27.478516 29 C 28.88382 29 29 30.147185 29 31.253906 L 29 34.160156 C 29 35.635559 30.056736 37 31.5 37 C 32.94199 36.9987 34.001273 35.634257 34 34.160156 L 34 29.658203 C 34 28.577371 34.420903 27.540438 35.169922 26.777344 C 35.917668 26.014251 36.932944 25.588541 37.990234 25.589844 L 39.378906 25.597656 C 39.994171 25.598956 40.58583 25.350304 41.021484 24.90625 C 41.455865 24.462201 41.701172 23.859435 41.701172 23.230469 L 41.701172 15.787109 C 41.701172 14.477089 40.661665 13.414063 39.378906 13.414062 L 32.320312 13.414062 z " />
  <path
     d="m 36.000391,21 v 14.113281 c 0,0.743604 -0.379177,1.452912 -1.001953,2.011719 -0.622776,0.558807 -1.472578,0.875 -2,0.875 h -11.0625 c -0.791902,0 -1.953585,-0.121102 -2.789063,-0.378906 -0.417739,-0.128902 -0.747678,-0.296396 -0.902343,-0.414063 -0.154666,-0.117667 -0.110418,-0.109558 -0.103516,-0.06641 -0.198674,-1.242111 -0.218961,-2.18559 -0.25,-3.007813 -0.03104,-0.822222 0.0069,-1.608912 -0.525391,-2.488281 -0.532304,-0.879368 -1.555943,-1.30553 -2.58789,-1.464844 C 13.745788,30.020374 12.46689,30 10.6,30 v 3 c 1.833107,0 3.055074,0.04207 3.71875,0.144531 0.663677,0.102459 0.530274,0.136966 0.480469,0.05469 -0.04981,-0.08228 0.06416,0.263144 0.09375,1.046875 0.02959,0.783731 0.05578,1.920937 0.28711,3.367187 0.138138,0.863643 0.677202,1.546181 1.248046,1.980469 0.570845,0.434288 1.19623,0.695786 1.833985,0.892578 C 19.537619,40.879913 20.882659,41 21.935938,41 h 11.0625 c 1.474476,0 2.876209,-0.630714 4.003906,-1.642578 1.127697,-1.011864 1.998047,-2.496874 1.998047,-4.244141 V 21 Z"
     style="color:#000000;opacity:0.3;fill:#000000;-inkscape-stroke:none"
     id="path793"
     sodipodi:nodetypes="csssssscscsccsssssssssscc" />
  <path
     d="m 9,27.999 c -1.657043,0 -3,1.344911 -3,3.001953 0,1.657044 1.342957,3 3,3 1.657044,0 3,-1.342956 3,-3 C 12,29.343911 10.657044,27.999 9,27.999 Z m 28.5,0.002 c -0.829103,0 -1.5,0.670899 -1.5,1.5 0,0.829101 0.670897,1.5 1.5,1.5 0.829101,0 1.5,-0.670899 1.5,-1.5 0,-0.829101 -0.670899,-1.5 -1.5,-1.5 z m -23,2 c -0.829103,0 -1.5,0.670899 -1.5,1.5 0,0.829101 0.670897,1.5 1.5,1.5 0.829101,0 1.5,-0.670899 1.5,-1.5 0,-0.829101 -0.670899,-1.5 -1.5,-1.5 z m 23,4 c -0.829103,0 -1.5,0.670899 -1.5,1.5 0,0.829101 0.670897,1.5 1.5,1.5 0.829101,0 1.5,-0.670899 1.5,-1.5 0,-0.829101 -0.670899,-1.5 -1.5,-1.5 z m -21,1 c -0.829103,0 -1.5,0.670899 -1.5,1.5 0,0.829101 0.670897,1.5 1.5,1.5 0.829101,0 1.5,-0.670899 1.5,-1.5 0,-0.829101 -0.670899,-1.5 -1.5,-1.5 z m 5,3 c -0.829103,0 -1.5,0.670899 -1.5,1.5 0,0.829101 0.670897,1.5 1.5,1.5 0.829101,0 1.5,-0.670899 1.5,-1.5 0,-0.829101 -0.670899,-1.5 -1.5,-1.5 z m 6,0 c -0.829103,0 -1.5,0.670899 -1.5,1.5 0,0.829101 0.670897,1.5 1.5,1.5 0.829101,0 1.5,-0.670899 1.5,-1.5 0,-0.829101 -0.670899,-1.5 -1.5,-1.5 z m 6,0 c -0.829103,0 -1.5,0.670899 -1.5,1.5 0,0.829101 0.670897,1.5 1.5,1.5 0.829101,0 1.5,-0.670899 1.5,-1.5 0,-0.829101 -0.670899,-1.5 -1.5,-1.5 z"
     style="fill:#ffffff"
     id="path823" />
  <rect
     style="fill:#3a325a;fill-opacity:1"
     id="rect675"
     width="26"
     height="22"
     x="19"
     y="3"
     ry="3" />
  <path
     d="m 26.5,8.0000003 3.998779,11.7547857 2.609009,-2.188895 1.695923,1.992895 c 0.441772,0.519599 1.231324,0.590633 1.761719,0.157852 0.529052,-0.434095 0.601562,-1.204944 0.159788,-1.724543 L 35.006469,15.971575 37.5,13.877393 Z"
     style="fill:#ffffff"
     id="path3196" />
</svg>
