<?xml version="1.0" encoding="UTF-8" standalone="no"?>
<!-- Created with Inkscape (http://www.inkscape.org/) -->

<svg
   width="48"
   height="48"
   viewBox="0 0 48 48.000003"
   version="1.1"
   id="svg1"
   inkscape:version="1.4.2 (ebf0e940d0, 2025-05-08)"
   sodipodi:docname="plasmadiscover.svg"
   xmlns:inkscape="http://www.inkscape.org/namespaces/inkscape"
   xmlns:sodipodi="http://sodipodi.sourceforge.net/DTD/sodipodi-0.dtd"
   xmlns:xlink="http://www.w3.org/1999/xlink"
   xmlns="http://www.w3.org/2000/svg"
   xmlns:svg="http://www.w3.org/2000/svg">
  <sodipodi:namedview
     id="namedview1"
     pagecolor="#ffffff"
     bordercolor="#000000"
     borderopacity="0.25"
     inkscape:showpageshadow="2"
     inkscape:pageopacity="0.0"
     inkscape:pagecheckerboard="0"
     inkscape:deskcolor="#d1d1d1"
     inkscape:document-units="px"
     inkscape:zoom="16.833333"
     inkscape:cx="23.970298"
     inkscape:cy="23.970298"
     inkscape:window-width="1920"
     inkscape:window-height="1010"
     inkscape:window-x="0"
     inkscape:window-y="0"
     inkscape:window-maximized="1"
     inkscape:current-layer="svg1" />
  <defs
     id="defs1">
    <linearGradient
       inkscape:collect="always"
       xlink:href="#linearGradient928"
       id="linearGradient4"
       x1="16"
       y1="30"
       x2="16"
       y2="2"
       gradientUnits="userSpaceOnUse"
       gradientTransform="scale(1.5)" />
    <linearGradient
       inkscape:collect="always"
       id="linearGradient928">
      <stop
         style="stop-color:#197cf1;stop-opacity:1;"
         offset="0"
         id="stop924" />
      <stop
         style="stop-color:#20bcfa;stop-opacity:1;"
         offset="1"
         id="stop926" />
    </linearGradient>
  </defs>
  <rect
     style="opacity:0.2;fill:#000000;stroke-width:2.625"
     id="rect1"
     width="42"
     height="42"
     x="3"
     y="4"
     ry="9" />
  <rect
     style="fill:url(#linearGradient4);stroke-width:1.5"
     id="rect2"
     width="42"
     height="42"
     x="3"
     y="3"
     ry="9" />
  <path
     style="color:#000000;fill:#ececec;fill-opacity:1;stroke:none;stroke-width:2;stroke-linecap:round;stroke-linejoin:round"
     d="m 24,16 c -4.406428,0 -8,-3.593571 -8,-8 a 1,1 0 0 1 1,-1 1,1 0 0 1 1,1 c 0,3.32555 2.67445,6 6,6 3.32555,0 6,-2.67445 6,-6 a 1,1 0 0 1 1,-1 1,1 0 0 1 1,1 c 0,4.406429 -3.593572,8 -8,8 z"
     id="path6954" />
  <path
     id="path360"
     style="fill:#ffffff;stroke-width:1"
     d="m 19,20 c -0.830999,0 -1.5,0.669001 -1.5,1.5 0,0.830999 0.669001,1.5 1.5,1.5 0.830999,0 1.5,-0.669001 1.5,-1.5 C 20.5,20.669001 19.830999,20 19,20 Z M 26.857422,20 24,22.799805 28.286133,27 24,31.200195 26.857422,34 34,27 Z M 15.75,28 C 14.780508,28 14,28.780494 14,29.75 c 0,0.969492 0.780508,1.75 1.75,1.75 0.969506,0 1.75,-0.780508 1.75,-1.75 C 17.5,28.780494 16.719506,28 15.75,28 Z m 5.75,7 C 20.115002,35 19,36.115001 19,37.5 19,38.884999 20.115002,40 21.5,40 22.884999,40 24,38.884999 24,37.5 24,36.115001 22.884999,35 21.5,35 Z" />
</svg>
