<?xml version="1.0" encoding="UTF-8" standalone="no"?>
<!-- Created with Inkscape (http://www.inkscape.org/) -->

<svg
   width="48"
   height="48"
   viewBox="0 0 48 48.000003"
   version="1.1"
   id="svg1"
   inkscape:version="1.4.2 (ebf0e940d0, 2025-05-08)"
   sodipodi:docname="preferences-desktop.svg"
   xmlns:inkscape="http://www.inkscape.org/namespaces/inkscape"
   xmlns:sodipodi="http://sodipodi.sourceforge.net/DTD/sodipodi-0.dtd"
   xmlns:xlink="http://www.w3.org/1999/xlink"
   xmlns="http://www.w3.org/2000/svg"
   xmlns:svg="http://www.w3.org/2000/svg">
  <sodipodi:namedview
     id="namedview1"
     pagecolor="#ffffff"
     bordercolor="#000000"
     borderopacity="0.25"
     inkscape:showpageshadow="2"
     inkscape:pageopacity="0.0"
     inkscape:pagecheckerboard="0"
     inkscape:deskcolor="#d1d1d1"
     inkscape:document-units="px"
     inkscape:zoom="16.375"
     inkscape:cx="23.969466"
     inkscape:cy="24"
     inkscape:window-width="1920"
     inkscape:window-height="1011"
     inkscape:window-x="0"
     inkscape:window-y="0"
     inkscape:window-maximized="1"
     inkscape:current-layer="svg1" />
  <defs
     id="defs1">
    <linearGradient
       inkscape:collect="always"
       id="linearGradient1606">
      <stop
         style="stop-color:#eaebed;stop-opacity:1;"
         offset="0"
         id="stop1602" />
      <stop
         style="stop-color:#f9fafa;stop-opacity:1;"
         offset="1"
         id="stop1604" />
    </linearGradient>
    <linearGradient
       inkscape:collect="always"
       xlink:href="#linearGradient1606"
       id="linearGradient4"
       x1="16"
       y1="30"
       x2="16"
       y2="2"
       gradientUnits="userSpaceOnUse"
       gradientTransform="scale(1.5)" />
    <linearGradient
       inkscape:collect="always"
       xlink:href="#linearGradient3147"
       id="linearGradient4-7"
       x1="10"
       y1="19.5"
       x2="10"
       y2="-1.5"
       gradientUnits="userSpaceOnUse"
       gradientTransform="matrix(2,0,0,2,4,6)" />
    <linearGradient
       inkscape:collect="always"
       id="linearGradient3147">
      <stop
         style="stop-color:#0091f9;stop-opacity:1;"
         offset="0"
         id="stop3143" />
      <stop
         style="stop-color:#41bbff;stop-opacity:1;"
         offset="1"
         id="stop3145" />
    </linearGradient>
  </defs>
  <rect
     style="opacity:0.2;fill:#000000;stroke-width:2.625"
     id="rect1"
     width="42"
     height="42"
     x="3"
     y="4"
     ry="9" />
  <rect
     style="fill:url(#linearGradient4);stroke-width:1.5"
     id="rect2"
     width="42"
     height="42"
     x="3"
     y="3"
     ry="9" />
  <rect
     style="fill:url(#linearGradient4-7);stroke-width:2"
     id="rect3"
     width="28"
     height="4"
     x="10"
     y="14"
     ry="2" />
  <rect
     style="opacity:0.4;fill:#000000;stroke-width:2"
     id="rect4"
     width="28"
     height="4"
     x="10"
     y="30"
     ry="2" />
  <path
     id="path1"
     style="opacity:0.15;fill:#000000;stroke-width:1.66667"
     d="M 34 11 C 31.238577 11 29 13.238577 29 16 C 29 18.761423 31.238577 21 34 21 C 36.761423 21 39 18.761423 39 16 C 39 13.238577 36.761423 11 34 11 z M 14 27 C 11.238577 27 9 29.238577 9 32 C 9 34.761423 11.238577 37 14 37 C 16.761423 37 19 34.761423 19 32 C 19 29.238577 16.761423 27 14 27 z " />
  <path
     id="path2"
     style="fill:#f9f9f9;fill-opacity:1;stroke-width:8;stroke-linecap:round;stroke-linejoin:round"
     d="m 34,12 c -2.20914,0 -4,1.790862 -4,4 0,2.20914 1.79086,4 4,4 2.209138,0 4,-1.79086 4,-4 0,-2.209138 -1.790862,-4 -4,-4 z M 14,28 c -2.209138,0 -4,1.79086 -4,4 0,2.209138 1.790862,4 4,4 2.209138,0 4,-1.790862 4,-4 0,-2.20914 -1.790862,-4 -4,-4 z" />
</svg>
