<?xml version="1.0" encoding="UTF-8" standalone="no"?>
<!-- Created with Inkscape (http://www.inkscape.org/) -->

<svg
   width="48"
   height="48"
   viewBox="0 0 48 48.000004"
   version="1.1"
   id="svg1"
   inkscape:version="1.4.2 (ebf0e940d0, 2025-05-08)"
   sodipodi:docname="preferences-desktop-keyboard.svg"
   xmlns:inkscape="http://www.inkscape.org/namespaces/inkscape"
   xmlns:sodipodi="http://sodipodi.sourceforge.net/DTD/sodipodi-0.dtd"
   xmlns:xlink="http://www.w3.org/1999/xlink"
   xmlns="http://www.w3.org/2000/svg"
   xmlns:svg="http://www.w3.org/2000/svg">
  <sodipodi:namedview
     id="namedview1"
     pagecolor="#ffffff"
     bordercolor="#000000"
     borderopacity="0.25"
     inkscape:showpageshadow="2"
     inkscape:pageopacity="0.0"
     inkscape:pagecheckerboard="0"
     inkscape:deskcolor="#d1d1d1"
     inkscape:document-units="px"
     inkscape:zoom="16.375"
     inkscape:cx="24.030534"
     inkscape:cy="24.030534"
     inkscape:window-width="1920"
     inkscape:window-height="1010"
     inkscape:window-x="0"
     inkscape:window-y="0"
     inkscape:window-maximized="1"
     inkscape:current-layer="svg1" />
  <defs
     id="defs1">
    <linearGradient
       inkscape:collect="always"
       xlink:href="#linearGradient22024"
       id="linearGradient4"
       x1="16"
       y1="30"
       x2="16"
       y2="2"
       gradientUnits="userSpaceOnUse"
       gradientTransform="scale(1.5)" />
    <linearGradient
       inkscape:collect="always"
       id="linearGradient22024">
      <stop
         style="stop-color:#cdcdcd;stop-opacity:1;"
         offset="0"
         id="stop22020" />
      <stop
         style="stop-color:#eff0f1;stop-opacity:1;"
         offset="1"
         id="stop22022" />
    </linearGradient>
  </defs>
  <rect
     style="opacity:0.2;fill:#000000;stroke-width:3.675"
     id="rect1"
     width="42"
     height="42"
     x="3"
     y="4"
     ry="9" />
  <rect
     style="fill:url(#linearGradient4);stroke-width:1.5"
     id="rect2"
     width="42"
     height="42"
     x="3"
     y="3"
     ry="9" />
  <path
     id="path1728"
     style="fill:#a1a1a1;fill-opacity:1;stroke-width:1;stroke-linecap:round;stroke-linejoin:round"
     d="M 10 13 C 9.446 13 9 13.446 9 14 L 9 18 C 9 18.553999 9.446 19 10 19 L 14 19 C 14.553999 19 15 18.553999 15 18 L 15 14 C 15 13.446 14.553999 13 14 13 L 10 13 z M 18 13 C 17.446001 13 17 13.446 17 14 L 17 18 C 17 18.553999 17.446001 19 18 19 L 22 19 C 22.554 19 23 18.553999 23 18 L 23 14 C 23 13.446 22.554 13 22 13 L 18 13 z M 26 13 C 25.446 13 25 13.446 25 14 L 25 18 C 25 18.553999 25.446 19 26 19 L 30 19 C 30.553999 19 31 18.553999 31 18 L 31 14 C 31 13.446 30.553999 13 30 13 L 26 13 z M 34 13 C 33.446 13 33 13.446 33 14 L 33 18 C 33 18.553999 33.446 19 34 19 L 38 19 C 38.553999 19 39 18.553999 39 18 L 39 14 C 39 13.446 38.553999 13 38 13 L 34 13 z M 10 21 C 9.446 21 9 21.446 9 22 L 9 26 C 9 26.553999 9.446 27 10 27 L 14 27 C 14.553999 27 15 26.553999 15 26 L 15 22 C 15 21.446 14.553999 21 14 21 L 10 21 z M 18 21 C 17.446001 21 17 21.446 17 22 L 17 26 C 17 26.553999 17.446001 27 18 27 L 22 27 C 22.554 27 23 26.553999 23 26 L 23 22 C 23 21.446 22.554 21 22 21 L 18 21 z M 26 21 C 25.446 21 25 21.446 25 22 L 25 26 C 25 26.553999 25.446 27 26 27 L 30 27 C 30.553999 27 31 26.553999 31 26 L 31 22 C 31 21.446 30.553999 21 30 21 L 26 21 z M 34 21 C 33.446 21 33 21.446 33 22 L 33 26 C 33 26.553999 33.446 27 34 27 L 38 27 C 38.553999 27 39 26.553999 39 26 L 39 22 C 39 21.446 38.553999 21 38 21 L 34 21 z M 14 29 C 13.446 29 13 29.446 13 30 L 13 34 C 13 34.553999 13.446 35 14 35 L 34 35 C 34.553999 35 35 34.553999 35 34 L 35 30 C 35 29.446 34.553999 29 34 29 L 14 29 z " />
</svg>
