<?xml version="1.0" encoding="UTF-8" standalone="no"?>
<!-- Created with Inkscape (http://www.inkscape.org/) -->

<svg
   width="48"
   height="48"
   viewBox="0 0 48 48.000003"
   version="1.1"
   id="svg1"
   inkscape:version="1.4.2 (ebf0e940d0, 2025-05-08)"
   sodipodi:docname="preferences-system-login.svg"
   xmlns:inkscape="http://www.inkscape.org/namespaces/inkscape"
   xmlns:sodipodi="http://sodipodi.sourceforge.net/DTD/sodipodi-0.dtd"
   xmlns:xlink="http://www.w3.org/1999/xlink"
   xmlns="http://www.w3.org/2000/svg"
   xmlns:svg="http://www.w3.org/2000/svg">
  <sodipodi:namedview
     id="namedview1"
     pagecolor="#ffffff"
     bordercolor="#000000"
     borderopacity="0.25"
     inkscape:showpageshadow="2"
     inkscape:pageopacity="0.0"
     inkscape:pagecheckerboard="0"
     inkscape:deskcolor="#d1d1d1"
     inkscape:document-units="px"
     inkscape:zoom="16.583333"
     inkscape:cx="23.969849"
     inkscape:cy="24"
     inkscape:window-width="1920"
     inkscape:window-height="1011"
     inkscape:window-x="0"
     inkscape:window-y="0"
     inkscape:window-maximized="1"
     inkscape:current-layer="svg1" />
  <defs
     id="defs1">
    <linearGradient
       inkscape:collect="always"
       xlink:href="#linearGradient3147"
       id="linearGradient4"
       x1="16"
       y1="30"
       x2="16"
       y2="2"
       gradientUnits="userSpaceOnUse"
       gradientTransform="scale(1.5)" />
    <linearGradient
       inkscape:collect="always"
       id="linearGradient3147">
      <stop
         style="stop-color:#0091f9;stop-opacity:1;"
         offset="0"
         id="stop3143" />
      <stop
         style="stop-color:#41bbff;stop-opacity:1;"
         offset="1"
         id="stop3145" />
    </linearGradient>
  </defs>
  <rect
     style="opacity:0.2;fill:#000000;stroke-width:2.625"
     id="rect1"
     width="42"
     height="42"
     x="3"
     y="4"
     ry="9" />
  <rect
     style="fill:url(#linearGradient4);stroke-width:1.5"
     id="rect2"
     width="42"
     height="42"
     x="3"
     y="3"
     ry="9" />
  <rect
     style="opacity:0.6;fill:#ffffff;fill-opacity:1;stroke-width:6;stroke-linecap:round;stroke-linejoin:round"
     id="rect4572"
     width="34"
     height="24"
     x="7"
     y="12"
     ry="4" />
  <rect
     style="fill:#ffffff;stroke-width:5.80947;stroke-linecap:round;stroke-linejoin:round"
     id="rect2768"
     width="28"
     height="7"
     x="10"
     y="21"
     ry="2" />
  <rect
     style="fill:#ffffff;stroke-width:3.87299;stroke-linecap:round;stroke-linejoin:round"
     id="rect2770"
     width="15"
     height="1"
     x="10"
     y="16" />
  <path
     id="path3639"
     style="fill:#4d4d4d;fill-opacity:1;stroke-width:1.5;stroke-linecap:round;stroke-linejoin:round"
     d="M 13.5,23 A 1.5,1.5 0 0 0 12,24.5 1.5,1.5 0 0 0 13.5,26 1.5,1.5 0 0 0 15,24.5 1.5,1.5 0 0 0 13.5,23 Z m 5,0 A 1.5,1.5 0 0 0 17,24.5 1.5,1.5 0 0 0 18.5,26 1.5,1.5 0 0 0 20,24.5 1.5,1.5 0 0 0 18.5,23 Z m 5,0 A 1.5,1.5 0 0 0 22,24.5 1.5,1.5 0 0 0 23.5,26 1.5,1.5 0 0 0 25,24.5 1.5,1.5 0 0 0 23.5,23 Z m 5,0 C 27.671574,23 27,23.671574 27,24.5 27,25.328426 27.671574,26 28.5,26 29.328426,26 30,25.328426 30,24.5 30,23.671574 29.328426,23 28.5,23 Z m 5,0 C 32.671574,23 32,23.671574 32,24.5 32,25.328426 32.671574,26 33.5,26 34.328426,26 35,25.328426 35,24.5 35,23.671574 34.328426,23 33.5,23 Z" />
</svg>
