<?xml version="1.0" encoding="UTF-8" standalone="no"?>
<!-- Created with Inkscape (http://www.inkscape.org/) -->

<svg
   width="48"
   height="48"
   viewBox="0 0 48 48.000003"
   version="1.1"
   id="svg1"
   inkscape:version="1.4.2 (ebf0e940d0, 2025-05-08)"
   sodipodi:docname="preferences-plugin.svg"
   xmlns:inkscape="http://www.inkscape.org/namespaces/inkscape"
   xmlns:sodipodi="http://sodipodi.sourceforge.net/DTD/sodipodi-0.dtd"
   xmlns:xlink="http://www.w3.org/1999/xlink"
   xmlns="http://www.w3.org/2000/svg"
   xmlns:svg="http://www.w3.org/2000/svg">
  <sodipodi:namedview
     id="namedview1"
     pagecolor="#ffffff"
     bordercolor="#000000"
     borderopacity="0.25"
     inkscape:showpageshadow="2"
     inkscape:pageopacity="0.0"
     inkscape:pagecheckerboard="0"
     inkscape:deskcolor="#d1d1d1"
     inkscape:document-units="px"
     inkscape:zoom="16.583333"
     inkscape:cx="23.969849"
     inkscape:cy="24"
     inkscape:window-width="1920"
     inkscape:window-height="1011"
     inkscape:window-x="0"
     inkscape:window-y="0"
     inkscape:window-maximized="1"
     inkscape:current-layer="svg1" />
  <defs
     id="defs1">
    <linearGradient
       inkscape:collect="always"
       xlink:href="#linearGradient3147"
       id="linearGradient4"
       x1="16"
       y1="30"
       x2="16"
       y2="2"
       gradientUnits="userSpaceOnUse"
       gradientTransform="scale(1.5)" />
    <linearGradient
       inkscape:collect="always"
       id="linearGradient3147">
      <stop
         style="stop-color:#0091f9;stop-opacity:1;"
         offset="0"
         id="stop3143" />
      <stop
         style="stop-color:#41bbff;stop-opacity:1;"
         offset="1"
         id="stop3145" />
    </linearGradient>
  </defs>
  <rect
     style="opacity:0.2;fill:#000000;stroke-width:2.625"
     id="rect1"
     width="42"
     height="42"
     x="3"
     y="4"
     ry="9" />
  <rect
     style="fill:url(#linearGradient4);stroke-width:1.5"
     id="rect2"
     width="42"
     height="42"
     x="3"
     y="3"
     ry="9" />
  <path
     d="m 23,8 c -2.215998,0 -4,1.784003 -4,4.000001 v 2 H 14.691407 C 12.645809,14.000001 11,15.645869 11,17.691406 V 22 h 2.000001 c 2.215996,0 4,1.784005 4,4 0,2.215997 -1.784004,4 -4,4 H 11 v 4.308594 C 11,36.354192 12.645869,38 14.691407,38 H 19 v -2 c 0,-2.215995 1.784003,-4 4,-4 2.215996,0 4,1.784005 4,4 v 2 h 4.308593 C 33.354191,38 35,36.354132 35,34.308594 V 30 h 2 c 2.215995,0 4,-1.784002 4,-4 0,-2.215998 -1.784005,-4 -4,-4 h -2 v -4.308594 c 0,-2.045598 -1.645866,-3.691405 -3.691407,-3.691405 H 27 v -2 C 27,9.784003 25.215997,8 23,8 Z"
     style="fill:#ffffff;fill-opacity:1;stroke-width:2"
     id="path3401"
     sodipodi:nodetypes="sscsscssscsscssscsscssscsscss" />
</svg>
