<?xml version="1.0" encoding="UTF-8" standalone="no"?>
<!-- Created with Inkscape (http://www.inkscape.org/) -->

<svg
   width="48"
   height="48"
   viewBox="0 0 48 48.000004"
   version="1.1"
   id="svg1"
   inkscape:version="1.4.2 (ebf0e940d0, 2025-05-08)"
   sodipodi:docname="preferences-desktop-keyboard-shortcuts.svg"
   xmlns:inkscape="http://www.inkscape.org/namespaces/inkscape"
   xmlns:sodipodi="http://sodipodi.sourceforge.net/DTD/sodipodi-0.dtd"
   xmlns:xlink="http://www.w3.org/1999/xlink"
   xmlns="http://www.w3.org/2000/svg"
   xmlns:svg="http://www.w3.org/2000/svg">
  <sodipodi:namedview
     id="namedview1"
     pagecolor="#ffffff"
     bordercolor="#000000"
     borderopacity="0.25"
     inkscape:showpageshadow="2"
     inkscape:pageopacity="0.0"
     inkscape:pagecheckerboard="0"
     inkscape:deskcolor="#d1d1d1"
     inkscape:document-units="px"
     inkscape:zoom="16.375"
     inkscape:cx="24.030534"
     inkscape:cy="24.030534"
     inkscape:window-width="1920"
     inkscape:window-height="1010"
     inkscape:window-x="0"
     inkscape:window-y="0"
     inkscape:window-maximized="1"
     inkscape:current-layer="svg1" />
  <defs
     id="defs1">
    <linearGradient
       inkscape:collect="always"
       xlink:href="#linearGradient22024"
       id="linearGradient4"
       x1="16"
       y1="30"
       x2="16"
       y2="2"
       gradientUnits="userSpaceOnUse"
       gradientTransform="scale(1.5)" />
    <linearGradient
       inkscape:collect="always"
       id="linearGradient22024">
      <stop
         style="stop-color:#cdcdcd;stop-opacity:1;"
         offset="0"
         id="stop22020" />
      <stop
         style="stop-color:#eff0f1;stop-opacity:1;"
         offset="1"
         id="stop22022" />
    </linearGradient>
  </defs>
  <rect
     style="opacity:0.2;fill:#000000;stroke-width:3.675"
     id="rect1"
     width="42"
     height="42"
     x="3"
     y="4"
     ry="9" />
  <rect
     style="fill:url(#linearGradient4);stroke-width:1.5"
     id="rect2"
     width="42"
     height="42"
     x="3"
     y="3"
     ry="9" />
  <path
     d="m 10,13 c -0.554,0 -1,0.446 -1,1 v 4 c 0,0.553999 0.446,1 1,1 h 4 c 0.553999,0 1,-0.446001 1,-1 v -4 c 0,-0.554 -0.446001,-1 -1,-1 z m 8,0 c -0.553999,0 -1,0.446 -1,1 v 4 c 0,0.553999 0.446001,1 1,1 h 4 c 0.554,0 1,-0.446001 1,-1 v -4 c 0,-0.554 -0.446,-1 -1,-1 z m 8,0 c -0.554,0 -1,0.446 -1,1 v 4 c 0,0.553999 0.446,1 1,1 h 4 c 0.553999,0 1,-0.446001 1,-1 v -4 c 0,-0.554 -0.446001,-1 -1,-1 z m -16,8 c -0.554,0 -1,0.446 -1,1 v 4 c 0,0.553999 0.446,1 1,1 h 4 c 0.553999,0 1,-0.446001 1,-1 v -4 c 0,-0.554 -0.446001,-1 -1,-1 z m 8,0 c -0.553999,0 -1,0.446 -1,1 v 4 c 0,0.553999 0.446001,1 1,1 h 4 c 0.554,0 1,-0.446001 1,-1 v -4 c 0,-0.554 -0.446,-1 -1,-1 z m 16,0 c -0.554,0 -1,0.446 -1,1 v 4 c 0,0.553999 0.446,1 1,1 h 4 c 0.553999,0 1,-0.446001 1,-1 v -4 c 0,-0.554 -0.446001,-1 -1,-1 z m -20,8 c -0.554,0 -1,0.446 -1,1 v 4 c 0,0.553999 0.446,1 1,1 h 20 c 0.553999,0 1,-0.446001 1,-1 v -4 c 0,-0.554 -0.446001,-1 -1,-1 z"
     style="fill:#a1a1a1;fill-opacity:1;stroke-width:1;stroke-linecap:round;stroke-linejoin:round"
     id="path1728"
     sodipodi:nodetypes="sssssssssssssssssssssssssssssssssssssssssssssssssssssssssssssss" />
  <path
     d="m 34,13 c -0.554,0 -1,0.446 -1,1 v 4 c 0,0.553999 0.446,1 1,1 h 4 c 0.553999,0 1,-0.446001 1,-1 v -4 c 0,-0.554 -0.446001,-1 -1,-1 z m -8,8 c -0.554,0 -1,0.446 -1,1 v 4 c 0,0.553999 0.446,1 1,1 h 4 c 0.553999,0 1,-0.446001 1,-1 v -4 c 0,-0.554 -0.446001,-1 -1,-1 z"
     style="fill:#d98d49;fill-opacity:1;stroke-width:1;stroke-linecap:round;stroke-linejoin:round"
     id="path29089" />
</svg>
