<?xml version="1.0" encoding="UTF-8" standalone="no"?>
<!-- Created with Inkscape (http://www.inkscape.org/) -->

<svg
   width="48"
   height="48"
   viewBox="0 0 48 48.000003"
   version="1.1"
   id="svg1"
   inkscape:version="1.4.2 (ebf0e940d0, 2025-05-08)"
   sodipodi:docname="software-properties.svg"
   xmlns:inkscape="http://www.inkscape.org/namespaces/inkscape"
   xmlns:sodipodi="http://sodipodi.sourceforge.net/DTD/sodipodi-0.dtd"
   xmlns:xlink="http://www.w3.org/1999/xlink"
   xmlns="http://www.w3.org/2000/svg"
   xmlns:svg="http://www.w3.org/2000/svg">
  <sodipodi:namedview
     id="namedview1"
     pagecolor="#ffffff"
     bordercolor="#000000"
     borderopacity="0.25"
     inkscape:showpageshadow="2"
     inkscape:pageopacity="0.0"
     inkscape:pagecheckerboard="0"
     inkscape:deskcolor="#d1d1d1"
     inkscape:document-units="px"
     inkscape:zoom="16.5625"
     inkscape:cx="24"
     inkscape:cy="24"
     inkscape:window-width="1920"
     inkscape:window-height="1010"
     inkscape:window-x="0"
     inkscape:window-y="0"
     inkscape:window-maximized="1"
     inkscape:current-layer="svg1" />
  <defs
     id="defs1">
    <linearGradient
       inkscape:collect="always"
       xlink:href="#linearGradient29166"
       id="linearGradient4"
       x1="16"
       y1="30"
       x2="16"
       y2="2"
       gradientUnits="userSpaceOnUse"
       gradientTransform="scale(1.5)" />
    <linearGradient
       inkscape:collect="always"
       xlink:href="#linearGradient29166"
       id="linearGradient27618"
       x1="8"
       y1="19"
       x2="8"
       y2="-2"
       gradientUnits="userSpaceOnUse"
       gradientTransform="matrix(2,0,0,2,8,7)" />
    <linearGradient
       inkscape:collect="always"
       id="linearGradient29166">
      <stop
         style="stop-color:#49525d;stop-opacity:1;"
         offset="0"
         id="stop29162" />
      <stop
         style="stop-color:#6a7a85;stop-opacity:1;"
         offset="1"
         id="stop29164" />
    </linearGradient>
  </defs>
  <rect
     style="opacity:0.2;fill:#000000;stroke-width:2.625"
     id="rect1"
     width="42"
     height="42"
     x="3"
     y="4"
     ry="9" />
  <rect
     style="fill:url(#linearGradient4);stroke-width:1.5"
     id="rect2"
     width="42"
     height="42"
     x="3"
     y="3"
     ry="9" />
  <path
     id="path285"
     style="fill:#ffffff;stroke-width:2.4;stroke-linecap:round;stroke-linejoin:round"
     d="M 24 12 C 17.372596 12 12 17.372596 12 24 C 12 30.627403 17.372596 36 24 36 C 30.627403 36 36 30.627403 36 24 C 36 17.372596 30.627403 12 24 12 z " />
  <path
     id="rect26374"
     style="fill:url(#linearGradient27618);fill-opacity:1;stroke-width:4;stroke-linecap:round;stroke-linejoin:round"
     d="m 22,17 v 8 h -4 l 6,6 6,-6 h -4 v -8 z"
     sodipodi:nodetypes="cccccccc" />
  <path
     id="rect1-2"
     style="opacity:0.5;fill:#f9f9f9;stroke-width:1.5"
     d="m 28.928457,8.1819625 c -0.767744,-0.3180099 -1.471626,0.5586018 -1.87908,1.2828553 l -1.480973,2.6337382 c 1.016354,0.134571 2.031642,0.403926 3.023796,0.81489 0.992156,0.410964 1.900535,0.938418 2.714361,1.561932 l 0.815131,-2.909539 c 0.22401,-0.800238 0.346148,-1.9178162 -0.421596,-2.2358261 z m -9.163379,0.012855 C 19.544764,8.102035 19.311988,8.084269 19.072069,8.1836425 L 16.300726,9.3315702 C 15.532981,9.6495796 15.655009,10.76667 15.879019,11.566907 l 0.813786,2.911991 c 1.670274,-1.279152 3.656166,-2.101735 5.741732,-2.378293 L 20.950882,9.4660824 C 20.670759,8.9681585 20.249767,8.3989449 19.765079,8.1948227 Z m 18.405413,7.6237715 c -0.487064,-0.198392 -1.187246,-0.09358 -1.737408,0.06042 l -2.911991,0.813786 c 1.279161,1.670274 2.101745,3.656166 2.378304,5.741733 l 2.634521,-1.483656 c 0.724252,-0.407454 1.600441,-1.11107 1.282431,-1.878813 l -1.147929,-2.771343 c -0.09938,-0.239919 -0.276537,-0.391955 -0.497928,-0.482133 z m -23.695113,0.874845 -2.909539,-0.81513 C 10.765602,15.654294 9.6480228,15.532155 9.3300129,16.2999 l -1.1480504,2.771638 c -0.3180099,0.767744 0.5586051,1.471622 1.2828553,1.87908 l 2.6337382,1.480977 c 0.134571,-1.016353 0.403926,-2.031642 0.81489,-3.023796 0.410964,-0.992155 0.938418,-1.900534 1.561932,-2.714361 z m 21.426066,8.874967 c -0.134565,1.016353 -0.403926,2.031641 -0.81489,3.023795 -0.410964,0.992155 -0.938418,1.900535 -1.561932,2.714361 l 2.909539,0.81513 c 0.800237,0.22401 1.917816,0.346149 2.235825,-0.421596 l 1.148051,-2.771638 c 0.31801,-0.767744 -0.558602,-1.471626 -1.282854,-1.87908 z m -23.800839,-0.003 -2.6345226,1.483654 c -0.724252,0.407514 -1.6004404,1.111132 -1.28243,1.878875 l 1.1479274,2.771342 c 0.3180095,0.767746 1.4350972,0.645715 2.2353372,0.421706 l 2.911991,-0.813785 c -1.279161,-1.670275 -2.101745,-3.656166 -2.378303,-5.741731 z m 19.206589,7.955629 c -1.670275,1.279161 -3.656166,2.101745 -5.741733,2.378304 l 1.483656,2.634521 c 0.407459,0.724254 1.11107,1.600443 1.878813,1.282431 l 2.771343,-1.147929 c 0.767745,-0.318008 0.645717,-1.435098 0.421706,-2.235336 z m -14.613756,0.0036 -0.81513,2.90954 c -0.22401,0.800236 -0.346149,1.917816 0.421597,2.235824 l 2.771638,1.148051 c 0.767743,0.318011 1.471621,-0.558604 1.87908,-1.282854 l 1.480971,-2.633739 c -1.016352,-0.134565 -2.031641,-0.403926 -3.023795,-0.81489 -0.992155,-0.410964 -1.900534,-0.938418 -2.714361,-1.561932 z" />
</svg>
