<?xml version="1.0" encoding="UTF-8" standalone="no"?>
<!-- Created with Inkscape (http://www.inkscape.org/) -->

<svg
   width="48"
   height="48"
   viewBox="0 0 48 48.000003"
   version="1.1"
   id="svg1"
   inkscape:version="1.4.2 (ebf0e940d0, 2025-05-08)"
   sodipodi:docname="system-error.svg"
   xmlns:inkscape="http://www.inkscape.org/namespaces/inkscape"
   xmlns:sodipodi="http://sodipodi.sourceforge.net/DTD/sodipodi-0.dtd"
   xmlns:xlink="http://www.w3.org/1999/xlink"
   xmlns="http://www.w3.org/2000/svg"
   xmlns:svg="http://www.w3.org/2000/svg">
  <sodipodi:namedview
     id="namedview1"
     pagecolor="#ffffff"
     bordercolor="#000000"
     borderopacity="0.25"
     inkscape:showpageshadow="2"
     inkscape:pageopacity="0.0"
     inkscape:pagecheckerboard="0"
     inkscape:deskcolor="#d1d1d1"
     inkscape:document-units="px"
     inkscape:zoom="16.833333"
     inkscape:cx="23.970298"
     inkscape:cy="23.970298"
     inkscape:window-width="1920"
     inkscape:window-height="1010"
     inkscape:window-x="0"
     inkscape:window-y="0"
     inkscape:window-maximized="1"
     inkscape:current-layer="svg1" />
  <defs
     id="defs1">
    <linearGradient
       inkscape:collect="always"
       xlink:href="#linearGradient5312"
       id="linearGradient4"
       x1="16"
       y1="30"
       x2="16"
       y2="2"
       gradientUnits="userSpaceOnUse"
       gradientTransform="scale(1.5)" />
    <linearGradient
       inkscape:collect="always"
       id="linearGradient5312">
      <stop
         style="stop-color:#da2d2d;stop-opacity:1;"
         offset="0"
         id="stop5308" />
      <stop
         style="stop-color:#ea8900;stop-opacity:1;"
         offset="1"
         id="stop5310" />
    </linearGradient>
  </defs>
  <rect
     style="opacity:0.2;fill:#000000;stroke-width:2.625"
     id="rect1"
     width="42"
     height="42"
     x="3"
     y="4"
     ry="9" />
  <rect
     style="fill:url(#linearGradient4);stroke-width:1.5"
     id="rect2"
     width="42"
     height="42"
     x="3"
     y="3"
     ry="9" />
  <path
     id="rect2661"
     style="fill:#ffffff;stroke-width:1.33333;stroke-linecap:round;stroke-linejoin:round"
     d="m 24,39 c -1.104569,0 -2,-0.895431 -2,-2.000001 0,-1.104569 0.895431,-2 2,-2 1.104569,0 2,0.895431 2,2 C 26,38.104569 25.104569,39 24,39 Z m 0,-8 c -1.107999,0 -2,-0.892001 -2,-2 V 11 c 0,-1.107998 0.892001,-2 2,-2 1.107999,0 2,0.892002 2,2 v 18 c 0,1.107999 -0.892001,2 -2,2 z"
     sodipodi:nodetypes="ssssssssssss" />
</svg>
