<?xml version="1.0" encoding="UTF-8" standalone="no"?>
<!-- Created with Inkscape (http://www.inkscape.org/) -->

<svg
   width="48"
   height="48"
   viewBox="0 0 48 48.000003"
   version="1.1"
   id="svg1"
   inkscape:version="1.4.2 (ebf0e940d0, 2025-05-08)"
   sodipodi:docname="thermal-monitor.svg"
   xmlns:inkscape="http://www.inkscape.org/namespaces/inkscape"
   xmlns:sodipodi="http://sodipodi.sourceforge.net/DTD/sodipodi-0.dtd"
   xmlns:xlink="http://www.w3.org/1999/xlink"
   xmlns="http://www.w3.org/2000/svg"
   xmlns:svg="http://www.w3.org/2000/svg">
  <sodipodi:namedview
     id="namedview1"
     pagecolor="#ffffff"
     bordercolor="#000000"
     borderopacity="0.25"
     inkscape:showpageshadow="2"
     inkscape:pageopacity="0.0"
     inkscape:pagecheckerboard="0"
     inkscape:deskcolor="#d1d1d1"
     inkscape:document-units="px"
     inkscape:zoom="16.833333"
     inkscape:cx="23.970298"
     inkscape:cy="23.970298"
     inkscape:window-width="1920"
     inkscape:window-height="1010"
     inkscape:window-x="0"
     inkscape:window-y="0"
     inkscape:window-maximized="1"
     inkscape:current-layer="svg1" />
  <defs
     id="defs1">
    <linearGradient
       inkscape:collect="always"
       xlink:href="#linearGradient1144"
       id="linearGradient4"
       x1="16"
       y1="30"
       x2="16"
       y2="2"
       gradientUnits="userSpaceOnUse"
       gradientTransform="scale(1.5)" />
    <linearGradient
       inkscape:collect="always"
       id="linearGradient1144">
      <stop
         style="stop-color:#adb2b9;stop-opacity:1;"
         offset="0"
         id="stop1140" />
      <stop
         style="stop-color:#e0e2e4;stop-opacity:1;"
         offset="1"
         id="stop1142" />
    </linearGradient>
  </defs>
  <rect
     style="opacity:0.2;fill:#000000;stroke-width:2.625"
     id="rect1"
     width="42"
     height="42"
     x="3"
     y="4"
     ry="9" />
  <rect
     style="fill:url(#linearGradient4);stroke-width:1.5"
     id="rect2"
     width="42"
     height="42"
     x="3"
     y="3"
     ry="9" />
  <path
     id="path21"
     style="fill:#666666;fill-opacity:1;fill-rule:evenodd"
     d="m 24,10 c -2.215998,0 -4,1.784002 -4,4 v 10 c 0,0.027 0.0068,0.05112 0.0078,0.07813 A 8,8 0 0 0 16,31 a 8,8 0 0 0 8,8 8,8 0 0 0 8,-8 8,8 0 0 0 -4.007812,-6.925781 C 27.993187,24.049219 28,24.025 28,24 V 14 c 0,-2.215998 -1.784002,-4 -4,-4 z m 0,2 c 1.107999,0 2,0.892001 2,2 V 25.351562 A 6,6 0 0 1 30,31 6,6 0 0 1 24,37 6,6 0 0 1 18,31 6,6 0 0 1 22,25.349609 V 14 c 0,-1.107999 0.892001,-2 2,-2 z" />
  <path
     style="fill:#f75f5f"
     d="m 22.0001,19.99987 v 5.3496 c -2.395,0.846 -3.997,3.11 -4,5.65 0,3.3137 2.6863,6 6,6 3.3137,0 6,-2.6863 6,-6 -0.0036,-2.5396 -1.6056,-4.8019 -4,-5.6484 v -5.352 z"
     id="path23" />
</svg>
