<?xml version="1.0" encoding="UTF-8" standalone="no"?>
<!-- Created with Inkscape (http://www.inkscape.org/) -->

<svg
   width="48"
   height="48"
   viewBox="0 0 48 48.000003"
   version="1.1"
   id="svg1"
   inkscape:version="1.4.2 (ebf0e940d0, 2025-05-08)"
   sodipodi:docname="usb-creator.svg"
   xmlns:inkscape="http://www.inkscape.org/namespaces/inkscape"
   xmlns:sodipodi="http://sodipodi.sourceforge.net/DTD/sodipodi-0.dtd"
   xmlns:xlink="http://www.w3.org/1999/xlink"
   xmlns="http://www.w3.org/2000/svg"
   xmlns:svg="http://www.w3.org/2000/svg">
  <sodipodi:namedview
     id="namedview1"
     pagecolor="#ffffff"
     bordercolor="#000000"
     borderopacity="0.25"
     inkscape:showpageshadow="2"
     inkscape:pageopacity="0.0"
     inkscape:pagecheckerboard="0"
     inkscape:deskcolor="#d1d1d1"
     inkscape:document-units="px"
     inkscape:zoom="16.5625"
     inkscape:cx="24"
     inkscape:cy="24"
     inkscape:window-width="1920"
     inkscape:window-height="1010"
     inkscape:window-x="0"
     inkscape:window-y="0"
     inkscape:window-maximized="1"
     inkscape:current-layer="svg1" />
  <defs
     id="defs1">
    <linearGradient
       inkscape:collect="always"
       xlink:href="#linearGradient918"
       id="linearGradient4"
       x1="16"
       y1="30"
       x2="16"
       y2="2"
       gradientUnits="userSpaceOnUse"
       gradientTransform="scale(1.5)" />
    <linearGradient
       inkscape:collect="always"
       id="linearGradient918">
      <stop
         style="stop-color:#828282;stop-opacity:1;"
         offset="0"
         id="stop914" />
      <stop
         style="stop-color:#c3c3c3;stop-opacity:1;"
         offset="1"
         id="stop916" />
    </linearGradient>
  </defs>
  <rect
     style="opacity:0.2;fill:#000000;stroke-width:2.625"
     id="rect1"
     width="42"
     height="42"
     x="3"
     y="4"
     ry="9" />
  <rect
     style="fill:url(#linearGradient4);stroke-width:1.5"
     id="rect2"
     width="42"
     height="42"
     x="3"
     y="3"
     ry="9" />
  <path
     d="m 24,40 c 1.65686,0 3,-1.34315 3,-3 0,-1.3065 -0.83442,-2.4165 -2,-2.82813 V 29.01562 L 30.09375,25.3125 C 30.35145,25.12234 30.50249,24.82026 30.5,24.5 V 22 H 32 v -5 h -5 v 5 h 1.5 v 1.98437 L 25,26.53125 V 15 h 2.5 L 24,9 20.5,15 H 23 V 29.875 L 19.5,27.01562 V 24.78125 C 20.37976,24.39411 21,23.52285 21,22.5 21,21.11929 19.88071,20 18.5,20 17.11929,20 16,21.11929 16,22.5 c 0,1.02285 0.62024,1.89411 1.5,2.28125 V 27.5 c -0.004,0.30125 0.12803,0.58826 0.35938,0.78125 L 23,32.48437 v 1.6875 C 21.83442,34.5835 21,35.6935 21,37 c 0,1.65685 1.34315,3 3,3 z"
     style="color:#bebebe;display:inline;overflow:visible;visibility:visible;fill:#ffffff;fill-opacity:1;fill-rule:nonzero;stroke:none;stroke-width:1;marker:none;enable-background:accumulate"
     id="path5122" />
</svg>
