<?xml version="1.0" encoding="UTF-8" standalone="no"?>
<!-- Created with Inkscape (http://www.inkscape.org/) -->

<svg
   width="48"
   height="48"
   viewBox="0 0 48 48.000003"
   version="1.1"
   id="svg1"
   inkscape:version="1.4.2 (ebf0e940d0, 2025-05-08)"
   sodipodi:docname="yast-sound.svg"
   xmlns:inkscape="http://www.inkscape.org/namespaces/inkscape"
   xmlns:sodipodi="http://sodipodi.sourceforge.net/DTD/sodipodi-0.dtd"
   xmlns:xlink="http://www.w3.org/1999/xlink"
   xmlns="http://www.w3.org/2000/svg"
   xmlns:svg="http://www.w3.org/2000/svg">
  <sodipodi:namedview
     id="namedview1"
     pagecolor="#ffffff"
     bordercolor="#000000"
     borderopacity="0.25"
     inkscape:showpageshadow="2"
     inkscape:pageopacity="0.0"
     inkscape:pagecheckerboard="0"
     inkscape:deskcolor="#d1d1d1"
     inkscape:document-units="px"
     inkscape:zoom="16.583333"
     inkscape:cx="23.969849"
     inkscape:cy="24"
     inkscape:window-width="1920"
     inkscape:window-height="1011"
     inkscape:window-x="0"
     inkscape:window-y="0"
     inkscape:window-maximized="1"
     inkscape:current-layer="svg1"
     showguides="false" />
  <defs
     id="defs1">
    <linearGradient
       inkscape:collect="always"
       xlink:href="#linearGradient1217"
       id="linearGradient4"
       x1="16"
       y1="30"
       x2="16"
       y2="2"
       gradientUnits="userSpaceOnUse"
       gradientTransform="scale(1.5)" />
    <linearGradient
       inkscape:collect="always"
       id="linearGradient1217">
      <stop
         style="stop-color:#96a3ad;stop-opacity:1;"
         offset="0"
         id="stop1213" />
      <stop
         style="stop-color:#c4c8cd;stop-opacity:1;"
         offset="1"
         id="stop1215" />
    </linearGradient>
  </defs>
  <rect
     style="opacity:0.2;fill:#000000;stroke-width:2.625"
     id="rect1"
     width="42"
     height="42"
     x="3"
     y="4"
     ry="9" />
  <rect
     style="fill:url(#linearGradient4);stroke-width:1.5"
     id="rect2"
     width="42"
     height="42"
     x="3"
     y="3"
     ry="9" />
  <path
     d="m 23,13.000036 -7,6 h -4 c -1.107996,0 -2,0.892004 -2,2 v 6 c 0,1.107996 0.892004,2 2,2 h 4 l 7,5.999817 z"
     style="fill:#ffffff;stroke-width:2"
     id="path1" />
  <path
     d="m 31.167968,13.002636 c -0.336308,0.02818 -0.650906,0.226794 -0.8125,0.550782 -0.24549,0.494066 -0.04448,1.093608 0.44922,1.339842 3.642216,1.82111 5.194692,5.438702 5.195312,9.10547 -6.2e-4,3.666768 -1.553096,7.28436 -5.195312,9.105468 -0.493696,0.246234 -0.69471,0.845776 -0.44922,1.339844 0.246234,0.493696 0.845776,0.69471 1.339844,0.44922 4.35776,-2.17888 6.303956,-6.561324 6.304688,-10.894532 -7.32e-4,-4.333208 -1.946928,-8.715652 -6.304688,-10.894532 -0.12352,-0.06138 -0.25328,-0.0936 -0.382812,-0.10156 -0.04858,-0.003 -0.09648,-0.004 -0.14454,0 z m -3.01953,5.007848 c -0.42858,-0.06412 -0.849684,0.15512 -1.04297,0.54297 -0.24549,0.494066 -0.04448,1.093608 0.44922,1.339844 C 29.19691,20.714408 30,22.332104 30,23.998766 c 0,1.666662 -0.80309,3.284358 -2.445312,4.105468 -0.493696,0.246234 -0.69471,0.845776 -0.44922,1.339844 0.246234,0.493696 0.845776,0.69471 1.339844,0.44922 C 30.803078,28.714412 32,26.332092 32,23.998766 c 0,-2.333326 -1.196922,-4.71565 -3.554688,-5.894532 -0.09346,-0.04656 -0.19362,-0.07818 -0.296874,-0.09374 z"
     style="opacity:0.5;fill:#ffffff;stroke-width:2"
     id="path2" />
</svg>
