<?xml version="1.0" encoding="UTF-8" standalone="no"?>
<!-- Created with Inkscape (http://www.inkscape.org/) -->

<svg
   width="48"
   height="48"
   viewBox="0 0 48 48.000004"
   version="1.1"
   id="svg1"
   inkscape:version="1.4 (e7c3feb100, 2024-10-09)"
   sodipodi:docname="youtube.svg"
   xmlns:inkscape="http://www.inkscape.org/namespaces/inkscape"
   xmlns:sodipodi="http://sodipodi.sourceforge.net/DTD/sodipodi-0.dtd"
   xmlns="http://www.w3.org/2000/svg"
   xmlns:svg="http://www.w3.org/2000/svg">
  <sodipodi:namedview
     id="namedview1"
     pagecolor="#ffffff"
     bordercolor="#000000"
     borderopacity="0.25"
     inkscape:showpageshadow="2"
     inkscape:pageopacity="0.0"
     inkscape:pagecheckerboard="0"
     inkscape:deskcolor="#d1d1d1"
     inkscape:document-units="px"
     inkscape:zoom="16.375"
     inkscape:cx="24.030534"
     inkscape:cy="24"
     inkscape:window-width="1920"
     inkscape:window-height="1011"
     inkscape:window-x="0"
     inkscape:window-y="0"
     inkscape:window-maximized="1"
     inkscape:current-layer="svg1" />
  <defs
     id="defs1" />
  <rect
     style="opacity:0.2;fill:#000000;stroke-width:3.675"
     id="rect1"
     width="42"
     height="42"
     x="3"
     y="4"
     ry="9" />
  <rect
     style="fill:#fafafa;stroke-width:1.5;fill-opacity:1"
     id="rect2"
     width="42"
     height="42"
     x="3"
     y="3"
     ry="9" />
  <path
     id="path1633"
     style="fill:#ff0000;fill-opacity:1;stroke-width:0.239337"
     d="m 23.999949,14 c 0,0 -8.475385,0.002 -10.788122,0.590278 C 11.970253,14.91969 10.948694,15.905816 10.60787,17.12934 9.999255,19.364627 10,24 10,24 c 0,0 -7.45e-4,4.66107 0.60787,6.87283 0.340826,1.223523 1.338039,2.185784 2.603957,2.515191 C 15.548907,33.999789 23.999949,34 23.999949,34 c 0,0 8.47328,-0.002 10.786018,-0.590278 1.265921,-0.329413 2.263132,-1.291666 2.603957,-2.515191 0.608616,-2.235289 0.609974,-6.87066 0.609974,-6.87066 0,0 0.02274,-4.659244 -0.609974,-6.894531 C 37.049098,15.905816 36.051888,14.941389 34.785967,14.611979 32.473229,14.000217 23.999949,14 23.999949,14 Z"
     sodipodi:nodetypes="ccccccccccccc" />
  <path
     d="m 20,19 9,5 -9,5 z"
     style="fill:#ffffff;fill-opacity:1;stroke-width:0.277375"
     id="path12122" />
</svg>
