<?xml version="1.0" encoding="UTF-8" standalone="no"?>
<!-- Created with Inkscape (http://www.inkscape.org/) -->

<svg
   width="32"
   height="32"
   viewBox="0 0 32 32.000002"
   version="1.1"
   id="svg1"
   inkscape:version="1.4.2 (ebf0e940d0, 2025-05-08)"
   sodipodi:docname="applications-games.svg"
   xmlns:inkscape="http://www.inkscape.org/namespaces/inkscape"
   xmlns:sodipodi="http://sodipodi.sourceforge.net/DTD/sodipodi-0.dtd"
   xmlns:xlink="http://www.w3.org/1999/xlink"
   xmlns="http://www.w3.org/2000/svg"
   xmlns:svg="http://www.w3.org/2000/svg">
  <sodipodi:namedview
     id="namedview1"
     pagecolor="#ffffff"
     bordercolor="#000000"
     borderopacity="0.25"
     inkscape:showpageshadow="2"
     inkscape:pageopacity="0.0"
     inkscape:pagecheckerboard="0"
     inkscape:deskcolor="#d1d1d1"
     inkscape:document-units="px"
     inkscape:zoom="25.25"
     inkscape:cx="15.980198"
     inkscape:cy="15.960396"
     inkscape:window-width="1920"
     inkscape:window-height="1011"
     inkscape:window-x="0"
     inkscape:window-y="0"
     inkscape:window-maximized="1"
     inkscape:current-layer="svg1" />
  <defs
     id="defs1">
    <linearGradient
       inkscape:collect="always"
       xlink:href="#4852"
       id="linearGradient4"
       x1="16"
       y1="30"
       x2="16"
       y2="2"
       gradientUnits="userSpaceOnUse" />
    <linearGradient
       inkscape:collect="always"
       id="4852">
      <stop
         style="stop-color:#272727;stop-opacity:1;"
         offset="0"
         id="stop14555" />
      <stop
         style="stop-color:#5d5d5d;stop-opacity:1;"
         offset="1"
         id="stop14557" />
    </linearGradient>
    <linearGradient
       inkscape:collect="always"
       xlink:href="#4852"
       id="linearGradient2"
       x1="11"
       y1="18"
       x2="11"
       y2="12"
       gradientUnits="userSpaceOnUse" />
    <linearGradient
       inkscape:collect="always"
       xlink:href="#linearGradient1331"
       id="linearGradient13"
       x1="31.5"
       y1="20"
       x2="31.5"
       y2="17"
       gradientUnits="userSpaceOnUse"
       gradientTransform="matrix(0.66666667,0,0,0.66666667,0,0.6666666)" />
    <linearGradient
       inkscape:collect="always"
       id="linearGradient1331">
      <stop
         style="stop-color:#e4940d;stop-opacity:1;"
         offset="0"
         id="stop1327" />
      <stop
         style="stop-color:#e4ad0d;stop-opacity:1;"
         offset="1"
         id="stop1329" />
    </linearGradient>
    <linearGradient
       inkscape:collect="always"
       xlink:href="#linearGradient1199"
       id="linearGradient9"
       x1="28.5"
       y1="23"
       x2="28.5"
       y2="20"
       gradientUnits="userSpaceOnUse"
       gradientTransform="matrix(0.66666667,0,0,0.66666667,0,0.6666666)" />
    <linearGradient
       inkscape:collect="always"
       id="linearGradient1199">
      <stop
         style="stop-color:#2d7be6;stop-opacity:1;"
         offset="0"
         id="stop1195" />
      <stop
         style="stop-color:#5897ed;stop-opacity:1;"
         offset="1"
         id="stop1197" />
    </linearGradient>
    <linearGradient
       inkscape:collect="always"
       xlink:href="#linearGradient1139"
       id="linearGradient17"
       x1="34.5"
       y1="23"
       x2="34.5"
       y2="20"
       gradientUnits="userSpaceOnUse"
       gradientTransform="matrix(0.66666667,0,0,0.66666667,0,0.6666666)" />
    <linearGradient
       inkscape:collect="always"
       id="linearGradient1139">
      <stop
         style="stop-color:#d43b3b;stop-opacity:1;"
         offset="0"
         id="stop1135" />
      <stop
         style="stop-color:#cb6060;stop-opacity:1;"
         offset="1"
         id="stop1137" />
    </linearGradient>
    <linearGradient
       inkscape:collect="always"
       xlink:href="#linearGradient1339"
       id="linearGradient19"
       x1="31.5"
       y1="26"
       x2="31.5"
       y2="23"
       gradientUnits="userSpaceOnUse"
       gradientTransform="matrix(0.66666667,0,0,0.66666667,0,0.6666666)" />
    <linearGradient
       inkscape:collect="always"
       id="linearGradient1339">
      <stop
         style="stop-color:#6ac326;stop-opacity:1;"
         offset="0"
         id="stop1335" />
      <stop
         style="stop-color:#b0d839;stop-opacity:1;"
         offset="1"
         id="stop1337" />
    </linearGradient>
    <linearGradient
       inkscape:collect="always"
       id="linearGradient1144">
      <stop
         style="stop-color:#adb2b9;stop-opacity:1;"
         offset="0"
         id="stop1140" />
      <stop
         style="stop-color:#e0e2e4;stop-opacity:1;"
         offset="1"
         id="stop1142" />
    </linearGradient>
    <linearGradient
       inkscape:collect="always"
       xlink:href="#linearGradient1144"
       id="linearGradient3"
       x1="16"
       y1="30"
       x2="16"
       y2="2"
       gradientUnits="userSpaceOnUse" />
  </defs>
  <rect
     style="fill:#000000;stroke-width:1.75;opacity:0.2"
     id="rect1"
     width="28"
     height="28"
     x="2"
     y="3"
     ry="6" />
  <rect
     style="fill:url(#linearGradient4)"
     id="rect2"
     width="28"
     height="28"
     x="2"
     y="2"
     ry="6" />
  <path
     id="path375"
     style="fill:url(#linearGradient3);fill-opacity:1;stroke-width:1.85404"
     d="M 10.5,9 C 9.21383,9 8.2105068,9.7268465 7.4570312,11.679688 5.8658773,15.800658 5,18.990679 5,20.923828 c 0,1.486815 0.513479,2.425208 1.6035156,2.976563 0.1277465,0.0648 0.269511,0.09985 0.4121094,0.09961 0.2269995,4.67e-4 0.447531,-0.08405 0.6171875,-0.238281 L 10.482422,21.1875 C 10.993039,20.724362 11.43696,20 12.683594,20 h 6.632812 c 1.246634,0 1.689529,0.724099 2.201172,1.1875 l 2.84961,2.574219 c 0.282921,0.256421 0.690444,0.310066 1.029296,0.138672 C 26.486263,23.349288 27,22.407787 27,20.919922 27,18.987035 26.133353,15.79987 24.542969,11.679688 23.789496,9.7268465 22.785912,9 21.5,9 c -0.601497,0 -1.533993,0.1596724 -2.041016,0.4277344 -2.176222,1.1465526 -4.692144,1.1709696 -6.914062,0 C 12.036102,9.1596754 11.101239,9 10.5,9 Z" />
  <path
     d="m 10.5,12 h 1 c 0.277,0 0.5,0.223 0.5,0.5 V 14 h 1.5 c 0.277,0 0.5,0.223 0.5,0.5 v 1 C 14,15.777 13.777,16 13.5,16 H 12 v 1.5 c 0,0.277 -0.223,0.5 -0.5,0.5 h -1 C 10.223,18 10,17.777 10,17.5 V 16 H 8.5 C 8.2230009,16 8,15.777 8,15.5 v -1 C 8,14.223 8.2230009,14 8.5,14 H 10 V 12.5 C 10,12.223 10.223,12 10.5,12 Z"
     style="fill:url(#linearGradient2);fill-opacity:1;stroke-width:1.85404"
     id="path1" />
  <circle
     style="fill:url(#linearGradient13);stroke-width:1.33333"
     id="path2"
     cx="21"
     cy="13"
     r="1" />
  <circle
     style="fill:url(#linearGradient9);stroke-width:1.33333"
     id="path3"
     cx="19"
     cy="15"
     r="1" />
  <circle
     style="fill:url(#linearGradient17);stroke-width:1.33333"
     id="path4"
     cx="23"
     cy="15"
     r="1" />
  <circle
     style="fill:url(#linearGradient19);stroke-width:1.33333"
     id="path5"
     cx="21"
     cy="17"
     r="1" />
</svg>
