<?xml version="1.0" encoding="UTF-8" standalone="no"?>
<!-- Created with Inkscape (http://www.inkscape.org/) -->

<svg
   width="32"
   height="32"
   viewBox="0 0 32 32.000002"
   version="1.1"
   id="svg1"
   inkscape:version="1.4.2 (ebf0e940d0, 2025-05-08)"
   sodipodi:docname="com.github.maoschanz.drawing.svg"
   xmlns:inkscape="http://www.inkscape.org/namespaces/inkscape"
   xmlns:sodipodi="http://sodipodi.sourceforge.net/DTD/sodipodi-0.dtd"
   xmlns:xlink="http://www.w3.org/1999/xlink"
   xmlns="http://www.w3.org/2000/svg"
   xmlns:svg="http://www.w3.org/2000/svg">
  <sodipodi:namedview
     id="namedview1"
     pagecolor="#ffffff"
     bordercolor="#000000"
     borderopacity="0.25"
     inkscape:showpageshadow="2"
     inkscape:pageopacity="0.0"
     inkscape:pagecheckerboard="0"
     inkscape:deskcolor="#d1d1d1"
     inkscape:document-units="px"
     inkscape:zoom="24.5625"
     inkscape:cx="15.979644"
     inkscape:cy="16"
     inkscape:window-width="1920"
     inkscape:window-height="1011"
     inkscape:window-x="0"
     inkscape:window-y="0"
     inkscape:window-maximized="1"
     inkscape:current-layer="svg1" />
  <defs
     id="defs1">
    <linearGradient
       inkscape:collect="always"
       xlink:href="#4852"
       id="linearGradient4"
       x1="16"
       y1="30"
       x2="16"
       y2="2"
       gradientUnits="userSpaceOnUse" />
    <linearGradient
       inkscape:collect="always"
       id="4852">
      <stop
         style="stop-color:#5d5d5d;stop-opacity:1;"
         offset="0"
         id="stop14555" />
      <stop
         style="stop-color:#272727;stop-opacity:1;"
         offset="1"
         id="stop14557" />
    </linearGradient>
    <linearGradient
       inkscape:collect="always"
       id="linearGradient3028">
      <stop
         style="stop-color:#ef8d7a;stop-opacity:1;"
         offset="0"
         id="stop3024" />
      <stop
         style="stop-color:#e5443f;stop-opacity:1;"
         offset="1"
         id="stop3026" />
    </linearGradient>
    <linearGradient
       inkscape:collect="always"
       xlink:href="#linearGradient3028"
       id="linearGradient3"
       x1="16"
       y1="30"
       x2="16"
       y2="2"
       gradientUnits="userSpaceOnUse" />
  </defs>
  <rect
     style="opacity:0.2;fill:#000000;stroke-width:1.75"
     id="rect1"
     width="28"
     height="28"
     x="2"
     y="3"
     ry="6" />
  <rect
     style="fill:url(#linearGradient4);stroke-width:1"
     id="rect2"
     width="28"
     height="28"
     x="2"
     y="2"
     ry="6" />
  <path
     d="m 4.9962757,12.818922 c -0.3807866,-0.128541 -0.7936482,0.07614 -0.921875,0.457032 -0.128544,0.380786 0.076138,0.793648 0.4570312,0.921874 0.720649,0.244578 0.7714234,0.4331 0.8164062,0.839846 0.044982,0.406744 -0.109196,1.067552 -0.2578124,1.78125 -0.148616,0.713695 -0.3171252,1.543824 0.117188,2.339844 0.4343123,0.796018 1.3949693,1.232268 2.8320313,1.324216 0.615709,0.0394 0.962549,0.242699 1.238281,0.535157 0.275733,0.292457 0.468404,0.710765 0.582031,1.160157 0.227256,0.898783 0.128906,1.828122 0.128906,1.828122 -0.04541,0.397758 0.239177,0.757424 0.636719,0.804687 0.39919,0.04774 0.76138,-0.237468 0.808594,-0.63672 0,0 0.1439,-1.137524 -0.16406,-2.355466 -0.15398,-0.60897 -0.425782,-1.262167 -0.933597,-1.80078 C 9.828305,19.479529 9.071535,19.089912 8.132994,19.029859 6.925388,18.952589 6.601847,18.678425 6.484557,18.463453 6.367267,18.248481 6.379971,17.768115 6.515807,17.115797 6.651642,16.463479 6.884671,15.705057 6.793151,14.877515 6.701631,14.049973 6.090095,13.190149 4.9962757,12.818922 Z"
     style="color:#000000;opacity:0.5;fill:#ffffff;stroke:none;stroke-width:2;stroke-linecap:round;-inkscape-stroke:none"
     id="path1648" />
  <path
     id="path1089"
     style="fill:url(#linearGradient3);stroke-width:0.5"
     d="m 24.800779,7.3701445 c -0.239424,0.011478 -0.47653,0.1093421 -0.660156,0.2929687 -0.02448,0.024483 -0.04889,0.047984 -0.07031,0.074217 L 11.414063,20.389673 9.9999996,24.631861 14.242188,23.217798 26.894503,10.561523 c 0.01311,-0.0107 0.02637,-0.02368 0.03909,-0.03513 l 0.03516,-0.03516 c 0.391736,-0.391736 0.391736,-1.0223255 -1e-6,-1.4140624 L 25.554685,7.6631132 C 25.346575,7.455003 25.072125,7.3571379 24.800779,7.3701445 Z" />
</svg>
