<?xml version="1.0" encoding="UTF-8" standalone="no"?>
<!-- Created with Inkscape (http://www.inkscape.org/) -->

<svg
   width="32"
   height="32"
   viewBox="0 0 32 32.000002"
   version="1.1"
   id="svg1"
   inkscape:version="1.4.2 (ebf0e940d0, 2025-05-08)"
   sodipodi:docname="cuttlefish.svg"
   xmlns:inkscape="http://www.inkscape.org/namespaces/inkscape"
   xmlns:sodipodi="http://sodipodi.sourceforge.net/DTD/sodipodi-0.dtd"
   xmlns:xlink="http://www.w3.org/1999/xlink"
   xmlns="http://www.w3.org/2000/svg"
   xmlns:svg="http://www.w3.org/2000/svg">
  <sodipodi:namedview
     id="namedview1"
     pagecolor="#ffffff"
     bordercolor="#000000"
     borderopacity="0.25"
     inkscape:showpageshadow="2"
     inkscape:pageopacity="0.0"
     inkscape:pagecheckerboard="0"
     inkscape:deskcolor="#d1d1d1"
     inkscape:document-units="px"
     inkscape:zoom="24.8125"
     inkscape:cx="15.979849"
     inkscape:cy="16"
     inkscape:window-width="1920"
     inkscape:window-height="1009"
     inkscape:window-x="0"
     inkscape:window-y="0"
     inkscape:window-maximized="1"
     inkscape:current-layer="svg1" />
  <defs
     id="defs1">
    <linearGradient
       inkscape:collect="always"
       xlink:href="#4852"
       id="linearGradient4"
       x1="16"
       y1="30"
       x2="16"
       y2="2"
       gradientUnits="userSpaceOnUse" />
    <linearGradient
       inkscape:collect="always"
       id="4852">
      <stop
         style="stop-color:#272727;stop-opacity:1;"
         offset="0"
         id="stop14555" />
      <stop
         style="stop-color:#5d5d5d;stop-opacity:1;"
         offset="1"
         id="stop14557" />
    </linearGradient>
    <linearGradient
       inkscape:collect="always"
       xlink:href="#linearGradient986"
       id="linearGradient2369"
       x1="24"
       y1="45"
       x2="24"
       y2="3"
       gradientUnits="userSpaceOnUse"
       gradientTransform="matrix(0.6666667,0,0,0.6666667,-2.113e-5,-7.2e-7)" />
    <linearGradient
       inkscape:collect="always"
       id="linearGradient986">
      <stop
         style="stop-color:#ffa12a;stop-opacity:1;"
         offset="0"
         id="stop982" />
      <stop
         style="stop-color:#ffdc75;stop-opacity:1;"
         offset="1"
         id="stop984" />
    </linearGradient>
  </defs>
  <rect
     style="fill:#000000;stroke-width:1.75;opacity:0.2"
     id="rect1"
     width="28"
     height="28"
     x="2"
     y="3"
     ry="6" />
  <rect
     style="fill:url(#linearGradient4)"
     id="rect2"
     width="28"
     height="28"
     x="2"
     y="2"
     ry="6" />
  <path
     d="m 15.956979,5.9999994 c -3.831,0 -8.3845,3.1381672 -9.327,6.6666676 -0.4439,2.6555 0.28735,4.578833 1.6278001,5.865333 0.0359,0.376 0.1076428,0.7515 0.0762,1.127 -0.001,0.011 -0.00271,0.0225 -0.00386,0.0335 -0.00714,0.0705 -0.017857,0.141 -0.0342,0.212 -0.00686,0.0285 -0.0178,0.058 -0.026343,0.0865 -0.015757,0.054 -0.0312,0.1075 -0.053743,0.1615 -0.018857,0.0445 -0.046157,0.089 -0.0703,0.1335 -0.0224,0.042 -0.0409,0.0835 -0.068343,0.125 -0.056343,0.0855 -0.1221571,0.1705 -0.20215,0.256 -0.3125,0.3335 -0.58595,0.5415 -0.8203,0.677 -0.70319,0.406 -1.05474,0.156 -1.05474,0.656 0,0.5415 1.23745,1.523 2.3720501,1.157 0.1746,-0.056 0.34695,-0.1435 0.51175,-0.2705 0.0824,-0.063 0.1632,-0.136 0.2412,-0.2195 0.143,-0.153 0.2675,-0.2955 0.378,-0.4295 0.109,-0.1315 0.2015,-0.2525 0.285,-0.3675 0.019,0.1675 0.008,0.3795 -0.073,0.703 -0.3235,1.288 -2.0342501,1.18 -1.215,2.094 0.635,0.708501 2.5324998,0.735501 3.5819998,-0.1845 -0.4185,0.948501 -1.0545,1.517501 0.168,1.517501 1.875,0 3.75,-1.333001 3.75,-3.333001 0,2 1.875,3.333001 3.75,3.333001 1.2225,0 0.5865,-0.569 0.168,-1.517501 1.0495,0.920001 2.947,0.893001 3.582,0.1845 0.8195,-0.914 -0.8915,-0.806 -1.215,-2.094 -0.0815,-0.324 -0.0925,-0.536 -0.073,-0.704 0.169,0.2335 0.3805,0.4965 0.663,0.798 C 24.125,24.0005 26,22.6665 26,22 c 0,-0.6665 -0.625,5e-4 -1.875,-1.333 -0.6975,-0.744 -0.431,-1.4885 -0.377,-2.2325 1.4465,-1.308 2.133,-3.217333 1.536,-5.767833 C 23.953,8.8846166 19.788,5.9999994 15.957,5.9999994 Z"
     style="fill:url(#linearGradient2369);fill-opacity:1;stroke-width:0.5"
     id="path312"
     sodipodi:nodetypes="scccccccccccsccccccccscscccccscccs" />
  <ellipse
     style="fill:#ffffff;stroke-width:1;stroke-linecap:round;stroke-linejoin:round"
     id="path697"
     cx="11.5"
     cy="13"
     rx="1.5"
     ry="2" />
  <ellipse
     style="fill:#ffffff;stroke-width:1.41421;stroke-linecap:round;stroke-linejoin:round"
     id="path1307"
     cx="20.5"
     cy="13"
     rx="1.5"
     ry="2" />
  <circle
     style="fill:#333333;stroke-width:0.816497;stroke-linecap:round;stroke-linejoin:round"
     id="path1309"
     cx="12"
     cy="13"
     r="1" />
  <circle
     style="fill:#333333;stroke-width:1.41421;stroke-linecap:round;stroke-linejoin:round"
     id="path1363"
     cx="21"
     cy="13"
     r="1" />
</svg>
