<?xml version="1.0" encoding="UTF-8" standalone="no"?>
<!-- Created with Inkscape (http://www.inkscape.org/) -->

<svg
   width="32"
   height="32"
   viewBox="0 0 32 32.000002"
   version="1.1"
   id="svg1"
   inkscape:version="1.4.2 (ebf0e940d0, 2025-05-08)"
   sodipodi:docname="gnome-color-chooser.svg"
   xmlns:inkscape="http://www.inkscape.org/namespaces/inkscape"
   xmlns:sodipodi="http://sodipodi.sourceforge.net/DTD/sodipodi-0.dtd"
   xmlns:xlink="http://www.w3.org/1999/xlink"
   xmlns="http://www.w3.org/2000/svg"
   xmlns:svg="http://www.w3.org/2000/svg">
  <sodipodi:namedview
     id="namedview1"
     pagecolor="#ffffff"
     bordercolor="#000000"
     borderopacity="0.25"
     inkscape:showpageshadow="2"
     inkscape:pageopacity="0.0"
     inkscape:pagecheckerboard="0"
     inkscape:deskcolor="#d1d1d1"
     inkscape:document-units="px"
     inkscape:zoom="24.84375"
     inkscape:cx="16"
     inkscape:cy="16"
     inkscape:window-width="1920"
     inkscape:window-height="1010"
     inkscape:window-x="0"
     inkscape:window-y="0"
     inkscape:window-maximized="1"
     inkscape:current-layer="svg1" />
  <defs
     id="defs1">
    <linearGradient
       inkscape:collect="always"
       xlink:href="#4852"
       id="linearGradient4"
       x1="16"
       y1="30"
       x2="16"
       y2="2"
       gradientUnits="userSpaceOnUse" />
    <linearGradient
       inkscape:collect="always"
       id="4852">
      <stop
         style="stop-color:#272727;stop-opacity:1;"
         offset="0"
         id="stop14555" />
      <stop
         style="stop-color:#5d5d5d;stop-opacity:1;"
         offset="1"
         id="stop14557" />
    </linearGradient>
    <radialGradient
       inkscape:collect="always"
       xlink:href="#linearGradient10051"
       id="radialGradient1174"
       cx="14.852401"
       cy="30.071783"
       fx="14.852401"
       fy="30.071783"
       r="14"
       gradientUnits="userSpaceOnUse"
       gradientTransform="matrix(-0.85714278,-0.85714275,0.80812211,-0.80812208,16.783944,42.644221)" />
    <linearGradient
       inkscape:collect="always"
       id="linearGradient10051">
      <stop
         style="stop-color:#aa3ad4;stop-opacity:1"
         offset="0"
         id="stop10047" />
      <stop
         style="stop-color:#aa3ad4;stop-opacity:0"
         offset="1"
         id="stop10049" />
    </linearGradient>
    <radialGradient
       inkscape:collect="always"
       xlink:href="#linearGradient1603"
       id="radialGradient1208"
       gradientUnits="userSpaceOnUse"
       gradientTransform="matrix(0.85714278,-0.85714275,-0.80812211,-0.80812208,15.215286,42.644221)"
       cx="14.852401"
       cy="30.071783"
       fx="14.852401"
       fy="30.071783"
       r="14" />
    <linearGradient
       inkscape:collect="always"
       id="linearGradient1603">
      <stop
         style="stop-color:#ff910c;stop-opacity:1;"
         offset="0"
         id="stop1599" />
      <stop
         style="stop-color:#ff910c;stop-opacity:0;"
         offset="1"
         id="stop1601" />
    </linearGradient>
    <radialGradient
       inkscape:collect="always"
       xlink:href="#linearGradient5569"
       id="radialGradient1243"
       gradientUnits="userSpaceOnUse"
       gradientTransform="matrix(0.85714278,0.85714275,-0.80812211,0.80812208,15.215286,-10.644251)"
       cx="15.190269"
       cy="30.646524"
       fx="15.190269"
       fy="30.646524"
       r="14" />
    <linearGradient
       inkscape:collect="always"
       id="linearGradient5569">
      <stop
         style="stop-color:#f5cc24;stop-opacity:1;"
         offset="0"
         id="stop5565" />
      <stop
         style="stop-color:#f5cc24;stop-opacity:0.00045133"
         offset="1"
         id="stop5567" />
    </linearGradient>
    <radialGradient
       inkscape:collect="always"
       xlink:href="#linearGradient3954"
       id="radialGradient1278"
       gradientUnits="userSpaceOnUse"
       gradientTransform="matrix(-0.85714278,0.85714275,0.80812211,0.80812208,16.783944,-10.644251)"
       cx="15.190269"
       cy="30.646524"
       fx="15.190269"
       fy="30.646524"
       r="14" />
    <linearGradient
       inkscape:collect="always"
       id="linearGradient3954">
      <stop
         style="stop-color:#24c2f5;stop-opacity:1;"
         offset="0"
         id="stop3950" />
      <stop
         style="stop-color:#24c2f5;stop-opacity:0;"
         offset="1"
         id="stop3952" />
    </linearGradient>
    <radialGradient
       inkscape:collect="always"
       xlink:href="#linearGradient7221"
       id="radialGradient1313"
       gradientUnits="userSpaceOnUse"
       gradientTransform="matrix(1.1428571,0,0,-1.1428571,-2.2860979,34.285699)"
       cx="16"
       cy="28.250002"
       fx="16"
       fy="28.250002"
       r="14" />
    <linearGradient
       inkscape:collect="always"
       id="linearGradient7221">
      <stop
         style="stop-color:#f43434;stop-opacity:1;"
         offset="0"
         id="stop7217" />
      <stop
         style="stop-color:#f43434;stop-opacity:0;"
         offset="1"
         id="stop7219" />
    </linearGradient>
    <radialGradient
       inkscape:collect="always"
       xlink:href="#linearGradient15132"
       id="radialGradient1348"
       gradientUnits="userSpaceOnUse"
       gradientTransform="matrix(0,1.1428571,-1.1428571,0,34.285329,-2.2857298)"
       cx="16"
       cy="28.250002"
       fx="16"
       fy="28.250002"
       r="14" />
    <linearGradient
       inkscape:collect="always"
       id="linearGradient15132">
      <stop
         style="stop-color:#f5e224;stop-opacity:1;"
         offset="0"
         id="stop15128" />
      <stop
         style="stop-color:#f5e224;stop-opacity:0;"
         offset="1"
         id="stop15130" />
    </linearGradient>
    <radialGradient
       inkscape:collect="always"
       xlink:href="#linearGradient12059"
       id="radialGradient991"
       cx="16"
       cy="28.250002"
       fx="16"
       fy="28.250002"
       r="14"
       gradientUnits="userSpaceOnUse"
       gradientTransform="matrix(1.1428571,0,0,1.1428571,-2.2860979,-2.2857292)" />
    <linearGradient
       inkscape:collect="always"
       id="linearGradient12059">
      <stop
         style="stop-color:#47c12a;stop-opacity:1;"
         offset="0"
         id="stop12055" />
      <stop
         style="stop-color:#47c12a;stop-opacity:0;"
         offset="1"
         id="stop12057" />
    </linearGradient>
  </defs>
  <rect
     style="fill:#000000;stroke-width:1.75;opacity:0.2"
     id="rect1"
     width="28"
     height="28"
     x="2"
     y="3"
     ry="6" />
  <rect
     style="fill:url(#linearGradient4)"
     id="rect2"
     width="28"
     height="28"
     x="2"
     y="2"
     ry="6" />
  <path
     id="rect3072"
     style="fill:#ffffff;stroke-width:3;stroke-linecap:round;stroke-linejoin:round"
     d="m 22.923443,7.0742034 c -0.511238,0 -1.022325,0.1961541 -1.414062,0.5878906 L 19.388287,9.7831877 18.681256,9.0761565 c -0.391735,-0.391736 -1.022328,-0.391736 -1.414063,0 -0.391737,0.391736 -0.391736,1.0223265 0,1.4140625 l 0.707031,0.707032 -7.779297,7.777343 v 1.414063 l -2.8281244,2.830078 c -0.3917372,0.391737 -0.3917364,1.022325 0,1.414062 0.3917365,0.391737 1.0223253,0.391738 1.4140625,0 l 2.8300779,-2.828124 h 1.414063 l 7.777343,-7.779297 0.707032,0.707031 c 0.391737,0.391737 1.022326,0.391737 1.414062,0 0.391736,-0.391735 0.391736,-1.022327 0,-1.414063 l -0.707031,-0.707031 2.121094,-2.121094 c 0.783473,-0.783474 0.783473,-2.044651 0,-2.828125 C 23.945769,7.2703575 23.434682,7.0742034 22.923443,7.0742034 Z" />
  <path
     id="path371"
     style="fill:url(#radialGradient1174);fill-opacity:1;stroke-width:1;stroke-linecap:round;stroke-linejoin:round"
     d="m 22.923443,7.0742034 c -0.511238,0 -1.022325,0.1961541 -1.414062,0.5878906 L 19.388287,9.7831877 18.681256,9.0761565 c -0.391735,-0.391736 -1.022328,-0.391736 -1.414063,0 -0.391737,0.391736 -0.391736,1.0223265 0,1.4140625 l 0.707031,0.707032 -7.779297,7.777343 v 1.414063 l -2.8281244,2.830078 c -0.3917372,0.391737 -0.3917364,1.022325 0,1.414062 0.3917365,0.391737 1.0223253,0.391739 1.4140625,0 l 2.8300779,-2.828124 h 1.414063 l 7.777343,-7.779297 0.707032,0.707031 c 0.391737,0.391737 1.022326,0.391737 1.414062,0 0.391736,-0.391735 0.391736,-1.022327 0,-1.414063 l -0.707031,-0.707031 2.121094,-2.121094 c 0.783473,-0.7834734 0.783473,-2.044651 0,-2.828125 C 23.945769,7.2703575 23.434682,7.0742033 22.923443,7.0742034 Z" />
  <path
     id="path1184"
     style="fill:url(#radialGradient1208);fill-opacity:1;stroke-width:1;stroke-linecap:round;stroke-linejoin:round"
     d="m 22.923443,7.0742034 c -0.511238,0 -1.022325,0.1961541 -1.414062,0.5878906 L 19.388287,9.7831877 18.681256,9.0761565 c -0.391735,-0.391736 -1.022328,-0.391736 -1.414063,0 -0.391737,0.391736 -0.391736,1.0223265 0,1.4140625 l 0.707031,0.707032 -7.779297,7.777343 v 1.414063 l -2.8281244,2.830078 c -0.3917372,0.391737 -0.3917364,1.022325 0,1.414062 0.3917365,0.391737 1.0223253,0.391739 1.4140625,0 l 2.8300779,-2.828124 h 1.414063 l 7.777343,-7.779297 0.707032,0.707031 c 0.391737,0.391737 1.022326,0.391737 1.414062,0 0.391736,-0.391735 0.391736,-1.022327 0,-1.414063 l -0.707031,-0.707031 2.121094,-2.121094 c 0.783473,-0.783473 0.783473,-2.0446506 0,-2.828125 C 23.945769,7.2703575 23.434682,7.0742033 22.923443,7.0742034 Z" />
  <path
     id="path1219"
     style="fill:url(#radialGradient1243);fill-opacity:1;stroke-width:1;stroke-linecap:round;stroke-linejoin:round"
     d="m 22.923443,7.0742034 c -0.511238,0 -1.022325,0.1961541 -1.414062,0.5878906 L 19.388287,9.7831877 18.681256,9.0761565 c -0.391735,-0.3917359 -1.022328,-0.3917359 -1.414063,0 -0.391737,0.391736 -0.391736,1.0223265 0,1.4140625 l 0.707031,0.707032 -7.779297,7.777343 v 1.414063 l -2.8281244,2.830078 c -0.3917372,0.391737 -0.3917364,1.022325 0,1.414062 0.3917365,0.391737 1.0223253,0.391739 1.4140625,0 l 2.8300779,-2.828124 h 1.414063 l 7.777343,-7.779297 0.707032,0.707031 c 0.391737,0.391737 1.022326,0.391737 1.414062,0 0.391736,-0.391735 0.391736,-1.022327 0,-1.414063 l -0.707031,-0.707031 2.121094,-2.121094 c 0.783473,-0.783473 0.783473,-2.044651 0,-2.828125 C 23.945769,7.2703575 23.434682,7.0742033 22.923443,7.0742034 Z" />
  <path
     id="path1254"
     style="fill:url(#radialGradient1278);fill-opacity:1;stroke-width:1;stroke-linecap:round;stroke-linejoin:round"
     d="m 22.923443,7.0742034 c -0.511238,0 -1.022325,0.1961536 -1.414062,0.5878906 L 19.388287,9.7831877 18.681256,9.0761565 c -0.391735,-0.391736 -1.022328,-0.391736 -1.414063,0 -0.391737,0.391736 -0.391736,1.0223265 0,1.4140625 l 0.707031,0.707032 -7.779297,7.777343 v 1.414063 l -2.8281244,2.830078 c -0.3917372,0.391737 -0.3917364,1.022325 0,1.414062 0.3917365,0.391737 1.0223253,0.391739 1.4140625,0 l 2.8300779,-2.828124 h 1.414063 l 7.777343,-7.779297 0.707032,0.707031 c 0.391737,0.391737 1.022326,0.391737 1.414062,0 0.391736,-0.391735 0.391736,-1.022327 0,-1.414063 l -0.707031,-0.707031 2.121094,-2.121094 c 0.783473,-0.783473 0.783473,-2.044651 0,-2.828125 C 23.945769,7.270357 23.434682,7.0742034 22.923443,7.0742034 Z" />
  <path
     id="path1289"
     style="fill:url(#radialGradient1313);fill-opacity:1;stroke-width:1;stroke-linecap:round;stroke-linejoin:round"
     d="m 22.923443,7.0742034 c -0.511238,0 -1.022324,0.1961536 -1.414062,0.5878906 L 19.388287,9.7831877 18.681256,9.0761565 c -0.391734,-0.391736 -1.022328,-0.391736 -1.414063,0 -0.391737,0.391736 -0.391736,1.0223265 0,1.4140625 l 0.707031,0.707032 -7.779297,7.777343 v 1.414063 l -2.8281244,2.830078 c -0.3917372,0.391737 -0.3917364,1.022325 0,1.414062 0.3917365,0.391737 1.0223253,0.391739 1.4140625,0 l 2.8300779,-2.828124 h 1.414063 l 7.777343,-7.779297 0.707032,0.707031 c 0.391737,0.391737 1.022326,0.391737 1.414062,0 0.391736,-0.391735 0.391736,-1.022327 0,-1.414063 l -0.707031,-0.707031 2.121094,-2.121094 c 0.783473,-0.783473 0.783473,-2.044651 0,-2.828125 C 23.945769,7.270357 23.434683,7.0742034 22.923443,7.0742034 Z" />
  <path
     id="path1324"
     style="fill:url(#radialGradient1348);fill-opacity:1;stroke-width:1;stroke-linecap:round;stroke-linejoin:round"
     d="m 22.923443,7.0742034 c -0.511238,0 -1.022325,0.1961536 -1.414062,0.5878906 L 19.388287,9.7831877 18.681256,9.0761565 c -0.391735,-0.391736 -1.022328,-0.391736 -1.414063,0 -0.391737,0.391736 -0.391736,1.0223265 0,1.4140625 l 0.707031,0.707032 -7.779297,7.777343 v 1.414063 l -2.8281244,2.830078 c -0.3917372,0.391737 -0.3917364,1.022325 0,1.414062 0.3917365,0.391737 1.0223253,0.391739 1.4140625,0 l 2.8300779,-2.828124 h 1.414063 l 7.777343,-7.779297 0.707032,0.707031 c 0.391737,0.391737 1.022326,0.391737 1.414062,0 0.391736,-0.391735 0.391736,-1.022327 0,-1.414063 l -0.707031,-0.707031 2.121094,-2.121094 c 0.783473,-0.783473 0.783473,-2.044651 0,-2.828125 C 23.945769,7.270357 23.434682,7.0742034 22.923443,7.0742034 Z" />
  <path
     id="path404"
     style="fill:url(#radialGradient991);fill-opacity:1;stroke-width:1;stroke-linecap:round;stroke-linejoin:round"
     d="m 22.923443,7.0742034 c -0.511238,0 -1.022325,0.1961536 -1.414062,0.5878906 L 19.388287,9.7831877 18.681256,9.0761565 c -0.391735,-0.391736 -1.022328,-0.391736 -1.414063,0 -0.391737,0.391736 -0.391736,1.0223265 0,1.4140625 l 0.707031,0.707032 -7.779297,7.777343 v 1.414063 l -2.8281244,2.830078 c -0.3917371,0.391737 -0.3917364,1.022325 0,1.414062 0.3917366,0.391737 1.0223253,0.391739 1.4140625,0 l 2.8300779,-2.828124 h 1.414063 l 7.777343,-7.779297 0.707032,0.707031 c 0.391737,0.391737 1.022326,0.391737 1.414062,0 0.391736,-0.391735 0.391736,-1.022327 0,-1.414063 l -0.707031,-0.707031 2.121094,-2.121094 c 0.783473,-0.783473 0.783473,-2.044651 0,-2.828125 C 23.945769,7.270357 23.434682,7.0742034 22.923443,7.0742034 Z" />
  <path
     id="rect3065"
     style="opacity:0.5;fill:#ffffff;stroke-width:8;stroke-linecap:round;stroke-linejoin:round"
     d="m 24.337996,7.6616052 c -0.783474,-0.7834736 -2.044954,-0.7834735 -2.828428,0 l -2.12132,2.1213203 -0.707107,-0.7071067 c -0.391735,-0.3917358 -1.022478,-0.3917358 -1.414213,0 -0.391737,0.3917364 -0.391736,1.0224782 0,1.4142142 l 2.12132,2.12132 2.12132,2.12132 c 0.391737,0.391737 1.022478,0.391737 1.414214,0 0.391736,-0.391735 0.391736,-1.022477 0,-1.414213 l -0.707107,-0.707107 2.121321,-2.12132 c 0.783473,-0.7834742 0.783473,-2.0449542 0,-2.8284278 z" />
</svg>
