<?xml version="1.0" encoding="UTF-8" standalone="no"?>
<!-- Created with Inkscape (http://www.inkscape.org/) -->

<svg
   width="32"
   height="32"
   viewBox="0 0 32 32.000002"
   version="1.1"
   id="svg1"
   inkscape:version="1.4.2 (ebf0e940d0, 2025-05-08)"
   sodipodi:docname="io.github.seadve.Mousai.svg"
   xmlns:inkscape="http://www.inkscape.org/namespaces/inkscape"
   xmlns:sodipodi="http://sodipodi.sourceforge.net/DTD/sodipodi-0.dtd"
   xmlns:xlink="http://www.w3.org/1999/xlink"
   xmlns="http://www.w3.org/2000/svg"
   xmlns:svg="http://www.w3.org/2000/svg">
  <sodipodi:namedview
     id="namedview1"
     pagecolor="#ffffff"
     bordercolor="#000000"
     borderopacity="0.25"
     inkscape:showpageshadow="2"
     inkscape:pageopacity="0.0"
     inkscape:pagecheckerboard="0"
     inkscape:deskcolor="#d1d1d1"
     inkscape:document-units="px"
     inkscape:zoom="24.875"
     inkscape:cx="15.979899"
     inkscape:cy="16"
     inkscape:window-width="1920"
     inkscape:window-height="1011"
     inkscape:window-x="0"
     inkscape:window-y="0"
     inkscape:window-maximized="1"
     inkscape:current-layer="svg1" />
  <defs
     id="defs1">
    <linearGradient
       inkscape:collect="always"
       xlink:href="#4852"
       id="linearGradient4"
       x1="16"
       y1="30"
       x2="16"
       y2="2"
       gradientUnits="userSpaceOnUse" />
    <linearGradient
       inkscape:collect="always"
       id="4852">
      <stop
         style="stop-color:#272727;stop-opacity:1;"
         offset="0"
         id="stop14555" />
      <stop
         style="stop-color:#5d5d5d;stop-opacity:1;"
         offset="1"
         id="stop14557" />
    </linearGradient>
    <linearGradient
       inkscape:collect="always"
       xlink:href="#linearGradient1612"
       id="linearGradient4780"
       x1="9.9274473"
       y1="17.989187"
       x2="28.091501"
       y2="4.291369"
       gradientUnits="userSpaceOnUse" />
    <linearGradient
       inkscape:collect="always"
       id="linearGradient1612">
      <stop
         style="stop-color:#6b97df;stop-opacity:1;"
         offset="0"
         id="stop1608" />
      <stop
         style="stop-color:#c25298;stop-opacity:1;"
         offset="1"
         id="stop1610" />
    </linearGradient>
    <linearGradient
       inkscape:collect="always"
       xlink:href="#linearGradient7676"
       id="linearGradient10605"
       gradientUnits="userSpaceOnUse"
       x1="9.3408604"
       y1="13.888714"
       x2="28.091501"
       y2="4.291369"
       gradientTransform="matrix(1,0,0,-1,0,32)" />
    <linearGradient
       inkscape:collect="always"
       id="linearGradient7676">
      <stop
         style="stop-color:#6b97df;stop-opacity:0;"
         offset="0"
         id="stop7672" />
      <stop
         style="stop-color:#e5565c;stop-opacity:1;"
         offset="1"
         id="stop7674" />
    </linearGradient>
  </defs>
  <rect
     style="fill:#000000;stroke-width:1.75;opacity:0.2"
     id="rect1"
     width="28"
     height="28"
     x="2"
     y="3"
     ry="6" />
  <rect
     style="fill:url(#linearGradient4)"
     id="rect2"
     width="28"
     height="28"
     x="2"
     y="2"
     ry="6" />
  <path
     id="path530"
     style="fill:url(#linearGradient4780);fill-opacity:1;stroke-width:1;stroke-linecap:round;stroke-linejoin:round"
     d="M 12 8 L 12 16.539062 C 11.39223 16.186883 10.702434 16.000962 10 16 C 7.790862 16 6 17.790861 6 20 C 6 22.209138 7.790862 24 10 24 C 12.20914 24 14 22.209138 14 20 L 14 10 L 22 10 L 22 16.539062 C 21.39223 16.186883 20.702434 16.000962 20 16 C 17.790862 16 16 17.790861 16 20 C 16 22.209138 17.790862 24 20 24 C 22.209138 24 24 22.209138 24 20 L 24 8 L 12 8 z M 10 18 C 11.10457 18 12 18.895431 12 20 C 12 21.10457 11.10457 22 10 22 C 8.89543 22 8 21.10457 8 20 C 8 18.895431 8.89543 18 10 18 z M 20 18 C 21.10457 18 22 18.895431 22 20 C 22 21.10457 21.10457 22 20 22 C 18.89543 22 18 21.10457 18 20 C 18 18.895431 18.89543 18 20 18 z " />
  <path
     id="path10581"
     style="fill:url(#linearGradient10605);fill-opacity:1;stroke-width:1;stroke-linecap:round;stroke-linejoin:round"
     d="M 12 8 L 12 16.539062 C 11.39223 16.186883 10.702434 16.000962 10 16 C 7.790862 16 6 17.790861 6 20 C 6 22.209138 7.790862 24 10 24 C 12.20914 24 14 22.209138 14 20 L 14 10 L 22 10 L 22 16.539062 C 21.39223 16.186883 20.702434 16.000962 20 16 C 17.790862 16 16 17.790861 16 20 C 16 22.209138 17.790862 24 20 24 C 22.209138 24 24 22.209138 24 20 L 24 8 L 12 8 z M 10 18 C 11.10457 18 12 18.895431 12 20 C 12 21.10457 11.10457 22 10 22 C 8.89543 22 8 21.10457 8 20 C 8 18.895431 8.89543 18 10 18 z M 20 18 C 21.10457 18 22 18.895431 22 20 C 22 21.10457 21.10457 22 20 22 C 18.89543 22 18 21.10457 18 20 C 18 18.895431 18.89543 18 20 18 z " />
</svg>
