<?xml version="1.0" encoding="UTF-8" standalone="no"?>
<!-- Created with Inkscape (http://www.inkscape.org/) -->

<svg
   width="32"
   height="32"
   viewBox="0 0 32 32.000002"
   version="1.1"
   id="svg1"
   inkscape:version="1.4.2 (ebf0e940d0, 2025-05-08)"
   sodipodi:docname="io.missioncenter.MissionCenter.svg"
   xmlns:inkscape="http://www.inkscape.org/namespaces/inkscape"
   xmlns:sodipodi="http://sodipodi.sourceforge.net/DTD/sodipodi-0.dtd"
   xmlns:xlink="http://www.w3.org/1999/xlink"
   xmlns="http://www.w3.org/2000/svg"
   xmlns:svg="http://www.w3.org/2000/svg">
  <sodipodi:namedview
     id="namedview1"
     pagecolor="#ffffff"
     bordercolor="#000000"
     borderopacity="0.25"
     inkscape:showpageshadow="2"
     inkscape:pageopacity="0.0"
     inkscape:pagecheckerboard="0"
     inkscape:deskcolor="#d1d1d1"
     inkscape:document-units="px"
     inkscape:zoom="24.5625"
     inkscape:cx="15.979644"
     inkscape:cy="16"
     inkscape:window-width="1920"
     inkscape:window-height="1011"
     inkscape:window-x="0"
     inkscape:window-y="0"
     inkscape:window-maximized="1"
     inkscape:current-layer="svg1" />
  <defs
     id="defs1">
    <linearGradient
       inkscape:collect="always"
       xlink:href="#4852"
       id="linearGradient4"
       x1="16"
       y1="30"
       x2="16"
       y2="2"
       gradientUnits="userSpaceOnUse" />
    <linearGradient
       inkscape:collect="always"
       id="4852">
      <stop
         style="stop-color:#272727;stop-opacity:1;"
         offset="0"
         id="stop14555" />
      <stop
         style="stop-color:#5d5d5d;stop-opacity:1;"
         offset="1"
         id="stop14557" />
    </linearGradient>
    <linearGradient
       inkscape:collect="always"
       xlink:href="#linearGradient3147"
       id="linearGradient7416"
       x1="14"
       y1="46"
       x2="14"
       y2="18"
       gradientUnits="userSpaceOnUse"
       gradientTransform="translate(2,-16)" />
    <linearGradient
       inkscape:collect="always"
       id="linearGradient3147">
      <stop
         style="stop-color:#0091f9;stop-opacity:1;"
         offset="0"
         id="stop3143" />
      <stop
         style="stop-color:#41bbff;stop-opacity:1;"
         offset="1"
         id="stop3145" />
    </linearGradient>
  </defs>
  <rect
     style="fill:#000000;stroke-width:1.75;opacity:0.2"
     id="rect1"
     width="28"
     height="28"
     x="2"
     y="3"
     ry="6" />
  <rect
     style="fill:url(#linearGradient4)"
     id="rect2"
     width="28"
     height="26"
     x="2"
     y="2"
     ry="6" />
  <path
     id="rect7384"
     style="fill:url(#linearGradient7416);fill-opacity:1;stroke-width:2.36643;stroke-linecap:round;stroke-linejoin:round"
     d="M 9 10 C 5.4615717 10 2 14.639788 2 17 L 2 19 L 2 24 C 2 27.324 4.676 30 8 30 L 24 30 C 27.267103 30 29.908588 27.414636 29.998047 24.169922 C 29.996172 21.971915 29.992407 19.991322 29.986328 19.984375 C 29.136146 19.027699 27.470058 16.982256 25 17 C 23.035642 17.01411 21.000076 18.98579 19 19 C 17.000002 19.01421 16.017505 17.645178 15 16 C 13.528541 13.291184 11.999997 10 9 10 z " />
  <path
     id="rect10286"
     style="fill:#e7f3fa;stroke-width:2;stroke-linecap:round;stroke-linejoin:round;fill-opacity:1"
     d="m 7,8 v 2 H 8 V 9 H 9 V 8 Z m 3,0 v 1 h 1 v 1 h 1 V 8 Z m -3,3 v 2 H 9 V 12 H 8 v -1 z m 4,0 v 1 h -1 v 1 h 2 v -2 z" />
  <path
     id="rect10286-2"
     style="fill:#e7f3fa;stroke-width:2;stroke-linecap:round;stroke-linejoin:round;fill-opacity:1"
     d="m 22,15 v 2 h 1 v -1 h 1 v -1 z m 3,0 v 1 h 1 v 1 h 1 v -2 z m -3,3 v 2 h 2 v -1 h -1 v -1 z m 4,0 v 1 h -1 v 1 h 2 v -2 z" />
</svg>
