<?xml version="1.0" encoding="UTF-8" standalone="no"?>
<!-- Created with Inkscape (http://www.inkscape.org/) -->

<svg
   width="32"
   height="32"
   viewBox="0 0 32 32.000002"
   version="1.1"
   id="svg1"
   inkscape:version="1.4.2 (ebf0e940d0, 2025-05-08)"
   sodipodi:docname="kolourpaint.svg"
   xmlns:inkscape="http://www.inkscape.org/namespaces/inkscape"
   xmlns:sodipodi="http://sodipodi.sourceforge.net/DTD/sodipodi-0.dtd"
   xmlns:xlink="http://www.w3.org/1999/xlink"
   xmlns="http://www.w3.org/2000/svg"
   xmlns:svg="http://www.w3.org/2000/svg">
  <sodipodi:namedview
     id="namedview1"
     pagecolor="#ffffff"
     bordercolor="#000000"
     borderopacity="0.25"
     inkscape:showpageshadow="2"
     inkscape:pageopacity="0.0"
     inkscape:pagecheckerboard="0"
     inkscape:deskcolor="#d1d1d1"
     inkscape:document-units="px"
     inkscape:zoom="24.875"
     inkscape:cx="15.979899"
     inkscape:cy="16"
     inkscape:window-width="1920"
     inkscape:window-height="1011"
     inkscape:window-x="0"
     inkscape:window-y="0"
     inkscape:window-maximized="1"
     inkscape:current-layer="svg1" />
  <defs
     id="defs1">
    <linearGradient
       inkscape:collect="always"
       xlink:href="#4852"
       id="linearGradient4"
       x1="16"
       y1="30"
       x2="16"
       y2="2"
       gradientUnits="userSpaceOnUse" />
    <linearGradient
       inkscape:collect="always"
       id="4852">
      <stop
         style="stop-color:#272727;stop-opacity:1;"
         offset="0"
         id="stop14555" />
      <stop
         style="stop-color:#5d5d5d;stop-opacity:1;"
         offset="1"
         id="stop14557" />
    </linearGradient>
    <linearGradient
       inkscape:collect="always"
       id="linearGradient4681">
      <stop
         style="stop-color:#ff5651;stop-opacity:1;"
         offset="0"
         id="stop4677" />
      <stop
         style="stop-color:#ff8b75;stop-opacity:1;"
         offset="1"
         id="stop4679" />
    </linearGradient>
    <linearGradient
       inkscape:collect="always"
       xlink:href="#linearGradient4681"
       id="linearGradient2"
       x1="16"
       y1="30"
       x2="16"
       y2="2"
       gradientUnits="userSpaceOnUse" />
  </defs>
  <rect
     style="fill:#000000;stroke-width:1.75;opacity:0.2"
     id="rect1"
     width="28"
     height="28"
     x="2"
     y="3"
     ry="6" />
  <rect
     style="fill:url(#linearGradient4)"
     id="rect2"
     width="28"
     height="28"
     x="2"
     y="2"
     ry="6" />
  <rect
     style="opacity:0.2;fill:#ffffff"
     id="rect6239"
     width="4"
     height="4"
     x="10.5"
     y="8.5" />
  <rect
     style="opacity:0.3;fill:#ffffff"
     id="rect6241"
     width="4"
     height="4"
     x="16.5"
     y="8.5" />
  <rect
     style="opacity:0.5;fill:#ffffff"
     id="rect6243"
     width="4"
     height="4"
     x="20.5"
     y="12.5" />
  <path
     id="path4033"
     style="fill:url(#linearGradient2)"
     d="M 16,6 C 10.444606,6 6,10.444606 6,16 c 0,5.555394 4.444606,10 10,10 0.888879,0 1.666016,-0.777207 1.666016,-1.666016 0,-0.444439 -0.11003,-0.778018 -0.44336,-1.111328 -0.222,-0.333489 -0.445312,-0.666818 -0.445312,-1.111328 0,-0.888879 0.779158,-1.667969 1.667968,-1.667969 h 2 C 23.556308,20.444359 26,18.001822 26,14.890625 26,10.00173 21.555993,6.001953 16,6.001953 Z M 12.5,9 C 13.299988,9 14,9.699991 14,10.5 14,11.299988 13.300008,12 12.5,12 11.700002,12 11,11.299998 11,10.5 11,9.7 11.700002,9 12.5,9 Z m 6,0 C 19.299988,9 20,9.699991 20,10.5 20,11.299988 19.300008,12 18.5,12 17.700012,12 17,11.300008 17,10.5 17,9.70001 17.699992,9 18.5,9 Z M 9.5000002,13 C 10.299988,13 11,13.699991 11,14.5 11,15.299988 10.300008,16 9.5000002,16 c -0.799989,0 -1.5,-0.699992 -1.5,-1.5 0,-0.799989 0.699991,-1.5 1.5,-1.5 z M 22.5,13 C 23.299988,13 24,13.699991 24,14.5 24,15.299988 23.300008,16 22.5,16 21.700002,16 21,15.299798 21,14.5 21,13.700001 21.700002,13 22.5,13 Z" />
</svg>
