<?xml version="1.0" encoding="UTF-8" standalone="no"?>
<!-- Created with Inkscape (http://www.inkscape.org/) -->

<svg
   width="32"
   height="32"
   viewBox="0 0 32 32.000002"
   version="1.1"
   id="svg1"
   inkscape:version="1.4.2 (ebf0e940d0, 2025-05-08)"
   sodipodi:docname="nvidia.svg"
   xmlns:inkscape="http://www.inkscape.org/namespaces/inkscape"
   xmlns:sodipodi="http://sodipodi.sourceforge.net/DTD/sodipodi-0.dtd"
   xmlns:xlink="http://www.w3.org/1999/xlink"
   xmlns="http://www.w3.org/2000/svg"
   xmlns:svg="http://www.w3.org/2000/svg">
  <sodipodi:namedview
     id="namedview1"
     pagecolor="#ffffff"
     bordercolor="#000000"
     borderopacity="0.25"
     inkscape:showpageshadow="2"
     inkscape:pageopacity="0.0"
     inkscape:pagecheckerboard="0"
     inkscape:deskcolor="#d1d1d1"
     inkscape:document-units="px"
     inkscape:zoom="24.5625"
     inkscape:cx="15.979644"
     inkscape:cy="16"
     inkscape:window-width="1920"
     inkscape:window-height="1011"
     inkscape:window-x="0"
     inkscape:window-y="0"
     inkscape:window-maximized="1"
     inkscape:current-layer="svg1" />
  <defs
     id="defs1">
    <linearGradient
       inkscape:collect="always"
       xlink:href="#4852"
       id="linearGradient4"
       x1="16"
       y1="30"
       x2="16"
       y2="2"
       gradientUnits="userSpaceOnUse" />
    <linearGradient
       inkscape:collect="always"
       id="4852">
      <stop
         style="stop-color:#272727;stop-opacity:1;"
         offset="0"
         id="stop14555" />
      <stop
         style="stop-color:#5d5d5d;stop-opacity:1;"
         offset="1"
         id="stop14557" />
    </linearGradient>
    <linearGradient
       inkscape:collect="always"
       xlink:href="#linearGradient1270"
       id="linearGradient1272"
       x1="23.002001"
       y1="38"
       x2="23.002001"
       y2="10"
       gradientUnits="userSpaceOnUse"
       gradientTransform="translate(-7.0019999,-8)" />
    <linearGradient
       inkscape:collect="always"
       id="linearGradient1270">
      <stop
         style="stop-color:#80d935;stop-opacity:1;"
         offset="0"
         id="stop1266" />
      <stop
         style="stop-color:#afd65f;stop-opacity:1;"
         offset="1"
         id="stop1268" />
    </linearGradient>
  </defs>
  <rect
     style="fill:#000000;stroke-width:1.75;opacity:0.2"
     id="rect1"
     width="28"
     height="28"
     x="2"
     y="3"
     ry="6" />
  <rect
     style="fill:url(#linearGradient4)"
     id="rect2"
     width="25"
     height="28"
     x="2"
     y="2"
     ry="6" />
  <path
     id="path353"
     style="fill:url(#linearGradient1272);fill-opacity:1"
     d="M 15 2 L 15 10.865234 C 19.440211 10.820064 22.322266 14.810547 22.322266 14.810547 C 22.322266 14.810547 18.919593 19.1875 15.375 19.1875 C 15.05014 19.1875 15.28566 19.157036 15 19.103516 L 15 20.269531 C 15.06107 20.277731 15.09184 20.286489 15.103516 20.292969 L 15.103516 20.294922 L 15.105469 20.294922 L 15.107422 20.296875 L 15.107422 20.298828 L 15.107422 20.300781 L 15.107422 20.302734 L 15.107422 20.304688 L 15.105469 20.306641 L 15.103516 20.308594 L 15.101562 20.310547 L 15.101562 20.3125 L 15.099609 20.3125 L 15.099609 20.314453 L 15.101562 20.314453 L 15.101562 20.316406 L 15.103516 20.316406 L 15.105469 20.318359 C 15.116789 20.321359 15.148329 20.322266 15.222656 20.322266 C 18.52115 20.322266 20.907001 18.540737 23.216797 16.431641 C 23.599756 16.756099 25.167935 17.545125 25.490234 17.890625 C 23.294139 19.835721 18.175032 21.404297 15.273438 21.404297 C 15.186027 21.404297 15.149794 21.401737 15.136719 21.398438 L 15.134766 21.398438 L 15.132812 21.396484 L 15.130859 21.394531 L 15.130859 21.392578 L 15.130859 21.390625 L 15.130859 21.388672 L 15.130859 21.386719 L 15.128906 21.386719 L 15.128906 21.384766 L 15.126953 21.382812 L 15.125 21.380859 C 15.11376 21.374459 15.08251 21.367785 15 21.359375 L 15 30 L 24 30 C 27.324 30 30 27.324 30 24 L 30 8 C 30 4.676 27.324 2 24 2 L 15 2 z M 15 21.359375 L 15 20.269531 C 10.963408 19.731534 9.0410156 15.027344 9.0410156 15.027344 C 9.0410156 15.027344 11.389608 12.204109 15 11.912109 L 15 13.177734 C 15.04345 13.172834 15.065789 13.166339 15.074219 13.162109 L 15.076172 13.162109 L 15.078125 13.160156 L 15.078125 13.158203 L 15.076172 13.158203 L 15.076172 13.15625 L 15.074219 13.15625 L 15.072266 13.154297 C 15.063566 13.149997 15.044909 13.145398 15.037109 13.142578 L 15.035156 13.142578 L 15.035156 13.140625 L 15.037109 13.140625 L 15.039062 13.138672 C 15.047558 13.136968 15.071289 13.136719 15.121094 13.136719 C 17.21529 13.136719 18.457031 14.859375 18.457031 14.859375 L 16.998047 16.378906 C 16.232893 15.029701 16.272798 14.434184 15 14.271484 L 15 18.105469 C 15.28846 18.20809 15.07025 18.269531 15.427734 18.269531 C 17.911629 18.269531 20.228516 14.865234 20.228516 14.865234 C 20.228516 14.865234 18.164062 11.903597 15 11.892578 L 15 11.90625 C 14.94957 11.90225 14.820859 11.897551 14.796875 11.894531 C 14.799975 11.89414 14.804473 11.892978 14.814453 11.892578 C 14.877073 11.890478 14.938215 11.892362 15 11.892578 L 15 10.888672 C 11.001008 11.228432 6.9980469 14.810547 6.9980469 14.810547 C 6.9980469 14.810547 9.499512 20.810177 15 21.359375 z M 15 18.105469 C 13.280084 17.494169 12.181641 15.371094 12.181641 15.371094 C 12.181641 15.371094 13.719296 14.107432 14.996094 14.269531 L 14.998047 14.269531 L 14.998047 14.271484 L 15 14.271484 L 15 13.177734 C 12.567205 13.456134 10.5625 15.171875 10.5625 15.171875 C 10.5625 15.171875 11.949206 18.528136 15 19.103516 L 15 18.105469 z M 15 10.865234 C 14.93783 10.865867 14.877231 10.864809 14.814453 10.867188 C 14.809553 10.867368 14.805528 10.868736 14.802734 10.869141 C 14.831989 10.871932 14.95139 10.876178 15 10.880859 L 15 10.865234 z " />
</svg>
