<?xml version="1.0" encoding="UTF-8" standalone="no"?>
<!-- Created with Inkscape (http://www.inkscape.org/) -->

<svg
   width="32"
   height="32"
   viewBox="0 0 32 32.000002"
   version="1.1"
   id="svg1"
   inkscape:version="1.4 (e7c3feb100, 2024-10-09)"
   sodipodi:docname="org.gnome.Dictionary.svg"
   xmlns:inkscape="http://www.inkscape.org/namespaces/inkscape"
   xmlns:sodipodi="http://sodipodi.sourceforge.net/DTD/sodipodi-0.dtd"
   xmlns:xlink="http://www.w3.org/1999/xlink"
   xmlns="http://www.w3.org/2000/svg"
   xmlns:svg="http://www.w3.org/2000/svg">
  <sodipodi:namedview
     id="namedview1"
     pagecolor="#ffffff"
     bordercolor="#000000"
     borderopacity="0.25"
     inkscape:showpageshadow="2"
     inkscape:pageopacity="0.0"
     inkscape:pagecheckerboard="0"
     inkscape:deskcolor="#d1d1d1"
     inkscape:document-units="px"
     inkscape:zoom="25.25"
     inkscape:cx="15.980198"
     inkscape:cy="16"
     inkscape:window-width="1920"
     inkscape:window-height="1011"
     inkscape:window-x="0"
     inkscape:window-y="0"
     inkscape:window-maximized="1"
     inkscape:current-layer="svg1" />
  <defs
     id="defs1">
    <linearGradient
       inkscape:collect="always"
       xlink:href="#4852"
       id="linearGradient4"
       x1="16"
       y1="30"
       x2="16"
       y2="2"
       gradientUnits="userSpaceOnUse" />
    <linearGradient
       inkscape:collect="always"
       id="linearGradient919">
      <stop
         style="stop-color:#35b360;stop-opacity:1;"
         offset="0"
         id="stop915" />
      <stop
         style="stop-color:#82d3a7;stop-opacity:1;"
         offset="1"
         id="stop917" />
    </linearGradient>
    <linearGradient
       inkscape:collect="always"
       xlink:href="#linearGradient919"
       id="linearGradient2"
       x1="16"
       y1="30"
       x2="16"
       y2="2"
       gradientUnits="userSpaceOnUse" />
    <linearGradient
       inkscape:collect="always"
       xlink:href="#linearGradient919"
       id="linearGradient5"
       x1="16"
       y1="30"
       x2="16"
       y2="2"
       gradientUnits="userSpaceOnUse" />
    <linearGradient
       inkscape:collect="always"
       id="4852">
      <stop
         style="stop-color:#272727;stop-opacity:1;"
         offset="0"
         id="stop14555" />
      <stop
         style="stop-color:#5d5d5d;stop-opacity:1;"
         offset="1"
         id="stop14557" />
    </linearGradient>
  </defs>
  <rect
     style="fill:#000000;stroke-width:1.75;opacity:0.2"
     id="rect1"
     width="28"
     height="28"
     x="2"
     y="3"
     ry="6" />
  <rect
     style="fill:url(#linearGradient4)"
     id="rect2"
     width="28"
     height="28"
     x="2"
     y="2"
     ry="6" />
  <path
     d="M 14.216797,11 11.054688,20.408203 10,20.607422 V 21 h 3 V 20.607422 L 12.107422,20.408203 12.841797,18 h 3.556641 L 17.320312,20.408203 16,20.607422 V 21 h 4 V 20.607422 L 18.822266,20.408203 15.53125,11 Z m 0.324219,1.763672 1.642578,4.25 H 13.251953 Z M 22.914062,14 C 22.305906,14 21.550989,14.0835 20.75,14.25 v 1.5 h 0.466797 l 0.251953,-0.873047 c 0.410382,-0.223578 0.913765,-0.333984 1.408203,-0.333984 0.365884,0 0.633587,0.1093 0.806641,0.328125 0.177996,0.21882 0.294922,0.558098 0.294922,1.019531 v 1.095703 l -1.273438,0.02734 c -0.751545,0.01427 -1.174761,0.114502 -1.570312,0.271484 -0.395549,0.152236 -0.686198,0.374991 -0.869141,0.669922 C 20.087628,18.245267 20,18.615341 20,19.062501 c 0,1.331975 0.595515,1.9375 1.787109,1.9375 0.875154,0 1.670717,-0.270203 2.234375,-0.8125 l 0.115235,0.8125 H 26 v -0.32422 L 25.5,20.496094 V 15.826172 C 25.495757,15.207769 25.300392,14.748911 24.939453,14.449219 24.583459,14.149525 23.675499,14 22.914062,14 Z M 24,17.509766 v 2.3125 c -0.247219,0.11417 -0.444187,0.210998 -0.691406,0.287109 -0.242275,0.07133 -0.382532,0.105469 -0.71875,0.105469 -0.707045,0 -1.060547,-0.348312 -1.060547,-1.185547 0,-0.523278 0.117224,-0.897514 0.349609,-1.121094 0.23733,-0.223566 0.536672,-0.345341 1.199219,-0.369141 z"
     style="fill:url(#linearGradient2);stroke-width:0.5"
     id="path619" />
  <path
     id="rect3"
     style="opacity:0.5;fill:url(#linearGradient5)"
     d="M 8 2 C 4.676 2 2 4.676 2 8 L 2 24 C 2 27.324 4.676 30 8 30 L 8 2 z " />
</svg>
