<?xml version="1.0" encoding="UTF-8" standalone="no"?>
<!-- Created with Inkscape (http://www.inkscape.org/) -->

<svg
   width="32"
   height="32"
   viewBox="0 0 32 32.000002"
   version="1.1"
   id="svg1"
   inkscape:version="1.4.2 (ebf0e940d0, 2025-05-08)"
   sodipodi:docname="org.gnome.Extensions.svg"
   xmlns:inkscape="http://www.inkscape.org/namespaces/inkscape"
   xmlns:sodipodi="http://sodipodi.sourceforge.net/DTD/sodipodi-0.dtd"
   xmlns:xlink="http://www.w3.org/1999/xlink"
   xmlns="http://www.w3.org/2000/svg"
   xmlns:svg="http://www.w3.org/2000/svg">
  <sodipodi:namedview
     id="namedview1"
     pagecolor="#ffffff"
     bordercolor="#000000"
     borderopacity="0.25"
     inkscape:showpageshadow="2"
     inkscape:pageopacity="0.0"
     inkscape:pagecheckerboard="0"
     inkscape:deskcolor="#d1d1d1"
     inkscape:document-units="px"
     inkscape:zoom="24.875"
     inkscape:cx="15.979899"
     inkscape:cy="16"
     inkscape:window-width="1920"
     inkscape:window-height="1011"
     inkscape:window-x="0"
     inkscape:window-y="0"
     inkscape:window-maximized="1"
     inkscape:current-layer="svg1" />
  <defs
     id="defs1">
    <linearGradient
       inkscape:collect="always"
       xlink:href="#4852"
       id="linearGradient4"
       x1="16"
       y1="30"
       x2="16"
       y2="2"
       gradientUnits="userSpaceOnUse" />
    <linearGradient
       inkscape:collect="always"
       id="4852">
      <stop
         style="stop-color:#272727;stop-opacity:1;"
         offset="0"
         id="stop14555" />
      <stop
         style="stop-color:#5d5d5d;stop-opacity:1;"
         offset="1"
         id="stop14557" />
    </linearGradient>
    <linearGradient
       inkscape:collect="always"
       xlink:href="#linearGradient1717"
       id="linearGradient2"
       x1="16"
       y1="30"
       x2="16"
       y2="2"
       gradientUnits="userSpaceOnUse" />
    <linearGradient
       inkscape:collect="always"
       id="linearGradient1717">
      <stop
         style="stop-color:#4ca90b;stop-opacity:1;"
         offset="0"
         id="stop1713" />
      <stop
         style="stop-color:#9ad77b;stop-opacity:1;"
         offset="1"
         id="stop1715" />
    </linearGradient>
  </defs>
  <rect
     style="fill:#000000;stroke-width:1.75;opacity:0.2"
     id="rect1"
     width="28"
     height="28"
     x="2"
     y="3"
     ry="6" />
  <rect
     style="fill:url(#linearGradient4)"
     id="rect2"
     width="28"
     height="28"
     x="2"
     y="2"
     ry="6" />
  <path
     id="rect7723"
     style="fill:url(#linearGradient2);stroke-linecap:round"
     d="m 15,6 c -1.661996,0 -3,1.338003 -3,3 v 1 H 9 c -1.108,0 -2,0.892 -2,2 v 3 h 1 c 1.661995,0 3,1.338006 3,3 0,1.661994 -1.338005,3 -3,3 H 7 v 3 c 0,1.108 0.892,2 2,2 h 3 v -1 c 0,-1.661994 1.338006,-3 3,-3 1.661994,0 3,1.338006 3,3 v 1 h 3 c 1.108,0 2,-0.892 2,-2 v -3 h 1 c 1.661996,0 3,-1.338004 3,-3 0,-1.661996 -1.338004,-3 -3,-3 h -1 v -3 c 0,-1.108 -0.892,-2 -2,-2 H 18 V 9 C 18,7.338003 16.661996,6 15,6 Z" />
</svg>
