<?xml version="1.0" encoding="UTF-8" standalone="no"?>
<!-- Created with Inkscape (http://www.inkscape.org/) -->

<svg
   width="32"
   height="32"
   viewBox="0 0 32 32.000002"
   version="1.1"
   id="svg1"
   inkscape:version="1.4.2 (ebf0e940d0, 2025-05-08)"
   sodipodi:docname="preferences-desktop-screensaver.svg"
   xmlns:inkscape="http://www.inkscape.org/namespaces/inkscape"
   xmlns:sodipodi="http://sodipodi.sourceforge.net/DTD/sodipodi-0.dtd"
   xmlns:xlink="http://www.w3.org/1999/xlink"
   xmlns="http://www.w3.org/2000/svg"
   xmlns:svg="http://www.w3.org/2000/svg">
  <sodipodi:namedview
     id="namedview1"
     pagecolor="#ffffff"
     bordercolor="#000000"
     borderopacity="0.25"
     inkscape:showpageshadow="2"
     inkscape:pageopacity="0.0"
     inkscape:pagecheckerboard="0"
     inkscape:deskcolor="#d1d1d1"
     inkscape:document-units="px"
     inkscape:zoom="24.5625"
     inkscape:cx="15.979644"
     inkscape:cy="16"
     inkscape:window-width="1920"
     inkscape:window-height="1011"
     inkscape:window-x="0"
     inkscape:window-y="0"
     inkscape:window-maximized="1"
     inkscape:current-layer="svg1" />
  <defs
     id="defs1">
    <linearGradient
       inkscape:collect="always"
       xlink:href="#4852"
       id="linearGradient4"
       x1="16"
       y1="30"
       x2="16"
       y2="2"
       gradientUnits="userSpaceOnUse" />
    <linearGradient
       inkscape:collect="always"
       id="4852">
      <stop
         style="stop-color:#272727;stop-opacity:1;"
         offset="0"
         id="stop14555" />
      <stop
         style="stop-color:#5d5d5d;stop-opacity:1;"
         offset="1"
         id="stop14557" />
    </linearGradient>
  </defs>
  <rect
     style="fill:#000000;stroke-width:1.75;opacity:0.2"
     id="rect1"
     width="28"
     height="28"
     x="2"
     y="3"
     ry="6" />
  <rect
     style="fill:url(#linearGradient4)"
     id="rect2"
     width="28"
     height="28"
     x="2"
     y="2"
     ry="6" />
  <path
     d="M 19.55,11.600001 19.289221,10.81078 18.5,10.550001 19.289221,10.289222 19.55,9.5 19.810779,10.289222 20.6,10.550001 19.810779,10.81078 Z m -5,0.02 L 14.02844,10.04156 12.45,9.520001 14.02844,8.998441 14.55,7.42 15.071559,8.998441 16.65,9.520001 15.071559,10.04156 Z m -6.1,2.43 L 7.5807337,11.419267 4.95,10.550001 7.5807337,9.680734 8.45,7.05 9.319266,9.680734 11.95,10.550001 9.319266,11.419267 Z m 12.646861,-1.650039 c 0.780797,0.94611 1.254305,2.155357 1.254305,3.477853 0,3.022739 -2.450448,5.473313 -5.473314,5.473313 -1.322496,0 -2.531718,-0.473495 -3.477852,-1.254292 0.661815,2.821015 3.191706,4.903165 6.214446,4.903165 C 23.14106,25.000001 26,22.14106 26,18.614447 26,15.59158 23.91785,13.061752 21.096836,12.400001 Z"
     style="fill:#ffffff"
     id="path1" />
</svg>
