<?xml version="1.0" encoding="UTF-8" standalone="no"?>
<!-- Created with Inkscape (http://www.inkscape.org/) -->

<svg
   width="32"
   height="32"
   viewBox="0 0 32 32.000002"
   version="1.1"
   id="svg1"
   inkscape:version="1.4.2 (ebf0e940d0, 2025-05-08)"
   sodipodi:docname="preferences-desktop-color.svg"
   xmlns:inkscape="http://www.inkscape.org/namespaces/inkscape"
   xmlns:sodipodi="http://sodipodi.sourceforge.net/DTD/sodipodi-0.dtd"
   xmlns:xlink="http://www.w3.org/1999/xlink"
   xmlns="http://www.w3.org/2000/svg"
   xmlns:svg="http://www.w3.org/2000/svg">
  <sodipodi:namedview
     id="namedview1"
     pagecolor="#ffffff"
     bordercolor="#000000"
     borderopacity="0.25"
     inkscape:showpageshadow="2"
     inkscape:pageopacity="0.0"
     inkscape:pagecheckerboard="0"
     inkscape:deskcolor="#d1d1d1"
     inkscape:document-units="px"
     inkscape:zoom="24.84375"
     inkscape:cx="16"
     inkscape:cy="16"
     inkscape:window-width="1920"
     inkscape:window-height="1010"
     inkscape:window-x="0"
     inkscape:window-y="0"
     inkscape:window-maximized="1"
     inkscape:current-layer="svg1" />
  <defs
     id="defs1">
    <linearGradient
       inkscape:collect="always"
       xlink:href="#4852"
       id="linearGradient4"
       x1="16"
       y1="30"
       x2="16"
       y2="2"
       gradientUnits="userSpaceOnUse" />
    <linearGradient
       inkscape:collect="always"
       id="4852">
      <stop
         style="stop-color:#272727;stop-opacity:1;"
         offset="0"
         id="stop14555" />
      <stop
         style="stop-color:#5d5d5d;stop-opacity:1;"
         offset="1"
         id="stop14557" />
    </linearGradient>
    <radialGradient
       inkscape:collect="always"
       xlink:href="#linearGradient10051"
       id="radialGradient1174"
       cx="14.852401"
       cy="30.071783"
       fx="14.852401"
       fy="30.071783"
       r="14"
       gradientUnits="userSpaceOnUse"
       gradientTransform="matrix(-0.85714278,-0.85714275,0.80812211,-0.80812208,16.784329,42.644236)" />
    <linearGradient
       inkscape:collect="always"
       id="linearGradient10051">
      <stop
         style="stop-color:#aa3ad4;stop-opacity:1"
         offset="0"
         id="stop10047" />
      <stop
         style="stop-color:#aa3ad4;stop-opacity:0"
         offset="1"
         id="stop10049" />
    </linearGradient>
    <radialGradient
       inkscape:collect="always"
       xlink:href="#linearGradient1603"
       id="radialGradient1208"
       gradientUnits="userSpaceOnUse"
       gradientTransform="matrix(0.85714278,-0.85714275,-0.80812211,-0.80812208,15.215671,42.644236)"
       cx="14.852401"
       cy="30.071783"
       fx="14.852401"
       fy="30.071783"
       r="14" />
    <linearGradient
       inkscape:collect="always"
       id="linearGradient1603">
      <stop
         style="stop-color:#ff910c;stop-opacity:1;"
         offset="0"
         id="stop1599" />
      <stop
         style="stop-color:#ff910c;stop-opacity:0;"
         offset="1"
         id="stop1601" />
    </linearGradient>
    <radialGradient
       inkscape:collect="always"
       xlink:href="#linearGradient5569"
       id="radialGradient1243"
       gradientUnits="userSpaceOnUse"
       gradientTransform="matrix(0.85714278,0.85714275,-0.80812211,0.80812208,15.215671,-10.644236)"
       cx="15.190269"
       cy="30.646524"
       fx="15.190269"
       fy="30.646524"
       r="14" />
    <linearGradient
       inkscape:collect="always"
       id="linearGradient5569">
      <stop
         style="stop-color:#f5cc24;stop-opacity:1;"
         offset="0"
         id="stop5565" />
      <stop
         style="stop-color:#f5cc24;stop-opacity:0.00045133"
         offset="1"
         id="stop5567" />
    </linearGradient>
    <radialGradient
       inkscape:collect="always"
       xlink:href="#linearGradient3954"
       id="radialGradient1278"
       gradientUnits="userSpaceOnUse"
       gradientTransform="matrix(-0.85714278,0.85714275,0.80812211,0.80812208,16.784329,-10.644236)"
       cx="15.190269"
       cy="30.646524"
       fx="15.190269"
       fy="30.646524"
       r="14" />
    <linearGradient
       inkscape:collect="always"
       id="linearGradient3954">
      <stop
         style="stop-color:#24c2f5;stop-opacity:1;"
         offset="0"
         id="stop3950" />
      <stop
         style="stop-color:#24c2f5;stop-opacity:0;"
         offset="1"
         id="stop3952" />
    </linearGradient>
    <radialGradient
       inkscape:collect="always"
       xlink:href="#linearGradient7221"
       id="radialGradient1313"
       gradientUnits="userSpaceOnUse"
       gradientTransform="matrix(1.1428571,0,0,-1.1428571,-2.285713,34.285714)"
       cx="16"
       cy="28.250002"
       fx="16"
       fy="28.250002"
       r="14" />
    <linearGradient
       inkscape:collect="always"
       id="linearGradient7221">
      <stop
         style="stop-color:#f43434;stop-opacity:1;"
         offset="0"
         id="stop7217" />
      <stop
         style="stop-color:#f43434;stop-opacity:0;"
         offset="1"
         id="stop7219" />
    </linearGradient>
    <radialGradient
       inkscape:collect="always"
       xlink:href="#linearGradient15132"
       id="radialGradient1348"
       gradientUnits="userSpaceOnUse"
       gradientTransform="matrix(0,1.1428571,-1.1428571,0,34.285714,-2.2857144)"
       cx="16"
       cy="28.250002"
       fx="16"
       fy="28.250002"
       r="14" />
    <linearGradient
       inkscape:collect="always"
       id="linearGradient15132">
      <stop
         style="stop-color:#f5e224;stop-opacity:1;"
         offset="0"
         id="stop15128" />
      <stop
         style="stop-color:#f5e224;stop-opacity:0;"
         offset="1"
         id="stop15130" />
    </linearGradient>
    <radialGradient
       inkscape:collect="always"
       xlink:href="#linearGradient12059"
       id="radialGradient991"
       cx="16"
       cy="28.250002"
       fx="16"
       fy="28.250002"
       r="14"
       gradientUnits="userSpaceOnUse"
       gradientTransform="matrix(1.1428571,0,0,1.1428571,-2.285713,-2.2857138)" />
    <linearGradient
       inkscape:collect="always"
       id="linearGradient12059">
      <stop
         style="stop-color:#47c12a;stop-opacity:1;"
         offset="0"
         id="stop12055" />
      <stop
         style="stop-color:#47c12a;stop-opacity:0;"
         offset="1"
         id="stop12057" />
    </linearGradient>
  </defs>
  <rect
     style="fill:#000000;stroke-width:1.75;opacity:0.2"
     id="rect1"
     width="28"
     height="28"
     x="2"
     y="3"
     ry="6" />
  <rect
     style="fill:url(#linearGradient4)"
     id="rect2"
     width="28"
     height="28"
     x="2"
     y="2"
     ry="6" />
  <path
     id="path416"
     style="fill:#ffffff;fill-opacity:1;stroke-width:1.26783;stroke-linecap:round;stroke-linejoin:round"
     d="m 16,6.0000002 c 0,0 -5.945398,9.6621298 -6,13.9999998 0,3.313705 2.686294,6 6,6 3.313705,0 6,-2.686295 6,-6 C 21.9976,15.366438 16,6.0000002 16,6.0000002 Z M 19.890625,19.082031 C 19.962439,19.382765 19.999143,19.690812 20,20 c 0,2.209139 -1.790861,4 -4,4 -0.300839,-0.0041 -0.600259,-0.04207 -0.892578,-0.113281 2.433164,-0.460981 4.333132,-2.369482 4.783203,-4.804688 z"
     sodipodi:nodetypes="ccsccccccc" />
  <path
     id="path371"
     style="fill:url(#radialGradient1174);fill-opacity:1;stroke-width:1;stroke-linecap:round;stroke-linejoin:round"
     d="m 16,6 c 0,0 -5.945398,9.66213 -6,14 0,3.313705 2.686294,6 6,6 3.313705,0 6,-2.686295 6,-6 C 21.9976,15.366438 16,6 16,6 Z m 3.890625,13.082031 C 19.962439,19.382765 19.999143,19.690812 20,20 c 0,2.209139 -1.790861,4 -4,4 -0.300839,-0.0041 -0.600259,-0.04207 -0.892578,-0.113281 2.433164,-0.460981 4.333132,-2.369482 4.783203,-4.804688 z" />
  <path
     id="path1184"
     style="fill:url(#radialGradient1208);fill-opacity:1;stroke-width:1;stroke-linecap:round;stroke-linejoin:round"
     d="m 16,6 c 0,0 -5.945398,9.66213 -6,14 0,3.313705 2.686294,6 6,6 3.313705,0 6,-2.686295 6,-6 C 21.9976,15.366438 16,6 16,6 Z m 3.890625,13.082031 C 19.962439,19.382765 19.999143,19.690812 20,20 c 0,2.209139 -1.790861,4 -4,4 -0.300839,-0.0041 -0.600259,-0.04207 -0.892578,-0.113281 2.433164,-0.460981 4.333132,-2.369482 4.783203,-4.804688 z" />
  <path
     id="path1219"
     style="fill:url(#radialGradient1243);fill-opacity:1;stroke-width:1;stroke-linecap:round;stroke-linejoin:round"
     d="m 16,6 c 0,0 -5.945398,9.66213 -6,14 0,3.313705 2.686294,6 6,6 3.313705,0 6,-2.686295 6,-6 C 21.9976,15.366438 16,6 16,6 Z m 3.890625,13.082031 C 19.962439,19.382765 19.999143,19.690812 20,20 c 0,2.209139 -1.790861,4 -4,4 -0.300839,-0.0041 -0.600259,-0.04207 -0.892578,-0.113281 2.433164,-0.460981 4.333132,-2.369482 4.783203,-4.804688 z" />
  <path
     id="path1254"
     style="fill:url(#radialGradient1278);fill-opacity:1;stroke-width:1;stroke-linecap:round;stroke-linejoin:round"
     d="m 16,6 c 0,0 -5.945398,9.66213 -6,14 0,3.313705 2.686294,6 6,6 3.313705,0 6,-2.686295 6,-6 C 21.9976,15.366438 16,6 16,6 Z m 3.890625,13.082031 C 19.962439,19.382765 19.999143,19.690812 20,20 c 0,2.209139 -1.790861,4 -4,4 -0.300839,-0.0041 -0.600259,-0.04207 -0.892578,-0.113281 2.433164,-0.460981 4.333132,-2.369482 4.783203,-4.804688 z" />
  <path
     id="path1289"
     style="fill:url(#radialGradient1313);fill-opacity:1;stroke-width:1;stroke-linecap:round;stroke-linejoin:round"
     d="m 16,6 c 0,0 -5.945398,9.66213 -6,14 0,3.313705 2.686294,6 6,6 3.313705,0 6,-2.686295 6,-6 C 21.9976,15.366438 16,6 16,6 Z m 3.890625,13.082031 C 19.962439,19.382765 19.999143,19.690812 20,20 c 0,2.209139 -1.790861,4 -4,4 -0.300839,-0.0041 -0.600259,-0.04207 -0.892578,-0.113281 2.433164,-0.460981 4.333132,-2.369482 4.783203,-4.804688 z" />
  <path
     id="path1324"
     style="fill:url(#radialGradient1348);fill-opacity:1;stroke-width:1;stroke-linecap:round;stroke-linejoin:round"
     d="m 16,6 c 0,0 -5.945398,9.66213 -6,14 0,3.313705 2.686294,6 6,6 3.313705,0 6,-2.686295 6,-6 C 21.9976,15.366438 16,6 16,6 Z m 3.890625,13.082031 C 19.962439,19.382765 19.999143,19.690812 20,20 c 0,2.209139 -1.790861,4 -4,4 -0.300839,-0.0041 -0.600259,-0.04207 -0.892578,-0.113281 2.433164,-0.460981 4.333132,-2.369482 4.783203,-4.804688 z" />
  <path
     id="path404"
     style="fill:url(#radialGradient991);fill-opacity:1;stroke-width:1;stroke-linecap:round;stroke-linejoin:round"
     d="m 16,6 c 0,0 -5.945398,9.66213 -6,14 0,3.313705 2.686294,6 6,6 3.313705,0 6,-2.686295 6,-6 C 21.9976,15.366438 16,6 16,6 Z m 3.890625,13.082031 C 19.962439,19.382765 19.999143,19.690812 20,20 c 0,2.209139 -1.790861,4 -4,4 -0.300839,-0.0041 -0.600259,-0.04207 -0.892578,-0.113281 2.433164,-0.460981 4.333132,-2.369482 4.783203,-4.804688 z" />
</svg>
