<?xml version="1.0" encoding="UTF-8" standalone="no"?>
<!-- Created with Inkscape (http://www.inkscape.org/) -->

<svg
   width="32"
   height="32"
   viewBox="0 0 32 32.000002"
   version="1.1"
   id="svg1"
   inkscape:version="1.4.2 (ebf0e940d0, 2025-05-08)"
   sodipodi:docname="preferences-system.svg"
   xmlns:inkscape="http://www.inkscape.org/namespaces/inkscape"
   xmlns:sodipodi="http://sodipodi.sourceforge.net/DTD/sodipodi-0.dtd"
   xmlns:xlink="http://www.w3.org/1999/xlink"
   xmlns="http://www.w3.org/2000/svg"
   xmlns:svg="http://www.w3.org/2000/svg">
  <sodipodi:namedview
     id="namedview1"
     pagecolor="#ffffff"
     bordercolor="#000000"
     borderopacity="0.25"
     inkscape:showpageshadow="2"
     inkscape:pageopacity="0.0"
     inkscape:pagecheckerboard="0"
     inkscape:deskcolor="#d1d1d1"
     inkscape:document-units="px"
     inkscape:zoom="24.84375"
     inkscape:cx="16"
     inkscape:cy="15.979874"
     inkscape:window-width="1920"
     inkscape:window-height="1011"
     inkscape:window-x="0"
     inkscape:window-y="0"
     inkscape:window-maximized="1"
     inkscape:current-layer="svg1" />
  <defs
     id="defs1">
    <linearGradient
       inkscape:collect="always"
       xlink:href="#linearGradient2116"
       id="linearGradient3"
       x1="16"
       y1="30"
       x2="16"
       y2="2"
       gradientUnits="userSpaceOnUse" />
    <linearGradient
       inkscape:collect="always"
       xlink:href="#4852"
       id="linearGradient4"
       x1="16"
       y1="30"
       x2="16"
       y2="2"
       gradientUnits="userSpaceOnUse" />
    <linearGradient
       inkscape:collect="always"
       id="4852">
      <stop
         style="stop-color:#272727;stop-opacity:1;"
         offset="0"
         id="stop14555" />
      <stop
         style="stop-color:#5d5d5d;stop-opacity:1;"
         offset="1"
         id="stop14557" />
    </linearGradient>
    <linearGradient
       inkscape:collect="always"
       id="linearGradient2116">
      <stop
         style="stop-color:#657481;stop-opacity:1;"
         offset="0"
         id="stop2112" />
      <stop
         style="stop-color:#9ba6b0;stop-opacity:1;"
         offset="1"
         id="stop2114" />
    </linearGradient>
  </defs>
  <rect
     style="fill:#000000;stroke-width:1.75;opacity:0.2"
     id="rect1"
     width="28"
     height="28"
     x="2"
     y="3"
     ry="6" />
  <rect
     style="fill:url(#linearGradient4)"
     id="rect2"
     width="28"
     height="28"
     x="2"
     y="2"
     ry="6" />
  <path
     id="rect1-2"
     style="opacity:1;fill:url(#linearGradient3)"
     d="M 19.048828 5.4101562 C 18.631392 5.4227698 18.262396 5.9031543 18.033203 6.3105469 L 17.044922 8.0664062 C 17.31059 8.1015822 17.577234 8.1498125 17.841797 8.2128906 C 18.063371 8.2657193 18.28425 8.3295903 18.503906 8.4023438 C 18.286885 8.330874 18.066582 8.2658428 17.841797 8.2128906 C 17.250608 8.0736253 16.633707 8 16 8 C 15.605412 8 15.219132 8.0346637 14.839844 8.0898438 C 14.879337 8.0840026 14.917427 8.0716581 14.957031 8.0664062 L 13.966797 6.3105469 C 13.780048 5.9785976 13.498907 5.5989721 13.175781 5.4628906 C 13.028905 5.4010356 12.87479 5.3888291 12.714844 5.4550781 L 10.867188 6.2207031 C 10.355358 6.4327094 10.436598 7.1774461 10.585938 7.7109375 L 11.128906 9.6523438 C 11.25422 9.5563746 11.381281 9.4651274 11.511719 9.3769531 C 11.800317 9.1818643 12.103605 9.0110625 12.414062 8.8554688 C 12.102642 9.0121147 11.798217 9.1824626 11.511719 9.3769531 C 10.751481 9.8930428 10.091306 10.540962 9.5488281 11.28125 C 9.5846321 11.23221 9.6135724 11.176962 9.6503906 11.128906 L 7.7109375 10.585938 C 7.177446 10.436598 6.4327097 10.355358 6.2207031 10.867188 L 5.4550781 12.714844 C 5.2430715 13.226673 5.8277135 13.695158 6.3105469 13.966797 L 8.0664062 14.955078 C 8.1015833 14.689401 8.1498095 14.422775 8.2128906 14.158203 C 8.2657189 13.936633 8.3295914 13.715745 8.4023438 13.496094 C 8.3308767 13.713107 8.2658416 13.933427 8.2128906 14.158203 C 8.0736213 14.7494 8 15.366284 8 16 C 8 16.394751 8.0346189 16.780719 8.0898438 17.160156 C 8.0840125 17.120724 8.0716499 17.082512 8.0664062 17.042969 L 6.3105469 18.033203 C 5.8277122 18.304879 5.2430711 18.773328 5.4550781 19.285156 L 6.2207031 21.132812 C 6.4327094 21.644642 7.1774444 21.563401 7.7109375 21.414062 L 9.6523438 20.871094 C 9.5567629 20.746288 9.4648023 20.620124 9.3769531 20.490234 C 9.1821575 20.20222 9.0128746 19.899648 8.8574219 19.589844 C 9.0138886 19.900502 9.1828137 20.2044 9.3769531 20.490234 C 9.8914394 21.24772 10.538187 21.905977 11.275391 22.447266 C 11.228273 22.412801 11.175114 22.385012 11.128906 22.349609 L 10.585938 24.289062 C 10.436597 24.822554 10.355358 25.567291 10.867188 25.779297 L 12.714844 26.544922 C 13.226673 26.756929 13.695158 26.172286 13.966797 25.689453 L 14.955078 23.933594 C 14.688506 23.8983 14.421707 23.850499 14.15625 23.787109 C 14.748262 23.926787 15.365327 24 16 24 C 16.392968 24 16.778449 23.966845 17.15625 23.912109 C 17.118197 23.917716 17.081125 23.928534 17.042969 23.933594 L 18.033203 25.689453 C 18.304842 26.172289 18.773327 26.75693 19.285156 26.544922 L 21.132812 25.779297 C 21.644642 25.567292 21.563404 24.822554 21.414062 24.289062 L 20.871094 22.347656 C 20.750856 22.439739 20.628869 22.528372 20.503906 22.613281 C 20.216058 22.808867 19.913259 22.980509 19.603516 23.136719 C 19.914609 22.979309 20.21781 22.808499 20.503906 22.613281 C 21.256057 22.100051 21.909147 21.455944 22.447266 20.722656 C 22.412492 20.770217 22.385338 20.82446 22.349609 20.871094 L 24.289062 21.414062 C 24.822554 21.563402 25.567291 21.644643 25.779297 21.132812 L 26.544922 19.285156 C 26.756929 18.773327 26.172288 18.304839 25.689453 18.033203 L 23.933594 17.044922 C 23.898404 17.310708 23.850228 17.577117 23.787109 17.841797 C 23.733818 18.065266 23.669264 18.288252 23.595703 18.509766 C 23.667909 18.291058 23.733718 18.068398 23.787109 17.841797 C 23.926428 17.250501 24 16.633833 24 16 C 24 15.605429 23.965332 15.219116 23.910156 14.839844 C 23.915997 14.879335 23.928342 14.917429 23.933594 14.957031 L 25.689453 13.966797 C 26.172288 13.695161 26.756929 13.226673 26.544922 12.714844 L 25.779297 10.867188 C 25.713047 10.707242 25.59486 10.605041 25.447266 10.544922 C 25.122557 10.412661 24.655838 10.483267 24.289062 10.585938 L 22.347656 11.128906 C 22.443668 11.254274 22.534837 11.381222 22.623047 11.511719 C 22.820921 11.804452 22.995118 12.112546 23.152344 12.427734 C 22.99395 12.111262 22.82046 11.802539 22.623047 11.511719 C 22.107679 10.752505 21.461657 10.092876 20.722656 9.5507812 C 20.770513 9.5857615 20.824175 9.6144437 20.871094 9.6503906 L 21.414062 7.7109375 C 21.563402 7.1774453 21.644642 6.4327097 21.132812 6.2207031 L 19.285156 5.4550781 C 19.205183 5.4219521 19.126131 5.4078204 19.048828 5.4101562 z M 14.591797 8.1367188 C 14.3201 8.1851231 14.052477 8.2471722 13.791016 8.3222656 C 14.054387 8.2462322 14.321222 8.1855212 14.591797 8.1367188 z M 13.421875 8.4394531 C 13.199373 8.5153257 12.982723 8.6008678 12.769531 8.6953125 C 12.983342 8.6007905 13.200591 8.5150522 13.421875 8.4394531 z M 18.835938 8.5253906 C 18.910963 8.5539145 18.985893 8.5784525 19.060547 8.609375 C 19.077452 8.6163773 19.092543 8.625709 19.109375 8.6328125 C 19.019236 8.5947151 18.927728 8.5602424 18.835938 8.5253906 z M 19.972656 9.0566406 C 20.034717 9.0919895 20.091534 9.1330968 20.152344 9.1699219 C 20.091838 9.1330494 20.034204 9.0919378 19.972656 9.0566406 z M 9.1699219 11.847656 C 9.1330513 11.90816 9.091936 11.965798 9.0566406 12.027344 C 9.0919895 11.965283 9.1330968 11.908466 9.1699219 11.847656 z M 16 12 C 18.209135 12 20 13.790866 20 16 C 20 18.209135 18.209135 20 16 20 C 13.790866 20 12 18.209135 12 16 C 12 13.790866 13.790866 12 16 12 z M 23.296875 12.75 C 23.396024 12.972686 23.485873 13.198863 23.564453 13.429688 C 23.485693 13.198016 23.395743 12.971576 23.296875 12.75 z M 8.6328125 12.890625 C 8.5947168 12.980761 8.5602409 13.072276 8.5253906 13.164062 C 8.5539139 13.089039 8.5784531 13.014105 8.609375 12.939453 C 8.6163773 12.922548 8.625709 12.907457 8.6328125 12.890625 z M 23.675781 13.787109 C 23.752526 14.052419 23.814177 14.321125 23.863281 14.59375 C 23.814495 14.319577 23.751737 14.050857 23.675781 13.787109 z M 8.1367188 17.404297 C 8.1853707 17.678031 8.2465299 17.94759 8.3222656 18.210938 C 8.2457699 17.94602 8.1856597 17.676498 8.1367188 17.404297 z M 8.4433594 18.589844 C 8.5163474 18.802732 8.5994356 19.010489 8.6894531 19.214844 C 8.5992346 19.009551 8.5161633 18.802007 8.4433594 18.589844 z M 23.480469 18.820312 C 23.450146 18.900562 23.42369 18.980721 23.390625 19.060547 C 23.383849 19.076905 23.374058 19.091132 23.367188 19.107422 C 23.40719 19.012704 23.444051 18.91685 23.480469 18.820312 z M 22.941406 19.974609 C 22.90882 20.031778 22.871731 20.084518 22.837891 20.140625 C 22.871767 20.084816 22.908867 20.031303 22.941406 19.974609 z M 11.869141 22.84375 C 11.920097 22.874577 11.96784 22.909739 12.019531 22.939453 C 11.967478 22.90973 11.920313 22.874514 11.869141 22.84375 z M 19.230469 23.302734 C 19.022304 23.394786 18.812924 23.480567 18.597656 23.554688 C 18.813297 23.480493 19.023609 23.394401 19.230469 23.302734 z M 12.898438 23.371094 C 12.931816 23.385157 12.966393 23.396534 13 23.410156 C 12.980028 23.402066 12.959398 23.398886 12.939453 23.390625 C 12.925274 23.384752 12.912565 23.377038 12.898438 23.371094 z M 18.205078 23.679688 C 17.955379 23.751585 17.701522 23.808022 17.445312 23.855469 C 17.703217 23.808255 17.956454 23.750998 18.205078 23.679688 z " />
  <path
     id="path285"
     style="fill:#ffffff;stroke-width:1.6;stroke-linecap:round;stroke-linejoin:round;opacity:0.3"
     d="m 16,8 c -4.418269,-1e-7 -8,3.581731 -8,8 -1e-7,4.418269 3.581731,8 8,8 4.418269,0 8,-3.581731 8,-8 0,-4.418269 -3.581731,-8.0000001 -8,-8 z m 0,4 c 2.209135,0 4,1.790866 4,4 0,2.209135 -1.790865,4 -4,4 -2.209134,0 -4,-1.790865 -4,-4 0,-2.209134 1.790866,-4 4,-4 z" />
</svg>
