<?xml version="1.0" encoding="UTF-8" standalone="no"?>
<!-- Created with Inkscape (http://www.inkscape.org/) -->

<svg
   width="32"
   height="32"
   viewBox="0 0 32 32.000002"
   version="1.1"
   id="svg1"
   inkscape:version="1.4.2 (ebf0e940d0, 2025-05-08)"
   sodipodi:docname="utilities-log-viewer.svg"
   xmlns:inkscape="http://www.inkscape.org/namespaces/inkscape"
   xmlns:sodipodi="http://sodipodi.sourceforge.net/DTD/sodipodi-0.dtd"
   xmlns:xlink="http://www.w3.org/1999/xlink"
   xmlns="http://www.w3.org/2000/svg"
   xmlns:svg="http://www.w3.org/2000/svg">
  <sodipodi:namedview
     id="namedview1"
     pagecolor="#ffffff"
     bordercolor="#000000"
     borderopacity="0.25"
     inkscape:showpageshadow="2"
     inkscape:pageopacity="0.0"
     inkscape:pagecheckerboard="0"
     inkscape:deskcolor="#d1d1d1"
     inkscape:document-units="px"
     inkscape:zoom="24.5625"
     inkscape:cx="15.979644"
     inkscape:cy="16"
     inkscape:window-width="1920"
     inkscape:window-height="1011"
     inkscape:window-x="0"
     inkscape:window-y="0"
     inkscape:window-maximized="1"
     inkscape:current-layer="svg1" />
  <defs
     id="defs1">
    <linearGradient
       inkscape:collect="always"
       xlink:href="#4852"
       id="linearGradient4"
       x1="16"
       y1="30"
       x2="16"
       y2="2"
       gradientUnits="userSpaceOnUse" />
    <linearGradient
       inkscape:collect="always"
       id="linearGradient1217">
      <stop
         style="stop-color:#96a3ad;stop-opacity:1;"
         offset="0"
         id="stop1213" />
      <stop
         style="stop-color:#c4c8cd;stop-opacity:1;"
         offset="1"
         id="stop1215" />
    </linearGradient>
    <linearGradient
       inkscape:collect="always"
       xlink:href="#linearGradient1217"
       id="linearGradient5"
       x1="16"
       y1="30"
       x2="16"
       y2="2"
       gradientUnits="userSpaceOnUse" />
    <linearGradient
       inkscape:collect="always"
       id="4852">
      <stop
         style="stop-color:#272727;stop-opacity:1;"
         offset="0"
         id="stop14555" />
      <stop
         style="stop-color:#5d5d5d;stop-opacity:1;"
         offset="1"
         id="stop14557" />
    </linearGradient>
  </defs>
  <rect
     style="fill:#000000;stroke-width:1.75;opacity:0.2"
     id="rect1"
     width="28"
     height="28"
     x="2"
     y="3"
     ry="6" />
  <rect
     style="fill:url(#linearGradient4)"
     id="rect2"
     width="28"
     height="28"
     x="2"
     y="2"
     ry="6" />
  <g
     id="g3"
     style="fill:url(#linearGradient5)">
    <path
       id="rect291"
       style="opacity:0.5;stroke-linecap:round;fill:url(#linearGradient5)"
       d="M 6.5,9 C 6.2230006,9 6,9.2230006 6,9.5 6,9.7769994 6.2230006,10 6.5,10 h 19 C 25.777,10 26,9.7769994 26,9.5 26,9.2230006 25.777,9 25.5,9 Z m 0,4 C 6.2230006,13 6,13.223 6,13.5 6,13.777 6.2230006,14 6.5,14 h 19 C 25.777,14 26,13.777 26,13.5 26,13.223 25.777,13 25.5,13 Z m 0,4 C 6.2230013,17 6,17.223 6,17.5 6,17.777 6.2230013,18 6.5,18 h 19 C 25.777,18 26,17.777 26,17.5 26,17.223 25.777,17 25.5,17 Z m 0,4 C 6.2230013,21 6,21.223 6,21.5 6,21.777 6.2230013,22 6.5,22 h 9 C 15.777,22 16,21.777 16,21.5 16,21.223 15.777,21 15.5,21 Z"
       sodipodi:nodetypes="ssssssssssssssssssssssssssss" />
    <path
       id="path557"
       style="stroke-width:1.2;stroke-linecap:round;fill-opacity:1;fill:url(#linearGradient5)"
       d="m 17,11 a 6,6 0 0 0 -6,6 6,6 0 0 0 6,6 6,6 0 0 0 3.474609,-1.111328 l 3.595703,3.595703 c 0.391737,0.391737 1.022326,0.391737 1.414063,0 0.391737,-0.391737 0.391737,-1.022326 0,-1.414063 L 21.888672,20.474609 A 6,6 0 0 0 23,17 6,6 0 0 0 17,11 Z m 0,2 a 4,4 0 0 1 4,4 4,4 0 0 1 -1.171875,2.828125 A 4,4 0 0 1 17,21 4,4 0 0 1 13,17 4,4 0 0 1 17,13 Z" />
  </g>
</svg>
