<?xml version="1.0" encoding="UTF-8" standalone="no"?>
<!-- Created with Inkscape (http://www.inkscape.org/) -->

<svg
   width="32"
   height="32"
   viewBox="0 0 32 32.000002"
   version="1.1"
   id="svg1"
   inkscape:version="1.4.2 (ebf0e940d0, 2025-05-08)"
   sodipodi:docname="webapp-manager.svg"
   xmlns:inkscape="http://www.inkscape.org/namespaces/inkscape"
   xmlns:sodipodi="http://sodipodi.sourceforge.net/DTD/sodipodi-0.dtd"
   xmlns:xlink="http://www.w3.org/1999/xlink"
   xmlns="http://www.w3.org/2000/svg"
   xmlns:svg="http://www.w3.org/2000/svg">
  <sodipodi:namedview
     id="namedview1"
     pagecolor="#ffffff"
     bordercolor="#000000"
     borderopacity="0.25"
     inkscape:showpageshadow="2"
     inkscape:pageopacity="0.0"
     inkscape:pagecheckerboard="0"
     inkscape:deskcolor="#d1d1d1"
     inkscape:document-units="px"
     inkscape:zoom="24.5625"
     inkscape:cx="15.979644"
     inkscape:cy="16"
     inkscape:window-width="1920"
     inkscape:window-height="1011"
     inkscape:window-x="0"
     inkscape:window-y="0"
     inkscape:window-maximized="1"
     inkscape:current-layer="svg1" />
  <defs
     id="defs1">
    <linearGradient
       inkscape:collect="always"
       xlink:href="#4852"
       id="linearGradient4"
       x1="16"
       y1="30"
       x2="16"
       y2="2"
       gradientUnits="userSpaceOnUse" />
    <linearGradient
       inkscape:collect="always"
       id="4852">
      <stop
         style="stop-color:#272727;stop-opacity:1;"
         offset="0"
         id="stop14555" />
      <stop
         style="stop-color:#5d5d5d;stop-opacity:1;"
         offset="1"
         id="stop14557" />
    </linearGradient>
  </defs>
  <rect
     style="fill:#000000;stroke-width:1.75;opacity:0.2"
     id="rect1"
     width="28"
     height="28"
     x="2"
     y="3"
     ry="6" />
  <rect
     style="fill:url(#linearGradient4)"
     id="rect2"
     width="28"
     height="28"
     x="2"
     y="2"
     ry="6" />
  <path
     style="fill:#2bb563"
     d="m 8.9999995,28 v 2 H 16 v -2 z"
     id="path7" />
  <path
     id="path8"
     style="fill:#5057eb"
     d="m 3.521187,28 c 1.097192,1.228736 2.694003,2 4.4785156,2 h 1 v -2 z" />
  <path
     id="path9"
     style="fill:#ffb73f"
     d="m 22.999703,28 v 2 h 1 c 1.784513,0 3.381324,-0.771264 4.478516,-2 z" />
  <path
     style="fill:#e8475b"
     d="m 16,28 v 2 h 7 v -2 z"
     id="path10" />
  <path
     d="m 17.333687,10 c -1.355251,0.002 -2.631507,0.637983 -3.449218,1.71875 -0.478089,-0.252083 -1.010305,-0.384132 -1.550782,-0.384766 -1.840695,-3.6e-4 -3.3332654,1.491337 -3.3339844,3.332032 0.0011,0.229814 0.02598,0.458896 0.07422,0.683593 C 7.8938238,15.481473 7.0009722,16.478575 6.9997027,17.666016 6.9993431,18.955189 8.0445146,20.00036 9.3336876,20 c 0.305781,-9.59e-4 0.608392,-0.06201 0.8906244,-0.179688 -0.137748,-0.36123 -0.2246094,-0.746404 -0.2246094,-1.154296 0,-1.302481 0.7868414,-2.385471 1.8964844,-2.917969 0.312769,-0.170582 0.65707,-0.285517 1.023438,-0.337891 0.250241,-1.085111 0.900458,-2.01415 1.783203,-2.630859 C 15.345131,12.2978 16.129488,12 16.999703,12 c 6.51e-4,10e-7 0.0013,10e-7 0.002,0 0.0265,2.8e-5 0.05176,0.0052 0.07813,0.0059 0.01931,-2.55e-4 0.03726,-0.0059 0.05664,-0.0059 1.231273,0.0013 2.310318,0.606372 3.132812,1.482422 0.2382,-0.07662 0.477203,-0.147785 0.728516,-0.148438 6.51e-4,1e-6 0.0013,1e-6 0.002,0 0.0495,0 0.09571,0.01111 0.144531,0.01367 0.02712,-0.0019 0.05262,-0.0136 0.08008,-0.01367 h 0.002 c 0.111457,0 0.217497,0.01948 0.326172,0.0293 C 21.100741,11.396705 19.35147,10.002147 17.333687,10 Z m -0.197265,3 c -1.883465,-5.76e-4 -3.410525,1.492374 -3.410157,3.333984 6.13e-4,0.0091 0.0013,0.01823 0.002,0.02734 -0.113114,-0.01712 -0.227341,-0.02626 -0.341797,-0.02734 -1.317617,-1.92e-4 -2.38603,1.04374 -2.386765,2.332032 -3.68e-4,1.289054 1.068368,2.334176 2.386719,2.333984 h 10.568359 c 1.129465,-2.88e-4 2.044922,-0.895634 2.044922,-2 0,-1.104366 -0.915457,-1.999712 -2.044922,-2 -3.67e-4,-1.47298 -1.222059,-2.666688 -2.728516,-2.666016 -0.409274,7.27e-4 -0.813133,0.09151 -1.18164,0.265625 C 19.426587,13.607269 18.324689,13.001188 17.136422,13 Z"
     style="fill:#ffffff"
     id="path3207" />
</svg>
