<?xml version="1.0" encoding="UTF-8" standalone="no"?>
<!-- Created with Inkscape (http://www.inkscape.org/) -->

<svg
   width="32"
   height="32"
   viewBox="0 0 32 32.000002"
   version="1.1"
   id="svg1"
   inkscape:version="1.4.2 (ebf0e940d0, 2025-05-08)"
   sodipodi:docname="youtube-dl.svg"
   xmlns:inkscape="http://www.inkscape.org/namespaces/inkscape"
   xmlns:sodipodi="http://sodipodi.sourceforge.net/DTD/sodipodi-0.dtd"
   xmlns:xlink="http://www.w3.org/1999/xlink"
   xmlns="http://www.w3.org/2000/svg"
   xmlns:svg="http://www.w3.org/2000/svg">
  <sodipodi:namedview
     id="namedview1"
     pagecolor="#ffffff"
     bordercolor="#000000"
     borderopacity="0.25"
     inkscape:showpageshadow="2"
     inkscape:pageopacity="0.0"
     inkscape:pagecheckerboard="0"
     inkscape:deskcolor="#d1d1d1"
     inkscape:document-units="px"
     inkscape:zoom="24.5625"
     inkscape:cx="16.020356"
     inkscape:cy="15.979644"
     inkscape:window-width="1920"
     inkscape:window-height="1010"
     inkscape:window-x="0"
     inkscape:window-y="0"
     inkscape:window-maximized="1"
     inkscape:current-layer="svg1" />
  <defs
     id="defs1">
    <linearGradient
       inkscape:collect="always"
       xlink:href="#4852"
       id="linearGradient4"
       x1="16"
       y1="30"
       x2="16"
       y2="2"
       gradientUnits="userSpaceOnUse" />
    <linearGradient
       inkscape:collect="always"
       id="4852">
      <stop
         style="stop-color:#272727;stop-opacity:1;"
         offset="0"
         id="stop14555" />
      <stop
         style="stop-color:#5d5d5d;stop-opacity:1;"
         offset="1"
         id="stop14557" />
    </linearGradient>
  </defs>
  <rect
     style="fill:#000000;stroke-width:1.75;opacity:0.2"
     id="rect1"
     width="28"
     height="28"
     x="2"
     y="3"
     ry="6" />
  <rect
     style="fill:url(#linearGradient4)"
     id="rect2"
     width="28"
     height="28"
     x="2"
     y="2"
     ry="6" />
  <path
     id="path1633"
     style="fill:#ff0000;fill-opacity:1;stroke-width:0.148643"
     d="M 16 10 C 16 10 10.551219 10.000576 9.0644531 10.353516 C 8.2662941 10.551156 7.6097272 11.142841 7.390625 11.876953 C 6.9993708 13.218123 7 16 7 16 C 7 16 6.9993708 18.795993 7.390625 20.123047 C 7.6097282 20.857159 8.2506451 21.435169 9.0644531 21.632812 C 10.566868 21.999871 16 22 16 22 C 16 22 21.446828 21.999422 22.933594 21.646484 C 23.747404 21.448844 24.388318 20.870831 24.607422 20.136719 C 24.998676 18.795547 25 16.013672 25 16.013672 C 25 16.013672 25.014198 13.218123 24.607422 11.876953 C 24.388318 11.142841 23.747404 10.564833 22.933594 10.367188 C 21.446828 10.000132 16 10 16 10 z M 15 12 L 17 12 L 17 17 L 19 17 L 16 20 L 13 17 L 15 17 L 15 12 z " />
</svg>
