<?xml version="1.0" encoding="UTF-8" standalone="no"?>
<!-- Created with Inkscape (http://www.inkscape.org/) -->

<svg
   width="22"
   height="22"
   viewBox="0 0 22 22.000002"
   version="1.1"
   id="svg1"
   inkscape:version="1.4.2 (ebf0e940d0, 2025-05-08)"
   sodipodi:docname="audacity.svg"
   xmlns:inkscape="http://www.inkscape.org/namespaces/inkscape"
   xmlns:sodipodi="http://sodipodi.sourceforge.net/DTD/sodipodi-0.dtd"
   xmlns:xlink="http://www.w3.org/1999/xlink"
   xmlns="http://www.w3.org/2000/svg"
   xmlns:svg="http://www.w3.org/2000/svg">
  <sodipodi:namedview
     id="namedview1"
     pagecolor="#ffffff"
     bordercolor="#000000"
     borderopacity="0.25"
     inkscape:showpageshadow="2"
     inkscape:pageopacity="0.0"
     inkscape:pagecheckerboard="0"
     inkscape:deskcolor="#d1d1d1"
     inkscape:document-units="px"
     inkscape:zoom="36.136364"
     inkscape:cx="11"
     inkscape:cy="11"
     inkscape:window-width="1920"
     inkscape:window-height="1010"
     inkscape:window-x="0"
     inkscape:window-y="0"
     inkscape:window-maximized="1"
     inkscape:current-layer="svg1" />
  <defs
     id="defs1">
    <linearGradient
       inkscape:collect="always"
       xlink:href="#linearGradient1161"
       id="linearGradient4"
       x1="16"
       y1="30"
       x2="16"
       y2="2"
       gradientUnits="userSpaceOnUse"
       gradientTransform="matrix(0.71428571,0,0,0.71428571,-0.42857143,-0.42857143)" />
    <linearGradient
       inkscape:collect="always"
       xlink:href="#linearGradient3010"
       id="linearGradient8315"
       x1="5.5"
       y1="13.500461"
       x2="16.5"
       y2="13.500461"
       gradientUnits="userSpaceOnUse" />
    <linearGradient
       inkscape:collect="always"
       id="linearGradient3010">
      <stop
         style="stop-color:#f2c204;stop-opacity:1;"
         offset="0"
         id="stop3006" />
      <stop
         style="stop-color:#f26c04;stop-opacity:1;"
         offset="1"
         id="stop3008" />
    </linearGradient>
    <linearGradient
       inkscape:collect="always"
       id="linearGradient1161">
      <stop
         style="stop-color:#1d49bf;stop-opacity:1;"
         offset="0"
         id="stop1157" />
      <stop
         style="stop-color:#689ddc;stop-opacity:1;"
         offset="1"
         id="stop1159" />
    </linearGradient>
  </defs>
  <rect
     style="opacity:0.2;fill:#000000;stroke-width:1.75"
     id="rect1"
     width="20"
     height="20"
     x="1"
     y="1.5"
     ry="4" />
  <rect
     style="fill:url(#linearGradient4);stroke-width:0.714286"
     id="rect2"
     width="20"
     height="20"
     x="1"
     y="1"
     ry="4" />
  <path
     id="rect344"
     style="fill:#ffffff;stroke-width:2;stroke-linecap:round;stroke-linejoin:round"
     d="M 11,4 C 8.2300069,4 6,6.2300088 6,9 v 5 H 7 V 9 c 0,-2.215993 1.7840052,-4 4,-4 2.215994,1e-7 4,1.784007 4,4 v 5 h 1 V 9 C 16,6.2300088 13.769992,4.0000001 11,4 Z" />
  <path
     style="color:#000000;fill:url(#linearGradient8315);fill-opacity:1;stroke:none;stroke-linecap:square;stroke-linejoin:round;-inkscape-stroke:none"
     d="m 10.976563,10 a 0.50005,0.50005 0 0 0 -0.470704,0.417969 l -0.646484,3.876953 -0.8808594,-2.9375 A 0.50005,0.50005 0 0 0 8.0527344,11.277344 L 7.1914062,13 H 6 5.5 v 1 H 6 7.5 a 0.50005,0.50005 0 0 0 0.4472656,-0.277344 l 0.4355469,-0.871093 1.1386719,3.792968 a 0.50005,0.50005 0 0 0 0.9726566,-0.0625 l 0.615234,-3.693359 0.90625,3.445312 a 0.50005,0.50005 0 0 0 0.974609,-0.0332 l 0.677735,-3.53125 0.367187,0.916016 A 0.50005,0.50005 0 0 0 14.5,14 H 16 16.5 V 13 H 16 14.837891 l -0.873047,-2.185547 a 0.50005,0.50005 0 0 0 -0.955078,0.0918 L 12.423828,13.951175 11.484375,10.37305 A 0.50005,0.50005 0 0 0 10.976563,10 Z"
     id="path8282" />
  <rect
     style="fill:#c4c4c4;fill-opacity:1;stroke-width:2.64575;stroke-linecap:round;stroke-linejoin:round"
     id="rect502"
     width="1"
     height="7"
     x="15"
     y="10" />
  <path
     id="rect2891"
     style="fill:#ffffff;fill-opacity:1;stroke-width:2.44949;stroke-linecap:round;stroke-linejoin:round"
     d="m 6,10 c -1.1079989,0 -2,1.338002 -2,3 v 1 c 0,1.661998 0.8920011,3 2,3 z" />
  <rect
     style="fill:#c4c4c4;fill-opacity:1;stroke-width:2.64575;stroke-linecap:round;stroke-linejoin:round"
     id="rect401"
     width="1"
     height="7"
     x="6.0000005"
     y="10" />
  <path
     id="rect3800"
     style="fill:#ffffff;stroke-linecap:square;stroke-linejoin:round"
     d="m 16,10 c 1.107999,0 2,1.338002 2,3 v 1 c 0,1.661998 -0.892001,3 -2,3 z" />
</svg>
