<?xml version="1.0" encoding="UTF-8" standalone="no"?>
<!-- Created with Inkscape (http://www.inkscape.org/) -->

<svg
   width="22"
   height="22"
   viewBox="0 0 22 22.000002"
   version="1.1"
   id="svg1"
   inkscape:version="1.4.2 (ebf0e940d0, 2025-05-08)"
   sodipodi:docname="beamng-drive.svg"
   xmlns:inkscape="http://www.inkscape.org/namespaces/inkscape"
   xmlns:sodipodi="http://sodipodi.sourceforge.net/DTD/sodipodi-0.dtd"
   xmlns:xlink="http://www.w3.org/1999/xlink"
   xmlns="http://www.w3.org/2000/svg"
   xmlns:svg="http://www.w3.org/2000/svg">
  <sodipodi:namedview
     id="namedview1"
     pagecolor="#ffffff"
     bordercolor="#000000"
     borderopacity="0.25"
     inkscape:showpageshadow="2"
     inkscape:pageopacity="0.0"
     inkscape:pagecheckerboard="0"
     inkscape:deskcolor="#d1d1d1"
     inkscape:document-units="px"
     inkscape:zoom="35.727273"
     inkscape:cx="10.986005"
     inkscape:cy="11"
     inkscape:window-width="1920"
     inkscape:window-height="1011"
     inkscape:window-x="0"
     inkscape:window-y="0"
     inkscape:window-maximized="1"
     inkscape:current-layer="svg1" />
  <defs
     id="defs1">
    <linearGradient
       inkscape:collect="always"
       id="linearGradient1606">
      <stop
         style="stop-color:#eaebed;stop-opacity:1;"
         offset="0"
         id="stop1602" />
      <stop
         style="stop-color:#f9fafa;stop-opacity:1;"
         offset="1"
         id="stop1604" />
    </linearGradient>
    <linearGradient
       inkscape:collect="always"
       xlink:href="#linearGradient1606"
       id="linearGradient4"
       x1="16"
       y1="30"
       x2="16"
       y2="2"
       gradientUnits="userSpaceOnUse"
       gradientTransform="matrix(0.71428571,0,0,0.71428571,-0.42857141,-0.42857143)" />
  </defs>
  <rect
     style="opacity:0.2;fill:#000000;stroke-width:1.75"
     id="rect1"
     width="20"
     height="20"
     x="1"
     y="1.5"
     ry="4" />
  <rect
     style="fill:url(#linearGradient4);stroke-width:0.714286"
     id="rect2"
     width="20"
     height="20"
     x="1"
     y="1"
     ry="4" />
  <path
     d="M 14.247071,6 A 0.750075,0.750075 0 0 0 13.829102,6.1289065 L 6.8291015,10.878906 a 0.750075,0.750075 0 0 0 0.118164,1.307618 l 8.4999995,3.749999 a 0.750075,0.750075 0 0 0 1.041016,-0.816406 l -1.5,-8.5 A 0.750075,0.750075 0 0 0 14.247071,6 Z m -0.53418,2.0214845 1.054687,5.9746095 -5.975586,-2.635742 z"
     style="fill:#353535;stroke-width:0.5"
     id="path2" />
  <path
     id="path5"
     style="fill:#fe7d2a;stroke-width:0.5"
     d="M 14.25,5 A 1.75,1.75 0 0 0 12.5,6.75 1.75,1.75 0 0 0 14.25,8.5 1.75,1.75 0 0 0 16,6.75 1.75,1.75 0 0 0 14.25,5 Z M 7.5,8 A 3.5,3.5 0 0 0 4,11.5 3.5,3.5 0 0 0 7.5,15 3.5,3.5 0 0 0 11,11.5 3.5,3.5 0 0 0 7.5,8 Z m 8,5 A 2.5,2.5 0 0 0 13,15.5 2.5,2.5 0 0 0 15.5,18 2.5,2.5 0 0 0 18,15.5 2.5,2.5 0 0 0 15.5,13 Z" />
</svg>
