<?xml version="1.0" encoding="UTF-8" standalone="no"?>
<!-- Created with Inkscape (http://www.inkscape.org/) -->

<svg
   width="22"
   height="22"
   viewBox="0 0 22 22.000002"
   version="1.1"
   id="svg1"
   inkscape:version="1.4 (e7c3feb100, 2024-10-09)"
   sodipodi:docname="calls-app.svg"
   xmlns:inkscape="http://www.inkscape.org/namespaces/inkscape"
   xmlns:sodipodi="http://sodipodi.sourceforge.net/DTD/sodipodi-0.dtd"
   xmlns:xlink="http://www.w3.org/1999/xlink"
   xmlns="http://www.w3.org/2000/svg"
   xmlns:svg="http://www.w3.org/2000/svg">
  <sodipodi:namedview
     id="namedview1"
     pagecolor="#ffffff"
     bordercolor="#000000"
     borderopacity="0.25"
     inkscape:showpageshadow="2"
     inkscape:pageopacity="0.0"
     inkscape:pagecheckerboard="0"
     inkscape:deskcolor="#d1d1d1"
     inkscape:document-units="px"
     inkscape:zoom="36.727273"
     inkscape:cx="10.986386"
     inkscape:cy="11"
     inkscape:window-width="1920"
     inkscape:window-height="1011"
     inkscape:window-x="0"
     inkscape:window-y="0"
     inkscape:window-maximized="1"
     inkscape:current-layer="svg1" />
  <defs
     id="defs1">
    <linearGradient
       inkscape:collect="always"
       xlink:href="#linearGradient1717"
       id="linearGradient4"
       x1="16"
       y1="30"
       x2="16"
       y2="2"
       gradientUnits="userSpaceOnUse"
       gradientTransform="matrix(0.71428571,0,0,0.71428571,-0.42857143,-0.42857143)" />
    <linearGradient
       inkscape:collect="always"
       id="linearGradient1717">
      <stop
         style="stop-color:#4ca90b;stop-opacity:1;"
         offset="0"
         id="stop1713" />
      <stop
         style="stop-color:#9ad77b;stop-opacity:1;"
         offset="1"
         id="stop1715" />
    </linearGradient>
  </defs>
  <rect
     style="opacity:0.2;fill:#000000;stroke-width:1.75"
     id="rect1"
     width="20"
     height="20"
     x="1"
     y="1.5"
     ry="4" />
  <rect
     style="fill:url(#linearGradient4);stroke-width:0.714286"
     id="rect2"
     width="20"
     height="20"
     x="1"
     y="1"
     ry="4" />
  <path
     id="rect788"
     style="fill:#ffffff"
     d="M 4.4160156,4.8554688 C 3.682422,5.5890623 3.2602622,7.9438556 5.8300781,10.513672 l 5.6562499,5.65625 c 2.569816,2.569816 4.92461,2.147655 5.658203,1.414062 l -3.535156,-3.535156 c -0.391736,0.391735 -1.024281,0.391735 -1.416016,0 L 7.9511719,9.806641 c -0.3917351,-0.391735 -0.3917351,-1.024281 0,-1.416016 z" />
  <path
     id="path1"
     style="opacity:0.5;fill:#ffffff"
     d="m 5.8300781,3.8535156 c -0.25562,0 -0.5111632,0.09905 -0.7070312,0.2949219 L 4.4160156,4.8554688 4.8066406,7.8066406 7.9511719,8.390625 8.6582031,7.6835938 c 0.391737,-0.391736 0.391737,-1.0223265 0,-1.4140626 L 6.5371094,4.1484375 C 6.3412414,3.9525695 6.0856971,3.8535156 5.8300781,3.8535156 Z m 9.1933599,9.1933594 c -0.255621,0 -0.511164,0.09905 -0.707032,0.294922 L 13.609375,14.048828 14,17 l 3.144531,0.583984 0.707031,-0.707031 c 0.391737,-0.391736 0.391737,-1.022326 0,-1.414062 l -2.121093,-2.121094 c -0.195868,-0.195868 -0.451412,-0.294922 -0.707031,-0.294922 z" />
</svg>
