<?xml version="1.0" encoding="UTF-8" standalone="no"?>
<!-- Created with Inkscape (http://www.inkscape.org/) -->

<svg
   width="22"
   height="22"
   viewBox="0 0 22 22.000002"
   version="1.1"
   id="svg1"
   inkscape:version="1.4 (e7c3feb100, 2024-10-09)"
   sodipodi:docname="firewall-config.svg"
   xmlns:inkscape="http://www.inkscape.org/namespaces/inkscape"
   xmlns:sodipodi="http://sodipodi.sourceforge.net/DTD/sodipodi-0.dtd"
   xmlns:xlink="http://www.w3.org/1999/xlink"
   xmlns="http://www.w3.org/2000/svg"
   xmlns:svg="http://www.w3.org/2000/svg">
  <sodipodi:namedview
     id="namedview1"
     pagecolor="#ffffff"
     bordercolor="#000000"
     borderopacity="0.25"
     inkscape:showpageshadow="2"
     inkscape:pageopacity="0.0"
     inkscape:pagecheckerboard="0"
     inkscape:deskcolor="#d1d1d1"
     inkscape:document-units="px"
     inkscape:zoom="35.727273"
     inkscape:cx="10.986005"
     inkscape:cy="11"
     inkscape:window-width="1920"
     inkscape:window-height="1011"
     inkscape:window-x="0"
     inkscape:window-y="0"
     inkscape:window-maximized="1"
     inkscape:current-layer="svg1" />
  <defs
     id="defs1">
    <linearGradient
       inkscape:collect="always"
       xlink:href="#linearGradient918"
       id="linearGradient4"
       x1="16"
       y1="30"
       x2="16"
       y2="2"
       gradientUnits="userSpaceOnUse"
       gradientTransform="matrix(0.71428571,0,0,0.71428571,-0.42857143,-0.42857143)" />
    <linearGradient
       inkscape:collect="always"
       id="linearGradient918">
      <stop
         style="stop-color:#923b26;stop-opacity:1;"
         offset="0"
         id="stop914" />
      <stop
         style="stop-color:#c17b6e;stop-opacity:1;"
         offset="1"
         id="stop916" />
    </linearGradient>
  </defs>
  <rect
     style="opacity:0.2;fill:#000000;stroke-width:1.75"
     id="rect1"
     width="20"
     height="20"
     x="1"
     y="1.5"
     ry="4" />
  <rect
     style="fill:url(#linearGradient4);stroke-width:0.714286"
     id="rect2"
     width="20"
     height="20"
     x="1"
     y="1"
     ry="4" />
  <path
     id="rect972"
     style="opacity:0.5;fill:#ffffff;stroke-linecap:square;stroke-linejoin:round"
     d="M 5 1 C 4.6538361 1 4.319927 1.0469938 4 1.1289062 L 4 3 L 1.5351562 3 C 1.1961324 3.5880082 1 4.2698147 1 5 L 1 9 L 4 9 L 4 13 L 1 13 L 1 17 C 1 17.730185 1.1961324 18.411992 1.5351562 19 L 4 19 L 4 20.871094 C 4.319927 20.953006 4.6538361 21 5 21 L 5 19 L 10 19 L 10 21 L 11 21 L 11 19 L 16 19 L 16 21 L 17 21 L 17 19 L 20.464844 19 C 20.643144 18.690753 20.780223 18.354915 20.871094 18 L 20 18 L 20 14 L 21 14 L 21 13 L 17 13 L 17 9 L 21 9 L 21 8.0351562 C 20.994668 8.02345 20.986578 8.0116929 20.986328 8 L 20 8 L 20 4 L 20.871094 4 C 20.780223 3.6450848 20.643144 3.3092472 20.464844 3 L 17 3 L 17 1 L 16 1 L 16 3 L 11 3 L 11 1 L 10 1 L 10 3 L 5 3 L 5 1 z M 2 4 L 7 4 L 7 8 L 2 8 L 2 4 z M 8 4 L 13 4 L 13 8 L 8 8 L 8 4 z M 14 4 L 19 4 L 19 8 L 14 8 L 14 4 z M 5 9 L 10 9 L 10 13 L 5 13 L 5 9 z M 11 9 L 16 9 L 16 13 L 11 13 L 11 9 z M 2 14 L 7 14 L 7 18 L 2 18 L 2 14 z M 8 14 L 13 14 L 13 18 L 8 18 L 8 14 z M 14 14 L 19 14 L 19 18 L 14 18 L 14 14 z " />
</svg>
