<?xml version="1.0" encoding="UTF-8" standalone="no"?>
<!-- Created with Inkscape (http://www.inkscape.org/) -->

<svg
   width="22"
   height="22"
   viewBox="0 0 22 22.000002"
   version="1.1"
   id="svg1"
   inkscape:version="1.4.2 (ebf0e940d0, 2025-05-08)"
   sodipodi:docname="gimp.svg"
   xmlns:inkscape="http://www.inkscape.org/namespaces/inkscape"
   xmlns:sodipodi="http://sodipodi.sourceforge.net/DTD/sodipodi-0.dtd"
   xmlns:xlink="http://www.w3.org/1999/xlink"
   xmlns="http://www.w3.org/2000/svg"
   xmlns:svg="http://www.w3.org/2000/svg">
  <sodipodi:namedview
     id="namedview1"
     pagecolor="#ffffff"
     bordercolor="#000000"
     borderopacity="0.25"
     inkscape:showpageshadow="2"
     inkscape:pageopacity="0.0"
     inkscape:pagecheckerboard="0"
     inkscape:deskcolor="#d1d1d1"
     inkscape:document-units="px"
     inkscape:zoom="35.727273"
     inkscape:cx="10.986005"
     inkscape:cy="11"
     inkscape:window-width="1920"
     inkscape:window-height="1011"
     inkscape:window-x="0"
     inkscape:window-y="0"
     inkscape:window-maximized="1"
     inkscape:current-layer="svg1" />
  <defs
     id="defs1">
    <linearGradient
       inkscape:collect="always"
       xlink:href="#linearGradient3"
       id="linearGradient4"
       x1="16"
       y1="30"
       x2="16"
       y2="2"
       gradientUnits="userSpaceOnUse"
       gradientTransform="matrix(0.71428571,0,0,0.71428571,-0.42857143,-0.42857143)" />
    <linearGradient
       inkscape:collect="always"
       id="linearGradient3">
      <stop
         style="stop-color:#cfc6be;stop-opacity:1;"
         offset="0"
         id="stop1" />
      <stop
         style="stop-color:#f0ecec;stop-opacity:1;"
         offset="1"
         id="stop2" />
    </linearGradient>
  </defs>
  <rect
     style="opacity:0.2;fill:#000000;stroke-width:1.75"
     id="rect1"
     width="20"
     height="20"
     x="1"
     y="1.5"
     ry="4" />
  <rect
     style="fill:url(#linearGradient4);stroke-width:0.714286"
     id="rect2"
     width="20"
     height="20"
     x="1"
     y="1"
     ry="4" />
  <path
     d="m 18.468795,4.042578 c -0.13244,-0.021 -0.25143,0.0537 -0.32297,0.13878 -0.0715,0.0851 -0.12116,0.19061 -0.16439,0.32354 -0.0747,0.23002 -0.34927,1.08383 -1.3392,1.9277 -0.98992,0.84392 -2.697,1.98125 -5.65568,2.05737 -1.7990704,0.0211 -2.7946604,-1.28578 -3.5120504,-2.70535 -0.17903,-0.35428 -0.47449,-1.01449 -0.47449,-0.5944 v 0.64951 l -0.009,3.86204 0.0183,0.0442 c 0,0 0.16118,0.35802 -0.009,0.84038 -0.1703,0.4824 -1.05247,1.18635 -2.55336,1.63683 l -0.18348,0.0545 0.0349,0.19322 c 0.0832,0.46809 0.41509,0.94783 0.90497,1.43899 0.48989,0.49112 1.14581,0.988 1.90959,1.43722 1.52756,0.89845 3.4840804,1.60842 5.3850204,1.6416 1.90094,0.0333 3.76084,-0.63149 4.99148,-2.47263 1.23065,-1.84109 1.83082,-5.35484 1.3392,-9.93122 h -8.4e-4 c -0.0156,-0.12564 -0.0433,-0.23293 -0.093,-0.32695 -0.0496,-0.094 -0.13323,-0.19103 -0.26568,-0.212 z"
     style="fill:#8c8073;fill-rule:evenodd;fill-opacity:1"
     id="path2935" />
  <path
     id="path2596"
     style="opacity:1;fill-rule:evenodd;fill:#333333"
     d="M 12.166016 12.990234 C 12.166016 12.990234 12.09484 13.301388 12.28125 13.585938 C 11.84057 13.988128 10.968183 13.917634 9.9765625 13.990234 C 9.3796425 14.033134 8.72186 13.990234 8 13.990234 C 9.12495 14.459704 10.091239 15.009081 10.849609 14.988281 C 11.562069 14.968601 12.090908 14.607969 12.398438 14.105469 C 12.441198 14.303349 12.547587 14.490341 12.716797 14.988281 C 12.792807 14.421331 13.184961 14.148208 12.894531 13.705078 C 12.603261 13.260718 12.166016 12.990234 12.166016 12.990234 z " />
  <path
     d="m 7.9996346,7.98989 c -0.49478,0 -0.99205,0.16357 -1.37062,0.50008 -0.37858,0.33652 -0.62901,0.84936 -0.62901,1.50028 0,0.65092 0.25043,1.16304 0.62901,1.49956 0.37857,0.33652 0.87584,0.50008 1.37062,0.50008 0.49478,0 0.99204,-0.16356 1.37062,-0.50008 0.37858,-0.33652 0.6297504,-0.84864 0.6297504,-1.49956 0,-0.65092 -0.2511704,-1.16376 -0.6297504,-1.50028 -0.37858,-0.33651 -0.87584,-0.50008 -1.37062,-0.50008 z"
     style="fill:#ffffff;fill-rule:evenodd"
     id="path2757" />
  <circle
     style="fill:#3f3f3f;fill-opacity:1;stroke-width:4;stroke-linecap:square"
     id="path2530"
     cx="7.9999962"
     cy="9.9898901"
     r="1" />
  <path
     d="m 4.8641546,9.989844 c -0.11093,0 -0.21971,0.006 -0.32546,0.0217 -0.28198,0.0408 -0.54306,0.13867 -0.76815,0.28709 -0.90035,0.59371 -1.13747,1.93925 -0.0254,3.34825 1.1121,1.40904 2.58345,1.62771 3.48381,1.034 0.90035,-0.59371 1.13834,-1.93925 0.0262,-3.34825 -0.72981,-0.92467 -1.61455,-1.33646 -2.39107,-1.34267 z"
     style="fill:#3f3f3f;fill-rule:evenodd"
     id="path2624" />
  <path
     d="m 11.999635,7.98989 c -0.49478,0 -0.99205,0.16357 -1.37062,0.50008 -0.37858,0.33652 -0.62901,0.84936 -0.62901,1.50028 0,0.65092 0.25043,1.16304 0.62901,1.49956 0.37857,0.33652 0.87584,0.50008 1.37062,0.50008 0.49478,0 0.99204,-0.16356 1.37062,-0.50008 0.37858,-0.33652 0.62975,-0.84864 0.62975,-1.49956 0,-0.65092 -0.25117,-1.16376 -0.62975,-1.50028 -0.37858,-0.33651 -0.87584,-0.50008 -1.37062,-0.50008 z"
     style="fill:#ffffff;fill-rule:evenodd"
     id="path2785" />
  <ellipse
     style="fill:#3f3f3f;fill-opacity:1;stroke-width:4;stroke-linecap:square"
     id="path2532"
     cx="11.999996"
     cy="9.9898968"
     rx="1"
     ry="1.0000079" />
  <path
     d="m 15.488685,16.680011 0.32424,-0.64571 c -1.20623,-0.88248 -3.4581,-1.77796 -3.4581,-1.77796 l -0.35482,0.19505 c 0,0 2.04455,1.81338 3.48868,2.22862 z"
     style="fill:#ff9a0c"
     id="path2813" />
  <path
     d="m 15.099605,15.289836 -0.16908,0.111189 c -0.1566,0.0857 -0.28365,0.23141 -0.38671,0.399911 -0.11792,0.277 -0.16448,0.45022 -0.14422,0.72085 l 0.24501,-0.0419 c 0,0 1.27923,0.36699 1.88481,0.56001 l 0.0708,-0.13646 0.24938,-0.48268 -1.75002,-0.89651 z"
     style="fill:#8a8a8a"
     id="path2851" />
  <path
     d="m 19.000005,18.989896 c -0.53442,-1.7364 -0.72397,-3.11509 -2.12059,-2.99241 -1.12549,0.0989 -1.20428,1.64243 -0.0412,2.06837 1.12034,0.41032 2.16184,0.92404 2.16184,0.92404 z"
     style="fill:#3f3f3f"
     id="path2879" />
</svg>
