<?xml version="1.0" encoding="UTF-8" standalone="no"?>
<!-- Created with Inkscape (http://www.inkscape.org/) -->

<svg
   width="22"
   height="22"
   viewBox="0 0 22 22.000002"
   version="1.1"
   id="svg1"
   inkscape:version="1.4.2 (ebf0e940d0, 2025-05-08)"
   sodipodi:docname="gparted.svg"
   xmlns:inkscape="http://www.inkscape.org/namespaces/inkscape"
   xmlns:sodipodi="http://sodipodi.sourceforge.net/DTD/sodipodi-0.dtd"
   xmlns:xlink="http://www.w3.org/1999/xlink"
   xmlns="http://www.w3.org/2000/svg"
   xmlns:svg="http://www.w3.org/2000/svg">
  <sodipodi:namedview
     id="namedview1"
     pagecolor="#ffffff"
     bordercolor="#000000"
     borderopacity="0.25"
     inkscape:showpageshadow="2"
     inkscape:pageopacity="0.0"
     inkscape:pagecheckerboard="0"
     inkscape:deskcolor="#d1d1d1"
     inkscape:document-units="px"
     inkscape:zoom="35.727273"
     inkscape:cx="10.986005"
     inkscape:cy="11"
     inkscape:window-width="1920"
     inkscape:window-height="1011"
     inkscape:window-x="0"
     inkscape:window-y="0"
     inkscape:window-maximized="1"
     inkscape:current-layer="svg1" />
  <defs
     id="defs1">
    <linearGradient
       inkscape:collect="always"
       xlink:href="#linearGradient1273"
       id="linearGradient4"
       x1="16"
       y1="30"
       x2="16"
       y2="2"
       gradientUnits="userSpaceOnUse"
       gradientTransform="matrix(0.71428571,0,0,0.71428571,-0.42857143,-0.42857143)" />
    <linearGradient
       inkscape:collect="always"
       id="linearGradient1273">
      <stop
         style="stop-color:#a1a1a1;stop-opacity:1;"
         offset="0"
         id="stop1269" />
      <stop
         style="stop-color:#dedede;stop-opacity:1;"
         offset="1"
         id="stop1271" />
    </linearGradient>
    <linearGradient
       inkscape:collect="always"
       xlink:href="#linearGradient1865"
       id="linearGradient1867"
       x1="24"
       y1="9"
       x2="34.606602"
       y2="34.606602"
       gradientUnits="userSpaceOnUse"
       gradientTransform="matrix(0.46666666,0,0,0.46666666,-0.20000007,-0.2000002)" />
    <linearGradient
       inkscape:collect="always"
       id="linearGradient1865">
      <stop
         style="stop-color:#81b037;stop-opacity:1;"
         offset="0"
         id="stop1861" />
      <stop
         style="stop-color:#a5c84c;stop-opacity:1;"
         offset="1"
         id="stop1863" />
    </linearGradient>
    <linearGradient
       inkscape:collect="always"
       xlink:href="#linearGradient1946"
       id="linearGradient1125"
       x1="24"
       y1="24"
       x2="34.606602"
       y2="38.959782"
       gradientUnits="userSpaceOnUse"
       gradientTransform="matrix(0.46666666,0,0,0.46666666,-0.20000007,-0.2000002)" />
    <linearGradient
       inkscape:collect="always"
       id="linearGradient1946">
      <stop
         style="stop-color:#c21010;stop-opacity:1;"
         offset="0"
         id="stop1942" />
      <stop
         style="stop-color:#d26f6f;stop-opacity:1;"
         offset="1"
         id="stop1944" />
    </linearGradient>
    <linearGradient
       inkscape:collect="always"
       xlink:href="#linearGradient1857"
       id="linearGradient1859"
       x1="13.387063"
       y1="13.399749"
       x2="20.292116"
       y2="24"
       gradientUnits="userSpaceOnUse"
       gradientTransform="matrix(0.46666666,0,0,0.46666666,-0.20000007,-0.2000002)" />
    <linearGradient
       inkscape:collect="always"
       id="linearGradient1857">
      <stop
         style="stop-color:#e29731;stop-opacity:1;"
         offset="0"
         id="stop1853" />
      <stop
         style="stop-color:#e2c531;stop-opacity:1;"
         offset="1"
         id="stop1855" />
    </linearGradient>
  </defs>
  <rect
     style="opacity:0.2;fill:#000000;stroke-width:1.75"
     id="rect1"
     width="20"
     height="20"
     x="1"
     y="1.5"
     ry="4" />
  <rect
     style="fill:url(#linearGradient4);stroke-width:0.714286"
     id="rect2"
     width="20"
     height="20"
     x="1"
     y="1"
     ry="4" />
  <path
     id="path346"
     style="opacity:0.6;fill:#ffffff;stroke-width:1.4;stroke-linecap:round;stroke-linejoin:round;paint-order:stroke fill markers"
     d="m 11,4 c -3.8659893,1e-7 -6.9999999,3.1340107 -7,7 1e-7,3.865989 3.1340107,7 7,7 3.865989,0 7,-3.134011 7,-7 0,-3.8659893 -3.134011,-6.9999999 -7,-7 z m 0,4 c 1.656852,10e-8 3,1.3431482 3,3 0,1.656852 -1.343148,3 -3,3 -1.6568525,0 -2.9999999,-1.343148 -3,-3 10e-8,-1.6568518 1.3431475,-2.9999999 3,-3 z"
     sodipodi:nodetypes="ssssssssss" />
  <path
     id="path347"
     style="fill:url(#linearGradient1867);fill-opacity:1;stroke-width:0.466667;stroke-linecap:round;stroke-linejoin:round;paint-order:stroke fill markers"
     d="M 11,4 C 10.879188,4 10.759934,4.00372 10.640625,4.00977 9.6072751,4.06587 8.6020852,4.3476301 7.6992188,4.8281294 7.5985212,4.8817204 7.5003914,4.9375744 7.4023438,4.9960982 7.3042958,5.0546222 7.2065199,5.1163043 7.1113281,5.1796919 c -0.066062,0.04399 -0.1307098,0.090414 -0.1953125,0.1367187 -0.028486,0.020418 -0.057745,0.039683 -0.085937,0.060547 -0.00596,0.00443 -0.011629,0.00922 -0.017578,0.013672 -0.088175,0.065696 -0.1746061,0.133084 -0.2597656,0.203125 -0.0018,0.00149 -0.00406,0.00242 -0.00586,0.00391 -0.084787,0.069879 -0.1664372,0.1426662 -0.2480469,0.2167969 -0.084671,0.076804 -0.1672312,0.1555125 -0.2480469,0.2363281 -0.0013,0.0013 -0.0026,0.0026 -0.00391,0.00391 L 7.5,9.2109375 8.3300781,9.6347656 C 8.8271639,8.6649797 9.8353407,8.0000001 11,8 c 1.65685,10e-8 3,1.34315 3,3 0,1.209569 -0.716898,2.249962 -1.748047,2.724609 l 0.351563,0.765625 3.345703,1.458985 c 0.08177,-0.08177 0.162576,-0.164289 0.240234,-0.25 0.07316,-0.08054 0.143891,-0.162471 0.212891,-0.246094 0.0041,-0.005 0.0076,-0.0106 0.01172,-0.01563 0.02583,-0.03149 0.05093,-0.0638 0.07617,-0.0957 0.04029,-0.05087 0.08025,-0.102295 0.119141,-0.154297 0.04789,-0.06404 0.09295,-0.129604 0.138672,-0.195312 0.0183,-0.0264 0.03872,-0.05149 0.05664,-0.07813 0.0065,-0.0097 0.01303,-0.01957 0.01953,-0.0293 0.05618,-0.08439 0.109766,-0.169217 0.162109,-0.25586 0.0067,-0.01097 0.01292,-0.02219 0.01953,-0.0332 0.05126,-0.08593 0.100973,-0.171793 0.148438,-0.259765 0.0067,-0.01227 0.01294,-0.02479 0.01953,-0.03711 0.0027,-0.0051 0.0051,-0.0105 0.0078,-0.01563 0.47474,-0.89812 0.75301,-1.896543 0.808593,-2.923828 1.97e-4,-0.0039 -1.9e-4,-0.0078 0,-0.01172 C 17.99628,11.232404 17.99956,11.115863 18,11 18,7.1340146 14.865985,4 11,4 Z" />
  <path
     id="path536"
     style="fill:url(#linearGradient1125);fill-opacity:1;stroke-width:0.466667;stroke-linecap:round;stroke-linejoin:round;paint-order:stroke fill markers"
     d="M 13.121094,13.121094 C 12.578201,13.663987 11.828425,14 11,14 v 4 c 0.347645,0 0.689377,-0.02528 1.023438,-0.07422 0.0032,-4.8e-4 0.0065,-0.0015 0.0098,-0.002 0.08517,-0.01273 0.169424,-0.02904 0.253906,-0.04492 0.02791,-0.0052 0.05619,-0.0081 0.08399,-0.01367 0.01302,-0.0026 0.02606,-0.0051 0.03906,-0.0078 0.0989,-0.02024 0.197586,-0.044 0.294922,-0.06836 0.884802,-0.223582 1.720886,-0.618948 2.458984,-1.164062 0.276787,-0.204418 0.53844,-0.430931 0.785157,-0.675781 z" />
  <path
     id="path538"
     style="fill:url(#linearGradient1859);fill-opacity:1;stroke-width:0.466667;stroke-linecap:round;stroke-linejoin:round;paint-order:stroke fill markers"
     d="m 6.0488281,6.0546875 c -0.078142,0.078234 -0.1560814,0.156437 -0.2304687,0.2382813 -0.00311,0.0034 -0.00666,0.00637 -0.00977,0.00977 C 4.9097222,7.2956037 4.2917962,8.547978 4.0800781,9.9335938 4.0269674,10.281184 4,10.637564 4,11 H 8 C 8,10.172568 8.3352075,9.4235973 8.8769531,8.8808594 Z" />
  <path
     id="path400"
     style="fill:#ffffff;stroke-width:2;stroke-linecap:round;stroke-linejoin:round;paint-order:stroke fill markers"
     d="m 16.499833,18.866028 c 0.478295,0.276141 1.089882,0.112266 1.366024,-0.366026 0.276145,-0.478293 0.11227,-1.089883 -0.366024,-1.366026 L 10.937656,14.5 Z"
     sodipodi:nodetypes="csccc" />
</svg>
