<?xml version="1.0" encoding="UTF-8" standalone="no"?>
<!-- Created with Inkscape (http://www.inkscape.org/) -->

<svg
   width="22"
   height="22"
   viewBox="0 0 22 22.000002"
   version="1.1"
   id="svg1"
   inkscape:version="1.4.2 (ebf0e940d0, 2025-05-08)"
   sodipodi:docname="gwenview.svg"
   xmlns:inkscape="http://www.inkscape.org/namespaces/inkscape"
   xmlns:sodipodi="http://sodipodi.sourceforge.net/DTD/sodipodi-0.dtd"
   xmlns:xlink="http://www.w3.org/1999/xlink"
   xmlns="http://www.w3.org/2000/svg"
   xmlns:svg="http://www.w3.org/2000/svg">
  <sodipodi:namedview
     id="namedview1"
     pagecolor="#ffffff"
     bordercolor="#000000"
     borderopacity="0.25"
     inkscape:showpageshadow="2"
     inkscape:pageopacity="0.0"
     inkscape:pagecheckerboard="0"
     inkscape:deskcolor="#d1d1d1"
     inkscape:document-units="px"
     inkscape:zoom="36.136364"
     inkscape:cx="11"
     inkscape:cy="11"
     inkscape:window-width="1920"
     inkscape:window-height="1010"
     inkscape:window-x="0"
     inkscape:window-y="0"
     inkscape:window-maximized="1"
     inkscape:current-layer="svg1" />
  <defs
     id="defs1">
    <linearGradient
       inkscape:collect="always"
       id="linearGradient1606">
      <stop
         style="stop-color:#eaebed;stop-opacity:1;"
         offset="0"
         id="stop1602" />
      <stop
         style="stop-color:#f9fafa;stop-opacity:1;"
         offset="1"
         id="stop1604" />
    </linearGradient>
    <linearGradient
       inkscape:collect="always"
       xlink:href="#linearGradient8"
       id="linearGradient4"
       x1="16"
       y1="30"
       x2="16"
       y2="2"
       gradientUnits="userSpaceOnUse"
       gradientTransform="matrix(0.71428571,0,0,0.71428571,-0.42857143,-0.42857143)" />
    <linearGradient
       inkscape:collect="always"
       xlink:href="#linearGradient1606"
       id="linearGradient2"
       x1="11"
       y1="15"
       x2="11"
       y2="7"
       gradientUnits="userSpaceOnUse" />
    <linearGradient
       id="linearGradient5"
       inkscape:collect="always">
      <stop
         style="stop-color:#d35297;stop-opacity:1;"
         offset="0"
         id="stop5" />
      <stop
         style="stop-color:#de7fb2;stop-opacity:1;"
         offset="1"
         id="stop6" />
    </linearGradient>
    <linearGradient
       inkscape:collect="always"
       id="linearGradient8">
      <stop
         style="stop-color:#fbb0e3;stop-opacity:1;"
         offset="0"
         id="stop7" />
      <stop
         style="stop-color:#f9d9f0;stop-opacity:1;"
         offset="1"
         id="stop8" />
    </linearGradient>
    <linearGradient
       inkscape:collect="always"
       xlink:href="#linearGradient5"
       id="linearGradient7"
       x1="11"
       y1="16"
       x2="11"
       y2="6"
       gradientUnits="userSpaceOnUse" />
  </defs>
  <rect
     style="opacity:0.2;fill:#000000;stroke-width:1.75"
     id="rect1"
     width="20"
     height="20"
     x="1"
     y="1.5"
     ry="4" />
  <rect
     style="fill:url(#linearGradient4);stroke-width:0.714286"
     id="rect2"
     width="20"
     height="20"
     x="1"
     y="1"
     ry="4" />
  <path
     id="path396"
     style="fill:url(#linearGradient7);fill-opacity:1;stroke-width:0.59161;stroke-linecap:round;stroke-linejoin:round"
     d="m 11,6 c -3.86598,0 -6.6944325,2.7397355 -7,5 0.3055675,2.260264 3.134019,5 7,5 3.86598,0 6.694431,-2.739736 7,-5 C 17.694431,8.7397355 14.86598,6 11,6 Z" />
  <circle
     style="fill:url(#linearGradient2);fill-opacity:1;stroke-width:0.666665;stroke-linecap:round;stroke-linejoin:round"
     id="path1300"
     cx="11"
     cy="11"
     r="4" />
  <path
     id="path727"
     style="opacity:0.2;fill:#000000;stroke-width:0.5;stroke-linecap:round;stroke-linejoin:round"
     d="M 12.474609,9 C 12.210424,9.013392 12,9.232488 12,9.5 12,9.776143 12.223857,10 12.5,10 12.776143,10 13,9.776143 13,9.5 13,9.223858 12.776143,9 12.5,9 12.4914,9 12.48313,8.999568 12.47461,9 Z M 9.5,10 8.1796875,12 C 8.6024736,13.195834 9.731633,13.996567 11,14 c 1.268367,-0.0035 2.397526,-0.804166 2.820312,-2 H 13 l -1,-1 -1,1 z" />
</svg>
