<?xml version="1.0" encoding="UTF-8" standalone="no"?>
<!-- Created with Inkscape (http://www.inkscape.org/) -->

<svg
   width="22"
   height="22"
   viewBox="0 0 22 22.000002"
   version="1.1"
   id="svg1"
   inkscape:version="1.4.2 (ebf0e940d0, 2025-05-08)"
   sodipodi:docname="help-about.svg"
   xmlns:inkscape="http://www.inkscape.org/namespaces/inkscape"
   xmlns:sodipodi="http://sodipodi.sourceforge.net/DTD/sodipodi-0.dtd"
   xmlns:xlink="http://www.w3.org/1999/xlink"
   xmlns="http://www.w3.org/2000/svg"
   xmlns:svg="http://www.w3.org/2000/svg">
  <sodipodi:namedview
     id="namedview1"
     pagecolor="#ffffff"
     bordercolor="#000000"
     borderopacity="0.25"
     inkscape:showpageshadow="2"
     inkscape:pageopacity="0.0"
     inkscape:pagecheckerboard="0"
     inkscape:deskcolor="#d1d1d1"
     inkscape:document-units="px"
     inkscape:zoom="36.136364"
     inkscape:cx="11"
     inkscape:cy="11"
     inkscape:window-width="1920"
     inkscape:window-height="1010"
     inkscape:window-x="0"
     inkscape:window-y="0"
     inkscape:window-maximized="1"
     inkscape:current-layer="svg1" />
  <defs
     id="defs1">
    <linearGradient
       inkscape:collect="always"
       xlink:href="#linearGradient3147"
       id="linearGradient4"
       x1="16"
       y1="30"
       x2="16"
       y2="2"
       gradientUnits="userSpaceOnUse"
       gradientTransform="matrix(0.71428571,0,0,0.71428571,-0.42857143,-0.42857143)" />
    <linearGradient
       inkscape:collect="always"
       id="linearGradient3147">
      <stop
         style="stop-color:#0091f9;stop-opacity:1;"
         offset="0"
         id="stop3143" />
      <stop
         style="stop-color:#41bbff;stop-opacity:1;"
         offset="1"
         id="stop3145" />
    </linearGradient>
  </defs>
  <rect
     style="opacity:0.2;fill:#000000;stroke-width:1.75"
     id="rect1"
     width="20"
     height="20"
     x="1"
     y="1.5"
     ry="4" />
  <rect
     style="fill:url(#linearGradient4);stroke-width:0.714286"
     id="rect2"
     width="20"
     height="20"
     x="1"
     y="1"
     ry="4" />
  <path
     id="rect2661"
     style="fill:#ffffff;stroke-width:0.666665;stroke-linecap:round;stroke-linejoin:round"
     d="m 11,4 c -0.552284,0 -1,0.4477155 -1,1.0000005 0,0.5522845 0.447716,1.0000005 1,1.0000005 0.552285,0 1,-0.447716 1,-1.0000005 C 12,4.4477155 11.552285,4 11,4 Z m 0,4 c -0.553999,0 -1,0.446001 -1,1 v 8 c 0,0.553999 0.446001,1 1,1 0.554,0 1,-0.446001 1,-1 V 9 C 12,8.446001 11.554,8 11,8 Z"
     sodipodi:nodetypes="ssssssssssss" />
</svg>
