<?xml version="1.0" encoding="UTF-8" standalone="no"?>
<!-- Created with Inkscape (http://www.inkscape.org/) -->

<svg
   width="22"
   height="22"
   viewBox="0 0 22 22.000002"
   version="1.1"
   id="svg1"
   inkscape:version="1.4.2 (ebf0e940d0, 2025-05-08)"
   sodipodi:docname="htop.svg"
   xmlns:inkscape="http://www.inkscape.org/namespaces/inkscape"
   xmlns:sodipodi="http://sodipodi.sourceforge.net/DTD/sodipodi-0.dtd"
   xmlns:xlink="http://www.w3.org/1999/xlink"
   xmlns="http://www.w3.org/2000/svg"
   xmlns:svg="http://www.w3.org/2000/svg">
  <sodipodi:namedview
     id="namedview1"
     pagecolor="#ffffff"
     bordercolor="#000000"
     borderopacity="0.25"
     inkscape:showpageshadow="2"
     inkscape:pageopacity="0.0"
     inkscape:pagecheckerboard="0"
     inkscape:deskcolor="#d1d1d1"
     inkscape:document-units="px"
     inkscape:zoom="36.727273"
     inkscape:cx="10.986386"
     inkscape:cy="11.013614"
     inkscape:window-width="1920"
     inkscape:window-height="1010"
     inkscape:window-x="0"
     inkscape:window-y="0"
     inkscape:window-maximized="1"
     inkscape:current-layer="svg1" />
  <defs
     id="defs1">
    <linearGradient
       inkscape:collect="always"
       xlink:href="#4852"
       id="linearGradient4"
       x1="16"
       y1="30"
       x2="16"
       y2="2"
       gradientUnits="userSpaceOnUse"
       gradientTransform="matrix(0.71428571,0,0,0.71428571,-0.42857143,-0.42857143)" />
    <linearGradient
       inkscape:collect="always"
       id="4852">
      <stop
         style="stop-color:#272727;stop-opacity:1;"
         offset="0"
         id="stop14555" />
      <stop
         style="stop-color:#5d5d5d;stop-opacity:1;"
         offset="1"
         id="stop14557" />
    </linearGradient>
  </defs>
  <rect
     style="opacity:0.2;fill:#000000;stroke-width:1.75"
     id="rect1"
     width="20"
     height="20"
     x="1"
     y="1.5"
     ry="4" />
  <rect
     style="fill:url(#linearGradient4);stroke-width:0.714286"
     id="rect2"
     width="20"
     height="20"
     x="1"
     y="1"
     ry="4" />
  <path
     id="path1240"
     style="fill:#8bc34a"
     d="M 5,4 V 8 H 6 V 4 Z M 7,4 V 8 H 8 V 4 Z M 5,9 v 4 H 6 V 9 Z m 2,0 v 4 H 8 V 9 Z m -2,5 v 4 h 1 v -4 z m 2,0 v 4 h 1 v -4 z"
     sodipodi:nodetypes="cccccccccccccccccccccccccccccc" />
  <path
     d="M 9,8.9999998 V 13 h 1 V 8.9999998 Z m 2,0 V 13 h 1 V 8.9999998 Z"
     style="fill:#ff9800"
     id="path1212"
     sodipodi:nodetypes="cccccccccc" />
  <path
     id="path1128"
     style="fill:#ff5722"
     d="m 13,4 v 4 h 1 V 4 Z m 2,0 v 4 h 1 V 4 Z m -2,5 v 4 h 1 V 9 Z m 2,0 v 4 h 1 V 9 Z m -2,5 v 4 h 1 v -4 z m 2,0 v 4 h 1 v -4 z" />
  <path
     id="path1156"
     style="fill:#f9f9f9"
     d="M 3,4 V 7.9999998 H 4 V 4 Z m 14,0 v 3.9999998 h 1 V 4 Z M 3,8.9999998 V 13 H 4 V 8.9999998 Z m 14,0 V 13 h 1 V 8.9999998 Z M 3,14 v 4 h 1 v -4 z m 14,0 v 4 h 1 v -4 z"
     sodipodi:nodetypes="cccccccccccccccccccccccccccccc" />
</svg>
