<?xml version="1.0" encoding="UTF-8" standalone="no"?>
<!-- Created with Inkscape (http://www.inkscape.org/) -->

<svg
   width="22"
   height="22"
   viewBox="0 0 22 22.000002"
   version="1.1"
   id="svg1"
   inkscape:version="1.4 (e7c3feb100, 2024-10-09)"
   sodipodi:docname="libreoffice-impress.svg"
   xmlns:inkscape="http://www.inkscape.org/namespaces/inkscape"
   xmlns:sodipodi="http://sodipodi.sourceforge.net/DTD/sodipodi-0.dtd"
   xmlns:xlink="http://www.w3.org/1999/xlink"
   xmlns="http://www.w3.org/2000/svg"
   xmlns:svg="http://www.w3.org/2000/svg">
  <sodipodi:namedview
     id="namedview1"
     pagecolor="#ffffff"
     bordercolor="#000000"
     borderopacity="0.25"
     inkscape:showpageshadow="2"
     inkscape:pageopacity="0.0"
     inkscape:pagecheckerboard="0"
     inkscape:deskcolor="#d1d1d1"
     inkscape:document-units="px"
     inkscape:zoom="35.727273"
     inkscape:cx="10.958015"
     inkscape:cy="11"
     inkscape:window-width="1920"
     inkscape:window-height="1011"
     inkscape:window-x="0"
     inkscape:window-y="0"
     inkscape:window-maximized="1"
     inkscape:current-layer="svg1" />
  <defs
     id="defs1">
    <linearGradient
       inkscape:collect="always"
       xlink:href="#linearGradient2879"
       id="linearGradient4"
       x1="16"
       y1="30"
       x2="16"
       y2="2"
       gradientUnits="userSpaceOnUse"
       gradientTransform="matrix(0.71428571,0,0,0.71428571,-0.42857143,-0.42857143)" />
    <linearGradient
       inkscape:collect="always"
       id="linearGradient2879">
      <stop
         style="stop-color:#d75112;stop-opacity:1;"
         offset="0"
         id="stop2875" />
      <stop
         style="stop-color:#f47700;stop-opacity:1;"
         offset="1"
         id="stop2877" />
    </linearGradient>
  </defs>
  <rect
     style="opacity:0.2;fill:#000000;stroke-width:1.75"
     id="rect1"
     width="20"
     height="20"
     x="1"
     y="1.5"
     ry="4" />
  <rect
     style="fill:url(#linearGradient4);stroke-width:0.714286"
     id="rect2"
     width="20"
     height="20"
     x="1"
     y="1"
     ry="4" />
  <path
     id="rect7037"
     style="fill:#ffffff"
     d="M 5,7 V 8 H 17 V 7 Z m 2,2 v 1 h 8 V 9 Z m -2,2 v 1 h 1 v -1 z m 2,0 v 1 h 2 v -1 z m -2,2 v 1 h 1 v -1 z m 2,0 v 1 h 2 v -1 z m -2,2 v 1 h 1 v -1 z m 2,0 v 1 h 2 v -1 z" />
  <path
     id="rect1541"
     style="opacity:0.8;fill:#ffffff;stroke-width:0.935414"
     d="m 10,11.000001 v 5 h 7 v -5 z m 1,1 h 5 v 3 h -5 z"
     sodipodi:nodetypes="cccccccccc" />
  <rect
     style="opacity:0.6;fill:#ffffff"
     id="rect1566"
     width="5"
     height="3"
     x="11"
     y="12" />
  <path
     style="color:#000000;fill:#e35100;fill-opacity:1;-inkscape-stroke:none"
     d="M 15.609375,11.687501 13.958984,13.251953 12.945313,12.238282 10.599609,14.5 l 0.800782,0.800782 1.654297,-1.539063 0.986328,0.986328 L 16.390625,12.5 Z"
     id="path1631"
     sodipodi:nodetypes="ccccccccc" />
</svg>
