<?xml version="1.0" encoding="UTF-8" standalone="no"?>
<!-- Created with Inkscape (http://www.inkscape.org/) -->

<svg
   width="22"
   height="22"
   viewBox="0 0 22 22.000002"
   version="1.1"
   id="svg1"
   inkscape:version="1.4 (e7c3feb100, 2024-10-09)"
   sodipodi:docname="libreoffice-math.svg"
   xmlns:inkscape="http://www.inkscape.org/namespaces/inkscape"
   xmlns:sodipodi="http://sodipodi.sourceforge.net/DTD/sodipodi-0.dtd"
   xmlns:xlink="http://www.w3.org/1999/xlink"
   xmlns="http://www.w3.org/2000/svg"
   xmlns:svg="http://www.w3.org/2000/svg">
  <sodipodi:namedview
     id="namedview1"
     pagecolor="#ffffff"
     bordercolor="#000000"
     borderopacity="0.25"
     inkscape:showpageshadow="2"
     inkscape:pageopacity="0.0"
     inkscape:pagecheckerboard="0"
     inkscape:deskcolor="#d1d1d1"
     inkscape:document-units="px"
     inkscape:zoom="35.727273"
     inkscape:cx="10.958015"
     inkscape:cy="11"
     inkscape:window-width="1920"
     inkscape:window-height="1011"
     inkscape:window-x="0"
     inkscape:window-y="0"
     inkscape:window-maximized="1"
     inkscape:current-layer="svg1" />
  <defs
     id="defs1">
    <linearGradient
       inkscape:collect="always"
       xlink:href="#linearGradient4276"
       id="linearGradient4"
       x1="16"
       y1="30"
       x2="16"
       y2="2"
       gradientUnits="userSpaceOnUse"
       gradientTransform="matrix(0.71428571,0,0,0.71428571,-0.42857143,-0.42857143)" />
    <linearGradient
       inkscape:collect="always"
       id="linearGradient4276">
      <stop
         style="stop-color:#d3113a;stop-opacity:1;"
         offset="0"
         id="stop4272" />
      <stop
         style="stop-color:#f239a1;stop-opacity:1;"
         offset="1"
         id="stop4274" />
    </linearGradient>
  </defs>
  <rect
     style="opacity:0.2;fill:#000000;stroke-width:1.75"
     id="rect1"
     width="20"
     height="20"
     x="1"
     y="1.5"
     ry="4" />
  <rect
     style="fill:url(#linearGradient4);stroke-width:0.714286"
     id="rect2"
     width="20"
     height="20"
     x="1"
     y="1"
     ry="4" />
  <path
     d="M 9.318175,6 7.3039552,11.469 6.484,9.9999995 H 5 V 11.000001 H 5.847 L 7.0629432,13 h 0.6699 L 10.029825,7 H 17 V 6 Z"
     id="path1369"
     style="fill:#ffffff;fill-opacity:1;stroke-width:0.985718"
     sodipodi:nodetypes="cccccccccccc" />
  <path
     id="rect441"
     style="fill:#ffffff"
     d="m 5,15 v 1 h 2 v -1 z m 5,0 v 1 h 2 v -1 z m 5,0 v 1 h 2 v -1 z" />
  <path
     id="rect507"
     style="fill:#ef95b4;fill-opacity:1"
     d="m 16.828657,8.1715729 c -0.391736,-0.3917365 -1.022477,-0.3917368 -1.414213,0 L 14.00023,9.5857864 12.586016,8.1715729 c -0.391736,-0.3917368 -1.022477,-0.3917365 -1.414213,0 -0.391737,0.3917364 -0.391737,1.0224768 0,1.4142135 L 12.586016,11 11.171803,12.414214 c -0.391737,0.391736 -0.391737,1.022477 0,1.414213 0.391736,0.391737 1.022477,0.391737 1.414213,0 l 1.414214,-1.414213 1.414214,1.414213 c 0.391736,0.391737 1.022477,0.391737 1.414213,0 0.391737,-0.391736 0.391737,-1.022477 0,-1.414213 L 15.414444,11 16.828657,9.5857864 c 0.391737,-0.3917367 0.391737,-1.0224771 0,-1.4142135 z" />
</svg>
