<?xml version="1.0" encoding="UTF-8" standalone="no"?>
<!-- Created with Inkscape (http://www.inkscape.org/) -->

<svg
   width="22"
   height="22"
   viewBox="0 0 22 22.000002"
   version="1.1"
   id="svg1"
   inkscape:version="1.4 (e7c3feb100, 2024-10-09)"
   sodipodi:docname="libreoffice-calc.svg"
   xmlns:inkscape="http://www.inkscape.org/namespaces/inkscape"
   xmlns:sodipodi="http://sodipodi.sourceforge.net/DTD/sodipodi-0.dtd"
   xmlns:xlink="http://www.w3.org/1999/xlink"
   xmlns="http://www.w3.org/2000/svg"
   xmlns:svg="http://www.w3.org/2000/svg">
  <sodipodi:namedview
     id="namedview1"
     pagecolor="#ffffff"
     bordercolor="#000000"
     borderopacity="0.25"
     inkscape:showpageshadow="2"
     inkscape:pageopacity="0.0"
     inkscape:pagecheckerboard="0"
     inkscape:deskcolor="#d1d1d1"
     inkscape:document-units="px"
     inkscape:zoom="35.727273"
     inkscape:cx="10.958015"
     inkscape:cy="11"
     inkscape:window-width="1920"
     inkscape:window-height="1011"
     inkscape:window-x="0"
     inkscape:window-y="0"
     inkscape:window-maximized="1"
     inkscape:current-layer="svg1" />
  <defs
     id="defs1">
    <linearGradient
       inkscape:collect="always"
       xlink:href="#linearGradient2655"
       id="linearGradient4"
       x1="16"
       y1="30"
       x2="16"
       y2="2"
       gradientUnits="userSpaceOnUse"
       gradientTransform="matrix(0.71428571,0,0,0.71428571,-0.42857143,-0.42857143)" />
    <linearGradient
       inkscape:collect="always"
       id="linearGradient2655">
      <stop
         style="stop-color:#2ba611;stop-opacity:1;"
         offset="0"
         id="stop2651" />
      <stop
         style="stop-color:#89e451;stop-opacity:1;"
         offset="1"
         id="stop2653" />
    </linearGradient>
  </defs>
  <rect
     style="opacity:0.2;fill:#000000;stroke-width:1.75"
     id="rect1"
     width="20"
     height="20"
     x="1"
     y="1.5"
     ry="4" />
  <rect
     style="fill:url(#linearGradient4);stroke-width:0.714286"
     id="rect2"
     width="20"
     height="20"
     x="1"
     y="1"
     ry="4" />
  <path
     id="path351"
     style="fill:#ffffff;fill-opacity:1;stroke-width:3;stroke-linecap:round;stroke-linejoin:round"
     d="m 5,7 v 7 H 15 V 7 Z M 6,8 H 8 V 9 H 6 Z m 3,0 h 2 V 9 H 9 Z m 3,0 h 2 v 1 h -2 z m -6,2 h 2 v 1 H 6 Z m 3,0 h 2 v 1 H 9 Z m 3,0 h 2 v 1 h -2 z m -6,2 h 2 v 1 H 6 Z m 3,0 h 2 v 1 H 9 Z m 3,0 h 2 v 1 h -2 z" />
  <rect
     style="fill:#b1e59b;fill-opacity:1;stroke:none;stroke-width:1.08012"
     id="rect2218"
     width="7"
     height="5"
     x="10"
     y="11" />
  <path
     id="rect3399"
     style="fill:#5aba30;fill-opacity:1;stroke:none;stroke-width:0.999997"
     d="m 13,12 v 3 h 1 v -3 z m -2,1 v 2 h 1 v -2 z m 4,1 v 1 h 1 v -1 z" />
</svg>
