<?xml version="1.0" encoding="UTF-8" standalone="no"?>
<!-- Created with Inkscape (http://www.inkscape.org/) -->

<svg
   width="22"
   height="22"
   viewBox="0 0 22 22.000002"
   version="1.1"
   id="svg1"
   inkscape:version="1.4.2 (ebf0e940d0, 2025-05-08)"
   sodipodi:docname="lollypop.svg"
   xmlns:inkscape="http://www.inkscape.org/namespaces/inkscape"
   xmlns:sodipodi="http://sodipodi.sourceforge.net/DTD/sodipodi-0.dtd"
   xmlns:xlink="http://www.w3.org/1999/xlink"
   xmlns="http://www.w3.org/2000/svg"
   xmlns:svg="http://www.w3.org/2000/svg">
  <sodipodi:namedview
     id="namedview1"
     pagecolor="#ffffff"
     bordercolor="#000000"
     borderopacity="0.25"
     inkscape:showpageshadow="2"
     inkscape:pageopacity="0.0"
     inkscape:pagecheckerboard="0"
     inkscape:deskcolor="#d1d1d1"
     inkscape:document-units="px"
     inkscape:zoom="35.727273"
     inkscape:cx="10.986005"
     inkscape:cy="11"
     inkscape:window-width="1920"
     inkscape:window-height="1011"
     inkscape:window-x="0"
     inkscape:window-y="0"
     inkscape:window-maximized="1"
     inkscape:current-layer="svg1" />
  <defs
     id="defs1">
    <linearGradient
       inkscape:collect="always"
       id="linearGradient1606">
      <stop
         style="stop-color:#eaebed;stop-opacity:1;"
         offset="0"
         id="stop1602" />
      <stop
         style="stop-color:#f9fafa;stop-opacity:1;"
         offset="1"
         id="stop1604" />
    </linearGradient>
    <linearGradient
       inkscape:collect="always"
       xlink:href="#linearGradient1606"
       id="linearGradient4"
       x1="16"
       y1="30"
       x2="16"
       y2="2"
       gradientUnits="userSpaceOnUse"
       gradientTransform="matrix(0.71428571,0,0,0.71428571,-0.42857141,-0.42857143)" />
    <linearGradient
       inkscape:collect="always"
       xlink:href="#linearGradient5215"
       id="linearGradient6178"
       x1="8.1428623"
       y1="15.499255"
       x2="8.1428623"
       y2="0.50074452"
       gradientUnits="userSpaceOnUse"
       gradientTransform="matrix(1.3999964,0,0,1.3334657,-0.39983366,0.33227433)" />
    <linearGradient
       inkscape:collect="always"
       id="linearGradient5215">
      <stop
         style="stop-color:#e64686;stop-opacity:1;"
         offset="0"
         id="stop5211" />
      <stop
         style="stop-color:#ec7e93;stop-opacity:1;"
         offset="1"
         id="stop5213" />
    </linearGradient>
    <linearGradient
       inkscape:collect="always"
       xlink:href="#linearGradient1606"
       id="linearGradient5279"
       x1="7.9998965"
       y1="15.142857"
       x2="7.9998965"
       y2="0.85714251"
       gradientUnits="userSpaceOnUse"
       gradientTransform="matrix(1.4,0,0,1.4,-0.19985514,-0.19999953)" />
    <linearGradient
       inkscape:collect="always"
       xlink:href="#linearGradient5215"
       id="linearGradient11784"
       x1="11"
       y1="21"
       x2="11"
       y2="1"
       gradientUnits="userSpaceOnUse"
       gradientTransform="translate(1.446e-4)" />
  </defs>
  <rect
     style="opacity:0.2;fill:#000000;stroke-width:1.75"
     id="rect1"
     width="20"
     height="20"
     x="1"
     y="1.5"
     ry="4" />
  <rect
     style="fill:url(#linearGradient4);stroke-width:0.714286"
     id="rect2"
     width="20"
     height="20"
     x="1"
     y="1"
     ry="4" />
  <path
     id="path10967"
     style="fill:url(#linearGradient11784);fill-opacity:1;stroke-width:2.37172;stroke-linecap:round;stroke-linejoin:round"
     d="M 8.1992188 1 C 8.0859376 1.7325203 7.9983038 2.5627324 8 3.5 C 7.989452 7.6794909 10.998761 10.998634 11 11 C 11 11 11.62741 5.4831247 14.400391 1 L 8.1992188 1 z M 11 11 C 11 11 15.846505 8.8359139 21 8.9003906 C 20.995578 6.491907 20.998974 8.1299797 21 5 C 21 4.9892348 21.000084 4.9775415 21 4.9667969 C 20.994356 4.2452815 20.799898 3.571473 20.462891 2.9902344 C 18.081179 3.4094205 17.40115 3.8462852 15.996094 4.6523438 C 12.370991 6.7331161 11.000351 10.998906 11 11 z M 11 11 C 11 11 16.863386 14.409452 18.535156 20.697266 C 19.985187 20.097655 21 18.671668 21 17 L 21 13.5 C 20.437165 13.053283 19.77706 12.601352 18.996094 12.152344 C 15.381531 10.053295 11.001102 10.999762 11 11 z M 11 11 C 11 11 10.781467 16.659507 7.5996094 21 L 13.900391 21 C 14.011369 20.271739 14.001704 19.442509 14 18.5 C 14.01045 14.32017 11.000752 11.000828 11 11 z M 11 11 C 11 11 6.155502 13.166083 1.0019531 13.101562 C 1.0004243 14.142092 1.0000921 15.732412 1 17 C 1 17.004102 0.99998778 17.00762 1 17.011719 C 1.0020816 17.710177 1.181963 18.36597 1.4960938 18.935547 C 3.162548 18.687836 4.6156676 18.152508 6.0039062 17.347656 C 9.6286032 15.267 10.999381 11.001925 11 11 z M 11 11 C 11 11 5.3659486 7.4320841 3.15625 1.4453125 C 1.9615888 2.0637381 1.1222333 3.2679035 1.0117188 4.6816406 C 1.0143409 6.0998955 1.0146491 7.5958014 1.0058594 8.5058594 C 1.5662594 8.9484963 2.2190379 9.3964035 3.0039062 9.8476562 C 6.6181557 11.946407 10.998023 11.000427 11 11 z " />
  <circle
     style="fill:url(#linearGradient5279);fill-opacity:1;stroke-width:2.8;stroke-linecap:round;stroke-linejoin:round"
     id="path5271"
     cx="11.000145"
     cy="11"
     r="7" />
  <path
     d="M 8.4440835,7.0366707 C 8.2006241,6.9033242 8.0002846,7.1700173 8.0001446,7.4367104 v 7.1261736 c -2.8e-6,0.336033 0.3615071,0.545921 0.6507603,0.378037 l 3.0661321,-1.781509 3.066274,-1.781511 c 0.289113,-0.168016 0.289113,-0.588058 0,-0.756208 L 11.717037,8.8401834 8.6509049,7.0586729 C 8.5879331,7.0213361 8.5168412,7.0013337 8.4441535,7.0000001 Z"
     style="fill:url(#linearGradient6178);fill-opacity:1;stroke-width:1.36633"
     id="path5776" />
</svg>
