<?xml version="1.0" encoding="UTF-8" standalone="no"?>
<!-- Created with Inkscape (http://www.inkscape.org/) -->

<svg
   width="22"
   height="22"
   viewBox="0 0 22 22.000002"
   version="1.1"
   id="svg1"
   inkscape:version="1.4 (e7c3feb100, 2024-10-09)"
   sodipodi:docname="minecraft.svg"
   xmlns:inkscape="http://www.inkscape.org/namespaces/inkscape"
   xmlns:sodipodi="http://sodipodi.sourceforge.net/DTD/sodipodi-0.dtd"
   xmlns:xlink="http://www.w3.org/1999/xlink"
   xmlns="http://www.w3.org/2000/svg"
   xmlns:svg="http://www.w3.org/2000/svg">
  <sodipodi:namedview
     id="namedview1"
     pagecolor="#ffffff"
     bordercolor="#000000"
     borderopacity="0.25"
     inkscape:showpageshadow="2"
     inkscape:pageopacity="0.0"
     inkscape:pagecheckerboard="0"
     inkscape:deskcolor="#d1d1d1"
     inkscape:document-units="px"
     inkscape:zoom="35.727273"
     inkscape:cx="10.958015"
     inkscape:cy="11"
     inkscape:window-width="1920"
     inkscape:window-height="1011"
     inkscape:window-x="0"
     inkscape:window-y="0"
     inkscape:window-maximized="1"
     inkscape:current-layer="svg1" />
  <defs
     id="defs1">
    <linearGradient
       inkscape:collect="always"
       xlink:href="#linearGradient1149"
       id="linearGradient4"
       x1="16"
       y1="30"
       x2="16"
       y2="2"
       gradientUnits="userSpaceOnUse"
       gradientTransform="matrix(0.71428571,0,0,0.71428571,-0.42857143,-0.4285714)" />
    <linearGradient
       inkscape:collect="always"
       id="linearGradient1149">
      <stop
         style="stop-color:#6ab12d;stop-opacity:1;"
         offset="0"
         id="stop1145" />
      <stop
         style="stop-color:#8dd27a;stop-opacity:1;"
         offset="1"
         id="stop1147" />
    </linearGradient>
  </defs>
  <rect
     style="opacity:0.2;fill:#000000;stroke-width:1.75"
     id="rect1"
     width="20"
     height="20"
     x="1"
     y="1.5"
     ry="4" />
  <rect
     style="fill:url(#linearGradient4);stroke-width:0.714286"
     id="rect2"
     width="20"
     height="20"
     x="1"
     y="1"
     ry="4" />
  <path
     id="rect310"
     style="fill:#000000;stroke-width:1.5"
     d="M 5,5 V 9 H 9 V 5 Z m 4,4 v 2 H 7 v 6 h 2 v -3 h 4 v 3 h 2 V 11 H 13 V 9 Z m 4,0 h 4 V 5 h -4 z"
     sodipodi:nodetypes="ccccccccccccccccccccccc" />
  <path
     id="path1179"
     style="opacity:0.3;fill:#ffffff;stroke-width:1.5"
     d="m 5,9 v 1 H 9 V 9 Z m 8,0 v 1 h 4 V 9 Z m -4,5 v 1 h 4 v -1 z m -2,3 v 1.000001 H 9 V 17 Z m 6,0 v 1.000001 h 2 V 17 Z"
     sodipodi:nodetypes="ccccccccccccccccccccccccc" />
  <path
     d="M 5,4 V 5 H 9 V 4 Z m 8,0 v 1 h 4 V 4 Z"
     style="opacity:0.3;fill:#000000;stroke-width:1.5"
     id="path1221"
     sodipodi:nodetypes="cccccccccc" />
</svg>
