<?xml version="1.0" encoding="UTF-8" standalone="no"?>
<!-- Created with Inkscape (http://www.inkscape.org/) -->

<svg
   width="22"
   height="22"
   viewBox="0 0 22 22.000002"
   version="1.1"
   id="svg1"
   inkscape:version="1.4.2 (ebf0e940d0, 2025-05-08)"
   sodipodi:docname="mintinstall.svg"
   xmlns:inkscape="http://www.inkscape.org/namespaces/inkscape"
   xmlns:sodipodi="http://sodipodi.sourceforge.net/DTD/sodipodi-0.dtd"
   xmlns:xlink="http://www.w3.org/1999/xlink"
   xmlns="http://www.w3.org/2000/svg"
   xmlns:svg="http://www.w3.org/2000/svg">
  <sodipodi:namedview
     id="namedview1"
     pagecolor="#ffffff"
     bordercolor="#000000"
     borderopacity="0.25"
     inkscape:showpageshadow="2"
     inkscape:pageopacity="0.0"
     inkscape:pagecheckerboard="0"
     inkscape:deskcolor="#d1d1d1"
     inkscape:document-units="px"
     inkscape:zoom="35.727273"
     inkscape:cx="10.958015"
     inkscape:cy="11"
     inkscape:window-width="1920"
     inkscape:window-height="1011"
     inkscape:window-x="0"
     inkscape:window-y="0"
     inkscape:window-maximized="1"
     inkscape:current-layer="svg1" />
  <defs
     id="defs1">
    <linearGradient
       inkscape:collect="always"
       xlink:href="#linearGradient2030"
       id="linearGradient4"
       x1="16"
       y1="30"
       x2="16"
       y2="2"
       gradientUnits="userSpaceOnUse"
       gradientTransform="matrix(0.71428571,0,0,0.71428571,-0.42857143,-0.42857143)" />
    <linearGradient
       inkscape:collect="always"
       id="linearGradient2030">
      <stop
         style="stop-color:#4c7523;stop-opacity:1;"
         offset="0"
         id="stop2026" />
      <stop
         style="stop-color:#87cf3e;stop-opacity:1;"
         offset="1"
         id="stop2028" />
    </linearGradient>
  </defs>
  <rect
     style="opacity:0.2;fill:#000000;stroke-width:1.75"
     id="rect1"
     width="20"
     height="20"
     x="1"
     y="1.5"
     ry="4" />
  <rect
     style="fill:url(#linearGradient4);stroke-width:0.714286"
     id="rect2"
     width="20"
     height="20"
     x="1"
     y="1"
     ry="4" />
  <path
     id="rect346"
     style="fill:#ffffff;stroke-width:3;stroke-linecap:round;stroke-linejoin:round"
     d="m 5.9999998,9 v 7 c 0,1.661995 1.338004,3 3.0000001,3 H 13 c 1.661996,0 3,-1.338005 3,-3 v -3 a 2,2 0 0 0 -2,-2 2,2 0 0 0 -1.496094,0.679688 C 12.137904,11.263073 11.600677,11 11,11 9.8920019,11 8.9999999,11.892001 8.9999999,13 v 3 h 1 v -3 c 0,-0.553998 0.4460021,-1 1.0000001,-1 0.553998,0 1,0.446002 1,1 v 3 h 1 v -3 c 0,-0.553998 0.446002,-1 1,-1 0.553998,0 1,0.446002 1,1 v 3 c 0,1.107997 -0.892002,2 -2,2 H 8.9999999 C 7.8920018,18 6.9999998,17.107997 6.9999998,16 V 9 Z" />
  <path
     style="color:#000000;fill:#ececec;fill-opacity:1;stroke:none;stroke-linecap:round;stroke-linejoin:round;-inkscape-stroke:none"
     d="M 11,8 C 8.796786,8 7,6.2032145 7,4 A 0.5,0.5 0 0 1 7.5,3.5 0.5,0.5 0 0 1 8,4 c 0,1.6627749 1.337225,3 3,3 1.662775,0 3,-1.3372251 3,-3 A 0.5,0.5 0 0 1 14.5,3.5 0.5,0.5 0 0 1 15,4 c 0,2.2032145 -1.796786,4 -4,4 z"
     id="path6954" />
</svg>
