<?xml version="1.0" encoding="UTF-8" standalone="no"?>
<!-- Created with Inkscape (http://www.inkscape.org/) -->

<svg
   width="22"
   height="22"
   viewBox="0 0 22 22.000002"
   version="1.1"
   id="svg1"
   inkscape:version="1.4.2 (ebf0e940d0, 2025-05-08)"
   sodipodi:docname="mpv.svg"
   xmlns:inkscape="http://www.inkscape.org/namespaces/inkscape"
   xmlns:sodipodi="http://sodipodi.sourceforge.net/DTD/sodipodi-0.dtd"
   xmlns:xlink="http://www.w3.org/1999/xlink"
   xmlns="http://www.w3.org/2000/svg"
   xmlns:svg="http://www.w3.org/2000/svg">
  <sodipodi:namedview
     id="namedview1"
     pagecolor="#ffffff"
     bordercolor="#000000"
     borderopacity="0.25"
     inkscape:showpageshadow="2"
     inkscape:pageopacity="0.0"
     inkscape:pagecheckerboard="0"
     inkscape:deskcolor="#d1d1d1"
     inkscape:document-units="px"
     inkscape:zoom="36.181818"
     inkscape:cx="10.986181"
     inkscape:cy="11"
     inkscape:window-width="1920"
     inkscape:window-height="1011"
     inkscape:window-x="0"
     inkscape:window-y="0"
     inkscape:window-maximized="1"
     inkscape:current-layer="svg1" />
  <defs
     id="defs1">
    <linearGradient
       inkscape:collect="always"
       xlink:href="#linearGradient6304"
       id="linearGradient4"
       x1="16"
       y1="30"
       x2="16"
       y2="2"
       gradientUnits="userSpaceOnUse"
       gradientTransform="matrix(0.71428571,0,0,0.71428571,-0.4285714,-0.42857143)" />
    <linearGradient
       inkscape:collect="always"
       id="linearGradient6304">
      <stop
         style="stop-color:#8d348e;stop-opacity:1;"
         offset="0"
         id="stop6300" />
      <stop
         style="stop-color:#c275c3;stop-opacity:1;"
         offset="1"
         id="stop6302" />
    </linearGradient>
  </defs>
  <rect
     style="opacity:0.2;fill:#000000;stroke-width:1.75"
     id="rect1"
     width="20"
     height="20"
     x="1"
     y="1.5"
     ry="4" />
  <rect
     style="fill:url(#linearGradient4);stroke-width:0.714286"
     id="rect2"
     width="20"
     height="20"
     x="1"
     y="1"
     ry="4" />
  <path
     id="path4648"
     style="fill:#ffffff;stroke-width:1.4;stroke-linejoin:round"
     d="m 11,3.9999997 c -3.86599,0 -7,3.1340107 -7,6.9999993 0,3.86599 3.13401,7 7,7 3.86599,0 7,-3.13401 7,-7 0,-3.8659886 -3.13401,-6.9999993 -7,-6.9999993 z m -2.275391,3 c 0.127253,-0.0048 0.259944,0.0252 0.384766,0.097656 l 5.5,3.1992183 c 0.521955,0.303008 0.521955,1.103241 0,1.40625 l -5.5,3.199219 C 8.610085,15.192168 8.000853,14.805543 8,14.199218 V 7.8007809 C 8.000675,7.3460338 8.342851,7.0144045 8.724609,6.9999997 Z" />
</svg>
