<?xml version="1.0" encoding="UTF-8" standalone="no"?>
<!-- Created with Inkscape (http://www.inkscape.org/) -->

<svg
   width="22"
   height="22"
   viewBox="0 0 22 22.000002"
   version="1.1"
   id="svg1"
   inkscape:version="1.4 (e7c3feb100, 2024-10-09)"
   sodipodi:docname="okular.svg"
   xmlns:inkscape="http://www.inkscape.org/namespaces/inkscape"
   xmlns:sodipodi="http://sodipodi.sourceforge.net/DTD/sodipodi-0.dtd"
   xmlns:xlink="http://www.w3.org/1999/xlink"
   xmlns="http://www.w3.org/2000/svg"
   xmlns:svg="http://www.w3.org/2000/svg">
  <sodipodi:namedview
     id="namedview1"
     pagecolor="#ffffff"
     bordercolor="#000000"
     borderopacity="0.25"
     inkscape:showpageshadow="2"
     inkscape:pageopacity="0.0"
     inkscape:pagecheckerboard="0"
     inkscape:deskcolor="#d1d1d1"
     inkscape:document-units="px"
     inkscape:zoom="36.727273"
     inkscape:cx="10.986386"
     inkscape:cy="11"
     inkscape:window-width="1920"
     inkscape:window-height="1011"
     inkscape:window-x="0"
     inkscape:window-y="0"
     inkscape:window-maximized="1"
     inkscape:current-layer="svg1" />
  <defs
     id="defs1">
    <linearGradient
       inkscape:collect="always"
       id="linearGradient1606">
      <stop
         style="stop-color:#eaebed;stop-opacity:1;"
         offset="0"
         id="stop1602" />
      <stop
         style="stop-color:#f9fafa;stop-opacity:1;"
         offset="1"
         id="stop1604" />
    </linearGradient>
    <linearGradient
       inkscape:collect="always"
       xlink:href="#linearGradient1606"
       id="linearGradient4"
       x1="16"
       y1="30"
       x2="16"
       y2="2"
       gradientUnits="userSpaceOnUse"
       gradientTransform="matrix(0.71428571,0,0,0.71428571,-0.42857143,-0.42857143)" />
    <linearGradient
       inkscape:collect="always"
       xlink:href="#linearGradient2338"
       id="linearGradient3859"
       x1="12"
       y1="22"
       x2="12"
       y2="2"
       gradientUnits="userSpaceOnUse"
       gradientTransform="translate(-1,-1)" />
    <linearGradient
       inkscape:collect="always"
       id="linearGradient2338">
      <stop
         style="stop-color:#218ed4;stop-opacity:1;"
         offset="0"
         id="stop2334" />
      <stop
         style="stop-color:#3ecdf1;stop-opacity:1;"
         offset="1"
         id="stop2336" />
    </linearGradient>
  </defs>
  <rect
     style="opacity:0.2;fill:#000000;stroke-width:1.75"
     id="rect1"
     width="20"
     height="20"
     x="1"
     y="1.5"
     ry="4" />
  <rect
     style="fill:url(#linearGradient4);stroke-width:0.714286"
     id="rect2"
     width="20"
     height="20"
     x="1"
     y="1"
     ry="4" />
  <path
     id="path3183"
     style="fill:url(#linearGradient3859);fill-opacity:1"
     d="M 11.542969 1 L 11.542969 1.0039062 C 10.277983 2.1592081 9.207112 3.6947405 8.3300781 5.4394531 C 6.9758523 8.1334545 6.6536801 10.407875 7.375 12.273438 C 8.0963109 14.138998 9.7518674 15.309346 12.333984 15.787109 C 15.048076 16.289293 17.563163 15.905105 19.882812 14.626953 C 20.234426 14.433206 20.496912 14.283318 21 13.900391 L 21 11 L 20.996094 11 C 20.157508 12.117226 19.145932 13.023099 18.162109 13.712891 C 16.421548 14.933228 14.62415 15.370353 12.759766 15.025391 C 10.986096 14.697213 9.9446699 13.724879 9.6386719 12.109375 C 9.3447049 10.487852 9.8244751 8.4313943 11.080078 5.9335938 C 12.101625 3.9013914 13.364041 2.1936871 14.699219 1 L 11.542969 1 z " />
</svg>
