<?xml version="1.0" encoding="UTF-8" standalone="no"?>
<!-- Created with Inkscape (http://www.inkscape.org/) -->

<svg
   width="22"
   height="22"
   viewBox="0 0 22 22.000002"
   version="1.1"
   id="svg1"
   inkscape:version="1.4.2 (ebf0e940d0, 2025-05-08)"
   sodipodi:docname="org.gnome.Connections.svg"
   xmlns:inkscape="http://www.inkscape.org/namespaces/inkscape"
   xmlns:sodipodi="http://sodipodi.sourceforge.net/DTD/sodipodi-0.dtd"
   xmlns:xlink="http://www.w3.org/1999/xlink"
   xmlns="http://www.w3.org/2000/svg"
   xmlns:svg="http://www.w3.org/2000/svg">
  <sodipodi:namedview
     id="namedview1"
     pagecolor="#ffffff"
     bordercolor="#000000"
     borderopacity="0.25"
     inkscape:showpageshadow="2"
     inkscape:pageopacity="0.0"
     inkscape:pagecheckerboard="0"
     inkscape:deskcolor="#d1d1d1"
     inkscape:document-units="px"
     inkscape:zoom="36.136364"
     inkscape:cx="11"
     inkscape:cy="11"
     inkscape:window-width="1920"
     inkscape:window-height="1010"
     inkscape:window-x="0"
     inkscape:window-y="0"
     inkscape:window-maximized="1"
     inkscape:current-layer="svg1" />
  <defs
     id="defs1">
    <linearGradient
       inkscape:collect="always"
       xlink:href="#linearGradient3147"
       id="linearGradient4"
       x1="16"
       y1="30"
       x2="16"
       y2="2"
       gradientUnits="userSpaceOnUse"
       gradientTransform="matrix(0.71428571,0,0,0.71428571,-0.42857143,-0.42857143)" />
    <linearGradient
       inkscape:collect="always"
       id="linearGradient3147">
      <stop
         style="stop-color:#0091f9;stop-opacity:1;"
         offset="0"
         id="stop3143" />
      <stop
         style="stop-color:#41bbff;stop-opacity:1;"
         offset="1"
         id="stop3145" />
    </linearGradient>
  </defs>
  <rect
     style="opacity:0.2;fill:#000000;stroke-width:1.75"
     id="rect1"
     width="20"
     height="20"
     x="1"
     y="1.5"
     ry="4" />
  <rect
     style="fill:url(#linearGradient4);stroke-width:0.714286"
     id="rect2"
     width="20"
     height="20"
     x="1"
     y="1"
     ry="4" />
  <path
     id="path457"
     style="fill:#98d6fe;fill-opacity:1;stroke-width:0.5"
     d="M 6.2597656 2.5 C 5.5394087 2.5 4.9550781 3.2538366 4.9550781 3.9902344 L 4 4 C 3.7238576 4 3.5 4.2238576 3.5 4.5 L 3.5 5 L 2.5 5 C 1.6295161 5.0099834 1.5086844 5.0506857 1 5.8007812 L 1 17 C 1 18.657106 1.9978878 20.073028 3.4277344 20.681641 C 3.5675014 20.605221 3.690632 20.507751 3.7890625 20.396484 C 4.2387209 19.86585 4.4900304 19.195461 4.5 18.5 L 4.5 14.357422 C 4.5000228 13.621024 3.7203574 13.023436 3 13.023438 C 2.2796429 13.023438 1.5 12.528066 1.5 11.791016 C 1.5 11.054618 2.2796429 10.457031 3 10.457031 C 3.7203574 10.457031 4.5 9.8600955 4.5 9.1230469 C 4.5 8.3866486 4.8870642 7.7910156 5.6074219 7.7910156 C 6.3277782 7.7910156 7 7.1940805 7 6.4570312 L 7 4.4765625 C 7 4.0976204 7.2132957 3.7890625 7.5839844 3.7890625 C 7.955946 3.7662755 8.2390899 3.4407912 8.2167969 3.0605469 C 8.0716996 2.6672399 7.7170166 2.5227302 7.3320312 2.5019531 C 7.3125687 2.5085617 6.4767371 2.539845 6.2597656 2.5 z M 7.3320312 2.5019531 L 7.3320312 2.5 C 7.3299813 2.4995834 7.3225208 2.5 7.3085938 2.5 C 7.3165438 2.5003233 7.3241052 2.5015331 7.3320312 2.5019531 z M 15.160156 5.7070312 C 14.519415 5.7070312 14 6.2375688 14 6.8925781 L 14 7.4003906 C 14 8.055401 13.478634 8.5859375 12.837891 8.5859375 C 12.067217 8.6445374 11.442677 9.3306537 11.5 10.119141 L 11.5 12.191406 C 11.5 12.863996 12.082296 13.5 12.740234 13.5 C 13.442887 13.5 13.5 14.073593 13.5 14.626953 L 13.5 16.080078 C 13.5 16.817778 14.028369 17.5 14.75 17.5 C 15.470994 17.49935 16.000636 16.817127 16 16.080078 L 16 13.828125 C 16 13.287711 16.211429 12.770218 16.585938 12.388672 C 16.959809 12.007126 17.467449 11.794271 17.996094 11.794922 L 18.689453 11.798828 C 18.997085 11.799478 19.293892 11.675152 19.511719 11.453125 C 19.72891 11.231101 19.851563 10.929717 19.851562 10.615234 L 19.851562 6.8925781 C 19.851562 6.2375688 19.330831 5.7070318 18.689453 5.7070312 L 15.160156 5.7070312 z " />
  <path
     d="M 17.000196,9.5000001 V 16.55664 c 0,0.371802 -0.189588,0.726456 -0.500976,1.00586 -0.311388,0.279403 -0.736289,0.4375 -1,0.4375 H 9.967969 c -0.395951,0 -0.9767917,-0.06055 -1.3945307,-0.189453 -0.20887,-0.06445 -0.3738391,-0.148198 -0.451172,-0.207032 -0.07733,-0.05883 -0.05521,-0.05478 -0.05176,-0.0332 -0.09934,-0.621056 -0.10948,-1.092795 -0.125,-1.503907 -0.01552,-0.411111 0.0034,-0.804456 -0.262695,-1.24414 -0.2661506,-0.439688 -0.77797,-0.652769 -1.2939436,-0.732426 -0.5159735,-0.07966 -1.1554224,-0.08984 -2.0888675,-0.08984 v 1.5 c 0.9165536,0 1.5275371,0.02104 1.859375,0.07227 0.3318385,0.05123 0.265137,0.06848 0.2402345,0.02734 -0.024905,-0.04114 0.03208,0.131572 0.046875,0.523438 0.014795,0.391866 0.02789,0.960469 0.143555,1.683594 0.069069,0.431821 0.338601,0.77309 0.624023,0.990234 0.2854225,0.217144 0.5981145,0.347893 0.9169925,0.446289 0.6377551,0.196791 1.3102748,0.256835 1.8369138,0.256835 h 5.531251 c 0.737238,0 1.438105,-0.315357 2.001953,-0.821289 0.563848,-0.505932 0.999023,-1.248437 0.999023,-2.122071 V 9.5000001 Z"
     style="color:#000000;opacity:0.3;fill:#000000;stroke-width:0.5;-inkscape-stroke:none"
     id="path793"
     sodipodi:nodetypes="csssssscscsccsssssssssscc" />
  <path
     d="m 3.5000002,12.9995 c -0.8285214,0 -1.5,0.672455 -1.5,1.500976 0,0.828522 0.6714786,1.5 1.5,1.5 0.828522,0 1.4999999,-0.671478 1.4999999,-1.5 0,-0.828521 -0.6714779,-1.500976 -1.4999999,-1.500976 z m 14.2500008,0.001 c -0.414552,0 -0.75,0.335449 -0.75,0.75 0,0.41455 0.335448,0.75 0.75,0.75 0.41455,0 0.75,-0.33545 0.75,-0.75 0,-0.414551 -0.33545,-0.75 -0.75,-0.75 z m -11.5000008,1 c -0.4145515,0 -0.75,0.335449 -0.75,0.75 0,0.41455 0.3354485,0.75 0.75,0.75 0.4145505,0 0.75,-0.33545 0.75,-0.75 0,-0.414551 -0.3354495,-0.75 -0.75,-0.75 z m 11.5000008,2 c -0.414552,0 -0.75,0.335449 -0.75,0.75 0,0.41455 0.335448,0.75 0.75,0.75 0.41455,0 0.75,-0.33545 0.75,-0.75 0,-0.414551 -0.33545,-0.75 -0.75,-0.75 z m -10.5000008,0.5 c -0.4145515,0 -0.75,0.335449 -0.75,0.75 0,0.41455 0.3354485,0.75 0.75,0.75 0.4145511,0 0.75,-0.33545 0.75,-0.75 0,-0.414551 -0.3354489,-0.75 -0.75,-0.75 z M 9.75,18.0005 c -0.414551,0 -0.75,0.335449 -0.75,0.75 0,0.41455 0.335449,0.75 0.75,0.75 0.414551,0 0.75,-0.33545 0.75,-0.75 0,-0.414551 -0.335449,-0.75 -0.75,-0.75 z m 3,0 c -0.414551,0 -0.75,0.335449 -0.75,0.75 0,0.41455 0.335449,0.75 0.75,0.75 0.414551,0 0.750001,-0.33545 0.750001,-0.75 0,-0.414551 -0.33545,-0.75 -0.750001,-0.75 z m 3.000001,0 c -0.414552,0 -0.75,0.335449 -0.75,0.75 0,0.41455 0.335448,0.75 0.75,0.75 0.41455,0 0.75,-0.33545 0.75,-0.75 0,-0.414551 -0.33545,-0.75 -0.75,-0.75 z"
     style="fill:#ffffff;stroke-width:0.5"
     id="path823" />
  <rect
     style="fill:#3a325a;fill-opacity:1;stroke-width:0.5"
     id="rect675"
     width="13"
     height="11"
     x="8"
     y="1"
     ry="2" />
  <path
     d="m 11.75,3 1.99939,5.8773929 1.304505,-1.094447 0.847961,0.996447 c 0.220885,0.2598 0.615661,0.295317 0.88086,0.07893 0.264525,-0.217047 0.300781,-0.602472 0.07989,-0.862271 L 16.003236,6.9857874 17.25,5.9386964 Z"
     style="fill:#ffffff;stroke-width:0.5"
     id="path3196" />
</svg>
