<?xml version="1.0" encoding="UTF-8" standalone="no"?>
<!-- Created with Inkscape (http://www.inkscape.org/) -->

<svg
   width="22"
   height="22"
   viewBox="0 0 22 22.000002"
   version="1.1"
   id="svg1"
   inkscape:version="1.4.2 (ebf0e940d0, 2025-05-08)"
   sodipodi:docname="plasmadiscover.svg"
   xmlns:inkscape="http://www.inkscape.org/namespaces/inkscape"
   xmlns:sodipodi="http://sodipodi.sourceforge.net/DTD/sodipodi-0.dtd"
   xmlns:xlink="http://www.w3.org/1999/xlink"
   xmlns="http://www.w3.org/2000/svg"
   xmlns:svg="http://www.w3.org/2000/svg">
  <sodipodi:namedview
     id="namedview1"
     pagecolor="#ffffff"
     bordercolor="#000000"
     borderopacity="0.25"
     inkscape:showpageshadow="2"
     inkscape:pageopacity="0.0"
     inkscape:pagecheckerboard="0"
     inkscape:deskcolor="#d1d1d1"
     inkscape:document-units="px"
     inkscape:zoom="36.136364"
     inkscape:cx="11"
     inkscape:cy="11"
     inkscape:window-width="1920"
     inkscape:window-height="1010"
     inkscape:window-x="0"
     inkscape:window-y="0"
     inkscape:window-maximized="1"
     inkscape:current-layer="svg1" />
  <defs
     id="defs1">
    <linearGradient
       inkscape:collect="always"
       xlink:href="#linearGradient928"
       id="linearGradient4"
       x1="16"
       y1="30"
       x2="16"
       y2="2"
       gradientUnits="userSpaceOnUse"
       gradientTransform="matrix(0.71428571,0,0,0.71428571,-0.42857143,-0.42857143)" />
    <linearGradient
       inkscape:collect="always"
       id="linearGradient928">
      <stop
         style="stop-color:#197cf1;stop-opacity:1;"
         offset="0"
         id="stop924" />
      <stop
         style="stop-color:#20bcfa;stop-opacity:1;"
         offset="1"
         id="stop926" />
    </linearGradient>
  </defs>
  <rect
     style="opacity:0.2;fill:#000000;stroke-width:1.75"
     id="rect1"
     width="20"
     height="20"
     x="1"
     y="1.5"
     ry="4" />
  <rect
     style="fill:url(#linearGradient4);stroke-width:0.714286"
     id="rect2"
     width="20"
     height="20"
     x="1"
     y="1"
     ry="4" />
  <path
     style="color:#000000;fill:#ececec;fill-opacity:1;stroke:none;stroke-linecap:round;stroke-linejoin:round;-inkscape-stroke:none"
     d="M 11,8 C 8.796786,8 7,6.2032145 7,4 A 0.5,0.5 0 0 1 7.5,3.5 0.5,0.5 0 0 1 8,4 c 0,1.6627749 1.337225,3 3,3 1.662775,0 3,-1.3372251 3,-3 A 0.5,0.5 0 0 1 14.5,3.5 0.5,0.5 0 0 1 15,4 c 0,2.2032145 -1.796786,4 -4,4 z"
     id="path6954" />
  <path
     id="path360"
     style="fill:#ffffff;stroke-width:0.833333"
     d="m 8.6660156,9 c -0.5539944,0 -1,0.4459976 -1,1 0,0.553993 0.4460056,1 1,1 0.5540025,0 1,-0.446005 1,-1 0,-0.554001 -0.4459975,-1 -1,-1 z M 12.429688,9 11,10.333984 l 2.144531,2 -2.144531,2 1.429688,1.332032 L 16,12.333984 Z M 7,13 c -0.5539943,0 -1,0.445998 -1,1 0,0.553993 0.4460057,1 1,1 0.5540025,0 1,-0.446006 1,-1 0,-0.554001 -0.4459975,-1 -1,-1 z m 2.5,3 C 8.669008,16 8,16.668996 8,17.5 8,18.33099 8.669008,19 9.5,19 10.331003,19 11,18.330992 11,17.5 11,16.668998 10.331003,16 9.5,16 Z" />
</svg>
