<?xml version="1.0" encoding="UTF-8" standalone="no"?>
<!-- Created with Inkscape (http://www.inkscape.org/) -->

<svg
   width="22"
   height="22"
   viewBox="0 0 22 22.000002"
   version="1.1"
   id="svg1"
   inkscape:version="1.4.2 (ebf0e940d0, 2025-05-08)"
   sodipodi:docname="polari.svg"
   xmlns:inkscape="http://www.inkscape.org/namespaces/inkscape"
   xmlns:sodipodi="http://sodipodi.sourceforge.net/DTD/sodipodi-0.dtd"
   xmlns:xlink="http://www.w3.org/1999/xlink"
   xmlns="http://www.w3.org/2000/svg"
   xmlns:svg="http://www.w3.org/2000/svg">
  <sodipodi:namedview
     id="namedview1"
     pagecolor="#ffffff"
     bordercolor="#000000"
     borderopacity="0.25"
     inkscape:showpageshadow="2"
     inkscape:pageopacity="0.0"
     inkscape:pagecheckerboard="0"
     inkscape:deskcolor="#d1d1d1"
     inkscape:document-units="px"
     inkscape:zoom="36.727273"
     inkscape:cx="10.986386"
     inkscape:cy="11"
     inkscape:window-width="1920"
     inkscape:window-height="1011"
     inkscape:window-x="0"
     inkscape:window-y="0"
     inkscape:window-maximized="1"
     inkscape:current-layer="svg1" />
  <defs
     id="defs1">
    <linearGradient
       inkscape:collect="always"
       xlink:href="#linearGradient2742"
       id="linearGradient4"
       x1="16"
       y1="30"
       x2="16"
       y2="2"
       gradientUnits="userSpaceOnUse"
       gradientTransform="matrix(0.71428571,0,0,0.71428571,-0.42857143,-0.42857143)" />
    <linearGradient
       inkscape:collect="always"
       id="linearGradient2742">
      <stop
         style="stop-color:#1ccd6b;stop-opacity:1;"
         offset="0"
         id="stop2738" />
      <stop
         style="stop-color:#8be65c;stop-opacity:1;"
         offset="1"
         id="stop2740" />
    </linearGradient>
  </defs>
  <rect
     style="opacity:0.2;fill:#000000;stroke-width:1.75"
     id="rect1"
     width="20"
     height="20"
     x="1"
     y="1.5"
     ry="4" />
  <rect
     style="fill:url(#linearGradient4);stroke-width:0.714286"
     id="rect2"
     width="20"
     height="20"
     x="1"
     y="1"
     ry="4" />
  <path
     id="path1"
     style="fill:#ffffff;stroke-width:2"
     d="M 9.5,5 C 6.453,5 4,7.453 4,10.5 4,12.56847 5.1312287,14.363327 6.8105469,15.302734 6.4040819,16.843197 6,18 6,18 c 0,0 1.3359094,-0.632775 2.9863281,-2.023438 0.169107,0.01553 0.3403804,0.02344 0.5136719,0.02344 h 3 c 3.047,0 5.5,-2.453 5.5,-5.5 0,-3.047 -2.453,-5.5 -5.5,-5.5 z" />
  <path
     d="m 9,7 h 1 L 9.75,9 h 2 L 12,7 h 1 L 12.75,9 H 14 v 1 h -1.375 l -0.25,2 H 14 v 1 H 12.25 L 12,15 h -1 l 0.25,-2 h -2 L 9,15 H 8 L 8.25,13 H 7 v -1 h 1.375 l 0.25,-2 H 7 V 9 h 1.75 z m 0.625,3 -0.25,2 h 2 l 0.25,-2 z"
     style="fill:#3bbd1e;stroke-width:2;stroke-linecap:round;stroke-linejoin:round;fill-opacity:1"
     id="path1-6" />
</svg>
