<?xml version="1.0" encoding="UTF-8" standalone="no"?>
<!-- Created with Inkscape (http://www.inkscape.org/) -->

<svg
   width="22"
   height="22"
   viewBox="0 0 22 22.000002"
   version="1.1"
   id="svg1"
   inkscape:version="1.4.2 (ebf0e940d0, 2025-05-08)"
   sodipodi:docname="preferences-desktop-launch-feedback.svg"
   xmlns:inkscape="http://www.inkscape.org/namespaces/inkscape"
   xmlns:sodipodi="http://sodipodi.sourceforge.net/DTD/sodipodi-0.dtd"
   xmlns:xlink="http://www.w3.org/1999/xlink"
   xmlns="http://www.w3.org/2000/svg"
   xmlns:svg="http://www.w3.org/2000/svg">
  <sodipodi:namedview
     id="namedview1"
     pagecolor="#ffffff"
     bordercolor="#000000"
     borderopacity="0.25"
     inkscape:showpageshadow="2"
     inkscape:pageopacity="0.0"
     inkscape:pagecheckerboard="0"
     inkscape:deskcolor="#d1d1d1"
     inkscape:document-units="px"
     inkscape:zoom="35.727273"
     inkscape:cx="10.986005"
     inkscape:cy="11"
     inkscape:window-width="1920"
     inkscape:window-height="1011"
     inkscape:window-x="0"
     inkscape:window-y="0"
     inkscape:window-maximized="1"
     inkscape:current-layer="svg1" />
  <defs
     id="defs1">
    <linearGradient
       inkscape:collect="always"
       xlink:href="#linearGradient6542"
       id="linearGradient4"
       x1="16"
       y1="30"
       x2="16"
       y2="2"
       gradientUnits="userSpaceOnUse"
       gradientTransform="matrix(0.71428571,0,0,0.71428571,-0.42857143,-0.42857143)" />
    <linearGradient
       inkscape:collect="always"
       id="linearGradient6542">
      <stop
         style="stop-color:#9aafb9;stop-opacity:1;"
         offset="0"
         id="stop6538" />
      <stop
         style="stop-color:#688492;stop-opacity:1;"
         offset="1"
         id="stop6540" />
    </linearGradient>
  </defs>
  <rect
     style="opacity:0.2;fill:#000000;stroke-width:1.75"
     id="rect1"
     width="20"
     height="20"
     x="1"
     y="1.5"
     ry="4" />
  <rect
     style="fill:url(#linearGradient4);stroke-width:0.714286"
     id="rect2"
     width="20"
     height="20"
     x="1"
     y="1"
     ry="4" />
  <path
     d="m 16.999461,4.9995655 c 0,0 -1.799456,-0.050479 -3.597913,0.8496432 C 12.851867,6.0991039 12.252215,6.498936 11.752505,6.998726 10.944473,7.8068869 9.689201,9.294762 8.7007745,10.497258 H 6.5055478 l -0.9994203,1.49937 1.6950166,0.458307 c 0.005,0.06047 0.020988,0.145938 0.06796,0.261391 L 7.005757,13.295582 c 0,0 -0.099942,0.199916 0.6496231,0.999581 0.7995363,0.800164 1.0493912,0.699706 1.0493912,0.699706 L 9.325911,14.712988 c 0.09295,0.02899 0.161906,0.03899 0.20688,0.03899 l 0.471227,1.742265 1.499131,-0.999581 v -2.26255 c 1.210798,-0.979089 2.696436,-2.209572 3.497971,-2.985247 0.49971,-0.49979 0.899478,-1.099538 1.198805,-1.6493072 0.849007,-1.7987448 0.799536,-3.5979893 0.799536,-3.5979893 z M 13.50149,9.497677 c -0.550181,0 -0.99942,-0.449811 -0.99942,-0.9995804 0,-0.550269 0.449239,-0.9995804 0.99942,-0.9995804 0.549681,0 0.99942,0.4493114 0.99942,0.9995804 0,0.5497694 -0.450239,0.9995804 -0.99942,0.9995804 z m -5.2469569,5.997482 c 0.099942,0.05048 0.149913,0.09996 0.2498552,0.149937 -0.099942,0.09996 -0.199884,0.249896 -0.3003257,0.349854 -1.1498331,1.149517 -3.1976454,0.99958 -3.1976454,0.99958 0,0 -0.149913,-2.04964 0.9994204,-3.198158 0.099942,-0.100457 0.249855,-0.199416 0.349797,-0.300373 0.049971,0.09996 0.099442,0.149937 0.149913,0.249894 -0.7495653,0.949102 -0.6496233,2.398994 -0.6496233,2.398994 0,0 1.4486598,0.09996 2.3986088,-0.649728 z"
     id="path312"
     style="fill:#ffffff;stroke-width:1.00012" />
</svg>
