<?xml version="1.0" encoding="UTF-8" standalone="no"?>
<!-- Created with Inkscape (http://www.inkscape.org/) -->

<svg
   width="22"
   height="22"
   viewBox="0 0 22 22.000002"
   version="1.1"
   id="svg1"
   inkscape:version="1.4 (e7c3feb100, 2024-10-09)"
   sodipodi:docname="preferences-desktop-accessibility.svg"
   xmlns:inkscape="http://www.inkscape.org/namespaces/inkscape"
   xmlns:sodipodi="http://sodipodi.sourceforge.net/DTD/sodipodi-0.dtd"
   xmlns:xlink="http://www.w3.org/1999/xlink"
   xmlns="http://www.w3.org/2000/svg"
   xmlns:svg="http://www.w3.org/2000/svg">
  <sodipodi:namedview
     id="namedview1"
     pagecolor="#ffffff"
     bordercolor="#000000"
     borderopacity="0.25"
     inkscape:showpageshadow="2"
     inkscape:pageopacity="0.0"
     inkscape:pagecheckerboard="0"
     inkscape:deskcolor="#d1d1d1"
     inkscape:document-units="px"
     inkscape:zoom="36.727273"
     inkscape:cx="10.986386"
     inkscape:cy="11"
     inkscape:window-width="1920"
     inkscape:window-height="1011"
     inkscape:window-x="0"
     inkscape:window-y="0"
     inkscape:window-maximized="1"
     inkscape:current-layer="svg1" />
  <defs
     id="defs1">
    <linearGradient
       inkscape:collect="always"
       xlink:href="#linearGradient937"
       id="linearGradient4"
       x1="16"
       y1="30"
       x2="16"
       y2="2"
       gradientUnits="userSpaceOnUse"
       gradientTransform="matrix(0.71428571,0,0,0.71428571,-0.42857143,-0.42857143)" />
    <linearGradient
       inkscape:collect="always"
       id="linearGradient937">
      <stop
         style="stop-color:#0861bd;stop-opacity:1;"
         offset="0"
         id="stop933" />
      <stop
         style="stop-color:#2da9ff;stop-opacity:1;"
         offset="1"
         id="stop935" />
    </linearGradient>
  </defs>
  <rect
     style="opacity:0.2;fill:#000000;stroke-width:1.75"
     id="rect1"
     width="20"
     height="20"
     x="1"
     y="1.5"
     ry="4" />
  <rect
     style="fill:url(#linearGradient4);stroke-width:0.714286"
     id="rect2"
     width="20"
     height="20"
     x="1"
     y="1"
     ry="4" />
  <path
     id="path2789"
     style="fill:#ffffff;stroke-width:2"
     d="M 10.5,4 C 9.671554,4 9,4.6715529 9,5.5 9,6.3284474 9.671554,7 10.5,7 11.328446,7 12,6.3284474 12,5.5 12,4.6715529 11.328446,4 10.5,4 Z m -5,4 C 5.2238579,8 5,8.2238579 5,8.5 5,8.7761426 5.2238579,8.9999996 5.5,8.9999996 H 9 V 17.5 A 0.5,0.5 0 0 0 9.5,18 0.5,0.5 0 0 0 10,17.5 0.5,0.5 0 0 0 10,17.47461 V 12 h 1 v 5.5 A 0.5,0.5 0 0 0 11.5,18 0.5,0.5 0 0 0 12,17.5 0.5,0.5 0 0 0 12,17.47461 V 8.9999996 h 3.5 C 15.776142,8.9999996 16,8.7761426 16,8.5 16,8.2238579 15.776142,8 15.5,8 H 5.5253906 C 5.5169306,7.9997851 5.5084626,7.9997851 5.5,8 Z" />
</svg>
