<?xml version="1.0" encoding="UTF-8" standalone="no"?>
<!-- Created with Inkscape (http://www.inkscape.org/) -->

<svg
   width="22"
   height="22"
   viewBox="0 0 22 22.000002"
   version="1.1"
   id="svg1"
   inkscape:version="1.4.2 (ebf0e940d0, 2025-05-08)"
   sodipodi:docname="preferences-plugin.svg"
   xmlns:inkscape="http://www.inkscape.org/namespaces/inkscape"
   xmlns:sodipodi="http://sodipodi.sourceforge.net/DTD/sodipodi-0.dtd"
   xmlns:xlink="http://www.w3.org/1999/xlink"
   xmlns="http://www.w3.org/2000/svg"
   xmlns:svg="http://www.w3.org/2000/svg">
  <sodipodi:namedview
     id="namedview1"
     pagecolor="#ffffff"
     bordercolor="#000000"
     borderopacity="0.25"
     inkscape:showpageshadow="2"
     inkscape:pageopacity="0.0"
     inkscape:pagecheckerboard="0"
     inkscape:deskcolor="#d1d1d1"
     inkscape:document-units="px"
     inkscape:zoom="35.727273"
     inkscape:cx="10.958015"
     inkscape:cy="11"
     inkscape:window-width="1920"
     inkscape:window-height="1011"
     inkscape:window-x="0"
     inkscape:window-y="0"
     inkscape:window-maximized="1"
     inkscape:current-layer="svg1" />
  <defs
     id="defs1">
    <linearGradient
       inkscape:collect="always"
       xlink:href="#linearGradient3147"
       id="linearGradient4"
       x1="16"
       y1="30"
       x2="16"
       y2="2"
       gradientUnits="userSpaceOnUse"
       gradientTransform="matrix(0.71428571,0,0,0.71428571,-0.42857143,-0.42857143)" />
    <linearGradient
       inkscape:collect="always"
       id="linearGradient3147">
      <stop
         style="stop-color:#0091f9;stop-opacity:1;"
         offset="0"
         id="stop3143" />
      <stop
         style="stop-color:#41bbff;stop-opacity:1;"
         offset="1"
         id="stop3145" />
    </linearGradient>
  </defs>
  <rect
     style="opacity:0.2;fill:#000000;stroke-width:1.75"
     id="rect1"
     width="20"
     height="20"
     x="1"
     y="1.5"
     ry="4" />
  <rect
     style="fill:url(#linearGradient4);stroke-width:0.714286"
     id="rect2"
     width="20"
     height="20"
     x="1"
     y="1"
     ry="4" />
  <path
     d="M 10,3 C 8.892001,3 8,3.8920011 8,5.0000002 v 1 H 5.845703 C 4.822904,6.0000002 4,6.8229342 4,7.8457032 v 2.1542965 h 1 c 1.107998,0 2,0.8920023 2,2.0000003 0,1.107998 -0.892002,2 -2,2 H 4 v 2.154297 C 4,17.177096 4.822934,18 5.845703,18 H 8 v -1 c 0,-1.107998 0.892002,-2 2,-2 1.107998,0 2,0.892002 2,2 v 1 h 2.154297 C 15.177096,18 16,17.177066 16,16.154297 V 14 h 1 c 1.107998,0 2,-0.892001 2,-2 0,-1.107999 -0.892002,-2.0000003 -2,-2.0000003 H 16 V 7.8457032 c 0,-1.022799 -0.822933,-1.845703 -1.845703,-1.845703 H 12 v -1 C 12,3.8920011 11.107999,3 10,3 Z"
     style="fill:#ffffff;fill-opacity:1"
     id="path3401"
     sodipodi:nodetypes="sscsscssscsscssscsscssscsscss" />
</svg>
