<?xml version="1.0" encoding="UTF-8" standalone="no"?>
<!-- Created with Inkscape (http://www.inkscape.org/) -->

<svg
   width="22"
   height="22"
   viewBox="0 0 22 22.000002"
   version="1.1"
   id="svg1"
   inkscape:version="1.4.2 (ebf0e940d0, 2025-05-08)"
   sodipodi:docname="preferences-desktop-gaming.svg"
   xmlns:inkscape="http://www.inkscape.org/namespaces/inkscape"
   xmlns:sodipodi="http://sodipodi.sourceforge.net/DTD/sodipodi-0.dtd"
   xmlns:xlink="http://www.w3.org/1999/xlink"
   xmlns="http://www.w3.org/2000/svg"
   xmlns:svg="http://www.w3.org/2000/svg">
  <sodipodi:namedview
     id="namedview1"
     pagecolor="#ffffff"
     bordercolor="#000000"
     borderopacity="0.25"
     inkscape:showpageshadow="2"
     inkscape:pageopacity="0.0"
     inkscape:pagecheckerboard="0"
     inkscape:deskcolor="#d1d1d1"
     inkscape:document-units="px"
     inkscape:zoom="35.727273"
     inkscape:cx="10.958015"
     inkscape:cy="11.013995"
     inkscape:window-width="1920"
     inkscape:window-height="1010"
     inkscape:window-x="0"
     inkscape:window-y="0"
     inkscape:window-maximized="1"
     inkscape:current-layer="svg1" />
  <defs
     id="defs1">
    <linearGradient
       inkscape:collect="always"
       xlink:href="#linearGradient1144"
       id="linearGradient4"
       x1="16"
       y1="30"
       x2="16"
       y2="2"
       gradientUnits="userSpaceOnUse"
       gradientTransform="matrix(0.71428571,0,0,0.71428571,-0.42857143,-0.42857143)" />
    <linearGradient
       inkscape:collect="always"
       id="linearGradient1144">
      <stop
         style="stop-color:#adb2b9;stop-opacity:1;"
         offset="0"
         id="stop1140" />
      <stop
         style="stop-color:#e0e2e4;stop-opacity:1;"
         offset="1"
         id="stop1142" />
    </linearGradient>
  </defs>
  <rect
     style="opacity:0.2;fill:#000000;stroke-width:1.75"
     id="rect1"
     width="20"
     height="20"
     x="1"
     y="1.5"
     ry="4" />
  <rect
     style="fill:url(#linearGradient4);stroke-width:0.714286"
     id="rect2"
     width="20"
     height="20"
     x="1"
     y="1"
     ry="4" />
  <rect
     style="fill:#ffffff;stroke-width:2;stroke-linecap:round;stroke-linejoin:round"
     id="rect236"
     width="10.928748"
     height="3.8750882"
     x="5.5644531"
     y="8.6074219"
     ry="1.9375441" />
  <path
     id="path12982"
     style="fill:#4d4d4d"
     d="M 7.71875,7 C 6.9002767,7 6.0439386,7.4357044 5.5644531,8.6074219 4.5518994,11.080031 4,12.992442 4,14.152345 c 0,0.892099 0.3278239,1.458247 1.0214844,1.789061 0.081299,0.03888 0.1709732,0.05873 0.2617187,0.05859 0.1444543,2.78e-4 0.2826613,-0.05003 0.390625,-0.142578 l 1.8144531,-1.345704 c 0.3249394,-0.277886 0.609029,-0.564453 1.4023438,-0.564453 h 4.21875 c 0.793316,0 1.076751,0.28641 1.402344,0.564453 l 1.814453,1.345704 c 0.180042,0.153855 0.438662,0.186823 0.654297,0.08398 C 17.673966,15.610741 18,15.045072 18,14.152344 18,12.992598 17.449564,11.079559 16.4375,8.6074209 15.958015,7.4357044 15.09956,7 14.28125,7 c -0.382771,0 -0.757425,0.095021 -1.080078,0.2558594 -1.384869,0.6879396 -2.98644,0.7025898 -4.4003908,0 C 8.4769866,7.0950223 8.1013575,7 7.71875,7 Z M 7,9 h 1 v 1 h 1 v 1.000001 H 8 v 1 H 7 v -1 H 6 V 10 h 1 z m 7,0 h 1 v 1 h 1 v 1.000001 h -1 v 1 h -1 v -1 H 13 V 10 h 1 z m 0,1 v 1.000001 h 1 V 10 Z" />
</svg>
