<?xml version="1.0" encoding="UTF-8" standalone="no"?>
<!-- Created with Inkscape (http://www.inkscape.org/) -->

<svg
   width="22"
   height="22"
   viewBox="0 0 22 22.000002"
   version="1.1"
   id="svg1"
   inkscape:version="1.4.2 (ebf0e940d0, 2025-05-08)"
   sodipodi:docname="preferences-system.svg"
   xmlns:inkscape="http://www.inkscape.org/namespaces/inkscape"
   xmlns:sodipodi="http://sodipodi.sourceforge.net/DTD/sodipodi-0.dtd"
   xmlns:xlink="http://www.w3.org/1999/xlink"
   xmlns="http://www.w3.org/2000/svg"
   xmlns:svg="http://www.w3.org/2000/svg">
  <sodipodi:namedview
     id="namedview1"
     pagecolor="#ffffff"
     bordercolor="#000000"
     borderopacity="0.25"
     inkscape:showpageshadow="2"
     inkscape:pageopacity="0.0"
     inkscape:pagecheckerboard="0"
     inkscape:deskcolor="#d1d1d1"
     inkscape:document-units="px"
     inkscape:zoom="36.136364"
     inkscape:cx="11"
     inkscape:cy="11"
     inkscape:window-width="1920"
     inkscape:window-height="1010"
     inkscape:window-x="0"
     inkscape:window-y="0"
     inkscape:window-maximized="1"
     inkscape:current-layer="svg1" />
  <defs
     id="defs1">
    <linearGradient
       inkscape:collect="always"
       xlink:href="#linearGradient2116"
       id="linearGradient4"
       x1="16"
       y1="30"
       x2="16"
       y2="2"
       gradientUnits="userSpaceOnUse"
       gradientTransform="matrix(0.71428571,0,0,0.71428571,-0.42857143,-0.42857143)" />
    <linearGradient
       inkscape:collect="always"
       id="linearGradient2116">
      <stop
         style="stop-color:#657481;stop-opacity:1;"
         offset="0"
         id="stop2112" />
      <stop
         style="stop-color:#9ba6b0;stop-opacity:1;"
         offset="1"
         id="stop2114" />
    </linearGradient>
  </defs>
  <rect
     style="opacity:0.2;fill:#000000;stroke-width:1.75"
     id="rect1"
     width="20"
     height="20"
     x="1"
     y="1.5"
     ry="4" />
  <rect
     style="fill:url(#linearGradient4);stroke-width:0.714286"
     id="rect2"
     width="20"
     height="20"
     x="1"
     y="1"
     ry="4" />
  <path
     id="rect465"
     style="opacity:0.6;fill:#ffffff;stroke-linecap:round;stroke-linejoin:round"
     d="m 12.754904,4.1501598 -1.402496,2.370277 a 4.5,4.5 0 0 1 1.369668,0.3221053 4.5,4.5 0 0 1 1.198506,0.7353249 L 14.602664,4.9155267 Z M 9.2452825,4.1508914 7.3977213,4.9161767 8.0822455,7.5864752 A 4.5,4.5 0 0 1 10.649438,6.5231096 Z M 17.083823,7.3977211 14.42118,8.0790744 a 4.5,4.5 0 0 1 1.063366,2.5671916 L 17.849109,9.2452829 Z M 7.5832798,8.0816606 4.9155267,7.3973365 4.1501598,9.2450955 6.5204363,10.647592 A 4.5,4.5 0 0 1 6.8425421,9.2779246 4.5,4.5 0 0 1 7.5832798,8.0816606 Z m 7.9016972,3.2729904 a 4.5,4.5 0 0 1 -0.327519,1.367425 4.5,4.5 0 0 1 -0.740739,1.196263 l 2.667754,0.684325 0.765367,-1.84776 z m -8.9618673,-0.0041 -2.3722183,1.404155 0.7652847,1.847562 2.6702995,-0.684525 A 4.5,4.5 0 0 1 6.5231097,11.350562 Z m 7.3946443,3.062963 a 4.5,4.5 0 0 1 -2.567192,1.063365 l 1.404154,2.372218 1.847563,-0.765284 z m -5.8360935,0.0032 -0.684324,2.667753 1.847759,0.765367 1.4024965,-2.370276 A 4.5,4.5 0 0 1 9.2779246,15.157458 4.5,4.5 0 0 1 8.0816605,14.41672 Z" />
  <path
     id="path632"
     style="fill:#ffffff;stroke-linecap:round;stroke-linejoin:round"
     d="m 11,6 a 5,5 0 0 0 -5,5 5,5 0 0 0 5,5 5,5 0 0 0 5,-5 5,5 0 0 0 -5,-5 z m 0,3 a 2,2 0 0 1 2,2 2,2 0 0 1 -2,2 2,2 0 0 1 -2,-2 2,2 0 0 1 2,-2 z" />
</svg>
