<?xml version="1.0" encoding="UTF-8" standalone="no"?>
<!-- Created with Inkscape (http://www.inkscape.org/) -->

<svg
   width="22"
   height="22"
   viewBox="0 0 22 22.000002"
   version="1.1"
   id="svg1"
   inkscape:version="1.4.2 (ebf0e940d0, 2025-05-08)"
   sodipodi:docname="spotify-client.svg"
   xmlns:inkscape="http://www.inkscape.org/namespaces/inkscape"
   xmlns:sodipodi="http://sodipodi.sourceforge.net/DTD/sodipodi-0.dtd"
   xmlns:xlink="http://www.w3.org/1999/xlink"
   xmlns="http://www.w3.org/2000/svg"
   xmlns:svg="http://www.w3.org/2000/svg">
  <sodipodi:namedview
     id="namedview1"
     pagecolor="#ffffff"
     bordercolor="#000000"
     borderopacity="0.25"
     inkscape:showpageshadow="2"
     inkscape:pageopacity="0.0"
     inkscape:pagecheckerboard="0"
     inkscape:deskcolor="#d1d1d1"
     inkscape:document-units="px"
     inkscape:zoom="36.136364"
     inkscape:cx="11"
     inkscape:cy="11"
     inkscape:window-width="1920"
     inkscape:window-height="1010"
     inkscape:window-x="0"
     inkscape:window-y="0"
     inkscape:window-maximized="1"
     inkscape:current-layer="svg1" />
  <defs
     id="defs1">
    <linearGradient
       inkscape:collect="always"
       xlink:href="#linearGradient3"
       id="linearGradient4"
       x1="16"
       y1="30"
       x2="16"
       y2="2"
       gradientUnits="userSpaceOnUse"
       gradientTransform="matrix(0.71428571,0,0,0.71428571,-0.42857143,-0.42857143)" />
    <linearGradient
       inkscape:collect="always"
       id="linearGradient3">
      <stop
         style="stop-color:#2eb75b;stop-opacity:1;"
         offset="0"
         id="stop1" />
      <stop
         style="stop-color:#96d573;stop-opacity:1;"
         offset="1"
         id="stop2" />
    </linearGradient>
  </defs>
  <rect
     style="opacity:0.2;fill:#000000;stroke-width:1.75"
     id="rect1"
     width="20"
     height="20"
     x="1"
     y="1.5"
     ry="4" />
  <rect
     style="fill:url(#linearGradient4);stroke-width:0.714286"
     id="rect2"
     width="20"
     height="20"
     x="1"
     y="1"
     ry="4" />
  <path
     d="M 9.2714844,5.9960938 C 7.5131305,6.0839952 5.8566198,6.4535261 4.5527344,7.1054688 4.0586459,7.3524412 3.8583815,7.9532346 4.1054688,8.4472656 4.3524412,8.9413541 4.9532346,9.1416185 5.4472656,8.8945312 6.7087517,8.2637881 8.8427769,7.8812394 10.945312,7.9980469 13.047847,8.1148544 15.111251,8.7274746 16.359375,9.7675781 16.783334,10.121265 17.413712,10.064435 17.767578,9.640625 18.121265,9.2166656 18.064435,8.5862881 17.640625,8.2324219 15.888749,6.7725254 13.452151,6.1351456 11.054688,6.0019531 10.455321,5.968655 9.8576023,5.9667933 9.2714844,5.9960938 Z m 0.4824218,4.0019531 c -1.4692212,0.015254 -2.918171,0.2057601 -4.2089843,0.5234371 -0.402472,0.09907 -0.6482734,0.505824 -0.5488281,0.908204 0.099071,0.402472 0.5058238,0.648273 0.9082031,0.548828 3.1078308,-0.764859 7.4441401,-0.616327 9.9550781,0.912109 0.353777,0.215929 0.815629,0.103965 1.03125,-0.25 0.215929,-0.353777 0.103965,-0.815629 -0.25,-1.03125 -1.545531,-0.940782 -3.45912,-1.423803 -5.416016,-1.566406 -0.489224,-0.03565 -0.980962,-0.050007 -1.4707028,-0.044922 z m 1.2578128,3.3945311 c -1.6540213,-0.02792 -3.273973,0.238459 -4.4980471,0.646484 -0.3923231,0.130886 -0.604647,0.554661 -0.4746094,0.947266 0.1308862,0.392323 0.5546603,0.604647 0.9472656,0.47461 1.0259259,-0.341977 2.5309743,-0.595143 4.0019529,-0.570313 1.470979,0.02483 2.901889,0.33829 3.837891,0.978516 0.341904,0.234255 0.808997,0.146785 1.042969,-0.195313 0.234255,-0.341904 0.146785,-0.808997 -0.195313,-1.042969 -1.313998,-0.898774 -3.008088,-1.210361 -4.662109,-1.238281 z"
     style="baseline-shift:baseline;display:inline;overflow:visible;vector-effect:none;fill:#363636;stroke-linecap:round;enable-background:accumulate;stop-color:#000000;fill-opacity:1"
     id="path1" />
</svg>
