<?xml version="1.0" encoding="UTF-8" standalone="no"?>
<!-- Created with Inkscape (http://www.inkscape.org/) -->

<svg
   width="22"
   height="22"
   viewBox="0 0 22 22.000002"
   version="1.1"
   id="svg1"
   inkscape:version="1.4.2 (ebf0e940d0, 2025-05-08)"
   sodipodi:docname="utilities-log-viewer.svg"
   xmlns:inkscape="http://www.inkscape.org/namespaces/inkscape"
   xmlns:sodipodi="http://sodipodi.sourceforge.net/DTD/sodipodi-0.dtd"
   xmlns:xlink="http://www.w3.org/1999/xlink"
   xmlns="http://www.w3.org/2000/svg"
   xmlns:svg="http://www.w3.org/2000/svg">
  <sodipodi:namedview
     id="namedview1"
     pagecolor="#ffffff"
     bordercolor="#000000"
     borderopacity="0.25"
     inkscape:showpageshadow="2"
     inkscape:pageopacity="0.0"
     inkscape:pagecheckerboard="0"
     inkscape:deskcolor="#d1d1d1"
     inkscape:document-units="px"
     inkscape:zoom="35.727273"
     inkscape:cx="10.986005"
     inkscape:cy="11"
     inkscape:window-width="1920"
     inkscape:window-height="1011"
     inkscape:window-x="0"
     inkscape:window-y="0"
     inkscape:window-maximized="1"
     inkscape:current-layer="svg1" />
  <defs
     id="defs1">
    <linearGradient
       inkscape:collect="always"
       xlink:href="#linearGradient1217"
       id="linearGradient4"
       x1="16"
       y1="30"
       x2="16"
       y2="2"
       gradientUnits="userSpaceOnUse"
       gradientTransform="matrix(0.71428571,0,0,0.71428571,-0.42857141,-0.42857143)" />
    <linearGradient
       inkscape:collect="always"
       id="linearGradient1217">
      <stop
         style="stop-color:#96a3ad;stop-opacity:1;"
         offset="0"
         id="stop1213" />
      <stop
         style="stop-color:#c4c8cd;stop-opacity:1;"
         offset="1"
         id="stop1215" />
    </linearGradient>
  </defs>
  <rect
     style="opacity:0.2;fill:#000000;stroke-width:1.75"
     id="rect1"
     width="20"
     height="20"
     x="1"
     y="1.5"
     ry="4" />
  <rect
     style="fill:url(#linearGradient4);stroke-width:0.714286"
     id="rect2"
     width="20"
     height="20"
     x="1"
     y="1"
     ry="4" />
  <rect
     style="opacity:0.5;fill:#ffffff;stroke-linecap:round"
     id="rect3"
     width="14"
     height="1"
     x="4"
     y="6"
     ry="0.5" />
  <rect
     style="opacity:0.5;fill:#ffffff;stroke-linecap:round"
     id="rect4"
     width="14"
     height="1"
     x="4"
     y="10"
     ry="0.5" />
  <rect
     style="opacity:0.5;fill:#ffffff;stroke-linecap:round"
     id="rect5"
     width="9"
     height="1"
     x="4"
     y="14"
     ry="0.5" />
  <path
     id="path914"
     style="fill:#ffffff;fill-opacity:1;stroke-width:2;stroke-linecap:round;stroke-linejoin:round"
     d="M 12.5,8 C 10.567003,8 9,9.567003 9,11.5 c 0,1.932997 1.567003,3.5 3.5,3.5 0.754175,-0.0031 1.487178,-0.249711 2.089844,-0.703125 l 2.21264,2.212641 c 0.195869,0.195868 0.511163,0.195868 0.707032,0 0.195868,-0.195869 0.195868,-0.511163 0,-0.707032 l -2.212641,-2.21264 C 15.750289,12.987178 15.996907,12.254175 16,11.5 16,9.567003 14.432997,8 12.5,8 Z m 0,1 C 13.880712,9 15,10.119288 15,11.5 15,12.880712 13.880712,14 12.5,14 11.119288,14 10,12.880712 10,11.5 10,10.119288 11.119288,9 12.5,9 Z"
     sodipodi:nodetypes="sscccscccssssss" />
</svg>
