<?xml version="1.0" encoding="UTF-8" standalone="no"?>
<!-- Created with Inkscape (http://www.inkscape.org/) -->

<svg
   width="22"
   height="22"
   viewBox="0 0 22 22.000002"
   version="1.1"
   id="svg1"
   inkscape:version="1.4.2 (ebf0e940d0, 2025-05-08)"
   sodipodi:docname="wayland.svg"
   xmlns:inkscape="http://www.inkscape.org/namespaces/inkscape"
   xmlns:sodipodi="http://sodipodi.sourceforge.net/DTD/sodipodi-0.dtd"
   xmlns:xlink="http://www.w3.org/1999/xlink"
   xmlns="http://www.w3.org/2000/svg"
   xmlns:svg="http://www.w3.org/2000/svg">
  <sodipodi:namedview
     id="namedview1"
     pagecolor="#ffffff"
     bordercolor="#000000"
     borderopacity="0.25"
     inkscape:showpageshadow="2"
     inkscape:pageopacity="0.0"
     inkscape:pagecheckerboard="0"
     inkscape:deskcolor="#d1d1d1"
     inkscape:document-units="px"
     inkscape:zoom="36.181818"
     inkscape:cx="10.986181"
     inkscape:cy="11"
     inkscape:window-width="1920"
     inkscape:window-height="1011"
     inkscape:window-x="0"
     inkscape:window-y="0"
     inkscape:window-maximized="1"
     inkscape:current-layer="svg1" />
  <defs
     id="defs1">
    <linearGradient
       inkscape:collect="always"
       xlink:href="#linearGradient1511"
       id="linearGradient4"
       x1="16"
       y1="30"
       x2="16"
       y2="2"
       gradientUnits="userSpaceOnUse"
       gradientTransform="matrix(0.71428571,0,0,0.71428571,-0.42857141,-0.42857143)" />
    <linearGradient
       inkscape:collect="always"
       id="linearGradient1511">
      <stop
         style="stop-color:#ffb251;stop-opacity:1;"
         offset="0"
         id="stop1507" />
      <stop
         style="stop-color:#ffde75;stop-opacity:1;"
         offset="1"
         id="stop1509" />
    </linearGradient>
  </defs>
  <rect
     style="opacity:0.2;fill:#000000;stroke-width:1.75"
     id="rect1"
     width="20"
     height="20"
     x="1"
     y="1.5"
     ry="4" />
  <rect
     style="fill:url(#linearGradient4);stroke-width:0.714286"
     id="rect2"
     width="20"
     height="20"
     x="1"
     y="1"
     ry="4" />
  <path
     d="M 10.999111,4 C 9.8044939,4 8.6802531,4.3002929 7.6962981,4.8279284 h 1.3905628 v 0.094367 C 8.9011371,4.9311454 8.7762581,4.9796884 8.709401,5.0682944 8.568249,4.9708264 8.430041,4.9223059 8.2963241,4.9222954 h -0.455805 l -0.2563901,0.03917 -0.04451,-0.03917 h -0.01425 c -0.1821081,0.104349 -0.359229,0.216734 -0.5305861,0.336511 0.3925851,0.5626425 0.62964,1.048796 0.710417,1.456441 h 0.379242 v 0.094367 h -0.29022 V 6.9146635 C 7.905655,7.3223154 7.9879259,7.5271599 8.039929,7.5271529 h 0.08903 l 0.201194,-0.053414 0.04452,0.053414 0.04452,-0.053414 0.04452,0.053414 v 0.03917 C 8.3151341,7.6726739 8.21481,7.8200169 8.162811,8.0061049 h -0.03384 v 0.092585 h 0.07834 C 8.31131,9.5786131 8.505451,10.699932 8.7877509,11.46204 l 0.165585,0.131754 h 0.08902 c 0.111429,6e-6 0.346706,-0.517538 0.703293,-1.554368 C 9.9759419,9.5697611 10.141961,9.1582421 10.245967,8.803765 L 10.201447,8.6559845 C 10.43174,8.310384 10.670268,8.1378724 10.915426,8.1378619 h 0.07834 c 0.156003,1.05e-5 0.266088,0.097052 0.332952,0.2920016 0.208005,0.292446 0.375802,0.7326936 0.502099,1.3175606 l 0.624953,1.3816599 c 0.08171,0.09749 0.121069,0.208895 0.121072,0.332956 0.23029,0.522847 0.439226,0.867874 0.624953,1.036244 h 0.133536 c 0.156002,4e-6 0.363156,-0.646911 0.623175,-1.940736 0.04456,7e-6 0.167972,-0.345022 0.36856,-1.0362449 v -0.05342 l -0.701515,-0.09258 -0.167363,0.05163 h -0.21188 v -0.105049 l 0.423756,-0.04095 h 0.824369 c 0.319431,-1.1431592 0.612115,-2.0290791 0.87956,-2.6582742 0.02772,-0.402185 0.0602,-0.734153 0.09437,-1.011318 -0.485033,-0.4024825 -1.025367,-0.7414365 -1.607784,-1.0024175 -0.04767,0.110089 -0.139594,0.165599 -0.279538,0.165585 v -0.092582 l 0.258174,-0.083685 C 12.969932,4.2131964 12.009224,4.000001 10.999139,4.000001 Z M 9.6673019,4.8279284 h 1.1252711 v 0.094367 l -0.256389,0.03917 -0.245708,-0.03917 -0.211879,0.092585 -0.07656,-0.092585 H 9.6673039 Z m 2.3288821,0.7584885 h 0.122853 v 0.03917 c -3e-6,0.062044 -0.04114,0.092596 -0.122853,0.092586 l -0.04451,0.053413 v 0.053414 L 11.828817,5.7715859 V 5.6789999 Z M 6.0119541,6.0902944 C 4.767897,7.3538364 4,9.0876111 4,11.000892 4,14.866814 7.13319,18 10.999111,18 14.865033,18 18,14.866814 18,11.000892 18,9.4389901 17.488388,7.9955159 16.623681,6.8309784 16.435588,7.0541209 16.253234,7.4765079 16.07529,8.0986889 15.99356,8.7456045 15.855358,9.3440031 15.662214,9.8934261 15.491343,10.460583 15.405817,10.983508 15.405824,11.462038 l -0.322269,0.94366 c -7e-6,0.07976 0.121622,0.158833 0.366783,0.238584 -0.04458,0.186102 -0.11206,0.279542 -0.201194,0.279539 v 0.05342 h 0.07834 v 0.03917 c -10e-6,0.09748 -0.126672,0.146002 -0.379246,0.145998 l 0.04629,0.05342 v 0.186953 h -0.07834 c 0.052,0.186098 0.162082,0.277756 0.332955,0.277753 v 0.09437 h -0.332955 v 0.05342 c 0.111426,0 0.167359,0.07908 0.167366,0.238585 l -0.468268,0.185171 0.04452,0.05341 v 0.04095 c -7e-6,0.06204 -0.05594,0.09259 -0.167367,0.09259 v 0.05341 c 0.141138,4e-6 0.211873,0.03055 0.21188,0.09258 -0.200589,0.07976 -0.465458,0.475087 -0.792319,1.184026 -0.334306,0.629184 -0.623732,0.943659 -0.868879,0.943659 h -0.08903 C 12.768363,16.57092 12.617139,16.100114 12.498286,15.302559 12.022832,14.0885 11.784304,13.375095 11.784307,13.162407 c -3e-6,-0.549423 -0.153006,-1.133454 -0.457583,-1.753784 -0.08172,-0.274708 -0.135877,-0.621516 -0.165585,-1.038022 l -0.201197,-0.05164 c -0.505166,0.912765 -0.768254,1.626174 -0.790538,2.140149 -0.141152,0.301304 -0.2530191,0.6643 -0.3347331,1.089662 0.3045801,0.09748 0.4558011,0.190921 0.4558081,0.279538 v 0.05163 C 10.052752,13.8445 9.8867299,13.778012 9.7901609,13.68053 c -0.104009,0.23927 -0.242214,0.904155 -0.413077,1.994153 -0.133721,0.50512 -0.29974,0.758488 -0.5003179,0.758488 -0.5645919,-0.221546 -1.036619,-0.584542 -1.415491,-1.089661 -0.05943,3e-6 -0.156499,-0.253369 -0.29022,-0.758489 -0.08172,0 -0.1376479,-0.251587 -0.167363,-0.756707 C 6.7213961,13.110513 6.529036,12.289301 6.42503,11.367674 V 9.9860141 H 6.38051 l -0.201194,0.05341 v -0.05341 c 0,-0.06203 0.06748,-0.09258 0.201194,-0.09259 L 6.336,9.0957691 V 8.470814 L 6.0119491,6.4766644 Z m 5.3592809,0.014245 v 0.053417 c -7e-6,0.070903 -0.177569,0.146377 -0.534149,0.226121 v -0.094367 l 0.245707,-0.131754 0.04452,0.03917 h 0.03384 l 0.210098,-0.092586 z m -1.201834,0.478954 v 0.03917 C 10.013392,6.7644624 9.7600659,6.8938399 9.4109129,7.0090319 v -0.094367 c 0.05943,7e-6 0.08902,-0.04851 0.08903,-0.1459989 z m 6.302937,0.053413 -0.01957,0.1727075 h 0.07834 l 0.04807,-0.03739 c -0.03472,-0.04577 -0.071,-0.090437 -0.106831,-0.135317 z m -4.185934,0.4112955 0.04452,0.053413 v 0.03917 l -0.07834,0.1068305 h -0.04452 l -0.08903,-0.1068305 v -0.03917 z m 1.536567,0.053413 h 0.04451 v 0.03917 l -0.07656,0.1068305 h -0.04451 v -0.053414 z m -0.701516,0.6641215 0.167366,0.133539 c -0.02971,0.097486 -0.111993,0.146006 -0.245706,0.145999 l -0.08903,-0.145999 c -7e-6,-0.044305 0.05593,-0.089222 0.167367,-0.133539 z m 1.002417,0.6124896 0.03385,0.051635 v 0.04095 l -0.03385,0.053417 h -0.08902 V 8.470811 Z m -1.581076,0.4771725 v 0.04095 l -0.211879,0.1994166 h -0.122853 v -0.05342 c -8e-6,-0.079747 0.11186,-0.1426326 0.334732,-0.1869496 z M 5.632712,10.703545 h 0.04452 v 0.04096 C 5.565799,11.036948 5.470508,11.213065 5.38879,11.275091 H 5.29976 v -0.199416 z m 5.450081,2.220274 h 0.04452 v 0.09258 l -0.334733,0.199416 -0.04452,-0.05342 v -0.09258 z m -4.579421,0.624953 h 0.07656 l 0.133539,0.518123 H 6.624441 L 6.503369,13.587944 Z m 4.456567,0.610708 h 0.03384 l 0.133539,0.145999 -0.04452,0.04095 h -0.04452 l -0.07834,-0.133535 v -0.05341 z"
     style="display:inline;fill:#ffffff;stroke:none;stroke-width:0.35;enable-background:new"
     id="path3360"
     sodipodi:nodetypes="scccccccccccccccccccccccccccccccccccccccscccccccccccccccsscccccccccccscccccccsssccccccccccccccccccccccccccsccccccccccccccccccccsccccccccccccccccccccccccccccccccccccccccccccccccccccccccccccccccccccccccccccccccccccccc" />
</svg>
