<?xml version="1.0" encoding="UTF-8" standalone="no"?>
<!-- Created with Inkscape (http://www.inkscape.org/) -->

<svg
   width="22"
   height="22"
   viewBox="0 0 22 22.000002"
   version="1.1"
   id="svg1"
   inkscape:version="1.4 (e7c3feb100, 2024-10-09)"
   sodipodi:docname="xorg.svg"
   xmlns:inkscape="http://www.inkscape.org/namespaces/inkscape"
   xmlns:sodipodi="http://sodipodi.sourceforge.net/DTD/sodipodi-0.dtd"
   xmlns:xlink="http://www.w3.org/1999/xlink"
   xmlns="http://www.w3.org/2000/svg"
   xmlns:svg="http://www.w3.org/2000/svg">
  <sodipodi:namedview
     id="namedview1"
     pagecolor="#ffffff"
     bordercolor="#000000"
     borderopacity="0.25"
     inkscape:showpageshadow="2"
     inkscape:pageopacity="0.0"
     inkscape:pagecheckerboard="0"
     inkscape:deskcolor="#d1d1d1"
     inkscape:document-units="px"
     inkscape:zoom="35.727273"
     inkscape:cx="10.958015"
     inkscape:cy="11"
     inkscape:window-width="1920"
     inkscape:window-height="1011"
     inkscape:window-x="0"
     inkscape:window-y="0"
     inkscape:window-maximized="1"
     inkscape:current-layer="svg1" />
  <defs
     id="defs1">
    <linearGradient
       inkscape:collect="always"
       xlink:href="#linearGradient1144"
       id="linearGradient4"
       x1="16"
       y1="30"
       x2="16"
       y2="2"
       gradientUnits="userSpaceOnUse"
       gradientTransform="matrix(0.71428571,0,0,0.71428571,-0.42857143,-0.42857143)" />
    <linearGradient
       inkscape:collect="always"
       xlink:href="#linearGradient3678"
       id="linearGradient3680"
       x1="11.2"
       y1="21.507999"
       x2="52.799999"
       y2="48.809299"
       gradientUnits="userSpaceOnUse"
       gradientTransform="matrix(0.40291121,0,0,0.40291121,-1.8876048,-2.6658131)" />
    <linearGradient
       inkscape:collect="always"
       id="linearGradient3678">
      <stop
         style="stop-color:#ec6e28;stop-opacity:1;"
         offset="0"
         id="stop3674" />
      <stop
         style="stop-color:#f3bf21;stop-opacity:1;"
         offset="1"
         id="stop3676" />
    </linearGradient>
    <linearGradient
       inkscape:collect="always"
       id="linearGradient1144">
      <stop
         style="stop-color:#adb2b9;stop-opacity:1;"
         offset="0"
         id="stop1140" />
      <stop
         style="stop-color:#e0e2e4;stop-opacity:1;"
         offset="1"
         id="stop1142" />
    </linearGradient>
  </defs>
  <rect
     style="opacity:0.2;fill:#000000;stroke-width:1.75"
     id="rect1"
     width="20"
     height="20"
     x="1"
     y="1.5"
     ry="4" />
  <rect
     style="fill:url(#linearGradient4);stroke-width:0.714286"
     id="rect2"
     width="20"
     height="20"
     x="1"
     y="1"
     ry="4" />
  <path
     d="M 4.5000002,4 9.4999997,10.841797 5.0000002,17 h 1 L 11.75,9.131836 8.0000002,4 Z M 16,4 10.25,11.868164 14,17 h 3.5 L 12.5,10.158203 17,4 Z"
     style="fill:#373a3d;stroke-width:1.01925"
     id="path1543" />
  <path
     id="path3649"
     style="fill:url(#linearGradient3680);fill-opacity:1;stroke-width:0.402911"
     d="M 11.004883,6 C 10.595807,6 10.158988,6.03116 9.7656247,6.06836 10.466447,6.971363 11.048377,7.736511 11.717774,8.605469 11.342219,7.806699 10.569332,7.04037 10.835938,6.646485 11.100448,6.256789 11.587812,6.3222659 11.625,6.3222659 c 0.780438,0 1.53198,0.08725 2.234375,0.248047 l 0.164063,-0.223633 C 13.086388,6.1083569 12.069212,5.9999999 11.004883,6 Z m 4.227538,0.729492 -0.151367,0.212891 c 2.164275,0.8375311 3.627929,2.437335 3.627929,4.269531 0,2.69906 -3.173411,4.888672 -7.083983,4.888672 -3.9105708,0 -7.0859378,-2.189612 -7.0859378,-4.888672 0,-1.379265 0.829299,-2.6262379 2.16211,-3.5156249 l -0.519532,-0.710937 c -2.150434,0.997948 -3.55664,2.6417409 -3.55664,4.5029299 0,3.04266 3.754798,5.511718 8.3808598,5.511718 4.625535,0 8.379882,-2.467627 8.379882,-5.509765 0,-2.029139 -1.669013,-3.8037889 -4.153321,-4.760743 z" />
</svg>
