<?xml version="1.0" encoding="UTF-8" standalone="no"?>
<!-- Created with Inkscape (http://www.inkscape.org/) -->

<svg
   width="22"
   height="22"
   viewBox="0 0 22 22.000002"
   version="1.1"
   id="svg1"
   inkscape:version="1.4 (e7c3feb100, 2024-10-09)"
   sodipodi:docname="youtube.svg"
   xmlns:inkscape="http://www.inkscape.org/namespaces/inkscape"
   xmlns:sodipodi="http://sodipodi.sourceforge.net/DTD/sodipodi-0.dtd"
   xmlns="http://www.w3.org/2000/svg"
   xmlns:svg="http://www.w3.org/2000/svg">
  <sodipodi:namedview
     id="namedview1"
     pagecolor="#ffffff"
     bordercolor="#000000"
     borderopacity="0.25"
     inkscape:showpageshadow="2"
     inkscape:pageopacity="0.0"
     inkscape:pagecheckerboard="0"
     inkscape:deskcolor="#d1d1d1"
     inkscape:document-units="px"
     inkscape:zoom="35.727273"
     inkscape:cx="10.986005"
     inkscape:cy="11"
     inkscape:window-width="1920"
     inkscape:window-height="1011"
     inkscape:window-x="0"
     inkscape:window-y="0"
     inkscape:window-maximized="1"
     inkscape:current-layer="svg1" />
  <defs
     id="defs1" />
  <rect
     style="opacity:0.2;fill:#000000;stroke-width:1.75"
     id="rect1"
     width="20"
     height="20"
     x="1"
     y="1.5"
     ry="4" />
  <rect
     style="fill:#fafafa;stroke-width:0.714286;fill-opacity:1"
     id="rect2"
     width="20"
     height="20"
     x="1"
     y="1"
     ry="4" />
  <path
     id="path1633"
     style="fill:#ff0000;fill-opacity:1;stroke-width:0.109398"
     d="m 11.249614,6 c 0,0 -4.684638,9e-4 -5.758408,0.2656236 C 4.91476,6.4138586 4.440465,6.8576136 4.282225,7.4081976 3.999654,8.4140726 4,11.000347 4,11.000347 c 0,0 -3.46e-4,2.597116 0.282225,3.592405 0.158241,0.550583 0.621233,0.983599 1.208981,1.131832 1.085072,0.275294 5.758408,0.275389 5.758408,0.275389 0,0 4.184524,-8.99e-4 5.258295,-0.265624 0.587749,-0.148235 1.050741,-0.581248 1.208982,-1.131832 0.282571,-1.005876 0.2832,-4.091791 0.2832,-4.091791 0,0 0.01056,-2.0966534 -0.2832,-3.1025284 C 17.55865,6.8576136 17.095658,6.4236226 16.507909,6.2753886 15.434138,6.000097 11.249614,6 11.249614,6 Z"
     sodipodi:nodetypes="ccccccccccccc" />
  <path
     d="m 9.000001,8 5,2.999981 -5,3.000019 z"
     style="fill:#ffffff;stroke-width:0.133984"
     id="path351" />
</svg>
