<?xml version="1.0" encoding="UTF-8" standalone="no"?>
<!-- Created with Inkscape (http://www.inkscape.org/) -->

<svg
   width="48"
   height="48"
   viewBox="0 0 48 48.000004"
   version="1.1"
   id="svg1"
   inkscape:version="1.4.2 (ebf0e940d0, 2025-05-08)"
   sodipodi:docname="accessories-camera.svg"
   xmlns:inkscape="http://www.inkscape.org/namespaces/inkscape"
   xmlns:sodipodi="http://sodipodi.sourceforge.net/DTD/sodipodi-0.dtd"
   xmlns:xlink="http://www.w3.org/1999/xlink"
   xmlns="http://www.w3.org/2000/svg"
   xmlns:svg="http://www.w3.org/2000/svg">
  <sodipodi:namedview
     id="namedview1"
     pagecolor="#ffffff"
     bordercolor="#000000"
     borderopacity="0.25"
     inkscape:showpageshadow="2"
     inkscape:pageopacity="0.0"
     inkscape:pagecheckerboard="0"
     inkscape:deskcolor="#d1d1d1"
     inkscape:document-units="px"
     inkscape:zoom="16.833333"
     inkscape:cx="23.970298"
     inkscape:cy="24"
     inkscape:window-width="1920"
     inkscape:window-height="1011"
     inkscape:window-x="0"
     inkscape:window-y="0"
     inkscape:window-maximized="1"
     inkscape:current-layer="svg1" />
  <defs
     id="defs1">
    <linearGradient
       inkscape:collect="always"
       xlink:href="#4852"
       id="linearGradient4"
       x1="16"
       y1="30"
       x2="16"
       y2="2"
       gradientUnits="userSpaceOnUse"
       gradientTransform="scale(1.5)" />
    <linearGradient
       inkscape:collect="always"
       id="4852">
      <stop
         style="stop-color:#272727;stop-opacity:1;"
         offset="0"
         id="stop14555" />
      <stop
         style="stop-color:#5d5d5d;stop-opacity:1;"
         offset="1"
         id="stop14557" />
    </linearGradient>
    <linearGradient
       inkscape:collect="always"
       xlink:href="#linearGradient1217"
       id="linearGradient6"
       x1="24"
       y1="45"
       x2="24"
       y2="3"
       gradientUnits="userSpaceOnUse" />
    <linearGradient
       inkscape:collect="always"
       id="linearGradient1217">
      <stop
         style="stop-color:#96a3ad;stop-opacity:1;"
         offset="0"
         id="stop1213" />
      <stop
         style="stop-color:#c4c8cd;stop-opacity:1;"
         offset="1"
         id="stop1215" />
    </linearGradient>
  </defs>
  <rect
     style="opacity:0.2;fill:#000000;stroke-width:3.675"
     id="rect1"
     width="42"
     height="42"
     x="3"
     y="4"
     ry="9" />
  <rect
     style="fill:url(#linearGradient4);stroke-width:1.5"
     id="rect2"
     width="42"
     height="42"
     x="3"
     y="3"
     ry="9" />
  <rect
     style="fill:#eeaf4f;fill-opacity:1;stroke-width:2"
     id="rect3"
     width="5"
     height="5"
     x="32"
     y="17"
     ry="1" />
  <path
     id="rect596"
     style="fill:url(#linearGradient6);stroke-width:2;stroke-linecap:round;stroke-linejoin:round"
     d="m 21,10 c -1.107997,0 -1.476311,0.583542 -2,1.5 L 17,15 h -4 c -2.215994,0 -4,1.784006 -4,4 v 14 c 0,2.215994 1.784006,4 4,4 h 22 c 2.215994,0 4,-1.784006 4,-4 V 19 c 0,-2.215994 -1.784006,-4 -4,-4 H 31 L 29,11.5 C 28.450281,10.537989 28.107997,10 27,10 Z m 3,8 a 8,8 0 0 1 8,8 8,8 0 0 1 -8,8 8,8 0 0 1 -8,-8 8,8 0 0 1 8,-8 z m 10.5,0 A 1.5,1.5 0 0 1 36,19.5 1.5,1.5 0 0 1 34.5,21 1.5,1.5 0 0 1 33,19.5 1.5,1.5 0 0 1 34.5,18 Z M 24,20 c -3.313693,0 -6,2.686308 -6,6 0,3.313696 2.686307,6 6,6 3.313696,0 6,-2.686304 6,-6 0,-3.313692 -2.686304,-6 -6,-6 z" />
</svg>
