<?xml version="1.0" encoding="UTF-8" standalone="no"?>
<!-- Created with Inkscape (http://www.inkscape.org/) -->

<svg
   width="48"
   height="48"
   viewBox="0 0 48 48.000004"
   version="1.1"
   id="svg1"
   inkscape:version="1.4.2 (ebf0e940d0, 2025-05-08)"
   sodipodi:docname="babe.svg"
   xmlns:inkscape="http://www.inkscape.org/namespaces/inkscape"
   xmlns:sodipodi="http://sodipodi.sourceforge.net/DTD/sodipodi-0.dtd"
   xmlns:xlink="http://www.w3.org/1999/xlink"
   xmlns="http://www.w3.org/2000/svg"
   xmlns:svg="http://www.w3.org/2000/svg">
  <sodipodi:namedview
     id="namedview1"
     pagecolor="#ffffff"
     bordercolor="#000000"
     borderopacity="0.25"
     inkscape:showpageshadow="2"
     inkscape:pageopacity="0.0"
     inkscape:pagecheckerboard="0"
     inkscape:deskcolor="#d1d1d1"
     inkscape:document-units="px"
     inkscape:zoom="16.541667"
     inkscape:cx="23.969773"
     inkscape:cy="24"
     inkscape:window-width="1920"
     inkscape:window-height="1009"
     inkscape:window-x="0"
     inkscape:window-y="0"
     inkscape:window-maximized="1"
     inkscape:current-layer="svg1" />
  <defs
     id="defs1">
    <linearGradient
       inkscape:collect="always"
       xlink:href="#4852"
       id="linearGradient4"
       x1="16"
       y1="30"
       x2="16"
       y2="2"
       gradientUnits="userSpaceOnUse"
       gradientTransform="scale(1.5)" />
    <linearGradient
       inkscape:collect="always"
       id="4852">
      <stop
         style="stop-color:#272727;stop-opacity:1;"
         offset="0"
         id="stop14555" />
      <stop
         style="stop-color:#5d5d5d;stop-opacity:1;"
         offset="1"
         id="stop14557" />
    </linearGradient>
    <linearGradient
       id="linearGradient1"
       inkscape:collect="always">
      <stop
         style="stop-color:#f86169;stop-opacity:1;"
         offset="0"
         id="stop1" />
      <stop
         style="stop-color:#f893a6;stop-opacity:1;"
         offset="1"
         id="stop2" />
    </linearGradient>
    <linearGradient
       inkscape:collect="always"
       xlink:href="#linearGradient1"
       id="linearGradient5"
       x1="11"
       y1="21.5"
       x2="11"
       y2="0.5"
       gradientUnits="userSpaceOnUse"
       gradientTransform="matrix(2,0,0,2,2,2)" />
  </defs>
  <rect
     style="opacity:0.2;fill:#000000;stroke-width:3.675"
     id="rect1"
     width="42"
     height="42"
     x="3"
     y="4.0500002"
     ry="9" />
  <rect
     style="fill:url(#linearGradient4);stroke-width:1.5"
     id="rect2"
     width="42"
     height="42"
     x="3"
     y="3"
     ry="9" />
  <path
     d="m 16,16 v 2 h 4 v -2 z m 12,0 v 2 h 4 v -2 z m -18,2 v 2 h 4 v -2 z m 24,0 v 2 h 4 v -2 z m -18,2 v 2 h 4 v -2 z m 6,0 v 2 h 4 v -2 z m 6,0 v 2 h 4 v -2 z m -18,2 v 2 h 4 v -2 z m 24,0 v 2 h 4 v -2 z m -18,2 v 2 h 4 v -2 z m 6,0 v 2 h 4 v -2 z m 6,0 v 2 h 4 v -2 z m -18,2 v 2 h 4 v -2 z m 24,0 v 2 h 4 v -2 z m -18,2 v 2 h 4 v -2 z m 6,0 v 2 h 4 v -2 z m 6,0 v 2 h 4 v -2 z m -6,4 v 2 h 4 v -2 z"
     style="fill:url(#linearGradient5);stroke-width:2"
     id="path1" />
</svg>
