<?xml version="1.0" encoding="UTF-8" standalone="no"?>
<!-- Created with Inkscape (http://www.inkscape.org/) -->

<svg
   width="48"
   height="48"
   viewBox="0 0 48 48.000004"
   version="1.1"
   id="svg1"
   inkscape:version="1.4.2 (ebf0e940d0, 2025-05-08)"
   sodipodi:docname="cider.svg"
   xmlns:inkscape="http://www.inkscape.org/namespaces/inkscape"
   xmlns:sodipodi="http://sodipodi.sourceforge.net/DTD/sodipodi-0.dtd"
   xmlns:xlink="http://www.w3.org/1999/xlink"
   xmlns="http://www.w3.org/2000/svg"
   xmlns:svg="http://www.w3.org/2000/svg">
  <sodipodi:namedview
     id="namedview1"
     pagecolor="#ffffff"
     bordercolor="#000000"
     borderopacity="0.25"
     inkscape:showpageshadow="2"
     inkscape:pageopacity="0.0"
     inkscape:pagecheckerboard="0"
     inkscape:deskcolor="#d1d1d1"
     inkscape:document-units="px"
     inkscape:zoom="16.375"
     inkscape:cx="23.969466"
     inkscape:cy="24"
     inkscape:window-width="1920"
     inkscape:window-height="1011"
     inkscape:window-x="0"
     inkscape:window-y="0"
     inkscape:window-maximized="1"
     inkscape:current-layer="svg1" />
  <defs
     id="defs1">
    <linearGradient
       inkscape:collect="always"
       xlink:href="#4852"
       id="linearGradient4"
       x1="16"
       y1="30"
       x2="16"
       y2="2"
       gradientUnits="userSpaceOnUse"
       gradientTransform="scale(1.5)" />
    <linearGradient
       inkscape:collect="always"
       id="4852">
      <stop
         style="stop-color:#272727;stop-opacity:1;"
         offset="0"
         id="stop14555" />
      <stop
         style="stop-color:#5d5d5d;stop-opacity:1;"
         offset="1"
         id="stop14557" />
    </linearGradient>
    <linearGradient
       inkscape:collect="always"
       xlink:href="#linearGradient1"
       id="linearGradient3"
       x1="8"
       y1="22"
       x2="8"
       y2="-6"
       gradientUnits="userSpaceOnUse"
       gradientTransform="matrix(1.5,0,0,1.5,12,12)" />
    <linearGradient
       id="linearGradient1"
       inkscape:collect="always">
      <stop
         style="stop-color:#f50057;stop-opacity:1;"
         offset="0"
         id="stop1" />
      <stop
         style="stop-color:#ff6299;stop-opacity:1;"
         offset="1"
         id="stop2" />
    </linearGradient>
  </defs>
  <rect
     style="opacity:0.2;fill:#000000;stroke-width:2.625"
     id="rect1"
     width="42"
     height="42"
     x="3"
     y="4"
     ry="9" />
  <rect
     style="fill:url(#linearGradient4);stroke-width:1.5"
     id="rect2"
     width="42"
     height="42"
     x="3"
     y="3"
     ry="9" />
  <circle
     style="fill:url(#linearGradient3);fill-opacity:1;stroke-width:1.5;stroke-linecap:round"
     id="path287"
     cx="24"
     cy="24"
     r="15" />
  <path
     id="path12122"
     style="fill:#212121;fill-opacity:1;stroke-width:0.218797"
     d="m 24,15 c -4.970553,0 -9,4.029447 -9,9 0,4.970553 4.029447,9 9,9 4.970553,0 9,-4.029447 9,-9 0,-4.970553 -4.029447,-9 -9,-9 z m 0,1 c 4.41827,0 8,3.58173 8,8 0,4.41827 -3.58173,8 -8,8 -4.41827,0 -8,-3.58173 -8,-8 0,-4.41827 3.58173,-8 8,-8 z m -2.451172,4.419922 C 21.248746,20.435862 20.999721,20.684614 21,21 v 3 3 c -4.3e-4,0.446292 0.482046,0.72602 0.869141,0.503906 L 24.5,26 27.130859,24.496094 c 0.383789,-0.219389 0.383789,-0.772799 0,-0.992188 L 24.5,22 21.869141,20.496094 c -0.05868,-0.03365 -0.122801,-0.05679 -0.189453,-0.06836 -0.04439,-0.0077 -0.08799,-0.01009 -0.13086,-0.0078 z" />
</svg>
