<?xml version="1.0" encoding="UTF-8" standalone="no"?>
<!-- Created with Inkscape (http://www.inkscape.org/) -->

<svg
   width="48"
   height="48"
   viewBox="0 0 48 48.000003"
   version="1.1"
   id="svg1"
   inkscape:version="1.4.2 (ebf0e940d0, 2025-05-08)"
   sodipodi:docname="deepin-feedback.svg"
   xmlns:inkscape="http://www.inkscape.org/namespaces/inkscape"
   xmlns:sodipodi="http://sodipodi.sourceforge.net/DTD/sodipodi-0.dtd"
   xmlns:xlink="http://www.w3.org/1999/xlink"
   xmlns="http://www.w3.org/2000/svg"
   xmlns:svg="http://www.w3.org/2000/svg">
  <sodipodi:namedview
     id="namedview1"
     pagecolor="#ffffff"
     bordercolor="#000000"
     borderopacity="0.25"
     inkscape:showpageshadow="2"
     inkscape:pageopacity="0.0"
     inkscape:pagecheckerboard="0"
     inkscape:deskcolor="#d1d1d1"
     inkscape:document-units="px"
     inkscape:zoom="16.583333"
     inkscape:cx="23.96985"
     inkscape:cy="23.939699"
     inkscape:window-width="1920"
     inkscape:window-height="1011"
     inkscape:window-x="0"
     inkscape:window-y="0"
     inkscape:window-maximized="1"
     inkscape:current-layer="svg1" />
  <defs
     id="defs1">
    <linearGradient
       inkscape:collect="always"
       xlink:href="#4852"
       id="linearGradient5"
       x1="8"
       y1="14.666667"
       x2="8"
       y2="0.66666669"
       gradientUnits="userSpaceOnUse"
       gradientTransform="matrix(3,0,0,3,0,1)" />
    <linearGradient
       inkscape:collect="always"
       id="linearGradient3">
      <stop
         style="stop-color:#4cca3d;stop-opacity:1;"
         offset="0"
         id="stop1" />
      <stop
         style="stop-color:#a5d785;stop-opacity:1;"
         offset="1"
         id="stop2" />
    </linearGradient>
    <linearGradient
       inkscape:collect="always"
       xlink:href="#4852"
       id="linearGradient4"
       x1="16"
       y1="30"
       x2="16"
       y2="2"
       gradientUnits="userSpaceOnUse"
       gradientTransform="scale(1.5)" />
    <linearGradient
       inkscape:collect="always"
       id="4852">
      <stop
         style="stop-color:#272727;stop-opacity:1;"
         offset="0"
         id="stop14555" />
      <stop
         style="stop-color:#5d5d5d;stop-opacity:1;"
         offset="1"
         id="stop14557" />
    </linearGradient>
    <linearGradient
       inkscape:collect="always"
       xlink:href="#linearGradient3"
       id="linearGradient6"
       x1="24"
       y1="45"
       x2="24"
       y2="3"
       gradientUnits="userSpaceOnUse" />
  </defs>
  <rect
     style="opacity:0.2;fill:#000000;stroke-width:2.625"
     id="rect1"
     width="42"
     height="42"
     x="3"
     y="4"
     ry="9" />
  <rect
     style="fill:url(#linearGradient4);stroke-width:1.5"
     id="rect2"
     width="42"
     height="42"
     x="3"
     y="3"
     ry="9" />
  <path
     id="path1"
     style="fill:url(#linearGradient6);stroke-width:6"
     d="M 21,10 C 14.352,10 9,15.352 9,22 9,26.530882 11.487823,30.45712 15.175782,32.5 14.250657,36.834811 12,40 12,40 c 0,0 4.712415,-2.382165 9.076173,-6 H 27 C 33.648,34 39,28.648 39,22 39,15.352 33.648,10 27,10 Z" />
  <path
     id="rect3"
     style="fill:url(#linearGradient5);stroke-width:6"
     d="M 16 18 A 1 1 0 0 0 15 19 A 1 1 0 0 0 16 20 L 32 20 A 1 1 0 0 0 33 19 A 1 1 0 0 0 32 18 L 16 18 z M 16 23 A 1 1 0 0 0 15 24 A 1 1 0 0 0 16 25 L 26 25 A 1 1 0 0 0 27 24 A 1 1 0 0 0 26 23 L 16 23 z " />
</svg>
