<?xml version="1.0" encoding="UTF-8" standalone="no"?>
<!-- Created with Inkscape (http://www.inkscape.org/) -->

<svg
   width="48"
   height="48"
   viewBox="0 0 48 48.000004"
   version="1.1"
   id="svg1"
   inkscape:version="1.4.2 (ebf0e940d0, 2025-05-08)"
   sodipodi:docname="desktop-environment-xfce.svg"
   xmlns:inkscape="http://www.inkscape.org/namespaces/inkscape"
   xmlns:sodipodi="http://sodipodi.sourceforge.net/DTD/sodipodi-0.dtd"
   xmlns:xlink="http://www.w3.org/1999/xlink"
   xmlns="http://www.w3.org/2000/svg"
   xmlns:svg="http://www.w3.org/2000/svg">
  <sodipodi:namedview
     id="namedview1"
     pagecolor="#ffffff"
     bordercolor="#000000"
     borderopacity="0.25"
     inkscape:showpageshadow="2"
     inkscape:pageopacity="0.0"
     inkscape:pagecheckerboard="0"
     inkscape:deskcolor="#d1d1d1"
     inkscape:document-units="px"
     inkscape:zoom="16.375"
     inkscape:cx="23.969466"
     inkscape:cy="24"
     inkscape:window-width="1920"
     inkscape:window-height="1011"
     inkscape:window-x="0"
     inkscape:window-y="0"
     inkscape:window-maximized="1"
     inkscape:current-layer="svg1" />
  <defs
     id="defs1">
    <linearGradient
       inkscape:collect="always"
       xlink:href="#4852"
       id="linearGradient4"
       x1="16"
       y1="30"
       x2="16"
       y2="2"
       gradientUnits="userSpaceOnUse"
       gradientTransform="scale(1.5)" />
    <linearGradient
       inkscape:collect="always"
       id="4852">
      <stop
         style="stop-color:#272727;stop-opacity:1;"
         offset="0"
         id="stop14555" />
      <stop
         style="stop-color:#5d5d5d;stop-opacity:1;"
         offset="1"
         id="stop14557" />
    </linearGradient>
  </defs>
  <rect
     style="opacity:0.2;fill:#000000;stroke-width:2.625"
     id="rect1"
     width="42"
     height="42"
     x="3"
     y="4"
     ry="9" />
  <rect
     style="fill:url(#linearGradient4);stroke-width:1.5"
     id="rect2"
     width="42"
     height="42"
     x="3"
     y="3"
     ry="9" />
  <path
     style="fill:#f9f9f9;stroke-width:1.5"
     d="M 5.626577,14.924638 C 5.550017,15.074656 5.473456,15.223639 5.4,15.373656 c 1.163926,0.646628 4.518103,2.331993 6.110355,3.330383 2.0123,1.23221 4.732266,3.74629 4.946427,4.169442 -2.092998,3.644901 -1.143233,6.870788 -1.390503,7.214275 -0.177951,0.286586 -1.822966,2.092998 -1.29325,2.359925 0.525575,0.262789 1.361535,-0.150017 1.487755,-0.230715 0.262789,-0.161398 0.533855,-0.396255 0.420049,0.06828 -0.222439,0.949763 -1.232211,3.23313 0.161397,2.747899 0.169674,-0.09726 2.41269,-2.569946 2.683757,-2.654784 4.462235,1.163925 9.453149,0.630073 10.377048,0.197608 0.481091,0.03207 1.842626,0.888723 2.618576,1.297391 0.775952,0.404528 2.889643,1.418438 2.263708,-0.424187 -0.194505,-0.582482 -1.583975,-2.069201 -1.358431,-2.166455 0.496608,-0.197609 1.725716,0.513161 2.198527,0.646625 1.414301,0.396253 1.604666,-0.153122 0.711806,-1.361535 -0.88148,-1.208415 -1.01391,-1.022184 -1.293251,-1.579835 -0.218302,-0.449018 0,-0.945627 0.161396,-1.066675 0.286587,-0.2183 4.509829,-2.562707 5.499942,-3.459707 1.467063,-1.333599 0,-2.998275 -0.360042,-3.233128 -3.042761,-2.190249 -6.167257,-1.721576 -6.207607,-2.069203 -0.0207,-0.396251 -0.0123,-1.539486 -0.06519,-1.935739 -0.303139,-2.683757 -1.543626,-2.008161 -1.7133,-2.008161 -1.240487,0.194505 -0.784228,2.092999 -0.258651,3.879756 0.04035,0.456259 -0.432463,0.254513 -0.711804,-0.226578 -0.953903,-2.55857 -1.354294,-2.514081 -1.617083,-2.590643 -0.254512,-0.05691 -1.15151,0.489368 -1.135991,1.523969 0.0042,0.294861 0.355901,1.70192 0.355901,2.134383 -0.585585,0.513161 -0.614552,1.677088 -1.229105,2.101275 -1.78986,0.371421 -6.090698,-0.884586 -6.627655,-0.941488 C 18.275601,20.748409 17.46344,22.143051 17.16444,21.80784 14.75176,19.043389 11.065476,16.99074 9.469086,16.634836 8.850395,16.501373 6.761535,15.579542 6.00938,15.115005 5.888332,15.042585 5.75073,14.989818 5.617266,14.9205 m 33.17966,2.425107 c -0.58248,0.625935 -0.481087,2.966202 -0.360041,2.946545 0.593865,-0.12105 0.537994,-3.134842 0.360041,-2.946545 m 1.685366,0.355903 c -0.06828,-0.190366 -1.600526,1.960569 -1.329461,2.75204 0.12105,0.343487 1.535348,-2.149902 1.329461,-2.75204 m -7.957117,3.657316 c 0.0207,-0.0207 0.04449,0.0084 0.06828,0.03207 0.177951,0.589723 0.375559,1.151511 1.547764,1.29325 0.13761,0.01656 -0.650768,0.476953 -1.191863,0.194506 -0.493505,-0.299 -0.537992,-1.386365 -0.424185,-1.519829 m 3.039656,2.970341 c 0.10863,-0.01656 0.186229,-0.0123 0.262793,0 0.286582,0.07242 -2.079551,1.305665 -2.26371,1.135991 -0.11277,-0.10863 1.261178,-0.998389 2.005057,-1.135991 m 0.614554,0.780088 c 0.246236,0.0207 -1.369811,1.693642 -1.551904,1.519828 -0.133469,-0.12105 1.047019,-1.560176 1.551904,-1.519828"
     id="path3" />
</svg>
