<?xml version="1.0" encoding="UTF-8" standalone="no"?>
<!-- Created with Inkscape (http://www.inkscape.org/) -->

<svg
   width="48"
   height="48"
   viewBox="0 0 48 48.000003"
   version="1.1"
   id="svg1"
   inkscape:version="1.4.2 (ebf0e940d0, 2025-05-08)"
   sodipodi:docname="gnome-logs.svg"
   xmlns:inkscape="http://www.inkscape.org/namespaces/inkscape"
   xmlns:sodipodi="http://sodipodi.sourceforge.net/DTD/sodipodi-0.dtd"
   xmlns:xlink="http://www.w3.org/1999/xlink"
   xmlns="http://www.w3.org/2000/svg"
   xmlns:svg="http://www.w3.org/2000/svg">
  <sodipodi:namedview
     id="namedview1"
     pagecolor="#ffffff"
     bordercolor="#000000"
     borderopacity="0.25"
     inkscape:showpageshadow="2"
     inkscape:pageopacity="0.0"
     inkscape:pagecheckerboard="0"
     inkscape:deskcolor="#d1d1d1"
     inkscape:document-units="px"
     inkscape:zoom="16.375"
     inkscape:cx="23.969466"
     inkscape:cy="24"
     inkscape:window-width="1920"
     inkscape:window-height="1011"
     inkscape:window-x="0"
     inkscape:window-y="0"
     inkscape:window-maximized="1"
     inkscape:current-layer="svg1" />
  <defs
     id="defs1">
    <linearGradient
       inkscape:collect="always"
       xlink:href="#4852"
       id="linearGradient4"
       x1="16"
       y1="30"
       x2="16"
       y2="2"
       gradientUnits="userSpaceOnUse"
       gradientTransform="scale(1.5)" />
    <linearGradient
       inkscape:collect="always"
       id="4852">
      <stop
         style="stop-color:#272727;stop-opacity:1;"
         offset="0"
         id="stop14555" />
      <stop
         style="stop-color:#5d5d5d;stop-opacity:1;"
         offset="1"
         id="stop14557" />
    </linearGradient>
  </defs>
  <rect
     style="opacity:0.2;fill:#000000;stroke-width:2.625"
     id="rect1"
     width="42"
     height="42"
     x="3"
     y="4"
     ry="9" />
  <rect
     style="fill:url(#linearGradient4);stroke-width:1.5"
     id="rect2"
     width="42"
     height="42"
     x="3"
     y="3"
     ry="9" />
  <path
     id="rect291"
     style="opacity:0.3;fill:#ffffff;stroke-linecap:round"
     d="M 9.5,14 C 9.223001,14 9,14.223001 9,14.5 9,14.777 9.223001,15 9.5,15 h 29 C 38.777,15 39,14.777 39,14.5 39,14.223001 38.777,14 38.5,14 Z m 0,6 C 9.223001,20 9,20.223 9,20.5 9,20.777 9.223001,21 9.5,21 h 29 C 38.777,21 39,20.777 39,20.5 39,20.223 38.777,20 38.5,20 Z m 0,6 C 9.223001,26 9,26.223 9,26.5 9,26.777 9.223001,27 9.5,27 h 29 C 38.777,27 39,26.777 39,26.5 39,26.223 38.777,26 38.5,26 Z m 0,6 C 9.223001,32 9,32.223 9,32.5 9,32.777 9.223001,33 9.5,33 h 15 C 24.777,33 25,32.777 25,32.5 25,32.223 24.777,32 24.5,32 Z"
     sodipodi:nodetypes="ssssssssssssssssssssssssssss" />
  <path
     id="path914"
     style="fill:#14a6ff;stroke-width:4;stroke-linecap:round;stroke-linejoin:round;fill-opacity:1"
     d="m 27,17 c -3.865994,0 -7,3.134006 -7,7 0,3.865994 3.134006,7 7,7 1.50835,-0.0062 2.974356,-0.499422 4.179688,-1.40625 l 5.42528,5.425282 c 0.391738,0.391736 1.022326,0.391736 1.414064,0 0.391736,-0.391738 0.391736,-1.022326 0,-1.414064 L 32.59375,28.179688 C 33.500578,26.974356 33.993814,25.50835 34,24 34,20.134006 30.865994,17 27,17 Z m 0,2 c 2.761424,0 5,2.238576 5,5 0,2.761424 -2.238576,5 -5,5 -2.761424,0 -5,-2.238576 -5,-5 0,-2.761424 2.238576,-5 5,-5 z"
     sodipodi:nodetypes="sscccscccssssss" />
</svg>
