<?xml version="1.0" encoding="UTF-8" standalone="no"?>
<!-- Created with Inkscape (http://www.inkscape.org/) -->

<svg
   width="48"
   height="48"
   viewBox="0 0 48 48.000004"
   version="1.1"
   id="svg1"
   inkscape:version="1.4.2 (ebf0e940d0, 2025-05-08)"
   sodipodi:docname="google-chrome.svg"
   xmlns:inkscape="http://www.inkscape.org/namespaces/inkscape"
   xmlns:sodipodi="http://sodipodi.sourceforge.net/DTD/sodipodi-0.dtd"
   xmlns:xlink="http://www.w3.org/1999/xlink"
   xmlns="http://www.w3.org/2000/svg"
   xmlns:svg="http://www.w3.org/2000/svg">
  <sodipodi:namedview
     id="namedview1"
     pagecolor="#ffffff"
     bordercolor="#000000"
     borderopacity="0.25"
     inkscape:showpageshadow="2"
     inkscape:pageopacity="0.0"
     inkscape:pagecheckerboard="0"
     inkscape:deskcolor="#d1d1d1"
     inkscape:document-units="px"
     inkscape:zoom="16.375"
     inkscape:cx="24.030534"
     inkscape:cy="24.030534"
     inkscape:window-width="1920"
     inkscape:window-height="1010"
     inkscape:window-x="0"
     inkscape:window-y="0"
     inkscape:window-maximized="1"
     inkscape:current-layer="svg1" />
  <defs
     id="defs1">
    <linearGradient
       inkscape:collect="always"
       xlink:href="#linearGradient12495"
       id="linearGradient12497"
       x1="3.7041574"
       y1="5.15939"
       x2="8.9958239"
       y2="5.15939"
       gradientUnits="userSpaceOnUse" />
    <linearGradient
       inkscape:collect="always"
       id="linearGradient12495">
      <stop
         style="stop-color:#db3328;stop-opacity:1;"
         offset="0"
         id="stop12491" />
      <stop
         style="stop-color:#e53d30;stop-opacity:1"
         offset="1"
         id="stop12493" />
    </linearGradient>
    <linearGradient
       inkscape:collect="always"
       xlink:href="#linearGradient13171"
       id="linearGradient13173"
       x1="4.4023013"
       y1="4.2994838"
       x2="5.9898009"
       y2="7.474484"
       gradientUnits="userSpaceOnUse" />
    <linearGradient
       inkscape:collect="always"
       id="linearGradient13171">
      <stop
         style="stop-color:#32a651;stop-opacity:1;"
         offset="0"
         id="stop13167" />
      <stop
         style="stop-color:#279847;stop-opacity:1"
         offset="1"
         id="stop13169" />
    </linearGradient>
    <linearGradient
       inkscape:collect="always"
       xlink:href="#4852"
       id="linearGradient4"
       x1="16"
       y1="30"
       x2="16"
       y2="2"
       gradientUnits="userSpaceOnUse"
       gradientTransform="scale(1.5)" />
    <linearGradient
       inkscape:collect="always"
       id="4852">
      <stop
         style="stop-color:#272727;stop-opacity:1;"
         offset="0"
         id="stop14555" />
      <stop
         style="stop-color:#5d5d5d;stop-opacity:1;"
         offset="1"
         id="stop14557" />
    </linearGradient>
  </defs>
  <rect
     style="opacity:0.2;fill:#000000;stroke-width:3.675"
     id="rect1"
     width="42"
     height="42"
     x="3"
     y="4"
     ry="9" />
  <rect
     style="fill:url(#linearGradient4);stroke-width:1.5"
     id="rect2"
     width="42"
     height="42"
     x="3"
     y="3"
     ry="9" />
  <g
     id="g13900"
     transform="matrix(3.3348771,0,0,3.3348771,2.8235295,2.8235422)">
    <path
       id="path1309"
       style="fill:url(#linearGradient12497);fill-opacity:1;stroke-width:0.0175699"
       d="M 6.3500002,1.8520796 C 4.0786338,1.8548845 2.165784,3.5506734 1.8907373,5.8053269 l 0.7109989,0.919496 1.9010727,1.1555196 1.8471913,-1.530346 V 4.1010381 L 10.176744,3.9885902 C 9.3578807,2.6610927 7.9097392,1.8525801 6.3500002,1.8520796 Z" />
    <path
       id="path1449"
       style="fill:url(#linearGradient13173);fill-opacity:1;stroke-width:0.0175699"
       d="M 2.2796197,4.4430672 A 4.4979167,4.4979167 0 0 0 1.8520834,6.3499965 4.4979167,4.4979167 0 0 0 6.3500002,10.847913 4.4979167,4.4979167 0 0 0 6.8929129,10.809259 L 8.3225242,9.7931285 8.2979262,7.4744757 6.3500002,6.3499965 4.277913,7.5593974 Z" />
    <path
       id="path1829"
       style="fill:#fbbf12;stroke-width:0.0175699"
       d="m 6.3500002,3.9511075 v 2.398889 l 1.947926,1.1244792 -2.1534948,3.3587963 a 4.4979167,4.4979167 0 0 0 0.2055688,0.01464 4.4979167,4.4979167 0 0 0 4.4979168,-4.4979165 4.4979167,4.4979167 0 0 0 -0.6946,-2.398889 z" />
    <path
       d="m 8.7488892,6.3499962 c 0,1.3248533 -1.0740354,2.3988886 -2.3988889,2.3988886 -1.3248539,0 -2.3988891,-1.0740353 -2.3988891,-2.3988886 0,-1.3248537 1.0740352,-2.3988887 2.3988891,-2.3988887 1.3248535,0 2.3988889,1.074035 2.3988889,2.3988887"
       style="fill:#ffffff;stroke-width:0.0187411"
       id="path2229" />
    <path
       d="m 8.149167,6.3499961 c 0,0.9936381 -0.8055295,1.7991654 -1.7991667,1.7991654 -0.9936382,0 -1.7991668,-0.8055273 -1.7991668,-1.7991654 0,-0.9936378 0.8055286,-1.7991663 1.7991668,-1.7991663 0.9936372,0 1.7991667,0.8055285 1.7991667,1.7991663"
       style="fill:#4688f4;fill-opacity:1;stroke-width:0.0172994"
       id="path2029" />
  </g>
</svg>
