<?xml version="1.0" encoding="UTF-8" standalone="no"?>
<!-- Created with Inkscape (http://www.inkscape.org/) -->

<svg
   width="48"
   height="48"
   viewBox="0 0 48 48.000004"
   version="1.1"
   id="svg1"
   inkscape:version="1.4.2 (ebf0e940d0, 2025-05-08)"
   sodipodi:docname="help-browser.svg"
   xmlns:inkscape="http://www.inkscape.org/namespaces/inkscape"
   xmlns:sodipodi="http://sodipodi.sourceforge.net/DTD/sodipodi-0.dtd"
   xmlns:xlink="http://www.w3.org/1999/xlink"
   xmlns="http://www.w3.org/2000/svg"
   xmlns:svg="http://www.w3.org/2000/svg">
  <sodipodi:namedview
     id="namedview1"
     pagecolor="#ffffff"
     bordercolor="#000000"
     borderopacity="0.25"
     inkscape:showpageshadow="2"
     inkscape:pageopacity="0.0"
     inkscape:pagecheckerboard="0"
     inkscape:deskcolor="#d1d1d1"
     inkscape:document-units="px"
     inkscape:zoom="16.833333"
     inkscape:cx="23.970298"
     inkscape:cy="23.970298"
     inkscape:window-width="1920"
     inkscape:window-height="1010"
     inkscape:window-x="0"
     inkscape:window-y="0"
     inkscape:window-maximized="1"
     inkscape:current-layer="svg1" />
  <defs
     id="defs1">
    <linearGradient
       inkscape:collect="always"
       xlink:href="#4852"
       id="linearGradient4"
       x1="16"
       y1="30"
       x2="16"
       y2="2"
       gradientUnits="userSpaceOnUse"
       gradientTransform="scale(1.5)" />
    <linearGradient
       inkscape:collect="always"
       id="4852">
      <stop
         style="stop-color:#272727;stop-opacity:1;"
         offset="0"
         id="stop14555" />
      <stop
         style="stop-color:#5d5d5d;stop-opacity:1;"
         offset="1"
         id="stop14557" />
    </linearGradient>
  </defs>
  <rect
     style="opacity:0.2;fill:#000000;stroke-width:3.675"
     id="rect1"
     width="42"
     height="42"
     x="3"
     y="4"
     ry="9" />
  <rect
     style="fill:url(#linearGradient4);stroke-width:1.5"
     id="rect2"
     width="42"
     height="42"
     x="3"
     y="3"
     ry="9" />
  <path
     id="path14687"
     style="font-size:7.8202px;line-height:1.25;font-family:'Google Sans';-inkscape-font-specification:'Google Sans';fill:#ffffff;fill-opacity:1;stroke-width:0.91393"
     d="m 23.609766,10.557 c -1.949717,0 -3.535331,0.54781 -4.753906,1.64453 -1.218574,1.07234 -2.094687,2.31692 -2.63086,3.73047 l 2.886719,1.20508 c 0.365573,-1.02361 0.902603,-1.8762 1.609375,-2.5586 0.731143,-0.70677 1.705253,-1.06054 2.923828,-1.06054 1.34043,0 2.389016,0.36651 3.144531,1.09765 0.755517,0.70678 1.132813,1.64463 1.132813,2.81446 0,0.87737 -0.219516,1.63391 -0.658203,2.26757 -0.414315,0.60929 -1.109126,1.35115 -2.083984,2.22852 -1.194203,1.12109 -2.021317,2.08441 -2.484376,2.88867 -0.463058,0.80426 -0.695312,1.81463 -0.695312,3.0332 v 2.15235 h 3.179688 v -1.93164 c -10e-7,-0.87738 0.183256,-1.64471 0.548828,-2.30274 0.365571,-0.65803 0.9516,-1.35283 1.755859,-2.08398 1.047974,-0.95049 1.900564,-1.89029 2.558594,-2.81641 0.682401,-0.95048 1.023437,-2.09511 1.023437,-3.43554 0,-1.29169 -0.317514,-2.46179 -0.951172,-3.50977 -0.609287,-1.04797 -1.485399,-1.8643 -2.630859,-2.44922 -1.121088,-0.60928 -2.41271,-0.91406 -3.875,-0.91406 z m -0.109375,22.44336 a 2.5,2.5 0 0 0 -2.5,2.5 2.5,2.5 0 0 0 2.5,2.5 2.5,2.5 0 0 0 2.5,-2.5 2.5,2.5 0 0 0 -2.5,-2.5 z" />
</svg>
