<?xml version="1.0" encoding="UTF-8" standalone="no"?>
<!-- Created with Inkscape (http://www.inkscape.org/) -->

<svg
   width="48"
   height="48"
   viewBox="0 0 48 48.000004"
   version="1.1"
   id="svg1"
   inkscape:version="1.4.2 (ebf0e940d0, 2025-05-08)"
   sodipodi:docname="io.github.seadve.Mousai.svg"
   xmlns:inkscape="http://www.inkscape.org/namespaces/inkscape"
   xmlns:sodipodi="http://sodipodi.sourceforge.net/DTD/sodipodi-0.dtd"
   xmlns:xlink="http://www.w3.org/1999/xlink"
   xmlns="http://www.w3.org/2000/svg"
   xmlns:svg="http://www.w3.org/2000/svg">
  <sodipodi:namedview
     id="namedview1"
     pagecolor="#ffffff"
     bordercolor="#000000"
     borderopacity="0.25"
     inkscape:showpageshadow="2"
     inkscape:pageopacity="0.0"
     inkscape:pagecheckerboard="0"
     inkscape:deskcolor="#d1d1d1"
     inkscape:document-units="px"
     inkscape:zoom="16.583333"
     inkscape:cx="23.969849"
     inkscape:cy="24"
     inkscape:window-width="1920"
     inkscape:window-height="1011"
     inkscape:window-x="0"
     inkscape:window-y="0"
     inkscape:window-maximized="1"
     inkscape:current-layer="svg1" />
  <defs
     id="defs1">
    <linearGradient
       inkscape:collect="always"
       xlink:href="#4852"
       id="linearGradient4"
       x1="16"
       y1="30"
       x2="16"
       y2="2"
       gradientUnits="userSpaceOnUse"
       gradientTransform="scale(1.5)" />
    <linearGradient
       inkscape:collect="always"
       id="4852">
      <stop
         style="stop-color:#272727;stop-opacity:1;"
         offset="0"
         id="stop14555" />
      <stop
         style="stop-color:#5d5d5d;stop-opacity:1;"
         offset="1"
         id="stop14557" />
    </linearGradient>
    <linearGradient
       inkscape:collect="always"
       xlink:href="#linearGradient1612"
       id="linearGradient3500"
       x1="7.3512735"
       y1="17.761389"
       x2="27.833389"
       y2="4.0244303"
       gradientUnits="userSpaceOnUse"
       gradientTransform="scale(1.5)" />
    <linearGradient
       inkscape:collect="always"
       id="linearGradient1612">
      <stop
         style="stop-color:#6b97df;stop-opacity:1;"
         offset="0"
         id="stop1608" />
      <stop
         style="stop-color:#c25298;stop-opacity:1;"
         offset="1"
         id="stop1610" />
    </linearGradient>
    <linearGradient
       inkscape:collect="always"
       xlink:href="#linearGradient7676"
       id="linearGradient2490"
       gradientUnits="userSpaceOnUse"
       gradientTransform="matrix(1.5,0,0,-1.5,0,48)"
       x1="7.990582"
       y1="14.973019"
       x2="27.833389"
       y2="4.0244303" />
    <linearGradient
       inkscape:collect="always"
       id="linearGradient7676">
      <stop
         style="stop-color:#6b97df;stop-opacity:0;"
         offset="0"
         id="stop7672" />
      <stop
         style="stop-color:#e5565c;stop-opacity:1;"
         offset="1"
         id="stop7674" />
    </linearGradient>
  </defs>
  <rect
     style="opacity:0.2;fill:#000000;stroke-width:3.675"
     id="rect1"
     width="42"
     height="42"
     x="3"
     y="4"
     ry="9" />
  <rect
     style="fill:url(#linearGradient4);stroke-width:1.5"
     id="rect2"
     width="42"
     height="42"
     x="3"
     y="3"
     ry="9" />
  <path
     id="path530"
     style="fill:url(#linearGradient3500);fill-opacity:1;stroke-width:1.50001;stroke-linecap:round;stroke-linejoin:round"
     d="M 20 12 L 20 14 L 20 25.527344 C 18.899878 24.543622 17.475796 23.999856 16 24 C 12.686292 24 10 26.686292 10 30 C 10 33.313708 12.686292 36 16 36 C 19.313708 36 22 33.313708 22 30 L 22 14 L 36 14 L 36 25.527344 C 34.899878 24.543622 33.475796 23.999856 32 24 C 28.686292 24 26 26.686292 26 30 C 26 33.313708 28.686292 36 32 36 C 35.313708 36 38 33.313708 38 30 L 38 14 L 38 12 L 20 12 z M 16 26 C 18.20914 26 20 27.790862 20 30 C 20 32.209138 18.20914 34 16 34 C 13.790862 34 12 32.209138 12 30 C 12 27.790862 13.790862 26 16 26 z M 32 26 C 34.209138 26 36 27.790862 36 30 C 36 32.209138 34.209138 34 32 34 C 29.790862 34 28 32.209138 28 30 C 28 27.790862 29.790862 26 32 26 z " />
  <path
     id="path2466"
     style="fill:url(#linearGradient2490);fill-opacity:1;stroke-width:1.50001;stroke-linecap:round;stroke-linejoin:round"
     d="M 20 12 L 20 14 L 20 25.527344 C 18.899878 24.543622 17.475796 23.999856 16 24 C 12.686292 24 10 26.686292 10 30 C 10 33.313708 12.686292 36 16 36 C 19.313708 36 22 33.313708 22 30 L 22 14 L 36 14 L 36 25.527344 C 34.899878 24.543622 33.475796 23.999856 32 24 C 28.686292 24 26 26.686292 26 30 C 26 33.313708 28.686292 36 32 36 C 35.313708 36 38 33.313708 38 30 L 38 14 L 38 12 L 20 12 z M 16 26 C 18.20914 26 20 27.790862 20 30 C 20 32.209138 18.20914 34 16 34 C 13.790862 34 12 32.209138 12 30 C 12 27.790862 13.790862 26 16 26 z M 32 26 C 34.209138 26 36 27.790862 36 30 C 36 32.209138 34.209138 34 32 34 C 29.790862 34 28 32.209138 28 30 C 28 27.790862 29.790862 26 32 26 z " />
</svg>
