<?xml version="1.0" encoding="UTF-8" standalone="no"?>
<!-- Created with Inkscape (http://www.inkscape.org/) -->

<svg
   width="48"
   height="48"
   viewBox="0 0 48 48.000003"
   version="1.1"
   id="svg1"
   inkscape:version="1.4.2 (ebf0e940d0, 2025-05-08)"
   sodipodi:docname="knights.svg"
   xmlns:inkscape="http://www.inkscape.org/namespaces/inkscape"
   xmlns:sodipodi="http://sodipodi.sourceforge.net/DTD/sodipodi-0.dtd"
   xmlns:xlink="http://www.w3.org/1999/xlink"
   xmlns="http://www.w3.org/2000/svg"
   xmlns:svg="http://www.w3.org/2000/svg">
  <sodipodi:namedview
     id="namedview1"
     pagecolor="#ffffff"
     bordercolor="#000000"
     borderopacity="0.25"
     inkscape:showpageshadow="2"
     inkscape:pageopacity="0.0"
     inkscape:pagecheckerboard="0"
     inkscape:deskcolor="#d1d1d1"
     inkscape:document-units="px"
     inkscape:zoom="16.5625"
     inkscape:cx="24"
     inkscape:cy="24"
     inkscape:window-width="1920"
     inkscape:window-height="1010"
     inkscape:window-x="0"
     inkscape:window-y="0"
     inkscape:window-maximized="1"
     inkscape:current-layer="svg1" />
  <defs
     id="defs1">
    <linearGradient
       inkscape:collect="always"
       id="linearGradient1606">
      <stop
         style="stop-color:#eaebed;stop-opacity:1;"
         offset="0"
         id="stop1602" />
      <stop
         style="stop-color:#f9fafa;stop-opacity:1;"
         offset="1"
         id="stop1604" />
    </linearGradient>
    <linearGradient
       inkscape:collect="always"
       xlink:href="#linearGradient1606"
       id="linearGradient4"
       x1="16"
       y1="30"
       x2="16"
       y2="2"
       gradientUnits="userSpaceOnUse"
       gradientTransform="scale(1.5)" />
    <linearGradient
       inkscape:collect="always"
       xlink:href="#4852"
       id="linearGradient1091"
       x1="8"
       y1="16"
       x2="8"
       y2="0"
       gradientUnits="userSpaceOnUse"
       gradientTransform="matrix(2.625,0,0,2.625,3,3)" />
    <linearGradient
       inkscape:collect="always"
       id="4852">
      <stop
         style="stop-color:#272727;stop-opacity:1;"
         offset="0"
         id="stop14555" />
      <stop
         style="stop-color:#5d5d5d;stop-opacity:1;"
         offset="1"
         id="stop14557" />
    </linearGradient>
  </defs>
  <rect
     style="opacity:0.2;fill:#000000;stroke-width:2.625"
     id="rect1"
     width="42"
     height="42"
     x="3"
     y="4"
     ry="9" />
  <path
     id="rect2"
     style="fill:url(#linearGradient4);stroke-width:1.5"
     d="m 12,3 h 24 l 9,9 v 24 c 0,4.986 -4.014,9 -9,9 H 12 L 3,36 V 12 C 3,7.014 7.014,3 12,3 Z"
     sodipodi:nodetypes="sccssccss" />
  <path
     id="path530"
     style="fill:url(#linearGradient1091);fill-opacity:1;stroke-width:1.3125;stroke-linecap:round;stroke-linejoin:round"
     d="M 24,3 V 24 H 45 V 12 C 45,7.014 40.986,3 36,3 Z m 0,21 H 3 v 12 c 0,4.986 4.014,9 9,9 h 12 z" />
  <path
     d="m 13.001187,27.00002 -0.0024,1.377738 L 9,31.608061 l 0.684002,1.414975 1.972222,-0.546663 c 0.266298,0.347165 0.67128,0.54956 1.09973,0.549606 0.736274,-8.8e-4 1.191774,-0.63 1.244046,-1.389469 v -6e-4 1.387122 c 0,0.976988 -1.429466,0.92021 -2.171896,1.152399 -1.096013,0.34277 -1.84896,2.460907 -1.849104,3.642783 L 12,39.999786 h 4 L 18,38 v -5.614755 c 0,-2.365092 -1.353833,-4.17045 -3.640271,-4.17045 -0.02448,0.001 -0.04896,0.0022 -0.07344,0.0037 0.0036,-0.117218 -0.0072,-0.03424 -0.03225,-0.148625 C 14.11551,27.444749 13.621283,27.001192 13.001218,27 Z"
     style="fill:#f2f2f2;fill-opacity:1"
     id="path522"
     sodipodi:nodetypes="ccccccccssccccsccccc" />
</svg>
