<?xml version="1.0" encoding="UTF-8" standalone="no"?>
<!-- Created with Inkscape (http://www.inkscape.org/) -->

<svg
   width="48"
   height="48"
   viewBox="0 0 48 48.000004"
   version="1.1"
   id="svg1"
   inkscape:version="1.4.2 (ebf0e940d0, 2025-05-08)"
   sodipodi:docname="kolourpaint.svg"
   xmlns:inkscape="http://www.inkscape.org/namespaces/inkscape"
   xmlns:sodipodi="http://sodipodi.sourceforge.net/DTD/sodipodi-0.dtd"
   xmlns:xlink="http://www.w3.org/1999/xlink"
   xmlns="http://www.w3.org/2000/svg"
   xmlns:svg="http://www.w3.org/2000/svg">
  <sodipodi:namedview
     id="namedview1"
     pagecolor="#ffffff"
     bordercolor="#000000"
     borderopacity="0.25"
     inkscape:showpageshadow="2"
     inkscape:pageopacity="0.0"
     inkscape:pagecheckerboard="0"
     inkscape:deskcolor="#d1d1d1"
     inkscape:document-units="px"
     inkscape:zoom="16.583333"
     inkscape:cx="23.969849"
     inkscape:cy="24"
     inkscape:window-width="1920"
     inkscape:window-height="1011"
     inkscape:window-x="0"
     inkscape:window-y="0"
     inkscape:window-maximized="1"
     inkscape:current-layer="svg1" />
  <defs
     id="defs1">
    <linearGradient
       inkscape:collect="always"
       xlink:href="#4852"
       id="linearGradient4"
       x1="16"
       y1="30"
       x2="16"
       y2="2"
       gradientUnits="userSpaceOnUse"
       gradientTransform="scale(1.5)" />
    <linearGradient
       inkscape:collect="always"
       id="4852">
      <stop
         style="stop-color:#272727;stop-opacity:1;"
         offset="0"
         id="stop14555" />
      <stop
         style="stop-color:#5d5d5d;stop-opacity:1;"
         offset="1"
         id="stop14557" />
    </linearGradient>
    <linearGradient
       inkscape:collect="always"
       xlink:href="#linearGradient4681"
       id="linearGradient2"
       x1="24"
       y1="45"
       x2="24"
       y2="3"
       gradientUnits="userSpaceOnUse" />
    <linearGradient
       inkscape:collect="always"
       id="linearGradient4681">
      <stop
         style="stop-color:#ff5651;stop-opacity:1;"
         offset="0"
         id="stop4677" />
      <stop
         style="stop-color:#ff8b75;stop-opacity:1;"
         offset="1"
         id="stop4679" />
    </linearGradient>
  </defs>
  <rect
     style="opacity:0.2;fill:#000000;stroke-width:3.675"
     id="rect1"
     width="42"
     height="42"
     x="3"
     y="4"
     ry="9" />
  <rect
     style="fill:url(#linearGradient4);stroke-width:1.5"
     id="rect2"
     width="42"
     height="42"
     x="3"
     y="3"
     ry="9" />
  <rect
     style="opacity:0.2;fill:#ffffff;stroke-width:2"
     id="rect6239"
     width="5"
     height="5"
     x="16.5"
     y="13.499991" />
  <rect
     style="opacity:0.3;fill:#ffffff;stroke-width:2"
     id="rect6241"
     width="5"
     height="5"
     x="25.5"
     y="13.499991" />
  <rect
     style="opacity:0.5;fill:#ffffff;stroke-width:2"
     id="rect6243"
     width="5"
     height="5"
     x="31.5"
     y="19.49999" />
  <path
     id="path3370"
     style="fill:url(#linearGradient2);stroke-width:2"
     d="m 24,9.999991 c -7.731963,0 -14,6.268037 -14,14 0,7.731962 5.891639,14.012096 16,14 1.104566,-0.0013 2,-0.895432 2,-2 0,-1.104568 -0.895432,-2 -2,-2 -1.107994,0 -2,-0.892006 -2,-2 0,-1.107994 0.892006,-2 2,-2 h 6 c 4.838354,-0.0178 5.954656,-1.749928 6,-6 0,-7.731963 -6.268038,-14 -14,-14 z m -5,4 c 1.104568,0 2,0.895432 2,2 0,1.104568 -0.895432,2 -2,2 -1.104568,0 -2,-0.895432 -2,-2 0,-1.104568 0.895432,-2 2,-2 z m 9,0 c 1.104568,0 2,0.895432 2,2 0,1.104568 -0.895432,2 -2,2 -1.104568,0 -2,-0.895432 -2,-2 0,-1.104568 0.895432,-2 2,-2 z m -13,6 c 1.104568,0 2,0.895432 2,2 0,1.104568 -0.895432,2 -2,2 -1.104568,0 -2,-0.895432 -2,-2 0,-1.104568 0.895432,-2 2,-2 z m 19,0 c 1.104568,0 2,0.895432 2,2 0,1.104568 -0.895432,2 -2,2 -1.104568,0 -2,-0.895432 -2,-2 0,-1.104568 0.895432,-2 2,-2 z"
     sodipodi:nodetypes="sscssssccsssssssssssssssssssss" />
</svg>
