<?xml version="1.0" encoding="UTF-8" standalone="no"?>
<!-- Created with Inkscape (http://www.inkscape.org/) -->

<svg
   width="48"
   height="48"
   viewBox="0 0 48 48.000004"
   version="1.1"
   id="svg1"
   inkscape:version="1.4.2 (ebf0e940d0, 2025-05-08)"
   sodipodi:docname="konqueror.svg"
   xmlns:inkscape="http://www.inkscape.org/namespaces/inkscape"
   xmlns:sodipodi="http://sodipodi.sourceforge.net/DTD/sodipodi-0.dtd"
   xmlns:xlink="http://www.w3.org/1999/xlink"
   xmlns="http://www.w3.org/2000/svg"
   xmlns:svg="http://www.w3.org/2000/svg">
  <sodipodi:namedview
     id="namedview1"
     pagecolor="#ffffff"
     bordercolor="#000000"
     borderopacity="0.25"
     inkscape:showpageshadow="2"
     inkscape:pageopacity="0.0"
     inkscape:pagecheckerboard="0"
     inkscape:deskcolor="#d1d1d1"
     inkscape:document-units="px"
     inkscape:zoom="16.583333"
     inkscape:cx="23.969849"
     inkscape:cy="24"
     inkscape:window-width="1920"
     inkscape:window-height="1011"
     inkscape:window-x="0"
     inkscape:window-y="0"
     inkscape:window-maximized="1"
     inkscape:current-layer="svg1" />
  <defs
     id="defs1">
    <linearGradient
       inkscape:collect="always"
       xlink:href="#4852"
       id="linearGradient4"
       x1="16"
       y1="30"
       x2="16"
       y2="2"
       gradientUnits="userSpaceOnUse"
       gradientTransform="scale(1.5)" />
    <linearGradient
       inkscape:collect="always"
       id="4852">
      <stop
         style="stop-color:#272727;stop-opacity:1;"
         offset="0"
         id="stop14555" />
      <stop
         style="stop-color:#5d5d5d;stop-opacity:1;"
         offset="1"
         id="stop14557" />
    </linearGradient>
  </defs>
  <rect
     style="opacity:0.2;fill:#000000;stroke-width:3.675"
     id="rect1"
     width="42"
     height="42"
     x="3"
     y="4"
     ry="9" />
  <rect
     style="fill:url(#linearGradient4);stroke-width:1.5"
     id="rect2"
     width="42"
     height="42"
     x="3"
     y="3"
     ry="9" />
  <circle
     style="fill:#3daee9;fill-opacity:1;stroke-linecap:round"
     id="path1"
     cx="24"
     cy="24"
     r="11" />
  <path
     id="path3699"
     style="opacity:0.6;fill:#ffffff;stroke-width:1.5;stroke-linecap:round;stroke-linejoin:round"
     d="m 28.043921,8.357 c -0.569521,0.8312791 -2.109006,2.581039 -3.107895,3.583433 l -0.442851,1.069137 c 0.983344,0.121942 2.429502,0.565555 3.389417,0.963164 0.959916,0.397611 2.296184,1.106516 3.07774,1.71562 l 0.442851,-1.069137 c 0.0025,-1.415121 0.151164,-3.740969 0.336256,-4.7314833 z m -8.088508,3.95e-4 -3.695124,1.5305702 c 0.185091,0.9905148 0.333743,3.3158568 0.33622,4.7309768 l 0.442893,1.069239 c 0.781555,-0.609106 2.117406,-1.318042 3.077322,-1.715652 0.959915,-0.397609 2.405799,-0.840905 3.389144,-0.962847 L 23.062975,11.940445 C 22.064086,10.938053 20.524933,9.1886743 19.955413,8.357395 Z m 17.965126,7.441398 c -0.990515,0.185092 -3.315857,0.333743 -4.730978,0.336221 l -1.069238,0.442892 c 0.609105,0.781556 1.318042,2.117408 1.715651,3.077322 0.39761,0.959916 0.840907,2.4058 0.962847,3.389145 l 1.069238,-0.442894 c 1.002393,-0.998888 2.751771,-2.538041 3.58305,-3.107562 z m -23.110376,0.335909 c -1.415119,-0.0025 -3.740968,-0.151165 -4.731483,-0.336256 l -1.5307333,3.695518 c 0.8312793,0.56952 2.5810403,2.109006 3.5834323,3.107895 l 1.069138,0.442851 c 0.121942,-0.983344 0.565554,-2.4295 0.963164,-3.389417 0.39761,-0.959914 1.106516,-2.296184 1.71562,-3.07774 z m 20.180091,8.358868 c -0.121941,0.983344 -0.565554,2.429502 -0.963163,3.389417 -0.397611,0.959916 -1.106516,2.296184 -1.715621,3.077739 l 1.069138,0.442852 c 1.41512,0.0025 3.740969,0.151164 4.731484,0.336256 l 1.530733,-3.695518 c -0.831277,-0.56952 -2.58104,-2.109006 -3.583433,-3.107895 z M 13.009288,24.493956 11.94005,24.93685 C 10.937658,25.935738 9.1882793,27.474892 8.357,28.044412 l 1.53057,3.695124 c 0.990515,-0.185091 3.315857,-0.333743 4.730977,-0.336221 l 1.069239,-0.442892 C 15.078681,30.178868 14.369744,28.843016 13.972134,27.8831 13.574525,26.923186 13.131229,25.477302 13.009288,24.493956 Z m 18.412631,7.626762 c -0.781557,0.609104 -2.117408,1.318042 -3.077323,1.715651 -0.959916,0.39761 -2.405799,0.840906 -3.389144,0.962847 l 0.442893,1.069237 c 0.998889,1.002393 2.538042,2.751772 3.107563,3.583051 l 3.696025,-1.530197 c -0.185091,-0.990514 -0.334645,-3.316232 -0.337122,-4.731351 z m -14.84476,-1.95e-4 -0.442852,1.069139 c -0.0025,1.415119 -0.151165,3.740968 -0.336256,4.731483 l 3.695518,1.530734 c 0.56952,-0.83128 2.109006,-2.581041 3.107895,-3.583433 l 0.442852,-1.069139 c -0.983345,-0.121941 -2.429501,-0.565553 -3.389418,-0.963163 -0.959914,-0.39761 -2.296184,-1.106516 -3.077739,-1.715621 z" />
  <path
     id="path285"
     style="fill:#ffffff;stroke-width:2.70833;stroke-linecap:round;stroke-linejoin:round"
     d="M 24 11 C 16.820298 11 11 16.820298 11 24 C 11 31.179702 16.820298 37 24 37 C 31.179702 37 37 31.179702 37 24 C 37 16.820298 31.179702 11 24 11 z M 24 14 C 29.522848 14 34 18.477152 34 24 C 34 29.522848 29.522848 34 24 34 C 18.477152 34 14 29.522848 14 24 C 14 18.477152 18.477152 14 24 14 z " />
  <path
     d="m 23.995876,14.00011 c -0.726153,0 -1.432305,0.08 -2.113072,0.225376 l -0.886922,1.774542 -1.339997,-1.004574 c -2.403071,1.155338 -4.264608,3.236024 -5.126914,5.792074 l 1.966922,-0.786892 1.499997,0.99996 0.499999,-1.499941 6.499985,-3.499857 -0.396153,-1.98069 c -0.2,-0.0116 -0.400767,-0.0192 -0.603845,-0.0192 m 7.405373,3.283713 -0.405385,1.216106 0.499999,0.499979 -1.999996,2.99988 0.999998,3.499855 3.316147,0.415367 c 0.11924,-0.619973 0.18384,-1.259177 0.18384,-1.915306 0,-1.712237 -0.428459,-3.319863 -1.180766,-4.726729 l -0.819224,-0.273065 0.297693,-0.596901 c -0.267693,-0.396895 -0.572306,-0.765344 -0.892306,-1.119176 m -17.206891,4.715963 c -0.11,0.547671 -0.17308,1.113802 -0.19078,1.690701 l 3.492301,1.309179 -0.499999,-1.499941 -0.999998,-1.499939 z m 3.301531,2.99988 2.499995,5.999756 v 2.169144 c 1.224614,0.532287 2.575381,0.830736 3.999992,0.830736 0.09924,0 0.19692,-0.0038 0.296153,-0.007 l 3.20384,-5.492779 -7.999982,-4.499819 z"
     style="fill:#97e286;fill-opacity:1;stroke-width:2"
     id="path677" />
</svg>
