<?xml version="1.0" encoding="UTF-8" standalone="no"?>
<!-- Created with Inkscape (http://www.inkscape.org/) -->

<svg
   width="48"
   height="48"
   viewBox="0 0 48 48.000003"
   version="1.1"
   id="svg1"
   inkscape:version="1.4.2 (ebf0e940d0, 2025-05-08)"
   sodipodi:docname="mintinstall.svg"
   xmlns:inkscape="http://www.inkscape.org/namespaces/inkscape"
   xmlns:sodipodi="http://sodipodi.sourceforge.net/DTD/sodipodi-0.dtd"
   xmlns:xlink="http://www.w3.org/1999/xlink"
   xmlns="http://www.w3.org/2000/svg"
   xmlns:svg="http://www.w3.org/2000/svg">
  <sodipodi:namedview
     id="namedview1"
     pagecolor="#ffffff"
     bordercolor="#000000"
     borderopacity="0.25"
     inkscape:showpageshadow="2"
     inkscape:pageopacity="0.0"
     inkscape:pagecheckerboard="0"
     inkscape:deskcolor="#d1d1d1"
     inkscape:document-units="px"
     inkscape:zoom="16.833333"
     inkscape:cx="23.970297"
     inkscape:cy="24"
     inkscape:window-width="1920"
     inkscape:window-height="1011"
     inkscape:window-x="0"
     inkscape:window-y="0"
     inkscape:window-maximized="1"
     inkscape:current-layer="svg1" />
  <defs
     id="defs1">
    <linearGradient
       inkscape:collect="always"
       xlink:href="#4852"
       id="linearGradient4"
       x1="16"
       y1="30"
       x2="16"
       y2="2"
       gradientUnits="userSpaceOnUse"
       gradientTransform="scale(1.5)" />
    <linearGradient
       inkscape:collect="always"
       id="4852">
      <stop
         style="stop-color:#272727;stop-opacity:1;"
         offset="0"
         id="stop14555" />
      <stop
         style="stop-color:#5d5d5d;stop-opacity:1;"
         offset="1"
         id="stop14557" />
    </linearGradient>
    <linearGradient
       inkscape:collect="always"
       id="linearGradient2030">
      <stop
         style="stop-color:#4c7523;stop-opacity:1;"
         offset="0"
         id="stop2026" />
      <stop
         style="stop-color:#87cf3e;stop-opacity:1;"
         offset="1"
         id="stop2028" />
    </linearGradient>
    <linearGradient
       inkscape:collect="always"
       xlink:href="#linearGradient2030"
       id="linearGradient3"
       x1="24"
       y1="45"
       x2="24"
       y2="3"
       gradientUnits="userSpaceOnUse" />
  </defs>
  <rect
     style="opacity:0.2;fill:#000000;stroke-width:2.625"
     id="rect1"
     width="42"
     height="42"
     x="3"
     y="4"
     ry="9" />
  <rect
     style="fill:url(#linearGradient4);stroke-width:1.5"
     id="rect2"
     width="42"
     height="42"
     x="3"
     y="3"
     ry="9" />
  <path
     style="color:#000000;fill:#ececec;fill-opacity:1;stroke:none;stroke-width:2;stroke-linecap:round;stroke-linejoin:round"
     d="m 24,16 c -4.406428,0 -8,-3.593571 -8,-8 a 1,1 0 0 1 1,-1 1,1 0 0 1 1,1 c 0,3.32555 2.67445,6 6,6 3.32555,0 6,-2.67445 6,-6 a 1,1 0 0 1 1,-1 1,1 0 0 1 1,1 c 0,4.406429 -3.593572,8 -8,8 z"
     id="path6954" />
  <path
     id="rect291"
     style="fill:url(#linearGradient3);stroke-width:2.08893;stroke-linecap:round;stroke-linejoin:round"
     d="m 15,22 v 12 c 0,2.769991 2.230009,5 5,5 h 7 c 2.769991,0 5,-2.230009 5,-5 V 28.5 C 32,26.561006 30.438994,25 28.5,25 27.518586,25 26.634347,25.400465 26,26.046875 25.365653,25.400465 24.481414,25 23.5,25 21.561006,25 20,26.561006 20,28.5 V 34 h 2 v -5.5 c 0,-0.830997 0.669003,-1.5 1.5,-1.5 0.830997,0 1.5,0.669003 1.5,1.5 V 34 h 2 v -5.5 c 0,-0.830997 0.669003,-1.5 1.5,-1.5 0.830997,0 1.5,0.669003 1.5,1.5 V 34 c 0,1.661994 -1.338006,3 -3,3 h -7 c -1.661994,0 -3,-1.338006 -3,-3 V 22 Z" />
</svg>
