<?xml version="1.0" encoding="UTF-8" standalone="no"?>
<!-- Created with Inkscape (http://www.inkscape.org/) -->

<svg
   width="48"
   height="48"
   viewBox="0 0 48 48.000003"
   version="1.1"
   id="svg1"
   inkscape:version="1.4.2 (ebf0e940d0, 2025-05-08)"
   sodipodi:docname="obsstudio.svg"
   xmlns:inkscape="http://www.inkscape.org/namespaces/inkscape"
   xmlns:sodipodi="http://sodipodi.sourceforge.net/DTD/sodipodi-0.dtd"
   xmlns:xlink="http://www.w3.org/1999/xlink"
   xmlns="http://www.w3.org/2000/svg"
   xmlns:svg="http://www.w3.org/2000/svg">
  <sodipodi:namedview
     id="namedview1"
     pagecolor="#ffffff"
     bordercolor="#000000"
     borderopacity="0.25"
     inkscape:showpageshadow="2"
     inkscape:pageopacity="0.0"
     inkscape:pagecheckerboard="0"
     inkscape:deskcolor="#d1d1d1"
     inkscape:document-units="px"
     inkscape:zoom="16.5625"
     inkscape:cx="24"
     inkscape:cy="24"
     inkscape:window-width="1920"
     inkscape:window-height="1010"
     inkscape:window-x="0"
     inkscape:window-y="0"
     inkscape:window-maximized="1"
     inkscape:current-layer="svg1" />
  <defs
     id="defs1">
    <linearGradient
       inkscape:collect="always"
       xlink:href="#4852"
       id="linearGradient4"
       x1="16"
       y1="30"
       x2="16"
       y2="2"
       gradientUnits="userSpaceOnUse"
       gradientTransform="scale(1.5)" />
    <linearGradient
       inkscape:collect="always"
       id="4852">
      <stop
         style="stop-color:#272727;stop-opacity:1;"
         offset="0"
         id="stop14555" />
      <stop
         style="stop-color:#5d5d5d;stop-opacity:1;"
         offset="1"
         id="stop14557" />
    </linearGradient>
  </defs>
  <rect
     style="opacity:0.2;fill:#000000;stroke-width:2.625"
     id="rect1"
     width="42"
     height="42"
     x="3"
     y="4"
     ry="9" />
  <rect
     style="fill:url(#linearGradient4);stroke-width:1.5"
     id="rect2"
     width="42"
     height="42"
     x="3"
     y="3"
     ry="9" />
  <path
     id="path28"
     d="m 18.406754,8.082 c -3.106453,1.639281 -5.706116,4.703877 -5.780801,8.352787 -0.05955,1.893732 0.335543,3.891514 1.261322,5.523294 3.248249,0.05523 6.593856,1.908908 7.73292,5.068416 1.668573,4.176204 -0.296937,9.720677 -4.687552,11.25938 -2.252154,0.810955 -4.756276,0.449747 -6.932643,-0.42404 2.975401,1.873208 6.937963,2.588963 10.135291,0.821866 1.67394,-0.886746 3.147203,-2.228423 4.15095,-3.81789 -1.579755,-2.847662 -1.641681,-6.667752 0.522725,-9.239414 2.774005,-3.536329 8.552969,-4.62505 12.084327,-1.594383 1.828755,1.542965 2.766449,3.892181 3.097791,6.21255 0.133185,-3.510279 -1.221645,-7.294788 -4.342152,-9.182361 -1.604625,-1.023249 -3.499108,-1.584709 -5.379894,-1.714659 -1.677176,2.79248 -4.953447,4.758335 -8.263351,4.172538 -4.44692,-0.628001 -8.285029,-5.08029 -7.426072,-9.652657 0.419918,-2.354933 1.986491,-4.3411623 3.827139,-5.785427 z"
     style="fill:#ffffff;stroke-width:0.789482"
     sodipodi:nodetypes="cccccccccccccccc" />
</svg>
