<?xml version="1.0" encoding="UTF-8" standalone="no"?>
<!-- Created with Inkscape (http://www.inkscape.org/) -->

<svg
   width="48"
   height="48"
   viewBox="0 0 48 48.000003"
   version="1.1"
   id="svg1"
   inkscape:version="1.4.2 (ebf0e940d0, 2025-05-08)"
   sodipodi:docname="org.gnome.Loupe.svg"
   xmlns:inkscape="http://www.inkscape.org/namespaces/inkscape"
   xmlns:sodipodi="http://sodipodi.sourceforge.net/DTD/sodipodi-0.dtd"
   xmlns:xlink="http://www.w3.org/1999/xlink"
   xmlns="http://www.w3.org/2000/svg"
   xmlns:svg="http://www.w3.org/2000/svg">
  <sodipodi:namedview
     id="namedview1"
     pagecolor="#ffffff"
     bordercolor="#000000"
     borderopacity="0.25"
     inkscape:showpageshadow="2"
     inkscape:pageopacity="0.0"
     inkscape:pagecheckerboard="0"
     inkscape:deskcolor="#d1d1d1"
     inkscape:document-units="px"
     inkscape:zoom="16.833333"
     inkscape:cx="23.970297"
     inkscape:cy="24"
     inkscape:window-width="1920"
     inkscape:window-height="1011"
     inkscape:window-x="0"
     inkscape:window-y="0"
     inkscape:window-maximized="1"
     inkscape:current-layer="svg1" />
  <defs
     id="defs1">
    <linearGradient
       inkscape:collect="always"
       xlink:href="#4852"
       id="linearGradient4"
       x1="16"
       y1="30"
       x2="16"
       y2="2"
       gradientUnits="userSpaceOnUse"
       gradientTransform="scale(1.5)" />
    <linearGradient
       inkscape:collect="always"
       id="4852">
      <stop
         style="stop-color:#272727;stop-opacity:1;"
         offset="0"
         id="stop14555" />
      <stop
         style="stop-color:#5d5d5d;stop-opacity:1;"
         offset="1"
         id="stop14557" />
    </linearGradient>
    <linearGradient
       inkscape:collect="always"
       id="linearGradient3">
      <stop
         style="stop-color:#ff8303;stop-opacity:1;"
         offset="0"
         id="stop1" />
      <stop
         style="stop-color:#b966d8;stop-opacity:1;"
         offset="0.5"
         id="stop3" />
      <stop
         style="stop-color:#5672c9;stop-opacity:1;"
         offset="1"
         id="stop2" />
    </linearGradient>
    <linearGradient
       inkscape:collect="always"
       xlink:href="#linearGradient3"
       id="linearGradient5"
       x1="24"
       y1="45"
       x2="24"
       y2="3"
       gradientUnits="userSpaceOnUse" />
  </defs>
  <rect
     style="opacity:0.2;fill:#000000;stroke-width:2.625"
     id="rect1"
     width="42"
     height="42"
     x="3"
     y="4"
     ry="9" />
  <rect
     style="fill:url(#linearGradient4);stroke-width:1.5"
     id="rect2"
     width="42"
     height="42"
     x="3"
     y="3"
     ry="9" />
  <path
     id="path1600"
     style="opacity:1;fill:url(#linearGradient5);stroke-width:0.223224;stroke-linecap:round;stroke-linejoin:round"
     d="M 15 12 A 3 3 0 0 0 12 15 A 3 3 0 0 0 15 18 A 3 3 0 0 0 18 15 A 3 3 0 0 0 15 12 z M 27.164062 23.951172 C 26.647563 23.949466 26.127097 24.120497 25.802734 24.466797 L 21.191406 29.388672 L 19.501953 27.464844 C 18.896121 26.77508 17.443023 26.764436 16.802734 27.464844 L 9 36 L 15 36 L 27 36 L 39 36 L 28.501953 24.466797 C 28.192989 24.127322 27.680562 23.952878 27.164062 23.951172 z " />
  <path
     id="path3505"
     style="fill:#ffffff;fill-opacity:1;stroke-width:3;stroke-linecap:round;stroke-linejoin:round;opacity:0.3"
     d="M 15 12 A 3 3 0 0 0 12 15 A 3 3 0 0 0 15 18 A 3 3 0 0 0 18 15 A 3 3 0 0 0 15 12 z M 27.164062 23.951172 C 26.647563 23.949466 26.127097 24.120497 25.802734 24.466797 L 15 36 L 39 36 L 28.501953 24.466797 C 28.192989 24.127322 27.680562 23.952878 27.164062 23.951172 z " />
</svg>
