<?xml version="1.0" encoding="UTF-8" standalone="no"?>
<!-- Created with Inkscape (http://www.inkscape.org/) -->

<svg
   width="48"
   height="48"
   viewBox="0 0 48 48.000004"
   version="1.1"
   id="svg1"
   inkscape:version="1.4.2 (ebf0e940d0, 2025-05-08)"
   sodipodi:docname="plasma-search.svg"
   xmlns:inkscape="http://www.inkscape.org/namespaces/inkscape"
   xmlns:sodipodi="http://sodipodi.sourceforge.net/DTD/sodipodi-0.dtd"
   xmlns:xlink="http://www.w3.org/1999/xlink"
   xmlns="http://www.w3.org/2000/svg"
   xmlns:svg="http://www.w3.org/2000/svg">
  <sodipodi:namedview
     id="namedview1"
     pagecolor="#ffffff"
     bordercolor="#000000"
     borderopacity="0.25"
     inkscape:showpageshadow="2"
     inkscape:pageopacity="0.0"
     inkscape:pagecheckerboard="0"
     inkscape:deskcolor="#d1d1d1"
     inkscape:document-units="px"
     inkscape:zoom="16.375"
     inkscape:cx="23.969466"
     inkscape:cy="24"
     inkscape:window-width="1920"
     inkscape:window-height="1011"
     inkscape:window-x="0"
     inkscape:window-y="0"
     inkscape:window-maximized="1"
     inkscape:current-layer="svg1" />
  <defs
     id="defs1">
    <linearGradient
       inkscape:collect="always"
       xlink:href="#4852"
       id="linearGradient4"
       x1="16"
       y1="30"
       x2="16"
       y2="2"
       gradientUnits="userSpaceOnUse"
       gradientTransform="scale(1.5)" />
    <linearGradient
       inkscape:collect="always"
       id="4852">
      <stop
         style="stop-color:#272727;stop-opacity:1;"
         offset="0"
         id="stop14555" />
      <stop
         style="stop-color:#5d5d5d;stop-opacity:1;"
         offset="1"
         id="stop14557" />
    </linearGradient>
    <linearGradient
       inkscape:collect="always"
       id="linearGradient1871">
      <stop
         style="stop-color:#3daee9;stop-opacity:1;"
         offset="0"
         id="stop1867" />
      <stop
         style="stop-color:#76c6ee;stop-opacity:1;"
         offset="1"
         id="stop1869" />
    </linearGradient>
    <linearGradient
       inkscape:collect="always"
       xlink:href="#linearGradient1871"
       id="linearGradient2"
       x1="24"
       y1="45"
       x2="24"
       y2="3"
       gradientUnits="userSpaceOnUse" />
  </defs>
  <rect
     style="opacity:0.2;fill:#000000;stroke-width:3.675"
     id="rect1"
     width="42"
     height="42"
     x="3"
     y="4"
     ry="9" />
  <rect
     style="fill:url(#linearGradient4);stroke-width:1.5"
     id="rect2"
     width="42"
     height="42"
     x="3"
     y="3"
     ry="9" />
  <path
     id="path1562"
     style="fill:url(#linearGradient2);fill-opacity:1;stroke-width:6.6;stroke-linecap:round;stroke-linejoin:round"
     d="m 20.999159,10 c -2.815141,0 -5.629466,1.074779 -7.777344,3.222656 -4.2957532,4.295755 -4.2957535,11.258932 0,15.554688 4.057719,4.057718 10.494767,4.283807 14.816406,0.675781 l 8.308594,8.308594 c 0.390524,0.390523 1.023539,0.390523 1.414063,0 0.390524,-0.390524 0.390524,-1.023539 0,-1.414063 L 29.452284,28.039062 C 33.06031,23.717423 32.834221,17.280375 28.776503,13.222656 26.628625,11.074779 23.8143,10 20.999159,10 Z m 0,2 c 2.303298,0 4.605927,0.879365 6.363281,2.636719 3.514709,3.514708 3.514711,9.211852 0,12.726562 -3.51471,3.514711 -9.211855,3.514709 -12.726562,0 -3.514708,-3.514708 -3.514709,-9.211854 0,-12.726562 C 16.393232,12.879364 18.695862,12 20.999159,12 Z" />
</svg>
