<?xml version="1.0" encoding="UTF-8" standalone="no"?>
<!-- Created with Inkscape (http://www.inkscape.org/) -->

<svg
   width="48"
   height="48"
   viewBox="0 0 48 48.000003"
   version="1.1"
   id="svg1"
   inkscape:version="1.4.2 (ebf0e940d0, 2025-05-08)"
   sodipodi:docname="preferences-desktop-screensaver.svg"
   xmlns:inkscape="http://www.inkscape.org/namespaces/inkscape"
   xmlns:sodipodi="http://sodipodi.sourceforge.net/DTD/sodipodi-0.dtd"
   xmlns:xlink="http://www.w3.org/1999/xlink"
   xmlns="http://www.w3.org/2000/svg"
   xmlns:svg="http://www.w3.org/2000/svg">
  <sodipodi:namedview
     id="namedview1"
     pagecolor="#ffffff"
     bordercolor="#000000"
     borderopacity="0.25"
     inkscape:showpageshadow="2"
     inkscape:pageopacity="0.0"
     inkscape:pagecheckerboard="0"
     inkscape:deskcolor="#d1d1d1"
     inkscape:document-units="px"
     inkscape:zoom="16.375"
     inkscape:cx="23.969466"
     inkscape:cy="24"
     inkscape:window-width="1920"
     inkscape:window-height="1011"
     inkscape:window-x="0"
     inkscape:window-y="0"
     inkscape:window-maximized="1"
     inkscape:current-layer="svg1" />
  <defs
     id="defs1">
    <linearGradient
       inkscape:collect="always"
       xlink:href="#4852"
       id="linearGradient4"
       x1="16"
       y1="30"
       x2="16"
       y2="2"
       gradientUnits="userSpaceOnUse"
       gradientTransform="scale(1.5)" />
    <linearGradient
       inkscape:collect="always"
       id="4852">
      <stop
         style="stop-color:#272727;stop-opacity:1;"
         offset="0"
         id="stop14555" />
      <stop
         style="stop-color:#5d5d5d;stop-opacity:1;"
         offset="1"
         id="stop14557" />
    </linearGradient>
  </defs>
  <rect
     style="opacity:0.2;fill:#000000;stroke-width:2.625"
     id="rect1"
     width="42"
     height="42"
     x="3"
     y="4"
     ry="9" />
  <rect
     style="fill:url(#linearGradient4);stroke-width:1.5"
     id="rect2"
     width="42"
     height="42"
     x="3"
     y="3"
     ry="9" />
  <path
     d="m 12.425781,10.574219 -1.242187,3.759765 -3.7578128,1.240235 3.7578128,1.242187 1.242187,3.757813 1.240235,-3.757813 3.759765,-1.242187 -3.759765,-1.240235 z m 9.25,0.55664 -0.746093,2.253907 -2.253907,0.746093 2.253907,0.744141 0.746093,2.255859 0.744141,-2.255859 2.255859,-0.744141 -2.255859,-0.746093 z M 29.25,14.25 28.876953,15.376953 27.75,15.75 28.876953,16.123047 29.25,17.25 29.623047,16.123047 30.75,15.75 29.623047,15.376953 Z m 2.355469,4.550781 c 1.177348,1.426657 1.892578,3.249946 1.892578,5.244141 0,4.558084 -3.695631,8.251953 -8.253906,8.251953 -1.994234,0 -3.817435,-0.713237 -5.244141,-1.890625 0.997971,4.253898 4.813008,7.394531 9.371094,7.394531 5.317893,0 9.628906,-4.311014 9.628906,-9.628906 0,-4.558238 -3.140691,-8.373178 -7.394531,-9.371094 z"
     style="fill:#ffffff;stroke-width:1.50793"
     id="path1" />
</svg>
