<?xml version="1.0" encoding="UTF-8" standalone="no"?>
<!-- Created with Inkscape (http://www.inkscape.org/) -->

<svg
   width="48"
   height="48"
   viewBox="0 0 48 48.000003"
   version="1.1"
   id="svg1"
   inkscape:version="1.4.2 (ebf0e940d0, 2025-05-08)"
   sodipodi:docname="preferences-system.svg"
   xmlns:inkscape="http://www.inkscape.org/namespaces/inkscape"
   xmlns:sodipodi="http://sodipodi.sourceforge.net/DTD/sodipodi-0.dtd"
   xmlns:xlink="http://www.w3.org/1999/xlink"
   xmlns="http://www.w3.org/2000/svg"
   xmlns:svg="http://www.w3.org/2000/svg">
  <sodipodi:namedview
     id="namedview1"
     pagecolor="#ffffff"
     bordercolor="#000000"
     borderopacity="0.25"
     inkscape:showpageshadow="2"
     inkscape:pageopacity="0.0"
     inkscape:pagecheckerboard="0"
     inkscape:deskcolor="#d1d1d1"
     inkscape:document-units="px"
     inkscape:zoom="16.375"
     inkscape:cx="23.969466"
     inkscape:cy="24"
     inkscape:window-width="1920"
     inkscape:window-height="1011"
     inkscape:window-x="0"
     inkscape:window-y="0"
     inkscape:window-maximized="1"
     inkscape:current-layer="svg1" />
  <defs
     id="defs1">
    <linearGradient
       inkscape:collect="always"
       xlink:href="#linearGradient2116"
       id="linearGradient3"
       x1="16"
       y1="30"
       x2="16"
       y2="2"
       gradientUnits="userSpaceOnUse"
       gradientTransform="scale(1.5)" />
    <linearGradient
       inkscape:collect="always"
       xlink:href="#4852"
       id="linearGradient4"
       x1="16"
       y1="30"
       x2="16"
       y2="2"
       gradientUnits="userSpaceOnUse"
       gradientTransform="scale(1.5)" />
    <linearGradient
       inkscape:collect="always"
       id="4852">
      <stop
         style="stop-color:#272727;stop-opacity:1;"
         offset="0"
         id="stop14555" />
      <stop
         style="stop-color:#5d5d5d;stop-opacity:1;"
         offset="1"
         id="stop14557" />
    </linearGradient>
    <linearGradient
       inkscape:collect="always"
       id="linearGradient2116">
      <stop
         style="stop-color:#657481;stop-opacity:1;"
         offset="0"
         id="stop2112" />
      <stop
         style="stop-color:#9ba6b0;stop-opacity:1;"
         offset="1"
         id="stop2114" />
    </linearGradient>
  </defs>
  <rect
     style="opacity:0.2;fill:#000000;stroke-width:2.625"
     id="rect1"
     width="42"
     height="42"
     x="3"
     y="4"
     ry="9" />
  <rect
     style="fill:url(#linearGradient4);stroke-width:1.5"
     id="rect2"
     width="42"
     height="42"
     x="3"
     y="3"
     ry="9" />
  <path
     id="rect1-2"
     style="opacity:1;fill:url(#linearGradient3);stroke-width:1.5"
     d="m 28.573242,8.1152345 c -0.626154,0.01892 -1.179648,0.739497 -1.523438,1.350586 L 25.567383,12.09961 c 0.398502,0.05276 0.798468,0.125109 1.195312,0.219726 0.332361,0.07924 0.66368,0.17505 0.993164,0.28418 -0.325532,-0.107205 -0.655986,-0.204752 -0.993164,-0.28418 C 25.875912,12.110438 24.950561,12 24,12 c -0.591882,0 -1.171302,0.052 -1.740234,0.134766 0.05924,-0.0088 0.116374,-0.02728 0.17578,-0.03516 L 20.950195,9.4658215 C 20.670072,8.9678975 20.24836,8.398459 19.763671,8.194337 19.543357,8.1015545 19.312185,8.0832445 19.072266,8.182617 L 16.300782,9.3310545 C 15.533037,9.649064 15.654897,10.766169 15.878907,11.566406 l 0.814452,2.91211 c 0.187971,-0.143954 0.378562,-0.280825 0.574219,-0.413086 0.432897,-0.292633 0.887829,-0.548836 1.353515,-0.782227 -0.46713,0.234969 -0.923768,0.490491 -1.353515,0.782227 -1.140357,0.774134 -2.130619,1.746013 -2.944336,2.856445 0.05371,-0.07356 0.09712,-0.156432 0.152344,-0.228516 l -2.90918,-0.814452 c -0.800237,-0.22401 -1.9173415,-0.34587 -2.2353515,0.421875 L 8.182617,19.072266 c -0.3180095,0.767743 0.558953,1.470471 1.2832035,1.877929 l 2.6337885,1.482422 c 0.05277,-0.398515 0.125105,-0.798454 0.219727,-1.195313 0.07924,-0.332355 0.175051,-0.663687 0.284179,-0.993163 -0.1072,0.325519 -0.204753,0.655999 -0.284179,0.993163 C 12.110432,22.1241 12,23.049426 12,24 c 0,0.592126 0.05193,1.171078 0.134766,1.740234 -0.0087,-0.05915 -0.02729,-0.116466 -0.03516,-0.17578 l -2.6337895,1.485351 c -0.724252,0.407514 -1.601214,1.110187 -1.2832035,1.877929 l 1.1484375,2.771484 c 0.3180095,0.767745 1.4351125,0.645884 2.2353515,0.421875 l 2.91211,-0.814452 c -0.143371,-0.187209 -0.281312,-0.376455 -0.413086,-0.57129 -0.292194,-0.432021 -0.546118,-0.885879 -0.779297,-1.350585 0.2347,0.465987 0.488088,0.921834 0.779297,1.350585 0.771729,1.136229 1.741851,2.123615 2.847657,2.935548 -0.07068,-0.0517 -0.150416,-0.09338 -0.219728,-0.146485 l -0.814452,2.909179 c -0.224011,0.800238 -0.34587,1.917344 0.421875,2.235353 l 2.771484,1.148437 c 0.767744,0.318011 1.470471,-0.558954 1.87793,-1.283203 l 1.482421,-2.633789 C 22.032759,35.84745 21.63256,35.775748 21.234375,35.680664 22.122393,35.89018 23.04799,36 24,36 c 0.589452,0 1.167673,-0.04973 1.734375,-0.131836 -0.05708,0.0084 -0.112688,0.02463 -0.169922,0.03222 l 1.485351,2.633789 c 0.407459,0.724254 1.110186,1.601216 1.87793,1.283203 l 2.771484,-1.148437 c 0.767745,-0.318008 0.645888,-1.435114 0.421875,-2.235353 l -0.814452,-2.912109 c -0.180357,0.138125 -0.363337,0.271074 -0.550782,0.398438 -0.431772,0.293379 -0.88597,0.550842 -1.350585,0.785157 0.46664,-0.236115 0.921441,-0.49233 1.350585,-0.785157 1.128226,-0.769845 2.107861,-1.736005 2.91504,-2.835938 -0.05216,0.07134 -0.09289,0.152706 -0.146485,0.222658 l 2.909179,0.814451 c 0.800238,0.22401 1.917344,0.345872 2.235352,-0.421875 l 1.148438,-2.771484 c 0.31801,-0.767743 -0.558951,-1.470475 -1.283204,-1.877929 L 35.900391,25.56738 c -0.05279,0.398679 -0.125049,0.798293 -0.219727,1.195313 -0.07994,0.335203 -0.176768,0.669682 -0.28711,1.001953 0.108309,-0.328062 0.207023,-0.662052 0.28711,-1.001953 C 35.889642,25.875751 36,24.950749 36,24 c 0,-0.591856 -0.052,-1.171326 -0.134766,-1.740234 0.0088,0.05924 0.02728,0.116377 0.03515,0.17578 l 2.633789,-1.485351 c 0.724252,-0.407454 1.601214,-1.110186 1.283203,-1.877929 l -1.148437,-2.771484 c -0.09938,-0.239919 -0.276656,-0.393221 -0.498047,-0.483399 -0.487063,-0.198392 -1.187142,-0.09248 -1.737306,0.06152 l -2.912109,0.814452 c 0.144018,0.188052 0.280772,0.378474 0.413087,0.574219 0.296811,0.4391 0.558106,0.901241 0.793945,1.374023 -0.237591,-0.474708 -0.497826,-0.937793 -0.793945,-1.374023 -0.773052,-1.138821 -1.742085,-2.128264 -2.850587,-2.941406 0.07179,0.05247 0.152279,0.09549 0.222657,0.149414 l 0.814452,-2.90918 c 0.22401,-0.800238 0.34587,-1.9173415 -0.421875,-2.2353515 L 28.927732,8.182617 C 28.807773,8.132927 28.689195,8.1117305 28.57324,8.1152345 Z m -6.685547,4.0898435 c -0.407545,0.07261 -0.808979,0.165681 -1.201171,0.278321 0.395056,-0.114051 0.795309,-0.205117 1.201171,-0.278321 z m -1.754883,0.454102 c -0.333753,0.113809 -0.658728,0.242122 -0.978516,0.383789 0.320717,-0.141783 0.64659,-0.27039 0.978516,-0.383789 z m 8.121095,0.128906 c 0.112537,0.04279 0.224932,0.07959 0.336913,0.125977 0.02536,0.01051 0.048,0.0245 0.07324,0.03515 -0.135208,-0.05715 -0.27247,-0.108856 -0.410155,-0.161133 z m 1.705077,0.796875 c 0.09309,0.05302 0.178317,0.114684 0.269532,0.169922 -0.09076,-0.05531 -0.17721,-0.116976 -0.269532,-0.169922 z m -16.204101,4.186523 c -0.05531,0.09076 -0.116979,0.177213 -0.169922,0.269532 0.05302,-0.09309 0.114684,-0.178317 0.169922,-0.269532 z M 24,18 c 3.313703,0 6,2.686299 6,6 0,3.313703 -2.686297,6 -6,6 -3.313701,0 -6,-2.686297 -6,-6 0,-3.313701 2.686299,-6 6,-6 z m 10.945312,1.125 c 0.148724,0.334029 0.283497,0.673294 0.401367,1.019532 C 35.22854,19.797024 35.093614,19.457364 34.945312,19.125 Z m -21.996093,0.210937 c -0.05714,0.135205 -0.108857,0.272477 -0.161133,0.410156 0.04279,-0.112535 0.07959,-0.224936 0.125977,-0.336914 0.01051,-0.02536 0.0245,-0.048 0.03515,-0.07324 z m 22.564452,1.344727 c 0.115118,0.397964 0.207594,0.801023 0.28125,1.209961 -0.07318,-0.41126 -0.167315,-0.81434 -0.28125,-1.209961 z m -23.308593,5.425781 c 0.07298,0.410601 0.164717,0.81494 0.278321,1.209962 -0.114744,-0.397377 -0.20491,-0.80166 -0.278321,-1.209962 z m 0.459961,1.778321 c 0.109482,0.319332 0.234115,0.630967 0.369141,0.9375 -0.135328,-0.30794 -0.259935,-0.619256 -0.369141,-0.9375 z m 22.555664,0.345702 c -0.04548,0.120375 -0.08517,0.240613 -0.134766,0.360352 -0.01017,0.02454 -0.02485,0.04587 -0.03516,0.07031 0.06,-0.142077 0.115295,-0.285858 0.169921,-0.430665 z m -0.808594,1.731445 c -0.04888,0.08575 -0.104512,0.164864 -0.155273,0.249024 0.05081,-0.08371 0.106464,-0.163983 0.155273,-0.249024 z m -16.608398,4.303712 c 0.07643,0.04624 0.148049,0.09898 0.225585,0.143554 -0.07808,-0.04458 -0.148827,-0.09741 -0.225585,-0.143554 z m 11.041992,0.688476 c -0.312247,0.138078 -0.626317,0.26675 -0.949219,0.377931 0.323461,-0.111293 0.638929,-0.240431 0.949219,-0.377931 z m -9.498046,0.10254 c 0.05007,0.0211 0.101932,0.03816 0.152343,0.05859 -0.02996,-0.01214 -0.0609,-0.01691 -0.09082,-0.02929 -0.02127,-0.0088 -0.04033,-0.02038 -0.06152,-0.0293 z m 7.95996,0.462891 c -0.374549,0.107846 -0.755334,0.192501 -1.139649,0.263671 0.386857,-0.07082 0.766713,-0.156706 1.139649,-0.263671 z" />
  <path
     id="path285"
     style="opacity:0.3;fill:#ffffff;stroke-width:2.4;stroke-linecap:round;stroke-linejoin:round"
     d="m 24,12 c -6.627404,0 -12,5.372596 -12,12 0,6.627403 5.372596,12 12,12 6.627403,0 12,-5.372597 12,-12 0,-6.627404 -5.372597,-12 -12,-12 z m 0,6 c 3.313703,0 6,2.686299 6,6 0,3.313703 -2.686297,6 -6,6 -3.313701,0 -6,-2.686297 -6,-6 0,-3.313701 2.686299,-6 6,-6 z" />
</svg>
