<?xml version="1.0" encoding="UTF-8" standalone="no"?>
<!-- Created with Inkscape (http://www.inkscape.org/) -->

<svg
   width="48"
   height="48"
   viewBox="0 0 48 48.000004"
   version="1.1"
   id="svg1"
   inkscape:version="1.4.2 (ebf0e940d0, 2025-05-08)"
   sodipodi:docname="sound-recorder.svg"
   xmlns:inkscape="http://www.inkscape.org/namespaces/inkscape"
   xmlns:sodipodi="http://sodipodi.sourceforge.net/DTD/sodipodi-0.dtd"
   xmlns:xlink="http://www.w3.org/1999/xlink"
   xmlns="http://www.w3.org/2000/svg"
   xmlns:svg="http://www.w3.org/2000/svg">
  <sodipodi:namedview
     id="namedview1"
     pagecolor="#ffffff"
     bordercolor="#000000"
     borderopacity="0.25"
     inkscape:showpageshadow="2"
     inkscape:pageopacity="0.0"
     inkscape:pagecheckerboard="0"
     inkscape:deskcolor="#d1d1d1"
     inkscape:document-units="px"
     inkscape:zoom="16.833333"
     inkscape:cx="23.970298"
     inkscape:cy="23.940595"
     inkscape:window-width="1920"
     inkscape:window-height="1011"
     inkscape:window-x="0"
     inkscape:window-y="0"
     inkscape:window-maximized="1"
     inkscape:current-layer="svg1" />
  <defs
     id="defs1">
    <linearGradient
       inkscape:collect="always"
       xlink:href="#4852"
       id="linearGradient4"
       x1="16"
       y1="30"
       x2="16"
       y2="2"
       gradientUnits="userSpaceOnUse"
       gradientTransform="scale(1.5)" />
    <linearGradient
       inkscape:collect="always"
       id="4852">
      <stop
         style="stop-color:#272727;stop-opacity:1;"
         offset="0"
         id="stop14555" />
      <stop
         style="stop-color:#5d5d5d;stop-opacity:1;"
         offset="1"
         id="stop14557" />
    </linearGradient>
    <linearGradient
       inkscape:collect="always"
       id="linearGradient1344">
      <stop
         style="stop-color:#da2d2d;stop-opacity:1;"
         offset="0"
         id="stop1340" />
      <stop
         style="stop-color:#ff7676;stop-opacity:1;"
         offset="1"
         id="stop1342" />
    </linearGradient>
    <linearGradient
       inkscape:collect="always"
       xlink:href="#linearGradient1344"
       id="linearGradient8"
       x1="24"
       y1="45"
       x2="24"
       y2="3"
       gradientUnits="userSpaceOnUse" />
  </defs>
  <rect
     style="opacity:0.2;fill:#000000;stroke-width:3.675"
     id="rect1"
     width="42"
     height="42"
     x="3"
     y="4"
     ry="9" />
  <rect
     style="fill:url(#linearGradient4);stroke-width:1.5"
     id="rect2"
     width="42"
     height="42"
     x="3"
     y="3"
     ry="9" />
  <path
     id="rect286"
     style="fill:url(#linearGradient8);stroke-width:8;stroke-linecap:round;stroke-linejoin:round;fill-opacity:1"
     d="M 21 10 C 20.446 10 20 10.446 20 11 L 20 37 C 20 37.554 20.446 38 21 38 C 21.554 38 22 37.554 22 37 L 22 11 C 22 10.446 21.554 10 21 10 z M 33 15 C 32.446 15 32 15.446 32 16 L 32 32 C 32 32.554 32.446 33 33 33 C 33.554 33 34 32.554 34 32 L 34 16 C 34 15.446 33.554 15 33 15 z M 15 17 C 14.446 17 14 17.446 14 18 L 14 30 C 14 30.554 14.446 31 15 31 C 15.554 31 16 30.554 16 30 L 16 18 C 16 17.446 15.554 17 15 17 z M 27 19 C 26.446 19 26 19.446 26 20 L 26 28 C 26 28.554 26.446 29 27 29 C 27.554 29 28 28.554 28 28 L 28 20 C 28 19.446 27.554 19 27 19 z M 9 21 C 8.446 21 8 21.446 8 22 L 8 26 C 8 26.554 8.446 27 9 27 C 9.554 27 10 26.554 10 26 L 10 22 C 10 21.446 9.554 21 9 21 z M 39 21 C 38.446 21 38 21.446 38 22 L 38 26 C 38 26.554 38.446 27 39 27 C 39.554 27 40 26.554 40 26 L 40 22 C 40 21.446 39.554 21 39 21 z " />
  <rect
     style="opacity:0.5;fill:#ffffff;stroke-width:8;stroke-linecap:round;stroke-linejoin:round"
     id="rect288"
     width="2"
     height="6"
     x="38"
     y="21"
     ry="1" />
  <rect
     style="opacity:0.5;fill:#ffffff;stroke-width:8;stroke-linecap:round;stroke-linejoin:round"
     id="rect290"
     width="2"
     height="14"
     x="13.999999"
     y="17"
     ry="1" />
  <rect
     style="opacity:0.5;fill:#ffffff;stroke-width:8;stroke-linecap:round;stroke-linejoin:round"
     id="rect404"
     width="2"
     height="10"
     x="25.999998"
     y="19"
     ry="1" />
</svg>
