<?xml version="1.0" encoding="UTF-8" standalone="no"?>
<!-- Created with Inkscape (http://www.inkscape.org/) -->

<svg
   width="48"
   height="48"
   viewBox="0 0 48 48.000004"
   version="1.1"
   id="svg1"
   inkscape:version="1.4.2 (ebf0e940d0, 2025-05-08)"
   sodipodi:docname="system-software-update.svg"
   xmlns:inkscape="http://www.inkscape.org/namespaces/inkscape"
   xmlns:sodipodi="http://sodipodi.sourceforge.net/DTD/sodipodi-0.dtd"
   xmlns:xlink="http://www.w3.org/1999/xlink"
   xmlns="http://www.w3.org/2000/svg"
   xmlns:svg="http://www.w3.org/2000/svg">
  <sodipodi:namedview
     id="namedview1"
     pagecolor="#ffffff"
     bordercolor="#000000"
     borderopacity="0.25"
     inkscape:showpageshadow="2"
     inkscape:pageopacity="0.0"
     inkscape:pagecheckerboard="0"
     inkscape:deskcolor="#d1d1d1"
     inkscape:document-units="px"
     inkscape:zoom="16.833333"
     inkscape:cx="23.970298"
     inkscape:cy="23.970298"
     inkscape:window-width="1920"
     inkscape:window-height="1010"
     inkscape:window-x="0"
     inkscape:window-y="0"
     inkscape:window-maximized="1"
     inkscape:current-layer="svg1" />
  <defs
     id="defs1">
    <linearGradient
       inkscape:collect="always"
       xlink:href="#4852"
       id="linearGradient4"
       x1="16"
       y1="30"
       x2="16"
       y2="2"
       gradientUnits="userSpaceOnUse"
       gradientTransform="scale(1.5)" />
    <linearGradient
       inkscape:collect="always"
       id="4852">
      <stop
         style="stop-color:#272727;stop-opacity:1;"
         offset="0"
         id="stop14555" />
      <stop
         style="stop-color:#5d5d5d;stop-opacity:1;"
         offset="1"
         id="stop14557" />
    </linearGradient>
    <linearGradient
       inkscape:collect="always"
       id="linearGradient3788">
      <stop
         style="stop-color:#ffcf41;stop-opacity:1;"
         offset="0"
         id="stop3784" />
      <stop
         style="stop-color:#f98d00;stop-opacity:1;"
         offset="1"
         id="stop3786" />
    </linearGradient>
    <linearGradient
       inkscape:collect="always"
       xlink:href="#linearGradient3788"
       id="linearGradient2"
       x1="24"
       y1="3"
       x2="24"
       y2="45"
       gradientUnits="userSpaceOnUse" />
  </defs>
  <rect
     style="opacity:0.2;fill:#000000;stroke-width:3.675"
     id="rect1"
     width="42"
     height="42"
     x="3"
     y="4"
     ry="9" />
  <rect
     style="fill:url(#linearGradient4);stroke-width:1.5"
     id="rect2"
     width="42"
     height="42"
     x="3"
     y="3"
     ry="9" />
  <path
     id="path629"
     style="fill:url(#linearGradient2);stroke-linecap:round;stroke-linejoin:round"
     d="m 23.998046,38.000021 a 14,14 0 0 0 12.001953,-6.851562 l -1e-6,4.851562 2.000001,-10e-7 -1e-6,-5.999999 v -1.999999 h -2 l -0.710937,-1e-6 -5.289063,-1e-6 v 2.000001 h 4.34375 A 12,12 0 0 1 23.998045,36.00002 12,12 0 0 1 12.70703,28.000019 l -2.121095,10e-7 a 14,14 0 0 0 13.412111,10.000001 z m -13.41211,-17.998046 1.414063,-0.002 0.707029,1e-6 5.292971,-1e-6 v -1.999999 h -4.34375 A 12,12 0 0 1 23.998048,12.00193 12,12 0 0 1 35.308596,19.999977 H 37.41211 A 14,14 0 0 0 23.998048,9.9999789 14,14 0 0 0 12,16.847634 l 2e-6,-4.847655 -2.000001,-10e-7 v 6 l 1e-6,2.000001 0.585938,-1e-6 a 14,14 0 0 0 6e-6,0.002 z" />
</svg>
