<?xml version="1.0" encoding="UTF-8" standalone="no"?>
<!-- Created with Inkscape (http://www.inkscape.org/) -->

<svg
   width="48"
   height="48"
   viewBox="0 0 48 48.000004"
   version="1.1"
   id="svg1"
   inkscape:version="1.4.2 (ebf0e940d0, 2025-05-08)"
   sodipodi:docname="thingy.svg"
   xmlns:inkscape="http://www.inkscape.org/namespaces/inkscape"
   xmlns:sodipodi="http://sodipodi.sourceforge.net/DTD/sodipodi-0.dtd"
   xmlns:xlink="http://www.w3.org/1999/xlink"
   xmlns="http://www.w3.org/2000/svg"
   xmlns:svg="http://www.w3.org/2000/svg">
  <sodipodi:namedview
     id="namedview1"
     pagecolor="#ffffff"
     bordercolor="#000000"
     borderopacity="0.25"
     inkscape:showpageshadow="2"
     inkscape:pageopacity="0.0"
     inkscape:pagecheckerboard="0"
     inkscape:deskcolor="#d1d1d1"
     inkscape:document-units="px"
     inkscape:zoom="16.833333"
     inkscape:cx="23.970298"
     inkscape:cy="24"
     inkscape:window-width="1920"
     inkscape:window-height="1011"
     inkscape:window-x="0"
     inkscape:window-y="0"
     inkscape:window-maximized="1"
     inkscape:current-layer="svg1" />
  <defs
     id="defs1">
    <linearGradient
       inkscape:collect="always"
       xlink:href="#4852"
       id="linearGradient4"
       x1="16"
       y1="30"
       x2="16"
       y2="2"
       gradientUnits="userSpaceOnUse"
       gradientTransform="scale(1.5)" />
    <linearGradient
       inkscape:collect="always"
       id="4852">
      <stop
         style="stop-color:#272727;stop-opacity:1;"
         offset="0"
         id="stop14555" />
      <stop
         style="stop-color:#5d5d5d;stop-opacity:1;"
         offset="1"
         id="stop14557" />
    </linearGradient>
    <linearGradient
       inkscape:collect="always"
       id="linearGradient1778">
      <stop
         style="stop-color:#a42020;stop-opacity:1;"
         offset="0"
         id="stop1774" />
      <stop
         style="stop-color:#de6060;stop-opacity:1;"
         offset="1"
         id="stop1776" />
    </linearGradient>
    <linearGradient
       inkscape:collect="always"
       xlink:href="#linearGradient1778"
       id="linearGradient2"
       x1="24"
       y1="45"
       x2="24"
       y2="3"
       gradientUnits="userSpaceOnUse" />
  </defs>
  <rect
     style="opacity:0.2;fill:#000000;stroke-width:3.675"
     id="rect1"
     width="42"
     height="42"
     x="3"
     y="4"
     ry="9" />
  <rect
     style="fill:url(#linearGradient4);stroke-width:1.5"
     id="rect2"
     width="42"
     height="42"
     x="3"
     y="3"
     ry="9" />
  <path
     d="M 13.000044,14.000094 C 11.892023,14.000094 11,14.892117 11,16.000138 v 7.000157 c 0,0.03032 0.0026,0.05984 0.004,0.08984 -0.02266,0.538903 0.170762,1.084853 0.583997,1.49808 L 22.41213,35.41346 c 0.783458,0.783528 2.044699,0.783492 2.828189,0 l 7.172034,-7.172034 c 0.78349,-0.78349 0.78349,-2.044697 0,-2.828189 L 21.588126,14.587997 C 21.174899,14.17477 20.628949,13.981342 20.090046,14.004 20.060066,14.0027 20.030526,14 20.000206,14 Z m 10.828369,0 9.997938,9.999053 c 1.54226,1.542405 1.542335,4.114043 0,5.656377 l -5.586062,5.586061 0.171882,0.171882 c 0.783492,0.783492 2.044696,0.783491 2.828188,0 l 7.172035,-7.172034 c 0.783492,-0.78349 0.783451,-2.044654 0,-2.828187 L 27.588265,14.587997 C 27.175059,14.174749 26.629083,13.981342 26.090183,14.004 26.060183,14.0027 26.030663,14 26.000343,14 Z m -8.828325,2.000044 c 1.104596,0 2.000047,0.895449 2.000047,2.000044 0,1.104596 -0.895451,2.000047 -2.000047,2.000047 -1.104595,0 -2.000044,-0.895451 -2.000044,-2.000047 0,-1.104593 0.895451,-2.000044 2.000044,-2.000044 z"
     style="fill:url(#linearGradient2);stroke-width:2.00004;stroke-linecap:square;stroke-linejoin:round"
     id="path4193"
     sodipodi:nodetypes="cssccccscccccccscsscsscccsssss" />
</svg>
