<?xml version="1.0" encoding="UTF-8" standalone="no"?>
<!-- Created with Inkscape (http://www.inkscape.org/) -->

<svg
   width="48"
   height="48"
   viewBox="0 0 48 48.000004"
   version="1.1"
   id="svg1"
   inkscape:version="1.4.2 (ebf0e940d0, 2025-05-08)"
   sodipodi:docname="virt-manager.svg"
   xmlns:inkscape="http://www.inkscape.org/namespaces/inkscape"
   xmlns:sodipodi="http://sodipodi.sourceforge.net/DTD/sodipodi-0.dtd"
   xmlns:xlink="http://www.w3.org/1999/xlink"
   xmlns="http://www.w3.org/2000/svg"
   xmlns:svg="http://www.w3.org/2000/svg">
  <sodipodi:namedview
     id="namedview1"
     pagecolor="#ffffff"
     bordercolor="#000000"
     borderopacity="0.25"
     inkscape:showpageshadow="2"
     inkscape:pageopacity="0.0"
     inkscape:pagecheckerboard="0"
     inkscape:deskcolor="#d1d1d1"
     inkscape:document-units="px"
     inkscape:zoom="16.833333"
     inkscape:cx="23.970297"
     inkscape:cy="24"
     inkscape:window-width="1920"
     inkscape:window-height="1011"
     inkscape:window-x="0"
     inkscape:window-y="0"
     inkscape:window-maximized="1"
     inkscape:current-layer="svg1" />
  <defs
     id="defs1">
    <linearGradient
       inkscape:collect="always"
       xlink:href="#4852"
       id="linearGradient4"
       x1="16"
       y1="30"
       x2="16"
       y2="2"
       gradientUnits="userSpaceOnUse"
       gradientTransform="scale(1.5)" />
    <linearGradient
       inkscape:collect="always"
       id="4852">
      <stop
         style="stop-color:#272727;stop-opacity:1;"
         offset="0"
         id="stop14555" />
      <stop
         style="stop-color:#5d5d5d;stop-opacity:1;"
         offset="1"
         id="stop14557" />
    </linearGradient>
  </defs>
  <rect
     style="opacity:0.2;fill:#000000;stroke-width:3.675"
     id="rect1"
     width="42"
     height="42"
     x="3"
     y="4"
     ry="9" />
  <rect
     style="fill:url(#linearGradient4);stroke-width:1.5"
     id="rect2"
     width="42"
     height="42"
     x="3"
     y="3"
     ry="9" />
  <path
     id="path4"
     style="fill:#ececec;stroke-width:2"
     d="m 33,18 -4.800782,12 h 3.601564 l 3,-7.199218 3,7.199218 h 3.597656 L 36.601562,18 Z" />
  <path
     style="fill:#909198;stroke-width:2"
     d="M 24.6,30 29.4,18 H 33 l 4.8,12 H 34.2 L 31.199514,22.8 28.2,30 h -3.599758 z"
     id="path6" />
  <path
     style="fill:#ececec;stroke-width:2"
     d="M 18.6,30 23.4,18 H 27 l 4.8,12 H 28.2 L 25.199514,22.8 22.2,30 h -3.599758 z"
     id="path8" />
  <path
     style="fill:#909198;stroke-width:2"
     d="m 15,30 4.8,-12 h 3.6 l 4.8,12 H 24.6 L 21.599514,22.8 18.6,30 h -3.599758 z"
     id="path10" />
  <path
     style="fill:#a53655;stroke-width:2"
     d="m 6.6,18 4.8,12 H 15 L 19.8,18 H 16.2 L 13.199514,25.2 10.2,18 H 6.6002424 Z"
     id="path12" />
</svg>
