<?xml version="1.0" encoding="UTF-8" standalone="no"?>
<!-- Created with Inkscape (http://www.inkscape.org/) -->

<svg
   width="48"
   height="48"
   viewBox="0 0 48 48.000004"
   version="1.1"
   id="svg1"
   inkscape:version="1.4.2 (ebf0e940d0, 2025-05-08)"
   sodipodi:docname="yast-control-center.svg"
   xmlns:inkscape="http://www.inkscape.org/namespaces/inkscape"
   xmlns:sodipodi="http://sodipodi.sourceforge.net/DTD/sodipodi-0.dtd"
   xmlns:xlink="http://www.w3.org/1999/xlink"
   xmlns="http://www.w3.org/2000/svg"
   xmlns:svg="http://www.w3.org/2000/svg">
  <sodipodi:namedview
     id="namedview1"
     pagecolor="#ffffff"
     bordercolor="#000000"
     borderopacity="0.25"
     inkscape:showpageshadow="2"
     inkscape:pageopacity="0.0"
     inkscape:pagecheckerboard="0"
     inkscape:deskcolor="#d1d1d1"
     inkscape:document-units="px"
     inkscape:zoom="16.375"
     inkscape:cx="23.969466"
     inkscape:cy="24"
     inkscape:window-width="1920"
     inkscape:window-height="1011"
     inkscape:window-x="0"
     inkscape:window-y="0"
     inkscape:window-maximized="1"
     inkscape:current-layer="svg1" />
  <defs
     id="defs1">
    <linearGradient
       inkscape:collect="always"
       xlink:href="#4852"
       id="linearGradient4"
       x1="16"
       y1="30"
       x2="16"
       y2="2"
       gradientUnits="userSpaceOnUse"
       gradientTransform="scale(1.5)" />
    <linearGradient
       inkscape:collect="always"
       id="4852">
      <stop
         style="stop-color:#272727;stop-opacity:1;"
         offset="0"
         id="stop14555" />
      <stop
         style="stop-color:#5d5d5d;stop-opacity:1;"
         offset="1"
         id="stop14557" />
    </linearGradient>
    <linearGradient
       inkscape:collect="always"
       xlink:href="#linearGradient920"
       id="linearGradient4-7"
       x1="10"
       y1="19.5"
       x2="10"
       y2="-1.5"
       gradientUnits="userSpaceOnUse"
       gradientTransform="matrix(2,0,0,2,4,6)" />
    <linearGradient
       inkscape:collect="always"
       id="linearGradient920">
      <stop
         style="stop-color:#82bf39;stop-opacity:1;"
         offset="0"
         id="stop916" />
      <stop
         style="stop-color:#bada82;stop-opacity:1;"
         offset="1"
         id="stop918" />
    </linearGradient>
  </defs>
  <rect
     style="opacity:0.2;fill:#000000;stroke-width:3.675"
     id="rect1"
     width="42"
     height="42"
     x="3"
     y="4"
     ry="9" />
  <rect
     style="fill:url(#linearGradient4);stroke-width:1.5"
     id="rect2"
     width="42"
     height="42"
     x="3"
     y="3"
     ry="9" />
  <rect
     style="fill:url(#linearGradient4-7);stroke-width:2"
     id="rect3"
     width="28"
     height="4"
     x="10"
     y="14"
     ry="2" />
  <rect
     style="opacity:0.4;fill:#ffffff;stroke-width:2"
     id="rect4"
     width="28"
     height="4"
     x="10"
     y="30"
     ry="2" />
  <path
     id="path1"
     style="opacity:0.15;fill:#000000;stroke-width:1.66667"
     d="m 34,11 c -2.761423,0 -5,2.238577 -5,5 0,2.761423 2.238577,5 5,5 2.761423,0 5,-2.238577 5,-5 0,-2.761423 -2.238577,-5 -5,-5 z M 14,27 c -2.761423,0 -5,2.238577 -5,5 0,2.761423 2.238577,5 5,5 2.761423,0 5,-2.238577 5,-5 0,-2.761423 -2.238577,-5 -5,-5 z" />
  <path
     id="path2"
     style="fill:#f9f9f9;fill-opacity:1;stroke-width:8;stroke-linecap:round;stroke-linejoin:round"
     d="m 34,12 c -2.20914,0 -4,1.790862 -4,4 0,2.20914 1.79086,4 4,4 2.209138,0 4,-1.79086 4,-4 0,-2.209138 -1.790862,-4 -4,-4 z M 14,28 c -2.209138,0 -4,1.79086 -4,4 0,2.209138 1.790862,4 4,4 2.209138,0 4,-1.790862 4,-4 0,-2.20914 -1.790862,-4 -4,-4 z" />
</svg>
