<?xml version="1.0" encoding="UTF-8" standalone="no"?>
<!-- Created with Inkscape (http://www.inkscape.org/) -->

<svg
   width="16"
   height="16"
   viewBox="0 0 16 16.000001"
   version="1.1"
   id="svg1"
   inkscape:version="1.4.2 (ebf0e940d0, 2025-05-08)"
   sodipodi:docname="gmail.svg"
   xmlns:inkscape="http://www.inkscape.org/namespaces/inkscape"
   xmlns:sodipodi="http://sodipodi.sourceforge.net/DTD/sodipodi-0.dtd"
   xmlns:xlink="http://www.w3.org/1999/xlink"
   xmlns="http://www.w3.org/2000/svg"
   xmlns:svg="http://www.w3.org/2000/svg">
  <sodipodi:namedview
     id="namedview1"
     pagecolor="#ffffff"
     bordercolor="#000000"
     borderopacity="0.25"
     inkscape:showpageshadow="2"
     inkscape:pageopacity="0.0"
     inkscape:pagecheckerboard="0"
     inkscape:deskcolor="#d1d1d1"
     inkscape:document-units="px"
     inkscape:zoom="49.6875"
     inkscape:cx="8"
     inkscape:cy="8"
     inkscape:window-width="1920"
     inkscape:window-height="1010"
     inkscape:window-x="0"
     inkscape:window-y="0"
     inkscape:window-maximized="1"
     inkscape:current-layer="svg1" />
  <defs
     id="defs1">
    <linearGradient
       inkscape:collect="always"
       xlink:href="#4852"
       id="linearGradient2"
       x1="16"
       y1="15.735369"
       x2="16"
       y2="0"
       gradientUnits="userSpaceOnUse" />
    <linearGradient
       inkscape:collect="always"
       id="4852">
      <stop
         style="stop-color:#272727;stop-opacity:1;"
         offset="0"
         id="stop14555" />
      <stop
         style="stop-color:#5d5d5d;stop-opacity:1;"
         offset="1"
         id="stop14557" />
    </linearGradient>
  </defs>
  <rect
     style="fill:url(#linearGradient2)"
     id="rect1"
     width="16"
     height="16"
     x="0"
     y="0"
     ry="4" />
  <path
     id="path523"
     style="fill:#4285f4;stroke-width:0.25"
     d="m 3,5.433594 v 5.884585 c 0,0.376612 0.3018675,0.681641 0.6748045,0.681641 H 5 V 6.948242 Z"
     sodipodi:nodetypes="cssccc" />
  <path
     id="path391"
     style="fill:#34a853;stroke-width:0.25"
     d="m 13,5.433594 -2,1.514648 v 5.051578 h 1.325197 C 12.698133,11.99982 13,11.69479 13,11.318179 Z"
     sodipodi:nodetypes="cccssc" />
  <path
     d="M 4.6200005,6.977948 V 4.2063325 L 8,6.727273 11.380001,4.2063325 V 6.977948 L 8,9.499612 Z"
     style="fill:#ea4335;stroke-width:0.25"
     id="path457"
     sodipodi:nodetypes="ccccccc" />
  <path
     id="path424"
     style="fill:#fbbc04;stroke-width:0.25"
     d="m 11.9834,4 c -0.205298,4.5e-6 -0.41573,0.063867 -0.603517,0.2060545 L 11,4.4941405 V 7.265625 L 13,5.750976 V 5.024414 C 13,4.418935 12.508046,3.9999885 11.9834,4 Z" />
  <path
     id="path490"
     style="fill:#c5221f;stroke-width:0.25"
     d="M 4.0166015,4 C 3.491954,3.9999885 3,4.418935 3,5.024414 V 5.751387 L 5,7.266035 V 4.4941405 L 4.6201169,4.2060545 C 4.4323305,4.0638665 4.2218985,4.0000045 4.0166015,4 Z"
     sodipodi:nodetypes="ssccccs" />
</svg>
