<?xml version="1.0" encoding="UTF-8" standalone="no"?>
<!-- Created with Inkscape (http://www.inkscape.org/) -->

<svg
   width="16"
   height="16"
   viewBox="0 0 16 16.000001"
   version="1.1"
   id="svg1"
   inkscape:version="1.4.2 (ebf0e940d0, 2025-05-08)"
   sodipodi:docname="gnome-contacts.svg"
   xmlns:inkscape="http://www.inkscape.org/namespaces/inkscape"
   xmlns:sodipodi="http://sodipodi.sourceforge.net/DTD/sodipodi-0.dtd"
   xmlns:xlink="http://www.w3.org/1999/xlink"
   xmlns="http://www.w3.org/2000/svg"
   xmlns:svg="http://www.w3.org/2000/svg">
  <sodipodi:namedview
     id="namedview1"
     pagecolor="#ffffff"
     bordercolor="#000000"
     borderopacity="0.25"
     inkscape:showpageshadow="2"
     inkscape:pageopacity="0.0"
     inkscape:pagecheckerboard="0"
     inkscape:deskcolor="#d1d1d1"
     inkscape:document-units="px"
     inkscape:zoom="49.25"
     inkscape:cx="7.9898477"
     inkscape:cy="8"
     inkscape:window-width="1920"
     inkscape:window-height="1011"
     inkscape:window-x="0"
     inkscape:window-y="0"
     inkscape:window-maximized="1"
     inkscape:current-layer="svg1" />
  <defs
     id="defs1">
    <linearGradient
       inkscape:collect="always"
       xlink:href="#4852"
       id="linearGradient2"
       x1="16"
       y1="15.735369"
       x2="16"
       y2="0"
       gradientUnits="userSpaceOnUse" />
    <linearGradient
       inkscape:collect="always"
       id="4852">
      <stop
         style="stop-color:#272727;stop-opacity:1;"
         offset="0"
         id="stop14555" />
      <stop
         style="stop-color:#5d5d5d;stop-opacity:1;"
         offset="1"
         id="stop14557" />
    </linearGradient>
  </defs>
  <rect
     style="fill:url(#linearGradient2)"
     id="rect1"
     width="16"
     height="16"
     x="0"
     y="0"
     ry="4" />
  <path
     id="rect294"
     style="fill:#8ace64;fill-opacity:1;stroke-width:0.948683;stroke-linecap:round;stroke-linejoin:round"
     d="M 13,0.125 V 11.5 h 3 V 4 C 16,2.1295461 14.728989,0.56686338 13,0.125 Z" />
  <path
     id="rect956"
     style="fill:#f44d4d;fill-opacity:1;stroke-width:0.908295;stroke-linecap:round;stroke-linejoin:round"
     d="m 13,5 v 7 h 3 V 5 Z" />
  <path
     id="rect1736"
     style="fill:#ffbc42;fill-opacity:1;stroke-width:0.858117;stroke-linecap:round;stroke-linejoin:round"
     d="m 13,10 v 5.875 C 14.728989,15.433137 16,13.870454 16,12 v -2 z" />
  <path
     id="rect4024"
     style="opacity:0.2;fill:#000000;fill-opacity:1;stroke-width:1.09545;stroke-linecap:round;stroke-linejoin:round"
     d="m 13,5 v 1 h 3 V 5 Z m 0,5 v 1 h 3 v -1 z"
     sodipodi:nodetypes="cccccccccc" />
  <path
     d="M 7,4 C 4.790861,4 3,5.790861 3,8 c 0,2.209139 1.790861,4 4,4 h 2.5 c 0.2769999,0 0.4999999,-0.223 0.4999999,-0.5 0,-0.277 -0.223,-0.5 -0.4999999,-0.5 H 7 C 5.3431458,11 4.0000001,9.6568542 4,8 c 1e-7,-1.6568542 1.3431458,-2.9999999 3,-3 1.6568542,1e-7 2.9999999,1.3431458 2.9999999,3 V 8.5 C 9.9999999,8.7769994 9.7769989,9 9.5,9 9.2230006,9 9,8.7769994 9,8.5 V 8 C 9,6.8954305 8.1045695,6 7,6 5.8954305,6 5,6.8954305 5,8 5,9.1045695 5.8954305,10 7,10 7.5018444,9.9990022 7.9849739,9.8093752 8.3535156,9.4687502 8.6282459,9.7938962 9.039056,10 9.5,10 10.330997,10 11,9.3309976 11,8.5 V 8 C 11,5.790861 9.209139,4 7,4 Z M 7,7 C 7.5522847,7 8,7.4477153 8,8 8,8.5522847 7.5522847,9 7,9 6.4477153,9 6,8.5522847 6,8 6,7.4477153 6.4477153,7 7,7 Z"
     style="fill:#ffffff;fill-opacity:1;stroke-linecap:round;stroke-linejoin:round"
     id="path4535" />
</svg>
