<?xml version="1.0" encoding="UTF-8" standalone="no"?>
<!-- Created with Inkscape (http://www.inkscape.org/) -->

<svg
   width="16"
   height="16"
   viewBox="0 0 16 16.000001"
   version="1.1"
   id="svg1"
   inkscape:version="1.4.2 (ebf0e940d0, 2025-05-08)"
   sodipodi:docname="gparted.svg"
   xmlns:inkscape="http://www.inkscape.org/namespaces/inkscape"
   xmlns:sodipodi="http://sodipodi.sourceforge.net/DTD/sodipodi-0.dtd"
   xmlns:xlink="http://www.w3.org/1999/xlink"
   xmlns="http://www.w3.org/2000/svg"
   xmlns:svg="http://www.w3.org/2000/svg">
  <sodipodi:namedview
     id="namedview1"
     pagecolor="#ffffff"
     bordercolor="#000000"
     borderopacity="0.25"
     inkscape:showpageshadow="2"
     inkscape:pageopacity="0.0"
     inkscape:pagecheckerboard="0"
     inkscape:deskcolor="#d1d1d1"
     inkscape:document-units="px"
     inkscape:zoom="49.125"
     inkscape:cx="7.9898219"
     inkscape:cy="8"
     inkscape:window-width="1920"
     inkscape:window-height="1011"
     inkscape:window-x="0"
     inkscape:window-y="0"
     inkscape:window-maximized="1"
     inkscape:current-layer="svg1" />
  <defs
     id="defs1">
    <linearGradient
       inkscape:collect="always"
       xlink:href="#4852"
       id="linearGradient2"
       x1="16"
       y1="15.735369"
       x2="16"
       y2="0"
       gradientUnits="userSpaceOnUse" />
    <linearGradient
       inkscape:collect="always"
       id="4852">
      <stop
         style="stop-color:#272727;stop-opacity:1;"
         offset="0"
         id="stop14555" />
      <stop
         style="stop-color:#5d5d5d;stop-opacity:1;"
         offset="1"
         id="stop14557" />
    </linearGradient>
    <linearGradient
       inkscape:collect="always"
       id="linearGradient1273">
      <stop
         style="stop-color:#a1a1a1;stop-opacity:1;"
         offset="0"
         id="stop1269" />
      <stop
         style="stop-color:#dedede;stop-opacity:1;"
         offset="1"
         id="stop1271" />
    </linearGradient>
    <linearGradient
       inkscape:collect="always"
       xlink:href="#linearGradient1865"
       id="linearGradient1867"
       x1="24"
       y1="9"
       x2="34.606602"
       y2="34.606602"
       gradientUnits="userSpaceOnUse"
       gradientTransform="scale(0.33333333)" />
    <linearGradient
       inkscape:collect="always"
       id="linearGradient1865">
      <stop
         style="stop-color:#81b037;stop-opacity:1;"
         offset="0"
         id="stop1861" />
      <stop
         style="stop-color:#a5c84c;stop-opacity:1;"
         offset="1"
         id="stop1863" />
    </linearGradient>
    <linearGradient
       inkscape:collect="always"
       xlink:href="#linearGradient1946"
       id="linearGradient1125"
       x1="24"
       y1="24"
       x2="34.606602"
       y2="38.959782"
       gradientUnits="userSpaceOnUse"
       gradientTransform="scale(0.33333333)" />
    <linearGradient
       inkscape:collect="always"
       id="linearGradient1946">
      <stop
         style="stop-color:#c21010;stop-opacity:1;"
         offset="0"
         id="stop1942" />
      <stop
         style="stop-color:#d26f6f;stop-opacity:1;"
         offset="1"
         id="stop1944" />
    </linearGradient>
    <linearGradient
       inkscape:collect="always"
       xlink:href="#linearGradient1857"
       id="linearGradient1859"
       x1="13.387063"
       y1="13.399749"
       x2="20.292116"
       y2="24"
       gradientUnits="userSpaceOnUse"
       gradientTransform="scale(0.33333333)" />
    <linearGradient
       inkscape:collect="always"
       id="linearGradient1857">
      <stop
         style="stop-color:#e29731;stop-opacity:1;"
         offset="0"
         id="stop1853" />
      <stop
         style="stop-color:#e2c531;stop-opacity:1;"
         offset="1"
         id="stop1855" />
    </linearGradient>
    <linearGradient
       inkscape:collect="always"
       xlink:href="#linearGradient1273"
       id="linearGradient3"
       x1="8"
       y1="16"
       x2="8"
       y2="0"
       gradientUnits="userSpaceOnUse" />
    <linearGradient
       inkscape:collect="always"
       xlink:href="#linearGradient1273"
       id="linearGradient5"
       x1="8"
       y1="16"
       x2="8"
       y2="0"
       gradientUnits="userSpaceOnUse" />
  </defs>
  <rect
     style="fill:url(#linearGradient2)"
     id="rect1"
     width="16"
     height="16"
     x="0"
     y="0"
     ry="4" />
  <path
     id="path346"
     style="opacity:0.5;fill:url(#linearGradient5);stroke-linecap:round;stroke-linejoin:round;paint-order:stroke fill markers"
     d="M 8,3 A 5,5 0 0 0 3,8 5,5 0 0 0 8,13 5,5 0 0 0 13,8 5,5 0 0 0 8,3 Z M 8,6 A 2,2 0 0 1 10,8 2,2 0 0 1 8,10 2,2 0 0 1 6,8 2,2 0 0 1 8,6 Z" />
  <path
     id="path347"
     style="fill:url(#linearGradient1867);fill-opacity:1;stroke-width:0.333333;stroke-linecap:round;stroke-linejoin:round;paint-order:stroke fill markers"
     d="M 8,3 A 5,5 0 0 0 7.3300781,3.046875 c -0.022159,0.00303 -0.044305,0.00644 -0.066406,0.00977 a 5,5 0 0 0 -0.00195,0 5,5 0 0 0 -0.6308594,0.1386719 c -0.021954,0.00625 -0.044546,0.011037 -0.066406,0.017578 a 5,5 0 0 0 -0.5976598,0.222652 c -0.02536,0.01124 -0.051001,0.021543 -0.076172,0.033203 a 5,5 0 0 0 -0.5722656,0.3125 c -0.012357,0.00783 -0.024818,0.015499 -0.037109,0.023437 A 5,5 0 0 0 4.734375,4.2148438 5,5 0 0 0 4.7207031,4.2265625 5,5 0 0 0 4.46875,4.4785156 L 5.5,6.7226562 6.2226562,7.0917969 A 2,2 0 0 1 8,6 2,2 0 0 1 10,8 2,2 0 0 1 8.8339844,9.8144531 l 0.3125,0.6796879 2.3769536,1.035156 a 5,5 0 0 0 0.251953,-0.251953 c 0.0012,-0.0014 0.0027,-0.0025 0.0039,-0.0039 a 5,5 0 0 0 0.0039,-0.0059 5,5 0 0 0 0.416016,-0.554687 c 0.0022,-0.0035 0.0056,-0.0063 0.0078,-0.0098 a 5,5 0 0 0 0.0078,-0.01367 5,5 0 0 0 0.320312,-0.587891 c 0.01017,-0.02205 0.01945,-0.04421 0.0293,-0.06641 a 5,5 0 0 0 0.222656,-0.5996091 c 0.0065,-0.021843 0.01135,-0.044469 0.01758,-0.066406 a 5,5 0 0 0 0.138671,-0.6308594 c 9.6e-5,-6.376e-4 -9.5e-5,-0.00132 0,-0.00195 0.0033,-0.022091 0.0067,-0.044258 0.0098,-0.066406 A 5,5 0 0 0 13,8 5,5 0 0 0 12.994141,7.7421875 c -0.004,-0.078002 -0.01009,-0.1554031 -0.01758,-0.2324219 a 5,5 0 0 0 -0.002,-0.021484 5,5 0 0 0 -0.07031,-0.4628906 5,5 0 0 0 -0.05469,-0.2402344 5,5 0 0 0 -0.06445,-0.2363281 5,5 0 0 0 -0.166015,-0.4628906 5,5 0 0 0 -0.09961,-0.2246094 5,5 0 0 0 -0.0957,-0.1894531 c -0.005,-0.00953 -0.0086,-0.019806 -0.01367,-0.029297 a 5,5 0 0 0 -0.01367,-0.025391 c -0.03443,-0.063383 -0.07037,-0.1258096 -0.107422,-0.1875 a 5,5 0 0 0 -0.01367,-0.021484 c -0.03806,-0.062692 -0.07642,-0.124703 -0.117151,-0.1855472 a 5,5 0 0 0 -0.01172,-0.017578 c -0.04181,-0.061888 -0.08639,-0.1237204 -0.130859,-0.1835937 a 5,5 0 0 0 -0.0098,-0.013672 C 11.960072,4.9465872 11.913717,4.887136 11.865234,4.828125 a 5,5 0 0 0 -0.0078,-0.00781 C 11.807645,4.7599966 11.75758,4.700471 11.705078,4.6425781 a 5,5 0 0 0 -0.0039,-0.00391 C 11.64737,4.5794762 11.591708,4.5213951 11.535156,4.4648438 A 5,5 0 0 0 11.361328,4.2988281 c -0.0014,-0.00124 -0.0025,-0.00267 -0.0039,-0.00391 a 5,5 0 0 0 -0.17774,-0.15234 c -0.0028,-0.00234 -0.005,-0.00548 -0.0078,-0.00781 a 5,5 0 0 0 -0.179687,-0.140625 c -0.0045,-0.00333 -0.0092,-0.00645 -0.01367,-0.00977 A 5,5 0 0 0 10.794922,3.8535156 c -0.0058,-0.00394 -0.01172,-0.0078 -0.01758,-0.011719 A 5,5 0 0 0 10.591797,3.7246094 c -0.0072,-0.0044 -0.01422,-0.00931 -0.02149,-0.013672 a 5,5 0 0 0 -0.1875,-0.1074219 c -0.0084,-0.00459 -0.01692,-0.00913 -0.02539,-0.013672 A 5,5 0 0 0 10.328125,3.5761719 5,5 0 0 0 10.138672,3.4804688 5,5 0 0 0 9.9140625,3.3808594 5,5 0 0 0 9.4511719,3.2148438 5,5 0 0 0 9.2148438,3.1503906 5,5 0 0 0 8.9746094,3.0957031 5,5 0 0 0 8.5117188,3.0253906 c -0.00712,-7.229e-4 -0.014357,-0.00126 -0.021484,-0.00195 A 5,5 0 0 0 8.2578125,3.0058594 c -0.00387,-1.963e-4 -0.00784,1.874e-4 -0.011719,0 A 5,5 0 0 0 8,3 Z" />
  <path
     id="path536"
     style="fill:url(#linearGradient1125);fill-opacity:1;stroke-width:0.333333;stroke-linecap:round;stroke-linejoin:round;paint-order:stroke fill markers"
     d="M 9.40625,9.40625 A 2,2 0 0 1 8,10 v 3 A 5,5 0 0 0 8.7109375,12.94922 5,5 0 0 0 9.390625,12.800782 c 0.00572,-0.0017 0.01186,-0.0022 0.017578,-0.0039 a 5,5 0 0 0 0.011719,-0.0039 5,5 0 0 0 0.615234,-0.228516 c 0.02421,-0.01084 0.04822,-0.02198 0.07227,-0.0332 a 5,5 0 0 0 0.544922,-0.296875 c 0.02924,-0.01832 0.05901,-0.03576 0.08789,-0.05469 a 5,5 0 0 0 0.503907,-0.378907 c 0.01752,-0.01489 0.0354,-0.02979 0.05273,-0.04492 a 5,5 0 0 0 0.230469,-0.228515 z" />
  <path
     id="path538"
     style="fill:url(#linearGradient1859);fill-opacity:1;stroke-width:0.333333;stroke-linecap:round;stroke-linejoin:round;paint-order:stroke fill markers"
     d="M 4.4726562,4.4746094 A 5,5 0 0 0 4.2207031,4.7265625 5,5 0 0 0 3.0507812,7.2890625 5,5 0 0 0 3,8 H 6 A 2,2 0 0 1 6.59375,6.5957031 Z" />
  <path
     id="path400"
     style="fill:url(#linearGradient3);stroke-width:2;stroke-linecap:round;stroke-linejoin:round;paint-order:stroke fill markers"
     d="m 11.499832,13.866027 c 0.478295,0.276141 1.089883,0.112266 1.366025,-0.366026 0.276144,-0.478293 0.112269,-1.089883 -0.366024,-1.366026 L 7.6697053,10.5 Z"
     sodipodi:nodetypes="csccc" />
</svg>
