<?xml version="1.0" encoding="UTF-8" standalone="no"?>
<!-- Created with Inkscape (http://www.inkscape.org/) -->

<svg
   width="16"
   height="16"
   viewBox="0 0 16 16.000001"
   version="1.1"
   id="svg1"
   inkscape:version="1.4.2 (ebf0e940d0, 2025-05-08)"
   sodipodi:docname="kmines.svg"
   xmlns:inkscape="http://www.inkscape.org/namespaces/inkscape"
   xmlns:sodipodi="http://sodipodi.sourceforge.net/DTD/sodipodi-0.dtd"
   xmlns:xlink="http://www.w3.org/1999/xlink"
   xmlns="http://www.w3.org/2000/svg"
   xmlns:svg="http://www.w3.org/2000/svg">
  <sodipodi:namedview
     id="namedview1"
     pagecolor="#ffffff"
     bordercolor="#000000"
     borderopacity="0.25"
     inkscape:showpageshadow="2"
     inkscape:pageopacity="0.0"
     inkscape:pagecheckerboard="0"
     inkscape:deskcolor="#d1d1d1"
     inkscape:document-units="px"
     inkscape:zoom="49.6875"
     inkscape:cx="8"
     inkscape:cy="8"
     inkscape:window-width="1920"
     inkscape:window-height="1010"
     inkscape:window-x="0"
     inkscape:window-y="0"
     inkscape:window-maximized="1"
     inkscape:current-layer="svg1" />
  <defs
     id="defs1">
    <linearGradient
       id="linearGradient5"
       inkscape:collect="always">
      <stop
         style="stop-color:#cfcfcf;stop-opacity:1;"
         offset="0"
         id="stop4" />
      <stop
         style="stop-color:#f8f8f8;stop-opacity:1;"
         offset="1"
         id="stop5" />
    </linearGradient>
    <linearGradient
       inkscape:collect="always"
       xlink:href="#4852"
       id="linearGradient2"
       x1="16"
       y1="15.735369"
       x2="16"
       y2="0"
       gradientUnits="userSpaceOnUse" />
    <linearGradient
       inkscape:collect="always"
       id="4852">
      <stop
         style="stop-color:#272727;stop-opacity:1;"
         offset="0"
         id="stop14555" />
      <stop
         style="stop-color:#5d5d5d;stop-opacity:1;"
         offset="1"
         id="stop14557" />
    </linearGradient>
    <linearGradient
       inkscape:collect="always"
       xlink:href="#linearGradient5"
       id="linearGradient1870"
       x1="8"
       y1="14.5"
       x2="8"
       y2="2"
       gradientUnits="userSpaceOnUse"
       gradientTransform="translate(1.5724123e-4)" />
  </defs>
  <rect
     style="fill:url(#linearGradient2)"
     id="rect1"
     width="16"
     height="16"
     x="0"
     y="0"
     ry="4" />
  <path
     id="path344"
     style="fill:url(#linearGradient1870);fill-opacity:1;stroke-width:5;stroke-linecap:round;stroke-linejoin:round"
     d="m 8.0001572,2 c -0.5539976,0 -1,0.4460024 -1,1 v 1 c 0,0.5539976 0.4460024,1 1,1 0.5539976,0 1,-0.4460024 1,-1 V 3 c 0,-0.5539976 -0.4460024,-1 -1,-1 z M 9.472813,3.2226562 C 9.489543,3.3126612 9.500153,3.4050041 9.500153,3.5 V 4 c 0,0.8309952 -0.6690046,1.5 -1.4999998,1.5 -0.8309952,0 -1.5,-0.6690048 -1.5,-1.5 V 3.5 c 0,-0.093662 0.011072,-0.184617 0.027344,-0.2734375 A 5,5 0 0 0 4.4591416,4.4882812 c 0.060287,0.024971 0.1196611,0.054362 0.1777344,0.087891 l 0.4335937,0.25 C 5.7901322,5.2416695 6.0347958,6.1553371 5.6192978,6.875 5.2038008,7.5946629 4.2901322,7.8393257 3.5704697,7.4238281 l -0.4335937,-0.25 C 3.1183479,7.163131 3.1020368,7.1500176 3.0841416,7.1386719 A 5,5 0 0 0 3.0001572,8 5,5 0 0 0 3.1798447,9.3007812 L 3.5704697,9.0761719 C 3.7953644,8.9463288 4.0377644,8.8815282 4.2794541,8.875 c 0.5317167,-0.014362 1.0541892,0.2552318 1.3398437,0.75 0.4154976,0.719661 0.1708347,1.633334 -0.5488281,2.048828 l -0.2734375,0.158203 a 5,5 0 0 0 1.703125,0.931641 V 12.5 c 0,-0.830994 0.6690048,-1.5 1.5,-1.5 0.8309952,0 1.4999998,0.669006 1.4999998,1.5 v 0.263672 a 5,5 0 0 0 1.703125,-0.931641 L 10.929845,11.673828 C 10.210179,11.258334 9.96552,10.344661 10.381016,9.625 c 0.285656,-0.4947682 0.808129,-0.7643621 1.339844,-0.75 0.241691,0.00653 0.484089,0.071329 0.708985,0.2011719 l 0.390624,0.2246093 A 5,5 0 0 0 13.000157,8 5,5 0 0 0 12.923985,7.1347656 c -0.02025,0.012998 -0.03948,0.026901 -0.06055,0.039063 l -0.433593,0.25 C 11.710179,7.8393257 10.796515,7.5946629 10.381016,6.875 9.965521,6.1553371 10.210179,5.2416695 10.929845,4.8261719 l 0.433593,-0.25 c 0.06177,-0.035664 0.125204,-0.065807 0.189453,-0.091797 A 5,5 0 0 0 9.472813,3.2226562 Z M 3.480626,4.625 C 3.126147,4.6154252 2.7784847,4.7951538 2.5880478,5.125 2.3110497,5.6047761 2.4735057,6.2132356 2.9532822,6.4902344 l 0.8671875,0.5 C 4.3002462,7.2672332 4.908706,7.1047761 5.1857041,6.625 5.4627032,6.1452239 5.3002462,5.5367644 4.8204697,5.2597656 l -0.8671875,-0.5 C 3.8033519,4.6732035 3.6417526,4.6293522 3.480626,4.625 Z m 9.039062,0 c -0.161127,0.00435 -0.322726,0.048203 -0.472656,0.1347656 l -0.867187,0.5 C 10.700067,5.5367644 10.53761,6.1452239 10.81461,6.625 c 0.276999,0.4797761 0.885457,0.6422332 1.365235,0.3652344 l 0.867187,-0.5 C 13.52681,6.2132356 13.689265,5.6047761 13.412266,5.125 13.221831,4.7951538 12.874168,4.6154252 12.519688,4.625 Z M 8.0001572,6.5 A 1.5,1.5 0 0 1 9.500157,8 1.5,1.5 0 0 1 8.0001572,9.5 a 1.5,1.5 0 0 1 -1.5,-1.5 1.5,1.5 0 0 1 1.5,-1.5 z m 0,0.5 a 1,1 0 0 0 -1,1 1,1 0 0 0 1,1 1,1 0 0 0 1,-1 1,1 0 0 0 -1,-1 z M 4.293126,9.375 C 4.1319992,9.3793522 3.9703997,9.4232036 3.8204697,9.5097656 L 2.9532822,10.009766 C 2.4735065,10.286762 2.311049,10.895222 2.5880478,11.375 c 0.2769988,0.479778 0.8854587,0.642234 1.3652344,0.365234 l 0.8671875,-0.5 C 5.3002454,10.963238 5.4627029,10.354778 5.1857041,9.875 4.9952674,9.5451538 4.6476045,9.3654252 4.293126,9.375 Z m 7.414062,0 c -0.354477,-0.00957 -0.702141,0.1701538 -0.892578,0.5 -0.277,0.479778 -0.114542,1.088238 0.365235,1.365234 l 0.867187,0.5 c 0.479778,0.277 1.088237,0.114544 1.365234,-0.365234 0.276999,-0.479778 0.114544,-1.088238 -0.365234,-1.365234 L 12.179845,9.5097656 C 12.029914,9.4232036 11.868315,9.3793522 11.707188,9.375 Z M 8.0001572,11.5 c -0.5539976,0 -1,0.446004 -1,1 v 1 c 0,0.553996 0.4460024,1 1,1 0.5539976,0 1,-0.446004 1,-1 v -1 c 0,-0.553996 -0.4460024,-1 -1,-1 z" />
</svg>
