<?xml version="1.0" encoding="UTF-8" standalone="no"?>
<!-- Created with Inkscape (http://www.inkscape.org/) -->

<svg
   width="16"
   height="16"
   viewBox="0 0 16 16.000001"
   version="1.1"
   id="svg1"
   inkscape:version="1.4.2 (ebf0e940d0, 2025-05-08)"
   sodipodi:docname="korganizer.svg"
   xmlns:inkscape="http://www.inkscape.org/namespaces/inkscape"
   xmlns:sodipodi="http://sodipodi.sourceforge.net/DTD/sodipodi-0.dtd"
   xmlns:xlink="http://www.w3.org/1999/xlink"
   xmlns="http://www.w3.org/2000/svg"
   xmlns:svg="http://www.w3.org/2000/svg">
  <sodipodi:namedview
     id="namedview1"
     pagecolor="#ffffff"
     bordercolor="#000000"
     borderopacity="0.25"
     inkscape:showpageshadow="2"
     inkscape:pageopacity="0.0"
     inkscape:pagecheckerboard="0"
     inkscape:deskcolor="#d1d1d1"
     inkscape:document-units="px"
     inkscape:zoom="49.6875"
     inkscape:cx="8"
     inkscape:cy="8"
     inkscape:window-width="1920"
     inkscape:window-height="1010"
     inkscape:window-x="0"
     inkscape:window-y="0"
     inkscape:window-maximized="1"
     inkscape:current-layer="svg1" />
  <defs
     id="defs1">
    <linearGradient
       inkscape:collect="always"
       xlink:href="#4852"
       id="linearGradient2"
       x1="16"
       y1="15.735369"
       x2="16"
       y2="0"
       gradientUnits="userSpaceOnUse" />
    <linearGradient
       inkscape:collect="always"
       id="4852">
      <stop
         style="stop-color:#272727;stop-opacity:1;"
         offset="0"
         id="stop14555" />
      <stop
         style="stop-color:#5d5d5d;stop-opacity:1;"
         offset="1"
         id="stop14557" />
    </linearGradient>
  </defs>
  <rect
     style="fill:url(#linearGradient2)"
     id="rect1"
     width="16"
     height="16"
     x="0"
     y="0"
     ry="4" />
  <path
     id="rect349"
     style="fill:#dc4e4e;fill-opacity:1;stroke-linecap:round;stroke-linejoin:round"
     d="M 3.5,5 C 2.6715729,5 2,5.671573 2,6.5000001 2,7.3284266 2.6715729,7.9999996 3.5,7.9999996 4.3284271,7.9999996 5,7.3284266 5,6.5000001 5,5.671573 4.3284271,5 3.5,5 Z M 6,6.0000001 v 1 h 7 v -1 z"
     sodipodi:nodetypes="sssssccccc" />
  <path
     id="rect376"
     style="fill:#ffffff;fill-opacity:1;stroke-linecap:round;stroke-linejoin:round"
     d="M 3,3 V 4 H 4 V 3 Z m 2,0 v 1 h 8 V 3 Z M 3,9 v 1 H 4 V 9 Z m 2,0 v 1 h 8 V 9 Z m -2,3 v 1 h 1 v -1 z m 2,0 v 1 h 8 v -1 z" />
  <rect
     style="fill:#ffffff;fill-opacity:1;stroke-linecap:round;stroke-linejoin:round"
     id="rect2834"
     width="1"
     height="1"
     x="3.0000002"
     y="6" />
</svg>
