<?xml version="1.0" encoding="UTF-8" standalone="no"?>
<!-- Created with Inkscape (http://www.inkscape.org/) -->

<svg
   width="16"
   height="16"
   viewBox="0 0 16 16.000001"
   version="1.1"
   id="svg1"
   inkscape:version="1.4.2 (ebf0e940d0, 2025-05-08)"
   sodipodi:docname="lunarclient.svg"
   xmlns:inkscape="http://www.inkscape.org/namespaces/inkscape"
   xmlns:sodipodi="http://sodipodi.sourceforge.net/DTD/sodipodi-0.dtd"
   xmlns:xlink="http://www.w3.org/1999/xlink"
   xmlns="http://www.w3.org/2000/svg"
   xmlns:svg="http://www.w3.org/2000/svg">
  <sodipodi:namedview
     id="namedview1"
     pagecolor="#ffffff"
     bordercolor="#000000"
     borderopacity="0.25"
     inkscape:showpageshadow="2"
     inkscape:pageopacity="0.0"
     inkscape:pagecheckerboard="0"
     inkscape:deskcolor="#d1d1d1"
     inkscape:document-units="px"
     inkscape:zoom="49.75"
     inkscape:cx="7.9899497"
     inkscape:cy="8"
     inkscape:window-width="1920"
     inkscape:window-height="1011"
     inkscape:window-x="0"
     inkscape:window-y="0"
     inkscape:window-maximized="1"
     inkscape:current-layer="svg1" />
  <defs
     id="defs1">
    <linearGradient
       inkscape:collect="always"
       xlink:href="#4852"
       id="linearGradient2"
       x1="16"
       y1="15.735369"
       x2="16"
       y2="0"
       gradientUnits="userSpaceOnUse" />
    <linearGradient
       inkscape:collect="always"
       id="4852">
      <stop
         style="stop-color:#272727;stop-opacity:1;"
         offset="0"
         id="stop14555" />
      <stop
         style="stop-color:#5d5d5d;stop-opacity:1;"
         offset="1"
         id="stop14557" />
    </linearGradient>
  </defs>
  <rect
     style="fill:url(#linearGradient2)"
     id="rect1"
     width="16"
     height="16"
     x="0"
     y="0"
     ry="4" />
  <path
     d="M 7.8046875,4.4979999 7.6992188,4.6933124 7.5058594,4.7987811 7.6992188,4.9042499 7.8046875,5.0995624 7.9121094,4.9042499 8.1054688,4.7987811 7.9121094,4.6933124 Z M 6.2597656,5.0585468 C 4.8945046,5.6061778 3.9997622,6.9293449 4,8.4003437 4.0002089,10.388267 5.6116866,11.999744 7.5996094,11.999953 9.070608,12.000191 10.393775,11.105448 10.941406,9.740187 10.514831,9.911661 10.059359,9.9998381 9.5996091,9.9999541 7.6116863,9.9997451 6.0002088,8.3882665 6,6.4003436 6.0001146,5.9405941 6.0882919,5.485122 6.2597656,5.0585468 Z M 7.5996094,11.999952 H 3 v 0.222657 h 1.1992188 v 0.216796 H 3 v 0.222657 H 13 V 12.439405 H 11.800781 V 12.222609 H 13 V 11.999952 Z M 10.603516,6.078078 10.498047,6.2714374 10.304688,6.3788592 10.498047,6.484328 10.603516,6.6776874 10.710938,6.484328 10.904297,6.3788592 10.710938,6.2714374 Z M 7.3964844,6.4179218 7.2558594,6.6757342 6.9960938,6.8163592 7.2558594,6.9589374 7.3964844,7.2167499 7.5390625,6.9589374 7.796875,6.8163592 7.5390625,6.6757342 Z M 3.859375,6.5194842 3.7539062,6.7147968 3.5605469,6.8202655 3.7539062,6.9257342 3.859375,7.1190936 3.9667969,6.9257342 4.1601562,6.8202655 3.9667969,6.7147968 Z M 8.9609371,7.3007343 8.8554688,7.4960468 8.6621094,7.6015155 8.8554688,7.7069842 8.9609371,7.9022968 9.0683591,7.7069842 9.2617191,7.6015155 9.0683591,7.4960468 Z M 11.5,7.8007343 11.287109,8.187453 10.900391,8.4003437 11.287109,8.6112816 11.5,8.9999536 11.712891,8.6112816 12.099609,8.4003437 11.712891,8.187453 Z m -2.0996099,0.5996094 -0.142578,0.2578129 -0.257812,0.142578 0.257812,0.140625 0.142578,0.2578125 0.140625,-0.2578125 0.259766,-0.140625 -0.259766,-0.142578 z M 3.7128906,9.8124541 3.5,10.199172 3.1113281,10.412062 3.5,10.624954 3.7128906,11.011672 3.9238281,10.624954 4.3125,10.412062 3.9238281,10.199172 Z M 5,12.669874 v 0.220703 H 3.4003906 v 0.220703 h 2.4003906 v 0.21875 H 4.5996094 v 0.222657 H 11.400391 V 13.33003 h -1.201172 v -0.21875 h 2.40039 v -0.220703 h -1.199218 v -0.220703 z m 2.4003906,0.890625 v 0.21875 H 7 v 0.222656 H 9.0000001 V 13.77925 H 8.5996094 V 13.5605 Z"
     style="fill:#ffffff"
     id="path3062" />
  <path
     d="m 7.7539062,2.0647482 c 0,0 -1.3790776,0.7778371 -2.7617187,1.607422 C 4.3008669,4.0869626 3.6095501,4.5132455 3.0800781,4.8694358 2.8153421,5.0475308 2.5927902,5.2065137 2.4199219,5.3479513 2.3334877,5.4186702 2.2588538,5.4838705 2.1894531,5.560842 2.1200525,5.6378135 2,5.6888362 2,6.0002951 V 11.000295 H 3 V 6.170217 C 3.019565,6.152486 3.024315,6.144641 3.052734,6.121389 3.180647,6.0167332 3.3877834,5.8682933 3.6386719,5.6995138 4.1404488,5.3619549 4.8241344,4.939799 5.5078125,4.529592 6.7524243,3.7828249 7.7860505,3.1993845 8,3.0784202 c 0.2139495,0.1209643 1.2475754,0.7044047 2.492188,1.4511718 0.683678,0.410207 1.367363,0.8323629 1.86914,1.1699218 0.250889,0.1687795 0.458025,0.3172194 0.585938,0.421875 0.02842,0.023253 0.03317,0.031097 0.05273,0.048828 v 4.8300782 h 1 V 6.0002951 C 14,5.6888362 13.879948,5.6378135 13.810547,5.560842 13.741146,5.4838705 13.666512,5.4186702 13.580078,5.3479513 13.40721,5.2065137 13.184658,5.0475308 12.919922,4.8694358 12.39045,4.5132455 11.699133,4.0869626 11.007813,3.6721702 9.6251714,2.8425853 8.2460938,2.0647482 8.2460938,2.0647482 c -0.1527056,-0.086331 -0.339482,-0.086331 -0.4921876,0 z"
     style="color:#000000;fill:#ffffff;stroke-linejoin:round;-inkscape-stroke:none"
     id="path2671" />
</svg>
