<?xml version="1.0" encoding="UTF-8" standalone="no"?>
<!-- Created with Inkscape (http://www.inkscape.org/) -->

<svg
   width="16"
   height="16"
   viewBox="0 0 16 16.000001"
   version="1.1"
   id="svg1"
   inkscape:version="1.4.2 (ebf0e940d0, 2025-05-08)"
   sodipodi:docname="mintinstall.svg"
   xmlns:inkscape="http://www.inkscape.org/namespaces/inkscape"
   xmlns:sodipodi="http://sodipodi.sourceforge.net/DTD/sodipodi-0.dtd"
   xmlns:xlink="http://www.w3.org/1999/xlink"
   xmlns="http://www.w3.org/2000/svg"
   xmlns:svg="http://www.w3.org/2000/svg">
  <sodipodi:namedview
     id="namedview1"
     pagecolor="#ffffff"
     bordercolor="#000000"
     borderopacity="0.25"
     inkscape:showpageshadow="2"
     inkscape:pageopacity="0.0"
     inkscape:pagecheckerboard="0"
     inkscape:deskcolor="#d1d1d1"
     inkscape:document-units="px"
     inkscape:zoom="50.5"
     inkscape:cx="7.990099"
     inkscape:cy="8"
     inkscape:window-width="1920"
     inkscape:window-height="1011"
     inkscape:window-x="0"
     inkscape:window-y="0"
     inkscape:window-maximized="1"
     inkscape:current-layer="svg1" />
  <defs
     id="defs1">
    <linearGradient
       inkscape:collect="always"
       xlink:href="#4852"
       id="linearGradient2"
       x1="16"
       y1="15.735369"
       x2="16"
       y2="0"
       gradientUnits="userSpaceOnUse" />
    <linearGradient
       inkscape:collect="always"
       id="4852">
      <stop
         style="stop-color:#272727;stop-opacity:1;"
         offset="0"
         id="stop14555" />
      <stop
         style="stop-color:#5d5d5d;stop-opacity:1;"
         offset="1"
         id="stop14557" />
    </linearGradient>
    <linearGradient
       inkscape:collect="always"
       id="linearGradient2030">
      <stop
         style="stop-color:#4c7523;stop-opacity:1;"
         offset="0"
         id="stop2026" />
      <stop
         style="stop-color:#87cf3e;stop-opacity:1;"
         offset="1"
         id="stop2028" />
    </linearGradient>
    <linearGradient
       inkscape:collect="always"
       xlink:href="#linearGradient2030"
       id="linearGradient3"
       x1="8"
       y1="16"
       x2="8"
       y2="0"
       gradientUnits="userSpaceOnUse" />
  </defs>
  <rect
     style="fill:url(#linearGradient2)"
     id="rect1"
     width="16"
     height="16"
     x="0"
     y="0"
     ry="4" />
  <path
     id="rect346"
     style="fill:url(#linearGradient3);stroke-width:3;stroke-linecap:round;stroke-linejoin:round"
     d="M 2.9999998,2.9999999 V 10 c 0,1.661995 1.338004,3 3.0000001,3 H 10 c 1.661996,0 3,-1.338005 3,-3 V 6.9999999 a 2,2 0 0 0 -2,-2 2,2 0 0 0 -1.496094,0.679688 C 9.137904,5.2630729 8.600677,4.9999999 8,4.9999999 c -1.107998,0 -2.0000001,0.892001 -2.0000001,2 V 10 H 7 V 6.9999999 c 0,-0.553998 0.446002,-1 1,-1 0.553998,0 1,0.446002 1,1 V 10 h 1 V 6.9999999 c 0,-0.553998 0.446002,-1 1,-1 0.553998,0 1,0.446002 1,1 V 10 c 0,1.107997 -0.892002,2 -2,2 H 5.9999999 C 4.8920018,12 3.9999998,11.107997 3.9999998,10 V 2.9999999 Z" />
</svg>
