<?xml version="1.0" encoding="UTF-8" standalone="no"?>
<!-- Created with Inkscape (http://www.inkscape.org/) -->

<svg
   width="16"
   height="16"
   viewBox="0 0 16 16.000001"
   version="1.1"
   id="svg1"
   inkscape:version="1.4.2 (ebf0e940d0, 2025-05-08)"
   sodipodi:docname="nvidia.svg"
   xmlns:inkscape="http://www.inkscape.org/namespaces/inkscape"
   xmlns:sodipodi="http://sodipodi.sourceforge.net/DTD/sodipodi-0.dtd"
   xmlns:xlink="http://www.w3.org/1999/xlink"
   xmlns="http://www.w3.org/2000/svg"
   xmlns:svg="http://www.w3.org/2000/svg">
  <sodipodi:namedview
     id="namedview1"
     pagecolor="#ffffff"
     bordercolor="#000000"
     borderopacity="0.25"
     inkscape:showpageshadow="2"
     inkscape:pageopacity="0.0"
     inkscape:pagecheckerboard="0"
     inkscape:deskcolor="#d1d1d1"
     inkscape:document-units="px"
     inkscape:zoom="49.125"
     inkscape:cx="7.9898219"
     inkscape:cy="8"
     inkscape:window-width="1920"
     inkscape:window-height="1011"
     inkscape:window-x="0"
     inkscape:window-y="0"
     inkscape:window-maximized="1"
     inkscape:current-layer="svg1" />
  <defs
     id="defs1">
    <linearGradient
       inkscape:collect="always"
       xlink:href="#4852"
       id="linearGradient2"
       x1="16"
       y1="15.735369"
       x2="16"
       y2="0"
       gradientUnits="userSpaceOnUse" />
    <linearGradient
       inkscape:collect="always"
       id="4852">
      <stop
         style="stop-color:#272727;stop-opacity:1;"
         offset="0"
         id="stop14555" />
      <stop
         style="stop-color:#5d5d5d;stop-opacity:1;"
         offset="1"
         id="stop14557" />
    </linearGradient>
    <linearGradient
       inkscape:collect="always"
       xlink:href="#linearGradient1270"
       id="linearGradient1272"
       x1="23.378906"
       y1="30.515625"
       x2="23.378906"
       y2="14.515625"
       gradientUnits="userSpaceOnUse"
       gradientTransform="translate(-15.378906,-14.515625)" />
    <linearGradient
       inkscape:collect="always"
       id="linearGradient1270">
      <stop
         style="stop-color:#80d935;stop-opacity:1;"
         offset="0"
         id="stop1266" />
      <stop
         style="stop-color:#afd65f;stop-opacity:1;"
         offset="1"
         id="stop1268" />
    </linearGradient>
  </defs>
  <rect
     style="fill:url(#linearGradient2)"
     id="rect1"
     width="15"
     height="16"
     x="0"
     y="0"
     ry="4" />
  <path
     id="path353"
     style="fill:url(#linearGradient1272);fill-opacity:1"
     d="M 7.0019531 0 L 7.0019531 5.1894531 C 7.0723931 5.1842531 7.1186292 5.1800534 7.1894531 5.1777344 C 9.9173983 5.0885844 11.195312 7.3457031 11.195312 7.3457031 C 11.195312 7.3457031 9.6541795 9.7539063 7.5273438 9.7539062 C 7.3324219 9.7539062 7.173348 9.7364813 7.0019531 9.7070312 L 7.0019531 10.349609 C 7.148519 10.367649 7.276977 10.376953 7.4355469 10.376953 C 9.4147079 10.376953 10.346514 9.3983201 11.732422 8.2382812 C 11.962202 8.4167312 12.902324 8.8509718 13.095703 9.0410156 C 11.777966 10.110825 9.205932 10.972656 7.4648438 10.972656 C 7.2970169 10.972656 7.160379 10.962056 7.0019531 10.947266 L 7.0019531 16 L 12 16 C 14.216 16 16 14.216 16 12 L 16 4 C 16 1.784 14.216 0 12 0 L 7.0019531 0 z M 7.0019531 10.947266 L 7.0019531 10.349609 C 4.5799145 10.054143 3.2265625 7.4648436 3.2265625 7.4648438 C 3.2265625 7.4648438 4.8356323 5.912544 7.0019531 5.7519531 L 7.0019531 5.1894531 C 4.6024785 5.3763179 2 7.3457031 2 7.3457031 C 2 7.3457031 3.7014874 10.645205 7.0019531 10.947266 z M 7.0019531 5.7519531 L 7.0019531 6.4472656 C 7.130294 6.4339856 7.236461 6.4257313 7.3730469 6.4257812 C 8.6296026 6.4257812 8.875 7.3730469 8.875 7.3730469 L 7.8554688 8.2089844 C 7.3963431 7.4668091 7.7656384 7.138308 7.0019531 7.0488281 L 7.0019531 9.1582031 C 7.175035 9.2146431 7.3440968 9.2480469 7.5585938 9.2480469 C 9.0490272 9.2480469 9.9375 7.3769531 9.9375 7.3769531 C 9.9375 7.3769531 9.1511122 5.6824386 7.1894531 5.7421875 C 7.1177131 5.7443875 7.0716731 5.7472531 7.0019531 5.7519531 z M 7.0019531 9.1582031 C 5.9699702 8.8219685 5.1113281 7.6542969 5.1113281 7.6542969 C 5.1113281 7.6542969 6.2338588 6.9596682 7 7.0488281 L 7.0019531 7.0488281 L 7.0019531 6.4472656 C 5.5422347 6.6003755 4.1386719 7.5449219 4.1386719 7.5449219 C 4.1386719 7.5449219 5.171431 9.3905738 7.0019531 9.7070312 L 7.0019531 9.1582031 z " />
</svg>
