<?xml version="1.0" encoding="UTF-8" standalone="no"?>
<!-- Created with Inkscape (http://www.inkscape.org/) -->

<svg
   width="16"
   height="16"
   viewBox="0 0 16 16.000001"
   version="1.1"
   id="svg1"
   inkscape:version="1.4.2 (ebf0e940d0, 2025-05-08)"
   sodipodi:docname="org.gnome.Loupe.svg"
   xmlns:inkscape="http://www.inkscape.org/namespaces/inkscape"
   xmlns:sodipodi="http://sodipodi.sourceforge.net/DTD/sodipodi-0.dtd"
   xmlns:xlink="http://www.w3.org/1999/xlink"
   xmlns="http://www.w3.org/2000/svg"
   xmlns:svg="http://www.w3.org/2000/svg">
  <sodipodi:namedview
     id="namedview1"
     pagecolor="#ffffff"
     bordercolor="#000000"
     borderopacity="0.25"
     inkscape:showpageshadow="2"
     inkscape:pageopacity="0.0"
     inkscape:pagecheckerboard="0"
     inkscape:deskcolor="#d1d1d1"
     inkscape:document-units="px"
     inkscape:zoom="50.5"
     inkscape:cx="7.990099"
     inkscape:cy="8"
     inkscape:window-width="1920"
     inkscape:window-height="1011"
     inkscape:window-x="0"
     inkscape:window-y="0"
     inkscape:window-maximized="1"
     inkscape:current-layer="svg1" />
  <defs
     id="defs1">
    <linearGradient
       inkscape:collect="always"
       xlink:href="#4852"
       id="linearGradient2"
       x1="16"
       y1="15.735369"
       x2="16"
       y2="0"
       gradientUnits="userSpaceOnUse" />
    <linearGradient
       inkscape:collect="always"
       id="4852">
      <stop
         style="stop-color:#272727;stop-opacity:1;"
         offset="0"
         id="stop14555" />
      <stop
         style="stop-color:#5d5d5d;stop-opacity:1;"
         offset="1"
         id="stop14557" />
    </linearGradient>
    <linearGradient
       inkscape:collect="always"
       id="linearGradient3">
      <stop
         style="stop-color:#ff8303;stop-opacity:1;"
         offset="0"
         id="stop1" />
      <stop
         style="stop-color:#b966d8;stop-opacity:1;"
         offset="0.5"
         id="stop3" />
      <stop
         style="stop-color:#5672c9;stop-opacity:1;"
         offset="1"
         id="stop2" />
    </linearGradient>
    <linearGradient
       inkscape:collect="always"
       xlink:href="#linearGradient3"
       id="linearGradient5"
       x1="8"
       y1="16"
       x2="8"
       y2="0"
       gradientUnits="userSpaceOnUse" />
  </defs>
  <rect
     style="fill:url(#linearGradient2)"
     id="rect1"
     width="16"
     height="16"
     x="0"
     y="0"
     ry="4" />
  <path
     id="path1600"
     style="opacity:1;fill:url(#linearGradient5);stroke-width:0.0744079;stroke-linecap:round;stroke-linejoin:round"
     d="M 4.5 3 A 1.5 1.5 0 0 0 3 4.5 A 1.5 1.5 0 0 0 4.5 6 A 1.5 1.5 0 0 0 6 4.5 A 1.5 1.5 0 0 0 4.5 3 z M 9.0546875 7.984375 C 8.8828004 7.9835425 8.7096686 8.0408026 8.6015625 8.15625 L 7.0644531 9.7734375 L 6.5 9.1542969 C 6.294044 8.927962 5.8177845 8.9234108 5.6015625 9.1542969 L 2 13 L 4 13 L 10 13 L 14 13 L 9.5 8.15625 C 9.3958796 8.0441327 9.2265746 7.9852075 9.0546875 7.984375 z " />
  <path
     id="path1"
     style="opacity:0.3;fill:#ffffff;stroke-width:0.0744079;stroke-linecap:round;stroke-linejoin:round"
     d="M 4.5 3 C 3.6715729 3 3 3.6715729 3 4.5 C 3 5.3284271 3.6715729 6 4.5 6 C 5.3284271 6 6 5.3284271 6 4.5 C 6 3.6715729 5.3284271 3 4.5 3 z M 9.0546875 7.984375 C 8.8828004 7.9835425 8.7096686 8.040803 8.6015625 8.15625 L 4 13 L 10 13 L 14 13 L 9.5 8.15625 C 9.3958796 8.044133 9.2265746 7.9852075 9.0546875 7.984375 z " />
</svg>
