<?xml version="1.0" encoding="UTF-8" standalone="no"?>
<!-- Created with Inkscape (http://www.inkscape.org/) -->

<svg
   width="16"
   height="16"
   viewBox="0 0 16 16.000001"
   version="1.1"
   id="svg1"
   inkscape:version="1.4.2 (ebf0e940d0, 2025-05-08)"
   sodipodi:docname="preferences-desktop-color.svg"
   xmlns:inkscape="http://www.inkscape.org/namespaces/inkscape"
   xmlns:sodipodi="http://sodipodi.sourceforge.net/DTD/sodipodi-0.dtd"
   xmlns:xlink="http://www.w3.org/1999/xlink"
   xmlns="http://www.w3.org/2000/svg"
   xmlns:svg="http://www.w3.org/2000/svg">
  <sodipodi:namedview
     id="namedview1"
     pagecolor="#ffffff"
     bordercolor="#000000"
     borderopacity="0.25"
     inkscape:showpageshadow="2"
     inkscape:pageopacity="0.0"
     inkscape:pagecheckerboard="0"
     inkscape:deskcolor="#d1d1d1"
     inkscape:document-units="px"
     inkscape:zoom="49.6875"
     inkscape:cx="8"
     inkscape:cy="8"
     inkscape:window-width="1920"
     inkscape:window-height="1010"
     inkscape:window-x="0"
     inkscape:window-y="0"
     inkscape:window-maximized="1"
     inkscape:current-layer="svg1" />
  <defs
     id="defs1">
    <linearGradient
       inkscape:collect="always"
       xlink:href="#4852"
       id="linearGradient2"
       x1="16"
       y1="15.735369"
       x2="16"
       y2="0"
       gradientUnits="userSpaceOnUse" />
    <linearGradient
       inkscape:collect="always"
       id="4852">
      <stop
         style="stop-color:#272727;stop-opacity:1;"
         offset="0"
         id="stop14555" />
      <stop
         style="stop-color:#5d5d5d;stop-opacity:1;"
         offset="1"
         id="stop14557" />
    </linearGradient>
    <radialGradient
       inkscape:collect="always"
       xlink:href="#linearGradient1603"
       id="radialGradient2708"
       gradientUnits="userSpaceOnUse"
       gradientTransform="matrix(0.95633539,-0.92910583,-0.88556795,-0.91152149,15.429551,6.929789)"
       cx="-5.1778336"
       cy="10.861832"
       fx="-5.1778336"
       fy="10.861832"
       r="7.9999995" />
    <linearGradient
       inkscape:collect="always"
       id="linearGradient1603">
      <stop
         style="stop-color:#ff910c;stop-opacity:1;"
         offset="0"
         id="stop1599" />
      <stop
         style="stop-color:#ff910c;stop-opacity:0;"
         offset="1"
         id="stop1601" />
    </linearGradient>
    <radialGradient
       inkscape:collect="always"
       xlink:href="#linearGradient3954"
       id="radialGradient2776"
       gradientUnits="userSpaceOnUse"
       gradientTransform="matrix(-0.95633539,0.92910583,0.88556795,0.91152149,0.57044856,9.070211)"
       cx="-5.1778336"
       cy="10.861832"
       fx="-5.1778336"
       fy="10.861832"
       r="7.9999995" />
    <linearGradient
       inkscape:collect="always"
       id="linearGradient3954">
      <stop
         style="stop-color:#24c2f5;stop-opacity:1;"
         offset="0"
         id="stop3950" />
      <stop
         style="stop-color:#24c2f5;stop-opacity:0;"
         offset="1"
         id="stop3952" />
    </linearGradient>
    <radialGradient
       inkscape:collect="always"
       xlink:href="#linearGradient5569"
       id="radialGradient2811"
       gradientUnits="userSpaceOnUse"
       gradientTransform="matrix(0.95633539,0.92910583,-0.88556795,0.91152149,15.429551,9.070211)"
       cx="-5.1778336"
       cy="10.861832"
       fx="-5.1778336"
       fy="10.861832"
       r="7.9999995" />
    <linearGradient
       inkscape:collect="always"
       id="linearGradient5569">
      <stop
         style="stop-color:#f5cc24;stop-opacity:1;"
         offset="0"
         id="stop5565" />
      <stop
         style="stop-color:#f5cc24;stop-opacity:0.00045133"
         offset="1"
         id="stop5567" />
    </linearGradient>
    <radialGradient
       inkscape:collect="always"
       xlink:href="#linearGradient7221"
       id="radialGradient2674"
       cx="-6.9766989"
       cy="16.005411"
       fx="-6.9766989"
       fy="16.005411"
       r="8"
       gradientUnits="userSpaceOnUse"
       gradientTransform="matrix(0.0080378,1.1605484,-1.0937237,0.00757499,25.561575,7.975556)" />
    <linearGradient
       inkscape:collect="always"
       id="linearGradient7221">
      <stop
         style="stop-color:#f43434;stop-opacity:1;"
         offset="0"
         id="stop7217" />
      <stop
         style="stop-color:#f43434;stop-opacity:0;"
         offset="1"
         id="stop7219" />
    </linearGradient>
    <radialGradient
       inkscape:collect="always"
       xlink:href="#linearGradient10051"
       id="radialGradient2617"
       cx="-5.1778336"
       cy="10.861832"
       fx="-5.1778336"
       fy="10.861832"
       r="7.9999995"
       gradientUnits="userSpaceOnUse"
       gradientTransform="matrix(-0.95633539,-0.92910583,0.88556795,-0.91152149,0.57044838,6.929789)" />
    <linearGradient
       inkscape:collect="always"
       id="linearGradient10051">
      <stop
         style="stop-color:#aa3ad4;stop-opacity:1"
         offset="0"
         id="stop10047" />
      <stop
         style="stop-color:#aa3ad4;stop-opacity:0"
         offset="1"
         id="stop10049" />
    </linearGradient>
    <radialGradient
       inkscape:collect="always"
       xlink:href="#linearGradient15132"
       id="radialGradient2489"
       cx="8"
       cy="16"
       fx="8"
       fy="16"
       r="8"
       gradientUnits="userSpaceOnUse"
       gradientTransform="matrix(7.4505808e-8,1.09375,-1.0937501,7.3879785e-8,17.5,-0.750001)" />
    <linearGradient
       inkscape:collect="always"
       id="linearGradient15132">
      <stop
         style="stop-color:#f5e224;stop-opacity:1;"
         offset="0"
         id="stop15128" />
      <stop
         style="stop-color:#f5e224;stop-opacity:0;"
         offset="1"
         id="stop15130" />
    </linearGradient>
    <radialGradient
       inkscape:collect="always"
       xlink:href="#linearGradient12059"
       id="radialGradient2481"
       cx="7.9999995"
       cy="16"
       fx="7.9999995"
       fy="16"
       r="7.9999995"
       gradientUnits="userSpaceOnUse"
       gradientTransform="matrix(1.0937502,9.5197254e-8,-4.3500795e-8,1.0937502,-0.75000099,-1.500003)" />
    <linearGradient
       inkscape:collect="always"
       id="linearGradient12059">
      <stop
         style="stop-color:#47c12a;stop-opacity:1;"
         offset="0"
         id="stop12055" />
      <stop
         style="stop-color:#47c12a;stop-opacity:0;"
         offset="1"
         id="stop12057" />
    </linearGradient>
  </defs>
  <rect
     style="fill:url(#linearGradient2)"
     id="rect1"
     width="16"
     height="16"
     x="0"
     y="0"
     ry="4" />
  <path
     id="path416"
     style="fill:#ffffff;fill-opacity:1;stroke-width:0.633915;stroke-linecap:round;stroke-linejoin:round"
     d="m 8,3 c 0,0 -2.972699,4.8310672 -3,7 0,1.65685 1.3431487,3 3,3 1.6568511,0 3,-1.34315 3,-3 C 10.9988,7.6832213 8,3 8,3 Z M 9.9453121,9.5390625 A 2,2 0 0 1 10.000002,10 a 2,2 0 0 1 -2,2 2,2 0 0 1 -0.4550781,-0.05664 3,3 0 0 0 2.4003902,-2.4042965 z" />
  <path
     id="path2684"
     style="fill:url(#radialGradient2708);fill-opacity:1;stroke-width:0.5;stroke-linecap:round;stroke-linejoin:round"
     d="m 8,3 c 0,0 -2.972699,4.8310672 -3,7 0,1.65685 1.3431487,3 3,3 1.6568511,0 3,-1.34315 3,-3 C 10.9988,7.6832213 8,3 8,3 Z M 9.9453125,9.5390625 A 2,2 0 0 1 10,10 2,2 0 0 1 8,12 2,2 0 0 1 7.5449219,11.943359 3,3 0 0 0 9.9453125,9.5390625 Z" />
  <path
     id="path2752"
     style="fill:url(#radialGradient2776);fill-opacity:1;stroke-width:0.5;stroke-linecap:round;stroke-linejoin:round"
     d="m 8,3 c 0,0 -2.972699,4.8310672 -3,7 0,1.65685 1.3431487,3 3,3 1.6568511,0 3,-1.34315 3,-3 C 10.9988,7.6832213 8,3 8,3 Z M 9.9453125,9.5390625 A 2,2 0 0 1 10,10 2,2 0 0 1 8,12 2,2 0 0 1 7.5449219,11.943359 3,3 0 0 0 9.9453125,9.5390625 Z" />
  <path
     id="path2787"
     style="fill:url(#radialGradient2811);fill-opacity:1;stroke-width:0.5;stroke-linecap:round;stroke-linejoin:round"
     d="m 8,3 c 0,0 -2.972699,4.8310672 -3,7 0,1.65685 1.3431487,3 3,3 1.6568511,0 3,-1.34315 3,-3 C 10.9988,7.6832213 8,3 8,3 Z M 9.9453125,9.5390625 A 2,2 0 0 1 10,10 2,2 0 0 1 8,12 2,2 0 0 1 7.5449219,11.943359 3,3 0 0 0 9.9453125,9.5390625 Z" />
  <path
     id="path1988"
     style="fill:url(#radialGradient2674);fill-opacity:1;stroke-width:0.5;stroke-linecap:round;stroke-linejoin:round"
     d="m 8,3 c 0,0 -2.972699,4.8310672 -3,7 0,1.65685 1.3431487,3 3,3 1.6568511,0 3,-1.34315 3,-3 C 10.9988,7.6832213 8,3 8,3 Z M 9.9453125,9.5390625 A 2,2 0 0 1 10,10 2,2 0 0 1 8,12 2,2 0 0 1 7.5449219,11.943359 3,3 0 0 0 9.9453125,9.5390625 Z" />
  <path
     id="path2021"
     style="fill:url(#radialGradient2617);fill-opacity:1;stroke-width:0.5;stroke-linecap:round;stroke-linejoin:round"
     d="m 8,3 c 0,0 -2.972699,4.8310672 -3,7 0,1.65685 1.3431487,3 3,3 1.6568511,0 3,-1.34315 3,-3 C 10.9988,7.6832213 8,3 8,3 Z M 9.9453125,9.5390625 A 2,2 0 0 1 10,10 2,2 0 0 1 8,12 2,2 0 0 1 7.5449219,11.943359 3,3 0 0 0 9.9453125,9.5390625 Z" />
  <path
     id="path2054"
     style="fill:url(#radialGradient2489);fill-opacity:1;stroke-width:0.5;stroke-linecap:round;stroke-linejoin:round"
     d="m 8,3 c 0,0 -2.972699,4.8310672 -3,7 0,1.65685 1.3431487,3 3,3 1.6568511,0 3,-1.34315 3,-3 C 10.9988,7.6832213 8,3 8,3 Z M 9.9453125,9.5390625 A 2,2 0 0 1 10,10 2,2 0 0 1 8,12 2,2 0 0 1 7.5449219,11.943359 3,3 0 0 0 9.9453125,9.5390625 Z" />
  <path
     id="path2087"
     style="fill:url(#radialGradient2481);fill-opacity:1;stroke-width:0.5;stroke-linecap:round;stroke-linejoin:round"
     d="m 8,3 c 0,0 -2.972699,4.8310672 -3,7 0,1.65685 1.3431487,3 3,3 1.6568511,0 3,-1.34315 3,-3 C 10.9988,7.6832213 8,3 8,3 Z M 9.9453125,9.5390625 A 2,2 0 0 1 10,10 2,2 0 0 1 8,12 2,2 0 0 1 7.5449219,11.943359 3,3 0 0 0 9.9453125,9.5390625 Z" />
</svg>
