<?xml version="1.0" encoding="UTF-8" standalone="no"?>
<!-- Created with Inkscape (http://www.inkscape.org/) -->

<svg
   width="16"
   height="16"
   viewBox="0 0 16 16.000001"
   version="1.1"
   id="svg1"
   inkscape:version="1.4.2 (ebf0e940d0, 2025-05-08)"
   sodipodi:docname="preferences-desktop-keyboard-shortcuts.svg"
   xmlns:inkscape="http://www.inkscape.org/namespaces/inkscape"
   xmlns:sodipodi="http://sodipodi.sourceforge.net/DTD/sodipodi-0.dtd"
   xmlns:xlink="http://www.w3.org/1999/xlink"
   xmlns="http://www.w3.org/2000/svg"
   xmlns:svg="http://www.w3.org/2000/svg">
  <sodipodi:namedview
     id="namedview1"
     pagecolor="#ffffff"
     bordercolor="#000000"
     borderopacity="0.25"
     inkscape:showpageshadow="2"
     inkscape:pageopacity="0.0"
     inkscape:pagecheckerboard="0"
     inkscape:deskcolor="#d1d1d1"
     inkscape:document-units="px"
     inkscape:zoom="49.6875"
     inkscape:cx="8"
     inkscape:cy="8"
     inkscape:window-width="1920"
     inkscape:window-height="1010"
     inkscape:window-x="0"
     inkscape:window-y="0"
     inkscape:window-maximized="1"
     inkscape:current-layer="svg1" />
  <defs
     id="defs1">
    <linearGradient
       inkscape:collect="always"
       xlink:href="#4852"
       id="linearGradient2"
       x1="16"
       y1="15.735369"
       x2="16"
       y2="0"
       gradientUnits="userSpaceOnUse" />
    <linearGradient
       inkscape:collect="always"
       id="4852">
      <stop
         style="stop-color:#272727;stop-opacity:1;"
         offset="0"
         id="stop14555" />
      <stop
         style="stop-color:#5d5d5d;stop-opacity:1;"
         offset="1"
         id="stop14557" />
    </linearGradient>
  </defs>
  <rect
     style="fill:url(#linearGradient2)"
     id="rect1"
     width="16"
     height="16"
     x="0"
     y="0"
     ry="4" />
  <path
     d="M 2.9999999,4 C 2.4460005,4 2,4.446 2,5 V 6 C 2,6.553999 2.4460005,7 2.9999999,7 H 3.9999998 C 4.5539991,7 4.9999997,6.553999 4.9999997,6 V 5 c 0,-0.554 -0.4460006,-1 -0.9999999,-1 z M 11,4 c -0.554,0 -1,0.446 -1,1 v 1 c 0,0.553999 0.446,1 1,1 h 1 c 0.553999,0 1,-0.446001 1,-1 V 5 C 13,4.446 12.553999,4 12,4 Z M 3.9999997,9 C 3.4460003,9 2.9999998,9.446 2.9999998,10 v 1 c 0,0.553999 0.4460005,1 0.9999999,1 H 11 c 0.553999,0 1,-0.446001 1,-1 V 10 C 12,9.446 11.553999,9 11,9 Z"
     style="fill:#a1a1a1;fill-opacity:1;stroke-width:0.999999;stroke-linecap:round;stroke-linejoin:round"
     id="path1728"
     sodipodi:nodetypes="sssssssssssssssssssssssssss" />
  <path
     d="m 6.9999998,4 c -0.553999,0 -1,0.446 -1,1 v 1 c 0,0.553999 0.446001,1 1,1 H 7.9999999 C 8.554,7 9,6.553999 9,6 V 5 C 9,4.446 8.554,4 7.9999999,4 Z"
     style="fill:#d98d49;fill-opacity:1;stroke-width:0.999999;stroke-linecap:round;stroke-linejoin:round"
     id="path5501" />
</svg>
