<?xml version="1.0" encoding="UTF-8" standalone="no"?>
<!-- Created with Inkscape (http://www.inkscape.org/) -->

<svg
   width="16"
   height="16"
   viewBox="0 0 16 16.000001"
   version="1.1"
   id="svg1"
   inkscape:version="1.4.2 (ebf0e940d0, 2025-05-08)"
   sodipodi:docname="preferences-desktop-screensaver.svg"
   xmlns:inkscape="http://www.inkscape.org/namespaces/inkscape"
   xmlns:sodipodi="http://sodipodi.sourceforge.net/DTD/sodipodi-0.dtd"
   xmlns:xlink="http://www.w3.org/1999/xlink"
   xmlns="http://www.w3.org/2000/svg"
   xmlns:svg="http://www.w3.org/2000/svg">
  <sodipodi:namedview
     id="namedview1"
     pagecolor="#ffffff"
     bordercolor="#000000"
     borderopacity="0.25"
     inkscape:showpageshadow="2"
     inkscape:pageopacity="0.0"
     inkscape:pagecheckerboard="0"
     inkscape:deskcolor="#d1d1d1"
     inkscape:document-units="px"
     inkscape:zoom="49.125"
     inkscape:cx="7.9898219"
     inkscape:cy="8"
     inkscape:window-width="1920"
     inkscape:window-height="1011"
     inkscape:window-x="0"
     inkscape:window-y="0"
     inkscape:window-maximized="1"
     inkscape:current-layer="svg1" />
  <defs
     id="defs1">
    <linearGradient
       inkscape:collect="always"
       xlink:href="#4852"
       id="linearGradient2"
       x1="16"
       y1="15.735369"
       x2="16"
       y2="0"
       gradientUnits="userSpaceOnUse" />
    <linearGradient
       inkscape:collect="always"
       id="4852">
      <stop
         style="stop-color:#272727;stop-opacity:1;"
         offset="0"
         id="stop14555" />
      <stop
         style="stop-color:#5d5d5d;stop-opacity:1;"
         offset="1"
         id="stop14557" />
    </linearGradient>
  </defs>
  <rect
     style="fill:url(#linearGradient2)"
     id="rect1"
     width="16"
     height="16"
     x="0"
     y="0"
     ry="4" />
  <path
     d="M 10.5,5.2000004 10.350983,4.7490172 9.9,4.6000004 10.350983,4.4509836 10.5,4 10.649017,4.4509836 11.1,4.6000004 10.649017,4.7490172 Z m -3,0.54 L 7.201966,4.838034 6.3,4.5400004 7.201966,4.2419664 7.5,3.34 7.798034,4.2419664 8.7,4.5400004 7.798034,4.838034 Z m -4,1.76 L 3.0032764,5.9967236 1.5,5.5000004 3.0032764,5.0032768 3.5,3.5 3.9967236,5.0032768 5.5,5.5000004 3.9967236,5.9967236 Z m 7.698206,-1.700022 c 0.44617,0.540634 0.716746,1.231632 0.716746,1.9873444 0,1.7272792 -1.400256,3.1276072 -3.127608,3.1276072 C 8.031632,10.91493 7.340648,10.644361 6.8,10.198192 7.17818,11.8102 8.623832,13 10.351112,13 12.36632,13 14,11.36632 14,9.351112 14,7.62376 12.8102,6.178144 11.198192,5.8000004 Z"
     style="fill:#ffffff"
     id="path1" />
</svg>
