<?xml version="1.0" encoding="UTF-8" standalone="no"?>
<!-- Created with Inkscape (http://www.inkscape.org/) -->

<svg
   width="16"
   height="16"
   viewBox="0 0 16 16.000001"
   version="1.1"
   id="svg1"
   inkscape:version="1.4.2 (ebf0e940d0, 2025-05-08)"
   sodipodi:docname="steam.svg"
   xmlns:inkscape="http://www.inkscape.org/namespaces/inkscape"
   xmlns:sodipodi="http://sodipodi.sourceforge.net/DTD/sodipodi-0.dtd"
   xmlns:xlink="http://www.w3.org/1999/xlink"
   xmlns="http://www.w3.org/2000/svg"
   xmlns:svg="http://www.w3.org/2000/svg">
  <sodipodi:namedview
     id="namedview1"
     pagecolor="#ffffff"
     bordercolor="#000000"
     borderopacity="0.25"
     inkscape:showpageshadow="2"
     inkscape:pageopacity="0.0"
     inkscape:pagecheckerboard="0"
     inkscape:deskcolor="#d1d1d1"
     inkscape:document-units="px"
     inkscape:zoom="49.125"
     inkscape:cx="7.9898219"
     inkscape:cy="8"
     inkscape:window-width="1920"
     inkscape:window-height="1011"
     inkscape:window-x="0"
     inkscape:window-y="0"
     inkscape:window-maximized="1"
     inkscape:current-layer="svg1" />
  <defs
     id="defs1">
    <linearGradient
       inkscape:collect="always"
       id="linearGradient13">
      <stop
         style="stop-color:#202020;stop-opacity:1;"
         offset="0"
         id="stop7" />
      <stop
         style="stop-color:#1f1f1f;stop-opacity:1;"
         offset="0.2"
         id="stop8" />
      <stop
         style="stop-color:#292929;stop-opacity:1;"
         offset="0.40000001"
         id="stop9" />
      <stop
         style="stop-color:#3b3b3b;stop-opacity:1;"
         offset="0.60000002"
         id="stop10" />
      <stop
         style="stop-color:#494949;stop-opacity:1;"
         offset="0.69999999"
         id="stop11" />
      <stop
         style="stop-color:#555555;stop-opacity:1;"
         offset="0.87"
         id="stop12" />
      <stop
         style="stop-color:#666666;stop-opacity:1;"
         offset="1"
         id="stop13" />
    </linearGradient>
    <linearGradient
       inkscape:collect="always"
       xlink:href="#linearGradient13"
       id="linearGradient4"
       x1="16"
       y1="1.9999999"
       x2="16"
       y2="30"
       gradientUnits="userSpaceOnUse"
       gradientTransform="matrix(0.57142857,0,0,0.57142857,-1.1428571,-1.1428571)" />
  </defs>
  <rect
     style="fill:url(#linearGradient4);stroke-width:0.571429"
     id="rect2"
     width="16"
     height="16"
     x="0"
     y="0"
     ry="4" />
  <path
     id="path897"
     style="fill:#ffffff;stroke-width:0.999999"
     d="M 10.5,3 C 8.5670046,3 7,4.5670053 7,6.5 7.00158,6.529329 7.00354,6.558618 7.00586,6.587891 L 5.5585938,9.001954 c -0.01954,-8.8e-4 -0.039058,-0.0015 -0.058594,-0.002 -0.576468,0.0016 -1.134667,0.2023985 -1.5800781,0.5683585 L 0,7.8017575 V 10 l 3.0117188,1.34961 c -0.00542,0.05 -0.00933,0.100153 -0.011719,0.150391 0,1.380711 1.1192893,2.5 2.5,2.5 1.3807102,0 2.5,-1.119289 2.5,-2.5 -1.814e-4,-0.117638 -0.00865,-0.23512 -0.025391,-0.351562 L 10.001952,9.964844 h 0.002 c 0.164227,0.02347 0.330058,0.03523 0.496047,0.03516 1.932995,0 3.5,-1.5670128 3.5,-3.5000075 C 13.999999,4.5670052 12.432994,3 10.5,3 Z m 0,1.5 c 1.104568,0 2,0.8954316 2,2 0,1.1045685 -0.895432,2 -2,2 -1.104569,0 -2,-0.8954315 -2,-2 0,-1.1045684 0.895431,-2 2,-2 z m 0,0.5 C 9.671573,5 9,5.6715738 9,6.5 9,7.3284263 9.671573,8 10.5,8 11.328426,8 12,7.3284263 12,6.5 12,5.6715738 11.328426,5 10.5,5 Z m -5,5.000001 c 0.8284263,0 1.5,0.671574 1.5,1.5 0,0.828426 -0.6715737,1.5 -1.5,1.5 -0.677839,-0.0029 -1.269491,-0.460067 -1.4433594,-1.115234 l 0.9882813,0.505859 c 1.187636,0.607195 2.0977921,-1.174055 0.9101562,-1.78125 L 4.9609375,10.101562 C 5.1328529,10.034862 5.3155974,10.000431 5.5,10.000001 Z"
     sodipodi:nodetypes="scccccccccscccccsssssssscssscsccccccs" />
</svg>
