<?xml version="1.0" encoding="UTF-8" standalone="no"?>
<!-- Created with Inkscape (http://www.inkscape.org/) -->

<svg
   width="16"
   height="16"
   viewBox="0 0 16 16.000001"
   version="1.1"
   id="svg1"
   inkscape:version="1.4.2 (ebf0e940d0, 2025-05-08)"
   sodipodi:docname="thingy.svg"
   xmlns:inkscape="http://www.inkscape.org/namespaces/inkscape"
   xmlns:sodipodi="http://sodipodi.sourceforge.net/DTD/sodipodi-0.dtd"
   xmlns:xlink="http://www.w3.org/1999/xlink"
   xmlns="http://www.w3.org/2000/svg"
   xmlns:svg="http://www.w3.org/2000/svg">
  <sodipodi:namedview
     id="namedview1"
     pagecolor="#ffffff"
     bordercolor="#000000"
     borderopacity="0.25"
     inkscape:showpageshadow="2"
     inkscape:pageopacity="0.0"
     inkscape:pagecheckerboard="0"
     inkscape:deskcolor="#d1d1d1"
     inkscape:document-units="px"
     inkscape:zoom="49.125"
     inkscape:cx="7.9898219"
     inkscape:cy="8"
     inkscape:window-width="1920"
     inkscape:window-height="1011"
     inkscape:window-x="0"
     inkscape:window-y="0"
     inkscape:window-maximized="1"
     inkscape:current-layer="svg1" />
  <defs
     id="defs1">
    <linearGradient
       inkscape:collect="always"
       xlink:href="#4852"
       id="linearGradient2"
       x1="16"
       y1="15.735369"
       x2="16"
       y2="0"
       gradientUnits="userSpaceOnUse" />
    <linearGradient
       inkscape:collect="always"
       id="4852">
      <stop
         style="stop-color:#272727;stop-opacity:1;"
         offset="0"
         id="stop14555" />
      <stop
         style="stop-color:#5d5d5d;stop-opacity:1;"
         offset="1"
         id="stop14557" />
    </linearGradient>
    <linearGradient
       inkscape:collect="always"
       id="linearGradient1778">
      <stop
         style="stop-color:#a42020;stop-opacity:1;"
         offset="0"
         id="stop1774" />
      <stop
         style="stop-color:#de6060;stop-opacity:1;"
         offset="1"
         id="stop1776" />
    </linearGradient>
    <linearGradient
       inkscape:collect="always"
       xlink:href="#linearGradient1778"
       id="linearGradient3"
       x1="8"
       y1="16"
       x2="8"
       y2="0"
       gradientUnits="userSpaceOnUse" />
  </defs>
  <rect
     style="fill:url(#linearGradient2)"
     id="rect1"
     width="16"
     height="16"
     x="0"
     y="0"
     ry="4" />
  <path
     id="path4193"
     style="fill:url(#linearGradient3);stroke-width:1.00001;stroke-linecap:square;stroke-linejoin:round"
     d="m 4,3.9995792 c -0.5540034,0 -1,0.4459966 -1,1 v 2.4999039 c 0,0.01516 0.00125,0.02992 0.00195,0.04492 -0.01133,0.269448 0.086354,0.543389 0.2929688,0.75 l 3.4100625,3.4118819 c 0.3917236,0.391759 1.0223229,0.391741 1.4140625,0 L 10.705013,9.1208028 c 0.391777,-0.3917035 0.39174,-1.0223226 0,-1.4140633 L 7.294844,4.2945011 C 7.088233,4.0878903 6.8142916,3.9902033 6.5448439,4.0015323 c -0.014995,-6.5e-4 -0.029757,-0.00195 -0.044922,-0.00195 z m 4.413984,0 2.998063,3.000131 c 0.771049,0.7712639 0.771158,2.0569676 0,2.8281256 l -1.7930002,1.7925142 0.08594,0.08594 c 0.3917412,0.391741 1.0222862,0.391704 1.4140642,0 l 2.585968,-2.5854822 c 0.391741,-0.3917404 0.391696,-1.0222771 0,-1.4140633 L 10.294844,4.2945011 c -0.206587,-0.2066348 -0.480553,-0.3042978 -0.75,-0.2929688 -0.015,-6.5e-4 -0.02976,-0.00195 -0.04492,-0.00195 z"
     sodipodi:nodetypes="cssccccscccccccccsscccccc" />
</svg>
