<?xml version="1.0" encoding="UTF-8" standalone="no"?>
<!-- Created with Inkscape (http://www.inkscape.org/) -->

<svg
   width="16"
   height="16"
   viewBox="0 0 16 16.000001"
   version="1.1"
   id="svg1"
   inkscape:version="1.4.2 (ebf0e940d0, 2025-05-08)"
   sodipodi:docname="warpinator.svg"
   xmlns:inkscape="http://www.inkscape.org/namespaces/inkscape"
   xmlns:sodipodi="http://sodipodi.sourceforge.net/DTD/sodipodi-0.dtd"
   xmlns:xlink="http://www.w3.org/1999/xlink"
   xmlns="http://www.w3.org/2000/svg"
   xmlns:svg="http://www.w3.org/2000/svg">
  <sodipodi:namedview
     id="namedview1"
     pagecolor="#ffffff"
     bordercolor="#000000"
     borderopacity="0.25"
     inkscape:showpageshadow="2"
     inkscape:pageopacity="0.0"
     inkscape:pagecheckerboard="0"
     inkscape:deskcolor="#d1d1d1"
     inkscape:document-units="px"
     inkscape:zoom="49.75"
     inkscape:cx="7.9899497"
     inkscape:cy="8"
     inkscape:window-width="1920"
     inkscape:window-height="1011"
     inkscape:window-x="0"
     inkscape:window-y="0"
     inkscape:window-maximized="1"
     inkscape:current-layer="svg1" />
  <defs
     id="defs1">
    <linearGradient
       inkscape:collect="always"
       xlink:href="#4852"
       id="linearGradient2"
       x1="16"
       y1="15.735369"
       x2="16"
       y2="0"
       gradientUnits="userSpaceOnUse" />
    <linearGradient
       inkscape:collect="always"
       id="4852">
      <stop
         style="stop-color:#272727;stop-opacity:1;"
         offset="0"
         id="stop14555" />
      <stop
         style="stop-color:#5d5d5d;stop-opacity:1;"
         offset="1"
         id="stop14557" />
    </linearGradient>
    <linearGradient
       inkscape:collect="always"
       id="linearGradient1141">
      <stop
         style="stop-color:#795bca;stop-opacity:1;"
         offset="0"
         id="stop1137" />
      <stop
         style="stop-color:#a088ee;stop-opacity:1;"
         offset="1"
         id="stop1139" />
    </linearGradient>
    <linearGradient
       inkscape:collect="always"
       xlink:href="#linearGradient1141"
       id="linearGradient3"
       x1="8"
       y1="16"
       x2="8"
       y2="0"
       gradientUnits="userSpaceOnUse" />
  </defs>
  <rect
     style="fill:url(#linearGradient2)"
     id="rect1"
     width="16"
     height="16"
     x="0"
     y="0"
     ry="4" />
  <path
     d="m 11.749547,3 c -0.690356,0 -1.25,0.5596441 -1.25,1.25 1.36e-4,0.1403429 0.02391,0.2796608 0.07031,0.4121094 L 8.968297,6.2519531 C 8.6719569,6.087212 8.3385998,6.0005122 7.999547,6 c -1.1045695,0 -2,0.8954305 -2,2 8.958e-4,0.09153 0.00807,0.1828907 0.021484,0.2734375 l -2.8320313,0.40625 C 3.0432231,8.4935593 2.8199521,8.3848049 2.5835314,8.3847656 2.1584622,8.3845995 1.813834,8.7292277 1.8140001,9.1542966 c -1.66e-4,0.425069 0.3444622,0.769698 0.7695313,0.769532 0.3137827,-3.56e-4 0.5958964,-0.191266 0.7128906,-0.482422 L 6.2573595,8.9804688 C 6.6114131,9.6099436 7.2773339,9.9996416 7.999547,9.9999996 8.6807924,10.000107 9.3152417,9.6534416 9.6831408,9.0800781 l 0.00195,-0.00195 C 9.7361184,9.0119622 9.7759189,8.9341617 9.8081408,8.8476562 9.9332977,8.5825477 9.9986423,8.2931656 9.999547,8 9.9993761,7.681282 9.923037,7.3672201 9.7768908,7.0839844 L 11.403844,5.4511719 c 0.112383,0.032368 0.228752,0.048804 0.345703,0.048828 0.690356,0 1.25,-0.5596441 1.25,-1.25 0,-0.6903559 -0.559644,-1.25 -1.25,-1.2499999 z m 0,0.75 c 0.276142,0 0.5,0.2238576 0.5,0.5 0,0.2761424 -0.223858,0.5 -0.5,0.5 -0.276142,0 -0.5,-0.2238576 -0.5,-0.5 0,-0.2761424 0.223858,-0.5 0.5,-0.5 z m -6.5,0.25 c -0.4142136,0 -0.75,0.3357864 -0.75,0.75 0,0.4142136 0.3357864,0.75 0.75,0.75 0.4142136,0 0.75,-0.3357864 0.75,-0.75 0,-0.4142136 -0.3357864,-0.75 -0.75,-0.75 z M 6.0522814,5.2519531 5.7046251,5.5429688 5.9702501,5.8769531 6.3159532,5.5859375 Z m 0.3964844,0.5 -0.3496094,0.2910157 0.3496094,0.4375 0.3496093,-0.2890626 z M 7.999547,7 c 0.5522847,0 1,0.4477153 1,1 0,0.5522847 -0.4477153,1 -1,1 -0.5522847,0 -1,-0.4477153 -1,-1 0,-0.5522847 0.4477153,-1 1,-1 z M 2.5561876,8.7695312 c 0.00911,-3.241e-4 0.018232,-3.241e-4 0.027344,0 0.2125341,-8.27e-5 0.3848485,0.1722312 0.3847654,0.3847654 8.3e-5,0.212535 -0.172231,0.384849 -0.3847656,0.384766 C 2.3709968,9.5391456 2.1986826,9.3668316 2.1987658,9.1542966 2.1981802,8.9520038 2.3543999,8.7838333 2.5561876,8.7695312 Z M 9.6538439,9.4980466 9.2261095,9.8906246 9.7319689,10.439453 10.15775,10.046875 Z M 6.9468126,10.125 6.4702501,11.029297 6.9936876,11.277344 7.468297,10.371094 Z m 3.3925784,0.121094 -0.4238284,0.390625 0.5839844,0.632812 0.423828,-0.390625 z M 11.499547,11 c -0.552285,0 -1,0.447715 -1,1 0,0.552285 0.447715,1 1,1 0.552285,0 1,-0.447715 1,-1 0,-0.552285 -0.447715,-1 -1,-1 z m -5.25,0.5 c -0.4142136,0 -0.7500001,0.335786 -0.75,0.75 -10e-8,0.414214 0.3357864,0.75 0.75,0.75 0.4142136,0 0.7500001,-0.335786 0.75,-0.75 1e-7,-0.414214 -0.3357864,-0.75 -0.75,-0.75 z"
     style="fill:url(#linearGradient3)"
     id="path1" />
</svg>
