<?xml version="1.0" encoding="UTF-8" standalone="no"?>
<!-- Created with Inkscape (http://www.inkscape.org/) -->

<svg
   width="16"
   height="16"
   viewBox="0 0 16 16.000001"
   version="1.1"
   id="svg1"
   inkscape:version="1.4.2 (ebf0e940d0, 2025-05-08)"
   sodipodi:docname="youtube-dl.svg"
   xmlns:inkscape="http://www.inkscape.org/namespaces/inkscape"
   xmlns:sodipodi="http://sodipodi.sourceforge.net/DTD/sodipodi-0.dtd"
   xmlns:xlink="http://www.w3.org/1999/xlink"
   xmlns="http://www.w3.org/2000/svg"
   xmlns:svg="http://www.w3.org/2000/svg">
  <sodipodi:namedview
     id="namedview1"
     pagecolor="#ffffff"
     bordercolor="#000000"
     borderopacity="0.25"
     inkscape:showpageshadow="2"
     inkscape:pageopacity="0.0"
     inkscape:pagecheckerboard="0"
     inkscape:deskcolor="#d1d1d1"
     inkscape:document-units="px"
     inkscape:zoom="49.125"
     inkscape:cx="7.9898219"
     inkscape:cy="7.9898219"
     inkscape:window-width="1920"
     inkscape:window-height="1010"
     inkscape:window-x="0"
     inkscape:window-y="0"
     inkscape:window-maximized="1"
     inkscape:current-layer="svg1" />
  <defs
     id="defs1">
    <linearGradient
       inkscape:collect="always"
       xlink:href="#4852"
       id="linearGradient2"
       x1="16"
       y1="15.735369"
       x2="16"
       y2="0"
       gradientUnits="userSpaceOnUse" />
    <linearGradient
       inkscape:collect="always"
       id="4852">
      <stop
         style="stop-color:#272727;stop-opacity:1;"
         offset="0"
         id="stop14555" />
      <stop
         style="stop-color:#5d5d5d;stop-opacity:1;"
         offset="1"
         id="stop14557" />
    </linearGradient>
  </defs>
  <rect
     style="fill:url(#linearGradient2)"
     id="rect1"
     width="16"
     height="16"
     x="0"
     y="0"
     ry="4" />
  <path
     id="path1633"
     style="fill:#ff0000;fill-opacity:1;stroke-width:0.0943325"
     d="M 7.9589844 4 C 7.9589844 4 4.1462368 4.00103 3.2480469 4.2363281 C 2.7658609 4.3680884 2.3686928 4.7625446 2.2363281 5.2519531 C 1.9999625 6.1460692 2 8 2 8 C 2 8 1.9999625 9.8633429 2.2363281 10.748047 C 2.3686934 11.237456 2.7564065 11.624097 3.2480469 11.755859 C 4.1556908 12.000565 7.9589844 12 7.9589844 12 C 7.9589844 12 11.853764 11.999 12.751953 11.763672 C 13.243596 11.631912 13.631306 11.247223 13.763672 10.757812 C 14.000039 9.8636965 14 8.0097656 14 8.0097656 C 14 8.0097656 14.0093 6.1460692 13.763672 5.2519531 C 13.631306 4.7625446 13.243596 4.3759048 12.751953 4.2441406 C 11.853764 3.9994361 7.9589844 4 7.9589844 4 z M 7.25 5 L 8.75 5 L 8.75 9 L 10 9 L 8 11 L 6 9 L 7.25 9 L 7.25 5 z " />
</svg>
