<?xml version="1.0" encoding="UTF-8" standalone="no"?>
<!-- Created with Inkscape (http://www.inkscape.org/) -->

<svg
   width="64"
   height="64"
   viewBox="0 0 64 64"
   version="1.1"
   id="svg5"
   inkscape:version="1.4.2 (ebf0e940d0, 2025-05-08)"
   sodipodi:docname="audio-card.svg"
   xmlns:inkscape="http://www.inkscape.org/namespaces/inkscape"
   xmlns:sodipodi="http://sodipodi.sourceforge.net/DTD/sodipodi-0.dtd"
   xmlns:xlink="http://www.w3.org/1999/xlink"
   xmlns="http://www.w3.org/2000/svg"
   xmlns:svg="http://www.w3.org/2000/svg">
  <sodipodi:namedview
     id="namedview7"
     pagecolor="#ffffff"
     bordercolor="#000000"
     borderopacity="0.25"
     inkscape:showpageshadow="2"
     inkscape:pageopacity="0.0"
     inkscape:pagecheckerboard="0"
     inkscape:deskcolor="#d1d1d1"
     inkscape:document-units="px"
     showgrid="false"
     inkscape:zoom="12.28125"
     inkscape:cx="31.959288"
     inkscape:cy="32"
     inkscape:window-width="1920"
     inkscape:window-height="1011"
     inkscape:window-x="0"
     inkscape:window-y="0"
     inkscape:window-maximized="1"
     inkscape:current-layer="svg5" />
  <defs
     id="defs2">
    <linearGradient
       inkscape:collect="always"
       xlink:href="#linearGradient981"
       id="linearGradient6"
       x1="16"
       y1="8"
       x2="16"
       y2="24"
       gradientUnits="userSpaceOnUse"
       gradientTransform="matrix(2.125,0,0,2.125,-2,-2)" />
    <linearGradient
       inkscape:collect="always"
       id="linearGradient981">
      <stop
         style="stop-color:#858585;stop-opacity:1;"
         offset="0"
         id="stop977" />
      <stop
         style="stop-color:#595959;stop-opacity:1;"
         offset="1"
         id="stop979" />
    </linearGradient>
    <linearGradient
       inkscape:collect="always"
       xlink:href="#linearGradient1940"
       id="linearGradient4"
       x1="16"
       y1="30"
       x2="16"
       y2="2"
       gradientUnits="userSpaceOnUse"
       gradientTransform="scale(2)" />
    <linearGradient
       inkscape:collect="always"
       id="linearGradient1940">
      <stop
         style="stop-color:#28b013;stop-opacity:1;"
         offset="0"
         id="stop1936" />
      <stop
         style="stop-color:#4ac265;stop-opacity:1;"
         offset="1"
         id="stop1938" />
    </linearGradient>
  </defs>
  <rect
     style="opacity:0.2;fill:#000000;stroke-width:3.5"
     id="rect1"
     width="56"
     height="56"
     x="4"
     y="5"
     ry="12" />
  <rect
     style="fill:url(#linearGradient4);stroke-width:2"
     id="rect2"
     width="56"
     height="56"
     x="4"
     y="4"
     ry="12" />
  <path
     id="rect7545"
     style="fill:#f2f2f2;stroke-width:4.23623;stroke-linecap:round;stroke-linejoin:round"
     d="M 25 11 C 24.446002 11 24 11.446002 24 12 L 24 24 L 12 24 C 11.446002 24 11 24.446002 11 25 C 11 25.553999 11.446002 26 12 26 L 24 26 L 24 31 L 12 31 C 11.446002 31 11 31.446002 11 32 C 11 32.553998 11.446002 33 12 33 L 24 33 L 24 38 L 12 38 C 11.446002 38 11 38.446002 11 39 C 11 39.553998 11.446002 40 12 40 L 24 40 L 24 52 C 24 52.553998 24.446002 53 25 53 C 25.553998 53 26 52.553998 26 52 L 26 40 L 31 40 L 31 52 C 31 52.553998 31.446002 53 32 53 C 32.553998 53 33 52.553998 33 52 L 33 40 L 38 40 L 38 52 C 38 52.553998 38.446002 53 39 53 C 39.553998 53 40 52.553998 40 52 L 40 40 L 52 40 C 52.553998 40 53 39.553998 53 39 C 53 38.446002 52.553998 38 52 38 L 40 38 L 40 33 L 52 33 C 52.553998 33 53 32.553998 53 32 C 53 31.446002 52.553998 31 52 31 L 40 31 L 40 26 L 52 26 C 52.553998 26 53 25.553999 53 25 C 53 24.446002 52.553998 24 52 24 L 40 24 L 40 12 C 40 11.446002 39.553998 11 39 11 C 38.446002 11 38 11.446002 38 12 L 38 24 L 33 24 L 33 12 C 33 11.446002 32.553998 11 32 11 C 31.446002 11 31 11.446002 31 12 L 31 24 L 26 24 L 26 12 C 26 11.446002 25.553998 11 25 11 z M 26 26 L 31 26 L 31 31 L 26 31 L 26 26 z M 33 26 L 38 26 L 38 31 L 33 31 L 33 26 z M 26 33 L 31 33 L 31 38 L 26 38 L 26 33 z M 33 33 L 38 33 L 38 38 L 33 38 L 33 33 z " />
  <rect
     style="opacity:0.2;fill:#000000;stroke-width:2.125"
     id="rect3"
     width="34"
     height="34"
     x="15"
     y="16"
     ry="7" />
  <rect
     style="fill:url(#linearGradient6);stroke-width:2.125"
     id="rect4"
     width="34"
     height="34"
     x="15"
     y="15"
     ry="7" />
</svg>
