<?xml version="1.0" encoding="UTF-8" standalone="no"?>
<!-- Created with Inkscape (http://www.inkscape.org/) -->

<svg
   width="32"
   height="32"
   viewBox="0 0 32 32"
   version="1.1"
   id="svg5"
   inkscape:version="1.4.2 (ebf0e940d0, 2025-05-08)"
   sodipodi:docname="audio-card.svg"
   xmlns:inkscape="http://www.inkscape.org/namespaces/inkscape"
   xmlns:sodipodi="http://sodipodi.sourceforge.net/DTD/sodipodi-0.dtd"
   xmlns:xlink="http://www.w3.org/1999/xlink"
   xmlns="http://www.w3.org/2000/svg"
   xmlns:svg="http://www.w3.org/2000/svg">
  <sodipodi:namedview
     id="namedview7"
     pagecolor="#ffffff"
     bordercolor="#000000"
     borderopacity="0.25"
     inkscape:showpageshadow="2"
     inkscape:pageopacity="0.0"
     inkscape:pagecheckerboard="0"
     inkscape:deskcolor="#d1d1d1"
     inkscape:document-units="px"
     showgrid="false"
     inkscape:zoom="24.5625"
     inkscape:cx="15.979644"
     inkscape:cy="16"
     inkscape:window-width="1920"
     inkscape:window-height="1011"
     inkscape:window-x="0"
     inkscape:window-y="0"
     inkscape:window-maximized="1"
     inkscape:current-layer="svg5" />
  <defs
     id="defs2">
    <linearGradient
       inkscape:collect="always"
       id="linearGradient1940">
      <stop
         style="stop-color:#28b013;stop-opacity:1;"
         offset="0"
         id="stop1936" />
      <stop
         style="stop-color:#4ac265;stop-opacity:1;"
         offset="1"
         id="stop1938" />
    </linearGradient>
    <linearGradient
       inkscape:collect="always"
       id="linearGradient981">
      <stop
         style="stop-color:#858585;stop-opacity:1;"
         offset="0"
         id="stop977" />
      <stop
         style="stop-color:#595959;stop-opacity:1;"
         offset="1"
         id="stop979" />
    </linearGradient>
    <linearGradient
       inkscape:collect="always"
       xlink:href="#linearGradient1940"
       id="linearGradient4"
       x1="16"
       y1="30"
       x2="16"
       y2="2"
       gradientUnits="userSpaceOnUse" />
    <linearGradient
       inkscape:collect="always"
       xlink:href="#linearGradient981"
       id="linearGradient6"
       x1="16"
       y1="8"
       x2="16"
       y2="24"
       gradientUnits="userSpaceOnUse" />
  </defs>
  <rect
     style="opacity:0.2;fill:#000000;stroke-width:1.75"
     id="rect1"
     width="28"
     height="28"
     x="2"
     y="3"
     ry="6" />
  <rect
     style="fill:url(#linearGradient4)"
     id="rect2"
     width="28"
     height="28"
     x="2"
     y="2"
     ry="6" />
  <path
     id="rect4242"
     style="fill:#f2f2f2;stroke-width:4;stroke-linecap:round;stroke-linejoin:round"
     d="M 14 6 C 13.446001 6 13 6.4460006 13 7 L 13 13 L 7 13 C 6.4460006 13 6 13.446001 6 14 C 6 14.553999 6.4460006 15 7 15 L 13 15 L 13 17 L 7 17 C 6.4460006 17 6 17.446001 6 18 C 6 18.553999 6.4460006 19 7 19 L 13 19 L 13 25 C 13 25.553999 13.446001 26 14 26 C 14.553999 26 15 25.553999 15 25 L 15 19 L 17 19 L 17 25 C 17 25.553999 17.446001 26 18 26 C 18.553999 26 19 25.553999 19 25 L 19 19 L 25 19 C 25.553999 19 26 18.553999 26 18 C 26 17.446001 25.553999 17 25 17 L 19 17 L 19 15 L 25 15 C 25.553999 15 26 14.553999 26 14 C 26 13.446001 25.553999 13 25 13 L 19 13 L 19 7 C 19 6.4460006 18.553999 6 18 6 C 17.446001 6 17 6.4460006 17 7 L 17 13 L 15 13 L 15 7 C 15 6.4460006 14.553999 6 14 6 z M 15 15 L 17 15 L 17 17 L 15 17 L 15 15 z " />
  <rect
     style="opacity:0.2;fill:#000000"
     id="rect3"
     width="16"
     height="16"
     x="8"
     y="9"
     ry="3.5" />
  <rect
     style="opacity:1;fill:url(#linearGradient6)"
     id="rect4"
     width="16"
     height="16"
     x="8"
     y="8"
     ry="3.5" />
</svg>
