<?xml version="1.0" encoding="UTF-8" standalone="no"?>
<!-- Created with Inkscape (http://www.inkscape.org/) -->

<svg
   width="16"
   height="16"
   viewBox="0 0 16 16.000001"
   version="1.1"
   id="svg1"
   inkscape:version="1.4.2 (ebf0e940d0, 2025-05-08)"
   sodipodi:docname="androidstudio-preview.svg"
   xmlns:inkscape="http://www.inkscape.org/namespaces/inkscape"
   xmlns:sodipodi="http://sodipodi.sourceforge.net/DTD/sodipodi-0.dtd"
   xmlns="http://www.w3.org/2000/svg"
   xmlns:svg="http://www.w3.org/2000/svg">
  <sodipodi:namedview
     id="namedview1"
     pagecolor="#ffffff"
     bordercolor="#000000"
     borderopacity="0.25"
     inkscape:showpageshadow="2"
     inkscape:pageopacity="0.0"
     inkscape:pagecheckerboard="0"
     inkscape:deskcolor="#d1d1d1"
     inkscape:document-units="px"
     inkscape:zoom="48.25"
     inkscape:cx="7.9896373"
     inkscape:cy="8"
     inkscape:window-width="1920"
     inkscape:window-height="997"
     inkscape:window-x="0"
     inkscape:window-y="0"
     inkscape:window-maximized="1"
     inkscape:current-layer="svg1" />
  <defs
     id="defs1" />
  <rect
     style="fill:#132f40;fill-opacity:1"
     id="rect1"
     width="16"
     height="16"
     x="0"
     y="0"
     ry="4" />
  <path
     id="path1"
     style="fill:#3ddc84;fill-opacity:1"
     d="m 12.396484,5 c -0.0082,3.56e-5 -0.01723,0.00108 -0.02539,0.00195 -0.06531,0.00701 -0.128293,0.040159 -0.173828,0.097656 L 11.613281,5.8359375 C 11.132349,5.4483512 10.410828,5.2615298 9.7695312,5.28125 9.3102957,5.2953717 8.9193795,5.5798787 8.4765625,5.7597656 L 9.34375,8.2460938 10.212891,10.732422 c 0.446254,-0.170043 1.039954,-0.362247 1.273437,-0.533203 0.427968,-0.313358 0.931688,-1.070441 1.058594,-1.6972659 l 0.892578,0.15625 c 0.139645,0.024188 0.274143,-0.076738 0.298828,-0.2226562 0.02466,-0.1459494 -0.06933,-0.2843927 -0.208984,-0.3085938 L 12.603516,7.9667969 c 0.009,-0.3586272 -0.04399,-0.6778465 -0.128907,-0.9550781 -0.105715,-0.2690486 -0.261391,-0.5467051 -0.488281,-0.8125 l 0.603516,-0.7597657 c 0.09105,-0.1150003 0.0751,-0.2852811 -0.0332,-0.3789062 C 12.509233,5.0196074 12.453593,4.9997509 12.396484,5 Z M 10.5,6 A 0.5,0.50000042 0 0 1 11,6.5 0.5,0.50000042 0 0 1 10.5,7 0.5,0.50000042 0 0 1 10,6.5 0.5,0.50000042 0 0 1 10.5,6 Z m 1,2 A 0.5,0.50000042 0 0 1 12,8.5 0.5,0.50000042 0 0 1 11.5,9 0.5,0.50000042 0 0 1 11,8.5 0.5,0.50000042 0 0 1 11.5,8 Z" />
  <path
     id="path4"
     style="fill:#ffffff"
     d="M 7.5 1 C 7.367386 1 7.2402532 1.0608949 7.1464844 1.1679688 C 7.0527158 1.2750425 7 1.4188901 7 1.5703125 L 7 3.296875 C 6.962271 3.305715 6.925418 3.3164881 6.8886719 3.3300781 C 6.6543004 3.4167571 6.4636179 3.5943405 6.3574219 3.8222656 C 6.2512251 4.0501457 6.2369415 4.3114213 6.3203125 4.5488281 L 6.4433594 4.8847656 L 5.25 8.1914062 C 4.7967334 7.7938265 4.3442169 7.2310892 3.8085938 6.4628906 C 3.5670274 6.1164328 3.2209771 6 2.9589844 6 C 2.484509 6 2 6.3932198 2 7.0078125 C 2 7.1667454 2.037637 7.3359811 2.1230469 7.5097656 L 2.1230469 7.5117188 C 2.725192 8.6543218 3.5680617 9.5503255 4.5429688 10.148438 L 3.9335938 11.839844 C 3.8953657 13.094794 3.9169356 13.470067 3.8847656 13.765625 C 3.8668146 13.822165 3.8699842 13.883562 3.8945312 13.9375 C 3.9190283 13.99149 3.9634483 14.03344 4.0175781 14.056641 C 4.0717521 14.079841 4.1319621 14.08199 4.1875 14.0625 C 4.242992 14.0428 4.2885466 14.00347 4.3164062 13.951172 C 4.4877372 13.78941 4.756845 13.451333 5.7402344 12.501953 L 6.328125 10.873047 C 6.7120495 10.956996 7.1035151 11 7.5 11 C 7.8686883 11 8.245942 10.96319 8.6210938 10.886719 L 9.1582031 12.363281 C 9.2000231 12.482475 10.554688 13.958984 10.554688 13.958984 C 10.582548 14.011284 10.628108 14.050615 10.683594 14.070312 C 10.739084 14.089882 10.799346 14.087733 10.853516 14.064453 C 10.907636 14.041293 10.952067 13.999294 10.976562 13.945312 C 11.001072 13.891372 11.004178 13.829968 10.986328 13.773438 C 11.014378 13.09555 10.908993 12.170488 10.939453 11.705078 L 8.4765625 4.9199219 L 8.5605469 4.6855469 C 8.6477289 4.4439618 8.6350358 4.1764268 8.5273438 3.9433594 C 8.421837 3.7150218 8.2327824 3.5370514 8 3.4472656 L 8 1.5703125 C 8 1.4188901 7.9472834 1.2750426 7.8535156 1.1679688 C 7.759747 1.060895 7.6326134 1 7.5 1 z M 7.46875 7.7109375 L 7.9257812 8.9707031 C 7.7827629 8.9894949 7.6404007 9 7.5 9 C 7.3291482 9 7.1664158 8.9929716 7.0117188 8.9765625 L 7.46875 7.7109375 z " />
  <path
     d="m 7.5276375,5.5762125 c 0.2890875,0 0.566325,-0.1155 0.7707375,-0.321075 0.2044125,-0.2056125 0.3192375,-0.4844625 0.3192375,-0.7752 0,-0.290775 -0.114825,-0.569625 -0.3192375,-0.7752 C 8.0939625,3.499125 7.816725,3.383625 7.5276375,3.383625 c -0.2890875,0 -0.566325,0.1155 -0.7707375,0.3211125 -0.2044125,0.205575 -0.319275,0.484425 -0.319275,0.7752 0,0.2907375 0.1148625,0.5695875 0.319275,0.7752 0.2044125,0.205575 0.48165,0.321075 0.7707375,0.321075 z"
     fill="#e4e4e4"
     id="path8"
     style="fill:#132f40;fill-opacity:1" />
  <path
     d="m 7.50015,3.6247875 c -0.232125,0 -0.454725,0.092213 -0.6188625,0.2563125 -0.1641375,0.1641375 -0.25635,0.3867375 -0.25635,0.618825 0,0.232125 0.092213,0.4546875 0.25635,0.618825 0.1641375,0.164175 0.3867375,0.2563125 0.6188625,0.2563125 0.232125,0 0.454725,-0.092138 0.6188625,-0.2563125 0.1641375,-0.1641375 0.25635,-0.3867 0.25635,-0.618825 0,-0.2320875 -0.092213,-0.4546875 -0.25635,-0.618825 C 7.954875,3.717 7.732275,3.6247875 7.50015,3.6247875 Z M 6,4.499925 C 6,4.302975 6.038775,4.1079 6.1141875,3.92595 6.189525,3.7439625 6.3000375,3.578625 6.4393125,3.4393125 6.5785875,3.3000375 6.7439625,3.1895625 6.92595,3.11415 7.1079375,3.0388125 7.302975,3 7.5,3 7.6969875,3 7.8919875,3.0388125 8.0740125,3.11415 8.256,3.1895625 8.421375,3.3000375 8.56065,3.4393125 8.699925,3.578625 8.8104375,3.7439625 8.885775,3.92595 8.9611875,4.1079 9,4.302975 9,4.499925 9,4.8977625 8.841975,5.27925 8.56065,5.560575 8.279325,5.841825 7.8978,5.99985 7.5,5.99985 7.1021625,5.99985 6.7206375,5.841825 6.4393125,5.560575 6.158025,5.27925 6,4.8977625 6,4.499925 Z"
     fill="#0a455f"
     fill-rule="evenodd"
     id="path9"
     style="fill:#ffffff;fill-opacity:1" />
</svg>
