<?xml version="1.0" encoding="UTF-8" standalone="no"?>
<!-- Created with Inkscape (http://www.inkscape.org/) -->

<svg
   width="16"
   height="16"
   viewBox="0 0 16 16.000001"
   version="1.1"
   id="svg1"
   inkscape:version="1.4 (e7c3feb100, 2024-10-09)"
   sodipodi:docname="applications-all.svg"
   xmlns:inkscape="http://www.inkscape.org/namespaces/inkscape"
   xmlns:sodipodi="http://sodipodi.sourceforge.net/DTD/sodipodi-0.dtd"
   xmlns:xlink="http://www.w3.org/1999/xlink"
   xmlns="http://www.w3.org/2000/svg"
   xmlns:svg="http://www.w3.org/2000/svg">
  <sodipodi:namedview
     id="namedview1"
     pagecolor="#ffffff"
     bordercolor="#000000"
     borderopacity="0.25"
     inkscape:showpageshadow="2"
     inkscape:pageopacity="0.0"
     inkscape:pagecheckerboard="0"
     inkscape:deskcolor="#d1d1d1"
     inkscape:document-units="px"
     inkscape:zoom="50.5"
     inkscape:cx="8.029703"
     inkscape:cy="8"
     inkscape:window-width="1920"
     inkscape:window-height="1011"
     inkscape:window-x="0"
     inkscape:window-y="0"
     inkscape:window-maximized="1"
     inkscape:current-layer="svg1" />
  <defs
     id="defs1">
    <linearGradient
       inkscape:collect="always"
       xlink:href="#linearGradient3147"
       id="linearGradient2"
       x1="8"
       y1="16"
       x2="8"
       y2="0"
       gradientUnits="userSpaceOnUse" />
    <linearGradient
       inkscape:collect="always"
       id="linearGradient3147">
      <stop
         style="stop-color:#0091f9;stop-opacity:1;"
         offset="0"
         id="stop3143" />
      <stop
         style="stop-color:#41bbff;stop-opacity:1;"
         offset="1"
         id="stop3145" />
    </linearGradient>
  </defs>
  <rect
     style="fill:url(#linearGradient2)"
     id="rect1"
     width="16"
     height="16"
     x="0"
     y="0"
     ry="4" />
  <path
     id="path433"
     style="fill:#ffffff;fill-opacity:1;stroke-width:9;stroke-linecap:round;stroke-linejoin:round"
     d="M 4,3 C 3.4477156,3 3,3.4477156 3,4 3,4.5522844 3.4477156,5 4,5 4.5522834,5 5,4.5522844 5,4 5,3.4477156 4.5522834,3 4,3 Z M 8,3 C 7.4477156,3 7,3.4477156 7,4 7,4.5522844 7.4477156,5 8,5 8.5522847,5 9,4.5522844 9,4 9,3.4477156 8.5522847,3 8,3 Z m 4,0 c -0.552284,0 -1,0.4477156 -1,1 0,0.5522844 0.447716,1 1,1 0.552284,0 1,-0.4477156 1,-1 C 13,3.4477156 12.552284,3 12,3 Z M 4,7 C 3.4477156,7 3,7.447716 3,8 3,8.552284 3.4477156,9 4,9 4.5522834,9 5,8.552284 5,8 5,7.447716 4.5522834,7 4,7 Z M 8,7 C 7.4477156,7 7,7.447716 7,8 7,8.552284 7.4477156,9 8,9 8.5522847,9 9,8.552284 9,8 9,7.447716 8.5522847,7 8,7 Z m 4,0 c -0.552284,0 -1,0.447716 -1,1 0,0.552284 0.447716,1 1,1 0.552284,0 1,-0.447716 1,-1 0,-0.552284 -0.447716,-1 -1,-1 z m -8,4 c -0.5522844,0 -1,0.447716 -1,1 0,0.552284 0.4477156,1 1,1 0.5522834,0 1,-0.447716 1,-1 0,-0.552284 -0.4477166,-1 -1,-1 z m 4,0 c -0.5522844,0 -1,0.447716 -1,1 0,0.552284 0.4477156,1 1,1 0.5522854,0 1,-0.447716 1,-1 0,-0.552284 -0.4477146,-1 -1,-1 z m 4,0 c -0.552284,0 -1,0.447716 -1,1 0,0.552284 0.447716,1 1,1 0.552284,0 1,-0.447716 1,-1 0,-0.552284 -0.447716,-1 -1,-1 z" />
</svg>
