<?xml version="1.0" encoding="UTF-8" standalone="no"?>
<!-- Created with Inkscape (http://www.inkscape.org/) -->

<svg
   width="16"
   height="16"
   viewBox="0 0 16 16.000001"
   version="1.1"
   id="svg1"
   inkscape:version="1.4.2 (ebf0e940d0, 2025-05-08)"
   sodipodi:docname="applications-other.svg"
   xmlns:inkscape="http://www.inkscape.org/namespaces/inkscape"
   xmlns:sodipodi="http://sodipodi.sourceforge.net/DTD/sodipodi-0.dtd"
   xmlns:xlink="http://www.w3.org/1999/xlink"
   xmlns="http://www.w3.org/2000/svg"
   xmlns:svg="http://www.w3.org/2000/svg">
  <sodipodi:namedview
     id="namedview1"
     pagecolor="#ffffff"
     bordercolor="#000000"
     borderopacity="0.25"
     inkscape:showpageshadow="2"
     inkscape:pageopacity="0.0"
     inkscape:pagecheckerboard="0"
     inkscape:deskcolor="#d1d1d1"
     inkscape:document-units="px"
     inkscape:zoom="49.6875"
     inkscape:cx="8"
     inkscape:cy="8"
     inkscape:window-width="1920"
     inkscape:window-height="1010"
     inkscape:window-x="0"
     inkscape:window-y="0"
     inkscape:window-maximized="1"
     inkscape:current-layer="svg1" />
  <defs
     id="defs1">
    <linearGradient
       inkscape:collect="always"
       xlink:href="#linearGradient1144"
       id="linearGradient2"
       x1="16"
       y1="15.735369"
       x2="16"
       y2="0"
       gradientUnits="userSpaceOnUse" />
    <linearGradient
       inkscape:collect="always"
       id="linearGradient1144">
      <stop
         style="stop-color:#adb2b9;stop-opacity:1;"
         offset="0"
         id="stop1140" />
      <stop
         style="stop-color:#e0e2e4;stop-opacity:1;"
         offset="1"
         id="stop1142" />
    </linearGradient>
  </defs>
  <rect
     style="fill:url(#linearGradient2)"
     id="rect1"
     width="16"
     height="16"
     x="0"
     y="0"
     ry="4" />
  <path
     id="path1026"
     style="fill:#666666;fill-opacity:1;stroke-width:9;stroke-linecap:round;stroke-linejoin:round"
     d="M 4,7 C 3.447715,7 3,7.447715 3,8 3,8.552285 3.447715,9 4,9 4.552284,9 5,8.552285 5,8 5,7.447715 4.552284,7 4,7 Z M 8,7 C 7.447715,7 7,7.447715 7,8 7,8.552285 7.447715,9 8,9 8.5522853,9 8.9999998,8.552285 8.9999998,8 8.9999998,7.447715 8.5522853,7 8,7 Z m 4,0 c -0.552285,0 -0.999999,0.447715 -0.999999,1 0,0.552285 0.447714,1 0.999999,1 0.552285,0 1,-0.447715 1,-1 0,-0.552285 -0.447715,-1 -1,-1 z"
     sodipodi:nodetypes="sssssssssssssss" />
</svg>
