<?xml version="1.0" encoding="UTF-8" standalone="no"?>
<!-- Created with Inkscape (http://www.inkscape.org/) -->

<svg
   width="16"
   height="16"
   viewBox="0 0 16 16.000001"
   version="1.1"
   id="svg1"
   inkscape:version="1.4.2 (ebf0e940d0, 2025-05-08)"
   sodipodi:docname="audacity.svg"
   xmlns:inkscape="http://www.inkscape.org/namespaces/inkscape"
   xmlns:sodipodi="http://sodipodi.sourceforge.net/DTD/sodipodi-0.dtd"
   xmlns:xlink="http://www.w3.org/1999/xlink"
   xmlns="http://www.w3.org/2000/svg"
   xmlns:svg="http://www.w3.org/2000/svg">
  <sodipodi:namedview
     id="namedview1"
     pagecolor="#ffffff"
     bordercolor="#000000"
     borderopacity="0.25"
     inkscape:showpageshadow="2"
     inkscape:pageopacity="0.0"
     inkscape:pagecheckerboard="0"
     inkscape:deskcolor="#d1d1d1"
     inkscape:document-units="px"
     inkscape:zoom="49.6875"
     inkscape:cx="8"
     inkscape:cy="8"
     inkscape:window-width="1920"
     inkscape:window-height="1010"
     inkscape:window-x="0"
     inkscape:window-y="0"
     inkscape:window-maximized="1"
     inkscape:current-layer="svg1" />
  <defs
     id="defs1">
    <linearGradient
       inkscape:collect="always"
       xlink:href="#linearGradient1161"
       id="linearGradient2"
       x1="8"
       y1="16"
       x2="8"
       y2="0"
       gradientUnits="userSpaceOnUse" />
    <linearGradient
       inkscape:collect="always"
       xlink:href="#linearGradient3010"
       id="linearGradient3012"
       x1="4"
       y1="10.500544"
       x2="12"
       y2="10.500544"
       gradientUnits="userSpaceOnUse" />
    <linearGradient
       inkscape:collect="always"
       id="linearGradient3010">
      <stop
         style="stop-color:#f2c204;stop-opacity:1;"
         offset="0"
         id="stop3006" />
      <stop
         style="stop-color:#f26c04;stop-opacity:1;"
         offset="1"
         id="stop3008" />
    </linearGradient>
    <linearGradient
       inkscape:collect="always"
       id="linearGradient1161">
      <stop
         style="stop-color:#1d49bf;stop-opacity:1;"
         offset="0"
         id="stop1157" />
      <stop
         style="stop-color:#689ddc;stop-opacity:1;"
         offset="1"
         id="stop1159" />
    </linearGradient>
  </defs>
  <rect
     style="fill:url(#linearGradient2)"
     id="rect1"
     width="16"
     height="16"
     x="0"
     y="0"
     ry="4" />
  <path
     style="color:#000000;fill:url(#linearGradient3012);fill-opacity:1;stroke:none;stroke-linecap:square;stroke-linejoin:round;-inkscape-stroke:none"
     d="M 6.5253906,8 A 0.50005,0.50005 0 0 0 6.0527344,8.2773438 L 5.1914062,10 H 4.5 4 v 1 h 0.5 1 A 0.50005,0.50005 0 0 0 5.9472656,10.722656 L 6.4335937,9.75 7.53125,12.675781 a 0.50005,0.50005 0 0 0 0.9375,0 L 9.5664063,9.75 10.052734,10.722656 A 0.50005,0.50005 0 0 0 10.5,11 h 1 0.5 V 10 H 11.5 10.808594 L 9.9472656,8.2773438 A 0.50005,0.50005 0 0 0 9.03125,8.3242188 L 8,11.074219 6.96875,8.3242188 A 0.50005,0.50005 0 0 0 6.5253906,8 Z"
     id="path3000" />
  <path
     id="rect344"
     style="fill:#ffffff;stroke-width:1.6;stroke-linecap:round;stroke-linejoin:round"
     d="M 8,3 C 5.7840044,3 4,4.7840044 4,7 v 4 H 5 V 7 C 5,5.3380034 6.3380034,4 8,4 c 1.6619966,0 3,1.3380034 3,3 v 4 h 1 V 7 C 12,4.7840044 10.215996,3 8,3 Z" />
  <rect
     style="fill:#ffffff;fill-opacity:1;stroke-width:2;stroke-linecap:round;stroke-linejoin:round"
     id="rect2893"
     width="2"
     height="4"
     x="11"
     y="8"
     ry="1" />
  <rect
     style="fill:#c4c4c4;fill-opacity:1;stroke-width:2;stroke-linecap:round;stroke-linejoin:round"
     id="rect502"
     width="1"
     height="4"
     x="11"
     y="8" />
  <rect
     style="fill:#ffffff;fill-opacity:1;stroke-width:2;stroke-linecap:round;stroke-linejoin:round"
     id="rect2891"
     width="2"
     height="4"
     x="3"
     y="8"
     ry="1" />
  <rect
     style="fill:#c4c4c4;fill-opacity:1;stroke-width:2;stroke-linecap:round;stroke-linejoin:round"
     id="rect401"
     width="1"
     height="4"
     x="4"
     y="8" />
</svg>
