<?xml version="1.0" encoding="UTF-8" standalone="no"?>
<!-- Created with Inkscape (http://www.inkscape.org/) -->

<svg
   width="16"
   height="16"
   viewBox="0 0 16 16.000001"
   version="1.1"
   id="svg1"
   inkscape:version="1.4.2 (ebf0e940d0, 2025-05-08)"
   sodipodi:docname="baloo.svg"
   xmlns:inkscape="http://www.inkscape.org/namespaces/inkscape"
   xmlns:sodipodi="http://sodipodi.sourceforge.net/DTD/sodipodi-0.dtd"
   xmlns:xlink="http://www.w3.org/1999/xlink"
   xmlns="http://www.w3.org/2000/svg"
   xmlns:svg="http://www.w3.org/2000/svg">
  <sodipodi:namedview
     id="namedview1"
     pagecolor="#ffffff"
     bordercolor="#000000"
     borderopacity="0.25"
     inkscape:showpageshadow="2"
     inkscape:pageopacity="0.0"
     inkscape:pagecheckerboard="0"
     inkscape:deskcolor="#d1d1d1"
     inkscape:document-units="px"
     inkscape:zoom="49.125"
     inkscape:cx="7.9898219"
     inkscape:cy="8"
     inkscape:window-width="1920"
     inkscape:window-height="1011"
     inkscape:window-x="0"
     inkscape:window-y="0"
     inkscape:window-maximized="1"
     inkscape:current-layer="svg1"
     showguides="false" />
  <defs
     id="defs1">
    <linearGradient
       inkscape:collect="always"
       xlink:href="#linearGradient1265"
       id="linearGradient2"
       x1="8"
       y1="16"
       x2="8"
       y2="0"
       gradientUnits="userSpaceOnUse" />
    <linearGradient
       inkscape:collect="always"
       id="linearGradient1265">
      <stop
         style="stop-color:#2d7ff3;stop-opacity:1;"
         offset="0"
         id="stop1261" />
      <stop
         style="stop-color:#2cdbfa;stop-opacity:1;"
         offset="1"
         id="stop1263" />
    </linearGradient>
  </defs>
  <rect
     style="fill:url(#linearGradient2)"
     id="rect1"
     width="16"
     height="16"
     x="0"
     y="0"
     ry="4" />
  <path
     d="m 7.4999999,3 -0.5,0.5 v 1.0000001 c 0,0.277 0.223,0.5000001 0.5,0.5000001 0.277,0 0.5,-0.2230001 0.5,-0.5000001 V 3.5 Z m -2,1 -0.5000001,0.5 v 1.0000002 c 0,0.2769999 0.223,0.5 0.5000001,0.5 0.277,0 0.5,-0.2230001 0.5,-0.5 V 4.5 Z M 9.5,4 8.9999999,4.5 v 1.0000002 c 0,0.2769999 0.2230001,0.5 0.5000001,0.5 0.277,0 0.5,-0.2230001 0.5,-0.5 V 4.5 Z m -6.0000001,2.0000001 -0.5,0.5 V 7.5 c 0,0.277 0.2229999,0.5 0.5,0.5 0.277,0 0.5,-0.223 0.5,-0.5 V 6.5000001 Z m 8.0000001,0 -0.5,0.5 V 7.5 C 11,7.777 11.223,8 11.5,8 11.777,8 12,7.777 12,7.5 V 6.5000001 Z m -4.0000001,1 c -1.1045696,0 -2,0.8954305 -2,1.9999998 -1.1045696,0 -2.0000001,0.8954311 -2.0000001,2.0000001 0,1.104569 0.8954305,2 2.0000001,2 1.1045695,0 2,-0.895431 2,-2 0,1.104569 0.895431,2 2.0000001,2 1.104569,0 2,-0.895431 2,-2 0,-1.104569 -0.895431,-2.0000001 -2,-2.0000001 C 9.5,7.8954306 8.6045689,7 7.4999999,7.0000001 Z"
     style="fill:#ffffff"
     id="path394"
     sodipodi:nodetypes="ccsssccccsssccccsssccccsssccccsssccscsscsscs" />
</svg>
