<?xml version="1.0" encoding="UTF-8" standalone="no"?>
<!-- Created with Inkscape (http://www.inkscape.org/) -->

<svg
   width="16"
   height="16"
   viewBox="0 0 16 16.000001"
   version="1.1"
   id="svg1"
   inkscape:version="1.4.2 (ebf0e940d0, 2025-05-08)"
   sodipodi:docname="beamng-drive.svg"
   xmlns:inkscape="http://www.inkscape.org/namespaces/inkscape"
   xmlns:sodipodi="http://sodipodi.sourceforge.net/DTD/sodipodi-0.dtd"
   xmlns:xlink="http://www.w3.org/1999/xlink"
   xmlns="http://www.w3.org/2000/svg"
   xmlns:svg="http://www.w3.org/2000/svg">
  <sodipodi:namedview
     id="namedview1"
     pagecolor="#ffffff"
     bordercolor="#000000"
     borderopacity="0.25"
     inkscape:showpageshadow="2"
     inkscape:pageopacity="0.0"
     inkscape:pagecheckerboard="0"
     inkscape:deskcolor="#d1d1d1"
     inkscape:document-units="px"
     inkscape:zoom="49.125"
     inkscape:cx="7.9898219"
     inkscape:cy="8"
     inkscape:window-width="1920"
     inkscape:window-height="1011"
     inkscape:window-x="0"
     inkscape:window-y="0"
     inkscape:window-maximized="1"
     inkscape:current-layer="svg1" />
  <defs
     id="defs1">
    <linearGradient
       inkscape:collect="always"
       id="linearGradient1606">
      <stop
         style="stop-color:#eaebed;stop-opacity:1;"
         offset="0"
         id="stop1602" />
      <stop
         style="stop-color:#f9fafa;stop-opacity:1;"
         offset="1"
         id="stop1604" />
    </linearGradient>
    <linearGradient
       inkscape:collect="always"
       xlink:href="#linearGradient1606"
       id="linearGradient2"
       x1="16"
       y1="15.735369"
       x2="16"
       y2="0"
       gradientUnits="userSpaceOnUse" />
  </defs>
  <rect
     style="fill:url(#linearGradient2)"
     id="rect1"
     width="16"
     height="16"
     x="0"
     y="0"
     ry="4" />
  <path
     d="M 10.236817,3.75 A 0.50005,0.50005 0 0 0 9.977539,3.830566 l -5,3.25 a 0.50005,0.50005 0 0 0 0.056153,0.870117 l 6.25,3 a 0.50005,0.50005 0 0 0 0.706543,-0.548828 l -1.25,-6.25 A 0.50005,0.50005 0 0 0 10.236817,3.75 Z m -0.33252,1.321289 0.90918,4.544434 -4.544922,-2.1811525 z"
     style="fill:#353535;stroke-width:0.5"
     id="path2" />
  <path
     id="path5"
     style="fill:#fe7d2a;stroke-width:0.5"
     d="M 10.25,3 A 1.25,1.25 0 0 0 9,4.25 1.25,1.25 0 0 0 10.25,5.5 1.25,1.25 0 0 0 11.5,4.25 1.25,1.25 0 0 0 10.25,3 Z M 5.5,5 A 2.5,2.5 0 0 0 3,7.5 2.5,2.5 0 0 0 5.5,10 2.5,2.5 0 0 0 8,7.5 2.5,2.5 0 0 0 5.5,5 Z m 5.75,3.5 A 1.75,1.75 0 0 0 9.5,10.25 1.75,1.75 0 0 0 11.25,12 1.75,1.75 0 0 0 13,10.25 1.75,1.75 0 0 0 11.25,8.5 Z" />
</svg>
