<?xml version="1.0" encoding="UTF-8" standalone="no"?>
<!-- Created with Inkscape (http://www.inkscape.org/) -->

<svg
   width="16"
   height="16"
   viewBox="0 0 16 16.000001"
   version="1.1"
   id="svg1"
   inkscape:version="1.4 (e7c3feb100, 2024-10-09)"
   sodipodi:docname="firewall-config.svg"
   xmlns:inkscape="http://www.inkscape.org/namespaces/inkscape"
   xmlns:sodipodi="http://sodipodi.sourceforge.net/DTD/sodipodi-0.dtd"
   xmlns:xlink="http://www.w3.org/1999/xlink"
   xmlns="http://www.w3.org/2000/svg"
   xmlns:svg="http://www.w3.org/2000/svg">
  <sodipodi:namedview
     id="namedview1"
     pagecolor="#ffffff"
     bordercolor="#000000"
     borderopacity="0.25"
     inkscape:showpageshadow="2"
     inkscape:pageopacity="0.0"
     inkscape:pagecheckerboard="0"
     inkscape:deskcolor="#d1d1d1"
     inkscape:document-units="px"
     inkscape:zoom="49.125"
     inkscape:cx="7.9898219"
     inkscape:cy="8"
     inkscape:window-width="1920"
     inkscape:window-height="1011"
     inkscape:window-x="0"
     inkscape:window-y="0"
     inkscape:window-maximized="1"
     inkscape:current-layer="svg1"
     showguides="true" />
  <defs
     id="defs1">
    <linearGradient
       inkscape:collect="always"
       xlink:href="#linearGradient918"
       id="linearGradient2"
       x1="16"
       y1="15.735369"
       x2="16"
       y2="0"
       gradientUnits="userSpaceOnUse" />
    <linearGradient
       inkscape:collect="always"
       id="linearGradient918">
      <stop
         style="stop-color:#923b26;stop-opacity:1;"
         offset="0"
         id="stop914" />
      <stop
         style="stop-color:#c17b6e;stop-opacity:1;"
         offset="1"
         id="stop916" />
    </linearGradient>
  </defs>
  <rect
     style="fill:url(#linearGradient2)"
     id="rect1"
     width="16"
     height="16"
     x="0"
     y="0"
     ry="4" />
  <path
     id="rect972"
     style="opacity:0.5;fill:#ffffff;stroke-linecap:square;stroke-linejoin:round"
     d="M 4 0 L 4 5 L 0 5 L 0 6 L 1 6 L 1 10 L 0 10 L 0 11 L 4 11 L 4 16 L 5 16 L 5 11 L 10 11 L 10 16 L 11 16 L 11 11 L 16 11 L 16 10 L 14 10 L 14 6 L 16 6 L 16 5 L 11 5 L 11 0 L 10 0 L 10 5 L 5 5 L 5 0 L 4 0 z M 2 6 L 7 6 L 7 10 L 2 10 L 2 6 z M 8 6 L 13 6 L 13 10 L 8 10 L 8 6 z " />
</svg>
