<?xml version="1.0" encoding="UTF-8" standalone="no"?>
<!-- Created with Inkscape (http://www.inkscape.org/) -->

<svg
   width="16"
   height="16"
   viewBox="0 0 16 16.000001"
   version="1.1"
   id="svg1"
   inkscape:version="1.4.2 (ebf0e940d0, 2025-05-08)"
   sodipodi:docname="garrysmod.svg"
   xmlns:inkscape="http://www.inkscape.org/namespaces/inkscape"
   xmlns:sodipodi="http://sodipodi.sourceforge.net/DTD/sodipodi-0.dtd"
   xmlns="http://www.w3.org/2000/svg"
   xmlns:svg="http://www.w3.org/2000/svg">
  <sodipodi:namedview
     id="namedview1"
     pagecolor="#ffffff"
     bordercolor="#000000"
     borderopacity="0.25"
     inkscape:showpageshadow="2"
     inkscape:pageopacity="0.0"
     inkscape:pagecheckerboard="0"
     inkscape:deskcolor="#d1d1d1"
     inkscape:document-units="px"
     inkscape:zoom="49.6875"
     inkscape:cx="8"
     inkscape:cy="7.9899371"
     inkscape:window-width="1920"
     inkscape:window-height="1011"
     inkscape:window-x="0"
     inkscape:window-y="0"
     inkscape:window-maximized="1"
     inkscape:current-layer="svg1" />
  <defs
     id="defs1" />
  <rect
     style="fill:#1295f0;fill-opacity:1"
     id="rect1"
     width="16"
     height="16"
     x="0"
     y="0"
     ry="4" />
  <path
     d="M 7.75,4 C 6.5265,4 5,5.3932 5,7.2665 5,9.2195 6.177,11 7.8085,11 8.614,11 8.963,10.6965 9.4999999,10 9.237,10.9135 8.7955,11.4945 8.088,11.664 7.53,11.798 6.903,11.491 6.5,11 H 5 c 0.46499,1.2676 1.6318,2 3.0362,2 1.0327,0 1.8487999,-0.39951 2.3858,-1.1533 C 10.8245,11.2642 11,10.4872 11,9.2767 V 4.1487 H 9.4999999 V 4.9485 C 9.4999999,4.94845 8.9735,4.0002 7.75,4.0002 Z m 0.22168,1.5 c 0.908,0 1.5284999,0.821 1.5284999,2.0235 C 9.5001799,8.714 8.89818,9.5 7.99018,9.5 c -0.9075,0 -1.49,-0.774 -1.49,-1.9765 0,-1.2145 0.583,-2.0235 1.4715,-2.0235 z"
     style="fill:#ffffff"
     id="path2988" />
</svg>
