<?xml version="1.0" encoding="UTF-8" standalone="no"?>
<!-- Created with Inkscape (http://www.inkscape.org/) -->

<svg
   width="16"
   height="16"
   viewBox="0 0 16 16.000001"
   version="1.1"
   id="svg1"
   inkscape:version="1.4.2 (ebf0e940d0, 2025-05-08)"
   sodipodi:docname="gimp.svg"
   xmlns:inkscape="http://www.inkscape.org/namespaces/inkscape"
   xmlns:sodipodi="http://sodipodi.sourceforge.net/DTD/sodipodi-0.dtd"
   xmlns:xlink="http://www.w3.org/1999/xlink"
   xmlns="http://www.w3.org/2000/svg"
   xmlns:svg="http://www.w3.org/2000/svg">
  <sodipodi:namedview
     id="namedview1"
     pagecolor="#ffffff"
     bordercolor="#000000"
     borderopacity="0.25"
     inkscape:showpageshadow="2"
     inkscape:pageopacity="0.0"
     inkscape:pagecheckerboard="0"
     inkscape:deskcolor="#d1d1d1"
     inkscape:document-units="px"
     inkscape:zoom="49.125"
     inkscape:cx="7.9898219"
     inkscape:cy="8"
     inkscape:window-width="1920"
     inkscape:window-height="1011"
     inkscape:window-x="0"
     inkscape:window-y="0"
     inkscape:window-maximized="1"
     inkscape:current-layer="svg1" />
  <defs
     id="defs1">
    <linearGradient
       inkscape:collect="always"
       id="linearGradient3">
      <stop
         style="stop-color:#cfc6be;stop-opacity:1;"
         offset="0"
         id="stop1" />
      <stop
         style="stop-color:#f0ecec;stop-opacity:1;"
         offset="1"
         id="stop2" />
    </linearGradient>
    <linearGradient
       inkscape:collect="always"
       xlink:href="#linearGradient3"
       id="linearGradient2"
       x1="16"
       y1="15.735369"
       x2="16"
       y2="0"
       gradientUnits="userSpaceOnUse" />
  </defs>
  <rect
     style="fill:url(#linearGradient2)"
     id="rect1"
     width="16"
     height="16"
     x="0"
     y="0"
     ry="4" />
  <path
     d="m 13.60135,2.0266962 c -0.0993,-0.0158 -0.18856,0.0403 -0.24222,0.10409 -0.0536,0.0639 -0.0909,0.14295 -0.12329,0.24264 -0.056,0.17252 -0.26195,0.81286 -1.00438,1.44575 -0.74242,0.63292 -2.0227,1.4859 -4.24167,1.543 -1.34927,0.0158 -2.09595,-0.96432 -2.63398,-2.02898 -0.13427,-0.2657 -0.35586,-0.76085 -0.35586,-0.44579 v 0.48713 l -0.007,2.89646 0.0137,0.0332 c 0,0 0.12088,0.26851 -0.007,0.63027 -0.12772,0.36179 -0.78934,0.88974 -1.91498,1.2276 l -0.13761,0.0409 0.0262,0.14491 c 0.0624,0.35105 0.31131,0.71086 0.67871,1.07922 0.36741,0.36833 0.85934,0.7409798 1.43216,1.0778898 1.14565,0.67382 2.61301,1.20629 4.03868,1.23117 1.42567,0.025 2.82057,-0.47361 3.74353,-1.8544298 0.92297,-1.38079 1.37309,-4.01605 1.00438,-7.44826 h -6.3e-4 c -0.0117,-0.0942 -0.0325,-0.17469 -0.0697,-0.2452 -0.0372,-0.0705 -0.0999,-0.14327 -0.19926,-0.159 z"
     style="fill:#8c8073;fill-rule:evenodd;stroke-width:0.749984;fill-opacity:1"
     id="path563" />
  <path
     id="path1276"
     style="opacity:1;fill-rule:evenodd;stroke-width:0.749984;fill:#333333"
     d="M 8.875 8.7363281 C 8.875 8.7363281 8.8211375 8.9721369 8.9609375 9.1855469 C 8.6304375 9.4871769 7.9761119 9.4318281 7.2324219 9.4863281 C 6.7847419 9.5185281 6.29138 9.4863281 5.75 9.4863281 L 5.75 9.4882812 C 6.59369 9.8403812 7.3179488 10.251928 7.8867188 10.236328 C 8.4210488 10.221578 8.8181881 9.9510888 9.0488281 9.5742188 C 9.0808981 9.7226187 9.1602094 9.8628883 9.2871094 10.236328 C 9.3440894 9.8111283 9.6377419 9.6057675 9.4199219 9.2734375 C 9.2014719 8.9401675 8.875 8.7363281 8.875 8.7363281 z " />
  <path
     d="m 5.74965,4.9871862 c -0.37107,0 -0.74402,0.12266 -1.02794,0.37505 -0.28393,0.25238 -0.47175,0.637 -0.47175,1.12518 0,0.48818 0.18782,0.87226 0.47175,1.12465 0.28392,0.25238 0.65687,0.37505 1.02794,0.37505 0.37108,0 0.74402,-0.12267 1.02795,-0.37505 0.28392,-0.25239 0.4723,-0.63647 0.4723,-1.12465 0,-0.48818 -0.18838,-0.8728 -0.4723,-1.12518 -0.28393,-0.25239 -0.65687,-0.37505 -1.02795,-0.37505 z"
     style="fill:#ffffff;fill-rule:evenodd;stroke-width:0.749984"
     id="path1020" />
  <circle
     style="fill:#3f3f3f;fill-opacity:1;stroke-width:4;stroke-linecap:square"
     id="path1010"
     cx="5.7499185"
     cy="6.487143"
     r="0.74998391" />
  <path
     d="m 3.39809,6.4871462 c -0.0832,0 -0.16478,0.005 -0.24409,0.0162 -0.21148,0.0306 -0.40728,0.10399 -0.5761,0.21531 -0.67525,0.44527 -0.85308,1.4544 -0.0191,2.51113 C 3.39286,10.286546 4.49635,10.450546 5.1716,10.005266 5.84685,9.5599962 6.02534,8.5508662 5.1912,7.4941362 4.64386,6.8006462 3.98032,6.4918162 3.39794,6.4871562 Z"
     style="fill:#3f3f3f;fill-rule:evenodd;stroke-width:0.749984"
     id="path1108" />
  <path
     d="m 8.74956,4.9871562 c -0.37109,0 -0.74404,0.12266 -1.02797,0.37506 -0.28393,0.25238 -0.47176,0.63701 -0.47176,1.1252 0,0.48819 0.18783,0.87228 0.47176,1.12468 0.28393,0.25238 0.65688,0.37506 1.02797,0.37506 0.37108,0 0.74402,-0.12268 1.02796,-0.37506 0.28393,-0.2524 0.47231,-0.63649 0.47231,-1.12468 0,-0.48819 -0.18838,-0.87282 -0.47231,-1.1252 -0.28394,-0.2524 -0.65688,-0.37506 -1.02796,-0.37506 z"
     style="fill:#ffffff;fill-rule:evenodd;stroke-width:1.00002"
     id="path501" />
  <ellipse
     style="fill:#3f3f3f;fill-opacity:1;stroke-width:3.9003;stroke-linecap:square"
     id="path663"
     cx="8.7498569"
     cy="6.4871583"
     rx="0.74998391"
     ry="0.75" />
  <path
     d="m 11.36632,11.504636 0.24317,-0.48427 C 10.70484,10.358516 9.01597,9.6869162 9.01597,9.6869162 l -0.2661,0.14629 c 0,0 1.53338,1.3600098 2.61645,1.6714298 z"
     style="fill:#ff9a0c;stroke-width:0.749984"
     id="path1248" />
  <path
     d="m 11.07452,10.462056 -0.12681,0.0834 c -0.11745,0.0643 -0.21273,0.17356 -0.29003,0.29993 -0.0884,0.20774 -0.12336,0.33766 -0.10816,0.54063 l 0.18375,-0.0315 c 0,0 0.9594,0.27523 1.41358,0.41999 l 0.0531,-0.10234 0.18703,-0.362 -1.31249,-0.67237 z"
     style="fill:#8a8a8a;stroke-width:0.749984"
     id="path1220" />
  <path
     d="m 13.99975,13.237006 c -0.4008,-1.30227 -0.54296,-2.33626 -1.59041,-2.24425 -0.84409,0.0741 -0.90319,1.23179 -0.0309,1.55124 0.84023,0.30773 1.62134,0.69301 1.62134,0.69301 z"
     style="fill:#3f3f3f;stroke-width:0.749984"
     id="path1192" />
</svg>
