<?xml version="1.0" encoding="UTF-8" standalone="no"?>
<!-- Created with Inkscape (http://www.inkscape.org/) -->

<svg
   width="16"
   height="16"
   viewBox="0 0 16 16.000001"
   version="1.1"
   id="svg1"
   inkscape:version="1.4.2 (ebf0e940d0, 2025-05-08)"
   sodipodi:docname="gnome-todo.svg"
   xmlns:inkscape="http://www.inkscape.org/namespaces/inkscape"
   xmlns:sodipodi="http://sodipodi.sourceforge.net/DTD/sodipodi-0.dtd"
   xmlns:xlink="http://www.w3.org/1999/xlink"
   xmlns="http://www.w3.org/2000/svg"
   xmlns:svg="http://www.w3.org/2000/svg">
  <sodipodi:namedview
     id="namedview1"
     pagecolor="#ffffff"
     bordercolor="#000000"
     borderopacity="0.25"
     inkscape:showpageshadow="2"
     inkscape:pageopacity="0.0"
     inkscape:pagecheckerboard="0"
     inkscape:deskcolor="#d1d1d1"
     inkscape:document-units="px"
     inkscape:zoom="49.125"
     inkscape:cx="7.9898219"
     inkscape:cy="8"
     inkscape:window-width="1920"
     inkscape:window-height="1011"
     inkscape:window-x="0"
     inkscape:window-y="0"
     inkscape:window-maximized="1"
     inkscape:current-layer="svg1" />
  <defs
     id="defs1">
    <linearGradient
       inkscape:collect="always"
       id="linearGradient6">
      <stop
         style="stop-color:#b18646;stop-opacity:1;"
         offset="0"
         id="stop5" />
      <stop
         style="stop-color:#d9b37c;stop-opacity:1;"
         offset="1"
         id="stop6" />
    </linearGradient>
    <linearGradient
       inkscape:collect="always"
       id="linearGradient1606">
      <stop
         style="stop-color:#eaebed;stop-opacity:1;"
         offset="0"
         id="stop1602" />
      <stop
         style="stop-color:#f9fafa;stop-opacity:1;"
         offset="1"
         id="stop1604" />
    </linearGradient>
    <linearGradient
       inkscape:collect="always"
       xlink:href="#linearGradient6"
       id="linearGradient2"
       x1="16"
       y1="15.735369"
       x2="16"
       y2="0"
       gradientUnits="userSpaceOnUse" />
    <linearGradient
       inkscape:collect="always"
       xlink:href="#linearGradient1606"
       id="linearGradient4"
       x1="8"
       y1="16"
       x2="8"
       y2="0"
       gradientUnits="userSpaceOnUse" />
  </defs>
  <rect
     style="fill:url(#linearGradient2)"
     id="rect1"
     width="16"
     height="16"
     x="0"
     y="0"
     ry="4" />
  <rect
     style="fill:url(#linearGradient4);stroke-width:2"
     id="rect2"
     width="12"
     height="12"
     x="2"
     y="2"
     ry="2" />
  <path
     id="path3"
     style="color:#000000;fill:#5f5f5f;stroke-linecap:round;-inkscape-stroke:none"
     d="M 5.6308594 3.1621094 L 4.25 4.7363281 L 3.484375 4.0976562 L 2.8417969 4.8632812 L 4.3398438 6.1191406 L 6.3691406 3.8378906 L 5.6308594 3.1621094 z M 5.6308594 6.5371094 L 4.25 8.1113281 L 3.484375 7.4726562 L 2.8417969 8.2382812 L 4.3398438 9.4941406 L 6.3691406 7.2128906 L 5.6308594 6.5371094 z M 5.6308594 9.9121094 L 4.25 11.486328 L 3.484375 10.847656 L 2.8417969 11.613281 L 4.3398438 12.869141 L 6.3691406 10.587891 L 5.6308594 9.9121094 z " />
  <path
     id="path4"
     style="color:#000000;fill:#c8c8c8;stroke-linecap:round;-inkscape-stroke:none"
     d="M 7 5 L 7 6 L 12 6 L 12 5 L 7 5 z M 7 8 L 7 9 L 12 9 L 12 8 L 7 8 z M 7 11 L 7 12 L 12 12 L 12 11 L 7 11 z " />
</svg>
