<?xml version="1.0" encoding="UTF-8" standalone="no"?>
<!-- Created with Inkscape (http://www.inkscape.org/) -->

<svg
   width="16"
   height="16"
   viewBox="0 0 16 16.000001"
   version="1.1"
   id="svg1"
   inkscape:version="1.4.2 (ebf0e940d0, 2025-05-08)"
   sodipodi:docname="google-keep.svg"
   xmlns:inkscape="http://www.inkscape.org/namespaces/inkscape"
   xmlns:sodipodi="http://sodipodi.sourceforge.net/DTD/sodipodi-0.dtd"
   xmlns="http://www.w3.org/2000/svg"
   xmlns:svg="http://www.w3.org/2000/svg">
  <sodipodi:namedview
     id="namedview1"
     pagecolor="#ffffff"
     bordercolor="#000000"
     borderopacity="0.25"
     inkscape:showpageshadow="2"
     inkscape:pageopacity="0.0"
     inkscape:pagecheckerboard="0"
     inkscape:deskcolor="#d1d1d1"
     inkscape:document-units="px"
     inkscape:zoom="49.75"
     inkscape:cx="7.9899497"
     inkscape:cy="8"
     inkscape:window-width="1920"
     inkscape:window-height="1011"
     inkscape:window-x="0"
     inkscape:window-y="0"
     inkscape:window-maximized="1"
     inkscape:current-layer="svg1" />
  <defs
     id="defs1" />
  <rect
     style="fill:#fafafa;fill-opacity:1"
     id="rect1"
     width="16"
     height="16"
     x="0"
     y="0"
     ry="4" />
  <path
     id="path1151"
     style="fill:#fbbc04;fill-opacity:1;stroke-width:0.249999;stroke-linecap:square;stroke-linejoin:bevel"
     d="M 5,2 C 4.4477155,2 4,2.4477155 4,3 v 10 c 0,0.552285 0.4477155,1 1,1 h 6 c 0.552285,0 1,-0.447715 1,-1 V 5 L 9.5,4.5 9,2 Z" />
  <path
     d="m 9,2 3,3 H 9 Z"
     style="fill:#f29900;fill-opacity:1;stroke-width:0.144338;stroke-linecap:square;stroke-linejoin:bevel"
     id="path1123" />
  <path
     id="path234"
     style="fill:#ffffff;stroke-width:0.8;stroke-linecap:square;stroke-linejoin:bevel"
     d="M 8,7 C 6.8954316,7 6,7.8954316 6,9 6.00203,9.8563494 6.616903,10.595503 7,11 H 9 C 9.3646748,10.575739 10.001265,9.8589787 10,9 10,7.8954316 9.1045684,7 8,7 Z m -1,5 v 1 h 2 v -1 z" />
</svg>
