<?xml version="1.0" encoding="UTF-8" standalone="no"?>
<!-- Created with Inkscape (http://www.inkscape.org/) -->

<svg
   width="16"
   height="16"
   viewBox="0 0 16 16.000001"
   version="1.1"
   id="svg1"
   inkscape:version="1.4.2 (ebf0e940d0, 2025-05-08)"
   sodipodi:docname="htop.svg"
   xmlns:inkscape="http://www.inkscape.org/namespaces/inkscape"
   xmlns:sodipodi="http://sodipodi.sourceforge.net/DTD/sodipodi-0.dtd"
   xmlns:xlink="http://www.w3.org/1999/xlink"
   xmlns="http://www.w3.org/2000/svg"
   xmlns:svg="http://www.w3.org/2000/svg">
  <sodipodi:namedview
     id="namedview1"
     pagecolor="#ffffff"
     bordercolor="#000000"
     borderopacity="0.25"
     inkscape:showpageshadow="2"
     inkscape:pageopacity="0.0"
     inkscape:pagecheckerboard="0"
     inkscape:deskcolor="#d1d1d1"
     inkscape:document-units="px"
     inkscape:zoom="50.5"
     inkscape:cx="8.009901"
     inkscape:cy="7.990099"
     inkscape:window-width="1920"
     inkscape:window-height="1010"
     inkscape:window-x="0"
     inkscape:window-y="0"
     inkscape:window-maximized="1"
     inkscape:current-layer="svg1" />
  <defs
     id="defs1">
    <linearGradient
       inkscape:collect="always"
       xlink:href="#4852"
       id="linearGradient2"
       x1="16"
       y1="15.735369"
       x2="16"
       y2="0"
       gradientUnits="userSpaceOnUse" />
    <linearGradient
       inkscape:collect="always"
       id="4852">
      <stop
         style="stop-color:#272727;stop-opacity:1;"
         offset="0"
         id="stop14555" />
      <stop
         style="stop-color:#5d5d5d;stop-opacity:1;"
         offset="1"
         id="stop14557" />
    </linearGradient>
  </defs>
  <rect
     style="fill:url(#linearGradient2)"
     id="rect1"
     width="16"
     height="16"
     x="0"
     y="0"
     ry="4" />
  <path
     d="m 4.0000002,10 v 3 h 1 v -3 z m 0,-4 v 3 h 1 V 6 Z m 0,-4 v 3 h 1 V 2 Z"
     style="fill:#8bc34a"
     id="path1240" />
  <path
     d="m 6.0000002,6 v 3 h 1 V 6 Z m 1.9999997,0 v 3 h 1 V 6 Z"
     style="fill:#ff9800"
     id="path1212" />
  <path
     d="m 10,10 v 3 h 1 v -3 z m 0,-4 v 3 h 1 V 6 Z m 0,-4 v 3 h 1 V 2 Z"
     style="fill:#ff5722"
     id="path1128" />
  <path
     id="path1156"
     style="fill:#f9f9f9"
     d="M 2,2 V 5 H 3 V 2 Z m 10,0 v 3 h 1 V 2 Z M 2,6 V 9 H 3 V 6 Z m 10,0 v 3 h 1 V 6 Z M 2,10 v 3 h 1 v -3 z m 10,0 v 3 h 1 v -3 z" />
</svg>
