<?xml version="1.0" encoding="UTF-8" standalone="no"?>
<!-- Created with Inkscape (http://www.inkscape.org/) -->

<svg
   width="16"
   height="16"
   viewBox="0 0 16 16.000001"
   version="1.1"
   id="svg1"
   inkscape:version="1.4.2 (ebf0e940d0, 2025-05-08)"
   sodipodi:docname="kolourpaint.svg"
   xmlns:inkscape="http://www.inkscape.org/namespaces/inkscape"
   xmlns:sodipodi="http://sodipodi.sourceforge.net/DTD/sodipodi-0.dtd"
   xmlns:xlink="http://www.w3.org/1999/xlink"
   xmlns="http://www.w3.org/2000/svg"
   xmlns:svg="http://www.w3.org/2000/svg">
  <sodipodi:namedview
     id="namedview1"
     pagecolor="#ffffff"
     bordercolor="#000000"
     borderopacity="0.25"
     inkscape:showpageshadow="2"
     inkscape:pageopacity="0.0"
     inkscape:pagecheckerboard="0"
     inkscape:deskcolor="#d1d1d1"
     inkscape:document-units="px"
     inkscape:zoom="49.75"
     inkscape:cx="7.9899497"
     inkscape:cy="8"
     inkscape:window-width="1920"
     inkscape:window-height="1011"
     inkscape:window-x="0"
     inkscape:window-y="0"
     inkscape:window-maximized="1"
     inkscape:current-layer="svg1" />
  <defs
     id="defs1">
    <linearGradient
       inkscape:collect="always"
       xlink:href="#linearGradient4681"
       id="linearGradient2"
       x1="16"
       y1="15.735369"
       x2="16"
       y2="0"
       gradientUnits="userSpaceOnUse" />
    <linearGradient
       inkscape:collect="always"
       id="linearGradient4681">
      <stop
         style="stop-color:#ff5651;stop-opacity:1;"
         offset="0"
         id="stop4677" />
      <stop
         style="stop-color:#ff8b75;stop-opacity:1;"
         offset="1"
         id="stop4679" />
    </linearGradient>
  </defs>
  <rect
     style="fill:url(#linearGradient2)"
     id="rect1"
     width="16"
     height="16"
     x="0"
     y="0"
     ry="4" />
  <rect
     style="opacity:0.2;fill:#ffffff;stroke-width:0.625"
     id="rect6239"
     width="2.5"
     height="2.5"
     x="4.7500553"
     y="3.75" />
  <rect
     style="opacity:0.3;fill:#ffffff"
     id="rect6241"
     width="2.5"
     height="2.5"
     x="8.7500553"
     y="3.75" />
  <rect
     style="opacity:0.5;fill:#ffffff"
     id="rect6243"
     width="2.5"
     height="2.5"
     x="10.750054"
     y="5.7499995" />
  <path
     id="path295"
     style="fill:#ffffff"
     d="m 8.0000552,2 c -3.3136986,0 -5.9880646,2.6863229 -6,6 -0.016542,4.592602 3.6863014,6 7,6 0.5522835,0 0.9999998,-0.447717 0.9999998,-1 0,-0.552283 -0.4477163,-1 -0.9999998,-1 -0.5539988,0 -1,-0.446002 -1,-1 0,-0.553998 0.4460012,-1 1,-1 H 11.64068 c 1.447867,-0.015261 2.362592,-0.9576424 2.359375,-3 0,-2.8720777 -2.686301,-5 -5.9999998,-5 z m -2,2 a 1,1 0 0 1 1,1 1,1 0 0 1 -1,1 1,1 0 0 1 -1,-1 1,1 0 0 1 1,-1 z m 3.9999998,0 a 1,1 0 0 1 1,1 1,1 0 0 1 -1,1 A 1,1 0 0 1 9.0000552,5 1,1 0 0 1 10.000055,4 Z M 4.0000552,6 a 1,1 0 0 1 1,1 1,1 0 0 1 -1,1 1,1 0 0 1 -1,-1 1,1 0 0 1 1,-1 z m 7.9999998,0 a 1,1 0 0 1 1,1 1,1 0 0 1 -1,1 1,1 0 0 1 -1,-1 1,1 0 0 1 1,-1 z" />
</svg>
