<?xml version="1.0" encoding="UTF-8" standalone="no"?>
<!-- Created with Inkscape (http://www.inkscape.org/) -->

<svg
   width="16"
   height="16"
   viewBox="0 0 16 16.000001"
   version="1.1"
   id="svg1"
   inkscape:version="1.4.2 (ebf0e940d0, 2025-05-08)"
   sodipodi:docname="ktnef.svg"
   xmlns:inkscape="http://www.inkscape.org/namespaces/inkscape"
   xmlns:sodipodi="http://sodipodi.sourceforge.net/DTD/sodipodi-0.dtd"
   xmlns:xlink="http://www.w3.org/1999/xlink"
   xmlns="http://www.w3.org/2000/svg"
   xmlns:svg="http://www.w3.org/2000/svg">
  <sodipodi:namedview
     id="namedview1"
     pagecolor="#ffffff"
     bordercolor="#000000"
     borderopacity="0.25"
     inkscape:showpageshadow="2"
     inkscape:pageopacity="0.0"
     inkscape:pagecheckerboard="0"
     inkscape:deskcolor="#d1d1d1"
     inkscape:document-units="px"
     inkscape:zoom="49.125"
     inkscape:cx="8.0101781"
     inkscape:cy="7.9898219"
     inkscape:window-width="1920"
     inkscape:window-height="1010"
     inkscape:window-x="0"
     inkscape:window-y="0"
     inkscape:window-maximized="1"
     inkscape:current-layer="svg1" />
  <defs
     id="defs1">
    <linearGradient
       inkscape:collect="always"
       xlink:href="#linearGradient3788"
       id="linearGradient4"
       x1="16"
       y1="30"
       x2="16"
       y2="2"
       gradientUnits="userSpaceOnUse"
       gradientTransform="matrix(0.57142857,0,0,0.57142857,-1.1428571,-1.1428572)" />
    <linearGradient
       inkscape:collect="always"
       id="linearGradient3788">
      <stop
         style="stop-color:#f98d00;stop-opacity:1;"
         offset="0"
         id="stop3784" />
      <stop
         style="stop-color:#ffcf41;stop-opacity:1;"
         offset="1"
         id="stop3786" />
    </linearGradient>
  </defs>
  <rect
     style="fill:url(#linearGradient4);stroke-width:0.571429"
     id="rect2"
     width="16"
     height="16"
     x="0"
     y="0"
     ry="4" />
  <path
     id="path1945"
     style="fill:#ffffff;stroke-linecap:round"
     d="M 12.742641,3.9644661 C 11.76633,2.9881553 10.183418,2.9881553 9.2071069,3.964466 L 5.3180196,7.8535533 c -0.5857865,0.5857865 -0.5857866,1.535534 -1e-7,2.1213205 0.5857865,0.5857862 1.535534,0.5857862 2.1213205,-10e-8 L 10.974874,6.4393398 10.267767,5.732233 6.7322332,9.2677669 C 6.536971,9.4630292 6.2203885,9.4630293 6.0251263,9.267767 5.829864,9.0725048 5.8298641,8.7559223 6.0251264,8.5606601 L 9.9142137,4.6715728 c 0.5857863,-0.5857864 1.5355343,-0.5857864 2.1213203,0 0.585787,0.5857865 0.585787,1.5355342 10e-7,2.1213207 L 7.7928936,11.035534 c -0.9763109,0.976311 -2.5592234,0.976311 -3.5355343,0 -0.9763107,-0.976311 -0.9763107,-2.5592232 0,-3.5355339 L 7.43934,4.3180194 6.7322332,3.6109127 3.5502525,6.7928933 c -1.3668353,1.3668353 -1.366835,3.5829127 0,4.9497467 1.366835,1.366835 3.5829126,1.366836 4.9497478,1e-6 L 12.742641,7.5000003 c 0.976311,-0.9763109 0.976311,-2.5592233 0,-3.5355342 z"
     sodipodi:nodetypes="ssssscccscssssssccsssss" />
</svg>
