<?xml version="1.0" encoding="UTF-8" standalone="no"?>
<!-- Created with Inkscape (http://www.inkscape.org/) -->

<svg
   width="16"
   height="16"
   viewBox="0 0 16 16.000001"
   version="1.1"
   id="svg1"
   inkscape:version="1.4 (e7c3feb100, 2024-10-09)"
   sodipodi:docname="minecraft.svg"
   xmlns:inkscape="http://www.inkscape.org/namespaces/inkscape"
   xmlns:sodipodi="http://sodipodi.sourceforge.net/DTD/sodipodi-0.dtd"
   xmlns:xlink="http://www.w3.org/1999/xlink"
   xmlns="http://www.w3.org/2000/svg"
   xmlns:svg="http://www.w3.org/2000/svg">
  <sodipodi:namedview
     id="namedview1"
     pagecolor="#ffffff"
     bordercolor="#000000"
     borderopacity="0.25"
     inkscape:showpageshadow="2"
     inkscape:pageopacity="0.0"
     inkscape:pagecheckerboard="0"
     inkscape:deskcolor="#d1d1d1"
     inkscape:document-units="px"
     inkscape:zoom="49.125"
     inkscape:cx="8.0101781"
     inkscape:cy="8"
     inkscape:window-width="1920"
     inkscape:window-height="1011"
     inkscape:window-x="0"
     inkscape:window-y="0"
     inkscape:window-maximized="1"
     inkscape:current-layer="svg1" />
  <defs
     id="defs1">
    <linearGradient
       inkscape:collect="always"
       xlink:href="#linearGradient1149"
       id="linearGradient2"
       x1="16"
       y1="15.735369"
       x2="16"
       y2="0"
       gradientUnits="userSpaceOnUse" />
    <linearGradient
       inkscape:collect="always"
       id="linearGradient1149">
      <stop
         style="stop-color:#6ab12d;stop-opacity:1;"
         offset="0"
         id="stop1145" />
      <stop
         style="stop-color:#8dd27a;stop-opacity:1;"
         offset="1"
         id="stop1147" />
    </linearGradient>
  </defs>
  <rect
     style="fill:url(#linearGradient2)"
     id="rect1"
     width="16"
     height="16"
     x="0"
     y="0"
     ry="4" />
  <path
     id="rect310"
     style="fill:#000000;stroke-width:1.5"
     d="M 3,4 V 7 H 6 V 4 Z M 6,7 V 9 H 4 v 4 h 2 v -2 h 3 v 2 h 2 V 9 H 9 V 7 Z m 3,0 h 3 V 4 H 9 Z"
     sodipodi:nodetypes="ccccccccccccccccccccccc" />
  <path
     id="path1179"
     style="opacity:0.3;fill:#ffffff;stroke-width:1.5"
     d="M 3,7 V 8 H 6 V 7 Z m 6,0 v 1 h 3 V 7 Z m -3,4 v 1 h 3 v -1 z m -2,2 v 1 h 2 v -1 z m 5,0 v 1 h 2 v -1 z"
     sodipodi:nodetypes="ccccccccccccccccccccccccc" />
  <path
     d="M 3,3 V 4 H 6 V 3 Z m 6,0 v 1 h 3 V 3 Z"
     style="opacity:0.3;fill:#000000;stroke-width:1.5"
     id="path1221"
     sodipodi:nodetypes="cccccccccc" />
</svg>
