<?xml version="1.0" encoding="UTF-8" standalone="no"?>
<!-- Created with Inkscape (http://www.inkscape.org/) -->

<svg
   width="16"
   height="16"
   viewBox="0 0 16 16.000001"
   version="1.1"
   id="svg1"
   inkscape:version="1.4 (e7c3feb100, 2024-10-09)"
   sodipodi:docname="multimedia-audio-player.svg"
   xmlns:inkscape="http://www.inkscape.org/namespaces/inkscape"
   xmlns:sodipodi="http://sodipodi.sourceforge.net/DTD/sodipodi-0.dtd"
   xmlns:xlink="http://www.w3.org/1999/xlink"
   xmlns="http://www.w3.org/2000/svg"
   xmlns:svg="http://www.w3.org/2000/svg">
  <sodipodi:namedview
     id="namedview1"
     pagecolor="#ffffff"
     bordercolor="#000000"
     borderopacity="0.25"
     inkscape:showpageshadow="2"
     inkscape:pageopacity="0.0"
     inkscape:pagecheckerboard="0"
     inkscape:deskcolor="#d1d1d1"
     inkscape:document-units="px"
     inkscape:zoom="50.5"
     inkscape:cx="8.009901"
     inkscape:cy="8"
     inkscape:window-width="1920"
     inkscape:window-height="1011"
     inkscape:window-x="0"
     inkscape:window-y="0"
     inkscape:window-maximized="1"
     inkscape:current-layer="svg1" />
  <defs
     id="defs1">
    <linearGradient
       inkscape:collect="always"
       xlink:href="#linearGradient7048"
       id="linearGradient2"
       x1="8"
       y1="16"
       x2="8"
       y2="0"
       gradientUnits="userSpaceOnUse" />
    <linearGradient
       inkscape:collect="always"
       id="linearGradient7048">
      <stop
         style="stop-color:#f65555;stop-opacity:1;"
         offset="0"
         id="stop7044" />
      <stop
         style="stop-color:#ed6ca7;stop-opacity:1;"
         offset="1"
         id="stop7046" />
    </linearGradient>
  </defs>
  <rect
     style="fill:url(#linearGradient2)"
     id="rect1"
     width="16"
     height="16"
     x="0"
     y="0"
     ry="4" />
  <path
     d="M 13,3 H 6 V 9.268554 C 5.69602,9.092807 5.351129,9.000184 5,9 3.895431,9 3,9.89543 3,11 c 0,1.104569 0.895431,2 2,2 1.10457,0 2,-0.895431 2,-2 V 5 h 5 V 8.268554 C 11.69602,8.092807 11.351129,8.000184 11,8 9.89543,8 9,8.89543 9,10 c 0,1.104569 0.89543,2 2,2 1.104569,0 2,-0.895431 2,-2"
     style="fill:#ffffff;stroke-width:0.467176;stroke-linecap:round;stroke-linejoin:round"
     id="path5442"
     sodipodi:nodetypes="ccccsssccccssc" />
</svg>
