<?xml version="1.0" encoding="UTF-8" standalone="no"?>
<!-- Created with Inkscape (http://www.inkscape.org/) -->

<svg
   width="16"
   height="16"
   viewBox="0 0 16 16.000001"
   version="1.1"
   id="svg1"
   inkscape:version="1.4.2 (ebf0e940d0, 2025-05-08)"
   sodipodi:docname="office-address-book.svg"
   xmlns:inkscape="http://www.inkscape.org/namespaces/inkscape"
   xmlns:sodipodi="http://sodipodi.sourceforge.net/DTD/sodipodi-0.dtd"
   xmlns:xlink="http://www.w3.org/1999/xlink"
   xmlns="http://www.w3.org/2000/svg"
   xmlns:svg="http://www.w3.org/2000/svg">
  <sodipodi:namedview
     id="namedview1"
     pagecolor="#ffffff"
     bordercolor="#000000"
     borderopacity="0.25"
     inkscape:showpageshadow="2"
     inkscape:pageopacity="0.0"
     inkscape:pagecheckerboard="0"
     inkscape:deskcolor="#d1d1d1"
     inkscape:document-units="px"
     inkscape:zoom="49.6875"
     inkscape:cx="8"
     inkscape:cy="8"
     inkscape:window-width="1920"
     inkscape:window-height="1010"
     inkscape:window-x="0"
     inkscape:window-y="0"
     inkscape:window-maximized="1"
     inkscape:current-layer="svg1" />
  <defs
     id="defs1">
    <linearGradient
       inkscape:collect="always"
       id="linearGradient3">
      <stop
         style="stop-color:#cc883b;stop-opacity:1;"
         offset="0"
         id="stop1" />
      <stop
         style="stop-color:#e8c69e;stop-opacity:1;"
         offset="1"
         id="stop2" />
    </linearGradient>
    <linearGradient
       inkscape:collect="always"
       xlink:href="#linearGradient3"
       id="linearGradient2"
       x1="16"
       y1="15.735369"
       x2="16"
       y2="0"
       gradientUnits="userSpaceOnUse" />
  </defs>
  <rect
     style="fill:url(#linearGradient2)"
     id="rect1"
     width="16"
     height="16"
     x="0"
     y="0"
     ry="4" />
  <path
     id="rect1-5"
     style="opacity:0.3;fill:#000000"
     d="M 4,0 C 1.784,0 0,1.784 0,4 v 8 c 0,2.216 1.784,4 4,4 z" />
  <path
     id="rect396"
     style="opacity:0.6;fill:#ffffff;stroke-width:0.912871"
     d="M 10,7.5 C 6.88563,9.4401195 6,9.9114125 6,11 v 1 c 0,0.553995 0.446004,1 1,1 h 6 c 0.553996,0 1,-0.446005 1,-1 V 11 C 14,9.9114125 13.11437,9.4401195 10,7.5 Z" />
  <path
     id="path234"
     style="fill:#ffffff;stroke-width:0.810093"
     d="M 13,5 C 13,6.9329966 11.656854,9 10,9 8.343146,9 7,6.9329966 7,5 7,3.0670034 8.343146,2 10,2 c 1.656854,0 3,1.0670034 3,3 z"
     sodipodi:nodetypes="sssss" />
</svg>
