<?xml version="1.0" encoding="UTF-8" standalone="no"?>
<!-- Created with Inkscape (http://www.inkscape.org/) -->

<svg
   width="16"
   height="16"
   viewBox="0 0 16 16.000001"
   version="1.1"
   id="svg1"
   inkscape:version="1.4.2 (ebf0e940d0, 2025-05-08)"
   sodipodi:docname="org.gnome.Extensions.svg"
   xmlns:inkscape="http://www.inkscape.org/namespaces/inkscape"
   xmlns:sodipodi="http://sodipodi.sourceforge.net/DTD/sodipodi-0.dtd"
   xmlns:xlink="http://www.w3.org/1999/xlink"
   xmlns="http://www.w3.org/2000/svg"
   xmlns:svg="http://www.w3.org/2000/svg">
  <sodipodi:namedview
     id="namedview1"
     pagecolor="#ffffff"
     bordercolor="#000000"
     borderopacity="0.25"
     inkscape:showpageshadow="2"
     inkscape:pageopacity="0.0"
     inkscape:pagecheckerboard="0"
     inkscape:deskcolor="#d1d1d1"
     inkscape:document-units="px"
     inkscape:zoom="49.75"
     inkscape:cx="7.9899497"
     inkscape:cy="8"
     inkscape:window-width="1920"
     inkscape:window-height="1011"
     inkscape:window-x="0"
     inkscape:window-y="0"
     inkscape:window-maximized="1"
     inkscape:current-layer="svg1" />
  <defs
     id="defs1">
    <linearGradient
       inkscape:collect="always"
       xlink:href="#linearGradient1717"
       id="linearGradient2"
       x1="8"
       y1="16"
       x2="8"
       y2="0"
       gradientUnits="userSpaceOnUse" />
    <linearGradient
       inkscape:collect="always"
       id="linearGradient1717">
      <stop
         style="stop-color:#4ca90b;stop-opacity:1;"
         offset="0"
         id="stop1713" />
      <stop
         style="stop-color:#9ad77b;stop-opacity:1;"
         offset="1"
         id="stop1715" />
    </linearGradient>
  </defs>
  <rect
     style="fill:url(#linearGradient2)"
     id="rect1"
     width="16"
     height="16"
     x="0"
     y="0"
     ry="4" />
  <path
     d="M 8,3 C 7.446002,3 7,3.4460012 7,3.9999999 v 1 H 5 c -0.5539988,0 -1,0.446002 -1,1 V 8 H 5 C 5.5539987,8 6,8.446002 6,9 6,9.553998 5.5539987,10 5,10 H 4 v 2 c 0,0.553998 0.4460012,1 1,1 h 2 v -1 c 0,-0.553998 0.446002,-1 1,-1 0.5539979,0 1,0.446002 1,1 v 1 h 2 c 0.553998,0 1,-0.446002 1,-1 v -2 h 1 C 13.553998,10 14,9.553998 14,9 14,8.446002 13.553998,8 13,8 H 12 V 5.9999999 c 0,-0.553998 -0.446002,-1 -1,-1 H 9 v -1 C 9,3.4460012 8.5539979,3 8,3 Z"
     style="fill:#ffffff;stroke-width:3;stroke-linecap:round;stroke-linejoin:round"
     id="path2127" />
</svg>
