<?xml version="1.0" encoding="UTF-8" standalone="no"?>
<!-- Created with Inkscape (http://www.inkscape.org/) -->

<svg
   width="16"
   height="16"
   viewBox="0 0 16 16.000001"
   version="1.1"
   id="svg1"
   inkscape:version="1.4.2 (ebf0e940d0, 2025-05-08)"
   sodipodi:docname="org.gnome.font-viewer.svg"
   xmlns:inkscape="http://www.inkscape.org/namespaces/inkscape"
   xmlns:sodipodi="http://sodipodi.sourceforge.net/DTD/sodipodi-0.dtd"
   xmlns:xlink="http://www.w3.org/1999/xlink"
   xmlns="http://www.w3.org/2000/svg"
   xmlns:svg="http://www.w3.org/2000/svg">
  <sodipodi:namedview
     id="namedview1"
     pagecolor="#ffffff"
     bordercolor="#000000"
     borderopacity="0.25"
     inkscape:showpageshadow="2"
     inkscape:pageopacity="0.0"
     inkscape:pagecheckerboard="0"
     inkscape:deskcolor="#d1d1d1"
     inkscape:document-units="px"
     inkscape:zoom="49.125"
     inkscape:cx="7.9898219"
     inkscape:cy="8"
     inkscape:window-width="1920"
     inkscape:window-height="1011"
     inkscape:window-x="0"
     inkscape:window-y="0"
     inkscape:window-maximized="1"
     inkscape:current-layer="svg1" />
  <defs
     id="defs1">
    <linearGradient
       inkscape:collect="always"
       xlink:href="#linearGradient1173"
       id="linearGradient2"
       x1="16"
       y1="15.735369"
       x2="16"
       y2="0"
       gradientUnits="userSpaceOnUse" />
    <linearGradient
       inkscape:collect="always"
       id="linearGradient1173">
      <stop
         style="stop-color:#a52ed9;stop-opacity:1;"
         offset="0"
         id="stop1169" />
      <stop
         style="stop-color:#b369e3;stop-opacity:1;"
         offset="1"
         id="stop1171" />
    </linearGradient>
  </defs>
  <rect
     style="fill:url(#linearGradient2)"
     id="rect1"
     width="16"
     height="16"
     x="0"
     y="0"
     ry="4" />
  <path
     d="M 8.5056467,4 C 7.1030377,4 5.6841219,4.3612093 4.7218675,5.0208281 l 0.9133152,1.711847 c 0.6360718,-0.486849 1.598326,-0.785259 2.527956,-0.785259 1.369984,0 2.1363613,1.002924 2.1363613,2.055153 l -2.5322003,-0.0114 C 5.0925893,7.9790191 4,8.9893131 4,10.481285 c 0,1.460566 1.1162609,2.518717 3.1712527,2.518717 1.288437,0 2.655284,-0.367135 3.1282563,-1.136683 l 1.53e-4,1.040639 L 13,12.903471 12.999696,7.8320291 C 12.999545,5.2720601 11.180407,3.9999939 8.5056467,4 Z m -0.591399,7.392098 c -0.897021,0 -1.4352345,-0.408339 -1.4352345,-1.020828 0,-0.56538 0.3749635,-0.827282 1.5655225,-0.819921 l 2.2549493,0.0114 1.52e-4,0.487423 c 1.51e-4,0.819819 -1.5373403,1.34184 -2.3854243,1.34184 z"
     style="fill:#ffffff;stroke-width:0.999996"
     id="path4342" />
</svg>
