<?xml version="1.0" encoding="UTF-8" standalone="no"?>
<!-- Created with Inkscape (http://www.inkscape.org/) -->

<svg
   width="16"
   height="16"
   viewBox="0 0 16 16.000001"
   version="1.1"
   id="svg1"
   inkscape:version="1.4.2 (ebf0e940d0, 2025-05-08)"
   sodipodi:docname="plasma-search.svg"
   xmlns:inkscape="http://www.inkscape.org/namespaces/inkscape"
   xmlns:sodipodi="http://sodipodi.sourceforge.net/DTD/sodipodi-0.dtd"
   xmlns:xlink="http://www.w3.org/1999/xlink"
   xmlns="http://www.w3.org/2000/svg"
   xmlns:svg="http://www.w3.org/2000/svg">
  <sodipodi:namedview
     id="namedview1"
     pagecolor="#ffffff"
     bordercolor="#000000"
     borderopacity="0.25"
     inkscape:showpageshadow="2"
     inkscape:pageopacity="0.0"
     inkscape:pagecheckerboard="0"
     inkscape:deskcolor="#d1d1d1"
     inkscape:document-units="px"
     inkscape:zoom="49.6875"
     inkscape:cx="8"
     inkscape:cy="7.9899371"
     inkscape:window-width="1920"
     inkscape:window-height="1011"
     inkscape:window-x="0"
     inkscape:window-y="0"
     inkscape:window-maximized="1"
     inkscape:current-layer="svg1" />
  <defs
     id="defs1">
    <linearGradient
       inkscape:collect="always"
       xlink:href="#linearGradient1871"
       id="linearGradient2"
       x1="8"
       y1="16"
       x2="8"
       y2="0"
       gradientUnits="userSpaceOnUse" />
    <linearGradient
       inkscape:collect="always"
       id="linearGradient1871">
      <stop
         style="stop-color:#3daee9;stop-opacity:1;"
         offset="0"
         id="stop1867" />
      <stop
         style="stop-color:#76c6ee;stop-opacity:1;"
         offset="1"
         id="stop1869" />
    </linearGradient>
  </defs>
  <rect
     style="fill:url(#linearGradient2)"
     id="rect1"
     width="16"
     height="16"
     x="0"
     y="0"
     ry="4" />
  <path
     id="path914"
     style="fill:#ffffff;stroke-width:2;stroke-linecap:round;stroke-linejoin:round"
     d="M 6.5,3 A 3.5,3.5 0 0 0 3,6.5 3.5,3.5 0 0 0 6.5,10 3.5,3.5 0 0 0 8.5898438,9.296875 l 3.2128902,3.212891 c 0.195869,0.195868 0.511163,0.195868 0.707032,0 0.195868,-0.195869 0.195868,-0.511163 0,-0.707032 L 9.296875,8.5898438 A 3.5,3.5 0 0 0 10,6.5 3.5,3.5 0 0 0 6.5,3 Z m 0,1 A 2.5,2.5 0 0 1 9,6.5 2.5,2.5 0 0 1 6.5,9 2.5,2.5 0 0 1 4,6.5 2.5,2.5 0 0 1 6.5,4 Z" />
</svg>
