<?xml version="1.0" encoding="UTF-8" standalone="no"?>
<!-- Created with Inkscape (http://www.inkscape.org/) -->

<svg
   width="16"
   height="16"
   viewBox="0 0 16 16.000001"
   version="1.1"
   id="svg1"
   inkscape:version="1.4.2 (ebf0e940d0, 2025-05-08)"
   sodipodi:docname="preferences-desktop-keyboard.svg"
   xmlns:inkscape="http://www.inkscape.org/namespaces/inkscape"
   xmlns:sodipodi="http://sodipodi.sourceforge.net/DTD/sodipodi-0.dtd"
   xmlns:xlink="http://www.w3.org/1999/xlink"
   xmlns="http://www.w3.org/2000/svg"
   xmlns:svg="http://www.w3.org/2000/svg">
  <sodipodi:namedview
     id="namedview1"
     pagecolor="#ffffff"
     bordercolor="#000000"
     borderopacity="0.25"
     inkscape:showpageshadow="2"
     inkscape:pageopacity="0.0"
     inkscape:pagecheckerboard="0"
     inkscape:deskcolor="#d1d1d1"
     inkscape:document-units="px"
     inkscape:zoom="49.6875"
     inkscape:cx="8"
     inkscape:cy="8"
     inkscape:window-width="1920"
     inkscape:window-height="1010"
     inkscape:window-x="0"
     inkscape:window-y="0"
     inkscape:window-maximized="1"
     inkscape:current-layer="svg1" />
  <defs
     id="defs1">
    <linearGradient
       inkscape:collect="always"
       xlink:href="#linearGradient22024"
       id="linearGradient2"
       x1="16"
       y1="15.735369"
       x2="16"
       y2="0"
       gradientUnits="userSpaceOnUse" />
    <linearGradient
       inkscape:collect="always"
       id="linearGradient22024">
      <stop
         style="stop-color:#cdcdcd;stop-opacity:1;"
         offset="0"
         id="stop22020" />
      <stop
         style="stop-color:#eff0f1;stop-opacity:1;"
         offset="1"
         id="stop22022" />
    </linearGradient>
  </defs>
  <rect
     style="fill:url(#linearGradient2)"
     id="rect1"
     width="16"
     height="16"
     x="0"
     y="0"
     ry="4" />
  <path
     id="path1728"
     style="fill:#a1a1a1;fill-opacity:1;stroke-width:0.999999;stroke-linecap:round;stroke-linejoin:round"
     d="M 3 4 C 2.4460006 4 2 4.446 2 5 L 2 6 C 2 6.553999 2.4460006 7 3 7 L 4 7 C 4.5539993 7 5 6.553999 5 6 L 5 5 C 5 4.446 4.5539993 4 4 4 L 3 4 z M 7 4 C 6.446001 4 6 4.446 6 5 L 6 6 C 6 6.553999 6.446001 7 7 7 L 8 7 C 8.5540001 7 9 6.553999 9 6 L 9 5 C 9 4.446 8.5540001 4 8 4 L 7 4 z M 11 4 C 10.446 4 10 4.446 10 5 L 10 6 C 10 6.553999 10.446 7 11 7 L 12 7 C 12.553999 7 13 6.553999 13 6 L 13 5 C 13 4.446 12.553999 4 12 4 L 11 4 z M 4 9 C 3.4460006 9 3 9.446 3 10 L 3 11 C 3 11.553999 3.4460006 12 4 12 L 11 12 C 11.553999 12 12 11.553999 12 11 L 12 10 C 12 9.446 11.553999 9 11 9 L 4 9 z " />
</svg>
