<?xml version="1.0" encoding="UTF-8" standalone="no"?>
<!-- Created with Inkscape (http://www.inkscape.org/) -->

<svg
   width="16"
   height="16"
   viewBox="0 0 16 16.000001"
   version="1.1"
   id="svg1"
   inkscape:version="1.4 (e7c3feb100, 2024-10-09)"
   sodipodi:docname="preferences-system-bluetooth.svg"
   xmlns:inkscape="http://www.inkscape.org/namespaces/inkscape"
   xmlns:sodipodi="http://sodipodi.sourceforge.net/DTD/sodipodi-0.dtd"
   xmlns:xlink="http://www.w3.org/1999/xlink"
   xmlns="http://www.w3.org/2000/svg"
   xmlns:svg="http://www.w3.org/2000/svg">
  <sodipodi:namedview
     id="namedview1"
     pagecolor="#ffffff"
     bordercolor="#000000"
     borderopacity="0.25"
     inkscape:showpageshadow="2"
     inkscape:pageopacity="0.0"
     inkscape:pagecheckerboard="0"
     inkscape:deskcolor="#d1d1d1"
     inkscape:document-units="px"
     inkscape:zoom="50.5"
     inkscape:cx="8.009901"
     inkscape:cy="8"
     inkscape:window-width="1920"
     inkscape:window-height="1011"
     inkscape:window-x="0"
     inkscape:window-y="0"
     inkscape:window-maximized="1"
     inkscape:current-layer="svg1" />
  <defs
     id="defs1">
    <linearGradient
       inkscape:collect="always"
       xlink:href="#linearGradient1818"
       id="linearGradient2"
       x1="16"
       y1="15.735369"
       x2="16"
       y2="0"
       gradientUnits="userSpaceOnUse" />
    <linearGradient
       inkscape:collect="always"
       id="linearGradient1818">
      <stop
         style="stop-color:#017cd9;stop-opacity:1;"
         offset="0"
         id="stop1814" />
      <stop
         style="stop-color:#3fa3e8;stop-opacity:1;"
         offset="1"
         id="stop1816" />
    </linearGradient>
  </defs>
  <rect
     style="fill:url(#linearGradient2)"
     id="rect1"
     width="16"
     height="16"
     x="0"
     y="0"
     ry="4" />
  <path
     d="m 7.3220985,3.0308592 c -0.19404,0.07377 -0.32231,0.25977 -0.32231,0.46736 V 6.826421 L 4.8089342,5.1052302 c -0.21714,-0.1706 -0.53146,-0.13289 -0.70207,0.08425 -0.17061,0.21714 -0.13289,0.53146 0.08425,0.70207 L 6.8722685,7.997941 4.1911142,10.10524 c -0.21714,0.1706 -0.25486,0.4849 -0.08425,0.702 0.17061,0.2172 0.48493,0.2549 0.70207,0.0843 L 6.9997885,9.169541 v 3.328338 c 0,0.2076 0.12827,0.3936 0.32231,0.4674 0.19404,0.0738 0.41348,0.02 0.5514,-0.1352 L 10.873045,10.33004 c 0.09159,-0.103 0.13658,-0.2393 0.12431,-0.3767 -0.01227,-0.1373 -0.0807,-0.2635 -0.18911,-0.3486 L 8.4908985,7.997941 10.808245,6.39106 c 0.10841,-0.08518 0.17684,-0.2113498 0.18911,-0.3486698 0.01227,-0.13733 -0.03272,-0.27362 -0.12431,-0.37667 L 7.8734985,3.1659992 c -0.159478,-0.132903 -0.35736,-0.20895 -0.5514,-0.13518 z m 0.67769,5.8530018 1.5726565,1.178899 -1.5726565,1.120039 z m 0,-1.7718 V 4.8132592 l 1.5726565,1.119721 z"
     id="path346"
     sodipodi:nodetypes="csccsccccccssccccccscscccccccccc"
     style="fill:#ffffff" />
</svg>
