<?xml version="1.0" encoding="UTF-8" standalone="no"?>
<!-- Created with Inkscape (http://www.inkscape.org/) -->

<svg
   width="16"
   height="16"
   viewBox="0 0 16 16.000001"
   version="1.1"
   id="svg1"
   inkscape:version="1.4.2 (ebf0e940d0, 2025-05-08)"
   sodipodi:docname="preferences-desktop-screensaver.svg"
   xmlns:inkscape="http://www.inkscape.org/namespaces/inkscape"
   xmlns:sodipodi="http://sodipodi.sourceforge.net/DTD/sodipodi-0.dtd"
   xmlns:xlink="http://www.w3.org/1999/xlink"
   xmlns="http://www.w3.org/2000/svg"
   xmlns:svg="http://www.w3.org/2000/svg">
  <sodipodi:namedview
     id="namedview1"
     pagecolor="#ffffff"
     bordercolor="#000000"
     borderopacity="0.25"
     inkscape:showpageshadow="2"
     inkscape:pageopacity="0.0"
     inkscape:pagecheckerboard="0"
     inkscape:deskcolor="#d1d1d1"
     inkscape:document-units="px"
     inkscape:zoom="49.125"
     inkscape:cx="7.9898219"
     inkscape:cy="8"
     inkscape:window-width="1920"
     inkscape:window-height="1011"
     inkscape:window-x="0"
     inkscape:window-y="0"
     inkscape:window-maximized="1"
     inkscape:current-layer="svg1" />
  <defs
     id="defs1">
    <linearGradient
       inkscape:collect="always"
       id="linearGradient3">
      <stop
         style="stop-color:#5b25b4;stop-opacity:1;"
         offset="0"
         id="stop1" />
      <stop
         style="stop-color:#bb3fee;stop-opacity:1;"
         offset="1"
         id="stop2" />
    </linearGradient>
    <linearGradient
       inkscape:collect="always"
       xlink:href="#linearGradient3"
       id="linearGradient2"
       x1="16"
       y1="15.735369"
       x2="16"
       y2="0"
       gradientUnits="userSpaceOnUse" />
  </defs>
  <rect
     style="fill:url(#linearGradient2)"
     id="rect1"
     width="16"
     height="16"
     x="0"
     y="0"
     ry="4" />
  <path
     d="M 10.5,5.2 10.350983,4.7490168 9.9,4.6 10.350983,4.4509832 10.5,3.9999996 10.649017,4.4509832 11.1,4.6 10.649017,4.7490168 Z M 7.5,5.74 7.201966,4.8380336 6.3,4.54 7.201966,4.241966 7.5,3.3399996 7.798034,4.241966 8.7,4.54 7.798034,4.8380336 Z M 3.5,7.5 3.0032764,5.9967232 1.5,5.5 3.0032764,5.0032764 3.5,3.4999996 3.9967236,5.0032764 5.5,5.5 3.9967236,5.9967232 Z m 7.698206,-1.700022 c 0.44617,0.540634 0.716746,1.231632 0.716746,1.9873444 0,1.7272796 -1.400256,3.1276076 -3.127608,3.1276076 C 8.031632,10.91493 7.340648,10.644361 6.8,10.198192 7.17818,11.8102 8.623832,13 10.351112,13 12.36632,13 14,11.36632 14,9.351112 14,7.6237596 12.8102,6.1781436 11.198192,5.8 Z"
     style="fill:#ffffff"
     id="path1" />
</svg>
