<?xml version="1.0" encoding="UTF-8" standalone="no"?>
<!-- Created with Inkscape (http://www.inkscape.org/) -->

<svg
   width="16"
   height="16"
   viewBox="0 0 16 16.000001"
   version="1.1"
   id="svg1"
   inkscape:version="1.4.2 (ebf0e940d0, 2025-05-08)"
   sodipodi:docname="retroarch.svg"
   xmlns:inkscape="http://www.inkscape.org/namespaces/inkscape"
   xmlns:sodipodi="http://sodipodi.sourceforge.net/DTD/sodipodi-0.dtd"
   xmlns:xlink="http://www.w3.org/1999/xlink"
   xmlns="http://www.w3.org/2000/svg"
   xmlns:svg="http://www.w3.org/2000/svg">
  <sodipodi:namedview
     id="namedview1"
     pagecolor="#ffffff"
     bordercolor="#000000"
     borderopacity="0.25"
     inkscape:showpageshadow="2"
     inkscape:pageopacity="0.0"
     inkscape:pagecheckerboard="0"
     inkscape:deskcolor="#d1d1d1"
     inkscape:document-units="px"
     inkscape:zoom="49.125"
     inkscape:cx="8.0101781"
     inkscape:cy="8"
     inkscape:window-width="1920"
     inkscape:window-height="1011"
     inkscape:window-x="0"
     inkscape:window-y="0"
     inkscape:window-maximized="1"
     inkscape:current-layer="svg1" />
  <defs
     id="defs1">
    <linearGradient
       inkscape:collect="always"
       id="linearGradient1606">
      <stop
         style="stop-color:#eaebed;stop-opacity:1;"
         offset="0"
         id="stop1602" />
      <stop
         style="stop-color:#f9fafa;stop-opacity:1;"
         offset="1"
         id="stop1604" />
    </linearGradient>
    <linearGradient
       inkscape:collect="always"
       xlink:href="#linearGradient1606"
       id="linearGradient2"
       x1="16"
       y1="15.735369"
       x2="16"
       y2="0"
       gradientUnits="userSpaceOnUse" />
  </defs>
  <rect
     style="fill:url(#linearGradient2)"
     id="rect1"
     width="16"
     height="16"
     x="0"
     y="0"
     ry="4" />
  <path
     d="M 5,4 6.5,6 H 4 L 3.75078,7 H 2.6 L 3,5 H 2 L 1.2,9 H 2 3.3 L 3,10 H 5 L 3.5,12 H 5 l 1.5,-2 h 3 l 1.5,2 h 1.5 L 11,10 h 2 L 12.7,9 h 2.1 L 14,5 h -1 l 0.4,2 H 12.24922 L 12,6 H 9.5 L 11,4 H 10 L 8.5,6 h -1 L 6,4 Z"
     style="fill:#5d5d5d;fill-opacity:1"
     id="path3800"
     sodipodi:nodetypes="cccccccccccccccccccccccccccccccccc" />
  <path
     d="M 5,7 V 8 H 6 V 7 Z m 5,0 v 1 h 1 V 7 Z"
     style="fill:#ffffff;fill-opacity:1;stroke-width:0.1875;stroke-linecap:round;stroke-linejoin:round"
     id="path3869"
     sodipodi:nodetypes="cccccccccc" />
</svg>
