<?xml version="1.0" encoding="UTF-8" standalone="no"?>
<!-- Created with Inkscape (http://www.inkscape.org/) -->

<svg
   width="96"
   height="96"
   viewBox="0 0 96 96.000006"
   version="1.1"
   id="svg1"
   inkscape:version="1.4.2 (ebf0e940d0, 2025-05-08)"
   sodipodi:docname="akregator.svg"
   xmlns:inkscape="http://www.inkscape.org/namespaces/inkscape"
   xmlns:sodipodi="http://sodipodi.sourceforge.net/DTD/sodipodi-0.dtd"
   xmlns:xlink="http://www.w3.org/1999/xlink"
   xmlns="http://www.w3.org/2000/svg"
   xmlns:svg="http://www.w3.org/2000/svg">
  <sodipodi:namedview
     id="namedview1"
     pagecolor="#ffffff"
     bordercolor="#000000"
     borderopacity="0.25"
     inkscape:showpageshadow="2"
     inkscape:pageopacity="0.0"
     inkscape:pagecheckerboard="0"
     inkscape:deskcolor="#d1d1d1"
     inkscape:document-units="px"
     inkscape:zoom="8.2916667"
     inkscape:cx="47.939698"
     inkscape:cy="48"
     inkscape:window-width="1920"
     inkscape:window-height="1011"
     inkscape:window-x="0"
     inkscape:window-y="0"
     inkscape:window-maximized="1"
     inkscape:current-layer="svg1" />
  <defs
     id="defs1">
    <linearGradient
       inkscape:collect="always"
       xlink:href="#linearGradient1428"
       id="linearGradient4"
       x1="16"
       y1="30"
       x2="16"
       y2="2"
       gradientUnits="userSpaceOnUse"
       gradientTransform="scale(3)" />
    <linearGradient
       inkscape:collect="always"
       id="linearGradient1428">
      <stop
         style="stop-color:#ffbb75;stop-opacity:1;"
         offset="0"
         id="stop1424" />
      <stop
         style="stop-color:#f68200;stop-opacity:1;"
         offset="1"
         id="stop1426" />
    </linearGradient>
  </defs>
  <rect
     style="opacity:0.2;fill:#000000;stroke-width:5.25"
     id="rect1"
     width="84"
     height="84"
     x="6"
     y="7"
     ry="18" />
  <rect
     style="fill:url(#linearGradient4);stroke-width:3"
     id="rect2"
     width="84"
     height="84"
     x="6"
     y="6"
     ry="18" />
  <path
     id="path1148"
     style="color:#000000;fill:#ffffff;stroke:none;stroke-width:3;stroke-linecap:round;-inkscape-stroke:none"
     d="M 25.5,18 A 4.5,4.5 0 0 0 21,22.5 4.5,4.5 0 0 0 25.5,27 C 49.57764,27 69,46.42236 69,70.5 A 4.5,4.5 0 0 0 73.5,75 4.5,4.5 0 0 0 78,70.5 C 78,41.558409 54.441591,18 25.5,18 Z m 0,21 A 4.5,4.5 0 0 0 21,43.5 4.5,4.5 0 0 0 25.5,48 C 37.979682,48 48,58.020318 48,70.5 A 4.5,4.5 0 0 0 52.5,75 4.5,4.5 0 0 0 57,70.5 C 57,53.156367 42.843633,39 25.5,39 Z M 27,60 c -4.970691,0 -9,4.029012 -9,9 0,4.970988 4.029309,9 9,9 4.970991,0 9,-4.029012 9,-9 0,-4.970988 -4.029009,-9 -9,-9 z" />
</svg>
