<?xml version="1.0" encoding="UTF-8" standalone="no"?>
<!-- Created with Inkscape (http://www.inkscape.org/) -->

<svg
   width="96"
   height="96"
   viewBox="0 0 96 96.000006"
   version="1.1"
   id="svg1"
   inkscape:version="1.4.2 (ebf0e940d0, 2025-05-08)"
   sodipodi:docname="applications-games.svg"
   xmlns:inkscape="http://www.inkscape.org/namespaces/inkscape"
   xmlns:sodipodi="http://sodipodi.sourceforge.net/DTD/sodipodi-0.dtd"
   xmlns:xlink="http://www.w3.org/1999/xlink"
   xmlns="http://www.w3.org/2000/svg"
   xmlns:svg="http://www.w3.org/2000/svg">
  <sodipodi:namedview
     id="namedview1"
     pagecolor="#ffffff"
     bordercolor="#000000"
     borderopacity="0.25"
     inkscape:showpageshadow="2"
     inkscape:pageopacity="0.0"
     inkscape:pagecheckerboard="0"
     inkscape:deskcolor="#d1d1d1"
     inkscape:document-units="px"
     inkscape:zoom="8.4166667"
     inkscape:cx="47.940594"
     inkscape:cy="48"
     inkscape:window-width="1920"
     inkscape:window-height="1011"
     inkscape:window-x="0"
     inkscape:window-y="0"
     inkscape:window-maximized="1"
     inkscape:current-layer="svg1" />
  <defs
     id="defs1">
    <linearGradient
       inkscape:collect="always"
       xlink:href="#linearGradient1144"
       id="linearGradient4"
       x1="16"
       y1="30"
       x2="16"
       y2="2"
       gradientUnits="userSpaceOnUse"
       gradientTransform="scale(3)" />
    <linearGradient
       inkscape:collect="always"
       id="linearGradient1144">
      <stop
         style="stop-color:#adb2b9;stop-opacity:1;"
         offset="0"
         id="stop1140" />
      <stop
         style="stop-color:#e0e2e4;stop-opacity:1;"
         offset="1"
         id="stop1142" />
    </linearGradient>
    <linearGradient
       inkscape:collect="always"
       id="linearGradient1401">
      <stop
         style="stop-color:#9f9f9f;stop-opacity:1;"
         offset="0"
         id="stop1397" />
      <stop
         style="stop-color:#d0d0d0;stop-opacity:1;"
         offset="1"
         id="stop1399" />
    </linearGradient>
    <linearGradient
       inkscape:collect="always"
       xlink:href="#linearGradient1331"
       id="linearGradient13"
       x1="31.5"
       y1="20"
       x2="31.5"
       y2="17"
       gradientUnits="userSpaceOnUse"
       gradientTransform="matrix(2,0,0,2,0,2)" />
    <linearGradient
       inkscape:collect="always"
       id="linearGradient1331">
      <stop
         style="stop-color:#e4940d;stop-opacity:1;"
         offset="0"
         id="stop1327" />
      <stop
         style="stop-color:#e4ad0d;stop-opacity:1;"
         offset="1"
         id="stop1329" />
    </linearGradient>
    <linearGradient
       inkscape:collect="always"
       xlink:href="#linearGradient1199"
       id="linearGradient9"
       x1="28.5"
       y1="23"
       x2="28.5"
       y2="20"
       gradientUnits="userSpaceOnUse"
       gradientTransform="matrix(2,0,0,2,0,2)" />
    <linearGradient
       inkscape:collect="always"
       id="linearGradient1199">
      <stop
         style="stop-color:#2d7be6;stop-opacity:1;"
         offset="0"
         id="stop1195" />
      <stop
         style="stop-color:#5897ed;stop-opacity:1;"
         offset="1"
         id="stop1197" />
    </linearGradient>
    <linearGradient
       inkscape:collect="always"
       xlink:href="#linearGradient1139"
       id="linearGradient17"
       x1="34.5"
       y1="23"
       x2="34.5"
       y2="20"
       gradientUnits="userSpaceOnUse"
       gradientTransform="matrix(2,0,0,2,0,2)" />
    <linearGradient
       inkscape:collect="always"
       id="linearGradient1139">
      <stop
         style="stop-color:#d43b3b;stop-opacity:1;"
         offset="0"
         id="stop1135" />
      <stop
         style="stop-color:#cb6060;stop-opacity:1;"
         offset="1"
         id="stop1137" />
    </linearGradient>
    <linearGradient
       inkscape:collect="always"
       xlink:href="#linearGradient1339"
       id="linearGradient19"
       x1="31.5"
       y1="26"
       x2="31.5"
       y2="23"
       gradientUnits="userSpaceOnUse"
       gradientTransform="matrix(2,0,0,2,0,2)" />
    <linearGradient
       inkscape:collect="always"
       id="linearGradient1339">
      <stop
         style="stop-color:#6ac326;stop-opacity:1;"
         offset="0"
         id="stop1335" />
      <stop
         style="stop-color:#b0d839;stop-opacity:1;"
         offset="1"
         id="stop1337" />
    </linearGradient>
    <linearGradient
       inkscape:collect="always"
       xlink:href="#linearGradient1401"
       id="linearGradient2"
       x1="33"
       y1="54"
       x2="33"
       y2="36"
       gradientUnits="userSpaceOnUse" />
  </defs>
  <rect
     style="opacity:0.2;fill:#000000;stroke-width:5.25"
     id="rect1"
     width="84"
     height="84"
     x="6"
     y="7"
     ry="18" />
  <rect
     style="fill:url(#linearGradient4);stroke-width:3"
     id="rect2"
     width="84"
     height="84"
     x="6"
     y="6"
     ry="18" />
  <path
     id="path375"
     style="fill:#4d4d4d;fill-opacity:1;stroke-width:5.56212"
     d="M 31.5 27 C 27.64149 27 24.63152 29.180541 22.371094 35.039062 C 17.597632 47.401976 15 56.972037 15 62.771484 C 15 67.231929 16.540437 70.047107 19.810547 71.701172 C 20.193786 71.895572 20.61908 72.00072 21.046875 72 C 21.727873 72.0014 22.389467 71.747849 22.898438 71.285156 L 31.447266 63.5625 C 32.979117 62.173086 34.310879 60 38.050781 60 L 57.949219 60 C 61.689121 60 63.017805 62.172297 64.552734 63.5625 L 73.101562 71.285156 C 73.950327 72.054419 75.172897 72.215354 76.189453 71.701172 C 79.45879 70.047863 81 67.223361 81 62.759766 C 81 56.961105 78.400058 47.399611 73.628906 35.039062 C 71.368487 29.180539 68.357736 27 64.5 27 C 62.695509 27 59.898022 27.479017 58.376953 28.283203 C 51.848287 31.722862 44.30052 31.796113 37.634766 28.283203 C 36.108306 27.479026 33.303717 27 31.5 27 z " />
  <path
     d="m 31.5,36 h 3 c 0.831,0 1.5,0.669 1.5,1.5 V 42 h 4.5 c 0.831,0 1.5,0.669 1.5,1.5 v 3 C 42,47.331 41.331,48 40.5,48 H 36 v 4.5 c 0,0.831 -0.669,1.5 -1.5,1.5 h -3 C 30.669,54 30,53.331 30,52.5 V 48 H 25.5 C 24.669003,48 24,47.331 24,46.5 v -3 C 24,42.669 24.669003,42 25.5,42 H 30 V 37.5 C 30,36.669 30.669,36 31.5,36 Z"
     style="fill:url(#linearGradient2);fill-opacity:1;stroke-width:5.56212"
     id="path1" />
  <circle
     style="fill:url(#linearGradient13);stroke-width:4"
     id="path2"
     cx="63"
     cy="39"
     r="3" />
  <circle
     style="fill:url(#linearGradient9);stroke-width:4"
     id="path3"
     cx="57"
     cy="45"
     r="3" />
  <circle
     style="fill:url(#linearGradient17);stroke-width:4"
     id="path4"
     cx="69"
     cy="45"
     r="3" />
  <circle
     style="fill:url(#linearGradient19);stroke-width:4"
     id="path5"
     cx="63"
     cy="51"
     r="3" />
</svg>
