<?xml version="1.0" encoding="UTF-8" standalone="no"?>
<!-- Created with Inkscape (http://www.inkscape.org/) -->

<svg
   width="96"
   height="96"
   viewBox="0 0 96 96.000006"
   version="1.1"
   id="svg1"
   inkscape:version="1.4.2 (ebf0e940d0, 2025-05-08)"
   sodipodi:docname="applications-utilities.svg"
   xmlns:inkscape="http://www.inkscape.org/namespaces/inkscape"
   xmlns:sodipodi="http://sodipodi.sourceforge.net/DTD/sodipodi-0.dtd"
   xmlns:xlink="http://www.w3.org/1999/xlink"
   xmlns="http://www.w3.org/2000/svg"
   xmlns:svg="http://www.w3.org/2000/svg">
  <sodipodi:namedview
     id="namedview1"
     pagecolor="#ffffff"
     bordercolor="#000000"
     borderopacity="0.25"
     inkscape:showpageshadow="2"
     inkscape:pageopacity="0.0"
     inkscape:pagecheckerboard="0"
     inkscape:deskcolor="#d1d1d1"
     inkscape:document-units="px"
     inkscape:zoom="8.28125"
     inkscape:cx="48"
     inkscape:cy="48"
     inkscape:window-width="1920"
     inkscape:window-height="1010"
     inkscape:window-x="0"
     inkscape:window-y="0"
     inkscape:window-maximized="1"
     inkscape:current-layer="svg1" />
  <defs
     id="defs1">
    <linearGradient
       inkscape:collect="always"
       xlink:href="#linearGradient1217"
       id="linearGradient4"
       x1="16"
       y1="30"
       x2="16"
       y2="2"
       gradientUnits="userSpaceOnUse"
       gradientTransform="scale(3)" />
    <linearGradient
       inkscape:collect="always"
       id="linearGradient1217">
      <stop
         style="stop-color:#96a3ad;stop-opacity:1;"
         offset="0"
         id="stop1213" />
      <stop
         style="stop-color:#c4c8cd;stop-opacity:1;"
         offset="1"
         id="stop1215" />
    </linearGradient>
  </defs>
  <rect
     style="opacity:0.2;fill:#000000;stroke-width:5.25"
     id="rect1"
     width="84"
     height="84"
     x="6"
     y="7"
     ry="18" />
  <rect
     style="fill:url(#linearGradient4);stroke-width:3"
     id="rect2"
     width="84"
     height="84"
     x="6"
     y="6"
     ry="18" />
  <path
     d="m 31,21 c -4.986,0 -9,4.014 -9,9 v 36 c 0,4.986 4.014,9 9,9 4.986,0 9,-4.014 9,-9 V 30 c 0,-4.986 -4.014,-9 -9,-9 z m 7.59375,0 C 41.22775,23.139 43,26.376001 43,30 v 3 h 12.375 c -0.222,-3.279 3.744,-6 6,-6 2.04,0 3,0.03594 3,3 v 3 h 3.65625 c 3.684,-1.8 5.3379,-5.9085 5.3379,-8.062499 C 73.36915,22.7325 66.2185,21 62.3125,21 Z M 43,36 v 12.931653 c 8.298,7.982967 24.374997,7.224597 24.374997,7.224597 0,0 1.058253,-4.557897 -5.718747,-12.0879 L 54.54883,36 Z M 58,43.5996 62.5,48 C 57.103,48.495 56.599,46.2396 58,43.5996 Z"
     style="fill:#ffffff;stroke-width:3"
     id="path17626"
     sodipodi:nodetypes="ssssssscsccssccsscccccccccc" />
</svg>
