<?xml version="1.0" encoding="UTF-8" standalone="no"?>
<!-- Created with Inkscape (http://www.inkscape.org/) -->

<svg
   width="96"
   height="96"
   viewBox="0 0 96 96.000006"
   version="1.1"
   id="svg1"
   inkscape:version="1.4 (e7c3feb100, 2024-10-09)"
   sodipodi:docname="ark.svg"
   xmlns:inkscape="http://www.inkscape.org/namespaces/inkscape"
   xmlns:sodipodi="http://sodipodi.sourceforge.net/DTD/sodipodi-0.dtd"
   xmlns:xlink="http://www.w3.org/1999/xlink"
   xmlns="http://www.w3.org/2000/svg"
   xmlns:svg="http://www.w3.org/2000/svg">
  <sodipodi:namedview
     id="namedview1"
     pagecolor="#ffffff"
     bordercolor="#000000"
     borderopacity="0.25"
     inkscape:showpageshadow="2"
     inkscape:pageopacity="0.0"
     inkscape:pagecheckerboard="0"
     inkscape:deskcolor="#d1d1d1"
     inkscape:document-units="px"
     inkscape:zoom="8.1875"
     inkscape:cx="48.061069"
     inkscape:cy="48"
     inkscape:window-width="1920"
     inkscape:window-height="1011"
     inkscape:window-x="0"
     inkscape:window-y="0"
     inkscape:window-maximized="1"
     inkscape:current-layer="svg1" />
  <defs
     id="defs1">
    <linearGradient
       inkscape:collect="always"
       xlink:href="#linearGradient2014"
       id="linearGradient4"
       x1="16"
       y1="30"
       x2="16"
       y2="2"
       gradientUnits="userSpaceOnUse"
       gradientTransform="scale(3)" />
    <linearGradient
       inkscape:collect="always"
       xlink:href="#linearGradient2014"
       id="linearGradient6816"
       x1="26"
       y1="44"
       x2="26"
       y2="-12"
       gradientUnits="userSpaceOnUse"
       gradientTransform="matrix(1.5,0,0,1.5,8.9999994,24)" />
    <linearGradient
       inkscape:collect="always"
       id="linearGradient2014">
      <stop
         style="stop-color:#d09552;stop-opacity:1;"
         offset="0"
         id="stop2010" />
      <stop
         style="stop-color:#f7dcb2;stop-opacity:1;"
         offset="1"
         id="stop2012" />
    </linearGradient>
  </defs>
  <rect
     style="opacity:0.2;fill:#000000;stroke-width:5.25"
     id="rect1"
     width="84"
     height="84"
     x="6"
     y="7"
     ry="18" />
  <rect
     style="fill:url(#linearGradient4);stroke-width:3"
     id="rect2"
     width="84"
     height="84"
     x="6"
     y="6"
     ry="18" />
  <rect
     style="opacity:0.6;fill:#ffffff;stroke-width:6;stroke-linecap:round;stroke-linejoin:round"
     id="rect954"
     width="30"
     height="36"
     x="18"
     y="22.5"
     ry="6" />
  <path
     id="rect346"
     style="fill:#ffffff;stroke-width:6;stroke-linecap:round;stroke-linejoin:round"
     d="m 24,31.5 c -3.323997,0 -6,2.676003 -6,6 v 27 c 0,4.985994 4.014004,9 9,9 h 42 c 4.985994,0 9,-4.014006 9,-9 v -24 c 0,-4.985994 -4.014006,-9 -9,-9 z"
     sodipodi:nodetypes="cccsssscc" />
  <path
     id="rect6665"
     style="fill:url(#linearGradient6816);fill-opacity:1;stroke-width:3;stroke-linecap:round;stroke-linejoin:round"
     d="m 18,48 v 3 h 3 v -3 z m 3,3 v 3 h 3 v -3 z m 3,0 h 3 v -3 h -3 z m 3,0 v 3 h 3 v -3 z m 3,0 h 3 v -3 h -3 z m 3,0 v 3 h 3 v -3 z m 3,0 h 3 v -3 h -3 z m 3,0 v 3 h 3 v -3 z m 3,0 h 3 v -3 h -3 z m 3,0 v 3 h 3 v -3 z m 3,0 h 3 v -3 h -3 z m 3,0 v 3 h 3 v -3 z m 3,0 h 3 v -3 h -3 z m 3,0 v 3 h 3 v -3 z m 3,0 h 3 v -3 h -3 z m 3,0 v 3 h 3 v -3 z m 3,0 h 3 v -3 h -3 z m 3,0 v 3 h 3 v -3 z m 3,0 h 3 v -3 h -3 z m 3,0 v 3 h 3 v -3 z" />
</svg>
