<?xml version="1.0" encoding="UTF-8" standalone="no"?>
<!-- Created with Inkscape (http://www.inkscape.org/) -->

<svg
   width="96"
   height="96"
   viewBox="0 0 96 96.000006"
   version="1.1"
   id="svg1"
   inkscape:version="1.4.2 (ebf0e940d0, 2025-05-08)"
   sodipodi:docname="audacity.svg"
   xmlns:inkscape="http://www.inkscape.org/namespaces/inkscape"
   xmlns:sodipodi="http://sodipodi.sourceforge.net/DTD/sodipodi-0.dtd"
   xmlns:xlink="http://www.w3.org/1999/xlink"
   xmlns="http://www.w3.org/2000/svg"
   xmlns:svg="http://www.w3.org/2000/svg">
  <sodipodi:namedview
     id="namedview1"
     pagecolor="#ffffff"
     bordercolor="#000000"
     borderopacity="0.25"
     inkscape:showpageshadow="2"
     inkscape:pageopacity="0.0"
     inkscape:pagecheckerboard="0"
     inkscape:deskcolor="#d1d1d1"
     inkscape:document-units="px"
     inkscape:zoom="8.28125"
     inkscape:cx="48"
     inkscape:cy="48"
     inkscape:window-width="1920"
     inkscape:window-height="1010"
     inkscape:window-x="0"
     inkscape:window-y="0"
     inkscape:window-maximized="1"
     inkscape:current-layer="svg1" />
  <defs
     id="defs1">
    <linearGradient
       inkscape:collect="always"
       xlink:href="#linearGradient1161"
       id="linearGradient4"
       x1="16"
       y1="30"
       x2="16"
       y2="2"
       gradientUnits="userSpaceOnUse"
       gradientTransform="scale(3)" />
    <linearGradient
       inkscape:collect="always"
       xlink:href="#linearGradient3010"
       id="linearGradient6722"
       x1="15"
       y1="40.998466"
       x2="49"
       y2="40.998466"
       gradientUnits="userSpaceOnUse"
       gradientTransform="scale(1.5)" />
    <linearGradient
       inkscape:collect="always"
       id="linearGradient3010">
      <stop
         style="stop-color:#f2c204;stop-opacity:1;"
         offset="0"
         id="stop3006" />
      <stop
         style="stop-color:#f26c04;stop-opacity:1;"
         offset="1"
         id="stop3008" />
    </linearGradient>
    <linearGradient
       inkscape:collect="always"
       id="linearGradient1161">
      <stop
         style="stop-color:#1d49bf;stop-opacity:1;"
         offset="0"
         id="stop1157" />
      <stop
         style="stop-color:#689ddc;stop-opacity:1;"
         offset="1"
         id="stop1159" />
    </linearGradient>
  </defs>
  <rect
     style="opacity:0.2;fill:#000000;stroke-width:5.25"
     id="rect1"
     width="84"
     height="84"
     x="6"
     y="7"
     ry="18" />
  <rect
     style="fill:url(#linearGradient4);stroke-width:3"
     id="rect2"
     width="84"
     height="84"
     x="6"
     y="6"
     ry="18" />
  <path
     id="rect344"
     style="fill:#ffffff;stroke-width:9.6;stroke-linecap:round;stroke-linejoin:round"
     d="M 48,18 C 34.704048,18 24,28.704054 24,42 v 24 h 3 V 42 c 0,-11.633955 9.366045,-21 21,-21 11.633955,0 21,9.366045 21,21 v 24 h 3 V 42 C 72,28.704054 61.295952,18 48,18 Z"
     sodipodi:nodetypes="ssccsssccss" />
  <path
     style="color:#000000;fill:url(#linearGradient6722);fill-opacity:1;stroke:none;stroke-width:1.5;stroke-linecap:square;stroke-linejoin:round;-inkscape-stroke:none"
     d="m 47.973633,45 a 1.50015,1.50015 0 0 0 -1.456056,1.277343 l -3.09375,20.63379 -2.944335,-17.657229 a 1.50015,1.50015 0 0 0 -2.941404,-0.09081 L 34.23633,63.465831 32.92383,59.5254 A 1.50015,1.50015 0 0 0 31.5,58.5 H 24 22.5 v 3 h 1.5 6.418947 l 2.657226,7.974609 a 1.50015,1.50015 0 0 0 2.885742,-0.1377 l 2.800782,-12.137697 3.257811,19.546875 a 1.50015,1.50015 0 0 0 2.961912,-0.0234 l 3.181641,-21.210936 2.862306,15.263673 a 1.50015,1.50015 0 0 0 2.941407,0.0381 l 2.789061,-13.02246 1.760742,11.4375 a 1.50015,1.50015 0 0 0 2.824218,0.442383 L 65.425779,61.5 H 72 73.5 v -3 H 72 64.5 a 1.50015,1.50015 0 0 0 -1.341798,0.829101 L 60.764649,64.113279 58.48242,49.271484 a 1.50015,1.50015 0 0 0 -2.950194,-0.08496 L 52.596678,62.882811 49.473633,46.224609 A 1.50015,1.50015 0 0 0 47.973633,45 Z"
     id="path6712" />
  <rect
     style="fill:#ffffff;fill-opacity:1;stroke-width:12;stroke-linecap:round;stroke-linejoin:round"
     id="rect2893"
     width="12"
     height="24"
     x="65.999992"
     y="48"
     ry="9" />
  <path
     id="rect502"
     style="fill:#c4c4c4;fill-opacity:1;stroke-width:12;stroke-linecap:round;stroke-linejoin:round"
     d="m 69,48 c -1.661997,0 -3,1.338003 -3,3 v 18 c 0,1.661997 1.338003,3 3,3 h 3 V 69 51 48 Z" />
  <rect
     style="fill:#ffffff;fill-opacity:1;stroke-width:12;stroke-linecap:round;stroke-linejoin:round"
     id="rect2891"
     width="12"
     height="24"
     x="17.999992"
     y="48"
     ry="9" />
  <path
     id="rect401"
     style="fill:#c4c4c4;fill-opacity:1;stroke-width:12;stroke-linecap:round;stroke-linejoin:round"
     d="m 24,48 v 3 18 3 h 3 c 1.661997,0 3,-1.338003 3,-3 V 51 c 0,-1.661997 -1.338003,-3 -3,-3 z" />
</svg>
