<?xml version="1.0" encoding="UTF-8" standalone="no"?>
<!-- Created with Inkscape (http://www.inkscape.org/) -->

<svg
   width="96"
   height="96"
   viewBox="0 0 96 96.000009"
   version="1.1"
   id="svg1"
   inkscape:version="1.4.2 (ebf0e940d0, 2025-05-08)"
   sodipodi:docname="babe.svg"
   xmlns:inkscape="http://www.inkscape.org/namespaces/inkscape"
   xmlns:sodipodi="http://sodipodi.sourceforge.net/DTD/sodipodi-0.dtd"
   xmlns:xlink="http://www.w3.org/1999/xlink"
   xmlns="http://www.w3.org/2000/svg"
   xmlns:svg="http://www.w3.org/2000/svg">
  <sodipodi:namedview
     id="namedview1"
     pagecolor="#ffffff"
     bordercolor="#000000"
     borderopacity="0.25"
     inkscape:showpageshadow="2"
     inkscape:pageopacity="0.0"
     inkscape:pagecheckerboard="0"
     inkscape:deskcolor="#d1d1d1"
     inkscape:document-units="px"
     inkscape:zoom="8.2708333"
     inkscape:cx="47.939547"
     inkscape:cy="48"
     inkscape:window-width="1920"
     inkscape:window-height="1009"
     inkscape:window-x="0"
     inkscape:window-y="0"
     inkscape:window-maximized="1"
     inkscape:current-layer="svg1" />
  <defs
     id="defs1">
    <linearGradient
       inkscape:collect="always"
       xlink:href="#linearGradient1"
       id="linearGradient4"
       x1="16"
       y1="30"
       x2="16"
       y2="2"
       gradientUnits="userSpaceOnUse"
       gradientTransform="scale(3)" />
    <linearGradient
       id="linearGradient1"
       inkscape:collect="always">
      <stop
         style="stop-color:#f86169;stop-opacity:1;"
         offset="0"
         id="stop1" />
      <stop
         style="stop-color:#f893a6;stop-opacity:1;"
         offset="1"
         id="stop2" />
    </linearGradient>
  </defs>
  <rect
     style="opacity:0.2;fill:#000000;stroke-width:5.25"
     id="rect1"
     width="84"
     height="84"
     x="6"
     y="7"
     ry="18" />
  <rect
     style="fill:url(#linearGradient4);stroke-width:3"
     id="rect2"
     width="84"
     height="84"
     x="6"
     y="6"
     ry="18" />
  <path
     id="path1"
     style="fill:#ffffff;stroke-width:3"
     d="M 30 24 L 30 30 L 38 30 L 38 24 L 30 24 z M 58 24 L 58 30 L 66 30 L 66 24 L 58 24 z M 16 30 L 16 36 L 24 36 L 24 30 L 16 30 z M 72 30 L 72 36 L 80 36 L 80 30 L 72 30 z M 44 33 L 44 39 L 52 39 L 52 33 L 44 33 z M 30 36 L 30 42 L 38 42 L 38 36 L 30 36 z M 58 36 L 58 42 L 66 42 L 66 36 L 58 36 z M 16 42 L 16 48 L 24 48 L 24 42 L 16 42 z M 72 42 L 72 48 L 80 48 L 80 42 L 72 42 z M 44 45 L 44 51 L 52 51 L 52 45 L 44 45 z M 30 48 L 30 54 L 38 54 L 38 48 L 30 48 z M 58 48 L 58 54 L 66 54 L 66 48 L 58 48 z M 16 54 L 16 60 L 24 60 L 24 54 L 16 54 z M 72 54 L 72 60 L 80 60 L 80 54 L 72 54 z M 44 57 L 44 63 L 52 63 L 52 57 L 44 57 z M 30 60 L 30 66 L 38 66 L 38 60 L 30 60 z M 58 60 L 58 66 L 66 66 L 66 60 L 58 60 z M 44 69 L 44 75 L 52 75 L 52 69 L 44 69 z " />
</svg>
