<?xml version="1.0" encoding="UTF-8" standalone="no"?>
<!-- Created with Inkscape (http://www.inkscape.org/) -->

<svg
   width="96"
   height="96"
   viewBox="0 0 96 96.000006"
   version="1.1"
   id="svg1"
   inkscape:version="1.4.2 (ebf0e940d0, 2025-05-08)"
   sodipodi:docname="beamng-drive.svg"
   xmlns:inkscape="http://www.inkscape.org/namespaces/inkscape"
   xmlns:sodipodi="http://sodipodi.sourceforge.net/DTD/sodipodi-0.dtd"
   xmlns:xlink="http://www.w3.org/1999/xlink"
   xmlns="http://www.w3.org/2000/svg"
   xmlns:svg="http://www.w3.org/2000/svg">
  <sodipodi:namedview
     id="namedview1"
     pagecolor="#ffffff"
     bordercolor="#000000"
     borderopacity="0.25"
     inkscape:showpageshadow="2"
     inkscape:pageopacity="0.0"
     inkscape:pagecheckerboard="0"
     inkscape:deskcolor="#d1d1d1"
     inkscape:document-units="px"
     inkscape:zoom="8.1875"
     inkscape:cx="47.938931"
     inkscape:cy="48"
     inkscape:window-width="1920"
     inkscape:window-height="1011"
     inkscape:window-x="0"
     inkscape:window-y="0"
     inkscape:window-maximized="1"
     inkscape:current-layer="svg1" />
  <defs
     id="defs1">
    <linearGradient
       inkscape:collect="always"
       id="linearGradient1606">
      <stop
         style="stop-color:#eaebed;stop-opacity:1;"
         offset="0"
         id="stop1602" />
      <stop
         style="stop-color:#f9fafa;stop-opacity:1;"
         offset="1"
         id="stop1604" />
    </linearGradient>
    <linearGradient
       inkscape:collect="always"
       xlink:href="#linearGradient1606"
       id="linearGradient4"
       x1="16"
       y1="30"
       x2="16"
       y2="2"
       gradientUnits="userSpaceOnUse"
       gradientTransform="scale(3)" />
  </defs>
  <rect
     style="opacity:0.2;fill:#000000;stroke-width:5.25"
     id="rect1"
     width="84"
     height="84"
     x="6"
     y="7"
     ry="18" />
  <rect
     style="fill:url(#linearGradient4);stroke-width:3"
     id="rect2"
     width="84"
     height="84"
     x="6"
     y="6"
     ry="18" />
  <path
     d="m 61.420899,25.5 a 3.0003,3.0003 0 0 0 -1.555665,0.483399 l -30,19.5 a 3.0003,3.0003 0 0 0 0.336915,5.220702 l 37.5,18 a 3.0003,3.0003 0 0 0 4.239258,-3.292968 l -7.5,-37.5 A 3.0003,3.0003 0 0 0 61.420899,25.5 Z M 59.425782,33.427734 64.880859,60.694335 37.61133,47.607423 Z"
     style="fill:#353535;stroke-width:3"
     id="path2" />
  <path
     id="path5"
     style="fill:#fe7d2a;stroke-width:3"
     d="M 61.5,21 A 7.5,7.5 0 0 0 54,28.5 7.5,7.5 0 0 0 61.5,36 7.5,7.5 0 0 0 69,28.5 7.5,7.5 0 0 0 61.5,21 Z M 33,33 A 15,15 0 0 0 18,48 15,15 0 0 0 33,63 15,15 0 0 0 48,48 15,15 0 0 0 33,33 Z M 67.5,54 A 10.5,10.5 0 0 0 57,64.5 10.5,10.5 0 0 0 67.5,75 10.5,10.5 0 0 0 78,64.5 10.5,10.5 0 0 0 67.5,54 Z" />
</svg>
