<?xml version="1.0" encoding="UTF-8" standalone="no"?>
<!-- Created with Inkscape (http://www.inkscape.org/) -->

<svg
   width="96"
   height="96"
   viewBox="0 0 96 96.000006"
   version="1.1"
   id="svg1"
   inkscape:version="1.4 (e7c3feb100, 2024-10-09)"
   sodipodi:docname="calls-app.svg"
   xmlns:inkscape="http://www.inkscape.org/namespaces/inkscape"
   xmlns:sodipodi="http://sodipodi.sourceforge.net/DTD/sodipodi-0.dtd"
   xmlns:xlink="http://www.w3.org/1999/xlink"
   xmlns="http://www.w3.org/2000/svg"
   xmlns:svg="http://www.w3.org/2000/svg">
  <sodipodi:namedview
     id="namedview1"
     pagecolor="#ffffff"
     bordercolor="#000000"
     borderopacity="0.25"
     inkscape:showpageshadow="2"
     inkscape:pageopacity="0.0"
     inkscape:pagecheckerboard="0"
     inkscape:deskcolor="#d1d1d1"
     inkscape:document-units="px"
     inkscape:zoom="8.4166667"
     inkscape:cx="47.940594"
     inkscape:cy="48"
     inkscape:window-width="1920"
     inkscape:window-height="1011"
     inkscape:window-x="0"
     inkscape:window-y="0"
     inkscape:window-maximized="1"
     inkscape:current-layer="svg1" />
  <defs
     id="defs1">
    <linearGradient
       inkscape:collect="always"
       xlink:href="#linearGradient1717"
       id="linearGradient4"
       x1="16"
       y1="30"
       x2="16"
       y2="2"
       gradientUnits="userSpaceOnUse"
       gradientTransform="scale(3)" />
    <linearGradient
       inkscape:collect="always"
       id="linearGradient1717">
      <stop
         style="stop-color:#4ca90b;stop-opacity:1;"
         offset="0"
         id="stop1713" />
      <stop
         style="stop-color:#9ad77b;stop-opacity:1;"
         offset="1"
         id="stop1715" />
    </linearGradient>
  </defs>
  <rect
     style="opacity:0.2;fill:#000000;stroke-width:5.25"
     id="rect1"
     width="84"
     height="84"
     x="6"
     y="7"
     ry="18" />
  <rect
     style="fill:url(#linearGradient4);stroke-width:3"
     id="rect2"
     width="84"
     height="84"
     x="6"
     y="6"
     ry="18" />
  <path
     id="path1"
     style="opacity:0.5;fill:#ffffff;stroke-width:3"
     d="m 29.753906,20.81836 c -0.766856,0 -1.53349,0.2913 -2.121094,0.878906 l -4.242186,4.242188 2.666014,9.123046 10.066408,3.603516 4.242186,-4.24219 c 1.175208,-1.17521 1.175208,-3.066974 0,-4.242184 L 31.875,21.697266 C 31.287396,21.109662 30.520764,20.81836 29.753906,20.81836 Z m 33.94336,33.937498 c -0.766858,0 -1.53349,0.291302 -2.121094,0.878908 L 57.333984,59.876952 60,69 l 10.066406,3.603516 4.242186,-4.242188 c 1.175208,-1.175212 1.175208,-3.066976 0,-4.242188 l -8.490234,-8.484374 c -0.587604,-0.587604 -1.354236,-0.878908 -2.121092,-0.878908 z" />
  <path
     id="rect788"
     style="fill:#ffffff;stroke-width:3"
     d="m 23.396484,25.933594 c -4.700833,4.700832 -2.809058,14.165548 4.242188,21.216796 l 21.210936,21.210938 c 7.051252,7.051248 16.515968,8.943022 21.216798,4.242188 L 57.333984,59.876952 c -1.175206,1.175206 -3.06698,1.175206 -4.242186,0 l -16.96875,-16.96875 c -1.175206,-1.175206 -1.175206,-3.06698 0,-4.242186 z" />
</svg>
