<?xml version="1.0" encoding="UTF-8" standalone="no"?>
<!-- Created with Inkscape (http://www.inkscape.org/) -->

<svg
   width="96"
   height="96"
   viewBox="0 0 96 96.000009"
   version="1.1"
   id="svg1"
   inkscape:version="1.4.2 (ebf0e940d0, 2025-05-08)"
   sodipodi:docname="civ-vi.svg"
   xmlns:inkscape="http://www.inkscape.org/namespaces/inkscape"
   xmlns:sodipodi="http://sodipodi.sourceforge.net/DTD/sodipodi-0.dtd"
   xmlns:xlink="http://www.w3.org/1999/xlink"
   xmlns="http://www.w3.org/2000/svg"
   xmlns:svg="http://www.w3.org/2000/svg">
  <sodipodi:namedview
     id="namedview1"
     pagecolor="#ffffff"
     bordercolor="#000000"
     borderopacity="0.25"
     inkscape:showpageshadow="2"
     inkscape:pageopacity="0.0"
     inkscape:pagecheckerboard="0"
     inkscape:deskcolor="#d1d1d1"
     inkscape:document-units="px"
     inkscape:zoom="8.1875"
     inkscape:cx="47.938931"
     inkscape:cy="48"
     inkscape:window-width="1920"
     inkscape:window-height="1011"
     inkscape:window-x="0"
     inkscape:window-y="0"
     inkscape:window-maximized="1"
     inkscape:current-layer="svg1" />
  <defs
     id="defs1">
    <linearGradient
       inkscape:collect="always"
       xlink:href="#linearGradient871"
       id="linearGradient4"
       x1="-1.980198"
       y1="0"
       x2="0"
       y2="16"
       gradientUnits="userSpaceOnUse"
       gradientTransform="matrix(5.25,0,0,5.25,90,6)" />
    <linearGradient
       inkscape:collect="always"
       id="linearGradient871">
      <stop
         style="stop-color:#fee293;stop-opacity:1;"
         offset="0"
         id="stop867" />
      <stop
         style="stop-color:#fffad0;stop-opacity:1;"
         offset="0.5"
         id="stop4835" />
      <stop
         style="stop-color:#fffaea;stop-opacity:1;"
         offset="1"
         id="stop869" />
    </linearGradient>
    <radialGradient
       inkscape:collect="always"
       xlink:href="#linearGradient879"
       id="radialGradient3"
       cx="-15.210008"
       cy="14.392661"
       fx="-15.210008"
       fy="14.392661"
       r="8"
       gradientUnits="userSpaceOnUse"
       gradientTransform="matrix(7.1185758,2.6059086,-2.5958278,7.0910373,155.78192,19.13847)" />
    <linearGradient
       inkscape:collect="always"
       id="linearGradient879">
      <stop
         style="stop-color:#f7cea2;stop-opacity:1;"
         offset="0"
         id="stop875" />
      <stop
         style="stop-color:#f7cea2;stop-opacity:0;"
         offset="1"
         id="stop877" />
    </linearGradient>
    <linearGradient
       inkscape:collect="always"
       xlink:href="#linearGradient1389"
       id="linearGradient970"
       x1="11.013281"
       y1="4.3410792"
       x2="11.013281"
       y2="11.467776"
       gradientUnits="userSpaceOnUse"
       gradientTransform="matrix(5.669292,0,0,5.669292,15.562494,5.389155)" />
    <linearGradient
       inkscape:collect="always"
       id="linearGradient1389">
      <stop
         style="stop-color:#ffffff;stop-opacity:0"
         offset="0"
         id="stop1385" />
      <stop
         style="stop-color:#ffffff;stop-opacity:0.57254902;"
         offset="0.5"
         id="stop1969" />
      <stop
         style="stop-color:#ffffff;stop-opacity:0.00353621"
         offset="1"
         id="stop1387" />
    </linearGradient>
  </defs>
  <rect
     style="opacity:0.2;fill:#000000;stroke-width:7.35"
     id="rect1"
     width="84"
     height="84"
     x="6"
     y="7"
     ry="18" />
  <rect
     style="fill:url(#linearGradient4);stroke-width:5.25"
     id="rect2"
     width="84"
     height="84"
     x="6"
     y="6"
     ry="18" />
  <rect
     style="fill:url(#radialGradient3);stroke-width:5.25"
     id="rect3"
     width="84"
     height="84"
     x="6"
     y="6.0000029"
     ry="18" />
  <path
     d="m 18,30 v 0.520215 c 1.620147,0.463749 2.199789,1.390971 3.704577,4.688946 L 37.392171,70.40406 h 0.867192 L 53.021652,37.062213 c 1.736022,-3.937578 2.257701,-5.615796 4.688949,-6.541998 V 30 c -2.026728,0.11586 -4.283883,0.11565 -6.484419,0.11565 -1.273299,0 -2.720178,-0.05799 -3.993483,-0.11565 v 0.520215 c 1.042074,0.17331 1.504563,0.753051 1.504563,1.564152 0,1.271763 -0.347643,2.024799 -0.693951,2.835897 L 37.796727,59.05896 28.767294,37.351608 c -0.810588,-1.968531 -1.446984,-3.705165 -1.446984,-4.631367 0,-1.273818 0.636396,-1.909578 1.735893,-2.200026 V 30 C 24.135519,30.115875 20.315889,30.115875 18,30 Z m 48.364008,9.69e-4 v 0.520215 c 2.373825,0.519873 2.893965,2.546622 2.893965,7.988991 v 21.649296 c 0,5.672058 -0.578076,7.349778 -2.893965,7.929903 v 0.520215 c 1.793958,-0.05817 3.820089,-0.11418 5.962683,-0.11418 1.909056,0 3.935751,0.05613 5.673309,0.11418 V 68.08938 C 75.74256,67.509255 75.046944,65.946639 75.046944,60.159477 V 38.510208 c 0,-5.500302 0.579489,-7.469103 2.953056,-7.988985 v -0.520212 c -1.969041,0.05766 -3.995766,0.11565 -5.78895,0.11565 -1.795749,0 -3.820575,-0.05799 -5.847042,-0.11565 z"
     style="fill:#9b371e;stroke-width:0.256353"
     id="path1755" />
  <path
     d="m 18,30 v 0.521484 c 1.620147,0.463749 2.198337,1.389528 3.703125,4.6875 L 37.391601,70.403325 H 38.25879 L 53.021487,37.063476 c 1.736022,-3.937578 2.25918,-5.615787 4.690428,-6.541992 V 30 c -2.026725,0.11586 -4.285791,0.11424 -6.486327,0.11424 -1.273299,0 -2.719857,-0.05658 -3.993165,-0.11424 v 0.521484 c 1.042074,0.17331 1.505859,0.750426 1.505862,1.561524 0,1.271763 -0.348027,2.024838 -0.694338,2.835939 L 37.795899,59.059575 28.766598,37.350588 c -0.810591,-1.968531 -1.447263,-3.702705 -1.447263,-4.628907 0,-1.273818 0.637806,-1.909746 1.737303,-2.200197 V 30 C 24.135954,30.115875 20.315889,30.115875 18,30 Z m 48.363285,0 v 0.521484 c 2.373816,0.519876 2.894529,2.546892 2.894529,7.989258 v 21.647469 c 0,5.672061 -0.57864,7.35054 -2.894529,7.930662 v 0.52146 c 1.793955,-0.05817 3.822252,-0.11424 5.96484,-0.11424 1.909062,0 3.934317,0.05613 5.671875,0.11424 v -0.52146 c -2.257437,-0.580122 -2.953122,-2.1435 -2.953122,-7.930662 V 38.510742 c 0,-5.500299 0.579561,-7.469376 2.953122,-7.989258 V 30 c -1.969041,0.05766 -3.995874,0.11721 -5.789055,0.11721 -1.795743,0 -3.821199,-0.05955 -5.84766,-0.11721 z"
     style="opacity:0.5;fill:url(#linearGradient970);fill-opacity:1;stroke-width:0.968895"
     id="path338" />
</svg>
