<?xml version="1.0" encoding="UTF-8" standalone="no"?>
<!-- Created with Inkscape (http://www.inkscape.org/) -->

<svg
   width="96"
   height="96"
   viewBox="0 0 96 96.000009"
   version="1.1"
   id="svg1"
   inkscape:version="1.4.2 (ebf0e940d0, 2025-05-08)"
   sodipodi:docname="cpu-x.svg"
   xmlns:inkscape="http://www.inkscape.org/namespaces/inkscape"
   xmlns:sodipodi="http://sodipodi.sourceforge.net/DTD/sodipodi-0.dtd"
   xmlns:xlink="http://www.w3.org/1999/xlink"
   xmlns="http://www.w3.org/2000/svg"
   xmlns:svg="http://www.w3.org/2000/svg">
  <sodipodi:namedview
     id="namedview1"
     pagecolor="#ffffff"
     bordercolor="#000000"
     borderopacity="0.25"
     inkscape:showpageshadow="2"
     inkscape:pageopacity="0.0"
     inkscape:pagecheckerboard="0"
     inkscape:deskcolor="#d1d1d1"
     inkscape:document-units="px"
     inkscape:zoom="8.2916667"
     inkscape:cx="47.939698"
     inkscape:cy="48"
     inkscape:window-width="1920"
     inkscape:window-height="1011"
     inkscape:window-x="0"
     inkscape:window-y="0"
     inkscape:window-maximized="1"
     inkscape:current-layer="svg1"
     showguides="false" />
  <defs
     id="defs1">
    <linearGradient
       inkscape:collect="always"
       xlink:href="#linearGradient1940"
       id="linearGradient4"
       x1="16"
       y1="30"
       x2="16"
       y2="2"
       gradientUnits="userSpaceOnUse"
       gradientTransform="scale(3)" />
    <linearGradient
       inkscape:collect="always"
       id="linearGradient1993">
      <stop
         style="stop-color:#e9e9e9;stop-opacity:1;"
         offset="0"
         id="stop1989" />
      <stop
         style="stop-color:#d0d0d0;stop-opacity:1;"
         offset="1"
         id="stop1991" />
    </linearGradient>
    <linearGradient
       inkscape:collect="always"
       id="linearGradient1940">
      <stop
         style="stop-color:#28b013;stop-opacity:1;"
         offset="0"
         id="stop1936" />
      <stop
         style="stop-color:#4ac265;stop-opacity:1;"
         offset="1"
         id="stop1938" />
    </linearGradient>
    <linearGradient
       inkscape:collect="always"
       xlink:href="#linearGradient1993"
       id="linearGradient6"
       x1="11"
       y1="4"
       x2="11"
       y2="18"
       gradientUnits="userSpaceOnUse"
       gradientTransform="matrix(4.2857139,0,0,4.2857139,0.8571438,0.8571438)" />
  </defs>
  <rect
     style="opacity:0.2;fill:#000000;stroke-width:7.35"
     id="rect1"
     width="84"
     height="84"
     x="6"
     y="7"
     ry="18" />
  <rect
     style="fill:url(#linearGradient4);stroke-width:3"
     id="rect2"
     width="84"
     height="84"
     x="6"
     y="6"
     ry="18" />
  <rect
     style="opacity:0.2;fill:#000000;stroke-width:8.57142"
     id="rect3"
     width="60"
     height="60"
     x="18"
     y="19"
     ry="12" />
  <rect
     style="opacity:1;fill:url(#linearGradient6);stroke-width:8.57142"
     id="rect4"
     width="60"
     height="60"
     x="18"
     y="18"
     ry="12" />
  <path
     d="m 50.283327,57.226089 c -3.36048,1.560222 -6.486927,1.548222 -8.587227,1.392198 -2.502357,-0.18003 -4.517445,-0.864129 -5.402571,-1.46421 -0.545478,-0.365451 -1.287186,-0.22743 -1.656837,0.318048 -0.369054,0.546078 -0.22623,1.290183 0.319245,1.656234 1.422804,0.966144 3.940161,1.680246 6.572139,1.872276 0.444063,0.03 0.930132,0.054 1.458207,0.054 2.286327,0 5.196744,-0.22203 8.305188,-1.668243 0.594084,-0.27603 0.85212,-0.984141 0.576081,-1.584228 -0.27603,-0.594084 -0.990141,-0.85152 -1.584225,-0.576081 z M 63.54522,55.456431 C 63.65925,45.092949 64.721388,25.507953 44.882556,27.090378 25.292757,28.668603 30.487098,49.359558 30.194856,56.290548 29.936226,59.956479 28.719246,64.439124 27,68.999778 h 5.295156 c 0.544278,-1.932279 0.944535,-3.846552 1.116759,-5.66481 0.319248,0.22203 0.660696,0.438063 1.025547,0.64209 0.592884,0.348051 1.101759,0.816111 1.641834,1.308183 1.26078,1.146168 2.690784,2.448348 5.484786,2.610378 0.18603,0.012 0.378054,0.018 0.558078,0.018 2.826405,0 4.758681,-1.236177 6.312903,-2.232321 0.744105,-0.474066 1.386198,-0.882126 1.992285,-1.080153 1.722246,-0.540078 3.222459,-1.410201 4.344618,-2.51436 0.17403,-0.17403 0.336048,-0.348048 0.492072,-0.534075 0.62409,2.292321 1.48221,4.87269 2.430348,7.447059 H 69 c -2.712387,-4.1946 -5.514789,-8.299182 -5.45478,-13.543338 z m -31.454094,-5.634807 -6e-4,-0.006 c -0.19443,-3.378483 1.424004,-6.222888 3.614919,-6.354909 2.190912,-0.12603 4.124388,2.51436 4.316415,5.898843 h 0.006 c 0.006,0.18003 0.012,0.360051 0.012,0.540078 -0.696099,0.17403 -1.320189,0.42606 -1.88127,0.726105 -0.0024,-0.03 -0.0042,-0.054 -0.0066,-0.078 v 0 c -0.18783,-1.920276 -1.212774,-3.372483 -2.291127,-3.240462 -1.077153,0.13203 -1.799058,1.794255 -1.611831,3.714528 v 0 c 0.0816,0.84012 0.322848,1.590228 0.658296,2.154309 -0.084,0.066 -0.319848,0.24003 -0.591087,0.438063 -0.20403,0.15003 -0.451863,0.330048 -0.751305,0.552078 -0.815517,-1.074153 -1.374198,-2.610372 -1.474413,-4.344621 z m 22.194771,8.3586 c -0.078,1.788255 -2.418345,3.468501 -4.572651,4.140597 l -0.018,0.006 c -0.894129,0.29403 -1.698243,0.804114 -2.544363,1.350192 -1.422204,0.906129 -2.898414,1.854264 -5.02272,1.854264 -0.14403,0 -0.28803,-0.006 -0.42606,-0.018 -1.950279,-0.11403 -2.860608,-0.942132 -4.013973,-1.992288 -0.609687,-0.558081 -1.239177,-1.128162 -2.049894,-1.608231 l -0.0174,-0.006 c -1.752252,-0.990135 -2.839608,-2.220324 -2.909217,-3.288471 -0.0342,-0.534075 0.20283,-0.996147 0.705102,-1.374195 1.092156,-0.815523 1.824258,-1.349601 2.307927,-1.703649 0.538278,-0.396057 0.700902,-0.516075 0.82032,-0.63009 0.0864,-0.078 0.17883,-0.16803 0.27903,-0.27003 1.003344,-0.972141 2.681784,-2.604372 5.25615,-2.604372 1.578225,0 3.318474,0.606087 5.172738,1.800255 0.876126,0.570084 1.638234,0.83412 2.604372,1.164168 0.660096,0.22803 1.410204,0.486069 2.418348,0.918132 l 0.018,0.006 c 0.936135,0.390054 2.046294,1.091562 1.992285,2.255727 z m -0.516072,-4.200006 c -0.18003,-0.09 -0.366054,-0.17403 -0.564081,-0.25803 -0.906129,-0.390057 -1.632234,-0.648093 -2.238321,-0.858123 0.336048,-0.654093 0.540078,-1.47021 0.558081,-2.352336 v 0 c 0.048,-2.148306 -1.032147,-3.888555 -2.418345,-3.894555 -1.380198,-0.006 -2.538363,1.734246 -2.586369,3.882555 v 0 0.21003 c -0.852123,-0.390057 -1.692243,-0.672096 -2.50836,-0.852123 -0.006,-0.078 -0.012,-0.16203 -0.012,-0.24003 v 0 c -0.078,-3.918561 2.32233,-7.153023 5.364765,-7.237035 3.042435,-0.084 5.568795,3.024432 5.652807,6.93699 v 0 c 0.03,1.770255 -0.438063,3.402486 -1.248177,4.662666 z"
     style="opacity:0.4;fill:#000000;stroke-width:6.00087"
     id="path364" />
</svg>
