<?xml version="1.0" encoding="UTF-8" standalone="no"?>
<!-- Created with Inkscape (http://www.inkscape.org/) -->

<svg
   width="96"
   height="96"
   viewBox="0 0 96 96.000006"
   version="1.1"
   id="svg1"
   inkscape:version="1.4.2 (ebf0e940d0, 2025-05-08)"
   sodipodi:docname="desktop-environment-xfce.svg"
   xmlns:inkscape="http://www.inkscape.org/namespaces/inkscape"
   xmlns:sodipodi="http://sodipodi.sourceforge.net/DTD/sodipodi-0.dtd"
   xmlns:xlink="http://www.w3.org/1999/xlink"
   xmlns="http://www.w3.org/2000/svg"
   xmlns:svg="http://www.w3.org/2000/svg">
  <sodipodi:namedview
     id="namedview1"
     pagecolor="#ffffff"
     bordercolor="#000000"
     borderopacity="0.25"
     inkscape:showpageshadow="2"
     inkscape:pageopacity="0.0"
     inkscape:pagecheckerboard="0"
     inkscape:deskcolor="#d1d1d1"
     inkscape:document-units="px"
     inkscape:zoom="8.1875"
     inkscape:cx="47.938931"
     inkscape:cy="48"
     inkscape:window-width="1920"
     inkscape:window-height="1011"
     inkscape:window-x="0"
     inkscape:window-y="0"
     inkscape:window-maximized="1"
     inkscape:current-layer="svg1" />
  <defs
     id="defs1">
    <linearGradient
       inkscape:collect="always"
       xlink:href="#linearGradient2"
       id="linearGradient4"
       x1="16"
       y1="30"
       x2="16"
       y2="2"
       gradientUnits="userSpaceOnUse"
       gradientTransform="scale(3)" />
    <linearGradient
       inkscape:collect="always"
       id="linearGradient2">
      <stop
         style="stop-color:#26448e;stop-opacity:1;"
         offset="0"
         id="stop1" />
      <stop
         style="stop-color:#6074be;stop-opacity:1;"
         offset="1"
         id="stop2" />
    </linearGradient>
  </defs>
  <rect
     style="opacity:0.2;fill:#000000;stroke-width:5.25"
     id="rect1"
     width="84"
     height="84"
     x="6"
     y="7"
     ry="18" />
  <rect
     style="fill:url(#linearGradient4);stroke-width:3"
     id="rect2"
     width="84"
     height="84"
     x="6"
     y="6"
     ry="18" />
  <path
     style="fill:#f9f9f9;stroke-width:3"
     d="M 11.253155,29.849278 C 11.100034,30.149314 10.946913,30.44728 10.8,30.747312 c 2.327852,1.293256 9.036208,4.663986 12.22071,6.660766 4.024598,2.464422 9.464532,7.49258 9.892854,8.338886 -4.185996,7.2898 -2.286464,13.741572 -2.781006,14.428548 -0.355902,0.57317 -3.645934,4.185996 -2.586502,4.719848 1.051154,0.52558 2.723072,-0.300032 2.975512,-0.46143 0.52558,-0.322794 1.06771,-0.792506 0.8401,0.13656 -0.44488,1.899526 -2.464422,6.466258 0.322794,5.4958 0.339348,-0.19452 4.825378,-5.139896 5.367512,-5.30957 8.92447,2.32785 18.9063,1.260144 20.754096,0.395216 0.962182,0.06414 3.68525,1.777446 5.237154,2.594782 1.551902,0.809056 5.779284,2.836876 4.527414,-0.848374 -0.38901,-1.164962 -3.16795,-4.138402 -2.716864,-4.33291 0.99322,-0.395218 3.451432,1.026324 4.397056,1.293252 2.8286,0.792504 3.209334,-0.306244 1.42361,-2.72307 -1.762958,-2.41683 -2.027816,-2.044372 -2.5865,-3.159672 -0.436604,-0.898036 0,-1.891252 0.322794,-2.133348 0.573172,-0.436602 9.019654,-5.125416 10.999882,-6.919416 2.934128,-2.667198 0,-5.996548 -0.720084,-6.466254 -6.085526,-4.380502 -12.334516,-3.443154 -12.415214,-4.138408 -0.0414,-0.7925 -0.0246,-3.078972 -0.13038,-3.871478 -0.606278,-5.367514 -3.087252,-4.016322 -3.4266,-4.016322 -2.480976,0.38901 -1.568456,4.185998 -0.5173,7.759512 0.0807,0.912518 -0.864928,0.509024 -1.423612,-0.453156 -1.907806,-5.11714 -2.708586,-5.028162 -3.234166,-5.181286 -0.509022,-0.11382 -2.303018,0.978736 -2.27198,3.047938 0.0084,0.589722 0.711804,3.403838 0.711804,4.268766 -1.17117,1.026324 -1.229106,3.354176 -2.458212,4.20255 -3.57972,0.742842 -12.181394,-1.76917 -13.25531,-1.882978 C 36.551202,41.496816 34.92688,44.286102 34.32888,43.61568 29.503522,38.086776 22.130952,33.98148 18.938174,33.269672 17.70079,33.002746 13.52307,31.159084 12.01876,30.23001 11.776663,30.085168 11.50146,29.979636 11.234532,29.841 m 66.359322,4.850214 c -1.16496,1.25187 -0.962178,5.932404 -0.720082,5.893088 1.187724,-0.2421 1.075986,-6.269682 0.720082,-5.893088 m 3.370734,0.711806 c -0.13656,-0.380732 -3.201058,3.921138 -2.658928,5.50408 0.2421,0.686972 3.070696,-4.299804 2.658928,-5.50408 M 65.05035,42.71765 c 0.0414,-0.0414 0.08898,0.0168 0.13656,0.06414 0.355902,1.179448 0.751116,2.303022 3.095526,2.586502 0.27522,0.03312 -1.301532,0.953904 -2.383722,0.389012 -0.987012,-0.598002 -1.075986,-2.772732 -0.848372,-3.03966 m 6.079316,5.940682 c 0.21726,-0.03312 0.372456,-0.0246 0.525578,0 0.57317,0.14484 -4.159098,2.611332 -4.527416,2.271984 -0.22554,-0.21726 2.522358,-1.99678 4.010112,-2.271984 m 1.229108,1.560176 c 0.492472,0.0414 -2.739622,3.387286 -3.103804,3.039658 -0.26694,-0.2421 2.094034,-3.120354 3.103804,-3.039658"
     id="path3" />
</svg>
