<?xml version="1.0" encoding="UTF-8" standalone="no"?>
<!-- Created with Inkscape (http://www.inkscape.org/) -->

<svg
   width="96"
   height="96"
   viewBox="0 0 96 96.000008"
   version="1.1"
   id="svg1"
   inkscape:version="1.4.2 (ebf0e940d0, 2025-05-08)"
   sodipodi:docname="gimp.svg"
   xmlns:inkscape="http://www.inkscape.org/namespaces/inkscape"
   xmlns:sodipodi="http://sodipodi.sourceforge.net/DTD/sodipodi-0.dtd"
   xmlns:xlink="http://www.w3.org/1999/xlink"
   xmlns="http://www.w3.org/2000/svg"
   xmlns:svg="http://www.w3.org/2000/svg">
  <sodipodi:namedview
     id="namedview1"
     pagecolor="#ffffff"
     bordercolor="#000000"
     borderopacity="0.25"
     inkscape:showpageshadow="2"
     inkscape:pageopacity="0.0"
     inkscape:pagecheckerboard="0"
     inkscape:deskcolor="#d1d1d1"
     inkscape:document-units="px"
     inkscape:zoom="8.1875"
     inkscape:cx="47.938931"
     inkscape:cy="48"
     inkscape:window-width="1920"
     inkscape:window-height="1011"
     inkscape:window-x="0"
     inkscape:window-y="0"
     inkscape:window-maximized="1"
     inkscape:current-layer="svg1" />
  <defs
     id="defs1">
    <linearGradient
       inkscape:collect="always"
       xlink:href="#linearGradient3"
       id="linearGradient4"
       x1="16"
       y1="30"
       x2="16"
       y2="2"
       gradientUnits="userSpaceOnUse"
       gradientTransform="scale(3)" />
    <linearGradient
       inkscape:collect="always"
       id="linearGradient3">
      <stop
         style="stop-color:#cfc6be;stop-opacity:1;"
         offset="0"
         id="stop1" />
      <stop
         style="stop-color:#f0ecec;stop-opacity:1;"
         offset="1"
         id="stop2" />
    </linearGradient>
  </defs>
  <rect
     style="opacity:0.2;fill:#000000;stroke-width:7.35"
     id="rect1"
     width="84"
     height="84"
     x="6"
     y="7"
     ry="18" />
  <rect
     style="fill:url(#linearGradient4);stroke-width:3"
     id="rect2"
     width="84"
     height="84"
     x="6"
     y="6"
     ry="18" />
  <path
     style="fill:#8c8073;fill-opacity:1;fill-rule:evenodd;stroke-width:2"
     d="m 74.007972,22.047472 c -0.496672,-0.07894 -0.942884,0.201316 -1.211134,0.52042 -0.268246,0.319264 -0.454372,0.71479 -0.61646,1.213264 -0.280322,0.862578 -1.309788,4.064368 -5.021998,7.228894 -3.712206,3.164686 -10.113772,6.705238 -21.20882,6.990712 -6.746526,0.07894 -11.39932,-3.819424 -14.08954,-9.142844 -0.671386,-1.328526 -1.860014,-3.804316 -1.860014,-2.229 v 2.435684 l -0.03426,13.60538 0.0685,0.16594 c 0,0 0.604394,1.342578 -0.03424,3.151422 -0.638646,1.808998 -2.946766,4.448818 -8.575092,6.138134 l -0.688074,0.204474 0.13076,0.72458 c 0.312186,1.755316 1.556582,3.554368 3.39366,5.39621 1.837076,1.841684 4.29676,3.705 7.160936,5.389578 5.72835,3.36916 13.0653,6.03158 20.193838,6.156002 7.128536,0.12474 14.10316,-2.368106 18.718062,-9.272368 4.614904,-6.904106 6.86557,-19.481222 5.021994,-36.642646 h -0.0032 C 75.29435,23.610156 75.19043,23.20784 75.004282,22.855262 74.818142,22.50284 74.50465,22.138892 74.007976,22.06026 Z"
     id="path4350" />
  <path
     style="fill:#ffffff;fill-rule:evenodd;stroke-width:2"
     d="m 35.998516,36.00076 c -1.979118,0 -3.968178,0.654242 -5.482496,2.000322 -1.514318,1.346078 -2.516022,3.397438 -2.516022,6.00112 0,2.60368 1.001704,4.65216 2.516022,5.99824 1.514318,1.34608 3.503378,2.00032 5.482496,2.00032 1.979118,0 3.96818,-0.65424 5.482498,-2.00032 1.51432,-1.34608 2.518984,-3.39456 2.518984,-5.99824 0,-2.603682 -1.004664,-4.655042 -2.518984,-6.00112 -1.514318,-1.34608 -3.50338,-2.000322 -5.482498,-2.000322 z"
     id="path4358" />
  <path
     style="fill:#3f3f3f;fill-rule:evenodd;stroke-width:2"
     d="m 38,42.000762 c -0.980146,0 -1.97102,0.323998 -2.734376,1.00256 -0.763352,0.67856 -1.265626,1.723682 -1.265626,2.997442 0,1.273762 0.502274,2.31888 1.265626,2.997442 0.763356,0.678558 1.75423,1.002556 2.734376,1.002556 0.980146,0 1.97102,-0.323998 2.734378,-1.002556 C 41.497732,48.319644 42,47.274526 42,46.000764 42,44.727004 41.497732,43.681882 40.734378,43.003322 39.97102,42.32476 38.980146,42.000762 38,42.000762 Z"
     id="path4360" />
  <path
     style="opacity:1;fill:#333333;fill-opacity:1;fill-rule:evenodd;stroke-width:2"
     d="m 33.999998,58.002678 c 2.887448,0 5.51986,0.17176 7.907556,0 3.96647,-0.29059 7.453034,-0.0028 9.215758,-1.611608 -0.74562,-1.13822 -1.123314,-2.386792 -1.123314,-2.386792 0,0 2.412578,1.086722 3.577636,2.86418 1.161724,1.7725 -1.273604,2.8645 -1.577636,5.132304 -0.676838,-1.991766 -0.235222,-2.738796 -0.406262,-3.53029 -1.23013,2.01 -3.348956,3.451602 -6.198794,3.53029 -3.033458,0.08314 -6.89516,-2.116992 -11.394944,-3.994886 z"
     id="path4362" />
  <path
     style="fill:#3f3f3f;fill-rule:evenodd;stroke-width:2"
     d="m 21.96529,42.00077 c -0.35498,0 -0.70309,0.0225 -1.041468,0.078 -0.902344,0.147 -1.737804,0.4992 -2.458088,1.0335 -2.881133,2.13735 -3.639908,6.9813 -0.08118,12.0537 3.55872,5.07255 8.26705,5.859752 11.148184,3.7224 2.881132,-2.137352 3.642708,-6.9813 0.08398,-12.0537 -2.335408,-3.328802 -5.166574,-4.81125 -7.651426,-4.8336 z"
     id="path4366" />
  <path
     style="fill:#ffffff;fill-rule:evenodd;stroke-width:2"
     d="m 49.998516,36.00076 c -1.979118,0 -3.968178,0.654242 -5.482496,2.000322 -1.514318,1.346078 -2.516022,3.397438 -2.516022,6.00112 0,2.60368 1.001704,4.65216 2.516022,5.99824 1.514318,1.34608 3.503378,2.00032 5.482496,2.00032 1.979118,0 3.96818,-0.65424 5.482498,-2.00032 1.51432,-1.34608 2.518984,-3.39456 2.518984,-5.99824 0,-2.603682 -1.004664,-4.655042 -2.518984,-6.00112 -1.514318,-1.34608 -3.50338,-2.000322 -5.482498,-2.000322 z"
     id="path4368" />
  <path
     style="fill:#3f3f3f;fill-rule:evenodd;stroke-width:2"
     d="m 52,42.000762 c -0.980146,0 -1.97102,0.323998 -2.734376,1.00256 -0.763352,0.67856 -1.265626,1.723682 -1.265626,2.997442 0,1.273762 0.502274,2.31888 1.265626,2.997442 0.763356,0.678558 1.75423,1.002556 2.734376,1.002556 0.980146,0 1.97102,-0.323998 2.734378,-1.002556 C 55.497732,48.319644 56,47.274526 56,46.000764 56,44.727004 55.497732,43.681882 54.734378,43.003322 53.97102,42.32476 52.980146,42.000762 52,42.000762 Z"
     id="path4370" />
  <path
     style="fill:#ff9a0c;stroke-width:2"
     d="m 63.954728,68.76127 1.296966,-2.582854 C 60.426776,62.648506 51.41928,59.066554 51.41928,59.066554 l -1.419278,0.78021 c 0,0 8.178202,7.25353 13.954726,8.914506 z"
     id="path4376" />
  <path
     style="fill:#8a8a8a;stroke-width:2"
     d="m 63.999846,64.000652 -0.676312,0.444766 c -0.626414,0.342876 -1.134624,0.925652 -1.546842,1.599646 -0.471688,1.107992 -0.657954,1.800866 -0.576878,2.883404 l 0.98001,-0.16782 c 0,0 5.11695,1.46797 7.539256,2.240024 l 0.283348,-0.54585 0.997496,-1.930694 -7.000078,-3.586052 z"
     id="path4378" />
  <path
     style="fill:#3f3f3f;stroke-width:2"
     d="m 77.999998,78.000762 c -1.781408,-5.787976 -2.413236,-10.383616 -7.068642,-9.974674 -3.75161,0.329552 -4.014258,5.474764 -0.13752,6.89457 3.734512,1.36772 7.206158,3.080104 7.206158,3.080104 z"
     id="path4380" />
</svg>
