<?xml version="1.0" encoding="UTF-8" standalone="no"?>
<!-- Created with Inkscape (http://www.inkscape.org/) -->

<svg
   width="96"
   height="96"
   viewBox="0 0 96 96.000006"
   version="1.1"
   id="svg1"
   inkscape:version="1.4.2 (ebf0e940d0, 2025-05-08)"
   sodipodi:docname="github-desktop.svg"
   xmlns:inkscape="http://www.inkscape.org/namespaces/inkscape"
   xmlns:sodipodi="http://sodipodi.sourceforge.net/DTD/sodipodi-0.dtd"
   xmlns:xlink="http://www.w3.org/1999/xlink"
   xmlns="http://www.w3.org/2000/svg"
   xmlns:svg="http://www.w3.org/2000/svg">
  <sodipodi:namedview
     id="namedview1"
     pagecolor="#ffffff"
     bordercolor="#000000"
     borderopacity="0.25"
     inkscape:showpageshadow="2"
     inkscape:pageopacity="0.0"
     inkscape:pagecheckerboard="0"
     inkscape:deskcolor="#d1d1d1"
     inkscape:document-units="px"
     inkscape:zoom="8.28125"
     inkscape:cx="48"
     inkscape:cy="48"
     inkscape:window-width="1920"
     inkscape:window-height="1010"
     inkscape:window-x="0"
     inkscape:window-y="0"
     inkscape:window-maximized="1"
     inkscape:current-layer="svg1" />
  <defs
     id="defs1">
    <linearGradient
       inkscape:collect="always"
       xlink:href="#linearGradient2829"
       id="linearGradient4"
       x1="16"
       y1="30"
       x2="16"
       y2="2"
       gradientUnits="userSpaceOnUse"
       gradientTransform="scale(3)" />
    <linearGradient
       id="linearGradient1"
       inkscape:collect="always">
      <stop
         style="stop-color:#dcc0df;stop-opacity:1;"
         offset="0"
         id="stop1" />
      <stop
         style="stop-color:#f4e4f4;stop-opacity:1;"
         offset="1"
         id="stop2" />
    </linearGradient>
    <linearGradient
       inkscape:collect="always"
       id="linearGradient2829">
      <stop
         style="stop-color:#750d90;stop-opacity:1;"
         offset="0"
         id="stop2825" />
      <stop
         style="stop-color:#a553ae;stop-opacity:1;"
         offset="1"
         id="stop2827" />
    </linearGradient>
    <linearGradient
       inkscape:collect="always"
       xlink:href="#linearGradient1"
       id="linearGradient6"
       x1="15.999795"
       y1="29.999998"
       x2="16"
       y2="2"
       gradientUnits="userSpaceOnUse"
       gradientTransform="scale(3)" />
  </defs>
  <rect
     style="opacity:0.2;fill:#000000;stroke-width:5.25"
     id="rect1"
     width="84"
     height="84"
     x="6"
     y="7"
     ry="18" />
  <rect
     style="fill:url(#linearGradient4);stroke-width:3"
     id="rect2"
     width="84"
     height="84"
     x="6"
     y="6"
     ry="18" />
  <path
     d="m 68.730102,27.004945 c -1.278204,-0.0597 -4.879752,0.367203 -10.50879,4.283201 -3.149058,-0.949557 -6.743769,-1.297208 -10.49121,-1.288148 -3.428172,0.0084 -6.983127,0.28533 -10.438476,1.288148 -5.630841,-3.915785 -8.508625,-4.34057 -9.788086,-4.280273 -0.426588,0.0201 -0.632814,0.08496 -0.632814,0.08496 -2.140647,5.553143 -0.7863,9.66137 -0.380859,10.68164 -2.514708,2.818752 -3.990234,5.821653 -3.990234,10.225524 0,15.460959 10.017919,19.996476 18.74707,21.014646 -1.122207,1.008123 -1.828374,2.616996 -2.185545,5.222721 -2.239587,1.032873 -8.247306,3.560724 -11.753908,-2.604492 0,0 -2.074572,-3.875466 -6.020508,-4.160157 0,0 -3.836064,-0.04953 -0.266601,2.452149 0,0 2.576835,1.241631 4.365234,5.903322 0,0 2.6793,7.09563 13.614259,4.658202 v 9.513609 h 17.999499 v -12 c 0,-3.762495 -0.08973,-7.768788 -1.499133,-9.014649 8.755548,-0.998193 17.999634,-5.484792 17.999634,-20.985351 0,-4.403871 -1.224723,-7.409733 -3.744141,-10.228452 0.403038,-1.02051 1.755804,-5.125569 -0.389646,-10.678709 0,0 -0.20673,-0.06798 -0.632814,-0.08787 z"
     style="fill:url(#linearGradient6);stroke-width:1.5"
     id="path403"
     sodipodi:nodetypes="ccccsccscccccccccscscccc" />
</svg>
