<?xml version="1.0" encoding="UTF-8" standalone="no"?>
<!-- Created with Inkscape (http://www.inkscape.org/) -->

<svg
   width="96"
   height="96"
   viewBox="0 0 96 96.000006"
   version="1.1"
   id="svg1"
   inkscape:version="1.4.2 (ebf0e940d0, 2025-05-08)"
   sodipodi:docname="gmail.svg"
   xmlns:inkscape="http://www.inkscape.org/namespaces/inkscape"
   xmlns:sodipodi="http://sodipodi.sourceforge.net/DTD/sodipodi-0.dtd"
   xmlns="http://www.w3.org/2000/svg"
   xmlns:svg="http://www.w3.org/2000/svg">
  <sodipodi:namedview
     id="namedview1"
     pagecolor="#ffffff"
     bordercolor="#000000"
     borderopacity="0.25"
     inkscape:showpageshadow="2"
     inkscape:pageopacity="0.0"
     inkscape:pagecheckerboard="0"
     inkscape:deskcolor="#d1d1d1"
     inkscape:document-units="px"
     inkscape:zoom="8.28125"
     inkscape:cx="48"
     inkscape:cy="48"
     inkscape:window-width="1920"
     inkscape:window-height="1010"
     inkscape:window-x="0"
     inkscape:window-y="0"
     inkscape:window-maximized="1"
     inkscape:current-layer="svg1" />
  <defs
     id="defs1" />
  <rect
     style="opacity:0.2;fill:#000000;stroke-width:5.25"
     id="rect1"
     width="84"
     height="84"
     x="6"
     y="7"
     ry="18" />
  <rect
     style="fill:#fafafa;fill-opacity:1;stroke-width:3"
     id="rect2"
     width="84"
     height="84"
     x="6"
     y="6"
     ry="18" />
  <path
     id="path523"
     style="fill:#4285f4;stroke-width:1.5"
     d="M 17.999997,34.601564 V 66.910157 C 17.999997,69.169826 19.811202,71 22.048824,71 h 7.951173 V 43.689452 Z" />
  <path
     id="path391"
     style="fill:#34a853;stroke-width:1.5"
     d="m 77.999997,34.601564 -12,9.087888 V 71 h 7.951173 c 2.237619,0 4.048827,-1.830177 4.048827,-4.089843 z" />
  <path
     d="M 27.72,43.867691 V 27.237995 L 48,42.363638 68.28,27.237995 V 43.867691 L 48,58.997672 Z"
     style="fill:#ea4335;stroke-width:1.5"
     id="path457"
     sodipodi:nodetypes="ccccccc" />
  <path
     id="path424"
     style="fill:#fbbc04;stroke-width:1.5"
     d="m 71.900388,26 c -1.231782,2.7e-5 -2.494377,0.383202 -3.621093,1.236327 l -2.279298,1.728516 V 45.59375 l 12,-9.087891 V 32.146484 C 77.999997,28.51361 75.04827,25.999931 71.900388,26 Z" />
  <path
     id="path490"
     style="fill:#c5221f;stroke-width:1.5"
     d="m 24.099606,26 c -3.147885,-6.9e-5 -6.099609,2.51361 -6.099609,6.146484 v 4.361841 l 12,9.087888 V 28.964843 L 27.720699,27.236327 C 26.59398,26.383199 25.331388,26.000027 24.099606,26 Z"
     sodipodi:nodetypes="ssccccs" />
</svg>
