<?xml version="1.0" encoding="UTF-8" standalone="no"?>
<!-- Created with Inkscape (http://www.inkscape.org/) -->

<svg
   width="96"
   height="96"
   viewBox="0 0 96 96.000006"
   version="1.1"
   id="svg1"
   inkscape:version="1.4.2 (ebf0e940d0, 2025-05-08)"
   sodipodi:docname="google-docs.svg"
   xmlns:inkscape="http://www.inkscape.org/namespaces/inkscape"
   xmlns:sodipodi="http://sodipodi.sourceforge.net/DTD/sodipodi-0.dtd"
   xmlns="http://www.w3.org/2000/svg"
   xmlns:svg="http://www.w3.org/2000/svg">
  <sodipodi:namedview
     id="namedview1"
     pagecolor="#ffffff"
     bordercolor="#000000"
     borderopacity="0.25"
     inkscape:showpageshadow="2"
     inkscape:pageopacity="0.0"
     inkscape:pagecheckerboard="0"
     inkscape:deskcolor="#d1d1d1"
     inkscape:document-units="px"
     inkscape:zoom="8.2916667"
     inkscape:cx="47.939698"
     inkscape:cy="48"
     inkscape:window-width="1920"
     inkscape:window-height="1011"
     inkscape:window-x="0"
     inkscape:window-y="0"
     inkscape:window-maximized="1"
     inkscape:current-layer="svg1" />
  <defs
     id="defs1" />
  <rect
     style="opacity:0.2;fill:#000000;stroke-width:5.25"
     id="rect1"
     width="84"
     height="84"
     x="6"
     y="7"
     ry="18" />
  <rect
     style="fill:#fafafa;fill-opacity:1;stroke-width:3"
     id="rect2"
     width="84"
     height="84"
     x="6"
     y="6"
     ry="18" />
  <path
     id="path1151"
     style="fill:#3086f6;fill-opacity:1;stroke-width:1.5;stroke-linecap:square;stroke-linejoin:bevel"
     d="m 30,18 a 4,4 0 0 0 -4,4 v 52 a 4,4 0 0 0 4,4 h 36 a 4,4 0 0 0 4,-4 V 32 L 59,29 56,18 Z" />
  <path
     d="M 56,18 70,32 H 56 Z"
     style="fill:#0c67d6;stroke-width:0.808292;stroke-linecap:square;stroke-linejoin:bevel"
     id="path1123" />
  <path
     id="rect1220"
     style="fill:#ffffff;stroke-width:1.83711;stroke-linecap:square;stroke-linejoin:bevel"
     d="m 35,44 v 3 h 26 v -3 z m 0,8 v 3 h 26 v -3 z m 0,8 v 3 h 17.5 v -3 z" />
</svg>
