<?xml version="1.0" encoding="UTF-8" standalone="no"?>
<!-- Created with Inkscape (http://www.inkscape.org/) -->

<svg
   width="96"
   height="96"
   viewBox="0 0 96 96.000008"
   version="1.1"
   id="svg1"
   inkscape:version="1.4.2 (ebf0e940d0, 2025-05-08)"
   sodipodi:docname="google-drive.svg"
   xmlns:inkscape="http://www.inkscape.org/namespaces/inkscape"
   xmlns:sodipodi="http://sodipodi.sourceforge.net/DTD/sodipodi-0.dtd"
   xmlns="http://www.w3.org/2000/svg"
   xmlns:svg="http://www.w3.org/2000/svg">
  <sodipodi:namedview
     id="namedview1"
     pagecolor="#ffffff"
     bordercolor="#000000"
     borderopacity="0.25"
     inkscape:showpageshadow="2"
     inkscape:pageopacity="0.0"
     inkscape:pagecheckerboard="0"
     inkscape:deskcolor="#d1d1d1"
     inkscape:document-units="px"
     inkscape:zoom="8.2916667"
     inkscape:cx="47.939698"
     inkscape:cy="48"
     inkscape:window-width="1920"
     inkscape:window-height="1011"
     inkscape:window-x="0"
     inkscape:window-y="0"
     inkscape:window-maximized="1"
     inkscape:current-layer="svg1" />
  <defs
     id="defs1" />
  <rect
     style="opacity:0.2;fill:#000000;stroke-width:7.35"
     id="rect1"
     width="84"
     height="84"
     x="6"
     y="7"
     ry="18" />
  <rect
     style="fill:#fafafa;fill-opacity:1;stroke-width:3"
     id="rect2"
     width="84"
     height="84"
     x="6"
     y="6"
     ry="18" />
  <g
     id="g1"
     transform="scale(2)">
    <path
       inkscape:connector-curvature="0"
       d="M 29.549828,29.213055 H 18.450172 l -4.411011,2.821448 -0.314074,5.357241 c 0.463917,0.27495 0.996559,0.412374 1.546389,0.412374 H 32.72852 c 0.549829,0 1.08247,-0.15465 1.546393,-0.412374 l -0.84582,-5.65158 z"
       id="path10-4"
       style="fill:#2684fc;stroke-width:0.343641"
       sodipodi:nodetypes="ccccssccc" />
    <path
       inkscape:connector-curvature="0"
       d="m 11.268042,33.9725 1.323024,2.285223 c 0.274914,0.481095 0.670098,0.859101 1.134021,1.134021 l 4.725085,-8.178688 H 9 c 0,0.532652 0.13746,1.065285 0.412375,1.546385 z"
       id="path2-0"
       style="fill:#0066da;stroke-width:0.343641" />
    <path
       inkscape:connector-curvature="0"
       d="m 23.999999,19.591064 -4.725087,-8.178692 c -0.463917,0.274895 -0.859101,0.652924 -1.134018,1.134018 L 9.412371,27.666663 a 3.1134015,3.1134015 0 0 0 -0.412365,1.546392 h 9.450171 z"
       id="path4-3"
       style="fill:#00ac47;stroke-width:0.343641" />
    <path
       inkscape:connector-curvature="0"
       d="m 34.274913,37.391744 c 0.46392,-0.27489 0.859101,-0.65292 1.134021,-1.134021 l 0.549825,-0.945015 2.628867,-4.553264 C 38.862546,30.278349 39,29.745705 39,29.213058 h -9.450862 l 2.010996,3.951887 z"
       id="path6-0"
       style="fill:#ea4335;stroke-width:0.343641" />
    <path
       inkscape:connector-curvature="0"
       d="m 23.999999,19.591064 4.725084,-8.178692 C 28.261164,11.137458 27.72852,11 27.178692,11 h -6.357389 c -0.549829,0 -1.082471,0.154647 -1.546391,0.412374 z"
       id="path8-4"
       style="fill:#00832d;stroke-width:0.343641" />
    <path
       inkscape:connector-curvature="0"
       d="M 34.223364,20.106528 29.859101,12.54639 c -0.274896,-0.481099 -0.6701,-0.859105 -1.134018,-1.134018 l -4.725084,8.178692 5.549829,9.621991 h 9.432988 c 0,-0.53265 -0.13746,-1.065292 -0.412362,-1.546392 z"
       id="path12"
       style="fill:#ffba00;stroke-width:0.343641" />
  </g>
</svg>
