<?xml version="1.0" encoding="UTF-8" standalone="no"?>
<!-- Created with Inkscape (http://www.inkscape.org/) -->

<svg
   width="96"
   height="96"
   viewBox="0 0 96 96.000006"
   version="1.1"
   id="svg1"
   inkscape:version="1.4.2 (ebf0e940d0, 2025-05-08)"
   sodipodi:docname="htop.svg"
   xmlns:inkscape="http://www.inkscape.org/namespaces/inkscape"
   xmlns:sodipodi="http://sodipodi.sourceforge.net/DTD/sodipodi-0.dtd"
   xmlns:xlink="http://www.w3.org/1999/xlink"
   xmlns="http://www.w3.org/2000/svg"
   xmlns:svg="http://www.w3.org/2000/svg">
  <sodipodi:namedview
     id="namedview1"
     pagecolor="#ffffff"
     bordercolor="#000000"
     borderopacity="0.25"
     inkscape:showpageshadow="2"
     inkscape:pageopacity="0.0"
     inkscape:pagecheckerboard="0"
     inkscape:deskcolor="#d1d1d1"
     inkscape:document-units="px"
     inkscape:zoom="8.28125"
     inkscape:cx="48"
     inkscape:cy="48"
     inkscape:window-width="1920"
     inkscape:window-height="1010"
     inkscape:window-x="0"
     inkscape:window-y="0"
     inkscape:window-maximized="1"
     inkscape:current-layer="svg1"
     showguides="true" />
  <defs
     id="defs1">
    <linearGradient
       inkscape:collect="always"
       xlink:href="#4852"
       id="linearGradient4"
       x1="16"
       y1="30"
       x2="16"
       y2="2"
       gradientUnits="userSpaceOnUse"
       gradientTransform="scale(3)" />
    <linearGradient
       inkscape:collect="always"
       id="4852">
      <stop
         style="stop-color:#272727;stop-opacity:1;"
         offset="0"
         id="stop14555" />
      <stop
         style="stop-color:#5d5d5d;stop-opacity:1;"
         offset="1"
         id="stop14557" />
    </linearGradient>
  </defs>
  <rect
     style="opacity:0.2;fill:#000000;stroke-width:5.25"
     id="rect1"
     width="84"
     height="84"
     x="6"
     y="7"
     ry="18" />
  <rect
     style="fill:url(#linearGradient4);stroke-width:3"
     id="rect2"
     width="84"
     height="84"
     x="6"
     y="6"
     ry="18" />
  <path
     id="path1240"
     style="fill:#8bc34a;stroke-width:6"
     d="m 27,18 v 18 h 3.000003 V 18 Z m 6,0 v 18 h 3 V 18 Z m -6,21 v 18 h 3.000003 V 39 Z m 6,0 v 18 h 3 V 39 Z m -6,21 v 18 h 3.000003 V 60 Z m 6,0 v 18 h 3 V 60 Z"
     sodipodi:nodetypes="cccccccccccccccccccccccccccccc" />
  <path
     d="M 39.000003,39 V 57 H 42 V 39 Z M 54,39 v 18 h 3 V 39 Z"
     style="fill:#ff9800;stroke-width:3"
     id="path1212"
     sodipodi:nodetypes="cccccccccc" />
  <path
     id="path1128"
     style="fill:#ff5722;stroke-width:3"
     d="m 60.000003,18 v 18 h 3 V 18 Z m 6,0 v 18 h 3 V 18 Z m -6,21 v 18 h 3 V 39 Z m 6,0 v 18 h 3 V 39 Z m -6,21 v 18 h 3 V 60 Z m 6,0 v 18 h 3 V 60 Z"
     sodipodi:nodetypes="cccccccccccccccccccccccccccccc" />
  <path
     id="path1156"
     style="fill:#f9f9f9;stroke-width:3"
     d="m 18,18 v 18 h 6 V 33 H 21 V 21 h 3 v -3 z m 54,0 v 3 h 3 v 12 h -3 v 3 h 6 V 18 Z M 18,39 v 18 h 6 V 54 H 21 V 42 h 3 v -3 z m 54,0 v 3 h 3 v 12 h -3 v 3 h 6 V 39 Z M 18,60 v 18 h 6 V 75 H 21 V 63 h 3 v -3 z m 54,0 v 3 h 3 v 12 h -3 v 3 h 6 V 60 Z"
     sodipodi:nodetypes="cccccccccccccccccccccccccccccccccccccccccccccccccccccc" />
</svg>
