<?xml version="1.0" encoding="UTF-8" standalone="no"?>
<!-- Created with Inkscape (http://www.inkscape.org/) -->

<svg
   width="96"
   height="96"
   viewBox="0 0 96 96.000006"
   version="1.1"
   id="svg1"
   inkscape:version="1.4.2 (ebf0e940d0, 2025-05-08)"
   sodipodi:docname="io.bassi.Amberol.svg"
   xmlns:inkscape="http://www.inkscape.org/namespaces/inkscape"
   xmlns:sodipodi="http://sodipodi.sourceforge.net/DTD/sodipodi-0.dtd"
   xmlns:xlink="http://www.w3.org/1999/xlink"
   xmlns="http://www.w3.org/2000/svg"
   xmlns:svg="http://www.w3.org/2000/svg">
  <sodipodi:namedview
     id="namedview1"
     pagecolor="#ffffff"
     bordercolor="#000000"
     borderopacity="0.25"
     inkscape:showpageshadow="2"
     inkscape:pageopacity="0.0"
     inkscape:pagecheckerboard="0"
     inkscape:deskcolor="#d1d1d1"
     inkscape:document-units="px"
     inkscape:zoom="8.4166667"
     inkscape:cx="47.940594"
     inkscape:cy="48"
     inkscape:window-width="1920"
     inkscape:window-height="1011"
     inkscape:window-x="0"
     inkscape:window-y="0"
     inkscape:window-maximized="1"
     inkscape:current-layer="svg1" />
  <defs
     id="defs1">
    <linearGradient
       inkscape:collect="always"
       xlink:href="#linearGradient4-1"
       id="linearGradient4"
       x1="16"
       y1="30"
       x2="16"
       y2="2"
       gradientUnits="userSpaceOnUse"
       gradientTransform="scale(3)" />
    <linearGradient
       id="linearGradient4-1"
       inkscape:collect="always">
      <stop
         style="stop-color:#38c4f2;stop-opacity:1;"
         offset="0"
         id="stop4" />
      <stop
         style="stop-color:#1872f6;stop-opacity:1;"
         offset="1"
         id="stop5" />
    </linearGradient>
  </defs>
  <rect
     style="opacity:0.2;fill:#000000;stroke-width:5.25"
     id="rect1"
     width="84"
     height="84"
     x="6"
     y="7"
     ry="18" />
  <rect
     style="fill:url(#linearGradient4);stroke-width:3"
     id="rect2"
     width="84"
     height="84"
     x="6"
     y="6"
     ry="18" />
  <path
     id="path4648"
     style="fill:#ffffff;stroke-width:6;stroke-linejoin:round"
     d="M 48,18 C 31.431504,18 18,31.43151 18,48 18,64.568493 31.431504,78 48,78 64.568493,78 78,64.568493 78,48 78,31.43151 64.568493,18 48,18 Z m -9.20508,15.002928 c 0.490806,-0.018 1.003923,0.09159 1.485354,0.363282 L 61.49121,45.363282 c 2.013156,1.136139 2.013156,4.13436 0,5.270505 L 40.280274,62.630859 C 38.354532,63.717573 36.003291,62.270514 36,59.997069 V 36 c 0.0029,-1.705098 1.322496,-2.943063 2.79492,-2.997072 z" />
</svg>
