<?xml version="1.0" encoding="UTF-8" standalone="no"?>
<!-- Created with Inkscape (http://www.inkscape.org/) -->

<svg
   width="96"
   height="96"
   viewBox="0 0 96 96.000006"
   version="1.1"
   id="svg1"
   inkscape:version="1.4.2 (ebf0e940d0, 2025-05-08)"
   sodipodi:docname="io.github.seadve.Mousai.svg"
   xmlns:inkscape="http://www.inkscape.org/namespaces/inkscape"
   xmlns:sodipodi="http://sodipodi.sourceforge.net/DTD/sodipodi-0.dtd"
   xmlns:xlink="http://www.w3.org/1999/xlink"
   xmlns="http://www.w3.org/2000/svg"
   xmlns:svg="http://www.w3.org/2000/svg">
  <sodipodi:namedview
     id="namedview1"
     pagecolor="#ffffff"
     bordercolor="#000000"
     borderopacity="0.25"
     inkscape:showpageshadow="2"
     inkscape:pageopacity="0.0"
     inkscape:pagecheckerboard="0"
     inkscape:deskcolor="#d1d1d1"
     inkscape:document-units="px"
     inkscape:zoom="8.2916667"
     inkscape:cx="47.939698"
     inkscape:cy="48"
     inkscape:window-width="1920"
     inkscape:window-height="1011"
     inkscape:window-x="0"
     inkscape:window-y="0"
     inkscape:window-maximized="1"
     inkscape:current-layer="svg1" />
  <defs
     id="defs1">
    <linearGradient
       inkscape:collect="always"
       xlink:href="#linearGradient1612"
       id="linearGradient4"
       x1="9.6488552"
       y1="15.099236"
       x2="30"
       y2="6.3155217"
       gradientUnits="userSpaceOnUse"
       gradientTransform="scale(3)" />
    <linearGradient
       inkscape:collect="always"
       id="linearGradient1612">
      <stop
         style="stop-color:#6b97df;stop-opacity:1;"
         offset="0"
         id="stop1608" />
      <stop
         style="stop-color:#c25298;stop-opacity:1;"
         offset="1"
         id="stop1610" />
    </linearGradient>
    <linearGradient
       inkscape:collect="always"
       id="linearGradient7676">
      <stop
         style="stop-color:#6b97df;stop-opacity:0;"
         offset="0"
         id="stop7672" />
      <stop
         style="stop-color:#e5565c;stop-opacity:1;"
         offset="1"
         id="stop7674" />
    </linearGradient>
    <linearGradient
       inkscape:collect="always"
       xlink:href="#linearGradient7676"
       id="linearGradient5"
       x1="9.653944"
       y1="16"
       x2="30"
       y2="26.015266"
       gradientUnits="userSpaceOnUse"
       gradientTransform="scale(3)" />
  </defs>
  <rect
     style="opacity:0.2;fill:#000000;stroke-width:5.25"
     id="rect1"
     width="84"
     height="84"
     x="6"
     y="7"
     ry="18" />
  <rect
     style="fill:url(#linearGradient4);stroke-width:3"
     id="rect2"
     width="84"
     height="84"
     x="6"
     y="6"
     ry="18" />
  <rect
     style="fill:url(#linearGradient5);stroke-width:3;stroke-linecap:round"
     id="rect3"
     width="84"
     height="84"
     x="6"
     y="6"
     ry="18" />
  <path
     d="M 36,24 V 49.617189 C 34.17669,48.560649 32.107302,48.002886 30,48 c -6.627414,0 -12,5.372583 -12,12 0,6.627414 5.372586,12 12,12 6.62742,0 12,-5.372586 12,-12 V 30 H 66 V 49.617189 C 64.17669,48.560649 62.107302,48.002886 60,48 c -6.627414,0 -12,5.372583 -12,12 0,6.627414 5.372586,12 12,12 6.627414,0 12,-5.372586 12,-12 V 24 M 30,54 c 3.31371,0 6,2.686293 6,6 0,3.31371 -2.68629,6 -6,6 -3.31371,0 -6,-2.68629 -6,-6 0,-3.313707 2.68629,-6 6,-6 z m 30,0 c 3.31371,0 6,2.686293 6,6 0,3.31371 -2.68629,6 -6,6 -3.31371,0 -6,-2.68629 -6,-6 0,-3.313707 2.68629,-6 6,-6 z"
     style="fill:#ffffff;stroke-width:6"
     id="path463" />
</svg>
