<?xml version="1.0" encoding="UTF-8" standalone="no"?>
<!-- Created with Inkscape (http://www.inkscape.org/) -->

<svg
   width="96"
   height="96"
   viewBox="0 0 96 96.00001"
   version="1.1"
   id="svg1"
   inkscape:version="1.4.2 (ebf0e940d0, 2025-05-08)"
   sodipodi:docname="jockey.svg"
   xmlns:inkscape="http://www.inkscape.org/namespaces/inkscape"
   xmlns:sodipodi="http://sodipodi.sourceforge.net/DTD/sodipodi-0.dtd"
   xmlns:xlink="http://www.w3.org/1999/xlink"
   xmlns="http://www.w3.org/2000/svg"
   xmlns:svg="http://www.w3.org/2000/svg">
  <sodipodi:namedview
     id="namedview1"
     pagecolor="#ffffff"
     bordercolor="#000000"
     borderopacity="0.25"
     inkscape:showpageshadow="2"
     inkscape:pageopacity="0.0"
     inkscape:pagecheckerboard="0"
     inkscape:deskcolor="#d1d1d1"
     inkscape:document-units="px"
     inkscape:zoom="8.2916667"
     inkscape:cx="47.939698"
     inkscape:cy="48"
     inkscape:window-width="1920"
     inkscape:window-height="1011"
     inkscape:window-x="0"
     inkscape:window-y="0"
     inkscape:window-maximized="1"
     inkscape:current-layer="svg1"
     showguides="false" />
  <defs
     id="defs1">
    <linearGradient
       inkscape:collect="always"
       xlink:href="#linearGradient1940"
       id="linearGradient4"
       x1="16"
       y1="30"
       x2="16"
       y2="2"
       gradientUnits="userSpaceOnUse"
       gradientTransform="scale(3)" />
    <linearGradient
       inkscape:collect="always"
       id="linearGradient1940">
      <stop
         style="stop-color:#28b013;stop-opacity:1;"
         offset="0"
         id="stop1936" />
      <stop
         style="stop-color:#4ac265;stop-opacity:1;"
         offset="1"
         id="stop1938" />
    </linearGradient>
    <linearGradient
       inkscape:collect="always"
       xlink:href="#linearGradient981"
       id="linearGradient6"
       x1="11"
       y1="4"
       x2="11"
       y2="18"
       gradientUnits="userSpaceOnUse"
       gradientTransform="matrix(3.7142854,0,0,3.7142854,7.1428578,7.1428578)" />
    <linearGradient
       inkscape:collect="always"
       id="linearGradient981">
      <stop
         style="stop-color:#858585;stop-opacity:1;"
         offset="0"
         id="stop977" />
      <stop
         style="stop-color:#595959;stop-opacity:1;"
         offset="1"
         id="stop979" />
    </linearGradient>
  </defs>
  <rect
     style="opacity:0.2;fill:#000000;stroke-width:7.35"
     id="rect1"
     width="84"
     height="84"
     x="6"
     y="7"
     ry="18" />
  <rect
     style="fill:url(#linearGradient4);stroke-width:3"
     id="rect2"
     width="84"
     height="84"
     x="6"
     y="6"
     ry="18" />
  <path
     id="rect2662"
     style="fill:#f2f2f2;stroke-width:8;stroke-linecap:round;stroke-linejoin:round"
     d="m 38,16 c -1.107996,0 -2,0.892002 -2,2 V 36 H 18 c -1.107996,0 -2,0.892004 -2,2 0,1.107996 0.892004,2 2,2 h 18 v 6 H 18 c -1.107996,0 -2,0.892004 -2,2 0,1.107996 0.892004,2 2,2 h 18 v 6 H 18 c -1.107996,0 -2,0.892004 -2,2 0,1.107996 0.892004,2 2,2 h 18 v 18 c 0,1.107996 0.892004,2 2,2 1.107996,0 2,-0.892004 2,-2 V 60 h 6 v 18 c 0,1.107996 0.892004,2 2,2 1.107996,0 2,-0.892004 2,-2 V 60 h 6 v 18 c 0,1.107996 0.892004,2 2,2 1.107996,0 2,-0.892004 2,-2 V 60 h 18 c 1.107996,0 2,-0.892004 2,-2 0,-1.107996 -0.892004,-2 -2,-2 H 60 v -6 h 18 c 1.107996,0 2,-0.892004 2,-2 0,-1.107996 -0.892004,-2 -2,-2 H 60 v -6 h 18 c 1.107996,0 2,-0.892004 2,-2 0,-1.107996 -0.892004,-2 -2,-2 H 60 V 18 c 0,-1.107998 -0.892004,-2 -2,-2 -1.107996,0 -2,0.892002 -2,2 V 36 H 50 V 18 c 0,-1.107998 -0.892004,-2 -2,-2 -1.107996,0 -2,0.892002 -2,2 V 36 H 40 V 18 c 0,-1.107998 -0.892004,-2 -2,-2 z m 2,24 h 6 v 6 h -6 z m 10,0 h 6 v 6 H 50 Z M 40,50 h 6 v 6 h -6 z m 10,0 h 6 v 6 h -6 z" />
  <rect
     style="opacity:0.2;fill:#000000;stroke-width:7.42856"
     id="rect3"
     width="52"
     height="52"
     x="22"
     y="22.733334"
     ry="10" />
  <rect
     style="opacity:1;fill:url(#linearGradient6);stroke-width:7.42856"
     id="rect4"
     width="52"
     height="52"
     x="22"
     y="22"
     ry="10" />
</svg>
