<?xml version="1.0" encoding="UTF-8" standalone="no"?>
<!-- Created with Inkscape (http://www.inkscape.org/) -->

<svg
   width="96"
   height="96"
   viewBox="0 0 96 96.000006"
   version="1.1"
   id="svg1"
   inkscape:version="1.4.2 (ebf0e940d0, 2025-05-08)"
   sodipodi:docname="korganizer.svg"
   xmlns:inkscape="http://www.inkscape.org/namespaces/inkscape"
   xmlns:sodipodi="http://sodipodi.sourceforge.net/DTD/sodipodi-0.dtd"
   xmlns:xlink="http://www.w3.org/1999/xlink"
   xmlns="http://www.w3.org/2000/svg"
   xmlns:svg="http://www.w3.org/2000/svg">
  <sodipodi:namedview
     id="namedview1"
     pagecolor="#ffffff"
     bordercolor="#000000"
     borderopacity="0.25"
     inkscape:showpageshadow="2"
     inkscape:pageopacity="0.0"
     inkscape:pagecheckerboard="0"
     inkscape:deskcolor="#d1d1d1"
     inkscape:document-units="px"
     inkscape:zoom="8.28125"
     inkscape:cx="48"
     inkscape:cy="48"
     inkscape:window-width="1920"
     inkscape:window-height="1010"
     inkscape:window-x="0"
     inkscape:window-y="0"
     inkscape:window-maximized="1"
     inkscape:current-layer="svg1" />
  <defs
     id="defs1">
    <linearGradient
       inkscape:collect="always"
       id="linearGradient1606">
      <stop
         style="stop-color:#eaebed;stop-opacity:1;"
         offset="0"
         id="stop1602" />
      <stop
         style="stop-color:#f9fafa;stop-opacity:1;"
         offset="1"
         id="stop1604" />
    </linearGradient>
    <linearGradient
       inkscape:collect="always"
       xlink:href="#linearGradient1606"
       id="linearGradient4"
       x1="16"
       y1="30"
       x2="16"
       y2="2"
       gradientUnits="userSpaceOnUse"
       gradientTransform="scale(3)" />
  </defs>
  <rect
     style="opacity:0.2;fill:#000000;stroke-width:5.25"
     id="rect1"
     width="84"
     height="84"
     x="6"
     y="7"
     ry="18" />
  <rect
     style="fill:url(#linearGradient4);stroke-width:3"
     id="rect2"
     width="84"
     height="84"
     x="6"
     y="6"
     ry="18" />
  <path
     id="rect376"
     style="fill:#929292;fill-opacity:1;stroke-width:6;stroke-linecap:round;stroke-linejoin:round"
     d="M 19.5,22 A 1.5000005,1.5 0 0 0 18,23.5 1.5000005,1.5 0 0 0 19.5,25 1.5000005,1.5 0 0 0 21,23.5 1.5000005,1.5 0 0 0 19.5,22 Z m 9,0 c -0.831,0 -1.5,0.669 -1.5,1.5 0,0.831 0.669,1.5 1.5,1.5 h 48 C 77.331,25 78,24.331 78,23.5 78,22.669 77.331,22 76.5,22 Z m -9,12 A 1.5000005,1.5 0 0 0 18,35.5 1.5000005,1.5 0 0 0 19.5,37 1.5000005,1.5 0 0 0 21,35.5 1.5000005,1.5 0 0 0 19.5,34 Z m 9,0 c -0.831,0 -1.5,0.669 -1.5,1.5 0,0.831 0.669,1.5 1.5,1.5 h 48 C 77.331,37 78,36.331 78,35.5 78,34.669 77.331,34 76.5,34 Z m -9,24 A 1.5000005,1.5000005 0 0 0 18,59.5 1.5000005,1.5000005 0 0 0 19.5,61 1.5000005,1.5000005 0 0 0 21,59.5 1.5000005,1.5000005 0 0 0 19.5,58 Z m 9,0 c -0.831,0 -1.5,0.669 -1.5,1.5 0,0.831 0.669,1.5 1.5,1.5 h 48 C 77.331,61 78,60.331 78,59.5 78,58.669 77.331,58 76.5,58 Z m -9,12 A 1.5000005,1.4999995 0 0 0 18,71.5 1.5000005,1.4999995 0 0 0 19.5,73 1.5000005,1.4999995 0 0 0 21,71.5 1.5000005,1.4999995 0 0 0 19.5,70 Z m 9,0 c -0.831,0 -1.5,0.669 -1.5,1.5 0,0.831 0.669,1.5 1.5,1.5 h 48 C 77.331,73 78,72.331 78,71.5 78,70.669 77.331,70 76.5,70 Z" />
  <path
     id="rect349"
     style="fill:#dc4e4e;fill-opacity:1;stroke-width:6;stroke-linecap:round;stroke-linejoin:round"
     d="M 19.5,43 C 17.014721,43 15,45.014722 15,47.5 15,49.985278 17.014721,52 19.5,52 21.985279,52 24,49.985279 24,47.5 24,45.014722 21.985279,43 19.5,43 Z m 12,3 c -0.831,0 -1.5,0.669 -1.5,1.5 0,0.831 0.669,1.5 1.5,1.5 h 45 C 77.331,49 78,48.331 78,47.5 78,46.669 77.331,46 76.5,46 Z" />
  <circle
     style="fill:#ffffff;stroke-width:1.66667"
     id="path8"
     cx="19.5"
     cy="47.5"
     r="2.5" />
</svg>
