<?xml version="1.0" encoding="UTF-8" standalone="no"?>
<!-- Created with Inkscape (http://www.inkscape.org/) -->

<svg
   width="96"
   height="96"
   viewBox="0 0 96 96.000006"
   version="1.1"
   id="svg1"
   inkscape:version="1.4.2 (ebf0e940d0, 2025-05-08)"
   sodipodi:docname="libreoffice-base.svg"
   xmlns:inkscape="http://www.inkscape.org/namespaces/inkscape"
   xmlns:sodipodi="http://sodipodi.sourceforge.net/DTD/sodipodi-0.dtd"
   xmlns:xlink="http://www.w3.org/1999/xlink"
   xmlns="http://www.w3.org/2000/svg"
   xmlns:svg="http://www.w3.org/2000/svg">
  <sodipodi:namedview
     id="namedview1"
     pagecolor="#ffffff"
     bordercolor="#000000"
     borderopacity="0.25"
     inkscape:showpageshadow="2"
     inkscape:pageopacity="0.0"
     inkscape:pagecheckerboard="0"
     inkscape:deskcolor="#d1d1d1"
     inkscape:document-units="px"
     inkscape:zoom="8.4166667"
     inkscape:cx="47.940594"
     inkscape:cy="48.059406"
     inkscape:window-width="1920"
     inkscape:window-height="1010"
     inkscape:window-x="0"
     inkscape:window-y="0"
     inkscape:window-maximized="1"
     inkscape:current-layer="svg1" />
  <defs
     id="defs1">
    <linearGradient
       inkscape:collect="always"
       xlink:href="#linearGradient1370"
       id="linearGradient4"
       x1="16"
       y1="30"
       x2="16"
       y2="2"
       gradientUnits="userSpaceOnUse"
       gradientTransform="scale(3)" />
    <linearGradient
       inkscape:collect="always"
       id="linearGradient1370">
      <stop
         style="stop-color:#8a0ac2;stop-opacity:1;"
         offset="0"
         id="stop1366" />
      <stop
         style="stop-color:#d378e5;stop-opacity:1;"
         offset="1"
         id="stop1368" />
    </linearGradient>
  </defs>
  <rect
     style="opacity:0.2;fill:#000000;stroke-width:5.25"
     id="rect1"
     width="84"
     height="84"
     x="6"
     y="7"
     ry="18" />
  <rect
     style="fill:url(#linearGradient4);stroke-width:3"
     id="rect2"
     width="84"
     height="84"
     x="6"
     y="6"
     ry="18" />
  <path
     id="path525"
     style="fill:#e88ff7;fill-opacity:1;stroke-width:2.93683;stroke-linecap:round;stroke-linejoin:round"
     d="M 36.5,30 C 30.148744,30 25,31.211742 25,33 v 5 c 0,1.788258 5.148744,3 11.5,3 C 42.851254,41 48,39.788258 48,38 V 33 C 48,31.211742 42.851256,30 36.5,30 Z M 25,41 v 6 c 0,1.788257 5.148751,3 11.5,3 6.351248,0 11.5,-1.211743 11.5,-3 v -6 c 0,1.788257 -5.148752,3 -11.5,3 C 30.148751,44 25,42.788256 25,41 Z m 0,9 v 6 c 0,1.788257 5.148751,3 11.5,3 6.351248,0 11.5,-1.211743 11.5,-3 v -6 c 0,1.788257 -5.148752,3 -11.5,3 C 30.148751,53 25,51.788257 25,50 Z m 0,9 v 6 c 0,1.788257 5.148751,3 11.5,3 6.351248,0 11.5,-1.211743 11.5,-3 v -6 c 0,1.788257 -5.148752,3 -11.5,3 C 30.148751,62 25,60.788257 25,59 Z"
     sodipodi:nodetypes="ssssssscssscsccssscsccssscsc" />
  <path
     id="rect523"
     style="fill:#ffffff;stroke-width:1.5"
     d="m 55,36 c -1.661998,0 -3,1.338002 -3,3 v 24 c 0,1.661998 1.338002,3 3,3 h 15 c 1.661998,0 3,-1.338002 3,-3 V 39 c 0,-1.661998 -1.338002,-3 -3,-3 z m 0,3 h 6 v 6 h -6 z m 9,0 h 6 v 6 h -6 z m -9,9 h 6 v 6 h -6 z m 9,0 h 6 v 6 h -6 z m -9,9 h 6 v 6 h -6 z m 9,0 h 6 v 6 h -6 z"
     sodipodi:nodetypes="ssssssssscccccccccccccccccccccccccccccc" />
</svg>
