<?xml version="1.0" encoding="UTF-8" standalone="no"?>
<!-- Created with Inkscape (http://www.inkscape.org/) -->

<svg
   width="96"
   height="96"
   viewBox="0 0 96 96.000009"
   version="1.1"
   id="svg1"
   inkscape:version="1.4.2 (ebf0e940d0, 2025-05-08)"
   sodipodi:docname="lollypop.svg"
   xmlns:inkscape="http://www.inkscape.org/namespaces/inkscape"
   xmlns:sodipodi="http://sodipodi.sourceforge.net/DTD/sodipodi-0.dtd"
   xmlns:xlink="http://www.w3.org/1999/xlink"
   xmlns="http://www.w3.org/2000/svg"
   xmlns:svg="http://www.w3.org/2000/svg">
  <sodipodi:namedview
     id="namedview1"
     pagecolor="#ffffff"
     bordercolor="#000000"
     borderopacity="0.25"
     inkscape:showpageshadow="2"
     inkscape:pageopacity="0.0"
     inkscape:pagecheckerboard="0"
     inkscape:deskcolor="#d1d1d1"
     inkscape:document-units="px"
     inkscape:zoom="8.1875"
     inkscape:cx="47.938931"
     inkscape:cy="48"
     inkscape:window-width="1920"
     inkscape:window-height="1011"
     inkscape:window-x="0"
     inkscape:window-y="0"
     inkscape:window-maximized="1"
     inkscape:current-layer="svg1" />
  <defs
     id="defs1">
    <linearGradient
       inkscape:collect="always"
       id="linearGradient1606">
      <stop
         style="stop-color:#eaebed;stop-opacity:1;"
         offset="0"
         id="stop1602" />
      <stop
         style="stop-color:#f9fafa;stop-opacity:1;"
         offset="1"
         id="stop1604" />
    </linearGradient>
    <linearGradient
       inkscape:collect="always"
       xlink:href="#linearGradient1606"
       id="linearGradient4"
       x1="16"
       y1="30"
       x2="16"
       y2="2"
       gradientUnits="userSpaceOnUse"
       gradientTransform="matrix(2.9999888,0,0,2.9999888,5.42e-5,2.25e-5)" />
    <linearGradient
       inkscape:collect="always"
       id="linearGradient5215">
      <stop
         style="stop-color:#e64686;stop-opacity:1;"
         offset="0"
         id="stop5211" />
      <stop
         style="stop-color:#ec7e93;stop-opacity:1;"
         offset="1"
         id="stop5213" />
    </linearGradient>
    <linearGradient
       inkscape:collect="always"
       xlink:href="#linearGradient1606"
       id="linearGradient5279"
       x1="7.99999"
       y1="15.777744"
       x2="7.99999"
       y2="0.22222187"
       gradientUnits="userSpaceOnUse"
       gradientTransform="matrix(5.3999914,0,0,5.3999914,4.7999978,4.8000038)" />
    <linearGradient
       inkscape:collect="always"
       xlink:href="#linearGradient5215"
       id="linearGradient11784"
       x1="11"
       y1="21"
       x2="11"
       y2="1"
       gradientUnits="userSpaceOnUse"
       gradientTransform="matrix(4.1999843,0,0,4.1999843,1.8006547,1.8000158)" />
    <linearGradient
       inkscape:collect="always"
       xlink:href="#linearGradient5215"
       id="linearGradient6178"
       x1="8.2222185"
       y1="16.399132"
       x2="8.2222185"
       y2="-0.39916459"
       gradientUnits="userSpaceOnUse"
       gradientTransform="matrix(5.399977,0,0,5.0004886,3.6000858,7.9960181)" />
  </defs>
  <rect
     style="opacity:0.2;fill:#000000;stroke-width:7.34999"
     id="rect1"
     width="83.999863"
     height="83.999863"
     x="6.0000253"
     y="6.9999952"
     ry="18" />
  <rect
     style="fill:url(#linearGradient4);stroke-width:2.99999"
     id="rect2"
     width="83.999687"
     height="83.999687"
     x="6.0000315"
     y="6"
     ry="17.999971" />
  <path
     id="path10967"
     style="fill:url(#linearGradient11784);fill-opacity:1;stroke-width:9.96118;stroke-linecap:round;stroke-linejoin:round"
     d="m 36.23435,6 c -0.475778,3.0765736 -0.839153,6.563474 -0.832031,10.499983 -0.04431,17.553776 12.592405,31.49418 12.597637,31.499949 0,0 2.632799,-23.170879 14.279275,-41.999932 z m 11.765606,41.999932 c 0,0 20.355336,-9.089145 41.999932,-8.818344 -0.018,-9.750889 -0.0048,-3.855261 0,-15.181617 0,-0.04001 2.58e-4,-0.07724 0,-0.117189 -0.02242,-3.470794 -1.020526,-6.7048 -2.730463,-9.439436 -9.622836,1.735263 -12.479734,3.564888 -18.28708,6.896473 -15.225353,8.739198 -20.980898,26.655466 -20.982389,26.660113 z m 0,0 c 0,0 24.394683,14.187787 31.546824,40.35931 6.178457,-2.84278 10.449193,-9.0783 10.453108,-16.34763 V 71.999894 58.499915 C 87.635991,56.623709 84.865883,54.725594 81.585838,52.839768 66.404896,44.023892 48.004978,47.998849 47.999956,47.999932 Z m 0,0 c -0.0016,0.04077 -0.926995,23.785582 -14.279275,41.999933 H 60.181577 C 60.647684,86.941181 60.604751,83.458402 60.597593,79.499882 60.641465,61.95204 48.013729,48.015118 47.999956,47.999932 Z m 0,0 c 0,0 -20.349247,9.095191 -41.9940714,8.824204 -0.00594,4.046937 -0.00537,10.078592 -0.00585,15.175758 0,0.021 -7.08e-5,0.04356 0,0.06444 0.01137,3.367047 0.9357723,6.507982 2.5429645,9.193347 C 15.349375,80.188185 21.315567,77.965867 27.01757,74.660046 42.230521,65.927474 47.989261,48.033187 47.999956,47.999932 Z m 0,0 c 0,0 -23.411149,-14.826594 -32.794867,-39.7264982 C 10.078394,11.1362 6.515956,16.43373 6.0527595,22.62302 c 0.009,5.598908 0.00522,11.326039 -0.02931,14.900365 2.3536711,1.85907 5.0941765,3.741459 8.3906115,5.636712 15.17404,8.811373 33.563638,4.844641 33.585895,4.839835 z" />
  <circle
     style="fill:url(#linearGradient5279);fill-opacity:1;stroke-width:10.8;stroke-linecap:round;stroke-linejoin:round"
     id="path5271"
     cx="47.999928"
     cy="47.999931"
     r="26.999956" />
  <path
     d="m 37.71228,33.137467 c -0.939059,-0.500051 -1.711795,0.500048 -1.712335,1.500148 v 26.723108 c -9e-6,1.260124 1.394383,2.047203 2.510072,1.417639 l 11.826488,-6.680654 11.827034,-6.68065 c 1.115149,-0.630065 1.115149,-2.205215 0,-2.835778 L 50.336505,39.900626 38.510017,33.219976 c -0.242909,-0.14001 -0.517103,-0.21501 -0.797467,-0.220019 z"
     style="fill:url(#linearGradient6178);fill-opacity:1;stroke-width:5.19641"
     id="path5776" />
</svg>
