<?xml version="1.0" encoding="UTF-8" standalone="no"?>
<!-- Created with Inkscape (http://www.inkscape.org/) -->

<svg
   width="96"
   height="96"
   viewBox="0 0 96 96.000008"
   version="1.1"
   id="svg1"
   inkscape:version="1.4 (e7c3feb100, 2024-10-09)"
   sodipodi:docname="minecraft.svg"
   xmlns:inkscape="http://www.inkscape.org/namespaces/inkscape"
   xmlns:sodipodi="http://sodipodi.sourceforge.net/DTD/sodipodi-0.dtd"
   xmlns:xlink="http://www.w3.org/1999/xlink"
   xmlns="http://www.w3.org/2000/svg"
   xmlns:svg="http://www.w3.org/2000/svg">
  <sodipodi:namedview
     id="namedview1"
     pagecolor="#ffffff"
     bordercolor="#000000"
     borderopacity="0.25"
     inkscape:showpageshadow="2"
     inkscape:pageopacity="0.0"
     inkscape:pagecheckerboard="0"
     inkscape:deskcolor="#d1d1d1"
     inkscape:document-units="px"
     inkscape:zoom="8.1875"
     inkscape:cx="46.839695"
     inkscape:cy="48"
     inkscape:window-width="1920"
     inkscape:window-height="1011"
     inkscape:window-x="0"
     inkscape:window-y="0"
     inkscape:window-maximized="1"
     inkscape:current-layer="svg1" />
  <defs
     id="defs1">
    <linearGradient
       inkscape:collect="always"
       xlink:href="#linearGradient1149"
       id="linearGradient4"
       x1="16"
       y1="30"
       x2="16"
       y2="2"
       gradientUnits="userSpaceOnUse"
       gradientTransform="scale(3)" />
    <linearGradient
       inkscape:collect="always"
       id="linearGradient1149">
      <stop
         style="stop-color:#6ab12d;stop-opacity:1;"
         offset="0"
         id="stop1145" />
      <stop
         style="stop-color:#8dd27a;stop-opacity:1;"
         offset="1"
         id="stop1147" />
    </linearGradient>
  </defs>
  <rect
     style="opacity:0.2;fill:#000000;stroke-width:7.35"
     id="rect1"
     width="84"
     height="84"
     x="6"
     y="7"
     ry="18" />
  <rect
     style="fill:url(#linearGradient4);stroke-width:3"
     id="rect2"
     width="84"
     height="84"
     x="6"
     y="6"
     ry="18" />
  <path
     d="M 20,20 V 38 H 38 V 20 Z m 36,0 V 38 H 74 V 20 Z M 38,40 V 50 H 28 V 74 H 38 V 64 H 56 V 74 H 66 V 50 H 56 V 40 Z"
     style="opacity:0.3;fill:#000000;stroke-width:2.25"
     id="path691" />
  <path
     d="M 20,24 V 42 H 38 V 24 Z m 36,0 V 42 H 74 V 24 Z M 38,44 V 54 H 28 V 78 H 38 V 68 H 56 V 78 H 66 V 54 H 56 V 44 Z"
     style="opacity:0.2;fill:#ffffff;stroke-width:2.25"
     id="path719" />
  <path
     id="rect388"
     style="fill:#000000;stroke-width:2.25"
     d="M 20 22 L 20 40 L 38 40 L 38 22 L 20 22 z M 56 22 L 56 40 L 74 40 L 74 22 L 56 22 z M 38 42 L 38 52 L 28 52 L 28 76 L 38 76 L 38 66 L 56 66 L 56 76 L 66 76 L 66 52 L 56 52 L 56 42 L 38 42 z " />
</svg>
