<?xml version="1.0" encoding="UTF-8" standalone="no"?>
<!-- Created with Inkscape (http://www.inkscape.org/) -->

<svg
   width="96"
   height="96"
   viewBox="0 0 96 96.000006"
   version="1.1"
   id="svg1"
   inkscape:version="1.4.2 (ebf0e940d0, 2025-05-08)"
   sodipodi:docname="nextcloud.svg"
   xmlns:inkscape="http://www.inkscape.org/namespaces/inkscape"
   xmlns:sodipodi="http://sodipodi.sourceforge.net/DTD/sodipodi-0.dtd"
   xmlns="http://www.w3.org/2000/svg"
   xmlns:svg="http://www.w3.org/2000/svg">
  <sodipodi:namedview
     id="namedview1"
     pagecolor="#ffffff"
     bordercolor="#000000"
     borderopacity="0.25"
     inkscape:showpageshadow="2"
     inkscape:pageopacity="0.0"
     inkscape:pagecheckerboard="0"
     inkscape:deskcolor="#d1d1d1"
     inkscape:document-units="px"
     inkscape:zoom="8.4166667"
     inkscape:cx="48.059406"
     inkscape:cy="48"
     inkscape:window-width="1920"
     inkscape:window-height="1011"
     inkscape:window-x="0"
     inkscape:window-y="0"
     inkscape:window-maximized="1"
     inkscape:current-layer="svg1" />
  <defs
     id="defs1" />
  <rect
     style="opacity:0.2;fill:#000000;stroke-width:5.25"
     id="rect1"
     width="84"
     height="84"
     x="6"
     y="7"
     ry="18" />
  <rect
     style="fill:#0082c9;stroke-width:3;fill-opacity:1"
     id="rect2"
     width="84"
     height="84"
     x="6"
     y="6"
     ry="18" />
  <path
     id="path895"
     style="fill:#ffffff;stroke-width:6;stroke-linecap:round;stroke-linejoin:round"
     d="M 48,33 A 15,15 0 0 0 35.314453,40.013671 10.5,10.5 0 0 0 28.5,37.5 10.5,10.5 0 0 0 18,48 10.5,10.5 0 0 0 28.5,58.5 10.5,10.5 0 0 0 35.314453,55.983399 15,15 0 0 0 48,63 15,15 0 0 0 60.685546,55.983399 10.5,10.5 0 0 0 67.5,58.5 10.5,10.5 0 0 0 78,48 10.5,10.5 0 0 0 67.5,37.5 10.5,10.5 0 0 0 60.691407,40.013671 15,15 0 0 0 48,33 Z m 0,6 a 9,9 0 0 1 9,9 9,9 0 0 1 -9,9 9,9 0 0 1 -9,-9 9,9 0 0 1 9,-9 z M 28.5,43.5 A 4.5,4.5 0 0 1 33,48 4.5,4.5 0 0 1 28.5,52.5 4.5,4.5 0 0 1 24,48 4.5,4.5 0 0 1 28.5,43.5 Z m 39,0 A 4.5,4.5 0 0 1 72,48 4.5,4.5 0 0 1 67.5,52.5 4.5,4.5 0 0 1 63,48 4.5,4.5 0 0 1 67.5,43.5 Z" />
</svg>
