<?xml version="1.0" encoding="UTF-8" standalone="no"?>
<!-- Created with Inkscape (http://www.inkscape.org/) -->

<svg
   width="96"
   height="96"
   viewBox="0 0 96 96.000006"
   version="1.1"
   id="svg1"
   inkscape:version="1.4.2 (ebf0e940d0, 2025-05-08)"
   sodipodi:docname="office-address-book.svg"
   xmlns:inkscape="http://www.inkscape.org/namespaces/inkscape"
   xmlns:sodipodi="http://sodipodi.sourceforge.net/DTD/sodipodi-0.dtd"
   xmlns:xlink="http://www.w3.org/1999/xlink"
   xmlns="http://www.w3.org/2000/svg"
   xmlns:svg="http://www.w3.org/2000/svg">
  <sodipodi:namedview
     id="namedview1"
     pagecolor="#ffffff"
     bordercolor="#000000"
     borderopacity="0.25"
     inkscape:showpageshadow="2"
     inkscape:pageopacity="0.0"
     inkscape:pagecheckerboard="0"
     inkscape:deskcolor="#d1d1d1"
     inkscape:document-units="px"
     inkscape:zoom="8.28125"
     inkscape:cx="48"
     inkscape:cy="48"
     inkscape:window-width="1920"
     inkscape:window-height="1010"
     inkscape:window-x="0"
     inkscape:window-y="0"
     inkscape:window-maximized="1"
     inkscape:current-layer="svg1" />
  <defs
     id="defs1">
    <linearGradient
       inkscape:collect="always"
       xlink:href="#linearGradient3"
       id="linearGradient4"
       x1="16"
       y1="30"
       x2="16"
       y2="2"
       gradientUnits="userSpaceOnUse"
       gradientTransform="scale(3)" />
    <linearGradient
       inkscape:collect="always"
       id="linearGradient3">
      <stop
         style="stop-color:#cc883b;stop-opacity:1;"
         offset="0"
         id="stop1" />
      <stop
         style="stop-color:#e8c69e;stop-opacity:1;"
         offset="1"
         id="stop2" />
    </linearGradient>
  </defs>
  <rect
     style="opacity:0.2;fill:#000000;stroke-width:5.25"
     id="rect1"
     width="84"
     height="84"
     x="6"
     y="7"
     ry="18" />
  <rect
     style="fill:url(#linearGradient4);stroke-width:3"
     id="rect2"
     width="84"
     height="84"
     x="6"
     y="6"
     ry="18" />
  <path
     id="rect396"
     style="opacity:0.6;fill:#ffffff;stroke-width:5.47722"
     d="M 55.5,45 C 36.81378,56.640714 33,59.468478 33,66 v 3 c 0,3.323976 2.676024,6 6,6 h 33 c 3.323976,0 6,-2.676024 6,-6 V 66 C 78,59.468478 74.18622,56.640714 55.5,45 Z" />
  <path
     id="path234"
     style="fill:#ffffff;stroke-width:3.73119"
     d="M 55.5,21 C 48.044157,21 42,25.387301 42,34.5 42,43.612701 48.044157,54 55.5,54 62.955843,54 69,43.612701 69,34.5 69,25.387301 62.955843,21 55.5,21 Z" />
  <path
     id="rect3"
     style="opacity:0.3;fill:#000000;stroke-width:3"
     d="M 24,6 C 14.028,6 6,14.028 6,24 v 48 c 0,9.972 8.028,18 18,18 z" />
</svg>
