<?xml version="1.0" encoding="UTF-8" standalone="no"?>
<!-- Created with Inkscape (http://www.inkscape.org/) -->

<svg
   width="96"
   height="96"
   viewBox="0 0 96 96.000006"
   version="1.1"
   id="svg1"
   inkscape:version="1.4.2 (ebf0e940d0, 2025-05-08)"
   sodipodi:docname="org.gnome.Connections.svg"
   xmlns:inkscape="http://www.inkscape.org/namespaces/inkscape"
   xmlns:sodipodi="http://sodipodi.sourceforge.net/DTD/sodipodi-0.dtd"
   xmlns:xlink="http://www.w3.org/1999/xlink"
   xmlns="http://www.w3.org/2000/svg"
   xmlns:svg="http://www.w3.org/2000/svg">
  <sodipodi:namedview
     id="namedview1"
     pagecolor="#ffffff"
     bordercolor="#000000"
     borderopacity="0.25"
     inkscape:showpageshadow="2"
     inkscape:pageopacity="0.0"
     inkscape:pagecheckerboard="0"
     inkscape:deskcolor="#d1d1d1"
     inkscape:document-units="px"
     inkscape:zoom="8.28125"
     inkscape:cx="48"
     inkscape:cy="48"
     inkscape:window-width="1920"
     inkscape:window-height="1010"
     inkscape:window-x="0"
     inkscape:window-y="0"
     inkscape:window-maximized="1"
     inkscape:current-layer="svg1" />
  <defs
     id="defs1">
    <linearGradient
       inkscape:collect="always"
       xlink:href="#linearGradient3147"
       id="linearGradient4"
       x1="16"
       y1="30"
       x2="16"
       y2="2"
       gradientUnits="userSpaceOnUse"
       gradientTransform="scale(3)" />
    <linearGradient
       inkscape:collect="always"
       id="linearGradient3147">
      <stop
         style="stop-color:#0091f9;stop-opacity:1;"
         offset="0"
         id="stop3143" />
      <stop
         style="stop-color:#41bbff;stop-opacity:1;"
         offset="1"
         id="stop3145" />
    </linearGradient>
  </defs>
  <rect
     style="opacity:0.2;fill:#000000;stroke-width:5.25"
     id="rect1"
     width="84"
     height="84"
     x="6"
     y="7"
     ry="18" />
  <rect
     style="fill:url(#linearGradient4);stroke-width:3"
     id="rect2"
     width="84"
     height="84"
     x="6"
     y="6"
     ry="18" />
  <path
     id="path338"
     style="fill:#98d6fe;fill-opacity:1;stroke-width:3"
     d="m 27,15 c -2.785674,0 -6.10547,3.152296 -6.105468,6 H 16.382813 15.884766 10.617188 C 9.7216938,21 9,21.669001 9,22.5 9,23.331 9.7216938,24 10.617188,24 H 13.634766 15 v 3 H 9 C 6.5612631,27.006 6.3917674,28.677307 6.2167968,31.001953 6.0709233,33.414172 6,36.129285 6,39 v 33 c 0,6.907647 3.8511462,12.882552 9.533203,15.902343 0.896021,-0.270601 1.581556,-0.621129 1.875,-0.802734 2.184654,-1.693287 3.470081,-4.296551 3.486329,-7.060547 V 62.583984 c 8.4e-5,-2.847705 -4.198704,-5.15625 -6.984376,-5.15625 -2.785672,0 -4.9687501,-3.378293 -4.9687498,-6.228516 0,-2.847702 2.1830778,-5.812497 4.9687498,-5.8125 2.785672,0 6.984374,-1.64978 6.984376,-4.5 0,-2.847702 0.114735,-5.033202 2.900389,-5.033202 2.785673,0 6.28125,-2.311884 6.28125,-5.162109 v -7.224611 c 0,-1.465398 0.82238,-2.654296 2.255861,-2.654296 1.438398,-0.08813 3.66539,0.187488 3.556639,-3.375 C 35.997422,15.000011 33.000658,15.061964 31.476562,15 Z m 38.472657,10.769532 c -2.691114,0 -4.875001,2.235288 -4.875,4.986327 v 2.121094 c 0,2.75104 -1.281549,4.986328 -3.972657,4.986329 C 53.388168,38.1094 50.759244,40.991094 51,44.302734 v 8.695312 c 0,2.824872 1.543302,6.703125 4.306641,6.703125 2.951136,0 4.693359,2.410257 4.693359,4.734375 v 4.904297 C 60,72.438183 61.31681,75 64.347657,75 67.375826,74.99727 69.002673,72.435447 69,69.339843 v -9.457031 c 0,-2.269748 0.882148,-5.645557 2.455078,-7.248046 1.570273,-1.602501 3.703517,-4.602345 5.923829,-4.599609 l 2.917968,0.02344 c 1.292055,0.0027 2.536294,-0.52061 3.451171,-1.453125 0.912189,-0.932487 1.423829,-2.20065 1.423829,-3.521484 V 30.755859 c 0,-2.751039 -2.181216,-4.986327 -4.875,-4.986327 z" />
  <path
     d="m 71.99958,50.1 v 21.240234 c 0,1.582881 -0.877362,3.288771 -2.279298,4.605468 -1.401933,1.3167 -3.276318,2.056641 -4.324218,2.056641 H 43.065987 c -1.559931,0 -3.612513,-0.341241 -5.033205,-0.931641 -1.420692,-0.5904 -1.838499,-1.1883 -1.880859,-1.453125 -0.42213,-2.639169 -0.507759,-4.709118 -0.632811,-6.539061 -0.12504,-1.829943 -0.18681,-3.573465 -1.300782,-5.355471 C 33.104355,61.941042 31.036095,60.932622 28.798407,60.512109 26.560719,60.091596 23.799912,60.002343 19.857,60.002343 v 6 c 3.827082,0 6.3981,0.13446 7.833987,0.404298 1.435884,0.26985 1.391781,0.418662 1.441404,0.498045 0.04962,0.07938 0.28926,0.900801 0.404298,2.583984 0.11502,1.683186 0.20469,4.071735 0.685548,7.078125 0.508833,3.181236 3.09543,5.0385 5.507811,6.041016 2.412381,1.002519 5.020989,1.394532 7.335939,1.394532 h 22.330077 c 3.156087,0 6.08208,-1.478838 8.431641,-3.685548 2.349561,-2.20671 4.171875,-5.328615 4.171875,-8.976561 V 50.1 Z"
     style="color:#000000;opacity:0.3;fill:#000000;stroke-width:3;-inkscape-stroke:none"
     id="path1202" />
  <path
     d="m 15,57 c -3.314086,0 -6,2.686725 -6,6 0,3.313281 2.685914,6 6,6 3.314088,0 6.000002,-2.686719 6.000002,-6 0,-3.313275 -2.685914,-6 -6.000002,-6 z m 60,0 c -1.658205,0 -3,1.341801 -3,3 0,1.658199 1.341795,3 3,3 1.658196,0 3,-1.341801 3,-3 0,-1.658199 -1.341804,-3 -3,-3 z m -47.999997,3 c -1.658208,0 -3,1.341801 -3,3 0,1.658199 1.341792,3 3,3 1.658199,0 3,-1.341801 3,-3 0,-1.658199 -1.341801,-3 -3,-3 z M 75,69 c -1.658205,0 -3,1.341801 -3,3 0,1.658199 1.341795,3 3,3 1.658196,0 3,-1.341801 3,-3 0,-1.658199 -1.341804,-3 -3,-3 z m -41.999997,3 c -1.658208,0 -3,1.341801 -3,3 0,1.658199 1.341792,3 3,3 1.658199,0 3,-1.341801 3,-3 0,-1.658199 -1.341801,-3 -3,-3 z M 42,78 c -1.658205,0 -3,1.341801 -3,3 0,1.658199 1.341795,3 3,3 1.658199,0 3,-1.341801 3,-3 0,-1.658199 -1.341801,-3 -3,-3 z m 12,0 c -1.658205,0 -3,1.341801 -3,3 0,1.658199 1.341795,3 3,3 1.658196,0 3,-1.341801 3,-3 0,-1.658199 -1.341804,-3 -3,-3 z m 12,0 c -1.658205,0 -3,1.341801 -3,3 0,1.658199 1.341795,3 3,3 1.658196,0 3,-1.341801 3,-3 0,-1.658199 -1.341804,-3 -3,-3 z"
     style="fill:#ffffff;stroke-width:3"
     id="path1231" />
  <rect
     style="fill:#3a325a;fill-opacity:1;stroke-width:6"
     id="rect675"
     width="54"
     height="45"
     x="36"
     y="6"
     ry="6" />
  <path
     d="m 51.9,15 7.634031,23.509575 4.98084,-4.377789 3.237672,3.985788 c 0.843384,1.039197 2.350707,1.181265 3.363282,0.315705 1.010007,-0.868188 1.148433,-2.409888 0.305046,-3.449088 L 68.139624,30.943152 72.9,26.754786 Z"
     style="fill:#ffffff;stroke-width:3"
     id="path1170" />
</svg>
