<?xml version="1.0" encoding="UTF-8" standalone="no"?>
<!-- Created with Inkscape (http://www.inkscape.org/) -->

<svg
   width="96"
   height="96"
   viewBox="0 0 96 96.000006"
   version="1.1"
   id="svg1"
   inkscape:version="1.4.2 (ebf0e940d0, 2025-05-08)"
   sodipodi:docname="org.gnome.font-viewer.svg"
   xmlns:inkscape="http://www.inkscape.org/namespaces/inkscape"
   xmlns:sodipodi="http://sodipodi.sourceforge.net/DTD/sodipodi-0.dtd"
   xmlns:xlink="http://www.w3.org/1999/xlink"
   xmlns="http://www.w3.org/2000/svg"
   xmlns:svg="http://www.w3.org/2000/svg">
  <sodipodi:namedview
     id="namedview1"
     pagecolor="#ffffff"
     bordercolor="#000000"
     borderopacity="0.25"
     inkscape:showpageshadow="2"
     inkscape:pageopacity="0.0"
     inkscape:pagecheckerboard="0"
     inkscape:deskcolor="#d1d1d1"
     inkscape:document-units="px"
     inkscape:zoom="8.1875"
     inkscape:cx="47.938931"
     inkscape:cy="48"
     inkscape:window-width="1920"
     inkscape:window-height="1011"
     inkscape:window-x="0"
     inkscape:window-y="0"
     inkscape:window-maximized="1"
     inkscape:current-layer="svg1" />
  <defs
     id="defs1">
    <linearGradient
       inkscape:collect="always"
       xlink:href="#linearGradient1173"
       id="linearGradient4"
       x1="16"
       y1="30"
       x2="16"
       y2="2"
       gradientUnits="userSpaceOnUse"
       gradientTransform="scale(3)" />
    <linearGradient
       inkscape:collect="always"
       id="linearGradient1173">
      <stop
         style="stop-color:#a52ed9;stop-opacity:1;"
         offset="0"
         id="stop1169" />
      <stop
         style="stop-color:#b369e3;stop-opacity:1;"
         offset="1"
         id="stop1171" />
    </linearGradient>
  </defs>
  <rect
     style="opacity:0.2;fill:#000000;stroke-width:5.25"
     id="rect1"
     width="84"
     height="84"
     x="6"
     y="7"
     ry="18" />
  <rect
     style="fill:url(#linearGradient4);stroke-width:3"
     id="rect2"
     width="84"
     height="84"
     x="6"
     y="6"
     ry="18" />
  <path
     d="m 41.957823,38.604198 c -0.739881,0.625554 -1.262175,0.848967 -1.915032,0.848967 -1.001067,0 -1.305711,-0.625554 -1.305711,-2.591478 v -8.712711 c 0,-2.323392 -0.21762,-3.619119 -0.870474,-4.691457 -0.957501,-1.608495 -3.580812,-2.457429 -6.148701,-2.457429 -4.09122,0 -7.311975,2.189355 -7.311975,5.004234 0,1.02759 0.827019,1.921251 1.871532,1.921251 1.044525,0 1.958556,-0.893652 1.958556,-1.876578 0,-0.17874 -0.04347,-0.402144 -0.08691,-0.714921 -0.08691,-0.402144 -0.13059,-0.759603 -0.13059,-1.072383 0,-1.206372 1.392759,-2.189346 3.133707,-2.189346 2.132652,0 3.658623,1.29573 3.658623,3.708486 v 3.552711 c -5.99433,1.816308 -7.793376,2.300451 -9.664887,3.99831 -0.957498,0.893541 -1.566864,2.412747 -1.566864,3.887205 0,2.814879 1.915044,4.780824 4.569981,4.780824 1.915032,0 4.050333,-0.938334 6.70527,-3.261684 0.21762,2.368065 1.401996,3.261684 3.186468,3.261684 1.479798,0 2.393796,-0.53619 3.917115,-2.23404 z M 34.810719,36.05739 c 0,1.340421 -0.21762,1.83192 -1.131606,2.368065 -1.088094,0.625557 -2.614065,0.983016 -3.528063,0.983016 -1.523331,0 -2.741982,-1.519128 -2.741982,-3.4404 v -0.17874 c 0.04344,-2.680842 2.309385,-3.551505 7.401651,-5.383404 z m 27.28788,14.952093 c -0.712359,-0.06462 -1.610613,0.19254 -2.694684,0.770301 -1.08408,0.577752 -2.183616,1.444284 -3.298653,2.599713 -1.115037,1.123326 -2.152641,2.487381 -3.112815,4.092132 -0.929199,1.60476 -1.610625,3.386046 -2.044245,5.343846 -0.340746,1.444272 -0.464655,2.695986 -0.371724,3.75513 0.09249,1.027029 0.309657,1.877559 0.650406,2.551551 0.340746,0.641937 0.758823,1.107261 1.25442,1.396146 0.49563,0.321024 0.960174,0.481482 1.393797,0.481482 0.929196,-0.06462 1.858404,-0.27276 2.7876,-0.62589 0.80529,-0.320913 1.657077,-0.818439 2.555298,-1.492422 0.898218,-0.706116 1.71903,-1.701036 2.462388,-2.98485 -0.0312,0.866574 0.0156,1.588716 0.13938,2.166423 0.15489,0.577755 0.309771,1.043079 0.464655,1.396137 0.18585,0.417186 0.418188,0.73821 0.69687,0.962847 0.27879,0.19266 0.603939,0.321024 0.975663,0.385206 0.371724,0.09582 0.758823,0.12837 1.161501,0.09582 0.433566,-0.03231 0.851754,-0.11244 1.254411,-0.24078 0.402699,-0.12837 0.758823,-0.28881 1.068591,-0.481368 0.464655,-0.320913 1.037619,-0.866577 1.719021,-1.636854 0.712359,-0.802392 1.424772,-1.668933 2.137176,-2.599713 0.743334,-0.962847 1.455738,-1.909662 2.137152,-2.840418 0.681381,-0.962847 1.238922,-1.76523 1.672554,-2.407131 0.371724,-0.513459 0.58845,-0.962847 0.650406,-1.347999 0.09249,-0.385095 0.07689,-0.674028 -0.0468,-0.866574 -0.1239,-0.19254 -0.309771,-0.25674 -0.557586,-0.19254 -0.24783,0.03231 -0.495519,0.19254 -0.743334,0.481479 -0.18585,0.25674 -0.495519,0.657981 -0.929199,1.203564 -0.402699,0.545664 -0.867243,1.171476 -1.393806,1.877571 -0.526497,0.706119 -1.099569,1.444284 -1.719018,2.214573 -0.588453,0.73821 -1.161504,1.428228 -1.719021,2.070117 -0.557472,0.609846 -1.08408,1.123338 -1.579647,1.540569 -0.495519,0.385206 -0.898218,0.577755 -1.207956,0.577755 -0.371721,0 -0.665892,-0.08022 -0.882729,-0.24069 -0.18585,-0.19254 -0.32526,-0.433233 -0.418191,-0.722166 -0.09249,-0.28881 -0.15489,-0.593799 -0.18585,-0.914712 0,-0.353001 0.0156,-0.674025 0.0468,-0.962847 0.09249,-0.481368 0.17037,-0.882621 0.23232,-1.203564 0.0624,-0.320913 0.10809,-0.593799 0.13938,-0.818439 0.0624,-0.25674 0.10809,-0.497526 0.13941,-0.722163 0.0624,-0.25674 0.1239,-0.529617 0.18585,-0.818439 0.309771,-1.476375 0.557475,-2.679951 0.743337,-3.610707 0.18585,-0.930759 0.325146,-1.668957 0.418077,-2.214573 0.09249,-0.545664 0.13938,-0.914712 0.13938,-1.107258 0,-0.22464 -0.0156,-0.369051 -0.0468,-0.433233 -0.0624,-0.03231 -0.18585,-0.04791 -0.371721,-0.04791 -0.15489,0 -0.387213,0.0156 -0.69687,0.04791 -0.27879,0.03231 -0.634917,0.09582 -1.068594,0.19254 0.650406,-1.027032 0.898221,-1.845471 0.743334,-2.455281 -0.1239,-0.641937 -0.402699,-1.123338 -0.836265,-1.444293 -0.526497,-0.353004 -1.207956,-0.609846 -2.044233,-0.770301 z m -1.094112,3.011325 c 0.11811,0.0066 0.21918,0.04569 0.304311,0.11799 0.09249,0.12837 0.15489,0.304866 0.18585,0.529614 0.0312,0.19254 0.0156,0.465324 -0.0468,0.818439 -0.0312,0.320913 -0.17037,0.73821 -0.418191,1.251726 0.24783,-0.06462 0.495522,-0.11232 0.743337,-0.14442 0.2478,-0.03231 0.449055,-0.08022 0.603939,-0.14442 0.18585,-0.06462 0.356124,-0.11232 0.511008,-0.14442 0.1239,-0.03231 0.13941,0.22464 0.0468,0.770301 -0.0624,0.51357 -0.17037,1.171473 -0.325257,1.973856 -0.15489,0.802392 -0.340749,1.636863 -0.557475,2.503416 -0.21684,0.866574 -0.402699,1.620807 -0.557472,2.262708 -0.0312,0.16047 -0.17037,0.417186 -0.418191,0.770301 -0.21684,0.353004 -0.511008,0.73821 -0.882732,1.15542 -0.340746,0.417297 -0.743334,0.818436 -1.207956,1.203576 -0.433563,0.385095 -0.882729,0.706119 -1.347339,0.962847 -0.433566,0.22464 -0.867243,0.353004 -1.300875,0.385095 -0.43368,0 -0.820779,-0.17649 -1.161504,-0.529617 -0.18585,-0.19266 -0.309657,-0.593799 -0.371721,-1.203564 -0.0624,-0.641937 -0.0468,-1.380114 0.0468,-2.214573 0.1239,-0.834483 0.32526,-1.717092 0.603939,-2.647851 0.27879,-0.962847 0.650406,-1.861512 1.115049,-2.695986 1.115037,-2.022003 2.090697,-3.402093 2.926974,-4.140279 0.650406,-0.577752 1.153368,-0.858105 1.50762,-0.840054 z m -0.10698,-33.020751 c -3.222291,0 -6.482046,0.842838 -8.692686,2.381925 l 2.09823,3.994311 c 1.461264,-1.135998 3.671904,-1.832253 5.80761,-1.832253 3.147357,0 4.907973,2.34015 4.907973,4.795365 l -5.817381,-0.0267 c -6.144756,-0.0279 -8.654826,2.328909 -8.654826,5.810196 0,3.407985 2.564469,5.877015 7.2855,5.877015 2.960004,0 6.100128,-0.856656 7.186707,-2.652261 l 3.57e-4,2.428182 6.203634,-0.0011 -7.02e-4,-11.833371 C 71.221587,23.968161 67.042383,21 60.897549,21 Z m -1.35864,17.248251 c -2.060769,0 -3.297228,-0.952821 -3.297228,-2.381937 0,-1.319205 0.86145,-1.930311 3.59658,-1.913151 l 5.180415,0.0267 3.57e-4,1.137321 c 3.45e-4,1.912926 -3.531807,3.130989 -5.480166,3.130989 z M 25.974555,51.00009 c -2.366448,-0.03342 -2.366448,3.525723 0,3.492327 h 8.645322 c 0.0096,8.7e-4 0.24993,0.0291 0.512679,0.17226 0.26799,0.14664 0.425097,0.16446 0.470001,0.820221 v -0.0168 l 0.21528,5.233944 c -0.403035,-0.15411 -0.673359,-0.21996 -0.673359,-0.21996 l -0.20682,-0.05127 h -8.088213 c -3.79149,0 -5.159175,3.812916 -5.159175,3.812916 L 21.6,64.513158 v 1.329513 c 0,2.648349 1.252314,4.476915 2.5719,5.299887 1.319574,0.823005 2.677845,0.811641 2.677845,0.811641 h 6.642492 l 2.968362,-1.923513 0.0168,0.27969 c 0.078,2.388189 3.695103,2.176308 3.492984,-0.20457 L 39.095388,55.254972 v -0.0087 c -0.12324,-1.803204 -1.27896,-3.095799 -2.281386,-3.644103 -1.002405,-0.548337 -1.975482,-0.59859 -1.975482,-0.59859 l -0.05793,-0.0033 z m 0.874932,12.922866 h 7.563591 c 0.0936,0.0267 0.459528,0.12336 0.907467,0.4212 0.488724,0.324921 0.768072,0.601932 0.78267,1.183428 l 0.12135,0.490506 -3.768132,2.443602 h -5.606895 c 0,0 -0.391668,-0.0111 -0.822003,-0.27969 -0.430335,-0.26832 -0.927972,-0.622548 -0.927972,-2.339583 v -0.666228 c 0.09027,-0.26631 0.467886,-1.253352 1.749918,-1.253352 z"
     style="fill:#ffffff;stroke-width:2.97677"
     id="path513" />
</svg>
