<?xml version="1.0" encoding="UTF-8" standalone="no"?>
<!-- Created with Inkscape (http://www.inkscape.org/) -->

<svg
   width="96"
   height="96"
   viewBox="0 0 96 96.000006"
   version="1.1"
   id="svg1"
   inkscape:version="1.4.2 (ebf0e940d0, 2025-05-08)"
   sodipodi:docname="plasma.svg"
   xmlns:inkscape="http://www.inkscape.org/namespaces/inkscape"
   xmlns:sodipodi="http://sodipodi.sourceforge.net/DTD/sodipodi-0.dtd"
   xmlns:xlink="http://www.w3.org/1999/xlink"
   xmlns="http://www.w3.org/2000/svg"
   xmlns:svg="http://www.w3.org/2000/svg">
  <sodipodi:namedview
     id="namedview1"
     pagecolor="#ffffff"
     bordercolor="#000000"
     borderopacity="0.25"
     inkscape:showpageshadow="2"
     inkscape:pageopacity="0.0"
     inkscape:pagecheckerboard="0"
     inkscape:deskcolor="#d1d1d1"
     inkscape:document-units="px"
     inkscape:zoom="8.28125"
     inkscape:cx="48"
     inkscape:cy="48"
     inkscape:window-width="1920"
     inkscape:window-height="1010"
     inkscape:window-x="0"
     inkscape:window-y="0"
     inkscape:window-maximized="1"
     inkscape:current-layer="svg1" />
  <defs
     id="defs1">
    <linearGradient
       inkscape:collect="always"
       xlink:href="#linearGradient3201"
       id="linearGradient4"
       x1="16"
       y1="30"
       x2="16"
       y2="2"
       gradientUnits="userSpaceOnUse"
       gradientTransform="scale(3)" />
    <linearGradient
       inkscape:collect="always"
       id="linearGradient3201">
      <stop
         style="stop-color:#3daee9;stop-opacity:1;"
         offset="0"
         id="stop3197" />
      <stop
         style="stop-color:#5fd3ff;stop-opacity:1;"
         offset="1"
         id="stop3199" />
    </linearGradient>
  </defs>
  <rect
     style="opacity:0.2;fill:#000000;stroke-width:5.25"
     id="rect1"
     width="84"
     height="84"
     x="6"
     y="7"
     ry="18" />
  <rect
     style="fill:url(#linearGradient4);stroke-width:3"
     id="rect2"
     width="84"
     height="84"
     x="6"
     y="6"
     ry="18" />
  <path
     id="path360"
     style="fill:#ffffff;stroke-width:4"
     d="M 34 20 C 31.784 20 30 21.784 30 24 C 30 26.216 31.784 28 34 28 C 36.216 28 38 26.216 38 24 C 38 21.784 36.216 20 34 20 z M 56 20 L 48 28 L 60 40 L 48 52 L 56 60 L 76 40 L 56 20 z M 26 40 C 22.676024 40 20 42.67598 20 46 C 20 49.323976 22.676024 52 26 52 C 29.324024 52 32 49.323976 32 46 C 32 42.67598 29.324024 40 26 40 z M 40 60 C 35.568 60 32 63.568 32 68 C 32 72.432 35.568 76 40 76 C 44.432 76 48 72.432 48 68 C 48 63.568 44.432 60 40 60 z " />
</svg>
