<?xml version="1.0" encoding="UTF-8" standalone="no"?>
<!-- Created with Inkscape (http://www.inkscape.org/) -->

<svg
   width="96"
   height="96"
   viewBox="0 0 96 96.000006"
   version="1.1"
   id="svg1"
   inkscape:version="1.4.2 (ebf0e940d0, 2025-05-08)"
   sodipodi:docname="plasma-search.svg"
   xmlns:inkscape="http://www.inkscape.org/namespaces/inkscape"
   xmlns:sodipodi="http://sodipodi.sourceforge.net/DTD/sodipodi-0.dtd"
   xmlns:xlink="http://www.w3.org/1999/xlink"
   xmlns="http://www.w3.org/2000/svg"
   xmlns:svg="http://www.w3.org/2000/svg">
  <sodipodi:namedview
     id="namedview1"
     pagecolor="#ffffff"
     bordercolor="#000000"
     borderopacity="0.25"
     inkscape:showpageshadow="2"
     inkscape:pageopacity="0.0"
     inkscape:pagecheckerboard="0"
     inkscape:deskcolor="#d1d1d1"
     inkscape:document-units="px"
     inkscape:zoom="8.28125"
     inkscape:cx="48"
     inkscape:cy="47.939623"
     inkscape:window-width="1920"
     inkscape:window-height="1011"
     inkscape:window-x="0"
     inkscape:window-y="0"
     inkscape:window-maximized="1"
     inkscape:current-layer="svg1" />
  <defs
     id="defs1">
    <linearGradient
       inkscape:collect="always"
       xlink:href="#linearGradient1871"
       id="linearGradient4"
       x1="16"
       y1="30"
       x2="16"
       y2="2"
       gradientUnits="userSpaceOnUse"
       gradientTransform="scale(3)" />
    <linearGradient
       inkscape:collect="always"
       id="linearGradient1871">
      <stop
         style="stop-color:#3daee9;stop-opacity:1;"
         offset="0"
         id="stop1867" />
      <stop
         style="stop-color:#76c6ee;stop-opacity:1;"
         offset="1"
         id="stop1869" />
    </linearGradient>
  </defs>
  <rect
     style="opacity:0.2;fill:#000000;stroke-width:5.25"
     id="rect1"
     width="84"
     height="84"
     x="6"
     y="7"
     ry="18" />
  <rect
     style="fill:url(#linearGradient4);stroke-width:3"
     id="rect2"
     width="84"
     height="84"
     x="6"
     y="6"
     ry="18" />
  <path
     id="path1562"
     style="fill:#ffffff;fill-opacity:1;stroke-width:13.2;stroke-linecap:round;stroke-linejoin:round"
     d="m 41.998318,20 c -5.630282,0 -11.258932,2.149558 -15.554688,6.445312 -8.591506,8.59151 -8.591507,22.517864 0,31.109376 8.115438,8.115436 20.989534,8.567614 29.632812,1.351562 L 72.69363,75.523438 c 0.781048,0.781046 2.047078,0.781046 2.828126,0 0.781048,-0.781048 0.781048,-2.047078 0,-2.828126 L 58.904568,56.078124 C 66.12062,47.434846 65.668442,34.56075 57.553006,26.445312 53.25725,22.149558 47.6286,20 41.998318,20 Z m 0,4 c 4.606596,0 9.211854,1.75873 12.726562,5.273438 7.029418,7.029416 7.029422,18.423704 0,25.453124 -7.02942,7.029422 -18.42371,7.029418 -25.453124,0 -7.029416,-7.029416 -7.029418,-18.423708 0,-25.453124 C 32.786464,25.758728 37.391724,24 41.998318,24 Z" />
</svg>
