<?xml version="1.0" encoding="UTF-8" standalone="no"?>
<!-- Created with Inkscape (http://www.inkscape.org/) -->

<svg
   width="96"
   height="96"
   viewBox="0 0 96 96.000006"
   version="1.1"
   id="svg1"
   inkscape:version="1.4.2 (ebf0e940d0, 2025-05-08)"
   sodipodi:docname="plasmadiscover.svg"
   xmlns:inkscape="http://www.inkscape.org/namespaces/inkscape"
   xmlns:sodipodi="http://sodipodi.sourceforge.net/DTD/sodipodi-0.dtd"
   xmlns:xlink="http://www.w3.org/1999/xlink"
   xmlns="http://www.w3.org/2000/svg"
   xmlns:svg="http://www.w3.org/2000/svg">
  <sodipodi:namedview
     id="namedview1"
     pagecolor="#ffffff"
     bordercolor="#000000"
     borderopacity="0.25"
     inkscape:showpageshadow="2"
     inkscape:pageopacity="0.0"
     inkscape:pagecheckerboard="0"
     inkscape:deskcolor="#d1d1d1"
     inkscape:document-units="px"
     inkscape:zoom="8.28125"
     inkscape:cx="48"
     inkscape:cy="48"
     inkscape:window-width="1920"
     inkscape:window-height="1010"
     inkscape:window-x="0"
     inkscape:window-y="0"
     inkscape:window-maximized="1"
     inkscape:current-layer="svg1" />
  <defs
     id="defs1">
    <linearGradient
       inkscape:collect="always"
       xlink:href="#linearGradient928"
       id="linearGradient4"
       x1="16"
       y1="30"
       x2="16"
       y2="2"
       gradientUnits="userSpaceOnUse"
       gradientTransform="scale(3)" />
    <linearGradient
       inkscape:collect="always"
       id="linearGradient928">
      <stop
         style="stop-color:#197cf1;stop-opacity:1;"
         offset="0"
         id="stop924" />
      <stop
         style="stop-color:#20bcfa;stop-opacity:1;"
         offset="1"
         id="stop926" />
    </linearGradient>
  </defs>
  <rect
     style="opacity:0.2;fill:#000000;stroke-width:5.25"
     id="rect1"
     width="84"
     height="84"
     x="6"
     y="7"
     ry="18" />
  <rect
     style="fill:url(#linearGradient4);stroke-width:3"
     id="rect2"
     width="84"
     height="84"
     x="6"
     y="6"
     ry="18" />
  <path
     style="color:#000000;fill:#ececec;fill-opacity:1;stroke:none;stroke-width:4;stroke-linecap:round;stroke-linejoin:round"
     d="M 48,32 C 39.187144,32 32,24.812858 32,16 a 2,2 0 0 1 2,-2 2,2 0 0 1 2,2 c 0,6.6511 5.3489,12 12,12 6.6511,0 12,-5.3489 12,-12 a 2,2 0 0 1 2,-2 2,2 0 0 1 2,2 c 0,8.812858 -7.187144,16 -16,16 z"
     id="path6954" />
  <path
     id="path360"
     style="fill:#ffffff;stroke-width:2"
     d="m 38,40 c -1.661998,0 -3,1.338002 -3,3 0,1.661998 1.338002,3 3,3 1.661998,0 3,-1.338002 3,-3 0,-1.661998 -1.338002,-3 -3,-3 z M 53.714844,40 48,45.59961 56.572266,54 48,62.40039 53.714844,68 68,54 Z M 31.5,56 C 29.561016,56 28,57.560988 28,59.5 28,61.438984 29.561016,63 31.5,63 33.439012,63 35,61.438984 35,59.5 35,57.560988 33.439012,56 31.5,56 Z M 43,70 c -2.769996,0 -5,2.230002 -5,5 0,2.769998 2.230004,5 5,5 2.769998,0 5,-2.230002 5,-5 0,-2.769998 -2.230002,-5 -5,-5 z" />
</svg>
