<?xml version="1.0" encoding="UTF-8" standalone="no"?>
<!-- Created with Inkscape (http://www.inkscape.org/) -->

<svg
   width="96"
   height="96"
   viewBox="0 0 96 96.000006"
   version="1.1"
   id="svg1"
   inkscape:version="1.4.2 (ebf0e940d0, 2025-05-08)"
   sodipodi:docname="polari.svg"
   xmlns:inkscape="http://www.inkscape.org/namespaces/inkscape"
   xmlns:sodipodi="http://sodipodi.sourceforge.net/DTD/sodipodi-0.dtd"
   xmlns:xlink="http://www.w3.org/1999/xlink"
   xmlns="http://www.w3.org/2000/svg"
   xmlns:svg="http://www.w3.org/2000/svg">
  <sodipodi:namedview
     id="namedview1"
     pagecolor="#ffffff"
     bordercolor="#000000"
     borderopacity="0.25"
     inkscape:showpageshadow="2"
     inkscape:pageopacity="0.0"
     inkscape:pagecheckerboard="0"
     inkscape:deskcolor="#d1d1d1"
     inkscape:document-units="px"
     inkscape:zoom="8.4166667"
     inkscape:cx="47.940594"
     inkscape:cy="48"
     inkscape:window-width="1920"
     inkscape:window-height="1011"
     inkscape:window-x="0"
     inkscape:window-y="0"
     inkscape:window-maximized="1"
     inkscape:current-layer="svg1" />
  <defs
     id="defs1">
    <linearGradient
       inkscape:collect="always"
       xlink:href="#linearGradient2742"
       id="linearGradient4"
       x1="16"
       y1="30"
       x2="16"
       y2="2"
       gradientUnits="userSpaceOnUse"
       gradientTransform="scale(3)" />
    <linearGradient
       inkscape:collect="always"
       id="linearGradient2742">
      <stop
         style="stop-color:#1ccd6b;stop-opacity:1;"
         offset="0"
         id="stop2738" />
      <stop
         style="stop-color:#8be65c;stop-opacity:1;"
         offset="1"
         id="stop2740" />
    </linearGradient>
  </defs>
  <rect
     style="opacity:0.2;fill:#000000;stroke-width:5.25"
     id="rect1"
     width="84"
     height="84"
     x="6"
     y="7"
     ry="18" />
  <rect
     style="fill:url(#linearGradient4);stroke-width:3"
     id="rect2"
     width="84"
     height="84"
     x="6"
     y="6"
     ry="18" />
  <path
     id="path1"
     style="fill:#ffffff;stroke-width:12"
     d="M 42,21 C 28.704,21 18,31.704 18,45 18,54.061764 22.975644,61.91424 30.351564,66 28.501311,74.669622 27,78 27,78 c 0,0 6.272484,-1.76433 15,-9 H 54 C 67.296,69 78,58.296 78,45 78,31.704 67.296,21 54,21 Z"
     sodipodi:nodetypes="sscccssss" />
  <path
     d="m 45,31 h 3 l -1.335936,6 h 6 L 54,31 h 3 l -1.335936,6 H 60 v 3 h -4.998048 l -2.003904,9 H 60 v 3 H 52.335936 L 51,58 h -3 l 1.335936,-6 h -6 L 42,58 h -3 l 1.335936,-6 H 36 v -3 h 4.998048 l 2.003904,-9 H 36 v -3 h 7.664064 z m 1.001952,9 -2.003904,9 h 6 l 2.003904,-9 z"
     style="fill:#3bbd1e;fill-opacity:1;stroke-width:12;stroke-linecap:round;stroke-linejoin:round"
     id="path1-2" />
</svg>
