<?xml version="1.0" encoding="UTF-8" standalone="no"?>
<!-- Created with Inkscape (http://www.inkscape.org/) -->

<svg
   width="96"
   height="96"
   viewBox="0 0 96 96.000006"
   version="1.1"
   id="svg1"
   inkscape:version="1.4.2 (ebf0e940d0, 2025-05-08)"
   sodipodi:docname="preferences-desktop-touchscreen.svg"
   xmlns:inkscape="http://www.inkscape.org/namespaces/inkscape"
   xmlns:sodipodi="http://sodipodi.sourceforge.net/DTD/sodipodi-0.dtd"
   xmlns:xlink="http://www.w3.org/1999/xlink"
   xmlns="http://www.w3.org/2000/svg"
   xmlns:svg="http://www.w3.org/2000/svg">
  <sodipodi:namedview
     id="namedview1"
     pagecolor="#ffffff"
     bordercolor="#000000"
     borderopacity="0.25"
     inkscape:showpageshadow="2"
     inkscape:pageopacity="0.0"
     inkscape:pagecheckerboard="0"
     inkscape:deskcolor="#d1d1d1"
     inkscape:document-units="px"
     inkscape:zoom="8.2916667"
     inkscape:cx="47.939698"
     inkscape:cy="48"
     inkscape:window-width="1920"
     inkscape:window-height="1011"
     inkscape:window-x="0"
     inkscape:window-y="0"
     inkscape:window-maximized="1"
     inkscape:current-layer="svg1" />
  <defs
     id="defs1">
    <linearGradient
       inkscape:collect="always"
       xlink:href="#linearGradient3147"
       id="linearGradient4"
       x1="16"
       y1="30"
       x2="16"
       y2="2"
       gradientUnits="userSpaceOnUse"
       gradientTransform="scale(3)" />
    <linearGradient
       inkscape:collect="always"
       id="linearGradient3147">
      <stop
         style="stop-color:#0091f9;stop-opacity:1;"
         offset="0"
         id="stop3143" />
      <stop
         style="stop-color:#41bbff;stop-opacity:1;"
         offset="1"
         id="stop3145" />
    </linearGradient>
  </defs>
  <rect
     style="opacity:0.2;fill:#000000;stroke-width:5.25"
     id="rect1"
     width="84"
     height="84"
     x="6"
     y="7"
     ry="18" />
  <rect
     style="fill:url(#linearGradient4);stroke-width:3"
     id="rect2"
     width="84"
     height="84"
     x="6"
     y="6"
     ry="18" />
  <circle
     style="opacity:0.4;fill:#f9f9f9;stroke-width:3"
     id="path1"
     cx="45"
     cy="33"
     r="9" />
  <circle
     style="opacity:0.4;fill:#f9f9f9;stroke-width:3"
     id="path2"
     cx="45"
     cy="33"
     r="6" />
  <path
     id="rect701"
     style="fill:#ffffff;stroke-width:3;stroke-linecap:round;stroke-linejoin:round"
     d="m 44.999997,30 c -1.661994,0 -3,1.338003 -3,3 V 56.279298 L 35.484372,49.763673 C 33.133953,47.413251 29.350419,47.413251 27,49.763673 34.606143,58.179645 40.864446,72 44.999997,72 h 18 l 3,-21 c 0,-1.661994 -1.338006,-3 -3,-3 -1.661994,0 -3,1.338006 -3,3 v -3 c 0,-1.661994 -1.338006,-3 -3,-3 -1.661994,0 -3,1.338006 -3,3 v -3 c 0,-1.661994 -1.338006,-3 -3,-3 -1.661994,0 -3,1.338006 -3,3 V 33 c 0,-1.661997 -1.338006,-3 -3,-3 z"
     sodipodi:nodetypes="sscsccccscsscsscss" />
</svg>
