<?xml version="1.0" encoding="UTF-8" standalone="no"?>
<!-- Created with Inkscape (http://www.inkscape.org/) -->

<svg
   width="96"
   height="96"
   viewBox="0 0 96 96.000008"
   version="1.1"
   id="svg1"
   inkscape:version="1.4.2 (ebf0e940d0, 2025-05-08)"
   sodipodi:docname="preferences-online-accounts.svg"
   xmlns:inkscape="http://www.inkscape.org/namespaces/inkscape"
   xmlns:sodipodi="http://sodipodi.sourceforge.net/DTD/sodipodi-0.dtd"
   xmlns:xlink="http://www.w3.org/1999/xlink"
   xmlns="http://www.w3.org/2000/svg"
   xmlns:svg="http://www.w3.org/2000/svg">
  <sodipodi:namedview
     id="namedview1"
     pagecolor="#ffffff"
     bordercolor="#000000"
     borderopacity="0.25"
     inkscape:showpageshadow="2"
     inkscape:pageopacity="0.0"
     inkscape:pagecheckerboard="0"
     inkscape:deskcolor="#d1d1d1"
     inkscape:document-units="px"
     inkscape:zoom="8.2916667"
     inkscape:cx="47.939698"
     inkscape:cy="48"
     inkscape:window-width="1920"
     inkscape:window-height="1011"
     inkscape:window-x="0"
     inkscape:window-y="0"
     inkscape:window-maximized="1"
     inkscape:current-layer="svg1" />
  <defs
     id="defs1">
    <linearGradient
       inkscape:collect="always"
       xlink:href="#linearGradient3147"
       id="linearGradient4"
       x1="16"
       y1="30"
       x2="16"
       y2="2"
       gradientUnits="userSpaceOnUse"
       gradientTransform="scale(3)" />
    <linearGradient
       inkscape:collect="always"
       id="linearGradient3147">
      <stop
         style="stop-color:#0091f9;stop-opacity:1;"
         offset="0"
         id="stop3143" />
      <stop
         style="stop-color:#41bbff;stop-opacity:1;"
         offset="1"
         id="stop3145" />
    </linearGradient>
  </defs>
  <rect
     style="opacity:0.2;fill:#000000;stroke-width:5.25"
     id="rect1"
     width="84"
     height="84"
     x="6"
     y="7"
     ry="18" />
  <rect
     style="fill:url(#linearGradient4);stroke-width:3"
     id="rect2"
     width="84"
     height="84"
     x="6"
     y="6"
     ry="18" />
  <path
     d="m 62.05599,61.67973 c -1.43337,0 -2.812987,-0.358343 -4.138856,-1.075024 -1.325869,-0.752524 -2.25756,-1.935056 -2.795074,-3.547597 h -0.05364 c -0.322564,0.860021 -0.806347,1.576706 -1.451359,2.150055 -0.645015,0.573348 -1.3617,1.039192 -2.150055,1.397538 -0.752516,0.35835 -1.522954,0.609188 -2.311309,0.752517 -0.788355,0.14331 -1.50504,0.21498 -2.150055,0.21498 -3.440088,0 -6.055991,-0.967527 -7.847703,-2.902579 -1.791748,-1.935038 -2.68762,-4.533019 -2.68762,-7.793933 v -4.192612 c 0,-3.296749 0.860022,-5.894734 2.580062,-7.793951 1.755881,-1.935051 4.13886,-2.902575 7.148936,-2.902575 2.006723,0 3.601347,0.304592 4.783875,0.913774 1.182533,0.609183 2.024637,1.343789 2.526315,2.203807 v -2.795075 h 5.052634 v 16.93169 c 0,1.505036 0.304594,2.615903 0.913778,3.332588 0.609183,0.680849 1.487122,1.021274 2.63382,1.021274 0.895856,0 1.684207,-0.16125 2.365061,-0.483757 0.68085,-0.358357 1.254199,-0.913785 1.720042,-1.66629 0.46584,-0.788359 0.824183,-1.791716 1.07502,-3.01008 0.25083,-1.254202 0.37626,-2.777156 0.37626,-4.568869 v -0.591236 c 0,-3.010076 -0.44793,-5.697645 -1.343786,-8.06271 -0.860014,-2.365077 -2.15004,-4.371801 -3.870082,-6.020178 -1.720047,-1.684209 -3.83427,-2.956326 -6.342672,-3.816348 -2.508397,-0.895857 -5.393055,-1.343784 -8.653972,-1.343784 -2.795074,0 -5.357224,0.447927 -7.68645,1.343784 -2.329227,0.895857 -4.335945,2.203809 -6.020157,3.923853 -1.648377,1.684209 -2.93841,3.762597 -3.870102,6.235162 -0.931689,2.472562 -1.397535,5.267636 -1.397535,8.385217 v 0.913778 c 0,3.332587 0.44793,6.288911 1.343787,8.868982 0.931689,2.544233 2.257557,4.676366 3.977604,6.396416 1.720041,1.755878 3.816344,3.081747 6.28891,3.977603 2.508402,0.931695 5.321389,1.397535 8.43897,1.397535 2.687569,0 5.35722,-0.30459 8.008962,-0.913774 2.651733,-0.573349 5.088461,-1.43337 7.310186,-2.580071 l 1.50504,3.7626 c -2.257556,1.21836 -4.801793,2.150055 -7.632698,2.79507 -2.795073,0.68085 -5.80515,1.021282 -9.030236,1.021282 -3.870097,0 -7.328104,-0.573352 -10.374019,-1.720042 C 35.251959,70.692045 32.671893,69.043665 30.55767,66.893614 28.443447,64.743559 26.812989,62.145578 25.666293,59.099662 24.555432,56.053747 24,52.649494 24,48.886898 v -1.021279 c 0,-3.440089 0.537516,-6.611423 1.612542,-9.513994 1.110864,-2.93841 2.669655,-5.464725 4.676373,-7.578948 2.042553,-2.114223 4.497198,-3.7626 7.363942,-4.945131 C 40.555432,24.609183 43.81635,24 47.43561,24 c 3.977602,0 7.489361,0.573348 10.535273,1.720048 3.045915,1.11086 5.608064,2.687568 7.686449,4.730121 2.078389,2.042553 3.655095,4.479285 4.730123,7.31019 C 71.46249,40.591264 72,43.708845 72,47.113099 v 0.698764 c 0,1.576706 -0.16125,3.189247 -0.483757,4.837623 -0.286681,1.612545 -0.80628,3.099671 -1.558793,4.461371 -0.75252,1.325869 -1.773802,2.418814 -3.063832,3.278835 -1.254199,0.860025 -2.866741,1.290038 -4.837628,1.290038 z M 41.791714,50.015677 c 0,2.04255 0.447926,3.673009 1.343782,4.891373 0.895856,1.182532 2.311313,1.773799 4.246361,1.773799 0.75252,0 1.469205,-0.08958 2.150056,-0.26877 0.716685,-0.17919 1.343782,-0.483773 1.881299,-0.913778 0.573346,-0.430009 1.021276,-1.003361 1.343787,-1.720046 0.322507,-0.716678 0.483761,-1.612538 0.483761,-2.687565 v -4.730119 c 0,-0.716681 -0.10749,-1.397531 -0.322515,-2.042554 -0.17919,-0.680853 -0.501686,-1.272116 -0.967523,-1.773795 -0.465847,-0.537517 -1.075031,-0.949612 -1.827547,-1.236281 -0.752516,-0.322507 -1.66629,-0.483761 -2.741318,-0.483761 -1.755881,0 -3.135502,0.483761 -4.138859,1.451287 -0.967523,0.967523 -1.451284,2.7234 -1.451284,5.267633 z"
     style="font-weight:bold;font-size:4.74057px;line-height:1.25;font-family:'나눔스퀘어';-inkscape-font-specification:'나눔스퀘어 Bold';fill:#ffffff;fill-opacity:1;stroke-width:1.34379"
     id="path6805"
     sodipodi:nodetypes="scccscsscsscsscccscscccsscccsscssscccsccccssscsscccscsssscccsscsccssscccscss" />
</svg>
