<?xml version="1.0" encoding="UTF-8" standalone="no"?>
<!-- Created with Inkscape (http://www.inkscape.org/) -->

<svg
   width="96"
   height="96"
   viewBox="0 0 96 96.000006"
   version="1.1"
   id="svg1"
   inkscape:version="1.4.2 (ebf0e940d0, 2025-05-08)"
   sodipodi:docname="thingy.svg"
   xmlns:inkscape="http://www.inkscape.org/namespaces/inkscape"
   xmlns:sodipodi="http://sodipodi.sourceforge.net/DTD/sodipodi-0.dtd"
   xmlns:xlink="http://www.w3.org/1999/xlink"
   xmlns="http://www.w3.org/2000/svg"
   xmlns:svg="http://www.w3.org/2000/svg">
  <sodipodi:namedview
     id="namedview1"
     pagecolor="#ffffff"
     bordercolor="#000000"
     borderopacity="0.25"
     inkscape:showpageshadow="2"
     inkscape:pageopacity="0.0"
     inkscape:pagecheckerboard="0"
     inkscape:deskcolor="#d1d1d1"
     inkscape:document-units="px"
     inkscape:zoom="8.1875"
     inkscape:cx="47.938931"
     inkscape:cy="48"
     inkscape:window-width="1920"
     inkscape:window-height="1011"
     inkscape:window-x="0"
     inkscape:window-y="0"
     inkscape:window-maximized="1"
     inkscape:current-layer="svg1" />
  <defs
     id="defs1">
    <linearGradient
       inkscape:collect="always"
       xlink:href="#linearGradient1778"
       id="linearGradient4"
       x1="16"
       y1="30"
       x2="16"
       y2="2"
       gradientUnits="userSpaceOnUse"
       gradientTransform="scale(3)" />
    <linearGradient
       inkscape:collect="always"
       id="linearGradient1778">
      <stop
         style="stop-color:#a42020;stop-opacity:1;"
         offset="0"
         id="stop1774" />
      <stop
         style="stop-color:#de6060;stop-opacity:1;"
         offset="1"
         id="stop1776" />
    </linearGradient>
  </defs>
  <rect
     style="opacity:0.2;fill:#000000;stroke-width:5.25"
     id="rect1"
     width="84"
     height="84"
     x="6"
     y="7"
     ry="18" />
  <rect
     style="fill:url(#linearGradient4);stroke-width:3"
     id="rect2"
     width="84"
     height="84"
     x="6"
     y="6"
     ry="18" />
  <path
     id="path4193"
     style="fill:#ffffff;stroke-width:6.00012;stroke-linecap:square;stroke-linejoin:round"
     d="m 27,27 c -3.324056,0 -6,2.675944 -6,6 v 12 c 0,0.09096 0.0075,0.17952 0.01173,0.26952 -0.06798,1.616703 0.512251,3.25446 1.751953,4.494141 l 20.472656,20.478513 c 2.350374,2.350584 6.133911,2.350476 8.484375,0 L 64.236339,57.726552 c 2.350407,-2.350536 2.35047,-6.133902 0,-8.484378 L 43.763673,28.763672 C 42.523989,27.523993 40.886235,26.943745 39.269532,27.011719 39.179592,27.007819 39.09096,27 39,27 Z m 19.242186,0 20.115237,20.121093 c 3.488694,3.488712 3.488697,9.237855 0,12.726564 L 55.617186,70.587891 c 2.362101,1.994301 5.8761,1.881723 8.103516,-0.345705 L 76.236327,57.726564 c 2.350407,-2.350536 2.35047,-6.133902 0,-8.484378 L 55.763673,28.763672 C 54.523992,27.523993 52.886232,26.943745 51.269532,27.011719 51.179592,27.007819 51.09096,27 51,27 Z M 30,33 c 1.656855,0 3,1.343145 3,3 0,1.656855 -1.343145,3 -3,3 -1.656854,0 -3,-1.343145 -3,-3 0,-1.656855 1.343146,-3 3,-3 z"
     sodipodi:nodetypes="sssccccccccsscccccccccscsssss" />
</svg>
