<?xml version="1.0" encoding="UTF-8" standalone="no"?>
<!-- Created with Inkscape (http://www.inkscape.org/) -->

<svg
   width="96"
   height="96"
   viewBox="0 0 96 96.000006"
   version="1.1"
   id="svg1"
   inkscape:version="1.4.2 (ebf0e940d0, 2025-05-08)"
   sodipodi:docname="utilities-system-monitor.svg"
   xmlns:inkscape="http://www.inkscape.org/namespaces/inkscape"
   xmlns:sodipodi="http://sodipodi.sourceforge.net/DTD/sodipodi-0.dtd"
   xmlns:xlink="http://www.w3.org/1999/xlink"
   xmlns="http://www.w3.org/2000/svg"
   xmlns:svg="http://www.w3.org/2000/svg">
  <sodipodi:namedview
     id="namedview1"
     pagecolor="#ffffff"
     bordercolor="#000000"
     borderopacity="0.25"
     inkscape:showpageshadow="2"
     inkscape:pageopacity="0.0"
     inkscape:pagecheckerboard="0"
     inkscape:deskcolor="#d1d1d1"
     inkscape:document-units="px"
     inkscape:zoom="8.28125"
     inkscape:cx="48"
     inkscape:cy="48"
     inkscape:window-width="1920"
     inkscape:window-height="1010"
     inkscape:window-x="0"
     inkscape:window-y="0"
     inkscape:window-maximized="1"
     inkscape:current-layer="svg1" />
  <defs
     id="defs1">
    <linearGradient
       inkscape:collect="always"
       xlink:href="#4852"
       id="linearGradient4"
       x1="16"
       y1="30"
       x2="16"
       y2="2"
       gradientUnits="userSpaceOnUse"
       gradientTransform="scale(3)" />
    <linearGradient
       inkscape:collect="always"
       id="4852">
      <stop
         style="stop-color:#272727;stop-opacity:1;"
         offset="0"
         id="stop14555" />
      <stop
         style="stop-color:#5d5d5d;stop-opacity:1;"
         offset="1"
         id="stop14557" />
    </linearGradient>
    <linearGradient
       inkscape:collect="always"
       xlink:href="#linearGradient7414"
       id="linearGradient7416"
       x1="14"
       y1="46"
       x2="14"
       y2="18"
       gradientUnits="userSpaceOnUse"
       gradientTransform="matrix(3,0,0,3,6,-48)" />
    <linearGradient
       inkscape:collect="always"
       id="linearGradient7414">
      <stop
         style="stop-color:#58dc93;stop-opacity:1;"
         offset="0"
         id="stop7410" />
      <stop
         style="stop-color:#a1e16b;stop-opacity:1;"
         offset="1"
         id="stop7412" />
    </linearGradient>
  </defs>
  <rect
     style="opacity:0.2;fill:#000000;stroke-width:5.25"
     id="rect1"
     width="84"
     height="84"
     x="6"
     y="7"
     ry="18" />
  <rect
     style="fill:url(#linearGradient4);stroke-width:3"
     id="rect2"
     width="84"
     height="78"
     x="6"
     y="6"
     ry="18" />
  <path
     id="rect7384"
     style="fill:url(#linearGradient7416);fill-opacity:1;stroke-width:7.09929;stroke-linecap:round;stroke-linejoin:round"
     d="M 27,30 C 16.384715,30 6,43.919364 6,51 v 6 15 c 0,9.972 8.028,18 18,18 h 48 c 9.801309,0 17.725764,-7.756092 17.994141,-17.490234 -0.0056,-6.594021 -0.01692,-12.5358 -0.03516,-12.556641 C 87.408438,57.083097 82.410174,50.946768 75,51 69.106926,51.04233 63.000228,56.95737 57,57 51.000006,57.04263 48.052515,52.935534 45,48 40.585623,39.873552 35.999991,30 27,30 Z"
     sodipodi:nodetypes="sscsssccsscs" />
  <path
     id="rect10286"
     style="fill:#ebfae7;stroke-width:4;stroke-linecap:round;stroke-linejoin:round"
     d="m 18,24 v 6 h 2 v -4 h 4 v -2 z m 8,0 v 2 h 4 v 4 h 2 v -6 z m -8,8 v 6 h 6 v -2 h -4 v -4 z m 12,0 v 4 h -4 v 2 h 6 v -6 z m 40,12 v 6 h 2 v -4 h 4 v -2 z m 8,0 v 2 h 4 v 4 h 2 v -6 z m -8,8 v 6 h 6 v -2 h -4 v -4 z m 12,0 v 4 h -4 v 2 h 6 v -6 z" />
</svg>
