<?xml version="1.0" encoding="UTF-8" standalone="no"?>
<!-- Created with Inkscape (http://www.inkscape.org/) -->

<svg
   width="96"
   height="96"
   viewBox="0 0 96 96.000006"
   version="1.1"
   id="svg1"
   inkscape:version="1.4.2 (ebf0e940d0, 2025-05-08)"
   sodipodi:docname="warpinator.svg"
   xmlns:inkscape="http://www.inkscape.org/namespaces/inkscape"
   xmlns:sodipodi="http://sodipodi.sourceforge.net/DTD/sodipodi-0.dtd"
   xmlns:xlink="http://www.w3.org/1999/xlink"
   xmlns="http://www.w3.org/2000/svg"
   xmlns:svg="http://www.w3.org/2000/svg">
  <sodipodi:namedview
     id="namedview1"
     pagecolor="#ffffff"
     bordercolor="#000000"
     borderopacity="0.25"
     inkscape:showpageshadow="2"
     inkscape:pageopacity="0.0"
     inkscape:pagecheckerboard="0"
     inkscape:deskcolor="#d1d1d1"
     inkscape:document-units="px"
     inkscape:zoom="8.2916667"
     inkscape:cx="47.939698"
     inkscape:cy="48"
     inkscape:window-width="1920"
     inkscape:window-height="1011"
     inkscape:window-x="0"
     inkscape:window-y="0"
     inkscape:window-maximized="1"
     inkscape:current-layer="svg1" />
  <defs
     id="defs1">
    <linearGradient
       inkscape:collect="always"
       xlink:href="#linearGradient1141"
       id="linearGradient4"
       x1="16"
       y1="30"
       x2="16"
       y2="2"
       gradientUnits="userSpaceOnUse"
       gradientTransform="scale(3)" />
    <linearGradient
       inkscape:collect="always"
       id="linearGradient1141">
      <stop
         style="stop-color:#5c49ae;stop-opacity:1;"
         offset="0"
         id="stop1137" />
      <stop
         style="stop-color:#8a76e0;stop-opacity:1;"
         offset="1"
         id="stop1139" />
    </linearGradient>
  </defs>
  <rect
     style="opacity:0.2;fill:#000000;stroke-width:5.25"
     id="rect1"
     width="84"
     height="84"
     x="6"
     y="7"
     ry="18" />
  <rect
     style="fill:url(#linearGradient4);stroke-width:3"
     id="rect2"
     width="84"
     height="84"
     x="6"
     y="6"
     ry="18" />
  <path
     d="m 72.001173,21.000012 c -3.313707,0 -6,2.686293 -6,6 0.0011,0.61239 0.09594,1.221003 0.28125,1.804689 L 55.981641,40.101576 c -1.562031,-0.719862 -3.260553,-1.095537 -4.980468,-1.101564 -6.472539,0.0029 -11.776536,5.138349 -11.988282,11.607423 l -14.560545,2.074218 c -0.811788,-1.034901 -2.053839,-1.639725 -3.369141,-1.640625 -2.367261,0.0014 -4.285053,1.9218 -4.283204,4.289061 0.0014,2.364975 1.918229,4.281819 4.283204,4.283205 1.747491,-9.54e-4 3.319395,-1.062792 3.972657,-2.683596 l 14.589843,-2.085936 c 1.646925,4.870725 6.213843,8.150991 11.355468,8.15625 6.627417,0 12,-5.372583 12,-12 -9.54e-4,-2.417565 -0.732099,-4.778472 -2.097657,-6.773436 L 71.19258,32.93556 c 0.26778,0.03969 0.537918,0.06123 0.808593,0.06444 3.313707,0 6,-2.686293 6,-6 0,-3.313707 -2.686293,-6 -6,-6 z m -34.5,3 c -2.485281,0 -4.5,2.014719 -4.5,4.5 0,2.485281 2.014719,4.5 4.5,4.5 2.485281,0 4.5,-2.014719 4.5,-4.5 0,-2.485281 -2.014719,-4.5 -4.5,-4.5 z m 34.5,0 c 1.656855,0 3,1.343145 3,3 0,1.656855 -1.343145,3 -3,3 -1.656855,0 -3,-1.343145 -3,-3 0,-1.656855 1.343145,-3 3,-3 z m -30.421875,8.314452 -2.220702,1.634766 1.488279,2.126955 2.220705,-1.640625 z M 43.8,35.490246 l -2.214843,1.640625 1.951173,2.794923 2.220702,-1.640625 z m 7.201173,9.509766 c 3.313707,0 6,2.686293 6,6 0,3.313707 -2.686293,6 -6,6 -3.313707,0 -6,-2.686293 -6,-6 0,-3.313707 2.686293,-6 6,-6 z M 21.083205,53.18556 c 1.184775,-9.27e-4 2.145456,0.959754 2.144529,2.144529 9.27e-4,1.184775 -0.959754,2.145459 -2.144529,2.144532 -1.182486,-0.0023 -2.1396,-0.962043 -2.138673,-2.144532 -9.24e-4,-1.182486 0.956187,-2.142219 2.138673,-2.144529 z m 40.318359,5.625 -2.091798,2.091795 2.701173,2.712891 2.103516,-2.103516 z m 3.685545,3.679686 -2.097654,2.097657 3.134766,3.128907 2.091795,-2.091798 z m -19.359372,0.322266 -1.869141,4.669923 2.683593,0.9375 1.863282,-4.664064 z m 25.523436,3.1875 c -2.899494,0 -5.25,2.350506 -5.25,5.25 0,2.899494 2.350506,5.25 5.25,5.25 2.899494,0 5.25,-2.350506 5.25,-5.25 0,-2.899494 -2.350506,-5.25 -5.25,-5.25 z m -27.75,3 c -2.485281,0 -4.5,2.014719 -4.5,4.5 0,2.485281 2.014719,4.5 4.5,4.5 2.485281,0 4.5,-2.014719 4.5,-4.5 0,-2.485281 -2.014719,-4.5 -4.5,-4.5 z"
     style="fill:#ffffff;stroke-width:3"
     id="path2992" />
</svg>
