<?xml version="1.0" encoding="UTF-8" standalone="no"?>
<!-- Created with Inkscape (http://www.inkscape.org/) -->

<svg
   width="96"
   height="96"
   viewBox="0 0 96 96.000006"
   version="1.1"
   id="svg1"
   inkscape:version="1.4.2 (ebf0e940d0, 2025-05-08)"
   sodipodi:docname="wayland.svg"
   xmlns:inkscape="http://www.inkscape.org/namespaces/inkscape"
   xmlns:sodipodi="http://sodipodi.sourceforge.net/DTD/sodipodi-0.dtd"
   xmlns:xlink="http://www.w3.org/1999/xlink"
   xmlns="http://www.w3.org/2000/svg"
   xmlns:svg="http://www.w3.org/2000/svg">
  <sodipodi:namedview
     id="namedview1"
     pagecolor="#ffffff"
     bordercolor="#000000"
     borderopacity="0.25"
     inkscape:showpageshadow="2"
     inkscape:pageopacity="0.0"
     inkscape:pagecheckerboard="0"
     inkscape:deskcolor="#d1d1d1"
     inkscape:document-units="px"
     inkscape:zoom="8.2916667"
     inkscape:cx="47.939698"
     inkscape:cy="48"
     inkscape:window-width="1920"
     inkscape:window-height="1011"
     inkscape:window-x="0"
     inkscape:window-y="0"
     inkscape:window-maximized="1"
     inkscape:current-layer="svg1" />
  <defs
     id="defs1">
    <linearGradient
       inkscape:collect="always"
       xlink:href="#linearGradient1511"
       id="linearGradient4"
       x1="16"
       y1="30"
       x2="16"
       y2="2"
       gradientUnits="userSpaceOnUse"
       gradientTransform="scale(3)" />
    <linearGradient
       inkscape:collect="always"
       id="linearGradient1511">
      <stop
         style="stop-color:#ffb251;stop-opacity:1;"
         offset="0"
         id="stop1507" />
      <stop
         style="stop-color:#ffde75;stop-opacity:1;"
         offset="1"
         id="stop1509" />
    </linearGradient>
  </defs>
  <rect
     style="opacity:0.2;fill:#000000;stroke-width:5.25"
     id="rect1"
     width="84"
     height="84"
     x="6"
     y="7"
     ry="18" />
  <rect
     style="fill:url(#linearGradient4);stroke-width:3"
     id="rect2"
     width="84"
     height="84"
     x="6"
     y="6"
     ry="18" />
  <path
     d="m 47.99619,18.000009 c -5.119785,0 -9.937965,1.28697 -14.154915,3.548265 h 5.95956 v 0.40443 c -0.79596,0.03795 -1.33116,0.24597 -1.61769,0.62571 -0.604935,-0.41772 -1.197255,-0.625665 -1.77033,-0.62571 h -1.95345 l -1.09881,0.16785 -0.19077,-0.16785 h -0.06105 c -0.780465,0.44721 -1.539555,0.92886 -2.27394,1.44219 1.682505,2.411325 2.698455,4.494837 3.04464,6.241887 h 1.625325 v 0.40443 h -1.2438 v 0.45021 c 0.47757,1.74708 0.83016,2.624985 1.05303,2.624955 h 0.38154 l 0.86226,-0.2289 0.19077,0.2289 0.19077,-0.2289 0.19077,0.2289 v 0.16785 c -0.636765,0.45579 -1.066725,1.08726 -1.28958,1.88478 h -0.14505 v 0.396795 h 0.33576 c 0.44571,6.342525 1.277745,11.14818 2.4876,14.414355 l 0.70965,0.56466 h 0.381525 c 0.477555,3e-5 1.485885,-2.21802 3.014115,-6.661575 0.98697,-2.01285 1.69848,-3.776505 2.14422,-5.29569 l -0.19077,-0.633345 c 0.98697,-1.481145 2.009235,-2.22048 3.05991,-2.220525 h 0.335745 c 0.66858,4.5e-5 1.140375,0.415935 1.426935,1.251435 0.89145,1.25334 1.61058,3.140115 2.151855,5.64669 l 2.67837,5.9214 c 0.35019,0.417795 0.518865,0.89526 0.51888,1.42695 0.986955,2.240775 1.882395,3.71946 2.67837,4.44105 h 0.572295 c 0.66858,1.5e-5 1.556385,-2.77248 2.67075,-8.31744 0.19098,3e-5 0.71988,-1.47867 1.579545,-4.44105 v -0.22893 l -3.006495,-0.39678 -0.71727,0.22128 h -0.908055 v -0.45021 l 1.816095,-0.1755 h 3.53301 c 1.36899,-4.899255 2.62335,-8.696055 3.769545,-11.392602 0.1188,-1.72365 0.25797,-3.14637 0.40443,-4.33422 -2.078715,-1.724925 -4.39443,-3.177585 -6.890505,-4.296075 -0.20433,0.47181 -0.59826,0.70971 -1.19802,0.70965 v -0.39678 l 1.10646,-0.35865 c -3.716925,-1.65021 -7.834245,-2.563906 -12.163185,-2.563906 z m -5.707755,3.548265 h 4.82259 v 0.40443 l -1.09881,0.16785 -1.05303,-0.16785 -0.908055,0.396795 -0.328125,-0.396795 h -1.43457 z m 9.980925,3.250665 h 0.526515 v 0.16788 c -1.5e-5,0.26592 -0.17631,0.39684 -0.526515,0.396795 l -0.19077,0.22893 v 0.2289 l -0.52653,-0.2289 v -0.396798 z m -25.6467,2.159472 C 21.290985,32.373591 18,39.804051 18,48.003831 18,64.572066 31.427955,78.000006 47.99619,78.000006 64.564425,78.000006 78,64.572066 78,48.003831 c 0,-6.69387 -2.192625,-12.880185 -5.89851,-17.87106 -0.806115,0.956325 -1.58763,2.766555 -2.350245,5.433045 -0.350265,2.772495 -0.94257,5.33706 -1.77033,7.69173 -0.7323,2.430675 -1.09884,4.67178 -1.09881,6.722625 l -1.381155,4.044255 c -3e-5,0.34182 0.521235,0.680715 1.571925,1.022505 -0.19107,0.79758 -0.480255,1.198035 -0.86226,1.19802 v 0.22893 h 0.335745 v 0.16788 c -4.5e-5,0.41778 -0.54288,0.625725 -1.62534,0.62571 l 0.19842,0.22893 v 0.801225 h -0.33576 c 0.22284,0.797565 0.694635,1.190385 1.42695,1.19037 v 0.40443 h -1.42695 v 0.22893 c 0.47754,0 0.717255,0.338895 0.717285,1.022505 l -2.006865,0.79359 0.19077,0.22893 v 0.1755 c -3e-5,0.26589 -0.23976,0.39681 -0.717285,0.39681 v 0.2289 c 0.604875,1.5e-5 0.908025,0.13095 0.908055,0.396795 -0.859665,0.34182 -1.99482,2.036085 -3.395655,5.074395 -1.43274,2.696505 -2.673135,4.044255 -3.723765,4.044255 h -0.38154 c -0.795975,-0.60765 -1.44408,-2.62539 -1.95345,-6.043485 -2.03766,-5.20311 -3.059925,-8.26056 -3.05991,-9.17208 -1.5e-5,-2.35467 -0.65574,-4.85766 -1.96107,-7.516215 C 49.05,48.573921 48.81792,47.087601 48.6906,45.302571 l -0.862275,-0.22131 c -2.164995,3.91185 -3.292515,6.969315 -3.38802,9.172065 -0.604935,1.291305 -1.084365,2.847 -1.43457,4.66998 1.305345,0.41778 1.953435,0.818235 1.953465,1.19802 v 0.22128 c -1.01883,-0.15189 -1.730355,-0.43686 -2.14422,-0.85464 -0.445755,1.025445 -1.03806,3.87495 -1.77033,8.54637 -0.57309,2.1648 -1.2846,3.250665 -2.14422,3.250665 -2.41968,-0.949485 -4.442655,-2.50518 -6.06639,-4.66998 -0.2547,1.5e-5 -0.67071,-1.085865 -1.2438,-3.250665 -0.35022,0 -0.58992,-1.07823 -0.71727,-3.24303 -1.20984,-3.07629 -2.03424,-6.59577 -2.47998,-10.5456 v -5.9214 h -0.19077 l -0.86226,0.22893 v -0.22893 c 0,-0.26583 0.28917,-0.396765 0.86226,-0.396795 l -0.19077,-3.418545 v -2.67837 l -1.38879,-8.546355 z m 22.968345,0.06105 v 0.22893 c -3e-5,0.303873 -0.76101,0.627333 -2.28921,0.969096 v -0.40443 l 1.05303,-0.564666 0.19077,0.16788 h 0.14505 l 0.90042,-0.396792 z m -5.150715,2.052657 v 0.16788 c -0.66861,0.60771 -1.754295,1.162185 -3.250665,1.655865 v -0.40443 c 0.2547,3e-5 0.38151,-0.2079 0.38154,-0.62571 z m 27.012585,0.22893 -0.08385,0.740172 h 0.335745 l 0.20604,-0.16026 c -0.1488,-0.19614 -0.304305,-0.387585 -0.457845,-0.579927 z m -17.939715,1.762692 0.19077,0.22893 v 0.16788 l -0.335745,0.457845 h -0.19077 l -0.38154,-0.457845 v -0.16788 z m 6.585285,0.22893 h 0.19074 v 0.16788 l -0.328125,0.457845 h -0.19074 v -0.22893 z m -3.006495,2.846235 0.717285,0.572307 c -0.12735,0.417798 -0.47997,0.62574 -1.05303,0.625713 l -0.38154,-0.625713 c -3e-5,-0.18987 0.2397,-0.38238 0.717285,-0.572307 z m 4.296075,2.624952 0.14505,0.22128 v 0.1755 l -0.14505,0.22893 h -0.38154 v -0.22893 z m -6.77604,2.045028 v 0.1755 l -0.908055,0.85464 h -0.526515 v -0.22893 c -3e-5,-0.341775 0.4794,-0.61128 1.43457,-0.801207 z m -29.61465,7.920627 h 0.19077 v 0.17553 c -0.47757,1.253325 -0.88596,2.00811 -1.23618,2.27394 h -0.38154 v -0.85464 z m 23.35749,9.51546 h 0.19077 v 0.396795 l -1.43457,0.85464 -0.19077,-0.22893 v -0.396816 z m -19.62609,2.67837 h 0.32811 l 0.57231,2.220525 h -0.38154 l -0.51888,-2.052645 z m 19.099575,2.61732 h 0.14505 l 0.57231,0.62571 -0.19077,0.1755 h -0.19077 l -0.335745,-0.572295 v -0.22893 z"
     style="display:inline;fill:#ffffff;fill-opacity:1;stroke:none;stroke-width:1.5;enable-background:new"
     id="path3360"
     sodipodi:nodetypes="scccccccccccccccccccccccccccccccccccccccscccccccccccccccsscccccccccccscccccccsssccccccccccccccccccccccccccsccccccccccccccccccccsccccccccccccccccccccccccccccccccccccccccccccccccccccccccccccccccccccccccccccccccccccccc" />
</svg>
