<?xml version="1.0" encoding="UTF-8" standalone="no"?>
<!-- Created with Inkscape (http://www.inkscape.org/) -->

<svg
   width="96"
   height="96"
   viewBox="0 0 96 96.000006"
   version="1.1"
   id="svg1"
   inkscape:version="1.4 (e7c3feb100, 2024-10-09)"
   sodipodi:docname="xorg.svg"
   xmlns:inkscape="http://www.inkscape.org/namespaces/inkscape"
   xmlns:sodipodi="http://sodipodi.sourceforge.net/DTD/sodipodi-0.dtd"
   xmlns:xlink="http://www.w3.org/1999/xlink"
   xmlns="http://www.w3.org/2000/svg"
   xmlns:svg="http://www.w3.org/2000/svg">
  <sodipodi:namedview
     id="namedview1"
     pagecolor="#ffffff"
     bordercolor="#000000"
     borderopacity="0.25"
     inkscape:showpageshadow="2"
     inkscape:pageopacity="0.0"
     inkscape:pagecheckerboard="0"
     inkscape:deskcolor="#d1d1d1"
     inkscape:document-units="px"
     inkscape:zoom="8.1875"
     inkscape:cx="48.061069"
     inkscape:cy="48"
     inkscape:window-width="1920"
     inkscape:window-height="1011"
     inkscape:window-x="0"
     inkscape:window-y="0"
     inkscape:window-maximized="1"
     inkscape:current-layer="svg1" />
  <defs
     id="defs1">
    <linearGradient
       inkscape:collect="always"
       xlink:href="#linearGradient1144"
       id="linearGradient4"
       x1="16"
       y1="30"
       x2="16"
       y2="2"
       gradientUnits="userSpaceOnUse"
       gradientTransform="scale(3)" />
    <linearGradient
       inkscape:collect="always"
       xlink:href="#linearGradient3678"
       id="linearGradient3680"
       x1="11.2"
       y1="21.507999"
       x2="52.799999"
       y2="48.809299"
       gradientUnits="userSpaceOnUse"
       gradientTransform="matrix(1.5865384,0,0,1.5865384,-2.7692311,-4.1232693)" />
    <linearGradient
       inkscape:collect="always"
       id="linearGradient3678">
      <stop
         style="stop-color:#ec6e28;stop-opacity:1;"
         offset="0"
         id="stop3674" />
      <stop
         style="stop-color:#f3bf21;stop-opacity:1;"
         offset="1"
         id="stop3676" />
    </linearGradient>
    <linearGradient
       inkscape:collect="always"
       id="linearGradient1144">
      <stop
         style="stop-color:#adb2b9;stop-opacity:1;"
         offset="0"
         id="stop1140" />
      <stop
         style="stop-color:#e0e2e4;stop-opacity:1;"
         offset="1"
         id="stop1142" />
    </linearGradient>
  </defs>
  <rect
     style="opacity:0.2;fill:#000000;stroke-width:5.25"
     id="rect1"
     width="84"
     height="84"
     x="6"
     y="7"
     ry="18" />
  <rect
     style="fill:url(#linearGradient4);stroke-width:3"
     id="rect2"
     width="84"
     height="84"
     x="6"
     y="6"
     ry="18" />
  <path
     id="rect2346"
     style="fill:#373a3d;fill-opacity:1;stroke-width:4.89897"
     d="M 21,21 42,50.080077 24,75 h 3 L 43.5,52.154298 51,41.771484 36,21 Z M 69,21 45,54.228516 60,75 H 75 L 54,45.919923 72,21 Z" />
  <path
     id="path3649"
     style="fill:url(#linearGradient3680);fill-opacity:1;stroke-width:1.58653"
     d="m 48,30 c -1.610808,0 -3.331926,0.12309 -4.880859,0.26952 2.759622,3.555747 5.045769,6.568551 7.681641,9.990234 -1.478814,-3.145305 -4.518564,-6.165798 -3.46875,-7.716798 1.041558,-1.534497 2.959032,-1.277343 3.105468,-1.277343 3.073122,0 6.034974,0.34533 8.800782,0.978516 l 0.644532,-0.878907 C 56.193006,30.426807 52.191,30 48,30 Z m 16.646484,2.871093 -0.597657,0.84375 c 8.522244,3.297936 14.285157,9.59007 14.285157,16.804689 0,10.628052 -12.497874,19.253904 -27.896484,19.253904 -15.39861,0 -27.902344,-8.619996 -27.902344,-19.248045 0,-5.345448 3.169891,-10.185405 8.273437,-13.675782 L 28.980468,33.890625 C 20.5263,37.821336 15,44.293398 15,51.615234 15,63.596283 29.784018,73.3125 48,73.3125 c 18.213921,0 33,-9.718275 33,-21.697266 0,-7.990116 -6.571086,-14.975958 -16.353516,-18.744141 z" />
</svg>
