<?xml version="1.0" encoding="UTF-8" standalone="no"?>
<!-- Created with Inkscape (http://www.inkscape.org/) -->

<svg
   width="96"
   height="96"
   viewBox="0 0 96 96.000006"
   version="1.1"
   id="svg1"
   inkscape:version="1.4 (e7c3feb100, 2024-10-09)"
   sodipodi:docname="youtube-music.svg"
   xmlns:inkscape="http://www.inkscape.org/namespaces/inkscape"
   xmlns:sodipodi="http://sodipodi.sourceforge.net/DTD/sodipodi-0.dtd"
   xmlns="http://www.w3.org/2000/svg"
   xmlns:svg="http://www.w3.org/2000/svg">
  <sodipodi:namedview
     id="namedview1"
     pagecolor="#ffffff"
     bordercolor="#000000"
     borderopacity="0.25"
     inkscape:showpageshadow="2"
     inkscape:pageopacity="0.0"
     inkscape:pagecheckerboard="0"
     inkscape:deskcolor="#d1d1d1"
     inkscape:document-units="px"
     inkscape:zoom="8.4166667"
     inkscape:cx="47.940594"
     inkscape:cy="48"
     inkscape:window-width="1920"
     inkscape:window-height="1011"
     inkscape:window-x="0"
     inkscape:window-y="0"
     inkscape:window-maximized="1"
     inkscape:current-layer="svg1" />
  <defs
     id="defs1" />
  <rect
     style="opacity:0.2;fill:#000000;stroke-width:5.25"
     id="rect1"
     width="84"
     height="84"
     x="6"
     y="7"
     ry="18" />
  <rect
     style="fill:#fafafa;fill-opacity:1;stroke-width:3"
     id="rect2"
     width="84"
     height="84"
     x="6"
     y="6"
     ry="18" />
  <circle
     style="fill:#ff0000;fill-opacity:1;stroke-width:3.75;stroke-linecap:round"
     id="path233"
     cx="48"
     cy="48"
     r="30" />
  <path
     d="M 42,38.999997 57,47.999937 42,57 Z"
     style="fill:#ffffff;stroke-width:0.445929"
     id="path301" />
  <path
     id="path288"
     style="fill:#ffffff;stroke-width:3.50001;stroke-linecap:round"
     d="M 48,27 A 21,21 0 0 0 27,48 21,21 0 0 0 48,69 21,21 0 0 0 69,48 21,21 0 0 0 48,27 Z m 0,3 A 18,18 0 0 1 66,48 18,18 0 0 1 48,66 18,18 0 0 1 30,48 18,18 0 0 1 48,30 Z" />
</svg>
