<?xml version="1.0" encoding="UTF-8" standalone="no"?>
<!-- Created with Inkscape (http://www.inkscape.org/) -->

<svg
   width="96"
   height="96"
   viewBox="0 0 96 96.000006"
   version="1.1"
   id="svg1"
   inkscape:version="1.4 (e7c3feb100, 2024-10-09)"
   sodipodi:docname="youtube-dl.svg"
   xmlns:inkscape="http://www.inkscape.org/namespaces/inkscape"
   xmlns:sodipodi="http://sodipodi.sourceforge.net/DTD/sodipodi-0.dtd"
   xmlns="http://www.w3.org/2000/svg"
   xmlns:svg="http://www.w3.org/2000/svg">
  <sodipodi:namedview
     id="namedview1"
     pagecolor="#ffffff"
     bordercolor="#000000"
     borderopacity="0.25"
     inkscape:showpageshadow="2"
     inkscape:pageopacity="0.0"
     inkscape:pagecheckerboard="0"
     inkscape:deskcolor="#d1d1d1"
     inkscape:document-units="px"
     inkscape:zoom="8.1875"
     inkscape:cx="48.183206"
     inkscape:cy="48"
     inkscape:window-width="1920"
     inkscape:window-height="1011"
     inkscape:window-x="0"
     inkscape:window-y="0"
     inkscape:window-maximized="1"
     inkscape:current-layer="svg1" />
  <defs
     id="defs1" />
  <rect
     style="opacity:0.2;fill:#000000;stroke-width:5.25"
     id="rect1"
     width="84"
     height="84"
     x="6"
     y="7"
     ry="18" />
  <rect
     style="fill:#fafafa;fill-opacity:1;stroke-width:3"
     id="rect2"
     width="84"
     height="84"
     x="6"
     y="6"
     ry="18" />
  <path
     id="path1633"
     style="fill:#ff0000;fill-opacity:1;stroke-width:0.487147"
     d="m 47.999895,28 c 0,0 -17.556155,0.004 -22.346825,1.180555 C 23.081238,29.83938 20.965152,31.81163 20.25916,34.25868 18.998457,38.729254 19,47.999999 19,47.999999 c 0,0 -0.0016,9.322141 1.25916,13.74566 0.705996,2.447047 2.771652,4.371569 5.39391,5.030381 C 30.494164,67.999577 47.999895,68 47.999895,68 c 0,0 17.551794,-0.004 22.342466,-1.180556 2.622263,-0.658827 4.687915,-2.583333 5.39391,-5.030382 1.260704,-4.470577 1.263517,-13.741319 1.263517,-13.741319 0,0 0.04712,-9.318488 -1.263517,-13.789062 C 75.030274,31.81163 72.964624,29.882778 70.342361,29.223958 65.551689,28.000433 47.999895,28 47.999895,28 Z"
     sodipodi:nodetypes="ccccccccccccc" />
  <path
     id="rect1087"
     style="fill:#ffffff;stroke-width:1.80876"
     d="m 44.000002,36 h 7.999996 V 48 H 60 L 48,60 36,48 h 8.000002 z"
     sodipodi:nodetypes="cccccccc" />
</svg>
