<?xml version="1.0" encoding="UTF-8" standalone="no"?>
<!-- Created with Inkscape (http://www.inkscape.org/) -->

<svg
   width="24"
   height="24"
   viewBox="0 0 24 24.000002"
   version="1.1"
   id="svg1"
   inkscape:version="1.4.2 (ebf0e940d0, 2025-05-08)"
   sodipodi:docname="accessories-character-map.svg"
   xmlns:inkscape="http://www.inkscape.org/namespaces/inkscape"
   xmlns:sodipodi="http://sodipodi.sourceforge.net/DTD/sodipodi-0.dtd"
   xmlns:xlink="http://www.w3.org/1999/xlink"
   xmlns="http://www.w3.org/2000/svg"
   xmlns:svg="http://www.w3.org/2000/svg">
  <sodipodi:namedview
     id="namedview1"
     pagecolor="#ffffff"
     bordercolor="#000000"
     borderopacity="0.25"
     inkscape:showpageshadow="2"
     inkscape:pageopacity="0.0"
     inkscape:pagecheckerboard="0"
     inkscape:deskcolor="#d1d1d1"
     inkscape:document-units="px"
     inkscape:zoom="33.166667"
     inkscape:cx="11.984925"
     inkscape:cy="12"
     inkscape:window-width="1920"
     inkscape:window-height="1011"
     inkscape:window-x="0"
     inkscape:window-y="0"
     inkscape:window-maximized="1"
     inkscape:current-layer="svg1" />
  <defs
     id="defs1">
    <linearGradient
       inkscape:collect="always"
       xlink:href="#4852"
       id="linearGradient4"
       x1="16"
       y1="30"
       x2="16"
       y2="2"
       gradientUnits="userSpaceOnUse"
       gradientTransform="matrix(0.71428571,0,0,0.71428571,0.57142857,0.5714286)" />
    <linearGradient
       inkscape:collect="always"
       id="4852">
      <stop
         style="stop-color:#272727;stop-opacity:1;"
         offset="0"
         id="stop14555" />
      <stop
         style="stop-color:#5d5d5d;stop-opacity:1;"
         offset="1"
         id="stop14557" />
    </linearGradient>
  </defs>
  <rect
     style="opacity:0.2;fill:#000000;stroke-width:1.75"
     id="rect1"
     width="20"
     height="20"
     x="2"
     y="2.5"
     ry="4" />
  <rect
     style="fill:url(#linearGradient4);stroke-width:0.714286"
     id="rect2"
     width="20"
     height="20"
     x="2"
     y="2"
     ry="4" />
  <path
     d="m 12.28353,14.0381 c -1.1001,1.1e-5 -1.8622,0.12238 -2.2865,0.36713 -0.42425,0.24476 -0.63637,0.66227 -0.63637,1.2526 0,0.47031 0.15786,0.544425 0.47358,0.822785 0.32064,0.27355 0.75475,0.41032 1.3023,0.41032 0.75475,0 1.359,-0.25915 1.8129,-0.77744 0.45876,-0.5231 0.68815,-0.916385 0.68816,-1.780185 v -0.29514 h -1.3541 m 2.716,-0.547 v 4.508715 H 13.638 v -1.43283 c -0.31,0.49 -0.698,0.852 -1.161,1.087 -0.464,0.231 -1.031,0.346 -1.702,0.346 -0.849,0 -1.524,-0.23 -2.028,-0.691 C 8.249,16.843055 8,16.52227 8,15.74527 c 0,-0.90702 0.31078,-1.5909 0.93235,-2.0516 0.6265,-0.460699 1.560495,-0.62629 2.797,-0.691059 h 1.9091 v -0.12958 c -1.1e-5,-0.60947 -0.20719,-0.979878 -0.62156,-1.310978 -0.40945,-0.335921 -0.98661,-0.503901 -1.7315,-0.503901 -0.47357,10e-6 -0.93481,0.0552 -1.3837,0.16557 -0.44891,0.110381 -0.88055,0.576166 -1.2949,0.796916 v -1.524016 c 0.49824,-0.18716 0.98167,-0.32632 1.4503,-0.41752 0.46864,-0.09597 0.92495,-0.1439597 1.3689,-0.1439697 1.1987,1e-5 2.0941,0.3023497 2.686,0.9070197 0.59196,0.604691 0.88794,1.421379 0.88795,2.649978 m -4.587,-8.49113 2.0867,2.99897 h -1.1321 L 8.95554,5.0013 h 1.4577"
     style="fill:#ffffff;fill-opacity:1"
     id="path348"
     sodipodi:nodetypes="ccscscscccccccscscccscccccccccccccc" />
</svg>
