<?xml version="1.0" encoding="UTF-8" standalone="no"?>
<!-- Created with Inkscape (http://www.inkscape.org/) -->

<svg
   width="24"
   height="24"
   viewBox="0 0 24 24.000002"
   version="1.1"
   id="svg1"
   inkscape:version="1.4.2 (ebf0e940d0, 2025-05-08)"
   sodipodi:docname="applets-screenshooter.svg"
   xmlns:inkscape="http://www.inkscape.org/namespaces/inkscape"
   xmlns:sodipodi="http://sodipodi.sourceforge.net/DTD/sodipodi-0.dtd"
   xmlns:xlink="http://www.w3.org/1999/xlink"
   xmlns="http://www.w3.org/2000/svg"
   xmlns:svg="http://www.w3.org/2000/svg">
  <sodipodi:namedview
     id="namedview1"
     pagecolor="#ffffff"
     bordercolor="#000000"
     borderopacity="0.25"
     inkscape:showpageshadow="2"
     inkscape:pageopacity="0.0"
     inkscape:pagecheckerboard="0"
     inkscape:deskcolor="#d1d1d1"
     inkscape:document-units="px"
     inkscape:zoom="33.166667"
     inkscape:cx="11.984925"
     inkscape:cy="12"
     inkscape:window-width="1920"
     inkscape:window-height="1011"
     inkscape:window-x="0"
     inkscape:window-y="0"
     inkscape:window-maximized="1"
     inkscape:current-layer="svg1" />
  <defs
     id="defs1">
    <linearGradient
       inkscape:collect="always"
       id="linearGradient1625">
      <stop
         style="stop-color:#13a5c5;stop-opacity:1;"
         offset="0"
         id="stop1621" />
      <stop
         style="stop-color:#b1f6cb;stop-opacity:1;"
         offset="1"
         id="stop1623" />
    </linearGradient>
    <linearGradient
       inkscape:collect="always"
       xlink:href="#linearGradient1625"
       id="linearGradient2"
       x1="11"
       y1="21"
       x2="11"
       y2="1"
       gradientUnits="userSpaceOnUse"
       gradientTransform="translate(1,1)" />
    <linearGradient
       inkscape:collect="always"
       xlink:href="#4852"
       id="linearGradient4"
       x1="16"
       y1="30"
       x2="16"
       y2="2"
       gradientUnits="userSpaceOnUse"
       gradientTransform="matrix(0.71428571,0,0,0.71428571,0.5714286,0.5714286)" />
    <linearGradient
       inkscape:collect="always"
       id="4852">
      <stop
         style="stop-color:#272727;stop-opacity:1;"
         offset="0"
         id="stop14555" />
      <stop
         style="stop-color:#5d5d5d;stop-opacity:1;"
         offset="1"
         id="stop14557" />
    </linearGradient>
  </defs>
  <rect
     style="opacity:0.2;fill:#000000;stroke-width:1.75"
     id="rect1"
     width="20"
     height="20"
     x="2"
     y="2.5"
     ry="4" />
  <rect
     style="fill:url(#linearGradient4);stroke-width:0.714286"
     id="rect2"
     width="20"
     height="20"
     x="2"
     y="2"
     ry="4" />
  <path
     d="m 7.4999999,5 c -0.277,0 -0.5,0.223001 -0.5,0.5 V 8 h -2.5 c -0.276997,0 -0.5,0.223001 -0.5,0.5 0,0.276998 0.223003,0.5 0.5,0.5 h 2.5 v 6 c 0,0.553998 0.446002,1 1,1 H 16 v 2.5 c 0,0.276999 0.223,0.5 0.5,0.5 0.277,0 0.5,-0.223001 0.5,-0.5 V 16 h 2.5 C 19.776997,16 20,15.776998 20,15.5 20,15.223002 19.776997,15 19.5,15 H 17 V 9 C 17,8.446002 16.553997,8 16,8 H 7.9999999 V 5.5 c 0,-0.276999 -0.223,-0.5 -0.5,-0.5 z m 0.5,4 H 16 v 6 H 7.9999999 Z"
     style="fill:url(#linearGradient2);stroke-width:0.5164;stroke-linecap:round;stroke-linejoin:round"
     id="path297" />
</svg>
