<?xml version="1.0" encoding="UTF-8" standalone="no"?>
<!-- Created with Inkscape (http://www.inkscape.org/) -->

<svg
   width="24"
   height="24"
   viewBox="0 0 24 24.000002"
   version="1.1"
   id="svg1"
   inkscape:version="1.4.2 (ebf0e940d0, 2025-05-08)"
   sodipodi:docname="firewall-config.svg"
   xmlns:inkscape="http://www.inkscape.org/namespaces/inkscape"
   xmlns:sodipodi="http://sodipodi.sourceforge.net/DTD/sodipodi-0.dtd"
   xmlns:xlink="http://www.w3.org/1999/xlink"
   xmlns="http://www.w3.org/2000/svg"
   xmlns:svg="http://www.w3.org/2000/svg">
  <sodipodi:namedview
     id="namedview1"
     pagecolor="#ffffff"
     bordercolor="#000000"
     borderopacity="0.25"
     inkscape:showpageshadow="2"
     inkscape:pageopacity="0.0"
     inkscape:pagecheckerboard="0"
     inkscape:deskcolor="#d1d1d1"
     inkscape:document-units="px"
     inkscape:zoom="33.166667"
     inkscape:cx="11.984925"
     inkscape:cy="12"
     inkscape:window-width="1920"
     inkscape:window-height="1011"
     inkscape:window-x="0"
     inkscape:window-y="0"
     inkscape:window-maximized="1"
     inkscape:current-layer="svg1" />
  <defs
     id="defs1">
    <linearGradient
       inkscape:collect="always"
       xlink:href="#linearGradient2"
       id="linearGradient4"
       x1="16"
       y1="30"
       x2="16"
       y2="2"
       gradientUnits="userSpaceOnUse"
       gradientTransform="matrix(0.71428571,0,0,0.71428571,0.57142857,0.57142857)" />
    <linearGradient
       inkscape:collect="always"
       id="linearGradient2">
      <stop
         style="stop-color:#451b13;stop-opacity:1;"
         offset="0"
         id="stop1" />
      <stop
         style="stop-color:#6d382f;stop-opacity:1;"
         offset="1"
         id="stop2" />
    </linearGradient>
  </defs>
  <rect
     style="opacity:0.2;fill:#000000;stroke-width:1.75"
     id="rect1"
     width="20"
     height="20"
     x="2"
     y="2.5"
     ry="4" />
  <rect
     style="fill:url(#linearGradient4);stroke-width:0.714286"
     id="rect2"
     width="20"
     height="20"
     x="2"
     y="2"
     ry="4" />
  <path
     id="rect972"
     style="opacity:0.5;fill:#ffffff;stroke-linecap:square;stroke-linejoin:round"
     d="M 6,2 C 5.6538361,2 5.319927,2.0469938 5,2.1289062 V 4 H 2.5351562 C 2.1961324,4.5880082 2,5.2698147 2,6 v 4 h 3 v 4 H 2 v 4 c 0,0.730185 0.1961324,1.411992 0.5351562,2 H 5 v 1.871094 C 5.319927,21.953006 5.6538361,22 6,22 v -2 h 5 v 2 h 1 v -2 h 5 v 2 h 1 v -2 h 3.464844 c 0.1783,-0.309247 0.315379,-0.645085 0.40625,-1 H 21 v -4 h 1 v -1 h -4 v -4 h 4 V 9.0351562 C 21.994668,9.02345 21.986578,9.0116929 21.986328,9 H 21 V 5 h 0.871094 C 21.780223,4.6450848 21.643144,4.3092472 21.464844,4 H 18 V 2 H 17 V 4 H 12 V 2 H 11 V 4 H 6 Z M 3,5 H 8 V 9 H 3 Z m 6,0 h 5 V 9 H 9 Z m 6,0 h 5 v 4 h -5 z m -9,5 h 5 v 4 H 6 Z m 6,0 h 5 v 4 h -5 z m -9,5 h 5 v 4 H 3 Z m 6,0 h 5 v 4 H 9 Z m 6,0 h 5 v 4 h -5 z" />
</svg>
