<?xml version="1.0" encoding="UTF-8" standalone="no"?>
<!-- Created with Inkscape (http://www.inkscape.org/) -->

<svg
   width="24"
   height="24"
   viewBox="0 0 24 24.000002"
   version="1.1"
   id="svg1"
   inkscape:version="1.4.2 (ebf0e940d0, 2025-05-08)"
   sodipodi:docname="github-desktop.svg"
   xmlns:inkscape="http://www.inkscape.org/namespaces/inkscape"
   xmlns:sodipodi="http://sodipodi.sourceforge.net/DTD/sodipodi-0.dtd"
   xmlns:xlink="http://www.w3.org/1999/xlink"
   xmlns="http://www.w3.org/2000/svg"
   xmlns:svg="http://www.w3.org/2000/svg">
  <sodipodi:namedview
     id="namedview1"
     pagecolor="#ffffff"
     bordercolor="#000000"
     borderopacity="0.25"
     inkscape:showpageshadow="2"
     inkscape:pageopacity="0.0"
     inkscape:pagecheckerboard="0"
     inkscape:deskcolor="#d1d1d1"
     inkscape:document-units="px"
     inkscape:zoom="33.125"
     inkscape:cx="12"
     inkscape:cy="12"
     inkscape:window-width="1920"
     inkscape:window-height="1010"
     inkscape:window-x="0"
     inkscape:window-y="0"
     inkscape:window-maximized="1"
     inkscape:current-layer="svg1" />
  <defs
     id="defs1">
    <linearGradient
       inkscape:collect="always"
       xlink:href="#linearGradient5-9"
       id="linearGradient4"
       x1="16"
       y1="30"
       x2="16"
       y2="2"
       gradientUnits="userSpaceOnUse"
       gradientTransform="matrix(0.71428571,0,0,0.71428571,0.57142857,0.57142857)" />
    <linearGradient
       id="linearGradient1"
       inkscape:collect="always">
      <stop
         style="stop-color:#dcc0df;stop-opacity:1;"
         offset="0"
         id="stop1" />
      <stop
         style="stop-color:#f4e4f4;stop-opacity:1;"
         offset="1"
         id="stop2" />
    </linearGradient>
    <linearGradient
       inkscape:collect="always"
       xlink:href="#linearGradient1"
       id="linearGradient5"
       x1="11"
       y1="21"
       x2="11"
       y2="1"
       gradientUnits="userSpaceOnUse"
       gradientTransform="translate(1,1)" />
    <linearGradient
       inkscape:collect="always"
       id="linearGradient5-9">
      <stop
         style="stop-color:#330640;stop-opacity:1;"
         offset="0"
         id="stop4" />
      <stop
         style="stop-color:#5f2f64;stop-opacity:1;"
         offset="1"
         id="stop5" />
    </linearGradient>
  </defs>
  <rect
     style="opacity:0.2;fill:#000000;stroke-width:1.75"
     id="rect1"
     width="20"
     height="20"
     x="2"
     y="2.5"
     ry="4" />
  <rect
     style="fill:url(#linearGradient4);stroke-width:0.714286"
     id="rect2"
     width="20"
     height="20"
     x="2"
     y="2"
     ry="4" />
  <path
     id="path9743"
     style="fill:url(#linearGradient5)"
     d="M 16.572266,6.0195312 C 16.253981,6.0357863 15.432929,6.5095753 14.169922,7.3789062 13.430203,7.1581046 12.708914,7.0370687 12,7.0429688 11.371292,7.0480987 10.464664,7.1528276 9.6777344,7.3789062 8.3743607,6.4815323 7.7082341,6.0076144 7.4121094,6.0214844 7.3133645,6.0259944 7.265625,6.0410156 7.265625,6.0410156 6.7701255,7.3136383 7.0838649,8.666516 7.1777344,8.9003906 6.59561,9.5462671 6,10.871609 6,11.880859 c 0,3.543247 1.4793771,4.936547 3.5,5.169922 -0.2597746,0.231037 -0.4016851,1.139167 -0.484375,1.736328 -0.5184375,0.2367 -1.8972332,0.643368 -2.7089844,-0.769531 0,0 -0.4811321,-0.887885 -1.3945312,-0.953125 0,0 -0.8868327,-0.01071 -0.060547,0.5625 0,0 0.5977315,0.08407 1.0117187,1.152344 0,0 0.6054073,1.779302 3.1367188,1.220703 v 2 H 14 V 19 C 14,18.137739 14.02352,17.328468 13.697266,17.042969 15.723941,16.814206 18,15.433131 18,11.880859 18,10.871607 17.422992,9.5463911 16.839844,8.9003906 16.933134,8.666517 17.246645,7.3116361 16.75,6.0390625 c -1e-6,0 -0.04785,-0.014931 -0.146484,-0.019531 h -0.002 c -0.0092,-4.296e-4 -0.01903,-5.243e-4 -0.0293,0 z" />
</svg>
