<?xml version="1.0" encoding="UTF-8" standalone="no"?>
<!-- Created with Inkscape (http://www.inkscape.org/) -->

<svg
   width="24"
   height="24"
   viewBox="0 0 24 24.000002"
   version="1.1"
   id="svg1"
   inkscape:version="1.4.2 (ebf0e940d0, 2025-05-08)"
   sodipodi:docname="kwin.svg"
   xmlns:inkscape="http://www.inkscape.org/namespaces/inkscape"
   xmlns:sodipodi="http://sodipodi.sourceforge.net/DTD/sodipodi-0.dtd"
   xmlns:xlink="http://www.w3.org/1999/xlink"
   xmlns="http://www.w3.org/2000/svg"
   xmlns:svg="http://www.w3.org/2000/svg">
  <sodipodi:namedview
     id="namedview1"
     pagecolor="#ffffff"
     bordercolor="#000000"
     borderopacity="0.25"
     inkscape:showpageshadow="2"
     inkscape:pageopacity="0.0"
     inkscape:pagecheckerboard="0"
     inkscape:deskcolor="#d1d1d1"
     inkscape:document-units="px"
     inkscape:zoom="33.166667"
     inkscape:cx="11.984925"
     inkscape:cy="12"
     inkscape:window-width="1920"
     inkscape:window-height="1011"
     inkscape:window-x="0"
     inkscape:window-y="0"
     inkscape:window-maximized="1"
     inkscape:current-layer="svg1" />
  <defs
     id="defs1">
    <linearGradient
       inkscape:collect="always"
       xlink:href="#4852"
       id="linearGradient4"
       x1="16"
       y1="30"
       x2="16"
       y2="2"
       gradientUnits="userSpaceOnUse"
       gradientTransform="matrix(0.71428571,0,0,0.71428571,0.57142857,0.5714286)" />
    <linearGradient
       inkscape:collect="always"
       id="4852">
      <stop
         style="stop-color:#272727;stop-opacity:1;"
         offset="0"
         id="stop14555" />
      <stop
         style="stop-color:#5d5d5d;stop-opacity:1;"
         offset="1"
         id="stop14557" />
    </linearGradient>
  </defs>
  <rect
     style="opacity:0.2;fill:#000000;stroke-width:1.75"
     id="rect1"
     width="20"
     height="20"
     x="2"
     y="2.5"
     ry="4" />
  <rect
     style="fill:url(#linearGradient4);stroke-width:0.714286"
     id="rect2"
     width="20"
     height="20"
     x="2"
     y="2"
     ry="4" />
  <rect
     style="opacity:0.1;fill:#ffffff;fill-opacity:1;stroke-width:3;stroke-linecap:round;stroke-linejoin:round"
     id="rect2630-3"
     width="16"
     height="13"
     x="4"
     y="5"
     ry="2" />
  <rect
     style="fill:#ffffff;fill-opacity:1;stroke-width:3.26056;stroke-linecap:round;stroke-linejoin:round"
     id="rect652"
     width="14"
     height="11"
     x="5"
     y="5.999999"
     ry="1" />
  <path
     d="m 6,5.999999 h 12 c 0.554,0 1,0.445999 1,0.999999 V 8 H 5 V 6.999998 c 0,-0.554 0.446,-1 1,-0.999999 z"
     style="fill:#475057;fill-opacity:1;stroke-width:3;stroke-linecap:round;stroke-linejoin:round"
     id="path2537"
     sodipodi:nodetypes="cssccsc" />
  <path
     d="M 11.2187,9 C 11.0976,9 11,9.223 11,9.5000002 V 12.5 c 0,0.277 0.0976,0.500001 0.2187,0.500001 h 0.5625 C 11.9024,13.000001 12,12.777 12,12.5 v -0.75 l 0.0195,-0.0234 1.0335,1.0332 c 0.196,0.195801 0.422,0.2849 0.508,0.1992 l 0.397999,-0.3985 c 0.086,-0.0856 -0.003,-0.3119 -0.198999,-0.5078 L 12.707,11 13.76,9.9473002 c 0.196,-0.1959 0.285,-0.4222 0.199,-0.5078 L 13.561,9.041 C 13.475,8.9553 13.249,9.0444 13.053,9.2402 L 12.0195,10.2734 12,10.25 V 9.5000002 C 12,9.223 11.9024,9 11.7812,9 Z M 9.4453003,9.7930002 c -0.109001,-0.002 -0.273,0.0855 -0.4199003,0.2323998 -0.1959,0.1959 -0.2849,0.4221 -0.1992,0.5078 L 9.4160003,11.123 C 9.2393003,11.3893 9.1154003,11.687 9.0508,12 H 8.2187 C 8.0976,12 8,12.223 8,12.5 c 0,0.277001 0.0976,0.500001 0.2187,0.500001 h 0.835999 c 0.0634,0.3127 0.1860003,0.6104 0.3613003,0.877 l -0.5898003,0.5898 c -0.0857,0.0857 0.0033,0.3119 0.1992,0.5078 0.1959013,0.1954 0.4221003,0.2854 0.5078003,0.1994 l 0.5897997,-0.59 c 0.266301,0.1767 0.564,0.3006 0.877,0.3652 v 0.8318 c 0,0.121 0.223,0.219 0.5,0.219 0.277,0 0.5,-0.098 0.5,-0.219 v -0.8357 c 0.3127,-0.0634 0.6104,-0.186 0.877,-0.3613 l 0.59,0.59 c 0.085,0.086 0.312,-0.003 0.508,-0.1994 0.195,-0.1959 0.285,-0.4221 0.199,-0.5078 l -0.59,-0.5898 c 0.158,-0.2396 0.274,-0.5045 0.342,-0.7833 L 13.561,13.459 c -0.086,0.0857 -0.312,-0.0034 -0.508,-0.199199 L 12.877,13.084 c -0.234101,0.553601 -0.7759,0.914101 -1.377,0.916001 -0.8284,0 -1.5,-0.6716 -1.5,-1.500001 0.0013,-0.4252 0.1831,-0.8298 0.5,-1.1133 v -1.1719 c -0.1312,0.0562 -0.2573,0.1235 -0.377,0.2012 L 9.5332003,9.8262002 c -0.0214,-0.0215 -0.0516,-0.0326 -0.0879,-0.0332 z"
     style="fill:#4d4d4d"
     id="path7631" />
</svg>
