<?xml version="1.0" encoding="UTF-8" standalone="no"?>
<!-- Created with Inkscape (http://www.inkscape.org/) -->

<svg
   width="24"
   height="24"
   viewBox="0 0 24 24.000002"
   version="1.1"
   id="svg1"
   inkscape:version="1.4.2 (ebf0e940d0, 2025-05-08)"
   sodipodi:docname="libreoffice-math.svg"
   xmlns:inkscape="http://www.inkscape.org/namespaces/inkscape"
   xmlns:sodipodi="http://sodipodi.sourceforge.net/DTD/sodipodi-0.dtd"
   xmlns:xlink="http://www.w3.org/1999/xlink"
   xmlns="http://www.w3.org/2000/svg"
   xmlns:svg="http://www.w3.org/2000/svg">
  <sodipodi:namedview
     id="namedview1"
     pagecolor="#ffffff"
     bordercolor="#000000"
     borderopacity="0.25"
     inkscape:showpageshadow="2"
     inkscape:pageopacity="0.0"
     inkscape:pagecheckerboard="0"
     inkscape:deskcolor="#d1d1d1"
     inkscape:document-units="px"
     inkscape:zoom="33.166667"
     inkscape:cx="11.984925"
     inkscape:cy="12"
     inkscape:window-width="1920"
     inkscape:window-height="1011"
     inkscape:window-x="0"
     inkscape:window-y="0"
     inkscape:window-maximized="1"
     inkscape:current-layer="svg1" />
  <defs
     id="defs1">
    <linearGradient
       inkscape:collect="always"
       xlink:href="#4852"
       id="linearGradient4"
       x1="16"
       y1="30"
       x2="16"
       y2="2"
       gradientUnits="userSpaceOnUse"
       gradientTransform="matrix(0.71428571,0,0,0.71428571,0.57142857,0.5714286)" />
    <linearGradient
       inkscape:collect="always"
       id="4852">
      <stop
         style="stop-color:#272727;stop-opacity:1;"
         offset="0"
         id="stop14555" />
      <stop
         style="stop-color:#5d5d5d;stop-opacity:1;"
         offset="1"
         id="stop14557" />
    </linearGradient>
  </defs>
  <rect
     style="opacity:0.2;fill:#000000;stroke-width:1.75"
     id="rect1"
     width="20"
     height="20"
     x="2"
     y="2.5"
     ry="4" />
  <rect
     style="fill:url(#linearGradient4);stroke-width:0.714286"
     id="rect2"
     width="20"
     height="20"
     x="2"
     y="2"
     ry="4" />
  <path
     d="M 10.318175,7 8.3039552,12.469 7.484,11 H 6 v 1.000001 H 6.847 L 8.0629432,14 h 0.6699 L 11.029825,8 H 18 V 7 Z"
     id="path1369"
     style="fill:#ffffff;fill-opacity:1;stroke-width:0.985718"
     sodipodi:nodetypes="cccccccccccc" />
  <path
     id="rect441"
     style="fill:#ffffff"
     d="m 6,16 v 1 h 2 v -1 z m 5,0 v 1 h 2 v -1 z m 5,0 v 1 h 2 v -1 z" />
  <path
     id="rect507"
     style="fill:#ef95b4;fill-opacity:1"
     d="m 17.828657,9.1715729 c -0.391736,-0.3917365 -1.022477,-0.3917368 -1.414213,0 L 15.00023,10.585786 13.586016,9.1715729 c -0.391736,-0.3917368 -1.022477,-0.3917365 -1.414213,0 -0.391737,0.3917364 -0.391737,1.0224771 0,1.4142131 L 13.586016,12 12.171803,13.414214 c -0.391737,0.391736 -0.391737,1.022477 0,1.414213 0.391736,0.391737 1.022477,0.391737 1.414213,0 l 1.414214,-1.414213 1.414214,1.414213 c 0.391736,0.391737 1.022477,0.391737 1.414213,0 0.391737,-0.391736 0.391737,-1.022477 0,-1.414213 L 16.414444,12 17.828657,10.585786 c 0.391737,-0.391736 0.391737,-1.0224767 0,-1.4142131 z" />
</svg>
