<?xml version="1.0" encoding="UTF-8" standalone="no"?>
<!-- Created with Inkscape (http://www.inkscape.org/) -->

<svg
   width="24"
   height="24"
   viewBox="0 0 24 24.000002"
   version="1.1"
   id="svg1"
   inkscape:version="1.4.2 (ebf0e940d0, 2025-05-08)"
   sodipodi:docname="nvidia.svg"
   xmlns:inkscape="http://www.inkscape.org/namespaces/inkscape"
   xmlns:sodipodi="http://sodipodi.sourceforge.net/DTD/sodipodi-0.dtd"
   xmlns:xlink="http://www.w3.org/1999/xlink"
   xmlns="http://www.w3.org/2000/svg"
   xmlns:svg="http://www.w3.org/2000/svg">
  <sodipodi:namedview
     id="namedview1"
     pagecolor="#ffffff"
     bordercolor="#000000"
     borderopacity="0.25"
     inkscape:showpageshadow="2"
     inkscape:pageopacity="0.0"
     inkscape:pagecheckerboard="0"
     inkscape:deskcolor="#d1d1d1"
     inkscape:document-units="px"
     inkscape:zoom="32.75"
     inkscape:cx="11.984733"
     inkscape:cy="12"
     inkscape:window-width="1920"
     inkscape:window-height="1011"
     inkscape:window-x="0"
     inkscape:window-y="0"
     inkscape:window-maximized="1"
     inkscape:current-layer="svg1" />
  <defs
     id="defs1">
    <linearGradient
       inkscape:collect="always"
       xlink:href="#4852"
       id="linearGradient4"
       x1="16"
       y1="30"
       x2="16"
       y2="2"
       gradientUnits="userSpaceOnUse"
       gradientTransform="matrix(0.71428571,0,0,0.71428571,0.57142857,0.57142857)" />
    <linearGradient
       inkscape:collect="always"
       id="4852">
      <stop
         style="stop-color:#272727;stop-opacity:1;"
         offset="0"
         id="stop14555" />
      <stop
         style="stop-color:#5d5d5d;stop-opacity:1;"
         offset="1"
         id="stop14557" />
    </linearGradient>
    <linearGradient
       inkscape:collect="always"
       xlink:href="#linearGradient1270"
       id="linearGradient1272"
       x1="19.746344"
       y1="33.369995"
       x2="19.746344"
       y2="19.078093"
       gradientUnits="userSpaceOnUse"
       gradientTransform="matrix(1.3993937,0,0,1.3993937,-15.632906,-24.697762)" />
    <linearGradient
       inkscape:collect="always"
       id="linearGradient1270">
      <stop
         style="stop-color:#80d935;stop-opacity:1;"
         offset="0"
         id="stop1266" />
      <stop
         style="stop-color:#afd65f;stop-opacity:1;"
         offset="1"
         id="stop1268" />
    </linearGradient>
  </defs>
  <rect
     style="opacity:0.2;fill:#000000;stroke-width:1.75"
     id="rect1"
     width="20"
     height="20"
     x="2"
     y="2.5"
     ry="4" />
  <rect
     style="fill:url(#linearGradient4);stroke-width:0.714286"
     id="rect2"
     width="19"
     height="20"
     x="2"
     y="2"
     ry="4" />
  <path
     id="path353"
     style="fill:url(#linearGradient1272);fill-opacity:1;stroke-width:1.39939"
     d="m 11,2 v 6.3320312 c 3.329698,-0.03179 5.492188,2.8183598 5.492188,2.8183598 0,0 -2.552643,3.125 -5.210938,3.125 -0.24364,0 -0.06699,-0.02232 -0.28125,-0.06055 v 0.833984 c 0.0458,0.0058 0.0675,0.01104 0.07617,0.01563 l 0.002,0.002 0.002,0.002 v 0.002 0.002 0.002 h -0.002 v 0.002 l -0.002,0.002 h -0.002 v 0.002 l 0.002,0.002 h 0.002 c 0.0084,0.0021 0.03215,0.0039 0.08789,0.0039 2.473794,0 4.263997,-1.272801 5.996093,-2.779297 0.28722,0.231759 1.463279,0.79612 1.705079,1.042968 -1.647097,1.389398 -5.486114,2.509766 -7.66211,2.509766 -0.06555,0 -0.0937,-0.0014 -0.103516,-0.0039 v -0.002 h -0.002 l -0.002,-0.002 v -0.002 -0.002 -0.002 h -0.002 v -0.002 l -0.002,-0.002 C 11.08545,15.836997 11.06187,15.832192 11,15.826172 V 22 h 7 c 2.216,0 4,-1.784 4,-4 V 6 C 22,3.784 20.216,2 18,2 Z m 0,13.826172 V 15.048828 C 7.972506,14.66483 6.53125,11.302734 6.53125,11.302734 c 0,0 1.7609557,-2.0161092 4.46875,-2.224609 v 0.00195 0.9023438 c 0.03008,-0.00323 0.04749,-0.00695 0.05469,-0.00977 h 0.002 v -0.00195 h 0.002 V 9.96875 h -0.002 V 9.9668 l -0.002,-0.00195 C 11.04809,9.96175 11.03331,9.95906 11.02735,9.95704 h -0.002 V 9.95509 c 0.0039,-0.0014 0.02178,-0.00195 0.06445,-0.00195 1.570696,0 2.501953,1.230469 2.501953,1.230469 l -1.275391,1.085937 C 11.742557,11.305671 11.954548,10.879882 11,10.763672 v 2.738281 C 9.7101113,13.065355 8.8867187,11.548828 8.8867188,11.548828 c 0,0 1.1517272,-0.900937 2.1093752,-0.785156 H 11 V 9.9824219 C 9.1754098,10.181222 7.671875,11.408203 7.671875,11.408203 c 0,0 1.0399293,2.395641 3.328125,2.806641 v -0.710938 c 0.216351,0.0733 0.0522,0.115235 0.320312,0.115235 1.862898,0 3.59961,-2.429688 3.59961,-2.429688 0,0 -1.547175,-2.1167899 -3.919922,-2.1249999 v 0.011719 c -0.03728,-0.00293 -0.137721,-0.00567 -0.15625,-0.00781 v -0.00195 c 0.002,-3.185e-4 0.0073,2.751e-4 0.01563,0 0.04716,-0.0015 0.0941,-0.00205 0.140625,-0.00195 V 8.3476562 c -2.9996,0.2425 -6.0019531,2.8007818 -6.0019531,2.8007818 0,0 1.8764612,4.285334 6.0019531,4.677734 z m 0,-7.4941408 c -0.0469,4.48e-4 -0.09327,-0.0016 -0.140625,0 -0.0072,2.523e-4 -0.01138,0.00164 -0.01367,0.00195 0.01874,0.00256 0.117311,0.00638 0.154297,0.00977 z" />
</svg>
