<?xml version="1.0" encoding="UTF-8" standalone="no"?>
<!-- Created with Inkscape (http://www.inkscape.org/) -->

<svg
   width="24"
   height="24"
   viewBox="0 0 24 24.000002"
   version="1.1"
   id="svg1"
   inkscape:version="1.4.2 (ebf0e940d0, 2025-05-08)"
   sodipodi:docname="office-calendar.svg"
   xmlns:inkscape="http://www.inkscape.org/namespaces/inkscape"
   xmlns:sodipodi="http://sodipodi.sourceforge.net/DTD/sodipodi-0.dtd"
   xmlns:xlink="http://www.w3.org/1999/xlink"
   xmlns="http://www.w3.org/2000/svg"
   xmlns:svg="http://www.w3.org/2000/svg">
  <sodipodi:namedview
     id="namedview1"
     pagecolor="#ffffff"
     bordercolor="#000000"
     borderopacity="0.25"
     inkscape:showpageshadow="2"
     inkscape:pageopacity="0.0"
     inkscape:pagecheckerboard="0"
     inkscape:deskcolor="#d1d1d1"
     inkscape:document-units="px"
     inkscape:zoom="33.166667"
     inkscape:cx="11.984925"
     inkscape:cy="12"
     inkscape:window-width="1920"
     inkscape:window-height="1011"
     inkscape:window-x="0"
     inkscape:window-y="0"
     inkscape:window-maximized="1"
     inkscape:current-layer="svg1" />
  <defs
     id="defs1">
    <linearGradient
       inkscape:collect="always"
       xlink:href="#4852"
       id="linearGradient4"
       x1="16"
       y1="30"
       x2="16"
       y2="2"
       gradientUnits="userSpaceOnUse"
       gradientTransform="matrix(0.71428571,0,0,0.71428571,0.57142857,0.57142857)" />
    <linearGradient
       inkscape:collect="always"
       id="4852">
      <stop
         style="stop-color:#272727;stop-opacity:1;"
         offset="0"
         id="stop14555" />
      <stop
         style="stop-color:#5d5d5d;stop-opacity:1;"
         offset="1"
         id="stop14557" />
    </linearGradient>
    <linearGradient
       inkscape:collect="always"
       xlink:href="#linearGradient1170"
       id="linearGradient2"
       x1="11"
       y1="21"
       x2="11"
       y2="1"
       gradientUnits="userSpaceOnUse"
       gradientTransform="translate(1,1)" />
    <linearGradient
       inkscape:collect="always"
       id="linearGradient1170">
      <stop
         style="stop-color:#e72f2f;stop-opacity:1;"
         offset="0"
         id="stop1166" />
      <stop
         style="stop-color:#ff6969;stop-opacity:1;"
         offset="1"
         id="stop1168" />
    </linearGradient>
    <linearGradient
       inkscape:collect="always"
       xlink:href="#linearGradient1170"
       id="linearGradient1"
       gradientUnits="userSpaceOnUse"
       x1="11"
       y1="21"
       x2="11"
       y2="1"
       gradientTransform="translate(1,1)" />
  </defs>
  <rect
     style="opacity:0.2;fill:#000000;stroke-width:1.75"
     id="rect1"
     width="20"
     height="20"
     x="2"
     y="2.5"
     ry="4" />
  <path
     id="rect2"
     style="fill:url(#linearGradient4);stroke-width:0.714286"
     d="m 22,6 v 12 c 0,2.216 -1.784,4 -4,4 H 6 C 3.784,22 2,20.216 2,18 V 6 Z"
     sodipodi:nodetypes="csssscc" />
  <path
     id="rect3"
     style="fill:url(#linearGradient1)"
     d="M 2,6 C 2,3.784 3.784,2 6,2 h 12 c 2.216,0 4,1.784 4,4 V 7 H 2 Z" />
  <path
     id="path1"
     style="opacity:0.3;fill:#ffffff;stroke-linecap:round"
     d="m 12,9 a 1,0.99999988 0 0 0 -1,1 1,0.99999988 0 0 0 1,1 1,0.99999988 0 0 0 1,-1 1,0.99999988 0 0 0 -1,-1 z m 3,0 a 1,0.99999988 0 0 0 -1,1 1,0.99999988 0 0 0 1,1 1,0.99999988 0 0 0 1,-1 1,0.99999988 0 0 0 -1,-1 z m 3,0 a 1,0.99999988 0 0 0 -1,1 1,0.99999988 0 0 0 1,1 1,0.99999988 0 0 0 1,-1 1,0.99999988 0 0 0 -1,-1 z M 6,12 a 1,0.99999988 0 0 0 -1,1 1,0.99999988 0 0 0 1,1 1,0.99999988 0 0 0 1,-1 1,0.99999988 0 0 0 -1,-1 z m 3,0 a 1,0.99999988 0 0 0 -1,1 1,0.99999988 0 0 0 1,1 1,0.99999988 0 0 0 1,-1 1,0.99999988 0 0 0 -1,-1 z m 3,0 a 1,0.99999988 0 0 0 -1,1 1,0.99999988 0 0 0 1,1 1,0.99999988 0 0 0 1,-1 1,0.99999988 0 0 0 -1,-1 z m 6,0 a 1,0.99999988 0 0 0 -1,1 1,0.99999988 0 0 0 1,1 1,0.99999988 0 0 0 1,-1 1,0.99999988 0 0 0 -1,-1 z M 6,15 a 1,0.99999988 0 0 0 -1,1 1,0.99999988 0 0 0 1,1 1,0.99999988 0 0 0 1,-1 1,0.99999988 0 0 0 -1,-1 z m 3,0 a 1,0.99999988 0 0 0 -1,1 1,0.99999988 0 0 0 1,1 1,0.99999988 0 0 0 1,-1 1,0.99999988 0 0 0 -1,-1 z m 3,0 a 1,0.99999988 0 0 0 -1,1 1,0.99999988 0 0 0 1,1 1,0.99999988 0 0 0 1,-1 1,0.99999988 0 0 0 -1,-1 z m 3,0 a 1,0.99999988 0 0 0 -1,1 1,0.99999988 0 0 0 1,1 1,0.99999988 0 0 0 1,-1 1,0.99999988 0 0 0 -1,-1 z m 3,0 a 1,0.99999988 0 0 0 -1,1 1,0.99999988 0 0 0 1,1 1,0.99999988 0 0 0 1,-1 1,0.99999988 0 0 0 -1,-1 z M 6,18 a 1,0.99999988 0 0 0 -1,1 1,0.99999988 0 0 0 1,1 1,0.99999988 0 0 0 1,-1 1,0.99999988 0 0 0 -1,-1 z m 3,0 a 1,0.99999988 0 0 0 -1,1 1,0.99999988 0 0 0 1,1 1,0.99999988 0 0 0 1,-1 1,0.99999988 0 0 0 -1,-1 z m 3,0 a 1,0.99999988 0 0 0 -1,1 1,0.99999988 0 0 0 1,1 1,0.99999988 0 0 0 1,-1 1,0.99999988 0 0 0 -1,-1 z" />
  <circle
     style="fill:url(#linearGradient2);stroke-linecap:round"
     id="path2"
     cx="15.00003"
     cy="12.99999"
     r="1" />
</svg>
