<?xml version="1.0" encoding="UTF-8" standalone="no"?>
<!-- Created with Inkscape (http://www.inkscape.org/) -->

<svg
   width="24"
   height="24"
   viewBox="0 0 24 24.000002"
   version="1.1"
   id="svg1"
   inkscape:version="1.4.2 (ebf0e940d0, 2025-05-08)"
   sodipodi:docname="org.gnome.Extensions.svg"
   xmlns:inkscape="http://www.inkscape.org/namespaces/inkscape"
   xmlns:sodipodi="http://sodipodi.sourceforge.net/DTD/sodipodi-0.dtd"
   xmlns:xlink="http://www.w3.org/1999/xlink"
   xmlns="http://www.w3.org/2000/svg"
   xmlns:svg="http://www.w3.org/2000/svg">
  <sodipodi:namedview
     id="namedview1"
     pagecolor="#ffffff"
     bordercolor="#000000"
     borderopacity="0.25"
     inkscape:showpageshadow="2"
     inkscape:pageopacity="0.0"
     inkscape:pagecheckerboard="0"
     inkscape:deskcolor="#d1d1d1"
     inkscape:document-units="px"
     inkscape:zoom="32.75"
     inkscape:cx="11.984733"
     inkscape:cy="12"
     inkscape:window-width="1920"
     inkscape:window-height="1011"
     inkscape:window-x="0"
     inkscape:window-y="0"
     inkscape:window-maximized="1"
     inkscape:current-layer="svg1" />
  <defs
     id="defs1">
    <linearGradient
       inkscape:collect="always"
       xlink:href="#4852"
       id="linearGradient4"
       x1="16"
       y1="30"
       x2="16"
       y2="2"
       gradientUnits="userSpaceOnUse"
       gradientTransform="matrix(0.71428571,0,0,0.71428571,0.57142857,0.57142857)" />
    <linearGradient
       inkscape:collect="always"
       id="4852">
      <stop
         style="stop-color:#272727;stop-opacity:1;"
         offset="0"
         id="stop14555" />
      <stop
         style="stop-color:#5d5d5d;stop-opacity:1;"
         offset="1"
         id="stop14557" />
    </linearGradient>
    <linearGradient
       inkscape:collect="always"
       xlink:href="#linearGradient1717"
       id="linearGradient2"
       x1="11"
       y1="21"
       x2="11"
       y2="1"
       gradientUnits="userSpaceOnUse"
       gradientTransform="translate(1,1)" />
    <linearGradient
       inkscape:collect="always"
       id="linearGradient1717">
      <stop
         style="stop-color:#4ca90b;stop-opacity:1;"
         offset="0"
         id="stop1713" />
      <stop
         style="stop-color:#9ad77b;stop-opacity:1;"
         offset="1"
         id="stop1715" />
    </linearGradient>
  </defs>
  <rect
     style="opacity:0.2;fill:#000000;stroke-width:1.75"
     id="rect1"
     width="20"
     height="20"
     x="2"
     y="2.5"
     ry="4" />
  <rect
     style="fill:url(#linearGradient4);stroke-width:0.714286"
     id="rect2"
     width="20"
     height="20"
     x="2"
     y="2"
     ry="4" />
  <path
     d="M 11,4 C 9.892001,4 9,4.8920011 9,6.0000002 v 1 H 6.845703 C 5.822904,7.0000002 5,7.8229342 5,8.8457032 V 11 h 1 c 1.107998,0 2,0.892002 2,2 0,1.107998 -0.892002,2 -2,2 H 5 v 2.154297 C 5,18.177096 5.822934,19 6.845703,19 H 9 v -1 c 0,-1.107998 0.892002,-2 2,-2 1.107998,0 2,0.892002 2,2 v 1 h 2.154297 C 16.177096,19 17,18.177066 17,17.154297 V 15 h 1 c 1.107998,0 2,-0.892001 2,-2 0,-1.107999 -0.892002,-2 -2,-2 H 17 V 8.8457032 c 0,-1.022799 -0.822933,-1.845703 -1.845703,-1.845703 H 13 v -1 C 13,4.8920011 12.107999,4 11,4 Z"
     style="fill:url(#linearGradient2)"
     id="path3401"
     sodipodi:nodetypes="sscsscssscsscssscsscssscsscss" />
</svg>
