<?xml version="1.0" encoding="UTF-8" standalone="no"?>
<!-- Created with Inkscape (http://www.inkscape.org/) -->

<svg
   width="24"
   height="24"
   viewBox="0 0 24 24.000002"
   version="1.1"
   id="svg1"
   inkscape:version="1.4 (e7c3feb100, 2024-10-09)"
   sodipodi:docname="org.gnome.Dictionary.svg"
   xmlns:inkscape="http://www.inkscape.org/namespaces/inkscape"
   xmlns:sodipodi="http://sodipodi.sourceforge.net/DTD/sodipodi-0.dtd"
   xmlns:xlink="http://www.w3.org/1999/xlink"
   xmlns="http://www.w3.org/2000/svg"
   xmlns:svg="http://www.w3.org/2000/svg">
  <sodipodi:namedview
     id="namedview1"
     pagecolor="#ffffff"
     bordercolor="#000000"
     borderopacity="0.25"
     inkscape:showpageshadow="2"
     inkscape:pageopacity="0.0"
     inkscape:pagecheckerboard="0"
     inkscape:deskcolor="#d1d1d1"
     inkscape:document-units="px"
     inkscape:zoom="33.666667"
     inkscape:cx="11.985149"
     inkscape:cy="12"
     inkscape:window-width="1920"
     inkscape:window-height="1011"
     inkscape:window-x="0"
     inkscape:window-y="0"
     inkscape:window-maximized="1"
     inkscape:current-layer="svg1" />
  <defs
     id="defs1">
    <linearGradient
       inkscape:collect="always"
       xlink:href="#4852"
       id="linearGradient4"
       x1="16"
       y1="30"
       x2="16"
       y2="2"
       gradientUnits="userSpaceOnUse"
       gradientTransform="matrix(0.71428571,0,0,0.71428571,0.57142857,0.57142857)" />
    <linearGradient
       inkscape:collect="always"
       id="linearGradient919">
      <stop
         style="stop-color:#35b360;stop-opacity:1;"
         offset="0"
         id="stop915" />
      <stop
         style="stop-color:#82d3a7;stop-opacity:1;"
         offset="1"
         id="stop917" />
    </linearGradient>
    <linearGradient
       inkscape:collect="always"
       xlink:href="#linearGradient919"
       id="linearGradient2"
       x1="11"
       y1="21"
       x2="11"
       y2="1"
       gradientUnits="userSpaceOnUse"
       gradientTransform="translate(1,1)" />
    <linearGradient
       inkscape:collect="always"
       xlink:href="#linearGradient919"
       id="linearGradient5"
       x1="11"
       y1="21"
       x2="11"
       y2="1"
       gradientUnits="userSpaceOnUse"
       gradientTransform="translate(1,1)" />
    <linearGradient
       inkscape:collect="always"
       id="4852">
      <stop
         style="stop-color:#272727;stop-opacity:1;"
         offset="0"
         id="stop14555" />
      <stop
         style="stop-color:#5d5d5d;stop-opacity:1;"
         offset="1"
         id="stop14557" />
    </linearGradient>
  </defs>
  <rect
     style="opacity:0.2;fill:#000000;stroke-width:1.75"
     id="rect1"
     width="20"
     height="20"
     x="2"
     y="2.5"
     ry="4" />
  <rect
     style="fill:url(#linearGradient4);stroke-width:0.714286"
     id="rect2"
     width="20"
     height="20"
     x="2"
     y="2"
     ry="4" />
  <path
     d="M 10.952148,8 8.7373045,14.585937 8,14.725586 V 15 h 2 V 14.725586 L 9.265625,14.585937 9.919922,12.5 h 2.55957 L 13.124023,14.585937 12.25,14.725586 V 15 H 15 V 14.725586 L 14.175781,14.585937 11.873047,8 Z M 11.179687,8.7451169 12.329101,12 h -2.263672 z m 6.263672,1.254883 c -0.405438,0 -0.909366,0.05978 -1.443359,0.1787111 V 11.25 h 0.310547 l 0.167968,-0.623047 c 0.273589,-0.159698 0.476039,-0.239257 0.805664,-0.239257 0.243923,0 0.422717,0.07807 0.538086,0.234375 0.118665,0.156299 0.178711,0.39892 0.178711,0.728515 v 0.639648 l -0.697265,0.01953 c -0.50103,0.01019 -0.783175,0.08221 -1.046875,0.194336 -0.2637,0.10874 -0.45714,0.267851 -0.579102,0.478516 C 15.559069,12.889892 15.5,13.153256 15.5,13.472656 15.5,14.424066 15.89701,15 16.691406,15 c 0.583436,0 0.963095,-0.1937 1.338867,-0.581055 L 18.124023,15 H 19.5 V 14.768554 L 19,14.640625 V 11.304687 C 18.9972,10.862971 18.90078,10.535355 18.660156,10.321289 18.422826,10.107222 17.950983,9.9999999 17.443359,9.9999999 Z m 0.557617,2.5068361 v 1.652343 c -0.164812,0.08155 -0.330304,0.149737 -0.495117,0.204102 -0.161516,0.05095 -0.25437,0.07617 -0.478515,0.07617 -0.471364,0 -0.707032,-0.248655 -0.707032,-0.84668 0,-0.37377 0.0775,-0.641081 0.232422,-0.800781 0.15822,-0.15969 0.358107,-0.247648 0.799805,-0.264648 z"
     style="fill:url(#linearGradient2)"
     id="path2316" />
  <path
     id="rect3"
     style="opacity:0.5;fill:url(#linearGradient5)"
     d="M 6,2 C 3.784,2 2,3.784 2,6 v 12 c 0,2.216 1.784,4 4,4 H 7 V 2 Z" />
</svg>
