<?xml version="1.0" encoding="UTF-8" standalone="no"?>
<!-- Created with Inkscape (http://www.inkscape.org/) -->

<svg
   width="24"
   height="24"
   viewBox="0 0 24 24.000002"
   version="1.1"
   id="svg1"
   inkscape:version="1.4.2 (ebf0e940d0, 2025-05-08)"
   sodipodi:docname="preferences-system-search.svg"
   xmlns:inkscape="http://www.inkscape.org/namespaces/inkscape"
   xmlns:sodipodi="http://sodipodi.sourceforge.net/DTD/sodipodi-0.dtd"
   xmlns:xlink="http://www.w3.org/1999/xlink"
   xmlns="http://www.w3.org/2000/svg"
   xmlns:svg="http://www.w3.org/2000/svg">
  <sodipodi:namedview
     id="namedview1"
     pagecolor="#ffffff"
     bordercolor="#000000"
     borderopacity="0.25"
     inkscape:showpageshadow="2"
     inkscape:pageopacity="0.0"
     inkscape:pagecheckerboard="0"
     inkscape:deskcolor="#d1d1d1"
     inkscape:document-units="px"
     inkscape:zoom="33.125"
     inkscape:cx="12"
     inkscape:cy="12"
     inkscape:window-width="1920"
     inkscape:window-height="1010"
     inkscape:window-x="0"
     inkscape:window-y="0"
     inkscape:window-maximized="1"
     inkscape:current-layer="svg1" />
  <defs
     id="defs1">
    <linearGradient
       inkscape:collect="always"
       xlink:href="#4852"
       id="linearGradient4"
       x1="16"
       y1="30"
       x2="16"
       y2="2"
       gradientUnits="userSpaceOnUse"
       gradientTransform="matrix(0.71428571,0,0,0.71428571,0.5714286,0.5714286)" />
    <linearGradient
       inkscape:collect="always"
       id="4852">
      <stop
         style="stop-color:#272727;stop-opacity:1;"
         offset="0"
         id="stop14555" />
      <stop
         style="stop-color:#5d5d5d;stop-opacity:1;"
         offset="1"
         id="stop14557" />
    </linearGradient>
  </defs>
  <rect
     style="opacity:0.2;fill:#000000;stroke-width:1.75"
     id="rect1"
     width="20"
     height="20"
     x="2"
     y="2.5"
     ry="4" />
  <rect
     style="fill:url(#linearGradient4);stroke-width:0.714286"
     id="rect2"
     width="20"
     height="20"
     x="2"
     y="2"
     ry="4" />
  <path
     id="path1562"
     style="fill:#ffffff;fill-opacity:1;stroke-width:3.3;stroke-linecap:round;stroke-linejoin:round"
     d="M 10.499581,5 C 9.0920094,5 7.6848491,5.5373885 6.6109094,6.6113281 c -2.1478792,2.1478793 -2.1478793,5.6294639 0,7.7773439 2.0288612,2.028861 5.2473806,2.141905 7.4082026,0.33789 l 4.404297,4.404297 0.707031,-0.707031 -4.404297,-4.404297 C 16.530158,11.858709 16.417114,8.6401893 14.388253,6.6113281 13.314313,5.5373884 11.907153,5 10.499581,5 Z m 0,1 c 1.15165,1e-7 2.302963,0.4396815 3.181641,1.3183594 1.757356,1.7573559 1.757357,4.6059246 0,6.3632816 -1.757357,1.757357 -4.6059255,1.757356 -6.3632813,0 -1.7573558,-1.757356 -1.7573559,-4.6059257 0,-6.3632816 C 8.1966189,6.4396811 9.3479316,5.9999999 10.499581,6 Z" />
</svg>
