<?xml version="1.0" encoding="UTF-8" standalone="no"?>
<!-- Created with Inkscape (http://www.inkscape.org/) -->

<svg
   width="24"
   height="24"
   viewBox="0 0 24 24.000002"
   version="1.1"
   id="svg1"
   inkscape:version="1.4.2 (ebf0e940d0, 2025-05-08)"
   sodipodi:docname="preferences-desktop-gaming.svg"
   xmlns:inkscape="http://www.inkscape.org/namespaces/inkscape"
   xmlns:sodipodi="http://sodipodi.sourceforge.net/DTD/sodipodi-0.dtd"
   xmlns:xlink="http://www.w3.org/1999/xlink"
   xmlns="http://www.w3.org/2000/svg"
   xmlns:svg="http://www.w3.org/2000/svg">
  <sodipodi:namedview
     id="namedview1"
     pagecolor="#ffffff"
     bordercolor="#000000"
     borderopacity="0.25"
     inkscape:showpageshadow="2"
     inkscape:pageopacity="0.0"
     inkscape:pagecheckerboard="0"
     inkscape:deskcolor="#d1d1d1"
     inkscape:document-units="px"
     inkscape:zoom="33.666667"
     inkscape:cx="11.985149"
     inkscape:cy="12"
     inkscape:window-width="1920"
     inkscape:window-height="1011"
     inkscape:window-x="0"
     inkscape:window-y="0"
     inkscape:window-maximized="1"
     inkscape:current-layer="svg1" />
  <defs
     id="defs1">
    <linearGradient
       inkscape:collect="always"
       xlink:href="#4852"
       id="linearGradient4"
       x1="16"
       y1="30"
       x2="16"
       y2="2"
       gradientUnits="userSpaceOnUse"
       gradientTransform="matrix(0.71428571,0,0,0.71428571,0.57142857,0.57142857)" />
    <linearGradient
       inkscape:collect="always"
       id="4852">
      <stop
         style="stop-color:#272727;stop-opacity:1;"
         offset="0"
         id="stop14555" />
      <stop
         style="stop-color:#5d5d5d;stop-opacity:1;"
         offset="1"
         id="stop14557" />
    </linearGradient>
    <linearGradient
       inkscape:collect="always"
       id="linearGradient1144">
      <stop
         style="stop-color:#adb2b9;stop-opacity:1;"
         offset="0"
         id="stop1140" />
      <stop
         style="stop-color:#e0e2e4;stop-opacity:1;"
         offset="1"
         id="stop1142" />
    </linearGradient>
    <linearGradient
       inkscape:collect="always"
       xlink:href="#linearGradient1144"
       id="linearGradient2"
       x1="11"
       y1="21"
       x2="11"
       y2="1"
       gradientUnits="userSpaceOnUse"
       gradientTransform="translate(1,1)" />
  </defs>
  <rect
     style="opacity:0.2;fill:#000000;stroke-width:1.75"
     id="rect1"
     width="20"
     height="20"
     x="2"
     y="2.5"
     ry="4" />
  <rect
     style="fill:url(#linearGradient4);stroke-width:0.714286"
     id="rect2"
     width="20"
     height="20"
     x="2"
     y="2"
     ry="4" />
  <path
     id="path12982"
     style="fill:url(#linearGradient2)"
     d="M 8.71875,8 C 7.9002767,8 7.0439386,8.4357044 6.5644531,9.6074219 5.5518994,12.080031 5,13.992442 5,15.152345 c 0,0.892099 0.3278239,1.458247 1.0214844,1.789061 0.081299,0.03888 0.1709732,0.05873 0.2617187,0.05859 0.1444543,2.78e-4 0.2826613,-0.05003 0.390625,-0.142578 l 1.8144531,-1.345704 c 0.3249394,-0.277886 0.609029,-0.564453 1.4023438,-0.564453 h 4.21875 c 0.793316,0 1.076751,0.28641 1.402344,0.564453 l 1.814453,1.345704 c 0.180042,0.153855 0.438662,0.186823 0.654297,0.08398 C 18.673966,16.610741 19,16.045072 19,15.152344 19,13.992598 18.449564,12.079559 17.4375,9.6074209 16.958015,8.4357044 16.09956,8 15.28125,8 c -0.382771,0 -0.757425,0.095021 -1.080078,0.2558594 -1.384869,0.6879396 -2.98644,0.7025898 -4.4003908,0 C 9.4769866,8.0950223 9.1013575,8 8.71875,8 Z M 8,10 h 1 v 1 h 1 v 1.000001 H 9 v 1 H 8 v -1 H 7 V 11 h 1 z m 7,0 h 1 v 1 h 1 v 1.000001 h -1 v 1 h -1 v -1 H 14 V 11 h 1 z m 0,1 v 1.000001 h 1 V 11 Z" />
</svg>
