<?xml version="1.0" encoding="UTF-8" standalone="no"?>
<!-- Created with Inkscape (http://www.inkscape.org/) -->

<svg
   width="24"
   height="24"
   viewBox="0 0 24 24.000002"
   version="1.1"
   id="svg1"
   inkscape:version="1.4.2 (ebf0e940d0, 2025-05-08)"
   sodipodi:docname="preferences-desktop-accessibility.svg"
   xmlns:inkscape="http://www.inkscape.org/namespaces/inkscape"
   xmlns:sodipodi="http://sodipodi.sourceforge.net/DTD/sodipodi-0.dtd"
   xmlns:xlink="http://www.w3.org/1999/xlink"
   xmlns="http://www.w3.org/2000/svg"
   xmlns:svg="http://www.w3.org/2000/svg">
  <sodipodi:namedview
     id="namedview1"
     pagecolor="#ffffff"
     bordercolor="#000000"
     borderopacity="0.25"
     inkscape:showpageshadow="2"
     inkscape:pageopacity="0.0"
     inkscape:pagecheckerboard="0"
     inkscape:deskcolor="#d1d1d1"
     inkscape:document-units="px"
     inkscape:zoom="32.75"
     inkscape:cx="11.984733"
     inkscape:cy="12"
     inkscape:window-width="1920"
     inkscape:window-height="1011"
     inkscape:window-x="0"
     inkscape:window-y="0"
     inkscape:window-maximized="1"
     inkscape:current-layer="svg1" />
  <defs
     id="defs1">
    <linearGradient
       inkscape:collect="always"
       id="linearGradient937">
      <stop
         style="stop-color:#0861bd;stop-opacity:1;"
         offset="0"
         id="stop933" />
      <stop
         style="stop-color:#2da9ff;stop-opacity:1;"
         offset="1"
         id="stop935" />
    </linearGradient>
    <linearGradient
       inkscape:collect="always"
       xlink:href="#linearGradient937"
       id="linearGradient2"
       x1="11"
       y1="21"
       x2="11"
       y2="1"
       gradientUnits="userSpaceOnUse"
       gradientTransform="translate(1,1)" />
    <linearGradient
       inkscape:collect="always"
       xlink:href="#4852"
       id="linearGradient4"
       x1="16"
       y1="30"
       x2="16"
       y2="2"
       gradientUnits="userSpaceOnUse"
       gradientTransform="matrix(0.71428571,0,0,0.71428571,0.57142857,0.57142857)" />
    <linearGradient
       inkscape:collect="always"
       id="4852">
      <stop
         style="stop-color:#272727;stop-opacity:1;"
         offset="0"
         id="stop14555" />
      <stop
         style="stop-color:#5d5d5d;stop-opacity:1;"
         offset="1"
         id="stop14557" />
    </linearGradient>
  </defs>
  <rect
     style="opacity:0.2;fill:#000000;stroke-width:1.75"
     id="rect1"
     width="20"
     height="20"
     x="2"
     y="2.5"
     ry="4" />
  <rect
     style="fill:url(#linearGradient4);stroke-width:0.714286"
     id="rect2"
     width="20"
     height="20"
     x="2"
     y="2"
     ry="4" />
  <path
     id="path2789"
     style="fill:url(#linearGradient2);stroke-width:2"
     d="M 11.5,5 C 10.671554,5 10,5.6715529 10,6.5 10,7.3284474 10.671554,8 11.5,8 12.328446,8 13,7.3284474 13,6.5 13,5.6715529 12.328446,5 11.5,5 Z m -5,4 C 6.2238579,9 6,9.2238579 6,9.5 6,9.7761426 6.2238579,9.9999996 6.5,9.9999996 H 10 V 18.5 A 0.5,0.5 0 0 0 10.5,19 0.5,0.5 0 0 0 11,18.5 0.5,0.5 0 0 0 11,18.47461 V 13 h 1 v 5.5 A 0.5,0.5 0 0 0 12.5,19 0.5,0.5 0 0 0 13,18.5 0.5,0.5 0 0 0 13,18.47461 V 9.9999996 h 3.5 C 16.776142,9.9999996 17,9.7761426 17,9.5 17,9.2238579 16.776142,9 16.5,9 H 6.5253906 C 6.5169306,8.9997851 6.5084626,8.9997851 6.5,9 Z" />
</svg>
