<?xml version="1.0" encoding="UTF-8" standalone="no"?>
<!-- Created with Inkscape (http://www.inkscape.org/) -->

<svg
   width="24"
   height="24"
   viewBox="0 0 24 24.000002"
   version="1.1"
   id="svg1"
   inkscape:version="1.4.2 (ebf0e940d0, 2025-05-08)"
   sodipodi:docname="preferences-desktop-keyboard-shortcuts.svg"
   xmlns:inkscape="http://www.inkscape.org/namespaces/inkscape"
   xmlns:sodipodi="http://sodipodi.sourceforge.net/DTD/sodipodi-0.dtd"
   xmlns:xlink="http://www.w3.org/1999/xlink"
   xmlns="http://www.w3.org/2000/svg"
   xmlns:svg="http://www.w3.org/2000/svg">
  <sodipodi:namedview
     id="namedview1"
     pagecolor="#ffffff"
     bordercolor="#000000"
     borderopacity="0.25"
     inkscape:showpageshadow="2"
     inkscape:pageopacity="0.0"
     inkscape:pagecheckerboard="0"
     inkscape:deskcolor="#d1d1d1"
     inkscape:document-units="px"
     inkscape:zoom="33.125"
     inkscape:cx="12"
     inkscape:cy="12"
     inkscape:window-width="1920"
     inkscape:window-height="1010"
     inkscape:window-x="0"
     inkscape:window-y="0"
     inkscape:window-maximized="1"
     inkscape:current-layer="svg1" />
  <defs
     id="defs1">
    <linearGradient
       inkscape:collect="always"
       xlink:href="#4852"
       id="linearGradient4"
       x1="16"
       y1="30"
       x2="16"
       y2="2"
       gradientUnits="userSpaceOnUse"
       gradientTransform="matrix(0.71428571,0,0,0.71428571,0.57142857,0.57142857)" />
    <linearGradient
       inkscape:collect="always"
       id="4852">
      <stop
         style="stop-color:#272727;stop-opacity:1;"
         offset="0"
         id="stop14555" />
      <stop
         style="stop-color:#5d5d5d;stop-opacity:1;"
         offset="1"
         id="stop14557" />
    </linearGradient>
  </defs>
  <rect
     style="opacity:0.2;fill:#000000;stroke-width:1.75"
     id="rect1"
     width="20"
     height="20"
     x="2"
     y="2.5"
     ry="4" />
  <rect
     style="fill:url(#linearGradient4);stroke-width:0.714286"
     id="rect2"
     width="20"
     height="20"
     x="2"
     y="2"
     ry="4" />
  <path
     d="M 5,7 C 4.446001,7 4,7.446 4,8 V 9.9999998 C 4,10.553999 4.446001,11 5,11 H 7 C 7.553999,11 8,10.553999 8,9.9999998 V 8 C 8,7.446 7.553999,7 7,7 Z M 17,7 C 16.446,7 16,7.446 16,8 V 9.9999998 C 16,10.553999 16.446,11 17,11 h 2 c 0.553999,0 1,-0.446001 1,-1.0000002 V 8 C 20,7.446 19.553999,7 19,7 Z M 6,13 c -0.554,0 -1,0.446 -1,1 v 2 c 0,0.553999 0.446,1.000001 1,1.000001 h 12 c 0.553999,0 1,-0.446002 1,-1.000001 v -2 c 0,-0.554 -0.446001,-1 -1,-1 z"
     style="fill:#a1a1a1;fill-opacity:1;stroke-width:0.999999;stroke-linecap:round;stroke-linejoin:round"
     id="path1728"
     sodipodi:nodetypes="sssssssssssssssssssssssssss" />
  <rect
     style="fill:#d98d49;fill-opacity:1;stroke-width:2;stroke-linecap:round;stroke-linejoin:round"
     id="rect17619"
     width="4"
     height="4"
     x="10"
     y="7"
     ry="1" />
</svg>
