<?xml version="1.0" encoding="UTF-8" standalone="no"?>
<!-- Created with Inkscape (http://www.inkscape.org/) -->

<svg
   width="24"
   height="24"
   viewBox="0 0 24 24.000002"
   version="1.1"
   id="svg1"
   inkscape:version="1.4.2 (ebf0e940d0, 2025-05-08)"
   sodipodi:docname="preferences-system.svg"
   xmlns:inkscape="http://www.inkscape.org/namespaces/inkscape"
   xmlns:sodipodi="http://sodipodi.sourceforge.net/DTD/sodipodi-0.dtd"
   xmlns:xlink="http://www.w3.org/1999/xlink"
   xmlns="http://www.w3.org/2000/svg"
   xmlns:svg="http://www.w3.org/2000/svg">
  <sodipodi:namedview
     id="namedview1"
     pagecolor="#ffffff"
     bordercolor="#000000"
     borderopacity="0.25"
     inkscape:showpageshadow="2"
     inkscape:pageopacity="0.0"
     inkscape:pagecheckerboard="0"
     inkscape:deskcolor="#d1d1d1"
     inkscape:document-units="px"
     inkscape:zoom="32.75"
     inkscape:cx="11.984733"
     inkscape:cy="12"
     inkscape:window-width="1920"
     inkscape:window-height="1011"
     inkscape:window-x="0"
     inkscape:window-y="0"
     inkscape:window-maximized="1"
     inkscape:current-layer="svg1" />
  <defs
     id="defs1">
    <linearGradient
       inkscape:collect="always"
       xlink:href="#linearGradient2116"
       id="linearGradient2"
       x1="11"
       y1="21"
       x2="11"
       y2="1"
       gradientUnits="userSpaceOnUse"
       gradientTransform="translate(1,1)" />
    <linearGradient
       inkscape:collect="always"
       xlink:href="#4852"
       id="linearGradient4"
       x1="16"
       y1="30"
       x2="16"
       y2="2"
       gradientUnits="userSpaceOnUse"
       gradientTransform="matrix(0.71428571,0,0,0.71428571,0.57142857,0.57142857)" />
    <linearGradient
       inkscape:collect="always"
       id="4852">
      <stop
         style="stop-color:#272727;stop-opacity:1;"
         offset="0"
         id="stop14555" />
      <stop
         style="stop-color:#5d5d5d;stop-opacity:1;"
         offset="1"
         id="stop14557" />
    </linearGradient>
    <linearGradient
       inkscape:collect="always"
       id="linearGradient2116">
      <stop
         style="stop-color:#657481;stop-opacity:1;"
         offset="0"
         id="stop2112" />
      <stop
         style="stop-color:#9ba6b0;stop-opacity:1;"
         offset="1"
         id="stop2114" />
    </linearGradient>
  </defs>
  <rect
     style="opacity:0.2;fill:#000000;stroke-width:1.75"
     id="rect1"
     width="20"
     height="20"
     x="2"
     y="2.5"
     ry="4" />
  <rect
     style="fill:url(#linearGradient4);stroke-width:0.714286"
     id="rect2"
     width="20"
     height="20"
     x="2"
     y="2"
     ry="4" />
  <path
     id="rect465"
     style="opacity:1;fill:url(#linearGradient2);stroke-linecap:round;stroke-linejoin:round"
     d="M 10.246094,5.1503906 8.3984375,5.9160156 8.9433594,8.0429688 A 5,5 0 0 0 8.0429688,8.9433594 l -2.1269532,-0.546875 -0.765625,1.8476566 1.890625,1.11914 v 0.002 A 5,5 0 0 0 7,12 5,5 0 0 0 7.041016,12.634766 l -1.890625,1.11914 0.765625,1.847656 2.1269532,-0.544921 a 5,5 0 0 0 0.9003906,0.90039 l -0.546875,2.126953 1.8476562,0.765625 1.11914,-1.890625 h 0.002 A 5,5 0 0 0 12,17 5,5 0 0 0 12.634766,16.95898 l 1.11914,1.890625 1.847656,-0.765625 -0.544921,-2.126953 a 5,5 0 0 0 0.90039,-0.90039 l 2.126953,0.546875 0.765625,-1.847657 -1.890625,-1.11914 A 5,5 0 0 0 17,12 5,5 0 0 0 16.958984,11.365234 l 1.890625,-1.11914 -0.765625,-1.8476565 -2.128906,0.5429687 A 5,5 0 0 0 15.056641,8.0429688 l 0.546875,-2.1269532 -1.847657,-0.765625 -1.11914,1.890625 a 5,5 0 0 0 -0.002,0 A 5,5 0 0 0 12,7 5,5 0 0 0 11.365234,7.0410156 Z M 12,10 a 2,2 0 0 1 2,2 2,2 0 0 1 -2,2 2,2 0 0 1 -2,-2 2,2 0 0 1 2,-2 z" />
  <path
     id="path632"
     style="opacity:0.3;fill:#ffffff;stroke-linecap:round;stroke-linejoin:round"
     d="m 12,7 a 5,5 0 0 0 -5,5 5,5 0 0 0 5,5 5,5 0 0 0 5,-5 5,5 0 0 0 -5,-5 z m 0,3 a 2,2 0 0 1 2,2 2,2 0 0 1 -2,2 2,2 0 0 1 -2,-2 2,2 0 0 1 2,-2 z" />
</svg>
