<?xml version="1.0" encoding="UTF-8" standalone="no"?>
<!-- Created with Inkscape (http://www.inkscape.org/) -->

<svg
   width="24"
   height="24"
   viewBox="0 0 24 24.000002"
   version="1.1"
   id="svg1"
   inkscape:version="1.4.2 (ebf0e940d0, 2025-05-08)"
   sodipodi:docname="software-properties.svg"
   xmlns:inkscape="http://www.inkscape.org/namespaces/inkscape"
   xmlns:sodipodi="http://sodipodi.sourceforge.net/DTD/sodipodi-0.dtd"
   xmlns:xlink="http://www.w3.org/1999/xlink"
   xmlns="http://www.w3.org/2000/svg"
   xmlns:svg="http://www.w3.org/2000/svg">
  <sodipodi:namedview
     id="namedview1"
     pagecolor="#ffffff"
     bordercolor="#000000"
     borderopacity="0.25"
     inkscape:showpageshadow="2"
     inkscape:pageopacity="0.0"
     inkscape:pagecheckerboard="0"
     inkscape:deskcolor="#d1d1d1"
     inkscape:document-units="px"
     inkscape:zoom="33.125"
     inkscape:cx="12"
     inkscape:cy="12"
     inkscape:window-width="1920"
     inkscape:window-height="1010"
     inkscape:window-x="0"
     inkscape:window-y="0"
     inkscape:window-maximized="1"
     inkscape:current-layer="svg1" />
  <defs
     id="defs1">
    <linearGradient
       inkscape:collect="always"
       xlink:href="#4852"
       id="linearGradient4"
       x1="16"
       y1="30"
       x2="16"
       y2="2"
       gradientUnits="userSpaceOnUse"
       gradientTransform="matrix(0.71428571,0,0,0.71428571,0.5714286,0.5714286)" />
    <linearGradient
       inkscape:collect="always"
       id="4852">
      <stop
         style="stop-color:#272727;stop-opacity:1;"
         offset="0"
         id="stop14555" />
      <stop
         style="stop-color:#5d5d5d;stop-opacity:1;"
         offset="1"
         id="stop14557" />
    </linearGradient>
    <linearGradient
       inkscape:collect="always"
       xlink:href="#4852"
       id="linearGradient27618"
       x1="8"
       y1="18"
       x2="8"
       y2="-1.9999998"
       gradientUnits="userSpaceOnUse"
       gradientTransform="translate(3.9998402,3.99984)" />
  </defs>
  <rect
     style="opacity:0.2;fill:#000000;stroke-width:1.75"
     id="rect1"
     width="20"
     height="20"
     x="2"
     y="2.5"
     ry="4" />
  <rect
     style="fill:url(#linearGradient4);stroke-width:0.714286"
     id="rect2"
     width="20"
     height="20"
     x="2"
     y="2"
     ry="4" />
  <path
     id="rect465"
     style="opacity:0.6;fill:#ffffff;stroke-linecap:round;stroke-linejoin:round"
     d="m 13.754744,5.15 -1.402496,2.370277 a 4.5,4.5 0 0 1 1.369668,0.3221053 4.5,4.5 0 0 1 1.198506,0.7353249 L 15.602504,5.9153669 Z M 10.245123,5.1507316 8.3975615,5.9160169 9.0820857,8.5863154 A 4.5,4.5 0 0 1 11.649278,7.5229498 Z m 7.83854,3.2468297 -2.662643,0.6813533 a 4.5,4.5 0 0 1 1.063366,2.5671914 l 2.364563,-1.400983 z M 8.58312,9.0815008 5.9153669,8.3971767 5.15,10.244936 7.5202765,11.647432 A 4.5,4.5 0 0 1 7.8423823,10.277765 4.5,4.5 0 0 1 8.58312,9.0815008 Z m 7.901697,3.2729902 a 4.5,4.5 0 0 1 -0.327519,1.367425 4.5,4.5 0 0 1 -0.740739,1.196263 l 2.667754,0.684325 0.765367,-1.84776 z m -8.9618671,-0.0041 -2.3722183,1.404155 0.7652847,1.847562 2.6702995,-0.684525 A 4.5,4.5 0 0 1 7.5229499,12.350402 Z m 7.3946441,3.062963 a 4.5,4.5 0 0 1 -2.567192,1.063365 l 1.404154,2.372218 1.847563,-0.765284 z m -5.8360933,0.0032 -0.684324,2.667753 1.8477593,0.765367 1.402496,-2.370276 a 4.5,4.5 0 0 1 -1.369667,-0.3221 4.5,4.5 0 0 1 -1.1962643,-0.740738 z" />
  <path
     id="path632"
     style="fill:#ffffff;stroke-linecap:round;stroke-linejoin:round"
     d="m 11.99984,6.9998402 c -2.7614235,0 -4.9999998,2.2385763 -4.9999998,4.9999998 0,2.761424 2.2385763,5 4.9999998,5 2.761424,0 5,-2.238576 5,-5 0,-2.7614235 -2.238576,-4.9999998 -5,-4.9999998 z" />
  <path
     id="rect26374"
     style="fill:url(#linearGradient27618);stroke-width:2;stroke-linecap:round;stroke-linejoin:round"
     d="m 10.99984,8.99984 v 4 H 9.9998402 l 1.9999998,2 2,-2 h -1 v -4 z" />
</svg>
