<?xml version="1.0" encoding="UTF-8" standalone="no"?>
<!-- Created with Inkscape (http://www.inkscape.org/) -->

<svg
   width="24"
   height="24"
   viewBox="0 0 24 24.000002"
   version="1.1"
   id="svg1"
   inkscape:version="1.4.2 (ebf0e940d0, 2025-05-08)"
   sodipodi:docname="steam.svg"
   xmlns:inkscape="http://www.inkscape.org/namespaces/inkscape"
   xmlns:sodipodi="http://sodipodi.sourceforge.net/DTD/sodipodi-0.dtd"
   xmlns:xlink="http://www.w3.org/1999/xlink"
   xmlns="http://www.w3.org/2000/svg"
   xmlns:svg="http://www.w3.org/2000/svg">
  <sodipodi:namedview
     id="namedview1"
     pagecolor="#ffffff"
     bordercolor="#000000"
     borderopacity="0.25"
     inkscape:showpageshadow="2"
     inkscape:pageopacity="0.0"
     inkscape:pagecheckerboard="0"
     inkscape:deskcolor="#d1d1d1"
     inkscape:document-units="px"
     inkscape:zoom="32.75"
     inkscape:cx="11.984733"
     inkscape:cy="12"
     inkscape:window-width="1920"
     inkscape:window-height="1011"
     inkscape:window-x="0"
     inkscape:window-y="0"
     inkscape:window-maximized="1"
     inkscape:current-layer="svg1" />
  <defs
     id="defs1">
    <linearGradient
       inkscape:collect="always"
       xlink:href="#linearGradient13"
       id="linearGradient4"
       x1="16"
       y1="2"
       x2="16"
       y2="30"
       gradientUnits="userSpaceOnUse"
       gradientTransform="matrix(0.71428571,0,0,0.71428571,0.57142857,0.57142857)" />
    <linearGradient
       inkscape:collect="always"
       id="linearGradient13">
      <stop
         style="stop-color:#202020;stop-opacity:1;"
         offset="0"
         id="stop7" />
      <stop
         style="stop-color:#1f1f1f;stop-opacity:1;"
         offset="0.2"
         id="stop8" />
      <stop
         style="stop-color:#292929;stop-opacity:1;"
         offset="0.40000001"
         id="stop9" />
      <stop
         style="stop-color:#3b3b3b;stop-opacity:1;"
         offset="0.60000002"
         id="stop10" />
      <stop
         style="stop-color:#494949;stop-opacity:1;"
         offset="0.69999999"
         id="stop11" />
      <stop
         style="stop-color:#555555;stop-opacity:1;"
         offset="0.87"
         id="stop12" />
      <stop
         style="stop-color:#666666;stop-opacity:1;"
         offset="1"
         id="stop13" />
    </linearGradient>
  </defs>
  <rect
     style="opacity:0.2;fill:#000000;stroke-width:1.75"
     id="rect1"
     width="20"
     height="20"
     x="2"
     y="2.5"
     ry="4" />
  <rect
     style="fill:url(#linearGradient4);stroke-width:0.714286"
     id="rect2"
     width="20"
     height="20"
     x="2"
     y="2"
     ry="4" />
  <path
     id="path8"
     style="fill:#ffffff"
     d="m 15,5 c -2.209133,0 -4,1.7908676 -4,4 0,0.2789473 0.02964,0.5516073 0.08398,0.8144531 L 8.6777344,13.078125 C 8.4555287,13.026398 8.228147,13.000186 8,13 7.1042431,13.0017 6.2560951,13.403545 5.6875,14.095703 L 2,12.751953 v 2.132813 l 3.0019531,1.08789 C 5.0012602,15.981756 5.00061,15.99089 5,16 c 0,1.656852 1.3431475,3 3,3 1.6568525,0 3,-1.343148 3,-3 -4.43e-4,-0.21813 -0.02468,-0.435561 -0.07227,-0.648438 l 3.433594,-2.404296 C 14.56932,12.980646 14.782602,13 15,13 c 2.209133,-10e-7 4,-1.790867 4,-4 0,-2.209132 -1.790867,-3.9999994 -4,-4 z m 0,1 c 1.656847,6e-7 3,1.3431508 3,3 0,1.656849 -1.343153,3 -3,3 -1.656849,0 -3,-1.343151 -3,-3 0,-1.6568497 1.343151,-3 3,-3 z m 0,1 c -1.104568,0 -2,0.8954316 -2,2 0,1.104568 0.895432,2 2,2 1.104568,0 2,-0.895432 2,-2 0,-1.1045684 -0.895432,-2 -2,-2 z m -7,7 c 1.1045684,0 2,0.895432 2,2 0,1.104568 -0.8954316,2 -2,2 -0.9701457,-3.89e-4 -1.8001116,-0.696968 -1.96875,-1.652344 l 1.6269531,0.591797 c 0.5205887,0.189479 1.0917716,-0.07707 1.28125,-0.597656 0.1894788,-0.520589 -0.077068,-1.091771 -0.5976562,-1.28125 L 6.7148438,14.46875 C 7.0748144,14.166298 7.5298343,14.000334 8,14 Z" />
</svg>
