<?xml version="1.0" encoding="UTF-8" standalone="no"?>
<!-- Created with Inkscape (http://www.inkscape.org/) -->

<svg
   width="24"
   height="24"
   viewBox="0 0 24 24.000002"
   version="1.1"
   id="svg1"
   inkscape:version="1.4.2 (ebf0e940d0, 2025-05-08)"
   sodipodi:docname="virt-manager.svg"
   xmlns:inkscape="http://www.inkscape.org/namespaces/inkscape"
   xmlns:sodipodi="http://sodipodi.sourceforge.net/DTD/sodipodi-0.dtd"
   xmlns:xlink="http://www.w3.org/1999/xlink"
   xmlns="http://www.w3.org/2000/svg"
   xmlns:svg="http://www.w3.org/2000/svg">
  <sodipodi:namedview
     id="namedview1"
     pagecolor="#ffffff"
     bordercolor="#000000"
     borderopacity="0.25"
     inkscape:showpageshadow="2"
     inkscape:pageopacity="0.0"
     inkscape:pagecheckerboard="0"
     inkscape:deskcolor="#d1d1d1"
     inkscape:document-units="px"
     inkscape:zoom="33.666667"
     inkscape:cx="11.985149"
     inkscape:cy="12"
     inkscape:window-width="1920"
     inkscape:window-height="1011"
     inkscape:window-x="0"
     inkscape:window-y="0"
     inkscape:window-maximized="1"
     inkscape:current-layer="svg1" />
  <defs
     id="defs1">
    <linearGradient
       inkscape:collect="always"
       xlink:href="#4852"
       id="linearGradient4"
       x1="16"
       y1="30"
       x2="16"
       y2="2"
       gradientUnits="userSpaceOnUse"
       gradientTransform="matrix(0.71428571,0,0,0.71428571,0.57142857,0.57142857)" />
    <linearGradient
       inkscape:collect="always"
       id="4852">
      <stop
         style="stop-color:#272727;stop-opacity:1;"
         offset="0"
         id="stop14555" />
      <stop
         style="stop-color:#5d5d5d;stop-opacity:1;"
         offset="1"
         id="stop14557" />
    </linearGradient>
  </defs>
  <rect
     style="opacity:0.2;fill:#000000;stroke-width:1.75"
     id="rect1"
     width="20"
     height="20"
     x="2"
     y="2.5"
     ry="4" />
  <rect
     style="fill:url(#linearGradient4);stroke-width:0.714286"
     id="rect2"
     width="20"
     height="20"
     x="2"
     y="2"
     ry="4" />
  <path
     id="path4"
     style="fill:#ececec"
     d="m 16.5,9 -2.400391,6 h 1.800782 l 1.5,-3.599609 1.5,3.599609 h 1.798828 L 18.300781,9 Z" />
  <path
     style="fill:#909198"
     d="m 12.3,15 2.4,-6 h 1.8 l 2.4,6 H 17.1 L 15.599757,11.4 14.1,15 h -1.799879 z"
     id="path6" />
  <path
     style="fill:#ececec"
     d="m 9.3,15 2.4,-6 h 1.8 l 2.4,6 H 14.1 L 12.599757,11.4 11.1,15 H 9.300121 Z"
     id="path8" />
  <path
     style="fill:#909198"
     d="M 7.5,15 9.9,9 h 1.8 l 2.4,6 H 12.3 L 10.799757,11.4 9.3,15 H 7.500121 Z"
     id="path10" />
  <path
     style="fill:#a53655"
     d="m 3.3,9 2.4,6 H 7.5 L 9.9,9 H 8.1 L 6.599757,12.6 5.1,9 H 3.3001212 Z"
     id="path12" />
</svg>
