<?xml version="1.0" encoding="UTF-8" standalone="no"?>
<!-- Created with Inkscape (http://www.inkscape.org/) -->

<svg
   width="24"
   height="24"
   viewBox="0 0 24 24.000002"
   version="1.1"
   id="svg1"
   inkscape:version="1.4.2 (ebf0e940d0, 2025-05-08)"
   sodipodi:docname="yast-sw_single.svg"
   xmlns:inkscape="http://www.inkscape.org/namespaces/inkscape"
   xmlns:sodipodi="http://sodipodi.sourceforge.net/DTD/sodipodi-0.dtd"
   xmlns:xlink="http://www.w3.org/1999/xlink"
   xmlns="http://www.w3.org/2000/svg"
   xmlns:svg="http://www.w3.org/2000/svg">
  <sodipodi:namedview
     id="namedview1"
     pagecolor="#ffffff"
     bordercolor="#000000"
     borderopacity="0.25"
     inkscape:showpageshadow="2"
     inkscape:pageopacity="0.0"
     inkscape:pagecheckerboard="0"
     inkscape:deskcolor="#d1d1d1"
     inkscape:document-units="px"
     inkscape:zoom="33.166667"
     inkscape:cx="11.984925"
     inkscape:cy="12"
     inkscape:window-width="1920"
     inkscape:window-height="1011"
     inkscape:window-x="0"
     inkscape:window-y="0"
     inkscape:window-maximized="1"
     inkscape:current-layer="svg1" />
  <defs
     id="defs1">
    <linearGradient
       inkscape:collect="always"
       xlink:href="#4852"
       id="linearGradient4"
       x1="16"
       y1="30"
       x2="16"
       y2="2"
       gradientUnits="userSpaceOnUse"
       gradientTransform="matrix(0.71428567,0,0,0.71428567,0.57142863,0.57142867)" />
    <linearGradient
       inkscape:collect="always"
       id="4852">
      <stop
         style="stop-color:#272727;stop-opacity:1;"
         offset="0"
         id="stop14555" />
      <stop
         style="stop-color:#5d5d5d;stop-opacity:1;"
         offset="1"
         id="stop14557" />
    </linearGradient>
    <linearGradient
       inkscape:collect="always"
       xlink:href="#linearGradient920"
       id="linearGradient2"
       x1="11"
       y1="21"
       x2="11"
       y2="1"
       gradientUnits="userSpaceOnUse"
       gradientTransform="translate(0.99999999,1.0000001)" />
    <linearGradient
       inkscape:collect="always"
       id="linearGradient920">
      <stop
         style="stop-color:#82bf39;stop-opacity:1;"
         offset="0"
         id="stop916" />
      <stop
         style="stop-color:#bada82;stop-opacity:1;"
         offset="1"
         id="stop918" />
    </linearGradient>
  </defs>
  <rect
     style="opacity:0.2;fill:#000000;stroke-width:1.75"
     id="rect1"
     width="20"
     height="20"
     x="2"
     y="2.5"
     ry="4" />
  <rect
     style="fill:url(#linearGradient4);stroke-width:0.714286"
     id="rect2"
     width="20"
     height="20"
     x="2"
     y="2"
     ry="4" />
  <path
     style="color:#000000;fill:#ececec;fill-opacity:1;stroke:none;stroke-width:1;stroke-linecap:round;stroke-linejoin:round;-inkscape-stroke:none"
     d="M 12,8.9999997 C 9.7967856,8.9999997 7.9999997,7.2032143 7.9999997,5 a 0.49999998,0.49999998 0 0 1 0.5,-0.5 0.49999998,0.49999998 0 0 1 0.4999999,0.5 c 0,1.6627748 1.3372254,2.9999998 3.0000004,2.9999998 1.662774,0 3,-1.337225 3,-2.9999998 a 0.49999998,0.49999998 0 0 1 0.499999,-0.5 0.49999998,0.49999998 0 0 1 0.5,0.5 c 0,2.2032143 -1.796786,3.9999997 -3.999999,3.9999997 z"
     id="path6954" />
  <path
     id="rect4083"
     style="fill:url(#linearGradient2);stroke-width:1"
     d="m 12,10.999999 c -0.553999,0 -1.000001,0.446002 -1.000001,1 v 4 H 8.9999996 l 3.0000004,3 3,-3 h -2 v -4 c 0,-0.553998 -0.446002,-1 -1,-1 z"
     sodipodi:nodetypes="sscccccss" />
</svg>
